# Blender v2.93.5 OBJ File: 'Frostlands.blend'
# www.blender.org
mtllib Snow_Tile_04.mtl
o Cube.124_export_temp_Cube.061
v 0.000000 0.000000 -1.000000
v 1.000000 0.000000 1.000000
v 0.000000 0.000000 1.000000
v 1.000000 0.000000 0.000000
v 0.000000 0.000000 0.000000
v 1.000000 0.000000 -1.000000
v -1.000000 0.000000 1.000000
v -1.000000 0.000000 -1.000000
v -1.000000 0.000000 0.000000
vt 0.937549 0.812549
vt 0.999951 0.812549
vt 0.999951 0.874951
vt 0.937549 0.874951
vt 0.937549 0.812549
vt 0.999951 0.812549
vt 0.999951 0.874951
vt 0.937549 0.874951
vt 0.937549 0.812549
vt 0.999951 0.812549
vt 0.999951 0.874951
vt 0.937549 0.874951
vt 0.937549 0.812549
vt 0.999951 0.812549
vt 0.999951 0.874951
vt 0.937549 0.874951
vn 0.0000 1.0000 0.0000
usemtl frostland_tilesheet
s off
f 3/1/1 2/2/1 4/3/1 5/4/1
f 5/5/1 4/6/1 6/7/1 1/8/1
f 9/9/1 5/10/1 1/11/1 8/12/1
f 7/13/1 3/14/1 5/15/1 9/16/1
