# Blender v2.93.5 OBJ File: 'Frostlands.blend'
# www.blender.org
mtllib StonePath_Tile_04.mtl
o Cube.130_export_temp_Cube.061
v 0.000000 0.000000 0.000000
v 1.000000 0.000000 -1.000000
v 0.000000 0.000000 1.000000
v 1.000000 0.000000 1.000000
v 1.000000 0.000000 0.000000
v -1.000000 0.000000 1.000000
v 0.000000 0.000000 -1.000000
v -1.000000 0.000000 -1.000000
v -1.000000 0.000000 0.000000
vt 0.937549 0.625049
vt 0.999951 0.625049
vt 0.999951 0.687451
vt 0.937549 0.687451
vt 0.937549 0.625049
vt 0.999951 0.625049
vt 0.999951 0.687451
vt 0.937549 0.687451
vt 0.937549 0.625049
vt 0.999951 0.625049
vt 0.999951 0.687451
vt 0.937549 0.687451
vt 0.937549 0.625049
vt 0.999951 0.625049
vt 0.999951 0.687451
vt 0.937549 0.687451
vn 0.0000 1.0000 0.0000
usemtl frostland_tilesheet
s off
f 1/1/1 5/2/1 2/3/1 7/4/1
f 3/5/1 4/6/1 5/7/1 1/8/1
f 9/9/1 1/10/1 7/11/1 8/12/1
f 6/13/1 3/14/1 1/15/1 9/16/1
