# Blender v2.93.5 OBJ File: 'Cavern_Stone_03.blend'
# www.blender.org
mtllib Cavern_Stone_03.mtl
o Cube
v 0.057773 0.048544 0.061294
v -0.010831 0.000000 -0.010831
v -0.010831 0.000000 0.073331
v 0.000617 0.048242 0.053874
v 0.073331 0.000000 0.073331
v 0.073331 0.000000 -0.010831
v 0.007810 0.047209 0.004497
v 0.062500 0.044882 0.000000
v 0.031250 0.050064 0.000000
v 0.030923 0.052585 0.062087
v 0.031250 0.000000 -0.010831
v 0.020343 0.000000 0.083801
v -0.010831 0.000000 0.031250
v 0.062500 0.050490 0.031250
v 0.000215 0.049836 0.031406
v 0.073331 0.000000 0.031250
v 0.031250 0.000000 0.031250
v 0.034807 0.060484 0.029023
v 0.067915 0.031250 0.067915
v -0.015398 0.027796 0.063602
v -0.000072 0.023605 -0.005415
v 0.067915 0.022441 -0.005415
v 0.031250 0.025032 -0.013437
v 0.018744 0.031250 0.078385
v 0.074593 0.031250 0.031250
v -0.011998 0.027025 0.024629
vt 0.369318 0.441406
vt 0.372159 0.441406
vt 0.372159 0.445312
vt 0.369318 0.445312
vt 0.389205 0.472656
vt 0.391974 0.472656
vt 0.391974 0.476465
vt 0.389205 0.476465
vt 0.389205 0.472656
vt 0.391974 0.472656
vt 0.391974 0.476465
vt 0.389205 0.476465
vt 0.389205 0.472656
vt 0.391974 0.472656
vt 0.391974 0.476465
vt 0.389205 0.476465
vt 0.366477 0.449219
vt 0.369318 0.449219
vt 0.369318 0.453125
vt 0.366477 0.453125
vt 0.389205 0.472656
vt 0.391974 0.472656
vt 0.391974 0.476465
vt 0.389205 0.476465
vt 0.386435 0.472656
vt 0.386435 0.476465
vt 0.366477 0.449219
vt 0.369318 0.449219
vt 0.369318 0.453125
vt 0.366477 0.453125
vt 0.389205 0.472656
vt 0.392045 0.472656
vt 0.392045 0.476562
vt 0.389205 0.476562
vt 0.386435 0.472656
vt 0.386435 0.476465
vt 0.366477 0.449219
vt 0.369318 0.449219
vt 0.369318 0.453125
vt 0.366477 0.453125
vt 0.386435 0.468848
vt 0.389205 0.468848
vt 0.391974 0.468848
vt 0.366477 0.449219
vt 0.369318 0.449219
vt 0.369318 0.453125
vt 0.366477 0.453125
vt 0.386435 0.472656
vt 0.386435 0.476465
vt 0.366477 0.445312
vt 0.369318 0.445312
vt 0.366477 0.449219
vt 0.366477 0.437500
vt 0.369318 0.437500
vt 0.366477 0.441406
vt 0.389205 0.468848
vt 0.386435 0.468848
vt 0.386435 0.468848
vt 0.389205 0.468848
vt 0.386435 0.472656
vt 0.386364 0.468750
vt 0.389205 0.468750
vt 0.389205 0.472656
vt 0.386364 0.472656
vt 0.386364 0.468750
vt 0.389205 0.468750
vt 0.386364 0.472656
vt 0.391974 0.468848
vt 0.372159 0.437500
vn -0.9431 0.2896 -0.1634
vn -0.8423 0.3201 0.4336
vn -0.5206 0.7925 0.3177
vn -0.5988 0.7942 -0.1030
vn -0.1245 0.4077 0.9046
vn 0.6942 0.3633 0.6214
vn 0.4553 0.7422 0.4917
vn -0.0175 0.8390 0.5438
vn 0.9575 0.2882 -0.0087
vn 0.6836 0.2553 -0.6838
vn 0.5324 0.6438 -0.5495
vn 0.6136 0.7893 -0.0231
vn -0.0218 0.2540 -0.9669
vn -0.6106 0.3167 -0.7259
vn -0.4817 0.7008 -0.5262
vn -0.0279 0.7695 -0.6380
vn 0.0200 0.9984 -0.0519
vn 0.0000 -1.0000 0.0000
vn -0.7025 -0.7084 -0.0678
vn -0.6180 -0.5251 -0.5850
vn -0.0024 -0.6818 -0.7315
vn 0.7334 -0.6798 -0.0035
vn 0.5932 -0.5498 -0.5881
vn 0.6336 -0.5259 0.5674
vn -0.0623 -0.5780 0.8136
vn -0.6302 -0.5607 0.5370
usemtl Caverns_Tileset
s 1
f 26/1/1 20/2/2 4/3/3 15/4/4
f 24/5/5 19/6/6 1/7/7 10/8/8
f 25/9/9 22/10/10 8/11/11 14/12/12
f 23/13/13 21/14/14 7/15/15 9/16/16
f 18/17/17 15/18/4 4/19/3 10/20/8
f 17/21/18 13/22/19 2/23/20 11/24/21
f 16/25/22 17/21/18 11/24/21 6/26/23
f 14/27/12 18/28/17 10/29/8 1/30/7
f 22/31/10 23/32/13 9/33/16 8/34/11
f 20/35/2 24/5/5 10/8/8 4/36/3
f 8/37/11 9/38/16 18/39/17 14/40/12
f 5/41/24 12/42/25 17/21/18 16/25/22
f 12/42/25 3/43/26 13/22/19 17/21/18
f 9/44/16 7/45/15 15/46/4 18/47/17
f 19/48/6 25/9/9 14/12/12 1/49/7
f 21/50/14 26/51/1 15/18/4 7/52/15
f 2/53/20 13/54/19 26/1/1 21/55/14
f 5/41/24 16/56/22 25/9/9 19/48/6
f 3/57/26 12/42/25 24/5/5 20/35/2
f 6/58/23 11/59/21 23/13/13 22/60/10
f 11/61/21 2/62/20 21/63/14 23/64/13
f 16/65/22 6/66/23 22/31/10 25/67/9
f 12/42/25 5/68/24 19/6/6 24/5/5
f 13/54/19 3/69/26 20/2/2 26/1/1
