# Blender v2.93.5 OBJ File: 'Cavern_Plank_05.blend'
# www.blender.org
mtllib Cavern_Plank_05.mtl
o Cube
v 0.250004 0.000000 1.124999
v 0.249997 0.000000 -0.875001
v 0.000004 0.000000 1.125000
v 0.250004 -0.062500 1.124999
v 0.250004 -0.062500 -0.875001
v 0.250004 0.000000 -0.875001
v -0.000003 -0.062500 -0.875000
v -0.000003 0.000000 1.125000
v -0.000003 0.000000 -0.875000
v -0.000003 -0.062500 1.125000
v 0.249996 -0.062501 1.125000
v 0.249997 -0.000001 1.125000
v 0.000004 -0.062501 -0.875001
v 0.000004 -0.000001 -0.875001
v 0.000004 -0.062500 1.125000
v 0.249997 -0.062500 -0.875001
vt 0.500071 0.562598
vt 0.681747 0.562598
vt 0.681747 0.593652
vt 0.500071 0.593652
vt 0.500071 0.601465
vt 0.681747 0.601465
vt 0.681747 0.593848
vt 0.500071 0.593848
vt 0.500071 0.601465
vt 0.681747 0.601465
vt 0.681747 0.593848
vt 0.500071 0.593848
vt 0.636435 0.500098
vt 0.641974 0.500098
vt 0.641974 0.531152
vt 0.636435 0.531152
vt 0.636435 0.500098
vt 0.641974 0.500098
vt 0.641974 0.531152
vt 0.636435 0.531152
vt 0.500071 0.562598
vt 0.681747 0.562598
vt 0.681747 0.593652
vt 0.500071 0.593652
vn 0.0000 1.0000 0.0000
vn 1.0000 0.0000 0.0000
vn -1.0000 0.0000 -0.0000
vn -0.0000 0.0000 1.0000
vn 0.0000 0.0000 -1.0000
vn 0.0000 -1.0000 -0.0000
usemtl Caverns_Tileset
s off
f 1/1/1 2/2/1 9/3/1 3/4/1
f 4/5/2 5/6/2 6/7/2 1/8/2
f 7/9/3 10/10/3 8/11/3 9/12/3
f 8/13/4 10/14/4 11/15/4 12/16/4
f 6/17/5 5/18/5 13/19/5 14/20/5
f 15/21/6 7/22/6 16/23/6 4/24/6
