# Blender v2.93.5 OBJ File: 'Cavern_Rope_Fence_05.blend'
# www.blender.org
mtllib Cavern_Rope_Fence_05.mtl
o Cube
v -0.017191 0.281005 -0.066573
v -0.017191 0.000987 -0.808036
v -0.017191 0.032237 -0.808036
v -0.017191 0.160497 -0.190447
v -0.017191 0.191439 -0.194826
v -0.017191 0.058106 -0.375720
v -0.017191 0.000622 -0.587036
v -0.017191 0.031872 -0.587036
v -0.017191 0.312255 -0.066573
v -0.048441 0.191439 -0.194826
v -0.048441 0.031872 -0.587036
v -0.048441 0.000622 -0.588036
v -0.048441 0.089356 -0.375720
v -0.017191 0.089356 -0.375720
v -0.048441 0.058106 -0.378220
v -0.048441 0.000987 -0.808036
v -0.048441 0.160497 -0.190447
v -0.048441 0.281005 -0.066573
v -0.048441 0.312255 -0.066573
v -0.048441 0.032237 -0.808036
vt 0.298051 0.527441
vt 0.318111 0.527441
vt 0.318111 0.531152
vt 0.298051 0.531152
vt 0.227344 0.527441
vt 0.240959 0.527441
vt 0.240959 0.531152
vt 0.227344 0.531152
vt 0.267962 0.527441
vt 0.267962 0.531152
vt 0.298051 0.527441
vt 0.318111 0.527441
vt 0.318111 0.531152
vt 0.298051 0.531152
vt 0.227344 0.527441
vt 0.240959 0.527441
vt 0.240959 0.531152
vt 0.227344 0.531152
vt 0.267962 0.527441
vt 0.267962 0.531152
vt 0.298142 0.527441
vt 0.318111 0.527441
vt 0.318111 0.531152
vt 0.298142 0.531152
vt 0.227344 0.527441
vt 0.240959 0.527441
vt 0.240959 0.531152
vt 0.227344 0.531152
vt 0.304496 0.527441
vt 0.318111 0.527441
vt 0.318111 0.531152
vt 0.304496 0.531152
vt 0.268189 0.527441
vt 0.268189 0.531152
vt 0.241164 0.527441
vt 0.241164 0.531152
vt 0.247403 0.527441
vt 0.277493 0.527441
vt 0.277493 0.531152
vt 0.247403 0.531152
vt 0.227344 0.527441
vt 0.227344 0.531152
vn 0.6754 -0.7306 0.0993
vn 0.7075 -0.7067 -0.0012
vn 0.7067 0.7074 0.0012
vn 0.7383 0.6685 -0.0887
vn 0.8305 -0.3992 0.3883
vn 0.6746 -0.5935 0.4389
vn 0.7353 0.5458 -0.4018
vn 0.4606 0.6460 -0.6086
vn 0.6752 -0.6823 0.2803
vn 0.7360 0.6261 -0.2571
vn -0.7067 0.7074 0.0012
vn -0.7383 0.6685 -0.0887
vn -0.7353 0.5458 -0.4018
vn -0.4606 0.6460 -0.6086
vn -0.7360 0.6261 -0.2571
vn -0.6808 -0.7262 0.0947
vn -0.7074 -0.7067 -0.0012
vn -0.8305 -0.3992 0.3883
vn -0.6816 -0.5883 0.4351
vn -0.6879 -0.6744 0.2683
usemtl Caverns_Tileset
s 1
f 7/1/1 2/2/2 3/3/3 8/4/4
f 1/5/5 4/6/6 5/7/7 9/8/8
f 4/6/6 6/9/9 14/10/10 5/7/7
f 6/9/9 7/1/1 8/4/4 14/10/10
f 8/11/4 3/12/3 20/13/11 11/14/12
f 9/15/8 5/16/7 10/17/13 19/18/14
f 5/16/7 14/19/10 13/20/15 10/17/13
f 14/19/10 8/11/4 11/14/12 13/20/15
f 12/21/16 16/22/17 2/23/2 7/24/1
f 18/25/18 17/26/19 4/27/6 1/28/5
f 17/29/19 18/30/18 19/31/14 10/32/13
f 15/33/20 12/21/16 7/24/1 6/34/9
f 17/35/19 15/33/20 6/34/9 4/36/6
f 12/37/16 15/38/20 13/39/15 11/40/12
f 16/41/17 12/37/16 11/40/12 20/42/11
f 15/38/20 17/29/19 10/32/13 13/39/15
