# Blender v2.93.5 OBJ File: 'Cavern_Rope_Fence_01.blend'
# www.blender.org
mtllib Cavern_Rope_Fence_01.mtl
o Cube
v -0.062500 0.406250 -0.062500
v -0.010301 0.000000 -0.010301
v -0.052199 0.000000 -0.052199
v -0.052199 0.000000 -0.010301
v 0.000000 0.406250 0.000000
v -0.060955 0.345312 -0.060955
v -0.010301 0.000000 -0.052199
v 0.000000 0.406250 -0.062500
v -0.062500 0.406250 0.000000
v -0.001545 0.345312 -0.001545
v -0.060955 0.345312 -0.001545
v -0.001545 0.345312 -0.060955
v -0.059204 0.276250 -0.059204
v -0.003296 0.276250 -0.003296
v -0.059204 0.276250 -0.003296
v -0.003296 0.276250 -0.059204
v 0.004629 0.345312 0.004629
v -0.067129 0.345312 0.004629
v -0.067129 0.345312 -0.067129
v 0.004629 0.345312 -0.067129
v -0.065014 0.276250 -0.065014
v 0.002514 0.276250 0.002514
v -0.065014 0.276250 0.002514
v 0.002514 0.276250 -0.065014
v -0.072637 0.310781 -0.072637
v 0.010137 0.310781 0.010137
v -0.072637 0.310781 0.010137
v 0.010137 0.310781 -0.072637
vt 0.249929 0.531152
vt 0.244389 0.531152
vt 0.244389 0.527441
vt 0.249929 0.527441
vt 0.193253 0.554785
vt 0.198793 0.554785
vt 0.198793 0.562402
vt 0.193253 0.562402
vt 0.193253 0.547002
vt 0.198793 0.547002
vt 0.198793 0.554590
vt 0.193253 0.554590
vt 0.193253 0.547002
vt 0.198793 0.547002
vt 0.198793 0.554590
vt 0.193253 0.554590
vt 0.193253 0.547002
vt 0.198793 0.547002
vt 0.198793 0.554590
vt 0.193253 0.554590
vt 0.193253 0.547002
vt 0.198793 0.547002
vt 0.198793 0.554590
vt 0.193253 0.554590
vt 0.249929 0.531152
vt 0.244389 0.531152
vt 0.244389 0.527441
vt 0.249929 0.527441
vt 0.249929 0.531152
vt 0.244389 0.531152
vt 0.244389 0.527441
vt 0.249929 0.527441
vt 0.244389 0.527441
vt 0.249929 0.527441
vt 0.249929 0.531152
vt 0.244389 0.531152
vt 0.193253 0.504004
vt 0.198793 0.504004
vt 0.198793 0.538402
vt 0.193253 0.538402
vt 0.193253 0.504004
vt 0.198793 0.504004
vt 0.198793 0.538402
vt 0.193253 0.538402
vt 0.193253 0.504004
vt 0.198793 0.504004
vt 0.198793 0.538402
vt 0.193253 0.538402
vt 0.193253 0.504004
vt 0.198793 0.504004
vt 0.198793 0.538402
vt 0.193253 0.538402
vt 0.249929 0.527441
vt 0.244389 0.527441
vt 0.244389 0.531152
vt 0.249929 0.531152
vt 0.235795 0.527344
vt 0.237216 0.527344
vt 0.238636 0.531152
vt 0.235795 0.531152
vt 0.249929 0.527441
vt 0.244389 0.527441
vt 0.244389 0.531152
vt 0.249929 0.531152
vt 0.232955 0.527344
vt 0.230114 0.527344
vt 0.230114 0.531152
vt 0.232955 0.531152
vt 0.244389 0.527441
vt 0.249929 0.527441
vt 0.249929 0.531152
vt 0.244389 0.531152
vt 0.249929 0.531152
vt 0.244389 0.527441
vt 0.244389 0.527441
vt 0.249929 0.531152
vt 0.244389 0.531152
vt 0.244389 0.527441
vt 0.249929 0.527441
vt 0.249929 0.531152
vt 0.244389 0.531152
vt 0.244389 0.527441
vt 0.249929 0.527441
vt 0.249929 0.527441
vt 0.249929 0.531152
vt 0.244389 0.531152
vt 0.235795 0.523535
vt 0.238636 0.523535
vt 0.238636 0.527344
vt 0.249929 0.527441
vt 0.244389 0.527441
vt 0.244389 0.531152
vt 0.249929 0.531152
vt 0.238636 0.523535
vt 0.235795 0.523535
vt 0.238636 0.527344
vn 0.3097 0.8990 -0.3097
vn 0.3097 0.8990 0.3097
vn 0.5317 0.6593 0.5317
vn 0.5317 0.6593 -0.5317
vn -0.5839 0.5640 0.5839
vn 0.5839 0.5640 0.5839
vn 0.5839 0.5640 -0.5839
vn -0.5839 0.5640 -0.5839
vn -0.3097 0.8990 0.3097
vn -0.3097 0.8990 -0.3097
vn -0.5317 0.6593 0.5317
vn -0.2934 -0.9098 0.2934
vn 0.2934 -0.9098 0.2934
vn 0.5126 -0.6888 0.5126
vn -0.5126 -0.6888 0.5126
vn 0.2934 -0.9098 -0.2934
vn -0.2934 -0.9098 -0.2934
vn -0.5126 -0.6888 -0.5126
vn 0.5126 -0.6888 -0.5126
vn -0.7066 -0.0358 0.7066
vn 0.7066 -0.0358 0.7066
vn -0.7066 -0.0358 -0.7066
vn 0.7066 -0.0358 -0.7066
vn 0.7066 -0.0363 0.7066
vn 0.7066 -0.0363 -0.7066
vn -0.7066 -0.0363 -0.7066
vn -0.5317 0.6593 -0.5317
vn -0.7066 -0.0363 0.7066
usemtl Caverns_Tileset
s 1
f 12/1/1 10/2/2 17/3/3 20/4/4
f 9/5/5 5/6/6 8/7/7 1/8/8
f 11/9/9 10/10/2 5/11/6 9/12/5
f 6/13/10 11/14/9 9/15/5 1/16/8
f 12/17/1 6/18/10 1/19/8 8/20/7
f 10/21/2 12/22/1 8/23/7 5/24/6
f 10/25/2 11/26/9 18/27/11 17/28/3
f 15/29/12 14/30/13 22/31/14 23/32/15
f 16/33/16 13/34/17 21/35/18 24/36/19
f 4/37/20 2/38/21 14/39/13 15/40/12
f 3/41/22 4/42/20 15/43/12 13/44/17
f 7/45/23 3/46/22 13/47/17 16/48/16
f 2/49/21 7/50/23 16/51/16 14/52/13
f 26/53/24 28/54/25 20/55/4 17/56/3
f 28/57/25 25/58/26 19/59/27 20/60/4
f 25/61/26 27/62/28 18/63/11 19/64/27
f 27/65/28 26/66/24 17/67/3 18/68/11
f 14/69/13 16/70/16 24/71/19 22/72/14
f 13/73/17 15/74/12 23/75/15 21/35/18
f 11/76/9 6/77/10 19/78/27 18/79/11
f 6/80/10 12/81/1 20/82/4 19/83/27
f 23/75/15 22/84/14 26/85/24 27/86/28
f 21/87/18 23/88/15 27/89/28 25/58/26
f 24/90/19 21/91/18 25/92/26 28/93/25
f 22/94/14 24/95/19 28/57/25 26/96/24
