# Blender v2.93.5 OBJ File: 'Cavern_Stone_02.blend'
# www.blender.org
mtllib Cavern_Stone_02.mtl
o Cube
v 0.013632 0.000000 0.122577
v 0.108048 0.000000 0.006698
v 0.009213 0.000000 0.004467
v 0.119456 0.000000 0.122295
v 0.038335 0.065170 0.095131
v 0.026233 0.050101 0.022881
v 0.089080 0.053855 0.023895
v 0.105265 0.071235 0.098874
v -0.013238 0.000000 0.062500
v 0.017755 0.075456 0.064243
v 0.106856 0.068924 0.062798
v 0.130000 0.000000 0.062500
v 0.062807 0.062231 0.013938
v 0.062500 0.000000 0.130000
v 0.068138 0.075456 0.109674
v 0.062500 0.000000 -0.005000
v 0.062500 0.000000 0.062500
v 0.062500 0.093750 0.062500
vt 0.372159 0.468848
vt 0.377770 0.468848
vt 0.377770 0.480371
vt 0.372159 0.480371
vt 0.372159 0.468848
vt 0.377770 0.468848
vt 0.377770 0.480371
vt 0.372159 0.480371
vt 0.372159 0.468848
vt 0.377770 0.468848
vt 0.377770 0.480371
vt 0.372159 0.480371
vt 0.372159 0.445312
vt 0.377770 0.445312
vt 0.377770 0.453027
vt 0.372159 0.453027
vt 0.372159 0.468848
vt 0.377770 0.468848
vt 0.377770 0.480371
vt 0.372159 0.480371
vt 0.372159 0.445312
vt 0.377770 0.445312
vt 0.377770 0.453027
vt 0.372159 0.453027
vt 0.372159 0.437598
vt 0.377770 0.437598
vt 0.366548 0.468848
vt 0.372159 0.480469
vt 0.366477 0.476562
vt 0.366477 0.449219
vt 0.369318 0.449219
vt 0.369318 0.453125
vt 0.366548 0.453027
vt 0.366548 0.468848
vt 0.366548 0.480371
vt 0.372159 0.445312
vt 0.377841 0.445312
vt 0.377841 0.453125
vt 0.372159 0.453125
vt 0.366548 0.437598
vt 0.366548 0.445312
vt 0.366548 0.453027
vt 0.372159 0.437598
vt 0.377770 0.437598
vt 0.366548 0.468848
vt 0.366548 0.480371
vt 0.366548 0.468848
vt 0.366548 0.480371
vn 0.0326 -0.5310 -0.8467
vn -0.5835 -0.4511 -0.6752
vn -0.5491 0.5256 -0.6498
vn 0.0364 0.6259 -0.7790
vn 0.8402 -0.5256 -0.1332
vn 0.5936 -0.4685 -0.6543
vn 0.5631 0.5209 -0.6416
vn 0.7435 0.6501 -0.1565
vn -0.0546 -0.5516 0.8323
vn 0.6342 -0.4631 0.6191
vn 0.6157 0.6204 0.4858
vn -0.0048 0.6902 0.7236
vn -0.0164 0.9932 -0.1149
vn -0.7036 0.7106 -0.0025
vn -0.8831 -0.4671 0.0431
vn -0.5730 -0.4388 0.6922
vn -0.5182 0.5853 0.6235
vn 0.0000 -1.0000 0.0000
usemtl Caverns_Tileset
s 1
f 16/1/1 3/2/2 6/3/3 13/4/4
f 12/5/5 2/6/6 7/7/7 11/8/8
f 14/9/9 4/10/10 8/11/11 15/12/12
f 18/13/13 13/14/4 6/15/3 10/16/14
f 9/17/15 1/18/16 5/19/17 10/20/14
f 17/21/18 12/22/5 4/23/10 14/24/9
f 16/25/1 2/26/6 12/22/5 17/21/18
f 3/27/2 9/17/15 10/28/14 6/29/3
f 15/30/12 18/31/13 10/32/14 5/33/17
f 4/34/10 12/5/5 11/8/8 8/35/11
f 8/36/11 11/37/8 18/38/13 15/39/12
f 3/40/2 16/25/1 17/21/18 9/41/15
f 9/41/15 17/21/18 14/24/9 1/42/16
f 11/43/8 7/44/7 13/14/4 18/13/13
f 1/45/16 14/9/9 15/12/12 5/46/17
f 2/47/6 16/1/1 13/4/4 7/48/7
