# Blender v2.93.5 OBJ File: 'Cavern_Plank_04.blend'
# www.blender.org
mtllib Cavern_Plank_04.mtl
o Cube
v 0.000000 -0.000001 0.000000
v -0.250000 0.000000 -1.000000
v -0.250000 -0.062500 0.000000
v -0.250000 -0.062500 -1.000000
v 0.000000 -0.062499 -1.000000
v -0.000000 -0.062501 0.000000
v -0.000000 0.000001 -1.000000
v -0.250000 -0.000000 0.000000
vt 0.636435 0.531152
vt 0.641974 0.531152
vt 0.641974 0.500098
vt 0.636435 0.500098
vt 0.636435 0.531152
vt 0.641974 0.531152
vt 0.641974 0.500098
vt 0.636435 0.500098
vt 0.545526 0.500098
vt 0.636293 0.500098
vt 0.636293 0.531152
vt 0.545526 0.531152
vt 0.545526 0.538965
vt 0.636293 0.538965
vt 0.636293 0.531348
vt 0.545526 0.531348
vt 0.545526 0.531348
vt 0.636293 0.531348
vt 0.636293 0.538965
vt 0.545526 0.538965
vt 0.636293 0.531152
vt 0.545526 0.531152
vt 0.545526 0.500098
vt 0.636293 0.500098
vn 0.0000 0.0000 1.0000
vn 0.0000 0.0000 -1.0000
vn 0.0000 -1.0000 -0.0000
vn -1.0000 0.0000 -0.0000
vn 1.0000 -0.0000 -0.0000
vn 0.0000 1.0000 0.0000
usemtl Caverns_Tileset
s off
f 8/1/1 3/2/1 6/3/1 1/4/1
f 7/5/2 5/6/2 4/7/2 2/8/2
f 5/9/3 6/10/3 3/11/3 4/12/3
f 4/13/4 3/14/4 8/15/4 2/16/4
f 6/17/5 5/18/5 7/19/5 1/20/5
f 1/21/6 7/22/6 2/23/6 8/24/6
