# Blender v2.93.5 OBJ File: 'Cavern_Stalagmite_01.blend'
# www.blender.org
mtllib Cavern_Stalagmite_01.mtl
o Cube
v 0.093078 0.000000 0.093078
v -0.039090 0.750000 -0.039090
v -0.343078 0.000000 -0.343078
v -0.093750 1.250000 -0.125000
v 0.093078 0.000000 -0.343078
v -0.343078 0.000000 0.093078
v -0.277076 0.250000 -0.277076
v 0.027076 0.250000 -0.277076
v -0.210910 0.750000 -0.039090
v 0.027076 0.250000 0.027076
v -0.277076 0.250000 0.027076
v -0.039090 0.750000 -0.210910
v -0.210910 0.750000 -0.210910
v -0.125000 0.000000 0.179008
v -0.125000 0.250000 0.086999
v -0.125000 0.750000 -0.005239
v 0.179008 0.000000 -0.125000
v 0.086999 0.250000 -0.125000
v -0.005239 0.750000 -0.125000
v -0.125000 0.750000 -0.244761
v -0.125000 0.000000 -0.429008
v -0.125000 0.250000 -0.336999
v -0.429008 0.000000 -0.125000
v -0.336999 0.250000 -0.125000
v -0.244761 0.750000 -0.125000
vt 0.375000 0.218848
vt 0.386293 0.218848
vt 0.386293 0.249902
vt 0.375000 0.250000
vt 0.375000 0.218848
vt 0.386293 0.218848
vt 0.386293 0.249902
vt 0.375000 0.250000
vt 0.375000 0.218848
vt 0.386293 0.218848
vt 0.386293 0.249902
vt 0.375000 0.250000
vt 0.375000 0.218848
vt 0.386293 0.218848
vt 0.386293 0.249902
vt 0.375000 0.250000
vt 0.386293 0.250098
vt 0.386293 0.312402
vt 0.375000 0.312500
vt 0.386293 0.250098
vt 0.386293 0.312402
vt 0.375000 0.312500
vt 0.386293 0.250098
vt 0.386293 0.312402
vt 0.375000 0.312500
vt 0.386293 0.250098
vt 0.386293 0.312402
vt 0.375000 0.312500
vt 0.386293 0.312598
vt 0.375000 0.374902
vt 0.386293 0.312598
vt 0.386293 0.312598
vt 0.386293 0.312598
vt 0.363707 0.312598
vt 0.363707 0.374902
vt 0.363707 0.250098
vt 0.363707 0.312402
vt 0.363707 0.218848
vt 0.363707 0.249902
vt 0.363707 0.312598
vt 0.363707 0.250098
vt 0.363707 0.312402
vt 0.363707 0.218848
vt 0.363707 0.249902
vt 0.363707 0.312598
vt 0.363707 0.250098
vt 0.363707 0.312402
vt 0.363707 0.218848
vt 0.363707 0.249902
vt 0.363707 0.312598
vt 0.363707 0.250098
vt 0.363707 0.312402
vt 0.363707 0.218848
vt 0.363707 0.249902
vn 0.9384 0.3454 0.0000
vn 0.6624 0.3498 -0.6624
vn 0.6801 0.2737 -0.6801
vn 0.9630 0.2695 0.0000
vn 0.0000 0.3454 -0.9384
vn -0.6624 0.3498 -0.6624
vn -0.6801 0.2737 -0.6801
vn 0.0000 0.2695 -0.9630
vn -0.9384 0.3454 0.0000
vn -0.6624 0.3498 0.6624
vn -0.6801 0.2737 0.6801
vn -0.9630 0.2695 0.0000
vn 0.0000 0.3454 0.9384
vn 0.6624 0.3498 0.6624
vn 0.6801 0.2737 0.6801
vn 0.0000 0.2695 0.9630
vn 0.6909 0.1894 -0.6977
vn 0.9840 0.1780 0.0000
vn -0.6916 0.2278 -0.6854
vn -0.0061 0.2063 -0.9785
vn -0.6916 0.2278 0.6854
vn -0.9725 0.2327 0.0000
vn 0.6909 0.1894 0.6977
vn -0.0061 0.2063 0.9785
vn 0.0593 0.9982 0.0000
usemtl Caverns_Tileset
s 1
f 17/1/1 5/2/2 8/3/3 18/4/4
f 21/5/5 3/6/6 7/7/7 22/8/8
f 23/9/9 6/10/10 11/11/11 24/12/12
f 14/13/13 1/14/14 10/15/15 15/16/16
f 18/4/4 8/17/3 12/18/17 19/19/18
f 22/8/8 7/20/7 13/21/19 20/22/20
f 24/12/12 11/23/11 9/24/21 25/25/22
f 15/16/16 10/26/15 2/27/23 16/28/24
f 16/28/24 2/29/23 4/30/25
f 25/25/22 9/31/21 4/30/25
f 20/22/20 13/32/19 4/30/25
f 19/19/18 12/33/17 4/30/25
f 9/34/21 16/28/24 4/35/25
f 11/36/11 15/16/16 16/28/24 9/37/21
f 6/38/10 14/13/13 15/16/16 11/39/11
f 2/40/23 19/19/18 4/35/25
f 10/41/15 18/4/4 19/19/18 2/42/23
f 1/43/14 17/1/1 18/4/4 10/44/15
f 12/45/17 20/22/20 4/35/25
f 8/46/3 22/8/8 20/22/20 12/47/17
f 5/48/2 21/5/5 22/8/8 8/49/3
f 13/50/19 25/25/22 4/35/25
f 7/51/7 24/12/12 25/25/22 13/52/19
f 3/53/6 23/9/9 24/12/12 7/54/7
