# Blender v2.93.5 OBJ File: 'Frostlands.blend'
# www.blender.org
mtllib SM_FallenTree_02.mtl
o Cylinder.027_export_temp_Cylinder.009
v -0.265174 0.057581 -0.057581
v 0.265174 0.057581 -0.057581
v -0.265174 0.016865 -0.040716
v 0.265174 0.016865 -0.040716
v -0.265174 0.000000 0.000000
v 0.265174 0.000000 0.000000
v -0.265174 0.016865 0.040716
v -0.265174 0.057581 0.057581
v 0.265174 0.057581 0.057581
v -0.265174 0.098296 0.040716
v -0.265174 0.115161 0.000000
v -0.265174 0.098296 -0.040716
v 0.265174 0.016865 0.040716
v 0.265174 0.098296 0.040716
v 0.265174 0.115161 0.000000
v 0.265174 0.098296 -0.040716
vt 0.021484 0.277344
vt 0.023438 0.283203
vt 0.021484 0.289062
vt 0.015625 0.291016
vt 0.009766 0.289062
vt 0.007812 0.283203
vt 0.009766 0.277344
vt 0.015625 0.275391
vt 0.023438 0.283203
vt 0.021484 0.277344
vt 0.015625 0.275391
vt 0.009766 0.277344
vt 0.007812 0.283203
vt 0.009766 0.289062
vt 0.015625 0.291016
vt 0.021484 0.289062
vt 0.023438 0.187500
vt 0.023438 0.125000
vt 0.031250 0.125000
vt 0.031250 0.187500
vt 0.039062 0.187500
vt 0.039062 0.125000
vt 0.031250 0.125000
vt 0.031250 0.187500
vt 0.046875 0.125000
vt 0.046875 0.187500
vt 0.039062 0.187500
vt 0.039062 0.125000
vt 0.015625 0.187500
vt 0.015625 0.125000
vt 0.023438 0.125000
vt 0.023438 0.187500
vt 0.007812 0.187500
vt 0.007812 0.250000
vt 0.000000 0.250000
vt 0.000000 0.187500
vt 0.015625 0.187500
vt 0.015625 0.250000
vt 0.015625 0.187500
vt 0.015625 0.250000
vt 0.007812 0.250000
vt 0.007812 0.187500
vt 0.007812 0.187500
vt 0.007812 0.250000
vt 0.000000 0.250000
vt -0.000000 0.187500
vn 1.0000 0.0000 0.0000
vn -1.0000 0.0000 0.0000
vn -0.0000 0.3827 -0.9239
vn -0.0000 0.9239 -0.3827
vn -0.0000 0.9239 0.3827
vn -0.0000 0.3827 0.9239
vn 0.0000 -0.3827 0.9239
vn 0.0000 -0.9239 0.3827
vn 0.0000 -0.9239 -0.3827
vn 0.0000 -0.3827 -0.9239
usemtl frostland_tilesheet
s off
f 4/1/1 2/2/1 16/3/1 15/4/1 14/5/1 9/6/1 13/7/1 6/8/1
f 1/9/2 3/10/2 5/11/2 7/12/2 8/13/2 10/14/2 11/15/2 12/16/2
f 12/17/3 16/18/3 2/19/3 1/20/3
f 11/21/4 15/22/4 16/23/4 12/24/4
f 10/25/5 14/26/5 15/27/5 11/28/5
f 8/29/6 9/30/6 14/31/6 10/32/6
f 7/33/7 13/34/7 9/35/7 8/36/7
f 5/37/8 6/38/8 13/34/8 7/33/8
f 3/39/9 4/40/9 6/41/9 5/42/9
f 1/43/10 2/44/10 4/45/10 3/46/10
