# Blender v2.93.5 OBJ File: 'Frostlands.blend'
# www.blender.org
mtllib SM_IceCluster_02.mtl
o Cube.257_export_temp_Cube.061
v -0.044765 0.000000 0.013008
v -0.044123 0.697464 -0.022019
v -0.061233 0.005469 0.070357
v 0.012819 0.003335 0.029226
v -0.003650 0.008804 0.086575
v 0.013846 0.557296 -0.037642
v -0.010166 0.565270 0.045975
v -0.094126 0.560407 0.022329
v -0.070114 0.552433 -0.061289
v -0.068557 0.001833 0.037301
v -0.104804 0.555106 -0.025869
v -0.058633 0.564993 0.056744
v -0.036891 0.008614 0.093961
v 0.020143 0.006971 0.062283
v 0.024525 0.562596 0.010555
v -0.021646 0.552710 -0.072058
v -0.011523 0.000190 0.005622
v -0.024564 0.023793 0.046315
v 0.055338 0.602194 0.212017
v -0.063413 0.021590 0.080923
v 0.009384 0.010768 0.083595
v -0.029465 0.008565 0.118203
v 0.091939 0.477102 0.188013
v 0.035294 0.473889 0.238473
v -0.014203 0.492880 0.184118
v 0.042441 0.496093 0.133658
v -0.053161 0.026211 0.053547
v 0.000745 0.499618 0.144202
v -0.004759 0.482516 0.224929
v -0.056936 0.014482 0.108914
v -0.000868 0.006147 0.110971
v 0.076990 0.470364 0.227929
v 0.082494 0.487466 0.147202
v 0.002907 0.017876 0.055604
v -0.059122 0.013318 0.045704
v -0.236135 0.504304 0.110651
v -0.064233 0.007666 0.090181
v -0.017547 0.029477 0.052535
v -0.022657 0.023825 0.097012
v -0.163050 0.423059 0.075347
v -0.170502 0.414817 0.140198
v -0.231121 0.391257 0.130238
v -0.223670 0.399498 0.065388
v -0.072911 0.006126 0.066097
v -0.243774 0.389012 0.095122
v -0.202825 0.400810 0.152739
v -0.044826 0.014218 0.105614
v -0.008869 0.031017 0.076619
v -0.150398 0.425304 0.110463
v -0.191347 0.413505 0.052846
v -0.036954 0.022925 0.037102
v -0.017935 0.031856 0.012060
v 0.243774 0.419105 0.038462
v -0.044542 0.053355 0.006040
v -0.035545 0.043511 0.046226
v -0.062153 0.065010 0.040206
v 0.193569 0.337793 0.074746
v 0.154774 0.369141 0.059084
v 0.180451 0.352147 0.009269
v 0.219246 0.320800 0.024931
v -0.026481 0.039456 -0.007695
v 0.206786 0.331882 -0.003874
v 0.157131 0.369114 0.025885
v -0.060537 0.064992 0.017436
v -0.053607 0.057410 0.044932
v 0.167234 0.358058 0.072860
v 0.216889 0.320827 0.058130
v -0.019551 0.031874 0.034830
v -0.003134 0.034551 0.017079
v 0.040656 0.273465 -0.238472
v -0.030486 0.028999 0.005412
v -0.014853 0.056716 0.034003
v -0.042204 0.051165 0.022336
v 0.039388 0.247550 -0.165992
v -0.000492 0.239456 -0.183004
v 0.016594 0.207137 -0.207680
v 0.056474 0.215231 -0.190669
v -0.013644 0.025786 0.006673
v 0.041150 0.202452 -0.205842
v -0.002724 0.221109 -0.199939
v -0.043735 0.038582 0.010722
v -0.031694 0.059930 0.032743
v 0.014832 0.252235 -0.167831
v 0.058706 0.233578 -0.173734
v -0.001603 0.047134 0.028694
vt 0.945312 0.375049
vt 0.953076 0.375049
vt 0.953076 0.437451
vt 0.945312 0.437500
vt 0.960938 0.375049
vt 0.968701 0.375049
vt 0.968701 0.437451
vt 0.960937 0.437500
vt 0.945312 0.375049
vt 0.953076 0.375049
vt 0.953076 0.437451
vt 0.945312 0.437500
vt 0.960938 0.375049
vt 0.968701 0.375049
vt 0.968701 0.437451
vt 0.960937 0.437500
vt 0.953125 0.421875
vt 0.960938 0.421875
vt 0.953125 0.437500
vt 0.945312 0.421875
vt 0.953125 0.421875
vt 0.945312 0.437500
vt 0.960938 0.421875
vt 0.968750 0.421875
vt 0.960938 0.437500
vt 0.945312 0.421875
vt 0.953125 0.421875
vt 0.937500 0.421875
vt 0.937500 0.437500
vt 0.937549 0.375049
vt 0.937549 0.437451
vt 0.953174 0.375049
vt 0.953174 0.437451
vt 0.937500 0.421875
vt 0.937549 0.375049
vt 0.937549 0.437451
vt 0.960938 0.421875
vt 0.953174 0.375049
vt 0.953174 0.437451
vt 0.945312 0.375049
vt 0.953076 0.375049
vt 0.953076 0.437451
vt 0.945312 0.437500
vt 0.960938 0.375049
vt 0.968701 0.375049
vt 0.968701 0.437451
vt 0.960937 0.437500
vt 0.945312 0.375049
vt 0.953076 0.375049
vt 0.953076 0.437451
vt 0.945312 0.437500
vt 0.960938 0.375049
vt 0.968701 0.375049
vt 0.968701 0.437451
vt 0.960937 0.437500
vt 0.960938 0.453076
vt 0.945312 0.453076
vt 0.937549 0.437549
vt 0.937549 0.453076
vt 0.937549 0.375049
vt 0.953174 0.437549
vt 0.953174 0.453076
vt 0.953174 0.375049
vt 0.937549 0.437549
vt 0.937549 0.375049
vt 0.953174 0.437549
vt 0.953174 0.375049
vt 0.945312 0.375049
vt 0.953076 0.375049
vt 0.953076 0.437451
vt 0.945312 0.437500
vt 0.960938 0.375049
vt 0.968701 0.375049
vt 0.968701 0.437451
vt 0.960937 0.437500
vt 0.945312 0.375049
vt 0.953076 0.375049
vt 0.953076 0.437451
vt 0.945312 0.437500
vt 0.960938 0.375049
vt 0.968701 0.375049
vt 0.968701 0.437451
vt 0.960937 0.437500
vt 0.960938 0.453076
vt 0.945312 0.453076
vt 0.937549 0.437549
vt 0.937549 0.453076
vt 0.937549 0.375049
vt 0.953174 0.437549
vt 0.953174 0.453076
vt 0.953174 0.375049
vt 0.937549 0.437549
vt 0.937549 0.375049
vt 0.953174 0.437549
vt 0.953174 0.375049
vt 0.945312 0.375049
vt 0.953076 0.375049
vt 0.953076 0.437451
vt 0.945312 0.437500
vt 0.960938 0.375049
vt 0.968701 0.375049
vt 0.968701 0.437451
vt 0.960937 0.437500
vt 0.945312 0.375049
vt 0.953076 0.375049
vt 0.953076 0.437451
vt 0.945312 0.437500
vt 0.960938 0.375049
vt 0.968701 0.375049
vt 0.968701 0.437451
vt 0.960937 0.437500
vt 0.953125 0.421875
vt 0.960938 0.421875
vt 0.953125 0.437500
vt 0.945312 0.421875
vt 0.953125 0.421875
vt 0.945312 0.437500
vt 0.960938 0.421875
vt 0.968750 0.421875
vt 0.960938 0.437500
vt 0.945312 0.421875
vt 0.953125 0.421875
vt 0.937500 0.421875
vt 0.937500 0.437500
vt 0.937549 0.375049
vt 0.937549 0.437451
vt 0.953174 0.375049
vt 0.953174 0.437451
vt 0.937500 0.421875
vt 0.937549 0.375049
vt 0.937549 0.437451
vt 0.960938 0.421875
vt 0.953174 0.375049
vt 0.953174 0.437451
vt 0.945312 0.375049
vt 0.953076 0.375049
vt 0.953076 0.437451
vt 0.945312 0.437500
vt 0.960938 0.375049
vt 0.968701 0.375049
vt 0.968701 0.437451
vt 0.960937 0.437500
vt 0.945312 0.375049
vt 0.953076 0.375049
vt 0.953076 0.437451
vt 0.945312 0.437500
vt 0.960938 0.375049
vt 0.968701 0.375049
vt 0.968701 0.437451
vt 0.960937 0.437500
vt 0.960938 0.453076
vt 0.945312 0.453076
vt 0.937549 0.437549
vt 0.937549 0.453076
vt 0.937549 0.375049
vt 0.953174 0.437549
vt 0.953174 0.453076
vt 0.953174 0.375049
vt 0.937549 0.437549
vt 0.937549 0.375049
vt 0.953174 0.437549
vt 0.953174 0.375049
vn -0.9747 -0.0387 0.2202
vn 0.2159 0.0736 0.9736
vn 0.9766 -0.0276 -0.2133
vn -0.2140 -0.1398 -0.9668
vn -0.1012 -0.6603 -0.7442
vn -0.0168 -0.6499 -0.7599
vn 0.0140 -0.6440 -0.7649
vn -0.7915 -0.5844 0.1789
vn -0.8063 -0.5841 0.0937
vn -0.8108 -0.5820 0.0624
vn 0.1341 -0.4870 0.8631
vn 0.0492 -0.4784 0.8768
vn 0.0181 -0.4733 0.8807
vn 0.8244 -0.5628 -0.0600
vn 0.8387 -0.5441 0.0232
vn 0.8429 -0.5354 0.0534
vn -0.6644 -0.6312 -0.4001
vn -0.6069 -0.6457 -0.4634
vn -0.6847 -0.6238 -0.3769
vn -0.7135 -0.1254 -0.6893
vn -0.4467 -0.5071 0.7371
vn -0.5106 -0.5243 0.6815
vn -0.4229 -0.4989 0.7565
vn -0.6974 0.0207 0.7164
vn 0.6969 -0.4971 0.5170
vn 0.6401 -0.5015 0.5821
vn 0.7168 -0.4935 0.4926
vn 0.7154 0.0592 0.6962
vn 0.4791 -0.6211 -0.6202
vn 0.5435 -0.6229 -0.5626
vn 0.4550 -0.6184 -0.6407
vn 0.6993 -0.0869 -0.7096
vn -0.9322 0.1676 -0.3208
vn -0.3507 -0.1883 0.9173
vn 0.9231 -0.2321 0.3065
vn 0.3417 0.1238 -0.9316
vn 0.2585 -0.4426 -0.8586
vn 0.3381 -0.4512 -0.8259
vn 0.3669 -0.4525 -0.8128
vn -0.8142 -0.3860 -0.4338
vn -0.7794 -0.3641 -0.5099
vn -0.7657 -0.3544 -0.5368
vn -0.4154 -0.6734 0.6115
vn -0.4923 -0.6464 0.5829
vn -0.5197 -0.6345 0.5721
vn 0.6573 -0.7301 0.1867
vn 0.6251 -0.7335 0.2668
vn 0.6129 -0.7326 0.2961
vn -0.3945 -0.3423 -0.8528
vn -0.3135 -0.3576 -0.8797
vn -0.4233 -0.3350 -0.8418
vn -0.2233 0.2078 -0.9524
vn -0.8287 -0.5174 0.2135
vn -0.8527 -0.5057 0.1313
vn -0.8189 -0.5197 0.2436
vn -0.9702 0.0494 0.2371
vn 0.2402 -0.7553 0.6097
vn 0.1569 -0.7585 0.6325
vn 0.2705 -0.7520 0.6011
vn 0.2142 -0.2723 0.9381
vn 0.6744 -0.5803 -0.4565
vn 0.6958 -0.6104 -0.3784
vn 0.6661 -0.5673 -0.4842
vn 0.9612 -0.1139 -0.2514
vn -0.8515 -0.4052 0.3327
vn 0.3506 0.0292 0.9361
vn 0.8763 0.3435 -0.3377
vn -0.3258 -0.0908 -0.9411
vn -0.0101 -0.5606 -0.8280
vn 0.0619 -0.5194 -0.8523
vn 0.0876 -0.5025 -0.8601
vn -0.5096 -0.8425 0.1747
vn -0.5387 -0.8373 0.0934
vn -0.5493 -0.8332 0.0638
vn 0.4392 -0.5070 0.7417
vn 0.3601 -0.5305 0.7674
vn 0.3304 -0.5373 0.7760
vn 0.9387 -0.2251 -0.2610
vn 0.9607 -0.2126 -0.1784
vn 0.9672 -0.2065 -0.1479
vn -0.4803 -0.7727 -0.4151
vn -0.4335 -0.7584 -0.4867
vn -0.4973 -0.7757 -0.3885
vn -0.7439 -0.2862 -0.6039
vn -0.1152 -0.7153 0.6893
vn -0.1788 -0.7472 0.6401
vn -0.0925 -0.7016 0.7066
vn -0.5249 -0.3111 0.7922
vn 0.9023 -0.2772 0.3302
vn 0.8628 -0.3091 0.4001
vn 0.9152 -0.2640 0.3044
vn 0.7687 0.2245 0.5989
vn 0.5373 -0.3346 -0.7742
vn 0.6079 -0.3204 -0.7265
vn 0.5104 -0.3382 -0.7907
vn 0.5497 0.2494 -0.7972
vn -0.3367 0.2717 -0.9015
vn -0.8110 0.5821 -0.0580
vn -0.0910 -0.0256 0.9955
vn 0.7706 -0.6350 0.0552
vn 0.2900 -0.9536 0.0805
vn 0.2865 -0.9435 0.1663
vn 0.2858 -0.9377 0.1974
vn -0.5328 -0.3919 -0.7500
vn -0.4711 -0.4248 -0.7731
vn -0.3473 -0.4726 -0.8100
vn -0.9955 0.0322 -0.0889
vn -0.9831 0.0355 -0.1796
vn -0.9916 0.0329 -0.1250
vn -0.4548 -0.4211 0.7848
vn -0.5166 -0.3613 0.7763
vn -0.5377 -0.3379 0.7724
vn 0.1691 -0.8151 -0.5541
vn 0.1984 -0.8534 -0.4820
vn 0.1592 -0.7992 -0.5796
vn 0.6800 -0.5359 -0.5004
vn -0.7887 -0.1951 -0.5830
vn -0.7408 -0.2434 -0.6260
vn -0.8325 -0.1395 -0.5362
vn -0.3944 0.3063 -0.8664
vn -0.6890 -0.1836 0.7011
vn -0.7668 -0.1292 0.6287
vn -0.7359 -0.1531 0.6596
vn -0.4798 0.2830 0.8305
vn 0.0603 -0.7938 0.6052
vn -0.0041 -0.7590 0.6511
vn 0.0846 -0.8045 0.5878
vn 0.3539 -0.3592 0.8635
vn -0.0950 -0.7533 -0.6507
vn -0.9851 0.1649 -0.0489
vn 0.0830 0.7096 0.6996
vn 0.9731 -0.2086 0.0978
vn 0.6995 -0.4871 0.5228
vn 0.7049 -0.4173 0.5735
vn 0.7064 -0.3905 0.5904
vn -0.1186 -0.9853 -0.1228
vn -0.0324 -0.9922 -0.1208
vn -0.0007 -0.9927 -0.1209
vn -0.9072 -0.2690 0.3236
vn -0.9091 -0.3263 0.2590
vn -0.9086 -0.3459 0.2341
vn -0.0891 0.2292 0.9693
vn -0.1718 0.2486 0.9533
vn -0.2015 0.2563 0.9454
vn 0.4341 -0.8975 0.0782
vn 0.4881 -0.8621 0.1361
vn 0.4142 -0.9084 0.0561
vn 0.7642 -0.5789 -0.2842
vn -0.7092 -0.7043 -0.0297
vn -0.6473 -0.7605 -0.0517
vn -0.7308 -0.6822 -0.0227
vn -0.6170 -0.5314 -0.5805
vn -0.6383 0.1539 0.7543
vn -0.6956 0.1061 0.7106
vn -0.6165 0.1721 0.7684
vn -0.7762 0.5353 0.3331
vn 0.5051 -0.0392 0.8622
vn 0.4397 0.0044 0.8981
vn 0.5286 -0.0542 0.8471
vn 0.6050 0.4877 0.6294
usemtl frostland_tilesheet
s off
f 10/1/1 3/2/1 8/3/1 11/4/1
f 13/5/2 5/6/2 7/7/2 12/8/2
f 14/9/3 4/10/3 6/11/3 15/12/3
f 17/13/4 1/14/4 9/15/4 16/16/4
f 16/17/5 9/18/6 2/19/7
f 11/20/8 8/21/9 2/22/10
f 12/23/11 7/24/12 2/25/13
f 15/26/14 6/27/15 2/22/16
f 9/28/17 11/20/18 2/29/19
f 1/30/20 10/1/20 11/4/20 9/31/20
f 8/21/21 12/23/22 2/19/23
f 3/32/24 13/5/24 12/8/24 8/33/24
f 7/34/25 15/26/26 2/29/27
f 5/35/28 14/9/28 15/12/28 7/36/28
f 6/27/29 16/37/30 2/19/31
f 4/38/32 17/13/32 16/16/32 6/39/32
f 27/40/33 20/41/33 25/42/33 28/43/33
f 30/44/34 22/45/34 24/46/34 29/47/34
f 31/48/35 21/49/35 23/50/35 32/51/35
f 34/52/36 18/53/36 26/54/36 33/55/36
f 33/55/37 26/54/38 19/56/39
f 28/43/40 25/42/41 19/57/42
f 29/47/43 24/46/44 19/56/45
f 32/51/46 23/50/47 19/57/48
f 26/58/49 28/43/50 19/59/51
f 18/60/52 27/40/52 28/43/52 26/58/52
f 25/61/53 29/47/54 19/62/55
f 20/63/56 30/44/56 29/47/56 25/61/56
f 24/64/57 32/51/58 19/59/59
f 22/65/60 31/48/60 32/51/60 24/64/60
f 23/66/61 33/55/62 19/62/63
f 21/67/64 34/52/64 33/55/64 23/66/64
f 44/68/65 37/69/65 42/70/65 45/71/65
f 47/72/66 39/73/66 41/74/66 46/75/66
f 48/76/67 38/77/67 40/78/67 49/79/67
f 51/80/68 35/81/68 43/82/68 50/83/68
f 50/83/69 43/82/70 36/84/71
f 45/71/72 42/70/73 36/85/74
f 46/75/75 41/74/76 36/84/77
f 49/79/78 40/78/79 36/85/80
f 43/86/81 45/71/82 36/87/83
f 35/88/84 44/68/84 45/71/84 43/86/84
f 42/89/85 46/75/86 36/90/87
f 37/91/88 47/72/88 46/75/88 42/89/88
f 41/92/89 49/79/90 36/87/91
f 39/93/92 48/76/92 49/79/92 41/92/92
f 40/94/93 50/83/94 36/90/95
f 38/95/96 51/80/96 50/83/96 40/94/96
f 61/96/97 54/97/97 59/98/97 62/99/97
f 64/100/98 56/101/98 58/102/98 63/103/98
f 65/104/99 55/105/99 57/106/99 66/107/99
f 68/108/100 52/109/100 60/110/100 67/111/100
f 67/112/101 60/113/102 53/114/103
f 62/115/104 59/116/105 53/117/106
f 63/118/107 58/119/108 53/120/109
f 66/121/110 57/122/111 53/117/112
f 60/123/113 62/115/114 53/124/115
f 52/125/116 61/96/116 62/99/116 60/126/116
f 59/116/117 63/118/118 53/114/119
f 54/127/120 64/100/120 63/103/120 59/128/120
f 58/129/121 66/121/122 53/124/123
f 56/130/124 65/104/124 66/107/124 58/131/124
f 57/122/125 67/132/126 53/114/127
f 55/133/128 68/108/128 67/111/128 57/134/128
f 78/135/129 71/136/129 76/137/129 79/138/129
f 81/139/130 73/140/130 75/141/130 80/142/130
f 82/143/131 72/144/131 74/145/131 83/146/131
f 85/147/132 69/148/132 77/149/132 84/150/132
f 84/150/133 77/149/134 70/151/135
f 79/138/136 76/137/137 70/152/138
f 80/142/139 75/141/140 70/151/141
f 83/146/142 74/145/143 70/152/144
f 77/153/145 79/138/146 70/154/147
f 69/155/148 78/135/148 79/138/148 77/153/148
f 76/156/149 80/142/150 70/157/151
f 71/158/152 81/139/152 80/142/152 76/156/152
f 75/159/153 83/146/154 70/154/155
f 73/160/156 82/143/156 83/146/156 75/159/156
f 74/161/157 84/150/158 70/157/159
f 72/162/160 85/147/160 84/150/160 74/161/160
