# Blender v2.93.5 OBJ File: 'Frostlands.blend'
# www.blender.org
mtllib SM_SnowPile_03.mtl
o Cube.116_export_temp_Cube.061
v -0.167717 0.000000 0.148685
v 0.208637 0.000000 0.167720
v 0.154985 0.000000 -0.123216
v -0.193565 0.000000 -0.217455
v -0.094366 0.059674 -0.083533
v -0.076931 0.050668 0.101007
v 0.082598 0.044840 0.097934
v 0.060839 0.065469 -0.044976
v -0.166666 0.017403 -0.189748
v -0.140888 0.017403 0.118774
v 0.156933 0.017403 0.116014
v 0.103279 0.017403 -0.097096
v 0.017479 0.017403 0.175411
v 0.002478 0.017403 -0.175411
v 0.037594 0.000000 0.227117
v 0.002478 0.000000 -0.227117
v 0.002478 0.050668 0.114019
v 0.002478 0.086063 -0.063283
v -0.187490 0.017403 -0.055162
v 0.187487 0.017403 0.025367
v -0.239193 0.000000 -0.055162
v 0.239191 0.000000 0.025367
v -0.092686 0.063936 -0.009629
v 0.069233 0.065469 0.027657
v -0.009096 0.075956 0.032836
vt 0.968750 0.843750
vt 0.974609 0.843750
vt 0.974609 0.849609
vt 0.968750 0.849609
vt 0.957031 0.843750
vt 0.957031 0.855469
vt 0.953125 0.859375
vt 0.953125 0.843750
vt 0.968750 0.832031
vt 0.957031 0.832031
vt 0.953125 0.828125
vt 0.968750 0.828125
vt 0.980469 0.843750
vt 0.980469 0.832031
vt 0.984375 0.828125
vt 0.984375 0.843750
vt 0.968750 0.855469
vt 0.980469 0.855469
vt 0.984375 0.859375
vt 0.968750 0.859375
vt 0.962891 0.843750
vt 0.962891 0.849609
vt 0.968750 0.837891
vt 0.962891 0.837891
vt 0.974609 0.837891
vn -0.0119 0.9875 0.1572
vn 0.2907 0.9545 0.0673
vn 0.3647 0.9057 -0.2162
vn 0.0979 0.9708 -0.2191
vn -0.4039 0.9147 0.0143
vn -0.1956 0.9447 -0.2631
vn -0.2093 0.9485 -0.2378
vn -0.3741 0.9273 0.0126
vn -0.0126 0.9140 0.4055
vn -0.3052 0.9156 0.2619
vn -0.2511 0.9331 0.2573
vn 0.0138 0.9533 0.3017
vn 0.3255 0.9447 -0.0403
vn 0.2354 0.9516 0.1975
vn 0.1876 0.9671 0.1716
vn 0.2825 0.9587 -0.0342
vn 0.1276 0.9125 -0.3886
vn 0.3205 0.9014 -0.2913
vn 0.2471 0.9444 -0.2168
vn 0.0848 0.9300 -0.3577
vn -0.3287 0.9412 0.0787
vn -0.2387 0.9509 -0.1969
vn -0.0047 0.9133 0.4072
vn -0.2525 0.9014 0.3518
vn 0.2279 0.9209 0.3161
usemtl frostland_tilesheet
s 1
f 25/1/1 24/2/2 8/3/3 18/4/4
f 19/5/5 9/6/6 4/7/7 21/8/8
f 13/9/9 10/10/10 1/11/11 15/12/12
f 20/13/13 11/14/14 2/15/15 22/16/16
f 14/17/17 12/18/18 3/19/19 16/20/20
f 23/21/21 5/22/22 9/6/6 19/5/5
f 17/23/23 6/24/24 10/10/10 13/9/9
f 24/2/2 7/25/25 11/14/14 20/13/13
f 18/4/4 8/3/3 12/18/18 14/17/17
f 5/22/22 18/4/4 14/17/17 9/6/6
f 7/25/25 17/23/23 13/9/9 11/14/14
f 9/6/6 14/17/17 16/20/20 4/7/7
f 11/14/14 13/9/9 15/12/12 2/15/15
f 23/21/21 25/1/1 18/4/4 5/22/22
f 6/24/24 17/23/23 25/1/1 23/21/21
f 8/3/3 24/2/2 20/13/13 12/18/18
f 6/24/24 23/21/21 19/5/5 10/10/10
f 12/18/18 20/13/13 22/16/16 3/19/19
f 10/10/10 19/5/5 21/8/8 1/11/11
f 17/23/23 7/25/25 24/2/2 25/1/1
