# Blender v2.93.5 OBJ File: 'Frostlands.blend'
# www.blender.org
mtllib SM_SnowPile_04.mtl
o Cube.115_export_temp_Cube.061
v -0.111681 0.000000 0.102474
v 0.129221 0.000000 0.109097
v 0.125601 0.000000 -0.099965
v -0.091406 0.000000 -0.095589
v -0.054480 0.115844 -0.024334
v -0.056532 0.076970 0.065702
v 0.030621 0.077412 0.055940
v 0.038349 0.118538 -0.023426
v -0.073910 0.014445 -0.077566
v -0.094231 0.048524 0.083019
v 0.095589 0.036760 0.075464
v 0.091969 0.083350 -0.082975
v 0.004879 0.036760 0.114099
v -0.004879 0.036759 -0.114099
v 0.017962 0.000000 0.147732
v -0.004879 0.000000 -0.147732
v -0.013367 0.079320 0.067158
v -0.005211 0.121095 -0.039103
v -0.115465 0.036759 -0.006242
v 0.115463 0.036759 0.016501
v -0.149096 0.000000 -0.006242
v 0.149096 0.000000 0.016501
v -0.060410 0.091840 0.016435
v 0.054255 0.082527 0.025898
v -0.004879 0.108780 0.016501
vt 0.968750 0.843750
vt 0.974609 0.843750
vt 0.974609 0.849609
vt 0.968750 0.849609
vt 0.958984 0.843750
vt 0.958984 0.853516
vt 0.955078 0.857422
vt 0.955078 0.843750
vt 0.968750 0.833984
vt 0.958984 0.833984
vt 0.955078 0.830078
vt 0.968750 0.830078
vt 0.978516 0.843750
vt 0.978516 0.833984
vt 0.982422 0.830078
vt 0.982422 0.843750
vt 0.968750 0.853516
vt 0.978516 0.853516
vt 0.982422 0.857422
vt 0.968750 0.857422
vt 0.962891 0.843750
vt 0.962891 0.849609
vt 0.968750 0.837891
vt 0.962891 0.837891
vt 0.974609 0.837891
vn 0.0236 0.9156 0.4015
vn 0.4660 0.8208 0.3302
vn 0.2954 0.9553 -0.0133
vn -0.1575 0.9387 -0.3065
vn -0.7501 0.6485 -0.1293
vn -0.5351 0.6565 -0.5316
vn -0.4898 0.7121 -0.5030
vn -0.7429 0.6615 -0.1022
vn 0.0204 0.6798 0.7331
vn -0.5509 0.6701 0.4975
vn -0.5789 0.5820 0.5711
vn 0.0452 0.6738 0.7375
vn 0.7238 0.6773 0.1317
vn 0.4691 0.7745 0.4244
vn 0.4791 0.7606 0.4381
vn 0.7889 0.6125 0.0496
vn -0.1545 0.6218 -0.7678
vn 0.5048 0.7305 -0.4600
vn 0.6538 0.5417 -0.5283
vn -0.0951 0.6102 -0.7865
vn -0.5238 0.8423 0.1273
vn -0.5126 0.8256 -0.2358
vn 0.0195 0.8176 0.5755
vn -0.3402 0.8142 0.4706
vn 0.3062 0.8106 0.4992
usemtl frostland_tilesheet
s 1
f 25/1/1 24/2/2 8/3/3 18/4/4
f 19/5/5 9/6/6 4/7/7 21/8/8
f 13/9/9 10/10/10 1/11/11 15/12/12
f 20/13/13 11/14/14 2/15/15 22/16/16
f 14/17/17 12/18/18 3/19/19 16/20/20
f 23/21/21 5/22/22 9/6/6 19/5/5
f 17/23/23 6/24/24 10/10/10 13/9/9
f 24/2/2 7/25/25 11/14/14 20/13/13
f 18/4/4 8/3/3 12/18/18 14/17/17
f 5/22/22 18/4/4 14/17/17 9/6/6
f 7/25/25 17/23/23 13/9/9 11/14/14
f 9/6/6 14/17/17 16/20/20 4/7/7
f 11/14/14 13/9/9 15/12/12 2/15/15
f 23/21/21 25/1/1 18/4/4 5/22/22
f 6/24/24 17/23/23 25/1/1 23/21/21
f 8/3/3 24/2/2 20/13/13 12/18/18
f 6/24/24 23/21/21 19/5/5 10/10/10
f 12/18/18 20/13/13 22/16/16 3/19/19
f 10/10/10 19/5/5 21/8/8 1/11/11
f 17/23/23 7/25/25 24/2/2 25/1/1
