# Blender v2.93.5 OBJ File: 'Frostlands.blend'
# www.blender.org
mtllib SM_SWall_Mid.mtl
o Cube.244_export_temp_Cube.061
v 0.500000 0.500000 0.125000
v -0.500000 0.500000 -0.125000
v -0.500000 0.500000 0.125000
v 0.500000 0.500000 -0.125000
v 0.000000 0.526446 0.125000
v 0.000000 0.526446 -0.125000
v -0.500000 0.000000 0.125000
v 0.500000 0.000000 0.125000
v 0.000000 0.000000 0.125000
v 0.500000 0.000000 -0.125000
v -0.500000 0.000000 -0.125000
v 0.000000 0.000000 -0.125000
vt 0.156250 0.468750
vt 0.187451 0.468750
vt 0.187451 0.499951
vt 0.156250 0.499951
vt 0.218750 0.484424
vt 0.249951 0.484424
vt 0.249951 0.499951
vt 0.218750 0.499951
vt 0.156250 0.468750
vt 0.187451 0.468750
vt 0.187451 0.499951
vt 0.156250 0.499951
vt 0.125049 0.468750
vt 0.125049 0.499951
vt 0.187549 0.484424
vt 0.125049 0.468750
vt 0.125049 0.499951
vn 0.0000 0.0000 1.0000
vn 0.0528 0.9986 0.0000
vn 0.0000 0.0000 -1.0000
vn -0.0528 0.9986 0.0000
usemtl frostland_tilesheet
s off
f 9/1/1 8/2/1 1/3/1 5/4/1
f 5/5/2 1/6/2 4/7/2 6/8/2
f 12/9/3 11/10/3 2/11/3 6/12/3
f 10/13/3 12/9/3 6/12/3 4/14/3
f 3/15/4 5/5/4 6/8/4 2/11/4
f 7/16/1 9/1/1 5/4/1 3/17/1
