# Blender v2.93.5 OBJ File: 'Frostlands.blend'
# www.blender.org
mtllib Ice_Tile_02.mtl
o Cube.120_export_temp_Cube.061
v 0.000000 0.000000 0.000000
v 1.000000 0.000000 1.000000
v 1.000000 0.000000 0.000000
v 0.000000 0.000000 1.000000
v 1.000000 0.000000 -1.000000
v -1.000000 0.000000 1.000000
v 0.000000 0.000000 -1.000000
v -1.000000 0.000000 -1.000000
v -1.000000 0.000000 0.000000
vt 0.937549 0.937549
vt 0.999951 0.937549
vt 0.999951 0.999951
vt 0.937549 0.999951
vt 0.937549 0.937549
vt 0.999951 0.937549
vt 0.999951 0.999951
vt 0.937549 0.999951
vt 0.937549 0.937549
vt 0.999951 0.937549
vt 0.999951 0.999951
vt 0.937549 0.999951
vt 0.937549 0.937549
vt 0.999951 0.937549
vt 0.999951 0.999951
vt 0.937549 0.999951
vn 0.0000 1.0000 0.0000
usemtl frostland_tilesheet
s off
f 4/1/1 2/2/1 3/3/1 1/4/1
f 1/5/1 3/6/1 5/7/1 7/8/1
f 9/9/1 1/10/1 7/11/1 8/12/1
f 6/13/1 4/14/1 1/15/1 9/16/1
