# Blender v2.93.5 OBJ File: 'Frostlands.blend'
# www.blender.org
mtllib Snow_Tile_02.mtl
o Cube.122_export_temp_Cube.061
v -1.000000 0.000000 -1.000000
v 0.000000 0.000000 0.000000
v 0.000000 0.000000 1.000000
v 1.000000 0.000000 1.000000
v 1.000000 0.000000 0.000000
v 1.000000 0.000000 -1.000000
v 0.000000 0.000000 -1.000000
v -1.000000 0.000000 1.000000
v -1.000000 0.000000 0.000000
vt 0.937549 0.875049
vt 0.999951 0.875049
vt 0.999951 0.937451
vt 0.937549 0.937451
vt 0.937549 0.875049
vt 0.999951 0.875049
vt 0.999951 0.937451
vt 0.937549 0.937451
vt 0.937549 0.875049
vt 0.999951 0.875049
vt 0.999951 0.937451
vt 0.937549 0.937451
vt 0.937549 0.875049
vt 0.999951 0.875049
vt 0.999951 0.937451
vt 0.937549 0.937451
vn 0.0000 1.0000 0.0000
usemtl frostland_tilesheet
s off
f 3/1/1 4/2/1 5/3/1 2/4/1
f 2/5/1 5/6/1 6/7/1 7/8/1
f 9/9/1 2/10/1 7/11/1 1/12/1
f 8/13/1 3/14/1 2/15/1 9/16/1
