# Blender v2.93.5 OBJ File: 'Frostlands.blend'
# www.blender.org
mtllib Snow_Tile_06.mtl
o Cube.126_export_temp_Cube.061
v -1.000000 0.000000 0.000000
v 1.000000 0.000000 0.000000
v 1.000000 0.000000 -1.000000
v 1.000000 0.000000 1.000000
v 0.000000 0.000000 0.000000
v -1.000000 0.000000 1.000000
v 0.000000 0.000000 1.000000
v 0.000000 0.000000 -1.000000
v -1.000000 0.000000 -1.000000
vt 0.937549 0.750049
vt 0.999951 0.750049
vt 0.999951 0.812451
vt 0.937549 0.812451
vt 0.937549 0.750049
vt 0.999951 0.750049
vt 0.999951 0.812451
vt 0.937549 0.812451
vt 0.937549 0.750049
vt 0.999951 0.750049
vt 0.999951 0.812451
vt 0.937549 0.812451
vt 0.937549 0.750049
vt 0.999951 0.750049
vt 0.999951 0.812451
vt 0.937549 0.812451
vn 0.0000 1.0000 0.0000
usemtl frostland_tilesheet
s off
f 7/1/1 4/2/1 2/3/1 5/4/1
f 5/5/1 2/6/1 3/7/1 8/8/1
f 1/9/1 5/10/1 8/11/1 9/12/1
f 6/13/1 7/14/1 5/15/1 1/16/1
