# Blender v2.93.5 OBJ File: 'Frostlands.blend'
# www.blender.org
mtllib StonePath_Tile_02.mtl
o Cube.128_export_temp_Cube.061
v 0.000000 0.000000 -1.000000
v 0.000000 0.000000 0.000000
v 1.000000 0.000000 -1.000000
v 1.000000 0.000000 1.000000
v 1.000000 0.000000 0.000000
v -1.000000 0.000000 -1.000000
v -1.000000 0.000000 1.000000
v 0.000000 0.000000 1.000000
v -1.000000 0.000000 0.000000
vt 0.937549 0.687549
vt 0.999951 0.687549
vt 0.999951 0.749951
vt 0.937549 0.749951
vt 0.937549 0.687549
vt 0.999951 0.687549
vt 0.999951 0.749951
vt 0.937549 0.749951
vt 0.937549 0.687549
vt 0.999951 0.687549
vt 0.999951 0.749951
vt 0.937549 0.749951
vt 0.937549 0.687549
vt 0.999951 0.687549
vt 0.999951 0.749951
vt 0.937549 0.749951
vn 0.0000 1.0000 0.0000
usemtl frostland_tilesheet
s off
f 7/1/1 8/2/1 2/3/1 9/4/1
f 8/5/1 4/6/1 5/7/1 2/8/1
f 2/9/1 5/10/1 3/11/1 1/12/1
f 9/13/1 2/14/1 1/15/1 6/16/1
