# Blender v2.93.5 OBJ File: 'Fence_End_03.blend'
# www.blender.org
mtllib Fence_End_03.mtl
o Cube
v 0.000000 0.000000 0.000000
v -0.125000 0.000000 -0.125000
v 0.000000 0.000000 -0.125000
v 0.000000 0.531250 -0.125000
v -0.125000 0.000000 0.000000
v 0.000000 0.531250 0.000000
v -0.125000 0.531250 -0.125000
v -0.125000 0.531250 0.000000
v -0.045932 0.434781 -0.375000
v -0.077181 0.309781 -0.375000
v -0.045932 0.309783 -0.124999
v -0.045932 0.309781 -0.374999
v -0.045932 0.177515 -0.375000
v -0.045932 0.177517 -0.125000
v -0.045932 0.052517 -0.124999
v -0.045932 0.052515 -0.374999
v -0.077182 0.434783 -0.125000
v -0.045932 0.434783 -0.125000
v -0.077182 0.434781 -0.375000
v -0.077181 0.309783 -0.124999
v -0.077181 0.177515 -0.375000
v -0.077181 0.177517 -0.125000
v -0.077181 0.052517 -0.124999
v -0.077181 0.052515 -0.374999
vt 0.000098 0.125098
vt 0.015527 0.125098
vt 0.015527 0.191309
vt 0.000098 0.191309
vt 0.000098 0.125098
vt 0.015527 0.125098
vt 0.015527 0.191309
vt 0.000098 0.191309
vt 0.000098 0.125098
vt 0.015527 0.125098
vt 0.015527 0.191309
vt 0.000098 0.191309
vt 0.000098 0.125098
vt 0.015527 0.125098
vt 0.015527 0.191309
vt 0.000098 0.191309
vt 0.000098 0.187598
vt 0.015527 0.187598
vt 0.015527 0.203027
vt 0.000098 0.203027
vt 0.031348 0.226660
vt 0.062402 0.226660
vt 0.062402 0.242090
vt 0.031348 0.242090
vt 0.031348 0.226660
vt 0.062402 0.226660
vt 0.062402 0.242090
vt 0.031348 0.242090
vt 0.031348 0.242285
vt 0.062402 0.242285
vt 0.062402 0.245996
vt 0.031348 0.245996
vt 0.031348 0.242285
vt 0.062402 0.242285
vt 0.062402 0.245996
vt 0.031348 0.245996
vt 0.078223 0.242285
vt 0.093652 0.242285
vt 0.093652 0.245996
vt 0.078223 0.245996
vt 0.078223 0.242285
vt 0.093652 0.242285
vt 0.093652 0.245996
vt 0.078223 0.245996
vt 0.031348 0.226660
vt 0.031348 0.242090
vt 0.062402 0.242090
vt 0.062402 0.226660
vt 0.031348 0.226660
vt 0.031348 0.242090
vt 0.062402 0.242090
vt 0.062402 0.226660
vn 1.0000 0.0000 0.0000
vn 0.0000 0.0000 -1.0000
vn -1.0000 0.0000 0.0000
vn 0.0000 0.0000 1.0000
vn 0.0000 1.0000 0.0000
usemtl Grassland_Tileatlas_01
s off
f 1/1/1 3/2/1 4/3/1 6/4/1
f 3/5/2 2/6/2 7/7/2 4/8/2
f 2/9/3 5/10/3 8/11/3 7/12/3
f 5/13/4 1/14/4 6/15/4 8/16/4
f 8/17/5 6/18/5 4/19/5 7/20/5
f 9/21/1 18/22/1 11/23/1 12/24/1
f 13/25/1 14/26/1 15/27/1 16/28/1
f 21/29/5 22/30/5 14/31/5 13/32/5
f 19/33/5 17/34/5 18/35/5 9/36/5
f 10/37/2 19/38/2 9/39/2 12/40/2
f 24/41/2 21/42/2 13/43/2 16/44/2
f 19/45/3 10/46/3 20/47/3 17/48/3
f 21/49/3 24/50/3 23/51/3 22/52/3
