# Blender v2.93.5 OBJ File: 'Fence_04.blend'
# www.blender.org
mtllib Fence_04.mtl
o Cube
v 0.000000 0.000000 0.000000
v -0.125000 0.000000 -0.125000
v 0.000000 0.000000 -0.125000
v 0.000000 0.531250 -0.125000
v -0.125000 0.000000 0.000000
v 0.000000 0.531250 0.000000
v -0.125000 0.531250 -0.125000
v -0.125000 0.531250 0.000000
v -0.053584 0.309785 -1.125000
v -0.053584 0.309785 -0.875000
v -0.053584 0.309785 -0.125000
v -0.053584 0.434785 -1.125000
v -0.084834 0.403535 -0.531250
v -0.053584 0.434785 -0.875000
v -0.084834 0.434785 -1.125000
v -0.084834 0.434785 -0.875000
v -0.084834 0.309785 -0.125000
v -0.084834 0.434785 -0.125000
v -0.084834 0.309785 -0.875000
v -0.084834 0.309785 -1.125000
v -0.053584 0.434785 -0.125000
v -0.053584 0.434785 -0.531250
v -0.084834 0.434785 -0.531250
v -0.053584 0.434785 -0.593750
v -0.053584 0.403535 -0.531250
v -0.084834 0.434785 -0.593750
v -0.053584 0.403535 -0.593750
v -0.084834 0.403535 -0.593750
v -0.084834 0.052518 -0.125000
v -0.084834 0.052518 -0.375000
v -0.084834 0.052518 -1.125000
v -0.084834 0.177518 -0.125000
v -0.053584 0.146268 -0.718750
v -0.084834 0.177518 -0.375000
v -0.053584 0.177518 -0.125000
v -0.053584 0.177518 -0.375000
v -0.053584 0.052518 -1.125000
v -0.053584 0.177518 -1.125000
v -0.053584 0.052518 -0.375000
v -0.053584 0.052518 -0.125000
v -0.084834 0.177518 -1.125000
v -0.084834 0.177518 -0.718750
v -0.053584 0.177518 -0.718750
v -0.084834 0.177518 -0.656250
v -0.084834 0.146268 -0.718750
v -0.053584 0.177518 -0.656250
v -0.084834 0.146268 -0.656250
v -0.053584 0.146268 -0.656250
vt 0.000098 0.125098
vt 0.015527 0.125098
vt 0.015527 0.191309
vt 0.000098 0.191309
vt 0.000098 0.125098
vt 0.015527 0.125098
vt 0.015527 0.191309
vt 0.000098 0.191309
vt 0.000098 0.125098
vt 0.015527 0.125098
vt 0.015527 0.191309
vt 0.000098 0.191309
vt 0.000098 0.125098
vt 0.015527 0.125098
vt 0.015527 0.191309
vt 0.000098 0.191309
vt 0.000098 0.187598
vt 0.015527 0.187598
vt 0.015527 0.203027
vt 0.000098 0.203027
vt 0.105566 0.207129
vt 0.156152 0.207129
vt 0.156152 0.210840
vt 0.105566 0.210840
vt 0.105469 0.191406
vt 0.199219 0.191406
vt 0.199219 0.207031
vt 0.105469 0.207031
vt 0.062402 0.191504
vt 0.031348 0.191504
vt 0.031348 0.206934
vt 0.062402 0.206934
vt 0.031348 0.207129
vt 0.062402 0.207129
vt 0.062402 0.210840
vt 0.031348 0.210840
vt 0.117285 0.207129
vt 0.152246 0.207129
vt 0.152246 0.210840
vt 0.117285 0.210840
vt 0.105469 0.191406
vt 0.105469 0.207031
vt 0.199219 0.207031
vt 0.199219 0.191406
vt 0.062402 0.191504
vt 0.062402 0.206934
vt 0.031348 0.206934
vt 0.031348 0.191504
vt 0.121191 0.207129
vt 0.124902 0.207129
vt 0.124902 0.210840
vt 0.121191 0.210840
vt 0.121191 0.207129
vt 0.124902 0.207129
vt 0.124902 0.210840
vt 0.121191 0.210840
vt 0.136816 0.207129
vt 0.144434 0.207129
vt 0.144434 0.210840
vt 0.136816 0.210840
vt 0.105566 0.207129
vt 0.156152 0.207129
vt 0.156152 0.210840
vt 0.105566 0.210840
vt 0.105469 0.191406
vt 0.199219 0.191406
vt 0.199219 0.207031
vt 0.105469 0.207031
vt 0.062402 0.191504
vt 0.031348 0.191504
vt 0.031348 0.206934
vt 0.062402 0.206934
vt 0.031348 0.207129
vt 0.062402 0.207129
vt 0.062402 0.210840
vt 0.031348 0.210840
vt 0.117285 0.207129
vt 0.152246 0.207129
vt 0.152246 0.210840
vt 0.117285 0.210840
vt 0.105469 0.191406
vt 0.105469 0.207031
vt 0.199219 0.207031
vt 0.199219 0.191406
vt 0.062402 0.191504
vt 0.062402 0.206934
vt 0.031348 0.206934
vt 0.031348 0.191504
vt 0.121191 0.207129
vt 0.124902 0.207129
vt 0.124902 0.210840
vt 0.121191 0.210840
vt 0.136816 0.207129
vt 0.144434 0.207129
vt 0.144434 0.210840
vt 0.136816 0.210840
vn 1.0000 0.0000 0.0000
vn 0.0000 0.0000 -1.0000
vn -1.0000 0.0000 0.0000
vn 0.0000 0.0000 1.0000
vn 0.0000 1.0000 0.0000
usemtl Grassland_Tileatlas_01
s off
f 1/1/1 3/2/1 4/3/1 6/4/1
f 3/5/2 2/6/2 7/7/2 4/8/2
f 2/9/3 5/10/3 8/11/3 7/12/3
f 5/13/4 1/14/4 6/15/4 8/16/4
f 8/17/5 6/18/5 4/19/5 7/20/5
f 21/21/5 22/22/5 23/23/5 18/24/5
f 11/25/1 10/26/1 14/27/1 21/28/1
f 10/29/1 9/30/1 12/31/1 14/32/1
f 14/33/5 12/34/5 15/35/5 16/36/5
f 24/37/5 14/38/5 16/39/5 26/40/5
f 17/41/3 18/42/3 16/43/3 19/44/3
f 19/45/3 16/46/3 15/47/3 20/48/3
f 25/49/2 13/50/2 23/51/2 22/52/2
f 28/53/4 27/54/4 24/55/4 26/56/4
f 25/57/5 27/58/5 28/59/5 13/60/5
f 41/61/5 42/62/5 43/63/5 38/64/5
f 31/65/3 30/66/3 34/67/3 41/68/3
f 30/69/3 29/70/3 32/71/3 34/72/3
f 34/73/5 32/74/5 35/75/5 36/76/5
f 44/77/5 34/78/5 36/79/5 46/80/5
f 37/81/1 38/82/1 36/83/1 39/84/1
f 39/85/1 36/86/1 35/87/1 40/88/1
f 45/89/4 33/90/4 43/91/4 42/92/4
f 45/93/5 47/94/5 48/95/5 33/96/5
