# Blender v2.93.5 OBJ File: 'Cavern_Grass_Foliage_07.blend'
# www.blender.org
mtllib Cavern_Grass_Foliage_07.mtl
o Cube
v -0.025683 0.091142 -0.096693
v -0.031250 0.032812 0.031250
v -0.020176 0.000000 -0.062500
v -0.020176 0.000000 0.000000
v -0.044469 0.092369 0.095111
v -0.036061 0.000000 0.000000
v -0.036061 0.000000 0.062500
v -0.007981 0.122938 0.000000
v -0.031250 0.032812 -0.031250
v -0.031250 0.000000 -0.031250
v -0.031250 0.000000 0.031250
v -0.039327 0.062700 0.031266
v -0.033539 0.029305 0.092373
v -0.021535 0.094781 -0.031250
v -0.021535 0.094781 0.031250
v -0.014757 0.028307 -0.090665
v -0.020087 0.064926 -0.031391
vt 0.468750 0.574219
vt 0.471591 0.574219
vt 0.471591 0.578125
vt 0.482955 0.574219
vt 0.485795 0.574219
vt 0.482955 0.578125
vt 0.457457 0.574170
vt 0.462997 0.574170
vt 0.457457 0.578027
vt 0.480114 0.570312
vt 0.485795 0.570312
vt 0.485795 0.578125
vt 0.480114 0.578125
vt 0.468750 0.566406
vt 0.474432 0.566406
vt 0.474432 0.574219
vt 0.468750 0.574219
vt 0.468750 0.570312
vt 0.474432 0.570312
vt 0.474361 0.573994
vt 0.468821 0.573994
vt 0.457457 0.562598
vt 0.462997 0.562598
vt 0.463068 0.566406
vt 0.457386 0.566406
vn 0.9984 0.0510 0.0251
vn 0.9978 0.0631 0.0209
vn 0.9853 0.1697 -0.0163
vn 0.9950 0.0974 -0.0202
vn 0.9960 0.0860 -0.0234
vn 0.9853 0.1708 0.0000
vn 0.9682 -0.2502 0.0000
vn 0.9010 -0.4337 0.0000
vn 0.9987 0.0332 -0.0378
vn 0.9970 -0.0777 0.0000
vn 0.9983 -0.0260 0.0515
vn 1.0000 0.0000 0.0000
usemtl Caverns_Tileset
s 1
f 17/1/1 16/2/2 1/3/3
f 13/4/4 12/5/5 5/6/6
f 15/7/7 14/8/7 8/9/8
f 7/10/9 6/11/9 12/12/5 13/13/4
f 2/14/10 9/15/10 14/16/7 15/17/7
f 4/18/11 3/19/11 16/20/2 17/21/1
f 11/22/12 10/23/12 9/24/10 2/25/10
