# Blender v2.93.5 OBJ File: 'Cavern_Grass_Foliage_04.blend'
# www.blender.org
mtllib Cavern_Grass_Foliage_04.mtl
o Cube
v 0.000000 0.187500 0.156250
v 0.000000 0.187500 -0.156250
v 0.000000 0.000000 -0.156250
v 0.000000 0.000000 0.156250
v -0.156250 0.187500 0.000000
v 0.156250 0.187500 -0.000000
v 0.156250 0.000000 -0.000000
v -0.156250 0.000000 0.000000
vt 0.414844 0.500098
vt 0.443111 0.500098
vt 0.443111 0.523340
vt 0.414844 0.523340
vt 0.414844 0.500098
vt 0.443111 0.500098
vt 0.443111 0.523340
vt 0.414844 0.523340
vn 1.0000 0.0000 0.0000
vn 0.0000 0.0000 1.0000
usemtl Caverns_Tileset
s off
f 4/1/1 3/2/1 2/3/1 1/4/1
f 8/5/2 7/6/2 6/7/2 5/8/2
