# Blender v2.93.5 OBJ File: 'Cavern_Grass_Foliage_05.blend'
# www.blender.org
mtllib Cavern_Grass_Foliage_05.mtl
o Cube
v -0.156250 0.187500 0.000000
v 0.156250 0.187500 -0.000000
v 0.156250 0.000000 -0.000000
v -0.156250 0.000000 0.000000
v -0.000000 0.000000 -0.031250
v 0.125000 0.000000 -0.031250
v 0.125000 0.343750 -0.062500
v -0.000000 0.343750 -0.062500
v -0.000000 0.189063 -0.031250
v 0.125000 0.189063 -0.031250
v 0.187500 0.000000 -0.000000
v 0.218750 0.000000 -0.000000
v 0.218750 0.125000 0.031250
v 0.187500 0.125000 0.031250
v -0.125000 0.000000 0.031250
v -0.093750 0.000000 0.031250
v -0.093750 0.093750 0.031250
v -0.125000 0.093750 0.031250
v 0.093750 0.000000 0.062500
v 0.125000 0.000000 0.062500
v 0.125000 0.062500 0.062500
v 0.093750 0.062500 0.062500
v -0.218750 0.000000 0.000000
v -0.187500 0.000000 0.000000
v -0.187500 0.062500 0.000000
v -0.218750 0.062500 0.000000
v 0.187500 0.062500 -0.000000
v 0.218750 0.062500 -0.000000
vt 0.414844 0.500098
vt 0.443111 0.500098
vt 0.443111 0.523340
vt 0.414844 0.523340
vt 0.443253 0.586123
vt 0.454474 0.586123
vt 0.454474 0.605371
vt 0.443253 0.605371
vt 0.443253 0.562598
vt 0.454474 0.562598
vt 0.394957 0.570312
vt 0.397656 0.570312
vt 0.397656 0.578027
vt 0.394957 0.578027
vt 0.394957 0.593848
vt 0.397656 0.593848
vt 0.397656 0.605371
vt 0.394957 0.605371
vt 0.394957 0.617285
vt 0.397656 0.617285
vt 0.397656 0.624902
vt 0.394957 0.624902
vt 0.394957 0.617285
vt 0.397656 0.617285
vt 0.397656 0.624902
vt 0.394957 0.624902
vt 0.394957 0.562598
vt 0.397656 0.562598
vn 0.0000 0.0000 1.0000
vn 0.0000 0.0995 0.9950
vn 0.0000 0.1980 0.9802
vn 0.0000 -0.2297 0.9732
vn 0.0000 -0.4472 0.8944
usemtl Caverns_Tileset
s 1
f 4/1/1 3/2/1 2/3/1 1/4/1
f 9/5/2 10/6/2 7/7/3 8/8/3
f 5/9/1 6/10/1 10/6/2 9/5/2
f 27/11/4 28/12/4 13/13/5 14/14/5
f 15/15/1 16/16/1 17/17/1 18/18/1
f 19/19/1 20/20/1 21/21/1 22/22/1
f 23/23/1 24/24/1 25/25/1 26/26/1
f 11/27/1 12/28/1 28/12/4 27/11/4
o Cube.001
v 0.000000 0.187500 0.156250
v 0.000000 0.187500 -0.156250
v 0.000000 0.000000 -0.156250
v 0.000000 0.000000 0.156250
v -0.031250 0.000000 0.000000
v -0.031250 0.000000 -0.125000
v -0.062500 0.343750 -0.125000
v -0.062500 0.343750 0.000000
v -0.031250 0.189063 0.000000
v -0.031250 0.189063 -0.125000
v 0.000000 0.000000 -0.187500
v 0.000000 0.000000 -0.218750
v 0.031250 0.125000 -0.218750
v 0.031250 0.125000 -0.187500
v 0.031250 0.000000 0.125000
v 0.031250 0.000000 0.093750
v 0.031250 0.093750 0.093750
v 0.031250 0.093750 0.125000
v 0.062500 0.000000 -0.093750
v 0.062500 0.000000 -0.125000
v 0.062500 0.062500 -0.125000
v 0.062500 0.062500 -0.093750
v 0.000000 0.000000 0.218750
v 0.000000 0.000000 0.187500
v 0.000000 0.062500 0.187500
v 0.000000 0.062500 0.218750
v 0.000000 0.062500 -0.187500
v 0.000000 0.062500 -0.218750
vt 0.414844 0.500098
vt 0.443111 0.500098
vt 0.443111 0.523340
vt 0.414844 0.523340
vt 0.443253 0.586123
vt 0.454474 0.586123
vt 0.454474 0.605371
vt 0.443253 0.605371
vt 0.443253 0.562598
vt 0.454474 0.562598
vt 0.394957 0.570312
vt 0.397656 0.570312
vt 0.397656 0.578027
vt 0.394957 0.578027
vt 0.394957 0.593848
vt 0.397656 0.593848
vt 0.397656 0.605371
vt 0.394957 0.605371
vt 0.394957 0.617285
vt 0.397656 0.617285
vt 0.397656 0.624902
vt 0.394957 0.624902
vt 0.394957 0.617285
vt 0.397656 0.617285
vt 0.397656 0.624902
vt 0.394957 0.624902
vt 0.394957 0.562598
vt 0.397656 0.562598
vn 1.0000 0.0000 0.0000
vn 0.9950 0.0995 0.0000
vn 0.9802 0.1980 0.0000
vn 0.9732 -0.2297 0.0000
vn 0.8944 -0.4472 0.0000
usemtl Caverns_Tileset
s 1
f 32/29/6 31/30/6 30/31/6 29/32/6
f 37/33/7 38/34/7 35/35/8 36/36/8
f 33/37/6 34/38/6 38/34/7 37/33/7
f 55/39/9 56/40/9 41/41/10 42/42/10
f 43/43/6 44/44/6 45/45/6 46/46/6
f 47/47/6 48/48/6 49/49/6 50/50/6
f 51/51/6 52/52/6 53/53/6 54/54/6
f 39/55/6 40/56/6 56/40/9 55/39/9
