# Blender v2.93.5 OBJ File: 'Frostlands.blend'
# www.blender.org
mtllib SM_Ice_Pillar.mtl
o Cube.258_export_temp_Cube.061
v -0.417723 0.250000 -0.417725
v 0.417723 0.250000 0.417725
v 0.358162 1.250000 0.358162
v 0.358162 1.250000 -0.358162
v -0.543114 2.500000 0.543114
v 0.000000 2.500000 0.708904
v 0.000000 1.250000 0.467495
v -0.358162 1.250000 -0.358162
v -0.358162 1.250000 0.358162
v 0.417723 0.250000 -0.417725
v -0.418871 2.250000 0.418869
v 0.000000 0.000000 0.701942
v -0.543114 2.500000 -0.543114
v 0.543114 2.500000 0.543114
v 0.418871 2.250000 0.418869
v -0.418871 2.250000 -0.418869
v 0.543114 2.500000 -0.543114
v 0.418871 2.250000 -0.418869
v 0.537779 0.000000 -0.537781
v -0.537779 0.000000 -0.537781
v -0.537779 0.000000 0.537777
v -0.417723 0.250000 0.417725
v 0.537779 0.000000 0.537777
v 0.000000 2.250000 0.546734
v 0.000000 0.250000 0.545238
v 0.546736 2.250000 0.000000
v 0.467495 1.250000 0.000000
v 0.545238 0.250000 0.000000
v 0.708904 2.500000 0.000000
v 0.701941 0.000000 0.000000
v 0.000000 0.250000 -0.545238
v 0.000000 1.250000 -0.467495
v 0.000000 2.250000 -0.546734
v 0.000000 2.500000 -0.708904
v 0.000000 0.000000 -0.701942
v -0.701942 0.000000 0.000000
v -0.546736 2.250000 0.000000
v -0.708904 2.500000 0.000000
v -0.467495 1.250000 0.000000
v -0.545238 0.250000 0.000000
v -0.048346 1.750000 0.345741
v 0.282824 1.750000 0.244648
v -0.379517 1.750000 0.244648
v -0.379517 1.750000 -0.417690
v 0.282824 1.750000 -0.417690
v 0.383917 1.750000 -0.086521
v -0.048346 1.750000 -0.518784
v -0.480608 1.750000 -0.086521
v 0.337854 0.750000 0.364735
v 0.024712 0.750000 0.460323
v 0.337854 0.750000 -0.261551
v -0.288433 0.750000 0.364735
v -0.288433 0.750000 -0.261551
v 0.433445 0.750000 0.051590
v 0.024712 0.750000 -0.357143
v -0.384022 0.750000 0.051590
vt 0.968750 0.531250
vt 0.999951 0.531250
vt 0.999951 0.562451
vt 0.968750 0.562451
vt 0.968750 0.531250
vt 0.999951 0.531250
vt 0.999951 0.562451
vt 0.968750 0.562451
vt 0.968750 0.531250
vt 0.999951 0.531250
vt 0.999951 0.562451
vt 0.968750 0.562451
vt 0.968750 0.531250
vt 0.999951 0.531250
vt 0.999951 0.562451
vt 0.968750 0.562451
vt 0.968750 0.531250
vt 0.999951 0.531250
vt 0.999951 0.562451
vt 0.968750 0.562451
vt 0.968750 0.531250
vt 0.999951 0.531250
vt 0.999951 0.562451
vt 0.968750 0.562451
vt 0.968750 0.531250
vt 0.999951 0.531250
vt 0.999951 0.562451
vt 0.968750 0.562451
vt 0.968750 0.531250
vt 0.999951 0.531250
vt 0.999951 0.562451
vt 0.968750 0.562451
vt 0.968750 0.484424
vt 0.999951 0.484424
vt 0.999951 0.499951
vt 0.968750 0.499951
vt 0.968750 0.484424
vt 0.999951 0.484424
vt 0.999951 0.499951
vt 0.968750 0.499951
vt 0.968750 0.484424
vt 0.999951 0.484424
vt 0.999951 0.499951
vt 0.968750 0.499951
vt 0.968750 0.484424
vt 0.999951 0.484424
vt 0.999951 0.499951
vt 0.968750 0.499951
vt 0.968750 0.468799
vt 0.999951 0.468799
vt 0.999951 0.484326
vt 0.968750 0.484326
vt 0.968750 0.468799
vt 0.999951 0.468799
vt 0.999951 0.484326
vt 0.968750 0.484326
vt 0.968750 0.468799
vt 0.999951 0.468799
vt 0.999951 0.484326
vt 0.968750 0.484326
vt 0.968750 0.468799
vt 0.999951 0.468799
vt 0.999951 0.484326
vt 0.968750 0.484326
vt 0.937549 0.468799
vt 0.937549 0.484326
vt 0.937549 0.484424
vt 0.937549 0.499951
vt 0.937549 0.531250
vt 0.937549 0.562451
vt 0.937549 0.531250
vt 0.937549 0.562451
vt 0.937549 0.468799
vt 0.937549 0.484326
vt 0.937549 0.484424
vt 0.937549 0.499951
vt 0.937549 0.531250
vt 0.937549 0.562451
vt 0.937549 0.531250
vt 0.937549 0.562451
vt 0.937549 0.468799
vt 0.937549 0.484326
vt 0.937549 0.484424
vt 0.937549 0.499951
vt 0.937549 0.531250
vt 0.937549 0.562451
vt 0.937549 0.531250
vt 0.937549 0.562451
vt 0.937549 0.468799
vt 0.937549 0.484326
vt 0.937549 0.484424
vt 0.937549 0.499951
vt 0.937549 0.531250
vt 0.937549 0.562451
vt 0.937549 0.531250
vt 0.937549 0.562451
vt 0.937549 0.500049
vt 0.968750 0.500049
vt 0.937549 0.500049
vt 0.968750 0.500049
vt 0.937549 0.500049
vt 0.968750 0.500049
vt 0.937549 0.500049
vt 0.968750 0.500049
vt 0.999951 0.500049
vt 0.999951 0.500049
vt 0.999951 0.500049
vt 0.999951 0.500049
vt 0.937549 0.500049
vt 0.968750 0.500049
vt 0.937549 0.500049
vt 0.968750 0.500049
vt 0.937549 0.500049
vt 0.968750 0.500049
vt 0.937549 0.500049
vt 0.968750 0.500049
vt 0.999951 0.500049
vt 0.999951 0.500049
vt 0.999951 0.500049
vt 0.999951 0.500049
vn 0.0093 0.0782 0.9969
vn 0.6961 0.0857 0.7128
vn 0.7018 0.1159 0.7029
vn 0.0031 0.1100 0.9939
vn -0.0185 -0.0761 0.9969
vn 0.7170 -0.0850 0.6919
vn 0.6071 -0.5043 0.6140
vn 0.0064 -0.4688 0.8833
vn -0.9969 0.0766 0.0197
vn -0.6800 0.0858 0.7281
vn -0.6994 0.0228 0.7144
vn -0.9957 -0.0926 0.0076
vn -0.9963 -0.0794 -0.0321
vn -0.7457 -0.0871 0.6606
vn -0.6133 -0.4609 0.6414
vn -0.9319 -0.3625 0.0144
vn 0.0095 0.0753 -0.9971
vn -0.7133 0.0842 -0.6958
vn -0.6999 -0.1684 -0.6941
vn 0.0054 -0.1567 -0.9876
vn -0.0177 -0.0785 -0.9968
vn -0.6933 -0.0847 -0.7157
vn -0.6654 -0.3578 -0.6551
vn 0.0086 -0.3263 -0.9452
vn 0.9968 0.0780 0.0196
vn 0.7286 0.0853 -0.6796
vn 0.7155 -0.0651 -0.6955
vn 0.9988 0.0493 0.0053
vn 0.9964 -0.0781 -0.0329
vn 0.6620 -0.0868 -0.7444
vn 0.6573 -0.4199 -0.6258
vn 0.8969 -0.4421 0.0123
vn 0.5785 -0.5750 0.5785
vn 0.0000 -0.5442 0.8389
vn 0.5785 -0.5750 -0.5785
vn 0.8390 -0.5442 0.0000
vn -0.5785 -0.5750 -0.5785
vn 0.0000 -0.5442 -0.8389
vn -0.5785 -0.5750 0.5785
vn -0.8390 -0.5442 0.0000
vn -0.8473 0.5311 0.0000
vn -0.5850 0.5618 0.5850
vn -0.6456 0.4336 0.6287
vn -0.9019 0.4320 -0.0074
vn -0.0000 0.5311 0.8473
vn 0.5850 0.5618 0.5850
vn 0.6498 0.4049 0.6433
vn -0.0041 0.3689 0.9295
vn 0.8473 0.5311 0.0000
vn 0.5850 0.5618 -0.5850
vn 0.6194 0.4616 -0.6350
vn 0.9197 0.3924 -0.0081
vn -0.0000 0.5311 -0.8473
vn -0.5850 0.5618 -0.5850
vn -0.6159 0.4847 -0.6210
vn -0.0034 0.4515 -0.8922
usemtl frostland_tilesheet
s 1
f 50/1/1 49/2/2 3/3/3 7/4/4
f 41/5/5 42/6/6 15/7/7 24/8/8
f 56/9/9 52/10/10 9/11/11 39/12/12
f 48/13/13 43/14/14 11/15/15 37/16/16
f 55/17/17 53/18/18 8/19/19 32/20/20
f 47/21/21 44/22/22 16/23/23 33/24/24
f 54/25/25 51/26/26 4/27/27 27/28/28
f 46/29/29 45/30/30 18/31/31 26/32/32
f 24/33/8 15/34/7 14/35/33 6/36/34
f 26/37/32 18/38/31 17/39/35 29/40/36
f 33/41/24 16/42/23 13/43/37 34/44/38
f 37/45/16 11/46/15 5/47/39 38/48/40
f 36/49/41 21/50/42 22/51/43 40/52/44
f 12/53/45 23/54/46 2/55/47 25/56/48
f 30/57/49 19/58/50 10/59/51 28/60/52
f 35/61/53 20/62/54 1/63/55 31/64/56
f 21/65/42 12/53/45 25/56/48 22/66/43
f 11/67/15 24/33/8 6/36/34 5/68/39
f 43/69/14 41/5/5 24/8/8 11/70/15
f 52/71/10 50/1/1 7/4/4 9/72/11
f 23/73/46 30/57/49 28/60/52 2/74/47
f 15/75/7 26/37/32 29/40/36 14/76/33
f 42/77/6 46/29/29 26/32/32 15/78/7
f 49/79/2 54/25/25 27/28/28 3/80/3
f 19/81/50 35/61/53 31/64/56 10/82/51
f 18/83/31 33/41/24 34/44/38 17/84/35
f 45/85/30 47/21/21 33/24/24 18/86/31
f 51/87/26 55/17/17 32/20/20 4/88/27
f 20/89/54 36/49/41 40/52/44 1/90/55
f 16/91/23 37/45/16 38/48/40 13/92/37
f 44/93/22 48/13/13 37/16/16 16/94/23
f 53/95/18 56/9/9 39/12/12 8/96/19
f 8/97/19 39/98/12 48/13/13 44/93/22
f 4/99/27 32/100/20 47/21/21 45/85/30
f 3/101/3 27/102/28 46/29/29 42/77/6
f 9/103/11 7/104/4 41/5/5 43/69/14
f 27/102/28 4/105/27 45/30/30 46/29/29
f 32/100/20 8/106/19 44/22/22 47/21/21
f 39/98/12 9/107/11 43/14/14 48/13/13
f 7/104/4 3/108/3 42/6/6 41/5/5
f 1/109/55 40/110/44 56/9/9 53/95/18
f 10/111/51 31/112/56 55/17/17 51/87/26
f 2/113/47 28/114/52 54/25/25 49/79/2
f 22/115/43 25/116/48 50/1/1 52/71/10
f 28/114/52 10/117/51 51/26/26 54/25/25
f 31/112/56 1/118/55 53/18/18 55/17/17
f 40/110/44 22/119/43 52/10/10 56/9/9
f 25/116/48 2/120/47 49/2/2 50/1/1
