# Blender v2.93.5 OBJ File: 'Frostlands.blend'
# www.blender.org
mtllib SM_LSnow_Landmass_23.mtl
o Cube.107_export_temp_Cube.061
v -1.762856 0.969559 0.111603
v -1.664375 0.969559 0.699398
v -1.597969 1.522583 0.635067
v -1.568672 1.624080 0.111603
v -1.379555 0.145276 0.111603
v -1.408844 0.338031 0.600529
v -0.389931 0.000000 0.111603
v -0.389931 0.225901 0.898167
v 0.670151 0.000000 0.111603
v 0.670151 0.225901 0.827530
v 1.503098 0.230633 0.111603
v 1.328896 0.423388 0.581314
v 1.762856 0.969559 0.111603
v 1.588661 0.969559 0.680180
v 1.662636 1.582821 0.111603
v 1.488434 1.481325 0.615849
v 1.149544 0.530514 -0.667412
v 1.409309 0.969559 -0.773994
v 1.309090 1.485581 -0.873138
v 0.670151 0.345822 -0.746243
v -0.389931 0.345822 -0.651203
v -1.212967 0.445157 -0.675098
v -1.468498 0.969559 -0.781681
v -1.402092 1.526839 -0.880825
v -0.417870 1.044742 -0.870079
v 0.633667 0.930216 -0.964394
v 0.670151 1.672926 -1.063541
v -0.389931 1.552036 -0.968502
v 0.616272 0.869404 0.992908
v -0.443840 0.992816 1.063541
v -0.389931 1.489844 0.999210
v 0.670151 1.668670 0.928577
v -0.418655 1.693541 0.909744
v -1.463776 1.705720 0.545601
v 0.730232 1.881289 0.787216
v 1.354240 1.731325 0.526386
v 1.528442 1.832821 0.111603
v 1.248253 1.922926 -0.783676
v 0.625420 1.906070 -0.974075
v -0.345200 1.728676 -0.821068
v -1.267891 1.684429 -0.791363
v -1.434479 1.754181 0.111603
v -0.345200 1.877934 0.111603
v 0.622299 2.020167 0.120052
vt 0.875000 0.562500
vt 0.937500 0.562500
vt 0.937500 0.625000
vt 0.875000 0.625000
vt 0.875000 0.562500
vt 0.937500 0.562500
vt 0.937500 0.625000
vt 0.875000 0.625000
vt 0.875000 0.562500
vt 0.937500 0.562500
vt 0.937500 0.625000
vt 0.875000 0.625000
vt 0.875000 0.562500
vt 0.937500 0.562500
vt 0.937500 0.625000
vt 0.875000 0.625000
vt 0.875000 0.562500
vt 0.937500 0.562500
vt 0.937500 0.625000
vt 0.875000 0.625000
vt 0.875000 0.562500
vt 0.937500 0.562500
vt 0.937500 0.625000
vt 0.875000 0.625000
vt 0.875000 0.562500
vt 0.937500 0.562500
vt 0.937500 0.625000
vt 0.875000 0.625000
vt 0.875000 0.562500
vt 0.937500 0.562500
vt 0.937500 0.625000
vt 0.875000 0.625000
vt 0.875000 0.562500
vt 0.937500 0.562500
vt 0.937500 0.625000
vt 0.875000 0.625000
vt 0.875000 0.562500
vt 0.937500 0.562500
vt 0.937500 0.625000
vt 0.875000 0.625000
vt 0.937500 0.562500
vt 0.937500 0.625000
vt 0.875000 0.625000
vt 0.875000 0.562500
vt 0.937500 0.625000
vt 0.875000 0.625000
vt 0.875000 0.562500
vt 0.937500 0.562500
vt 0.937500 0.625000
vt 0.875000 0.625000
vt 0.875000 0.562500
vt 0.937500 0.562500
vt 0.937500 0.625000
vt 0.875000 0.625000
vt 0.937500 0.562500
vt 0.937500 0.625000
vt 0.875000 0.625000
vt 0.875000 0.562500
vt 0.937500 0.625000
vt 0.875000 0.625000
vt 0.875000 0.562500
vt 0.937500 0.625000
vt 0.875000 0.625000
vt 0.875000 0.562500
vt 0.937500 0.562500
vt 0.937500 0.625000
vt 0.875000 0.625000
vt 0.875000 0.562500
vt 0.937500 0.562500
vt 0.937500 0.625000
vt 0.875000 0.625000
vt 0.875000 0.562500
vt 0.937500 0.562500
vt 0.937500 0.625000
vt 0.875000 0.625000
vt 0.937500 0.562500
vt 0.937500 0.625000
vt 0.875000 0.625000
vt 0.937500 0.562500
vt 0.937500 0.625000
vt 0.875000 0.625000
vt 0.875000 0.562500
vt 0.937500 0.625000
vt 0.875000 0.625000
vt 0.875000 0.562500
vt 0.937500 0.562500
vt 0.937500 0.625000
vt 0.875000 0.625000
vt 0.875000 0.562500
vt 0.937500 0.562500
vt 0.937500 0.625000
vt 0.875000 0.625000
vt 0.875000 0.562500
vt 0.937500 0.562500
vt 0.937500 0.625000
vt 0.875000 0.625000
vt 0.875000 0.544922
vt 0.937500 0.544922
vt 0.937500 0.562500
vt 0.875000 0.562500
vt 0.875000 0.544922
vt 0.937500 0.544922
vt 0.937500 0.562500
vt 0.875000 0.562500
vt 0.875000 0.544922
vt 0.937500 0.544922
vt 0.937500 0.562500
vt 0.875000 0.562500
vt 0.875000 0.544922
vt 0.937500 0.544922
vt 0.937500 0.562500
vt 0.875000 0.562500
vt 0.875000 0.544922
vt 0.937500 0.544922
vt 0.937500 0.562500
vt 0.875000 0.562500
vt 0.875000 0.544922
vt 0.937500 0.544922
vt 0.937500 0.562500
vt 0.875000 0.562500
vt 0.875000 0.544922
vt 0.937500 0.544922
vt 0.937500 0.562500
vt 0.875000 0.562500
vt 0.875000 0.544922
vt 0.937500 0.544922
vt 0.937500 0.562500
vt 0.875000 0.562500
vt 0.875000 0.544922
vt 0.937500 0.544922
vt 0.937500 0.562500
vt 0.875000 0.562500
vt 0.875000 0.544922
vt 0.937500 0.544922
vt 0.937500 0.562500
vt 0.875000 0.562500
vt 1.000000 0.875000
vt 1.000000 0.937500
vt 0.937500 0.937500
vt 0.937500 0.875000
vt 0.937500 0.875000
vt 0.937500 0.937500
vt 1.000000 0.937500
vt 1.000000 0.875000
vt 0.937500 0.875000
vt 0.937500 0.937500
vt 1.000000 0.937500
vt 1.000000 0.875000
vt 1.000000 0.875000
vt 1.000000 0.937500
vt 0.937500 0.937500
vt 0.937500 0.875000
vt 1.000000 0.937500
vt 1.000000 0.875000
vt 0.937500 0.875000
vt 0.937500 0.937500
vt 1.000000 0.937500
vt 1.000000 0.875000
vn -0.9898 -0.1126 -0.0878
vn -0.7746 -0.0808 0.6273
vn -0.7136 0.3927 0.5801
vn -0.8766 0.4754 -0.0746
vn -0.5602 -0.8259 -0.0640
vn -0.5678 -0.6122 0.5503
vn -0.0767 -0.9958 -0.0505
vn -0.1041 -0.6637 0.7407
vn 0.1587 -0.9865 -0.0408
vn 0.1991 -0.6686 0.7165
vn 0.6767 -0.7356 -0.0306
vn 0.5533 -0.5648 0.6123
vn 0.9922 -0.1219 -0.0250
vn 0.7207 -0.0857 0.6879
vn 0.9535 0.3010 0.0163
vn 0.6782 0.2968 0.6723
vn 0.4789 -0.5764 -0.6622
vn 0.6914 -0.1827 -0.6990
vn 0.6424 0.1232 -0.7564
vn 0.1160 -0.6833 -0.7208
vn -0.0764 -0.6845 -0.7250
vn -0.4014 -0.6071 -0.6858
vn -0.6646 -0.1880 -0.7231
vn -0.5889 0.3363 -0.7349
vn -0.0755 -0.2261 -0.9712
vn 0.0719 -0.2463 -0.9665
vn 0.0927 0.1547 -0.9836
vn -0.1066 0.2015 -0.9737
vn 0.1964 -0.0840 0.9769
vn -0.1241 -0.0482 0.9911
vn -0.1108 0.2895 0.9507
vn 0.1908 0.3146 0.9299
vn -0.1415 0.7631 0.6306
vn -0.4359 0.7991 0.4139
vn 0.1671 0.7958 0.5821
vn 0.5041 0.7002 0.5055
vn 0.6613 0.7474 0.0636
vn 0.5149 0.7183 -0.4679
vn 0.0183 0.7945 -0.6070
vn -0.1432 0.8416 -0.5207
vn -0.3076 0.8410 -0.4450
vn -0.4358 0.8998 -0.0176
vn -0.1221 0.9919 0.0363
vn 0.0027 0.9973 0.0732
usemtl frostland_tilesheet
s 1
f 1/1/1 2/2/2 3/3/3 4/4/4
f 5/5/5 6/6/6 2/7/2 1/8/1
f 7/9/7 8/10/8 6/11/6 5/12/5
f 8/13/8 7/14/7 9/15/9 10/16/10
f 10/17/10 9/18/9 11/19/11 12/20/12
f 12/21/12 11/22/11 13/23/13 14/24/14
f 14/25/14 13/26/13 15/27/15 16/28/16
f 11/29/11 17/30/17 18/31/18 13/32/13
f 13/33/13 18/34/18 19/35/19 15/36/15
f 9/37/9 20/38/20 17/39/17 11/40/11
f 7/9/7 21/41/21 20/42/20 9/43/9
f 21/44/21 7/14/7 5/45/5 22/46/22
f 22/47/22 5/48/5 1/49/1 23/50/23
f 23/51/23 1/52/1 4/53/4 24/54/24
f 21/44/21 22/55/22 23/56/23 25/57/25
f 20/58/20 21/41/21 25/59/25 26/60/26
f 17/61/17 20/38/20 26/62/26 18/63/18
f 18/64/18 26/65/26 27/66/27 19/67/19
f 26/68/26 25/69/25 28/70/28 27/71/27
f 25/72/25 23/73/23 24/74/24 28/75/28
f 10/17/10 12/76/12 14/77/14 29/78/29
f 8/13/8 10/79/10 29/80/29 30/81/30
f 6/82/6 8/10/8 30/83/30 2/84/2
f 2/85/2 30/86/30 31/87/31 3/88/3
f 30/89/30 29/90/29 32/91/32 31/92/31
f 29/93/29 14/94/14 16/95/16 32/96/32
f 3/97/3 31/98/31 33/99/33 34/100/34
f 31/101/31 32/102/32 35/103/35 33/104/33
f 32/105/32 16/106/16 36/107/36 35/108/35
f 16/109/16 15/110/15 37/111/37 36/112/36
f 15/113/15 19/114/19 38/115/38 37/116/37
f 19/117/19 27/118/27 39/119/39 38/120/38
f 27/121/27 28/122/28 40/123/40 39/124/39
f 28/125/28 24/126/24 41/127/41 40/128/40
f 24/129/24 4/130/4 42/131/42 41/132/41
f 4/133/4 3/134/3 34/135/34 42/136/42
f 42/137/42 34/138/34 33/139/33 43/140/43
f 41/141/41 42/142/42 43/143/43 40/144/40
f 40/145/40 43/146/43 44/147/44 39/148/39
f 43/149/43 33/150/33 35/151/35 44/152/44
f 44/152/44 35/151/35 36/153/36 37/154/37
f 39/155/39 44/156/44 37/157/37 38/158/38
