# Blender v2.93.5 OBJ File: 'Frostlands.blend'
# www.blender.org
mtllib SM_LIce_Landmass_01.mtl
o Cube.081_export_temp_Cube.061
v -0.015625 0.968750 0.093750
v -0.015625 0.937500 -1.218750
v -1.015625 0.937500 -0.906250
v -1.265625 0.937500 0.093750
v 1.265625 0.937500 0.093750
v 0.828125 0.812500 -0.843750
v 0.765625 0.937500 1.000000
v -0.140625 0.937500 1.281250
v -1.015625 0.812500 1.093750
v 0.993938 0.562500 -1.009563
v -0.015625 0.687501 -1.384563
v -1.181438 0.687500 -1.072063
v -1.431438 0.687500 0.093750
v -1.181438 0.562500 1.259563
v -0.140625 0.687500 1.447063
v 0.931438 0.687500 1.165813
v 1.431438 0.687500 0.093750
v 1.109745 0.250000 1.312870
v 1.578495 0.250000 0.093750
v 1.297245 0.250001 -1.219120
v -0.015625 0.250001 -1.531620
v -1.328495 0.250001 -1.219120
v -1.578495 0.250000 0.093750
v -1.328495 0.250000 1.406620
v -0.015625 0.250000 1.531620
v -1.545399 0.000000 1.623524
v -0.015625 0.000000 1.748524
v 1.326649 0.000000 1.529774
v 1.795399 0.000000 0.093750
v 1.514149 0.000001 -1.436024
v -0.015625 0.000001 -1.748524
v -1.545399 0.000001 -1.436024
v -1.795399 0.000000 0.093750
vt 0.937500 0.937500
vt 1.000000 0.937500
vt 1.000000 1.000000
vt 0.937500 1.000000
vt 0.937500 0.937500
vt 1.000000 0.937500
vt 1.000000 1.000000
vt 0.937500 1.000000
vt 0.937500 0.937500
vt 1.000000 0.937500
vt 1.000000 1.000000
vt 0.937500 1.000000
vt 0.937500 0.937500
vt 1.000000 0.937500
vt 1.000000 1.000000
vt 0.937500 1.000000
vt 1.000000 0.470703
vt 0.937500 0.470703
vt 0.937500 0.500000
vt 1.000000 0.500000
vt 1.000000 0.470703
vt 0.937500 0.470703
vt 0.937500 0.500000
vt 1.000000 0.500000
vt 1.000000 0.470703
vt 0.937500 0.470703
vt 0.937500 0.500000
vt 1.000000 0.500000
vt 1.000000 0.470703
vt 0.937500 0.470703
vt 0.937500 0.500000
vt 1.000000 0.500000
vt 1.000000 0.470703
vt 1.000000 0.500000
vt 0.937500 0.468750
vt 1.000000 0.468750
vt 1.000000 0.500000
vt 0.937500 0.500000
vt 1.000000 0.470703
vt 0.937500 0.470703
vt 0.937500 0.500000
vt 1.000000 0.470703
vt 0.937500 0.470703
vt 0.937500 0.500000
vt 1.000000 0.500000
vt 0.937500 0.515625
vt 1.000000 0.515625
vt 1.000000 0.541016
vt 0.937500 0.541016
vt 0.937500 0.515625
vt 1.000000 0.515625
vt 1.000000 0.541016
vt 0.937500 0.541016
vt 0.937500 0.515625
vt 1.000000 0.515625
vt 1.000000 0.541016
vt 0.937500 0.541016
vt 0.937500 0.515625
vt 1.000000 0.515625
vt 1.000000 0.541016
vt 0.937500 0.541016
vt 0.937500 0.515625
vt 1.000000 0.515625
vt 1.000000 0.541016
vt 0.937500 0.541016
vt 0.937500 0.515625
vt 1.000000 0.515625
vt 1.000000 0.541016
vt 0.937500 0.541016
vt 0.937500 0.515625
vt 1.000000 0.515625
vt 1.000000 0.541016
vt 0.937500 0.541016
vt 0.937500 0.515625
vt 1.000000 0.515625
vt 1.000000 0.541016
vt 0.937500 0.541016
vt 0.937500 0.468750
vt 1.000000 0.468750
vt 1.000000 0.484375
vt 0.937500 0.484375
vt 0.937500 0.468750
vt 1.000000 0.468750
vt 1.000000 0.484375
vt 0.937500 0.484375
vt 0.937500 0.468750
vt 1.000000 0.468750
vt 1.000000 0.484375
vt 0.937500 0.484375
vt 0.937500 0.468750
vt 1.000000 0.468750
vt 1.000000 0.484375
vt 0.937500 0.484375
vt 0.937500 0.468750
vt 1.000000 0.468750
vt 1.000000 0.484375
vt 0.937500 0.484375
vt 0.937500 0.468750
vt 1.000000 0.468750
vt 1.000000 0.484375
vt 0.937500 0.484375
vt 0.937500 0.468750
vt 1.000000 0.468750
vt 1.000000 0.484375
vt 0.937500 0.484375
vt 0.937500 0.468750
vt 1.000000 0.468750
vt 1.000000 0.484375
vt 0.937500 0.484375
vn 0.0039 1.0000 -0.0024
vn 0.0604 0.8559 -0.5137
vn -0.3861 0.8489 -0.3609
vn -0.5075 0.8611 0.0306
vn 0.5233 0.8521 -0.0103
vn 0.4009 0.8215 -0.4055
vn 0.3240 0.8544 0.4063
vn -0.0137 0.8610 0.5083
vn -0.4047 0.8146 0.4155
vn 0.5554 0.5850 -0.5910
vn 0.0463 0.5266 -0.8489
vn -0.6259 0.5038 -0.5953
vn -0.8726 0.4881 0.0197
vn -0.5904 0.4975 0.6356
vn -0.0010 0.4605 0.8877
vn 0.5498 0.4926 0.6746
vn 0.8282 0.5599 0.0230
vn 0.5093 0.6111 0.6059
vn 0.7885 0.6129 0.0515
vn 0.5274 0.6860 -0.5013
vn 0.0098 0.5835 -0.8120
vn -0.5651 0.6257 -0.5378
vn -0.8356 0.5493 0.0036
vn -0.5135 0.6436 0.5675
vn 0.0498 0.5158 0.8553
vn -0.4496 0.7559 0.4759
vn 0.0298 0.6786 0.7339
vn 0.4479 0.7387 0.5037
vn 0.7117 0.7011 0.0440
vn 0.4741 0.7462 -0.4673
vn 0.0000 0.6937 -0.7203
vn -0.4764 0.7475 -0.4628
vn -0.7272 0.6864 0.0000
usemtl frostland_tilesheet
s 1
f 1/1/1 2/2/2 3/3/3 4/4/4
f 5/5/5 6/6/6 2/7/2 1/8/1
f 7/9/7 5/10/5 1/11/1 8/12/8
f 8/13/8 1/14/1 4/15/4 9/16/9
f 10/17/10 11/18/11 2/19/2 6/20/6
f 11/21/11 12/22/12 3/23/3 2/24/2
f 12/25/12 13/26/13 4/27/4 3/28/3
f 13/29/13 14/30/14 9/31/9 4/32/4
f 14/30/14 15/33/15 8/34/8 9/31/9
f 15/35/15 16/36/16 7/37/7 8/38/8
f 16/39/16 17/40/17 5/41/5 7/37/7
f 17/42/17 10/43/10 6/44/6 5/45/5
f 18/46/18 19/47/19 17/48/17 16/49/16
f 19/50/19 20/51/20 10/52/10 17/53/17
f 20/54/20 21/55/21 11/56/11 10/57/10
f 21/58/21 22/59/22 12/60/12 11/61/11
f 22/62/22 23/63/23 13/64/13 12/65/12
f 23/66/23 24/67/24 14/68/14 13/69/13
f 24/70/24 25/71/25 15/72/15 14/73/14
f 25/74/25 18/75/18 16/76/16 15/77/15
f 26/78/26 27/79/27 25/80/25 24/81/24
f 27/82/27 28/83/28 18/84/18 25/85/25
f 28/86/28 29/87/29 19/88/19 18/89/18
f 29/90/29 30/91/30 20/92/20 19/93/19
f 30/94/30 31/95/31 21/96/21 20/97/20
f 31/98/31 32/99/32 22/100/22 21/101/21
f 32/102/32 33/103/33 23/104/23 22/105/22
f 33/106/33 26/107/26 24/108/24 23/109/23
