# Blender v2.93.5 OBJ File: 'Frostlands.blend'
# www.blender.org
mtllib SM_SSnow_Landmass_07.mtl
o Cube.062_export_temp_Cube.061
v 0.028908 1.593750 -0.034618
v 0.028908 1.343750 -0.690868
v -0.471092 1.406250 -0.409618
v -0.658592 1.500000 0.090382
v 0.936943 1.312500 0.090557
v 0.730694 1.156250 -0.561752
v 0.528908 1.406250 -0.409618
v 0.716408 1.562500 0.090382
v 0.028908 1.093750 -0.849316
v -0.672878 1.187500 -0.561752
v 0.028908 1.250000 0.966530
v 0.730694 1.187500 0.742867
v 0.528908 1.437500 0.590382
v 0.028908 1.500000 0.809132
v 0.950550 0.250000 0.089600
v 0.781799 0.250000 -0.663681
v 0.028517 0.250000 -0.916805
v -0.724764 0.250000 -0.663681
v 0.028517 0.250000 1.039757
v 0.781799 0.250000 0.842884
v 0.028126 0.000000 -0.798962
v -0.863951 0.000000 -0.798962
v 0.028908 0.000000 -1.182064
v 0.028126 0.000000 1.182068
v 0.920204 0.000000 0.985191
v 1.088953 0.000000 0.093117
v 0.920204 0.000000 -0.798962
v -0.863951 0.000000 0.985191
v -0.724764 0.250000 0.842884
v -0.672878 1.250000 0.742867
v -0.471092 1.437500 0.590382
v -1.088951 0.000000 0.093117
v -0.921640 0.187500 0.089600
v -0.879128 1.250000 0.090557
v 0.727367 0.781250 0.088505
v 0.028360 0.671875 -0.681751
v 0.028360 0.750000 0.811264
v -0.528147 0.718750 -0.468002
v -0.681896 0.718750 0.088505
v 0.584867 0.718750 0.645016
v -0.528147 0.750000 0.645016
v 0.584867 0.703125 -0.468002
vt 0.968750 0.906250
vt 0.937500 0.906250
vt 0.937500 0.875000
vt 0.968750 0.875000
vt 0.906250 0.550781
vt 0.937500 0.550781
vt 0.937500 0.562500
vt 0.906250 0.562500
vt 0.906250 0.550781
vt 0.937500 0.550781
vt 0.937500 0.562500
vt 0.906250 0.562500
vt 0.906250 0.550781
vt 0.937500 0.550781
vt 0.937500 0.562500
vt 0.906250 0.562500
vt 0.906250 0.593750
vt 0.937500 0.593750
vt 0.937500 0.625000
vt 0.906250 0.625000
vt 0.906250 0.593750
vt 0.937500 0.593750
vt 0.937500 0.625000
vt 0.906250 0.625000
vt 0.906250 0.593750
vt 0.937500 0.593750
vt 0.937500 0.625000
vt 0.906250 0.625000
vt 0.812500 0.812598
vt 0.874902 0.812598
vt 0.812500 0.812598
vt 0.906250 0.531250
vt 0.937500 0.531250
vt 0.937500 0.542969
vt 0.906250 0.542969
vt 0.906250 0.531250
vt 0.937500 0.531250
vt 0.937500 0.542969
vt 0.906250 0.542969
vt 0.906250 0.531250
vt 0.937500 0.531250
vt 0.937500 0.542969
vt 0.906250 0.542969
vt 0.875000 0.531250
vt 0.875000 0.542969
vt 0.875000 0.531250
vt 0.875000 0.542969
vt 0.750098 0.812598
vt 0.875000 0.593750
vt 0.875000 0.625000
vt 0.875000 0.593750
vt 0.875000 0.625000
vt 0.875000 0.550781
vt 0.875000 0.562500
vt 0.875000 0.550781
vt 0.875000 0.562500
vt 0.968750 0.937500
vt 0.937500 0.937500
vt 0.906250 0.531250
vt 0.937500 0.531250
vt 0.937500 0.542969
vt 0.906250 0.542969
vt 0.906250 0.593750
vt 0.937500 0.593750
vt 0.937500 0.625000
vt 0.906250 0.625000
vt 0.906250 0.550781
vt 0.937500 0.550781
vt 0.937500 0.562500
vt 0.906250 0.562500
vt 0.875000 0.550781
vt 0.875000 0.562500
vt 0.875000 0.593750
vt 0.875000 0.625000
vt 0.875000 0.531250
vt 0.875000 0.542969
vt 1.000000 0.937500
vt 1.000000 0.906250
vt 0.875000 0.531250
vt 0.875000 0.542969
vt 0.875000 0.593750
vt 0.875000 0.625000
vt 0.875000 0.550781
vt 0.875000 0.562500
vt 1.000000 0.875000
vt 0.875000 0.562500
vt 0.906250 0.562500
vt 0.875000 0.562500
vt 0.906250 0.562500
vt 0.937500 0.562500
vt 0.875000 0.562500
vt 0.906250 0.562500
vt 0.875000 0.562500
vt 0.906250 0.562500
vt 0.937500 0.562500
vt 0.937500 0.562500
vt 0.937500 0.562500
vn -0.0206 0.9933 -0.1138
vn 0.0013 0.7688 -0.6395
vn -0.3522 0.8140 -0.4620
vn -0.4681 0.8827 -0.0402
vn 0.9668 0.2556 -0.0071
vn 0.7336 0.1192 -0.6691
vn 0.3440 0.7907 -0.5064
vn 0.4544 0.8902 -0.0311
vn 0.0021 0.1206 -0.9927
vn -0.7246 0.1696 -0.6679
vn 0.0055 0.2015 0.9795
vn 0.7170 0.1104 0.6883
vn 0.3703 0.8143 0.4470
vn 0.0012 0.8428 0.5383
vn 0.9999 0.0108 0.0026
vn 0.7470 0.0889 -0.6588
vn -0.0015 0.1100 -0.9939
vn -0.7433 0.0743 -0.6649
vn -0.0031 0.0809 0.9967
vn 0.7107 0.0991 0.6965
vn 0.0000 -1.0000 -0.0000
vn -0.6248 0.5613 -0.5428
vn 0.0004 -0.3480 -0.9375
vn -0.0002 0.5365 0.8439
vn 0.5791 0.5856 0.5672
vn 0.6059 0.5412 0.5831
vn 0.0020 0.4927 0.8702
vn 0.8535 0.5211 0.0012
vn 0.6608 0.5120 -0.5488
vn 0.6240 0.5765 -0.5274
vn 0.8778 0.4790 -0.0017
vn -0.6031 0.6004 -0.5251
vn 0.0008 0.5965 -0.8026
vn -0.5429 0.6282 0.5573
vn -0.5857 0.5646 0.5816
vn -0.7060 0.0762 0.7041
vn -0.7077 0.1889 0.6808
vn -0.3678 0.8456 0.3870
vn -0.7913 0.6114 0.0013
vn -0.8445 0.5355 -0.0026
vn -0.9983 0.0586 0.0036
vn -0.9734 0.2288 -0.0087
usemtl frostland_tilesheet
s 1
f 1/1/1 2/2/2 3/3/3 4/4/4
f 5/5/5 6/6/6 7/7/7 8/8/8
f 9/9/9 10/10/10 3/11/3 2/12/2
f 11/13/11 12/14/12 13/15/13 14/16/14
f 35/17/15 42/18/16 6/19/6 5/20/5
f 36/21/17 38/22/18 10/23/10 9/24/9
f 37/25/19 40/26/20 12/27/12 11/28/11
f 21/29/21 22/30/22 23/31/23
f 24/32/24 25/33/25 20/34/26 19/35/27
f 26/36/28 27/37/29 16/38/30 15/39/31
f 23/40/23 22/41/22 18/42/32 17/43/33
f 27/44/29 23/40/23 17/43/33 16/45/30
f 28/46/34 24/32/24 19/35/27 29/47/35
f 27/48/29 21/29/21 23/31/23
f 41/49/36 37/25/19 11/28/11 30/50/37
f 42/51/16 36/21/17 9/24/9 6/52/6
f 30/53/37 11/13/11 14/16/14 31/54/38
f 6/55/6 9/9/9 2/12/2 7/56/7
f 8/57/8 7/58/7 2/2/2 1/1/1
f 32/59/39 28/60/34 29/61/35 33/62/40
f 39/63/41 41/64/36 30/65/37 34/66/42
f 34/67/42 30/68/37 31/69/38 4/70/4
f 10/71/10 34/67/42 4/70/4 3/72/3
f 38/73/18 39/63/41 34/66/42 10/74/10
f 22/75/22 32/59/39 33/62/40 18/76/32
f 13/77/13 8/57/8 1/1/1 14/78/14
f 25/79/25 26/36/28 15/39/31 20/80/26
f 40/81/20 35/17/15 5/20/5 12/82/12
f 12/83/12 5/5/5 8/8/8 13/84/13
f 14/78/14 1/1/1 4/4/4 31/85/38
f 20/86/26 15/87/31 35/17/15 40/81/20
f 18/88/32 33/89/40 39/63/41 38/73/18
f 33/89/40 29/90/35 41/64/36 39/63/41
f 16/91/30 17/92/33 36/21/17 42/51/16
f 29/93/35 19/94/27 37/25/19 41/49/36
f 19/94/27 20/95/26 40/26/20 37/25/19
f 17/92/33 18/96/32 38/22/18 36/21/17
f 15/87/31 16/97/30 42/18/16 35/17/15
