# Blender v2.93.5 OBJ File: 'Frostlands.blend'
# www.blender.org
mtllib SM_Snow_Flat_03.mtl
o Cube.067_export_temp_Cube.061
v -1.353947 0.145276 -0.037189
v -1.353947 0.301526 0.900311
v -1.500000 1.126787 0.962811
v -1.500000 1.126787 -0.037189
v -0.500000 0.000000 -0.037189
v -0.500000 0.166246 0.863186
v 0.500000 0.220720 -0.037189
v 0.500000 0.386966 0.792553
v 1.267101 0.230633 -0.037189
v 1.257652 0.386883 0.853058
v 1.500000 1.062500 -0.037189
v 1.490547 1.126787 0.915558
v 1.182045 0.418133 -0.952133
v 1.414944 1.062500 -0.952133
v 0.500000 0.454161 -1.001614
v -0.500000 0.233441 -0.906574
v -1.353947 0.332776 -0.970978
v -1.500000 1.126787 -0.970978
v -0.500000 1.126787 -1.018147
v 0.500000 1.126787 -1.113186
v 0.518368 1.061036 1.042553
v -0.500000 1.126787 1.113186
v -0.528725 1.330484 1.023724
v -1.365803 1.309924 0.873348
v 0.560085 1.339405 0.901196
v 1.356354 1.376787 0.826096
v 1.365803 1.376787 -0.037189
v 1.280746 1.376787 -0.862667
v 0.455269 1.359930 -1.023724
v -0.455269 1.303426 -0.870716
v -1.365803 1.284377 -0.881512
v -1.365803 1.256888 -0.037189
v -0.455269 1.413380 -0.037189
v 0.452148 1.376787 -0.028740
vt 0.875000 0.562500
vt 0.937500 0.562500
vt 0.937500 0.625000
vt 0.875000 0.625000
vt 0.875000 0.562500
vt 0.937500 0.562500
vt 0.937500 0.625000
vt 0.875000 0.625000
vt 0.875000 0.562500
vt 0.937500 0.562500
vt 0.937500 0.625000
vt 0.875000 0.625000
vt 0.875000 0.562500
vt 0.937500 0.562500
vt 0.937500 0.625000
vt 0.875000 0.625000
vt 0.875000 0.562500
vt 0.937500 0.562500
vt 0.937500 0.625000
vt 0.875000 0.625000
vt 0.875000 0.562500
vt 0.937500 0.562500
vt 0.937500 0.625000
vt 0.875000 0.625000
vt 0.875000 0.562500
vt 0.937500 0.562500
vt 0.937500 0.625000
vt 0.875000 0.625000
vt 0.937500 0.562500
vt 0.937500 0.625000
vt 0.875000 0.625000
vt 0.875000 0.562500
vt 0.937500 0.625000
vt 0.875000 0.625000
vt 0.875000 0.562500
vt 0.937500 0.562500
vt 0.937500 0.625000
vt 0.875000 0.625000
vt 0.937500 0.562500
vt 0.937500 0.625000
vt 0.875000 0.625000
vt 0.875000 0.562500
vt 0.937500 0.625000
vt 0.875000 0.625000
vt 0.875000 0.562500
vt 0.937500 0.625000
vt 0.875000 0.625000
vt 0.937500 0.562500
vt 0.937500 0.625000
vt 0.875000 0.625000
vt 0.937500 0.562500
vt 0.937500 0.625000
vt 0.875000 0.625000
vt 0.875000 0.562500
vt 0.937500 0.625000
vt 0.875000 0.625000
vt 0.875000 0.544922
vt 0.937500 0.544922
vt 0.937500 0.562500
vt 0.875000 0.562500
vt 0.875000 0.544922
vt 0.937500 0.544922
vt 0.937500 0.562500
vt 0.875000 0.562500
vt 0.875000 0.544922
vt 0.937500 0.544922
vt 0.937500 0.562500
vt 0.875000 0.562500
vt 0.875000 0.544922
vt 0.937500 0.544922
vt 0.937500 0.562500
vt 0.875000 0.562500
vt 0.875000 0.544922
vt 0.937500 0.544922
vt 0.937500 0.562500
vt 0.875000 0.562500
vt 0.875000 0.544922
vt 0.937500 0.544922
vt 0.937500 0.562500
vt 0.875000 0.562500
vt 0.875000 0.544922
vt 0.937500 0.544922
vt 0.937500 0.562500
vt 0.875000 0.562500
vt 0.875000 0.544922
vt 0.937500 0.544922
vt 0.937500 0.562500
vt 0.875000 0.562500
vt 0.875000 0.544922
vt 0.937500 0.544922
vt 0.937500 0.562500
vt 0.875000 0.562500
vt 0.875000 0.544922
vt 0.937500 0.544922
vt 0.937500 0.562500
vt 0.875000 0.562500
vt 0.937500 0.812500
vt 1.000000 0.812500
vt 1.000000 0.875000
vt 0.937500 0.875000
vt 0.937500 0.812500
vt 1.000000 0.812500
vt 1.000000 0.875000
vt 0.937500 0.875000
vt 0.937500 0.812500
vt 1.000000 0.812500
vt 1.000000 0.875000
vt 0.937500 0.875000
vt 0.937500 0.812500
vt 1.000000 0.812500
vt 1.000000 0.875000
vt 0.937500 0.875000
vt 0.937500 0.812500
vt 1.000000 0.812500
vt 1.000000 0.875000
vt 0.937500 0.875000
vt 0.937500 0.812500
vt 1.000000 0.812500
vt 1.000000 0.875000
vt 0.937500 0.875000
vn -0.6696 -0.7425 -0.0194
vn -0.5842 -0.5658 0.5819
vn -0.7360 0.2110 0.6432
vn -0.9604 0.2785 -0.0030
vn 0.0332 -0.9991 -0.0281
vn 0.0202 -0.7527 0.6580
vn 0.1058 -0.9941 -0.0239
vn 0.1038 -0.7249 0.6810
vn 0.5725 -0.8193 -0.0301
vn 0.4879 -0.6469 0.5861
vn 0.9974 0.0575 -0.0443
vn 0.7542 0.1077 0.6478
vn 0.4755 -0.6207 -0.6234
vn 0.7578 0.0842 -0.6470
vn 0.0633 -0.6221 -0.7804
vn 0.0052 -0.7038 -0.7104
vn -0.5549 -0.5290 -0.6421
vn -0.7097 0.2957 -0.6394
vn -0.0561 0.2364 -0.9700
vn 0.0346 0.1588 -0.9867
vn 0.0822 0.0721 0.9940
vn -0.0040 0.1137 0.9935
vn -0.0471 0.8186 0.5724
vn -0.4097 0.8264 0.3863
vn 0.0494 0.8304 0.5550
vn 0.4353 0.7886 0.4343
vn 0.5473 0.8366 -0.0253
vn 0.4590 0.7674 -0.4477
vn 0.0020 0.8151 -0.5793
vn -0.0747 0.8708 -0.4860
vn -0.3347 0.8608 -0.3833
vn -0.4587 0.8885 -0.0121
vn -0.0478 0.9988 -0.0113
vn -0.0065 1.0000 0.0019
usemtl frostland_tilesheet
s 1
f 1/1/1 2/2/2 3/3/3 4/4/4
f 5/5/5 6/6/6 2/7/2 1/8/1
f 6/9/6 5/10/5 7/11/7 8/12/8
f 8/13/8 7/14/7 9/15/9 10/16/10
f 10/17/10 9/18/9 11/19/11 12/20/12
f 9/21/9 13/22/13 14/23/14 11/24/11
f 7/25/7 15/26/15 13/27/13 9/28/9
f 5/5/5 16/29/16 15/30/15 7/31/7
f 16/32/16 5/10/5 1/33/1 17/34/17
f 17/35/17 1/36/1 4/37/4 18/38/18
f 16/32/16 17/39/17 18/40/18 19/41/19
f 15/42/15 16/29/16 19/43/19 20/44/20
f 13/45/13 15/26/15 20/46/20 14/47/14
f 8/13/8 10/48/10 12/49/12 21/50/21
f 6/9/6 8/51/8 21/52/21 22/53/22
f 2/54/2 6/6/6 22/55/22 3/56/3
f 3/57/3 22/58/22 23/59/23 24/60/24
f 22/61/22 21/62/21 25/63/25 23/64/23
f 21/65/21 12/66/12 26/67/26 25/68/25
f 12/69/12 11/70/11 27/71/27 26/72/26
f 11/73/11 14/74/14 28/75/28 27/76/27
f 14/77/14 20/78/20 29/79/29 28/80/28
f 20/81/20 19/82/19 30/83/30 29/84/29
f 19/85/19 18/86/18 31/87/31 30/88/30
f 18/89/18 4/90/4 32/91/32 31/92/31
f 4/93/4 3/94/3 24/95/24 32/96/32
f 32/97/32 24/98/24 23/99/23 33/100/33
f 31/101/31 32/102/32 33/103/33 30/104/30
f 30/105/30 33/106/33 34/107/34 29/108/29
f 33/109/33 23/110/23 25/111/25 34/112/34
f 34/113/34 25/114/25 26/115/26 27/116/27
f 29/117/29 34/118/34 27/119/27 28/120/28
