# Blender v2.93.5 OBJ File: 'Frostlands.blend'
# www.blender.org
mtllib SM_SSnow_Landmass_02.mtl
o Cube.054_export_temp_Cube.061
v 0.031250 1.593750 -0.093750
v 0.031250 1.343750 -0.750000
v -0.468750 1.406250 -0.468750
v -0.656250 1.500000 0.031250
v 0.856737 1.312500 0.031250
v 0.669237 1.156250 -0.606735
v 0.531250 1.406250 -0.468750
v 0.718750 1.562500 0.031250
v 0.031250 1.093750 -0.887985
v -0.606737 1.187500 -0.606735
v 0.031250 1.250000 0.887985
v 0.669237 1.187500 0.669235
v 0.531250 1.437500 0.531250
v 0.031250 1.500000 0.750000
v 1.055731 0.250000 0.031250
v 0.868231 0.250000 -0.805729
v 0.031250 0.250000 -1.086979
v -0.805731 0.250000 -0.805729
v 0.031250 0.250000 1.086979
v 0.868231 0.250000 0.868229
v 0.031250 0.000000 -0.959946
v -0.959948 0.000000 -0.959946
v 0.031250 0.000000 -1.241196
v 0.031250 0.000000 1.241196
v 1.022448 0.000000 1.022446
v 1.209948 0.000000 0.031250
v 1.022448 0.000000 -0.959946
v -0.959948 0.000000 1.022446
v -0.805731 0.250000 0.868229
v -0.606737 1.250000 0.669235
v -0.468750 1.437500 0.531250
v -1.209948 0.000000 0.031250
v -1.024481 0.187500 0.031250
v -0.794237 1.250000 0.031250
vt 0.968750 0.906250
vt 0.937500 0.906250
vt 0.937500 0.875000
vt 0.968750 0.875000
vt 0.906250 0.488281
vt 0.937500 0.488281
vt 0.937500 0.500000
vt 0.906250 0.500000
vt 0.906250 0.488281
vt 0.937500 0.488281
vt 0.937500 0.500000
vt 0.906250 0.500000
vt 0.906250 0.488281
vt 0.937500 0.488281
vt 0.937500 0.500000
vt 0.906250 0.500000
vt 0.968750 0.562500
vt 1.000000 0.562500
vt 1.000000 0.625000
vt 0.968750 0.625000
vt 0.968750 0.562500
vt 1.000000 0.562500
vt 1.000000 0.625000
vt 0.968750 0.625000
vt 0.968750 0.562500
vt 1.000000 0.562500
vt 1.000000 0.625000
vt 0.968750 0.625000
vt 0.812500 0.812598
vt 0.874902 0.812598
vt 0.812500 0.812598
vt 0.906250 0.468750
vt 0.937500 0.468750
vt 0.937500 0.480469
vt 0.906250 0.480469
vt 0.906250 0.468750
vt 0.937500 0.468750
vt 0.937500 0.480469
vt 0.906250 0.480469
vt 0.906250 0.468750
vt 0.937500 0.468750
vt 0.937500 0.480469
vt 0.906250 0.480469
vt 0.875000 0.468750
vt 0.875000 0.480469
vt 0.875000 0.468750
vt 0.875000 0.480469
vt 0.750098 0.812598
vt 0.937500 0.562500
vt 0.937500 0.625000
vt 0.937500 0.562500
vt 0.937500 0.625000
vt 0.875000 0.488281
vt 0.875000 0.500000
vt 0.875000 0.488281
vt 0.875000 0.500000
vt 0.968750 0.937500
vt 0.937500 0.937500
vt 0.906250 0.468750
vt 0.937500 0.468750
vt 0.937500 0.480469
vt 0.906250 0.480469
vt 0.968750 0.562500
vt 1.000000 0.562500
vt 1.000000 0.625000
vt 0.968750 0.625000
vt 0.906250 0.488281
vt 0.937500 0.488281
vt 0.937500 0.500000
vt 0.906250 0.500000
vt 0.875000 0.488281
vt 0.875000 0.500000
vt 0.937500 0.562500
vt 0.937500 0.625000
vt 0.875000 0.468750
vt 0.875000 0.480469
vt 1.000000 0.937500
vt 1.000000 0.906250
vt 0.875000 0.468750
vt 0.875000 0.480469
vt 0.937500 0.562500
vt 0.937500 0.625000
vt 0.875000 0.488281
vt 0.875000 0.500000
vt 1.000000 0.875000
vn -0.0206 0.9933 -0.1138
vn 0.0007 0.7401 -0.6725
vn -0.4200 0.7705 -0.4796
vn -0.5550 0.8310 -0.0376
vn 0.9119 0.4102 -0.0089
vn 0.6652 0.3876 -0.6381
vn 0.4116 0.7478 -0.5208
vn 0.5372 0.8429 -0.0306
vn 0.0057 0.3927 -0.9197
vn -0.6604 0.4116 -0.6280
vn 0.0114 0.4036 0.9149
vn 0.6624 0.3746 0.6488
vn 0.4356 0.7698 0.4665
vn -0.0000 0.8193 0.5734
vn 0.9123 0.4095 -0.0011
vn 0.6531 0.4728 -0.5915
vn 0.0010 0.4401 -0.8979
vn -0.6328 0.4971 -0.5937
vn 0.0020 0.4163 0.9092
vn 0.6337 0.4733 0.6119
vn 0.0000 -1.0000 -0.0000
vn -0.5836 0.5785 -0.5699
vn -0.0000 -0.3997 -0.9167
vn 0.0000 0.5683 0.8228
vn 0.5609 0.6213 0.5471
vn 0.8269 0.5624 0.0000
vn 0.6218 0.5292 -0.5773
vn -0.5223 0.6623 0.5372
vn -0.6134 0.4965 0.6142
vn -0.6547 0.4137 0.6326
vn -0.4349 0.8010 0.4113
vn -0.7595 0.6505 0.0000
vn -0.8778 0.4790 -0.0019
vn -0.9116 0.4108 -0.0139
usemtl frostland_tilesheet
s 1
f 1/1/1 2/2/2 3/3/3 4/4/4
f 5/5/5 6/6/6 7/7/7 8/8/8
f 9/9/9 10/10/10 3/11/3 2/12/2
f 11/13/11 12/14/12 13/15/13 14/16/14
f 15/17/15 16/18/16 6/19/6 5/20/5
f 17/21/17 18/22/18 10/23/10 9/24/9
f 19/25/19 20/26/20 12/27/12 11/28/11
f 21/29/21 22/30/22 23/31/23
f 24/32/24 25/33/25 20/34/20 19/35/19
f 26/36/26 27/37/27 16/38/16 15/39/15
f 23/40/23 22/41/22 18/42/18 17/43/17
f 27/44/27 23/40/23 17/43/17 16/45/16
f 28/46/28 24/32/24 19/35/19 29/47/29
f 27/48/27 21/29/21 23/31/23
f 29/49/29 19/25/19 11/28/11 30/50/30
f 16/51/16 17/21/17 9/24/9 6/52/6
f 30/53/30 11/13/11 14/16/14 31/54/31
f 6/55/6 9/9/9 2/12/2 7/56/7
f 8/57/8 7/58/7 2/2/2 1/1/1
f 32/59/32 28/60/28 29/61/29 33/62/33
f 33/63/33 29/64/29 30/65/30 34/66/34
f 34/67/34 30/68/30 31/69/31 4/70/4
f 10/71/10 34/67/34 4/70/4 3/72/3
f 18/73/18 33/63/33 34/66/34 10/74/10
f 22/75/22 32/59/32 33/62/33 18/76/18
f 13/77/13 8/57/8 1/1/1 14/78/14
f 25/79/25 26/36/26 15/39/15 20/80/20
f 20/81/20 15/17/15 5/20/5 12/82/12
f 12/83/12 5/5/5 8/8/8 13/84/13
f 14/78/14 1/1/1 4/4/4 31/85/31
