# Blender v2.93.5 OBJ File: 'Frostlands.blend'
# www.blender.org
mtllib SM_SIce_Landmass_02.mtl
o Cube.064_export_temp_Cube.061
v 0.030079 1.593750 -0.064186
v 0.030079 1.343750 -0.720436
v -0.469921 1.406250 -0.439186
v -0.657421 1.500000 0.060814
v 0.938114 1.312500 0.061596
v 0.731865 1.156250 -0.640190
v 0.530079 1.406250 -0.439186
v 0.717579 1.562500 0.060814
v 0.030079 1.093750 -0.949566
v -0.671707 1.187500 -0.640190
v 0.030079 1.250000 1.004005
v 0.731865 1.187500 0.763382
v 0.530079 1.437500 0.560814
v 0.030079 1.500000 0.779564
v 0.951721 0.250000 0.060032
v 0.782970 0.250000 -0.693249
v 0.029688 0.250000 -0.946373
v -0.723593 0.250000 -0.693249
v 0.029688 0.250000 1.010189
v 0.782970 0.250000 0.813316
v 0.029688 0.000000 -0.879456
v -0.911949 0.000000 -0.879456
v 0.030079 0.000000 -1.211632
v 0.029688 0.000000 1.211632
v 0.971325 0.000000 1.003819
v 1.149450 0.000000 0.062180
v 0.971325 0.000000 -0.879456
v -0.911949 0.000000 1.003819
v -0.723593 0.250000 0.813316
v -0.671707 1.250000 0.763382
v -0.469921 1.437500 0.560814
v -1.149448 0.000000 0.062180
v -0.920469 0.187500 0.060032
v -0.877956 1.250000 0.061596
v 0.769674 0.781250 0.059250
v 0.029688 0.671875 -0.755737
v 0.029688 0.750000 0.824238
v -0.560299 0.718750 -0.530735
v -0.722799 0.718750 0.059250
v 0.619675 0.718750 0.649239
v -0.560299 0.750000 0.649239
v 0.619675 0.703125 -0.530735
vt 0.968750 0.968750
vt 0.937500 0.968750
vt 0.937500 0.937500
vt 0.968750 0.937500
vt 0.968750 0.488281
vt 1.000000 0.488281
vt 1.000000 0.500000
vt 0.968750 0.500000
vt 0.968750 0.488281
vt 1.000000 0.488281
vt 1.000000 0.500000
vt 0.968750 0.500000
vt 0.968750 0.488281
vt 1.000000 0.488281
vt 1.000000 0.500000
vt 0.968750 0.500000
vt 0.968750 0.531250
vt 1.000000 0.531250
vt 1.000000 0.562500
vt 0.968750 0.562500
vt 0.968750 0.531250
vt 1.000000 0.531250
vt 1.000000 0.562500
vt 0.968750 0.562500
vt 0.968750 0.531250
vt 1.000000 0.531250
vt 1.000000 0.562500
vt 0.968750 0.562500
vt 0.812500 0.812598
vt 0.874902 0.812598
vt 0.812500 0.812598
vt 0.968750 0.468750
vt 1.000000 0.468750
vt 1.000000 0.480469
vt 0.968750 0.480469
vt 0.968750 0.468750
vt 1.000000 0.468750
vt 1.000000 0.480469
vt 0.968750 0.480469
vt 0.968750 0.468750
vt 1.000000 0.468750
vt 1.000000 0.480469
vt 0.968750 0.480469
vt 0.937500 0.468750
vt 0.937500 0.480469
vt 0.937500 0.468750
vt 0.937500 0.480469
vt 0.750098 0.812598
vt 0.937500 0.531250
vt 0.937500 0.562500
vt 0.937500 0.531250
vt 0.937500 0.562500
vt 0.937500 0.488281
vt 0.937500 0.500000
vt 0.937500 0.488281
vt 0.937500 0.500000
vt 0.968750 1.000000
vt 0.937500 1.000000
vt 0.968750 0.468750
vt 1.000000 0.468750
vt 1.000000 0.480469
vt 0.968750 0.480469
vt 0.968750 0.531250
vt 1.000000 0.531250
vt 1.000000 0.562500
vt 0.968750 0.562500
vt 0.968750 0.488281
vt 1.000000 0.488281
vt 1.000000 0.500000
vt 0.968750 0.500000
vt 0.937500 0.488281
vt 0.937500 0.500000
vt 0.937500 0.531250
vt 0.937500 0.562500
vt 0.937500 0.468750
vt 0.937500 0.480469
vt 1.000000 1.000000
vt 1.000000 0.968750
vt 0.937500 0.468750
vt 0.937500 0.480469
vt 0.937500 0.531250
vt 0.937500 0.562500
vt 0.937500 0.488281
vt 0.937500 0.500000
vt 1.000000 0.937500
vt 0.937500 0.500000
vt 0.968750 0.500000
vt 0.937500 0.500000
vt 0.968750 0.500000
vt 1.000000 0.500000
vt 0.937500 0.500000
vt 0.968750 0.500000
vt 0.937500 0.500000
vt 0.968750 0.500000
vt 1.000000 0.500000
vt 1.000000 0.500000
vt 1.000000 0.500000
vn -0.0206 0.9933 -0.1138
vn 0.0029 0.8180 -0.5753
vn -0.3402 0.8404 -0.4219
vn -0.4590 0.8875 -0.0399
vn 0.9563 0.2921 -0.0071
vn 0.7229 0.1679 -0.6702
vn 0.3315 0.8188 -0.4686
vn 0.4426 0.8962 -0.0312
vn 0.0025 0.1591 -0.9873
vn -0.7135 0.2153 -0.6667
vn 0.0066 0.2455 0.9694
vn 0.7089 0.1517 0.6888
vn 0.3621 0.8410 0.4020
vn 0.0040 0.8798 0.4753
vn 0.9999 0.0131 0.0017
vn 0.7600 0.0520 -0.6479
vn -0.0019 0.0478 -0.9989
vn -0.7554 0.0419 -0.6539
vn -0.0039 0.0267 0.9996
vn 0.7243 0.0606 0.6868
vn 0.0000 -1.0000 -0.0000
vn -0.5409 0.6769 -0.4993
vn 0.0003 -0.3220 -0.9467
vn -0.0000 0.6580 0.7530
vn 0.5060 0.7065 0.4948
vn 0.5784 0.5960 0.5570
vn 0.0016 0.5353 0.8447
vn 0.7622 0.6473 0.0006
vn 0.5801 0.6345 -0.5108
vn 0.5970 0.6101 -0.5210
vn 0.8524 0.5230 -0.0012
vn -0.5770 0.6304 -0.5193
vn 0.0007 0.5975 -0.8019
vn -0.4681 0.7410 0.4815
vn -0.5590 0.6151 0.5561
vn -0.7192 0.0436 0.6935
vn -0.6988 0.2264 0.6786
vn -0.3594 0.8694 0.3391
vn -0.6905 0.7234 0.0006
vn -0.8128 0.5826 -0.0018
vn -0.9985 0.0538 0.0024
vn -0.9638 0.2666 -0.0094
usemtl frostland_tilesheet
s 1
f 1/1/1 2/2/2 3/3/3 4/4/4
f 5/5/5 6/6/6 7/7/7 8/8/8
f 9/9/9 10/10/10 3/11/3 2/12/2
f 11/13/11 12/14/12 13/15/13 14/16/14
f 35/17/15 42/18/16 6/19/6 5/20/5
f 36/21/17 38/22/18 10/23/10 9/24/9
f 37/25/19 40/26/20 12/27/12 11/28/11
f 21/29/21 22/30/22 23/31/23
f 24/32/24 25/33/25 20/34/26 19/35/27
f 26/36/28 27/37/29 16/38/30 15/39/31
f 23/40/23 22/41/22 18/42/32 17/43/33
f 27/44/29 23/40/23 17/43/33 16/45/30
f 28/46/34 24/32/24 19/35/27 29/47/35
f 27/48/29 21/29/21 23/31/23
f 41/49/36 37/25/19 11/28/11 30/50/37
f 42/51/16 36/21/17 9/24/9 6/52/6
f 30/53/37 11/13/11 14/16/14 31/54/38
f 6/55/6 9/9/9 2/12/2 7/56/7
f 8/57/8 7/58/7 2/2/2 1/1/1
f 32/59/39 28/60/34 29/61/35 33/62/40
f 39/63/41 41/64/36 30/65/37 34/66/42
f 34/67/42 30/68/37 31/69/38 4/70/4
f 10/71/10 34/67/42 4/70/4 3/72/3
f 38/73/18 39/63/41 34/66/42 10/74/10
f 22/75/22 32/59/39 33/62/40 18/76/32
f 13/77/13 8/57/8 1/1/1 14/78/14
f 25/79/25 26/36/28 15/39/31 20/80/26
f 40/81/20 35/17/15 5/20/5 12/82/12
f 12/83/12 5/5/5 8/8/8 13/84/13
f 14/78/14 1/1/1 4/4/4 31/85/38
f 20/86/26 15/87/31 35/17/15 40/81/20
f 18/88/32 33/89/40 39/63/41 38/73/18
f 33/89/40 29/90/35 41/64/36 39/63/41
f 16/91/30 17/92/33 36/21/17 42/51/16
f 29/93/35 19/94/27 37/25/19 41/49/36
f 19/94/27 20/95/26 40/26/20 37/25/19
f 17/92/33 18/96/32 38/22/18 36/21/17
f 15/87/31 16/97/30 42/18/16 35/17/15
