# Blender v2.93.5 OBJ File: 'Frostlands.blend'
# www.blender.org
mtllib SM_SSnow_Landmass_10.mtl
o Cube.059_export_temp_Cube.061
v 0.028908 1.593750 -0.034622
v 0.028908 1.343750 -0.690872
v -0.471092 1.406250 -0.409622
v -0.658592 1.500000 0.090378
v 0.936943 1.312500 0.091160
v 0.730694 1.156250 -0.610626
v 0.528908 1.406250 -0.409622
v 0.716408 1.562500 0.090378
v 0.028908 1.093750 -0.920002
v -0.672878 1.187500 -0.610626
v 0.028908 1.250000 1.033569
v 0.730694 1.187500 0.792946
v 0.528908 1.437500 0.590378
v 0.028908 1.500000 0.809128
v 0.950550 0.250000 0.089596
v 0.781799 0.250000 -0.663685
v 0.028519 0.250000 -0.916809
v -0.724766 0.250000 -0.663685
v 0.028519 0.250000 1.039753
v 0.781799 0.250000 0.842880
v 0.028126 0.000000 -0.798965
v -0.863949 0.000000 -0.798965
v 0.028908 0.000000 -1.182068
v 0.028126 0.000000 1.182064
v 0.920204 0.000000 0.985188
v 1.088953 0.000000 0.093113
v 0.920204 0.000000 -0.798965
v -0.863949 0.000000 0.985188
v -0.724766 0.250000 0.842880
v -0.672878 1.250000 0.792946
v -0.471092 1.437500 0.590378
v -1.088951 0.000000 0.093113
v -0.921638 0.187500 0.089596
v -0.879128 1.250000 0.091160
v 0.802383 0.771364 0.089123
v 0.028511 0.664025 -0.763432
v 0.028511 0.740695 0.889221
v -0.588001 0.710027 -0.527390
v -0.758095 0.708864 0.089123
v 0.645021 0.710027 0.705635
v -0.588001 0.740695 0.705635
v 0.645021 0.694693 -0.527390
vt 0.968750 0.843750
vt 0.937500 0.843750
vt 0.937500 0.812500
vt 0.968750 0.812500
vt 0.906250 0.488281
vt 0.937500 0.488281
vt 0.937500 0.500000
vt 0.906250 0.500000
vt 0.906250 0.488281
vt 0.937500 0.488281
vt 0.937500 0.500000
vt 0.906250 0.500000
vt 0.906250 0.488281
vt 0.937500 0.488281
vt 0.937500 0.500000
vt 0.906250 0.500000
vt 0.968750 0.593168
vt 1.000000 0.593168
vt 1.000000 0.625000
vt 0.968750 0.625000
vt 0.968750 0.593168
vt 1.000000 0.593168
vt 1.000000 0.625000
vt 0.968750 0.625000
vt 0.968750 0.593168
vt 1.000000 0.593168
vt 1.000000 0.625000
vt 0.968750 0.625000
vt 0.812500 0.812598
vt 0.874902 0.812598
vt 0.812500 0.812598
vt 0.906250 0.468750
vt 0.937500 0.468750
vt 0.937500 0.480469
vt 0.906250 0.480469
vt 0.906250 0.468750
vt 0.937500 0.468750
vt 0.937500 0.480469
vt 0.906250 0.480469
vt 0.906250 0.468750
vt 0.937500 0.468750
vt 0.937500 0.480469
vt 0.906250 0.480469
vt 0.875000 0.468750
vt 0.875000 0.480469
vt 0.875000 0.468750
vt 0.875000 0.480469
vt 0.750098 0.812598
vt 0.937500 0.593168
vt 0.937500 0.625000
vt 0.937500 0.593168
vt 0.937500 0.625000
vt 0.875000 0.488281
vt 0.875000 0.500000
vt 0.875000 0.488281
vt 0.875000 0.500000
vt 0.968750 0.875000
vt 0.937500 0.875000
vt 0.906250 0.468750
vt 0.937500 0.468750
vt 0.937500 0.480469
vt 0.906250 0.480469
vt 0.968750 0.593168
vt 1.000000 0.593168
vt 1.000000 0.625000
vt 0.968750 0.625000
vt 0.906250 0.488281
vt 0.937500 0.488281
vt 0.937500 0.500000
vt 0.906250 0.500000
vt 0.875000 0.488281
vt 0.875000 0.500000
vt 0.937500 0.593168
vt 0.937500 0.625000
vt 0.875000 0.468750
vt 0.875000 0.480469
vt 1.000000 0.875000
vt 1.000000 0.843750
vt 0.875000 0.468750
vt 0.875000 0.480469
vt 0.937500 0.593168
vt 0.937500 0.625000
vt 0.875000 0.488281
vt 0.875000 0.500000
vt 1.000000 0.812500
vt 0.937500 0.562500
vt 0.968750 0.562500
vt 0.937500 0.562500
vt 0.968750 0.562500
vt 1.000000 0.562500
vt 0.937500 0.562500
vt 0.968750 0.562500
vt 0.937500 0.562500
vt 0.968750 0.562500
vt 1.000000 0.562500
vt 1.000000 0.562500
vt 1.000000 0.562500
vn -0.0206 0.9933 -0.1138
vn 0.0029 0.8180 -0.5753
vn -0.3402 0.8404 -0.4219
vn -0.4590 0.8875 -0.0399
vn 0.9478 0.3189 -0.0075
vn 0.7155 0.2042 -0.6681
vn 0.3315 0.8188 -0.4686
vn 0.4426 0.8962 -0.0312
vn 0.0031 0.1975 -0.9803
vn -0.7063 0.2492 -0.6626
vn 0.0077 0.2765 0.9610
vn 0.7038 0.1881 0.6850
vn 0.3621 0.8410 0.4020
vn 0.0040 0.8798 0.4753
vn 0.9997 0.0241 0.0011
vn 0.7561 0.0573 -0.6519
vn -0.0013 0.0529 -0.9986
vn -0.7515 0.0508 -0.6577
vn -0.0027 0.0345 0.9994
vn 0.7230 0.0635 0.6879
vn 0.0000 -1.0000 -0.0000
vn -0.6248 0.5613 -0.5428
vn 0.0004 -0.3480 -0.9375
vn -0.0002 0.5365 0.8439
vn 0.5791 0.5856 0.5672
vn 0.6278 0.4916 0.6035
vn 0.0015 0.4390 0.8985
vn 0.8535 0.5211 0.0012
vn 0.6608 0.5120 -0.5488
vn 0.6497 0.5260 -0.5488
vn 0.9050 0.4255 -0.0015
vn -0.6292 0.5496 -0.5496
vn 0.0006 0.5436 -0.8393
vn -0.5429 0.6281 0.5573
vn -0.6076 0.5147 0.6049
vn -0.7180 0.0515 0.6941
vn -0.6932 0.2591 0.6726
vn -0.3594 0.8694 0.3391
vn -0.7913 0.6114 0.0013
vn -0.8719 0.4896 -0.0022
vn -0.9982 0.0597 0.0015
vn -0.9550 0.2963 -0.0104
usemtl frostland_tilesheet
s 1
f 1/1/1 2/2/2 3/3/3 4/4/4
f 5/5/5 6/6/6 7/7/7 8/8/8
f 9/9/9 10/10/10 3/11/3 2/12/2
f 11/13/11 12/14/12 13/15/13 14/16/14
f 35/17/15 42/18/16 6/19/6 5/20/5
f 36/21/17 38/22/18 10/23/10 9/24/9
f 37/25/19 40/26/20 12/27/12 11/28/11
f 21/29/21 22/30/22 23/31/23
f 24/32/24 25/33/25 20/34/26 19/35/27
f 26/36/28 27/37/29 16/38/30 15/39/31
f 23/40/23 22/41/22 18/42/32 17/43/33
f 27/44/29 23/40/23 17/43/33 16/45/30
f 28/46/34 24/32/24 19/35/27 29/47/35
f 27/48/29 21/29/21 23/31/23
f 41/49/36 37/25/19 11/28/11 30/50/37
f 42/51/16 36/21/17 9/24/9 6/52/6
f 30/53/37 11/13/11 14/16/14 31/54/38
f 6/55/6 9/9/9 2/12/2 7/56/7
f 8/57/8 7/58/7 2/2/2 1/1/1
f 32/59/39 28/60/34 29/61/35 33/62/40
f 39/63/41 41/64/36 30/65/37 34/66/42
f 34/67/42 30/68/37 31/69/38 4/70/4
f 10/71/10 34/67/42 4/70/4 3/72/3
f 38/73/18 39/63/41 34/66/42 10/74/10
f 22/75/22 32/59/39 33/62/40 18/76/32
f 13/77/13 8/57/8 1/1/1 14/78/14
f 25/79/25 26/36/28 15/39/31 20/80/26
f 40/81/20 35/17/15 5/20/5 12/82/12
f 12/83/12 5/5/5 8/8/8 13/84/13
f 14/78/14 1/1/1 4/4/4 31/85/38
f 20/86/26 15/87/31 35/17/15 40/81/20
f 18/88/32 33/89/40 39/63/41 38/73/18
f 33/89/40 29/90/35 41/64/36 39/63/41
f 16/91/30 17/92/33 36/21/17 42/51/16
f 29/93/35 19/94/27 37/25/19 41/49/36
f 19/94/27 20/95/26 40/26/20 37/25/19
f 17/92/33 18/96/32 38/22/18 36/21/17
f 15/87/31 16/97/30 42/18/16 35/17/15
