# Blender v2.93.5 OBJ File: 'Frostlands.blend'
# www.blender.org
mtllib SM_IceCluster_01.mtl
o Cube.256_export_temp_Cube.061
v -0.105414 0.000000 -0.009808
v -0.167244 1.250730 0.001319
v 0.001213 0.009807 -0.000910
v -0.097039 0.005981 -0.116760
v 0.009588 0.015788 -0.107862
v -0.215006 0.999373 -0.095169
v -0.059539 1.013672 -0.082195
v -0.071750 1.004952 0.073746
v -0.227217 0.990653 0.060772
v -0.054364 0.003288 0.023538
v -0.152783 0.995447 0.109392
v -0.023639 1.013176 -0.000719
v 0.034210 0.015447 -0.051982
v -0.041463 0.012500 -0.141208
v -0.133973 1.008879 -0.130815
v -0.263117 0.991150 -0.020704
v -0.130036 0.000341 -0.065688
v -0.053903 0.042668 -0.056992
v 0.209573 1.079888 -0.255501
v 0.020559 0.038716 -0.000773
v -0.000215 0.019310 -0.129743
v 0.074247 0.015358 -0.073524
v 0.154548 0.855565 -0.311475
v 0.263117 0.849804 -0.229505
v 0.184838 0.883860 -0.123430
v 0.076269 0.889621 -0.205400
v -0.031177 0.047003 -0.009226
v 0.109403 0.895942 -0.135755
v 0.253311 0.865275 -0.154321
v 0.067521 0.025970 -0.021959
v 0.051522 0.011023 -0.121290
v 0.229982 0.843483 -0.299150
v 0.086075 0.874150 -0.280584
v -0.047177 0.032056 -0.108557
v -0.042886 0.023883 0.004004
v 0.133280 0.904346 0.292605
v 0.037129 0.013747 -0.002571
v -0.045420 0.052860 -0.071509
v 0.034595 0.042725 -0.078083
v 0.045615 0.758652 0.176419
v 0.162280 0.743873 0.166833
v 0.165974 0.701623 0.276934
v 0.049310 0.716402 0.286520
v -0.002194 0.010986 0.021119
v 0.108640 0.697597 0.311475
v 0.195649 0.718755 0.219294
v 0.057480 0.025497 -0.042103
v -0.006097 0.055622 -0.095199
v 0.102950 0.762678 0.141878
v 0.015941 0.741520 0.234059
v -0.065772 0.041110 -0.031976
vt 0.945312 0.375049
vt 0.953076 0.375049
vt 0.953076 0.437451
vt 0.945312 0.437500
vt 0.960938 0.375049
vt 0.968701 0.375049
vt 0.968701 0.437451
vt 0.960937 0.437500
vt 0.945312 0.375049
vt 0.953076 0.375049
vt 0.953076 0.437451
vt 0.945312 0.437500
vt 0.960938 0.375049
vt 0.968701 0.375049
vt 0.968701 0.437451
vt 0.960937 0.437500
vt 0.953125 0.421875
vt 0.960938 0.421875
vt 0.953125 0.437500
vt 0.945312 0.421875
vt 0.953125 0.421875
vt 0.945312 0.437500
vt 0.960938 0.421875
vt 0.968750 0.421875
vt 0.960938 0.437500
vt 0.945312 0.421875
vt 0.953125 0.421875
vt 0.937500 0.421875
vt 0.937500 0.437500
vt 0.937549 0.375049
vt 0.937549 0.437451
vt 0.953174 0.375049
vt 0.953174 0.437451
vt 0.937500 0.421875
vt 0.937549 0.375049
vt 0.937549 0.437451
vt 0.960938 0.421875
vt 0.953174 0.375049
vt 0.953174 0.437451
vt 0.945312 0.375049
vt 0.953076 0.375049
vt 0.953076 0.437451
vt 0.945312 0.437500
vt 0.960938 0.375049
vt 0.968701 0.375049
vt 0.968701 0.437451
vt 0.960937 0.437500
vt 0.945312 0.375049
vt 0.953076 0.375049
vt 0.953076 0.437451
vt 0.945312 0.437500
vt 0.960938 0.375049
vt 0.968701 0.375049
vt 0.968701 0.437451
vt 0.960937 0.437500
vt 0.960938 0.453076
vt 0.945312 0.453076
vt 0.937549 0.437549
vt 0.937549 0.453076
vt 0.937549 0.375049
vt 0.953174 0.437549
vt 0.953174 0.453076
vt 0.953174 0.375049
vt 0.937549 0.437549
vt 0.937549 0.375049
vt 0.953174 0.437549
vt 0.953174 0.375049
vt 0.945312 0.375049
vt 0.953076 0.375049
vt 0.953076 0.437451
vt 0.945312 0.437500
vt 0.960938 0.375049
vt 0.968701 0.375049
vt 0.968701 0.437451
vt 0.960937 0.437500
vt 0.945312 0.375049
vt 0.953076 0.375049
vt 0.953076 0.437451
vt 0.945312 0.437500
vt 0.960938 0.375049
vt 0.968701 0.375049
vt 0.968701 0.437451
vt 0.960937 0.437500
vt 0.960938 0.453076
vt 0.945312 0.453076
vt 0.937549 0.437549
vt 0.937549 0.453076
vt 0.937549 0.375049
vt 0.953174 0.437549
vt 0.953174 0.453076
vt 0.953174 0.375049
vt 0.937549 0.437549
vt 0.937549 0.375049
vt 0.953174 0.437549
vt 0.953174 0.375049
vn 0.4062 -0.0387 0.9130
vn 0.9128 0.0736 -0.4017
vn -0.3998 -0.0276 -0.9162
vn -0.9064 -0.1398 0.3985
vn -0.7102 -0.6603 0.2444
vn -0.7420 -0.6499 0.1647
vn -0.7529 -0.6440 0.1356
vn 0.3299 -0.5844 0.7414
vn 0.2492 -0.5841 0.7725
vn 0.2194 -0.5820 0.7831
vn 0.8203 -0.4870 -0.3000
vn 0.8503 -0.4784 -0.2193
vn 0.8602 -0.4733 -0.1896
vn -0.2197 -0.5628 -0.7969
vn -0.1409 -0.5441 -0.8271
vn -0.1121 -0.5354 -0.8371
vn -0.2628 -0.6312 0.7297
vn -0.3360 -0.6457 0.6857
vn -0.2360 -0.6238 0.7451
vn -0.5369 -0.1254 0.8343
vn 0.8101 -0.5071 0.2942
vn 0.7680 -0.5243 0.3678
vn 0.8244 -0.4989 0.2672
vn 0.8387 0.0207 0.5442
vn 0.3711 -0.4971 -0.7843
vn 0.4460 -0.5015 -0.7413
vn 0.3433 -0.4935 -0.7991
vn 0.5432 0.0592 -0.8375
vn -0.7018 -0.6211 -0.3489
vn -0.6579 -0.6229 -0.4233
vn -0.7172 -0.6184 -0.3213
vn -0.8324 -0.0869 -0.5474
vn -0.1328 0.1676 0.9769
vn 0.9682 -0.1883 0.1650
vn 0.1205 -0.2321 -0.9652
vn -0.9804 0.1238 -0.1533
vn -0.8926 -0.4426 -0.0860
vn -0.8760 -0.4512 -0.1704
vn -0.8688 -0.4525 -0.2013
vn -0.2666 -0.3860 0.8832
vn -0.3480 -0.3641 0.8639
vn -0.3771 -0.3544 0.8557
vn 0.6808 -0.6734 0.2881
vn 0.6677 -0.6464 0.3692
vn 0.6625 -0.6345 0.3981
vn 0.0548 -0.7301 -0.6811
vn 0.1397 -0.7335 -0.6652
vn 0.1708 -0.7326 -0.6589
vn -0.7594 -0.3423 0.5533
vn -0.8016 -0.3576 0.4791
vn -0.7430 -0.3350 0.5794
vn -0.8905 0.2078 0.4048
vn 0.3711 -0.5174 0.7711
vn 0.2951 -0.5057 0.8107
vn 0.3987 -0.5197 0.7556
vn 0.4218 0.0494 0.9053
vn 0.5511 -0.7553 -0.3546
vn 0.5897 -0.7585 -0.2773
vn 0.5368 -0.7520 -0.3826
vn 0.8782 -0.2723 -0.3931
vn -0.5794 -0.5803 -0.5724
vn -0.5069 -0.6104 -0.6086
vn -0.6049 -0.5673 -0.5588
vn -0.4341 -0.1139 -0.8937
vn 0.4925 -0.4052 0.7702
vn 0.8497 0.0292 -0.5265
vn -0.5022 0.3435 -0.7936
vn -0.8594 -0.0908 0.5031
vn -0.8101 -0.5606 0.1715
vn -0.8480 -0.5194 0.1056
vn -0.8607 -0.5025 0.0820
vn 0.2707 -0.8425 0.4657
vn 0.1967 -0.8373 0.5101
vn 0.1698 -0.8332 0.5262
vn 0.6417 -0.5070 -0.5755
vn 0.6823 -0.5305 -0.5029
vn 0.6966 -0.5373 -0.4754
vn -0.4392 -0.2251 -0.8697
vn -0.3624 -0.2126 -0.9074
vn -0.3338 -0.2065 -0.9197
vn -0.3134 -0.7727 0.5520
vn -0.3928 -0.7584 0.5201
vn -0.2840 -0.7757 0.5635
vn -0.4471 -0.2862 0.8474
vn 0.6985 -0.7153 -0.0215
vn 0.6627 -0.7472 0.0505
vn 0.7110 -0.7016 -0.0472
vn 0.8794 -0.3111 0.3603
vn 0.1478 -0.2772 -0.9494
vn 0.2241 -0.3091 -0.9242
vn 0.1200 -0.2640 -0.9570
vn 0.4374 0.2245 -0.8708
vn -0.8641 -0.3346 -0.3759
vn -0.8311 -0.3204 -0.4545
vn -0.8751 -0.3382 -0.3463
vn -0.8892 0.2494 -0.3836
usemtl frostland_tilesheet
s off
f 10/1/1 3/2/1 8/3/1 11/4/1
f 13/5/2 5/6/2 7/7/2 12/8/2
f 14/9/3 4/10/3 6/11/3 15/12/3
f 17/13/4 1/14/4 9/15/4 16/16/4
f 16/17/5 9/18/6 2/19/7
f 11/20/8 8/21/9 2/22/10
f 12/23/11 7/24/12 2/25/13
f 15/26/14 6/27/15 2/22/16
f 9/28/17 11/20/18 2/29/19
f 1/30/20 10/1/20 11/4/20 9/31/20
f 8/21/21 12/23/22 2/19/23
f 3/32/24 13/5/24 12/8/24 8/33/24
f 7/34/25 15/26/26 2/29/27
f 5/35/28 14/9/28 15/12/28 7/36/28
f 6/27/29 16/37/30 2/19/31
f 4/38/32 17/13/32 16/16/32 6/39/32
f 27/40/33 20/41/33 25/42/33 28/43/33
f 30/44/34 22/45/34 24/46/34 29/47/34
f 31/48/35 21/49/35 23/50/35 32/51/35
f 34/52/36 18/53/36 26/54/36 33/55/36
f 33/55/37 26/54/38 19/56/39
f 28/43/40 25/42/41 19/57/42
f 29/47/43 24/46/44 19/56/45
f 32/51/46 23/50/47 19/57/48
f 26/58/49 28/43/50 19/59/51
f 18/60/52 27/40/52 28/43/52 26/58/52
f 25/61/53 29/47/54 19/62/55
f 20/63/56 30/44/56 29/47/56 25/61/56
f 24/64/57 32/51/58 19/59/59
f 22/65/60 31/48/60 32/51/60 24/64/60
f 23/66/61 33/55/62 19/62/63
f 21/67/64 34/52/64 33/55/64 23/66/64
f 44/68/65 37/69/65 42/70/65 45/71/65
f 47/72/66 39/73/66 41/74/66 46/75/66
f 48/76/67 38/77/67 40/78/67 49/79/67
f 51/80/68 35/81/68 43/82/68 50/83/68
f 50/83/69 43/82/70 36/84/71
f 45/71/72 42/70/73 36/85/74
f 46/75/75 41/74/76 36/84/77
f 49/79/78 40/78/79 36/85/80
f 43/86/81 45/71/82 36/87/83
f 35/88/84 44/68/84 45/71/84 43/86/84
f 42/89/85 46/75/86 36/90/87
f 37/91/88 47/72/88 46/75/88 42/89/88
f 41/92/89 49/79/90 36/87/91
f 39/93/92 48/76/92 49/79/92 41/92/92
f 40/94/93 50/83/94 36/90/95
f 38/95/96 51/80/96 50/83/96 40/94/96
