# Blender v2.93.5 OBJ File: 'Frostlands.blend'
# www.blender.org
mtllib SM_LWall_Pillar.mtl
o Cube.250_export_temp_Cube.061
v 0.250000 1.000000 0.250000
v -0.250000 0.000000 0.250000
v 0.250000 0.000000 -0.250000
v -0.250000 0.000000 -0.250000
v 0.250000 0.000000 0.250000
v -0.250000 1.000000 0.250000
v -0.250000 1.000000 -0.250000
v 0.250000 1.000000 -0.250000
v 0.250000 0.937869 -0.250000
v -0.250000 0.937869 0.250000
v -0.250000 0.937869 -0.250000
v 0.250000 0.937869 0.250000
v -0.273214 1.000000 -0.273215
v 0.273214 1.000000 -0.273215
v -0.273214 1.000000 0.273215
v -0.273214 0.937869 -0.273215
v 0.273214 1.000000 0.273215
v 0.273214 0.937869 0.273215
v 0.273214 0.937869 -0.273215
v -0.273214 0.937869 0.273215
v -0.228424 0.500000 -0.250000
v -0.228424 0.500000 0.250000
v 0.260309 0.500000 0.250000
v 0.260309 0.500000 -0.250000
vt 0.156299 0.406250
vt 0.187451 0.406250
vt 0.187451 0.437451
vt 0.156299 0.437451
vt 0.156299 0.406250
vt 0.187451 0.406250
vt 0.187451 0.437451
vt 0.156299 0.437451
vt 0.125049 0.406250
vt 0.156201 0.406250
vt 0.156201 0.437451
vt 0.125049 0.437451
vt 0.125049 0.468750
vt 0.156201 0.468750
vt 0.156201 0.499951
vt 0.125049 0.499951
vt 0.156250 0.496080
vt 0.187500 0.496094
vt 0.187500 0.494141
vt 0.156250 0.494141
vt 0.125049 0.496080
vt 0.156201 0.496080
vt 0.156201 0.496080
vt 0.125049 0.496080
vt 0.189453 0.464844
vt 0.216797 0.464844
vt 0.218750 0.466797
vt 0.187500 0.466797
vt 0.187500 0.435547
vt 0.187500 0.464844
vt 0.189453 0.468750
vt 0.189453 0.433594
vt 0.187500 0.437500
vt 0.218750 0.437500
vt 0.218750 0.468750
vt 0.187500 0.468750
vt 0.125049 0.496080
vt 0.156201 0.496080
vt 0.156201 0.499951
vt 0.125049 0.499951
vt 0.156201 0.499951
vt 0.125049 0.499951
vt 0.125049 0.496080
vt 0.156250 0.496080
vt 0.156201 0.499951
vt 0.125049 0.499951
vt 0.187451 0.496080
vt 0.187451 0.499951
vt 0.156299 0.499951
vt 0.125049 0.496080
vt 0.156201 0.496080
vt 0.216797 0.466797
vt 0.216797 0.437500
vt 0.218750 0.435547
vt 0.218750 0.468750
vt 0.125049 0.496080
vt 0.125000 0.494141
vt 0.216797 0.466797
vt 0.185547 0.466797
vt 0.183594 0.468750
vt 0.218750 0.468750
vt 0.125049 0.437549
vt 0.156201 0.437549
vt 0.125049 0.375049
vt 0.156201 0.375049
vt 0.156299 0.375049
vt 0.187451 0.375049
vt 0.156299 0.375049
vt 0.187451 0.375049
vn 0.0000 0.0000 1.0000
vn 0.9998 0.0206 0.0000
vn 0.0000 0.0000 -1.0000
vn -0.9991 -0.0431 -0.0000
vn 0.0000 -1.0000 0.0000
vn 0.0000 1.0000 0.0000
vn 1.0000 0.0000 0.0000
vn -1.0000 0.0000 0.0000
vn -0.9991 0.0431 0.0000
vn 0.9998 -0.0206 -0.0000
usemtl frostland_tilesheet
s off
f 22/1/1 23/2/1 1/3/1 6/4/1
f 23/5/2 24/6/2 8/7/2 1/8/2
f 24/9/3 21/10/3 7/11/3 8/12/3
f 21/13/4 22/14/4 6/15/4 7/16/4
f 11/17/5 10/18/5 20/19/5 16/20/5
f 12/21/5 9/22/5 19/23/5 18/24/5
f 8/25/6 1/26/6 17/27/6 14/28/6
f 7/29/6 8/30/6 14/31/6 13/32/6
f 7/33/6 6/34/6 1/35/6 8/36/6
f 20/37/1 18/38/1 17/39/1 15/40/1
f 18/24/7 19/23/7 14/41/7 17/42/7
f 19/43/3 16/44/3 13/45/3 14/46/3
f 16/44/8 20/47/8 15/48/8 13/49/8
f 10/50/5 12/51/5 18/38/5 20/37/5
f 1/52/6 6/53/6 15/54/6 17/55/6
f 9/56/5 11/17/5 16/20/5 19/57/5
f 6/58/6 7/59/6 13/60/6 15/61/6
f 4/62/9 2/63/9 22/14/9 21/13/9
f 3/64/3 4/65/3 21/10/3 24/9/3
f 5/66/10 3/67/10 24/6/10 23/5/10
f 2/68/1 5/69/1 23/2/1 22/1/1
