# Blender v2.93.5 OBJ File: 'Frostlands.blend'
# www.blender.org
mtllib SM_LWall_End_01.mtl
o Cube.248_export_temp_Cube.061
v 0.500000 1.000000 0.125000
v -0.500001 0.000000 0.125000
v 0.499999 0.000000 0.125000
v -0.500001 0.000000 -0.125000
v 0.500000 1.000000 -0.125000
v -0.500000 1.000000 0.125000
v -0.500000 1.000000 -0.125000
v 0.500000 0.000000 -0.125000
v -0.000001 0.000000 0.125000
v 0.000000 0.000000 -0.125000
v 0.000000 1.067511 0.125000
v 0.000000 1.067511 -0.125000
vt 0.156250 0.437549
vt 0.187451 0.437549
vt 0.187451 0.499951
vt 0.156250 0.499951
vt 0.156299 0.375049
vt 0.171826 0.375049
vt 0.171826 0.437451
vt 0.156299 0.437451
vt 0.218750 0.484424
vt 0.249951 0.484424
vt 0.249951 0.499951
vt 0.218750 0.499951
vt 0.156250 0.437549
vt 0.187451 0.437549
vt 0.187451 0.499951
vt 0.156250 0.499951
vt 0.125049 0.437549
vt 0.125049 0.499951
vt 0.187549 0.484424
vt 0.125049 0.437549
vt 0.125049 0.499951
vn -0.0000 -0.0000 1.0000
vn -1.0000 0.0000 0.0000
vn 0.1338 0.9910 0.0000
vn -0.0000 0.0000 -1.0000
vn -0.1338 0.9910 0.0000
usemtl frostland_tilesheet
s off
f 9/1/1 3/2/1 1/3/1 11/4/1
f 4/5/2 2/6/2 6/7/2 7/8/2
f 11/9/3 1/10/3 5/11/3 12/12/3
f 10/13/4 4/14/4 7/15/4 12/16/4
f 8/17/4 10/13/4 12/16/4 5/18/4
f 6/19/5 11/9/5 12/12/5 7/15/5
f 2/20/1 9/1/1 11/4/1 6/21/1
