# Blender v2.93.5 OBJ File: 'Frostlands.blend'
# www.blender.org
mtllib SM_LWall_Mid.mtl
o Cube.247_export_temp_Cube.061
v 0.500000 1.000000 0.125000
v -0.500000 1.000000 -0.125000
v 0.500000 0.000000 0.125000
v -0.500000 1.000000 0.125000
v -0.500000 0.000000 0.125000
v 0.500000 1.000000 -0.125000
v -0.500000 0.000000 -0.125000
v 0.500000 0.000000 -0.125000
v 0.000000 1.026446 0.125000
v 0.000000 0.000000 0.125000
v 0.000000 1.026446 -0.125000
v 0.000000 0.000000 -0.125000
vt 0.156250 0.437549
vt 0.187451 0.437549
vt 0.187451 0.499951
vt 0.156250 0.499951
vt 0.218750 0.484424
vt 0.249951 0.484424
vt 0.249951 0.499951
vt 0.218750 0.499951
vt 0.156250 0.437549
vt 0.187451 0.437549
vt 0.187451 0.499951
vt 0.156250 0.499951
vt 0.125049 0.437549
vt 0.125049 0.499951
vt 0.187549 0.484424
vt 0.125049 0.437549
vt 0.125049 0.499951
vn -0.0000 -0.0000 1.0000
vn 0.0528 0.9986 0.0000
vn -0.0000 0.0000 -1.0000
vn -0.0528 0.9986 0.0000
usemtl frostland_tilesheet
s off
f 10/1/1 3/2/1 1/3/1 9/4/1
f 9/5/2 1/6/2 6/7/2 11/8/2
f 12/9/3 7/10/3 2/11/3 11/12/3
f 8/13/3 12/9/3 11/12/3 6/14/3
f 4/15/4 9/5/4 11/8/4 2/11/4
f 5/16/1 10/1/1 9/4/1 4/17/1
