# Blender v2.93.5 OBJ File: 'Frostlands.blend'
# www.blender.org
mtllib SM_SnowPile_02.mtl
o Cube.114_export_temp_Cube.061
v -0.362661 0.058732 0.332765
v 0.419621 0.022315 0.354269
v 0.407864 0.022315 -0.324615
v -0.296818 0.000000 -0.310407
v -0.176912 0.211534 -0.079019
v -0.183575 0.250693 0.213354
v 0.099438 0.228061 0.181653
v 0.124533 0.226241 -0.076072
v -0.240002 0.036759 -0.251882
v -0.305990 0.095492 0.269586
v 0.310406 0.059074 0.245052
v 0.298649 0.105664 -0.269444
v 0.015842 0.059074 0.370514
v -0.015842 0.059074 -0.370514
v 0.058331 0.022315 0.479731
v -0.015842 0.022315 -0.479731
v -0.043402 0.271038 0.218084
v -0.016922 0.216785 -0.126978
v -0.374950 0.059074 -0.020269
v 0.374943 0.059074 0.053583
v -0.484158 0.022315 -0.020269
v 0.484158 0.022315 0.053583
v -0.196167 0.263687 0.053368
v 0.176182 0.190229 0.084099
v -0.015842 0.342701 0.053583
vt 0.968750 0.843750
vt 0.980435 0.843750
vt 0.980435 0.855435
vt 0.968750 0.855435
vt 0.944364 0.843750
vt 0.944364 0.868136
vt 0.937549 0.874951
vt 0.937549 0.843750
vt 0.968750 0.819364
vt 0.944364 0.819364
vt 0.937549 0.812549
vt 0.968750 0.812549
vt 0.993136 0.843750
vt 0.993136 0.819364
vt 0.999951 0.812549
vt 0.999951 0.843750
vt 0.968750 0.868136
vt 0.993136 0.868136
vt 0.999951 0.874951
vt 0.968750 0.874951
vt 0.957065 0.843750
vt 0.957065 0.855435
vt 0.968750 0.832065
vt 0.957065 0.832065
vt 0.980435 0.832065
vn 0.1071 0.9913 -0.0764
vn 0.5419 0.8380 0.0641
vn 0.3752 0.8828 -0.2826
vn -0.0402 0.8629 -0.5037
vn -0.5081 0.8451 -0.1661
vn -0.3512 0.8527 -0.3867
vn -0.2843 0.9135 -0.2910
vn -0.3622 0.9246 -0.1178
vn 0.0619 0.8400 0.5390
vn -0.3796 0.8686 0.3186
vn -0.2207 0.9510 0.2167
vn 0.0496 0.9513 0.3041
vn 0.4598 0.8871 0.0411
vn 0.3189 0.9131 0.2542
vn 0.1876 0.9671 0.1716
vn 0.3816 0.9242 0.0149
vn -0.0891 0.8740 -0.4777
vn 0.3036 0.8990 -0.3156
vn 0.3444 0.9028 -0.2577
vn -0.0531 0.8973 -0.4383
vn -0.5367 0.8346 -0.1241
vn -0.4383 0.7582 -0.4827
vn 0.0459 0.8130 0.5805
vn -0.4445 0.7515 0.4875
vn 0.4495 0.7652 0.4609
usemtl frostland_tilesheet
s 1
f 25/1/1 24/2/2 8/3/3 18/4/4
f 19/5/5 9/6/6 4/7/7 21/8/8
f 13/9/9 10/10/10 1/11/11 15/12/12
f 20/13/13 11/14/14 2/15/15 22/16/16
f 14/17/17 12/18/18 3/19/19 16/20/20
f 23/21/21 5/22/22 9/6/6 19/5/5
f 17/23/23 6/24/24 10/10/10 13/9/9
f 24/2/2 7/25/25 11/14/14 20/13/13
f 18/4/4 8/3/3 12/18/18 14/17/17
f 5/22/22 18/4/4 14/17/17 9/6/6
f 7/25/25 17/23/23 13/9/9 11/14/14
f 9/6/6 14/17/17 16/20/20 4/7/7
f 11/14/14 13/9/9 15/12/12 2/15/15
f 23/21/21 25/1/1 18/4/4 5/22/22
f 6/24/24 17/23/23 25/1/1 23/21/21
f 8/3/3 24/2/2 20/13/13 12/18/18
f 6/24/24 23/21/21 19/5/5 10/10/10
f 12/18/18 20/13/13 22/16/16 3/19/19
f 10/10/10 19/5/5 21/8/8 1/11/11
f 17/23/23 7/25/25 24/2/2 25/1/1
