# Blender v2.93.5 OBJ File: 'Frostlands.blend'
# www.blender.org
mtllib SM_SnowPile_01.mtl
o Cube.113_export_temp_Cube.061
v -0.399937 0.000000 0.359840
v 0.419621 0.000000 0.354269
v 0.407864 0.000000 -0.324615
v -0.355419 0.000000 -0.330980
v -0.180309 0.181788 -0.102522
v -0.183575 0.181788 0.213354
v 0.153393 0.138216 0.206861
v 0.153683 0.181788 -0.099836
v -0.298603 0.036759 -0.272455
v -0.343266 0.036760 0.296661
v 0.310406 0.036760 0.245052
v 0.298649 0.036759 -0.269444
v 0.015842 0.036760 0.370514
v -0.015842 0.036759 -0.370514
v 0.058331 0.000000 0.479731
v -0.015842 0.000000 -0.479731
v -0.015842 0.181788 0.240837
v -0.015842 0.181788 -0.133671
v -0.374950 0.036760 -0.020269
v 0.374943 0.036759 0.053583
v -0.484158 0.000000 -0.020269
v 0.484158 0.000000 0.053583
v -0.176762 0.209813 0.053583
v 0.171413 0.181788 0.053583
v -0.015842 0.246320 0.053583
vt 0.968750 0.843750
vt 0.980435 0.843750
vt 0.980435 0.855435
vt 0.968750 0.855435
vt 0.944364 0.843750
vt 0.944364 0.868136
vt 0.937549 0.874951
vt 0.937549 0.843750
vt 0.968750 0.819364
vt 0.944364 0.819364
vt 0.937549 0.812549
vt 0.968750 0.812549
vt 0.993136 0.843750
vt 0.993136 0.819364
vt 0.999951 0.812549
vt 0.999951 0.843750
vt 0.968750 0.868136
vt 0.993136 0.868136
vt 0.999951 0.874951
vt 0.968750 0.874951
vt 0.957065 0.843750
vt 0.957065 0.855435
vt 0.968750 0.832065
vt 0.957065 0.832065
vt 0.980435 0.832065
vn 0.0598 0.9978 0.0279
vn 0.4297 0.9012 0.0570
vn 0.3394 0.8942 -0.2918
vn 0.0118 0.9114 -0.4114
vn -0.5040 0.8623 -0.0495
vn -0.3043 0.9032 -0.3027
vn -0.2529 0.9347 -0.2495
vn -0.3755 0.9264 -0.0279
vn 0.0334 0.8563 0.5154
vn -0.3325 0.8990 0.2851
vn -0.2342 0.9422 0.2395
vn 0.0266 0.9516 0.3063
vn 0.4180 0.9081 0.0256
vn 0.3033 0.9183 0.2544
vn 0.1876 0.9671 0.1716
vn 0.2946 0.9556 0.0040
vn -0.0085 0.9011 -0.4335
vn 0.2639 0.9248 -0.2739
vn 0.2331 0.9564 -0.1762
vn -0.0088 0.9364 -0.3508
vn -0.3965 0.9180 -0.0104
vn -0.3580 0.8755 -0.3244
vn 0.0690 0.8345 0.5467
vn -0.3512 0.8362 0.4212
vn 0.3777 0.8090 0.4505
usemtl frostland_tilesheet
s 1
f 25/1/1 24/2/2 8/3/3 18/4/4
f 19/5/5 9/6/6 4/7/7 21/8/8
f 13/9/9 10/10/10 1/11/11 15/12/12
f 20/13/13 11/14/14 2/15/15 22/16/16
f 14/17/17 12/18/18 3/19/19 16/20/20
f 23/21/21 5/22/22 9/6/6 19/5/5
f 17/23/23 6/24/24 10/10/10 13/9/9
f 24/2/2 7/25/25 11/14/14 20/13/13
f 18/4/4 8/3/3 12/18/18 14/17/17
f 5/22/22 18/4/4 14/17/17 9/6/6
f 7/25/25 17/23/23 13/9/9 11/14/14
f 9/6/6 14/17/17 16/20/20 4/7/7
f 11/14/14 13/9/9 15/12/12 2/15/15
f 23/21/21 25/1/1 18/4/4 5/22/22
f 6/24/24 17/23/23 25/1/1 23/21/21
f 8/3/3 24/2/2 20/13/13 12/18/18
f 6/24/24 23/21/21 19/5/5 10/10/10
f 12/18/18 20/13/13 22/16/16 3/19/19
f 10/10/10 19/5/5 21/8/8 1/11/11
f 17/23/23 7/25/25 24/2/2 25/1/1
