# Blender v2.93.5 OBJ File: 'Frostlands.blend'
# www.blender.org
mtllib SM_SWall_Pillar.mtl
o Cube.249_export_temp_Cube.061
v 0.250000 0.000000 0.250000
v -0.250000 0.000000 0.250000
v -0.250000 0.000000 -0.250000
v 0.250000 0.000000 -0.250000
v -0.250000 0.500000 -0.250000
v 0.250000 0.500000 -0.250000
v -0.250000 0.500000 0.250000
v 0.250000 0.500000 0.250000
v 0.250000 0.437869 -0.250000
v -0.250000 0.437869 0.250000
v -0.250000 0.437869 -0.250000
v 0.250000 0.437869 0.250000
v -0.273214 0.500000 -0.273215
v 0.273214 0.500000 -0.273215
v -0.273214 0.500000 0.273215
v -0.273214 0.437869 -0.273215
v 0.273214 0.500000 0.273215
v 0.273214 0.437869 0.273215
v 0.273214 0.437869 -0.273215
v -0.273214 0.437869 0.273215
vt 0.156250 0.496080
vt 0.187500 0.496094
vt 0.187500 0.494141
vt 0.156250 0.494141
vt 0.125049 0.496080
vt 0.156201 0.496080
vt 0.156201 0.496080
vt 0.125049 0.496080
vt 0.189453 0.464844
vt 0.216797 0.464844
vt 0.218750 0.466797
vt 0.187500 0.466797
vt 0.187500 0.435547
vt 0.187500 0.464844
vt 0.189453 0.468750
vt 0.189453 0.433594
vt 0.187500 0.437500
vt 0.218750 0.437500
vt 0.218750 0.468750
vt 0.187500 0.468750
vt 0.156299 0.468799
vt 0.187451 0.468799
vt 0.125049 0.468799
vt 0.156201 0.468799
vt 0.125049 0.496080
vt 0.125049 0.468799
vt 0.156201 0.468799
vt 0.125049 0.468799
vt 0.156201 0.468799
vt 0.156201 0.496080
vt 0.125049 0.496080
vt 0.125049 0.496080
vt 0.156201 0.496080
vt 0.156201 0.499951
vt 0.125049 0.499951
vt 0.156201 0.499951
vt 0.125049 0.499951
vt 0.125049 0.496080
vt 0.156250 0.496080
vt 0.156201 0.499951
vt 0.125049 0.499951
vt 0.187451 0.496080
vt 0.187451 0.499951
vt 0.156299 0.499951
vt 0.216797 0.466797
vt 0.216797 0.437500
vt 0.218750 0.435547
vt 0.218750 0.468750
vt 0.125000 0.494141
vt 0.216797 0.466797
vt 0.185547 0.466797
vt 0.183594 0.468750
vt 0.218750 0.468750
vn 0.0000 -1.0000 0.0000
vn 0.0000 1.0000 0.0000
vn -1.0000 0.0000 0.0000
vn 0.0000 0.0000 -1.0000
vn 1.0000 0.0000 0.0000
vn 0.0000 0.0000 1.0000
usemtl frostland_tilesheet
s off
f 11/1/1 10/2/1 20/3/1 16/4/1
f 12/5/1 9/6/1 19/7/1 18/8/1
f 6/9/2 8/10/2 17/11/2 14/12/2
f 5/13/2 6/14/2 14/15/2 13/16/2
f 5/17/2 7/18/2 8/19/2 6/20/2
f 3/21/3 2/22/3 10/2/3 11/1/3
f 4/23/4 3/24/4 11/1/4 9/25/4
f 1/26/5 4/27/5 9/6/5 12/5/5
f 2/28/6 1/29/6 12/30/6 10/31/6
f 20/32/6 18/33/6 17/34/6 15/35/6
f 18/8/5 19/7/5 14/36/5 17/37/5
f 19/38/4 16/39/4 13/40/4 14/41/4
f 16/39/3 20/42/3 15/43/3 13/44/3
f 10/31/1 12/30/1 18/33/1 20/32/1
f 8/45/2 7/46/2 15/47/2 17/48/2
f 9/25/1 11/1/1 16/4/1 19/49/1
f 7/50/2 5/51/2 13/52/2 15/53/2
