# Blender v2.93.5 OBJ File: 'Frostlands.blend'
# www.blender.org
mtllib SM_SWall_End_01.mtl
o Cube.245_export_temp_Cube.061
v 0.500000 0.500000 0.125000
v 0.500000 0.500000 -0.125000
v -0.500000 0.500000 0.125000
v -0.500000 0.500000 -0.125000
v 0.000000 0.567511 0.125000
v 0.000000 0.567511 -0.125000
v -0.500000 0.000000 0.125000
v 0.500000 0.000000 0.125000
v 0.500000 0.000000 -0.125000
v -0.500000 0.000000 -0.125000
v 0.000000 0.000000 -0.125000
v 0.000000 0.000000 0.125000
vt 0.156250 0.468750
vt 0.187451 0.468750
vt 0.187451 0.499951
vt 0.156250 0.499951
vt 0.156299 0.406250
vt 0.171826 0.406250
vt 0.171826 0.437451
vt 0.156299 0.437451
vt 0.218750 0.484424
vt 0.249951 0.484424
vt 0.249951 0.499951
vt 0.218750 0.499951
vt 0.156250 0.468750
vt 0.187451 0.468750
vt 0.187451 0.499951
vt 0.156250 0.499951
vt 0.125049 0.468750
vt 0.125049 0.499951
vt 0.187549 0.484424
vt 0.125049 0.468750
vt 0.125049 0.499951
vn 0.0000 0.0000 1.0000
vn -1.0000 0.0000 0.0000
vn 0.1338 0.9910 0.0000
vn 0.0000 0.0000 -1.0000
vn -0.1338 0.9910 0.0000
usemtl frostland_tilesheet
s off
f 12/1/1 8/2/1 1/3/1 5/4/1
f 10/5/2 7/6/2 3/7/2 4/8/2
f 5/9/3 1/10/3 2/11/3 6/12/3
f 11/13/4 10/14/4 4/15/4 6/16/4
f 9/17/4 11/13/4 6/16/4 2/18/4
f 3/19/5 5/9/5 6/12/5 4/15/5
f 7/20/1 12/1/1 5/4/1 3/21/1
