# Blender v2.93.5 OBJ File: 'Frostlands.blend'
# www.blender.org
mtllib SM_Snowman.mtl
o Cube.255_export_temp_Cube.061
v -0.421875 0.477557 0.000000
v -0.238640 0.479217 0.000000
v -0.234598 0.699446 0.000000
v -0.173864 0.000000 -0.000000
v -0.421875 0.248656 0.000000
v -0.278920 0.250828 0.000000
v -0.279883 0.188566 0.000000
v 0.421875 0.310922 0.000000
v 0.173380 0.000000 -0.000000
v 0.276799 0.152453 0.000000
v 0.275631 0.309762 0.000000
v 0.421875 0.475769 0.000000
v -0.108889 0.814759 0.000000
v 0.254484 0.503749 0.000000
v 0.242976 0.648052 0.000000
v 0.073943 0.816316 0.000000
vt 0.297573 0.197028
vt 0.262781 0.199285
vt 0.269407 0.187500
vt 0.291110 0.187500
vt 0.296179 0.218984
vt 0.297500 0.206860
vt 0.306641 0.206933
vt 0.306641 0.217236
vt 0.262841 0.203177
vt 0.253906 0.203041
vt 0.265358 0.217451
vt 0.253906 0.217347
vt 0.295459 0.228003
vt 0.265611 0.231215
vt 0.284895 0.238520
vt 0.273468 0.238422
vn -0.0000 -0.0000 1.0000
usemtl frostland_tilesheet
s off
f 10/1/1 7/2/1 4/3/1 9/4/1
f 14/5/1 11/6/1 8/7/1 12/8/1
f 11/6/1 6/9/1 7/2/1 10/1/1
f 5/10/1 6/9/1 2/11/1 1/12/1
f 2/11/1 6/9/1 11/6/1 14/5/1
f 14/5/1 15/13/1 3/14/1 2/11/1
f 3/14/1 15/13/1 16/15/1 13/16/1
