# Blender v2.93.5 OBJ File: 'Frostlands.blend'
# www.blender.org
mtllib SM_TorchUnlit.mtl
o Cylinder.026_export_temp_Cylinder.009
v 0.015625 0.195408 0.121719
v -0.015625 0.414158 0.121719
v -0.015625 0.195408 0.121719
v 0.015625 0.414158 0.121719
v 0.000000 0.388071 0.090469
v 0.000000 0.223355 0.090469
v -0.015625 0.150298 0.015625
v 0.015625 0.150298 0.015625
v 0.000000 0.181548 0.000000
v 0.000000 0.450124 0.079531
v -0.121719 0.195408 0.015625
v -0.121719 0.414158 -0.015625
v -0.121719 0.195408 -0.015625
v -0.121719 0.414158 0.015625
v -0.090469 0.388071 0.000000
v -0.090469 0.223355 0.000000
v -0.015625 0.150298 -0.015625
v -0.079531 0.450124 0.000000
v -0.015625 0.195408 -0.121719
v 0.015625 0.414158 -0.121719
v 0.015625 0.195408 -0.121719
v -0.015625 0.414158 -0.121719
v 0.000000 0.388071 -0.090469
v 0.000000 0.223355 -0.090469
v 0.015625 0.150298 -0.015625
v 0.000000 0.450124 -0.079531
v 0.121720 0.195408 -0.015625
v 0.121720 0.414158 0.015625
v 0.121720 0.195408 0.015625
v 0.121720 0.414158 -0.015625
v 0.090470 0.388071 -0.000000
v 0.090470 0.223355 -0.000000
v 0.079531 0.450124 0.000000
v -0.015625 0.087575 0.015625
v 0.015625 0.087575 0.015625
v -0.015625 0.087575 -0.015625
v 0.015625 0.087575 -0.015625
v -0.121719 0.025041 0.015625
v -0.121719 0.025041 -0.015625
v -0.015625 0.025041 0.121719
v 0.015625 0.025041 0.121719
v 0.121720 0.025041 0.015625
v 0.121720 0.025041 -0.015625
v -0.015625 0.025041 -0.121719
v 0.015625 0.025041 -0.121719
v -0.015625 0.062534 0.015625
v 0.015625 0.062534 0.015625
v -0.015625 0.062534 -0.015625
v 0.015625 0.062534 -0.015625
v -0.121719 0.000000 0.015625
v -0.121719 0.000000 -0.015625
v -0.015625 0.000000 0.121719
v 0.015625 0.000000 0.121719
v 0.121720 0.000000 0.015625
v 0.121720 0.000000 -0.015625
v -0.015625 0.000000 -0.121719
v 0.015625 0.000000 -0.121719
v 0.010938 0.267315 0.111187
v 0.110972 0.267315 0.011152
v 0.110973 0.319338 0.011152
v 0.010938 0.319338 0.111187
v -0.106125 0.267316 0.002814
v -0.015190 0.267315 0.111187
v -0.015189 0.319338 0.111187
v -0.106125 0.319338 0.002814
v -0.006090 0.267315 -0.112211
v -0.106125 0.267315 -0.012176
v -0.106125 0.319338 -0.012176
v -0.006090 0.319338 -0.112211
v 0.011724 0.267316 -0.113848
v 0.102661 0.267315 -0.005476
v 0.102661 0.319338 -0.005475
v 0.011725 0.319338 -0.113848
v -0.010550 0.224270 0.058159
v 0.043920 0.385548 -0.033700
v -0.049055 0.223665 0.034265
v 0.005414 0.384943 -0.057594
v 0.009660 0.199255 0.026225
v 0.064129 0.360534 -0.065634
v -0.028845 0.198651 0.002331
v 0.025624 0.359929 -0.089528
v -0.044303 0.211074 0.014976
v 0.010166 0.372352 -0.076883
v 0.004908 0.211847 0.045514
v 0.059377 0.373125 -0.046345
v -0.032612 0.227445 0.050652
v 0.021857 0.388723 -0.041207
v -0.006783 0.195476 0.009838
v 0.047686 0.356754 -0.082021
v 0.034772 0.372739 -0.061614
v -0.019698 0.211460 0.030245
v 0.036368 0.206285 0.042088
v -0.088815 0.350402 0.010855
v 0.032731 0.193722 -0.001304
v -0.092452 0.337839 -0.032536
v 0.070726 0.233780 0.031248
v -0.054457 0.377897 0.000015
v 0.067089 0.221217 -0.012144
v -0.058094 0.365334 -0.043377
v 0.049404 0.205723 -0.012757
v -0.075778 0.349840 -0.043989
v 0.054052 0.221779 0.042700
v -0.071130 0.365896 0.011468
v 0.029773 0.196181 0.021899
v -0.095410 0.340298 -0.009333
v 0.073684 0.231321 0.008045
v -0.051499 0.375438 -0.023188
v -0.073454 0.357868 -0.016261
v 0.051728 0.213751 0.014972
v -0.056075 0.219345 0.016607
v 0.072016 0.348781 0.081834
v -0.074870 0.251164 -0.009626
v 0.053222 0.380601 0.055600
v -0.027791 0.208311 -0.017041
v 0.100301 0.337747 0.048186
v -0.046586 0.240130 -0.043274
v 0.081506 0.369567 0.021953
v -0.063341 0.250071 -0.030097
v 0.064751 0.379507 0.035129
v -0.039320 0.209404 0.003430
v 0.088771 0.338841 0.068657
v -0.069405 0.236788 0.008168
v 0.058687 0.366225 0.073395
v -0.033256 0.222686 -0.034836
v 0.094835 0.352123 0.030391
v 0.076761 0.359174 0.051893
v -0.051330 0.229737 -0.013334
vt 0.095703 0.328125
vt 0.097656 0.330078
vt 0.097656 0.339844
vt 0.095703 0.341797
vt 0.099609 0.328125
vt 0.099609 0.341797
vt 0.095703 0.328125
vt 0.097656 0.328125
vt 0.097656 0.341797
vt 0.095703 0.341797
vt 0.095703 0.333984
vt 0.097656 0.335938
vt 0.097656 0.341797
vt 0.095703 0.341797
vt 0.099609 0.333984
vt 0.099609 0.341797
vt 0.095703 0.328125
vt 0.097656 0.328125
vt 0.097656 0.341797
vt 0.095703 0.341797
vt 0.097656 0.343750
vt 0.095703 0.343750
vt 0.097656 0.341797
vt 0.097656 0.341797
vt 0.095703 0.343750
vt 0.097656 0.343750
vt 0.095703 0.341797
vt 0.095703 0.328125
vt 0.097656 0.330078
vt 0.097656 0.339844
vt 0.095703 0.341797
vt 0.099609 0.328125
vt 0.099609 0.341797
vt 0.095703 0.328125
vt 0.097656 0.328125
vt 0.097656 0.341797
vt 0.095703 0.341797
vt 0.095703 0.332031
vt 0.097656 0.332031
vt 0.097656 0.337891
vt 0.095703 0.337891
vt 0.099609 0.333984
vt 0.099609 0.341797
vt 0.097656 0.341797
vt 0.095703 0.328125
vt 0.097656 0.328125
vt 0.097656 0.341797
vt 0.095703 0.341797
vt 0.097656 0.343750
vt 0.095703 0.343750
vt 0.097656 0.341797
vt 0.097656 0.341797
vt 0.095703 0.343750
vt 0.097656 0.343750
vt 0.095703 0.341797
vt 0.095703 0.328125
vt 0.097656 0.330078
vt 0.097656 0.339844
vt 0.095703 0.341797
vt 0.099609 0.328125
vt 0.099609 0.341797
vt 0.095703 0.328125
vt 0.097656 0.328125
vt 0.097656 0.341797
vt 0.095703 0.341797
vt 0.095703 0.333984
vt 0.097656 0.341797
vt 0.095703 0.341797
vt 0.099609 0.333984
vt 0.099609 0.341797
vt 0.095703 0.328125
vt 0.097656 0.328125
vt 0.097656 0.341797
vt 0.095703 0.341797
vt 0.097656 0.343750
vt 0.095703 0.343750
vt 0.097656 0.341797
vt 0.097656 0.341797
vt 0.095703 0.343750
vt 0.097656 0.343750
vt 0.095703 0.341797
vt 0.095703 0.328125
vt 0.097656 0.330078
vt 0.097656 0.339844
vt 0.095703 0.341797
vt 0.099609 0.328125
vt 0.099609 0.341797
vt 0.095703 0.328125
vt 0.097656 0.328125
vt 0.097656 0.341797
vt 0.095703 0.341797
vt 0.095703 0.333984
vt 0.097656 0.341797
vt 0.095703 0.341797
vt 0.095703 0.328125
vt 0.097656 0.335938
vt 0.095703 0.335938
vt 0.095703 0.328125
vt 0.097656 0.328125
vt 0.097656 0.341797
vt 0.095703 0.341797
vt 0.097656 0.343750
vt 0.095703 0.343750
vt 0.097656 0.341797
vt 0.097656 0.341797
vt 0.095703 0.343750
vt 0.097656 0.343750
vt 0.095703 0.341797
vt 0.097656 0.332031
vt 0.095703 0.332031
vt 0.095703 0.328125
vt 0.097656 0.328125
vt 0.097656 0.332031
vt 0.095703 0.332031
vt 0.095703 0.328125
vt 0.097656 0.328125
vt 0.099609 0.335938
vt 0.097656 0.335938
vt 0.097656 0.332031
vt 0.099609 0.332031
vt 0.099609 0.335938
vt 0.097656 0.335938
vt 0.097656 0.332031
vt 0.099609 0.332031
vt 0.095703 0.332031
vt 0.095703 0.337891
vt 0.097656 0.337891
vt 0.099609 0.337891
vt 0.097656 0.337891
vt 0.097656 0.332031
vt 0.099609 0.332031
vt 0.097656 0.337891
vt 0.095703 0.337891
vt 0.095703 0.332031
vt 0.097656 0.332031
vt 0.099609 0.335938
vt 0.097656 0.335938
vt 0.097656 0.330078
vt 0.099609 0.330078
vt 0.097656 0.328125
vt 0.095703 0.333984
vt 0.097656 0.333984
vt 0.097656 0.328125
vt 0.097656 0.333984
vt 0.095703 0.333984
vt 0.095703 0.328125
vt 0.097656 0.328125
vt 0.097656 0.333984
vt 0.097656 0.328125
vt 0.095703 0.328125
vt 0.095703 0.333984
vt 0.097656 0.333984
vt 0.095703 0.333984
vt 0.095703 0.328125
vt 0.097656 0.328125
vt 0.097656 0.333984
vt 0.097656 0.328125
vt 0.097656 0.333984
vt 0.097656 0.328125
vt 0.097656 0.333984
vt 0.095703 0.333984
vt 0.095703 0.328125
vt 0.095703 0.328125
vt 0.095703 0.333984
vt 0.097656 0.333984
vt 0.097656 0.328125
vt 0.097656 0.328125
vt 0.097656 0.333984
vt 0.097656 0.328125
vt 0.097656 0.333984
vt 0.097656 0.333984
vt 0.095703 0.333984
vt 0.095703 0.328125
vt 0.097656 0.328125
vt 0.095703 0.333984
vt 0.095703 0.328125
vt 0.095703 0.328125
vt 0.095703 0.330078
vt 0.097656 0.330078
vt 0.097656 0.328125
vt 0.095703 0.330078
vt 0.095703 0.328125
vt 0.097656 0.328125
vt 0.097656 0.330078
vt 0.095703 0.337891
vt 0.095703 0.335938
vt 0.097656 0.335938
vt 0.097656 0.337891
vt 0.097656 0.343750
vt 0.097656 0.341797
vt 0.099609 0.341797
vt 0.099609 0.343750
vt 0.095703 0.328125
vt 0.095703 0.330078
vt 0.097656 0.330078
vt 0.097656 0.328125
vt 0.101562 0.328125
vt 0.111328 0.328125
vt 0.111328 0.332031
vt 0.101562 0.332031
vt 0.101562 0.328125
vt 0.111328 0.328125
vt 0.111328 0.332031
vt 0.101562 0.332031
vt 0.101562 0.328125
vt 0.111328 0.328125
vt 0.111328 0.332031
vt 0.101562 0.332031
vt 0.101562 0.328125
vt 0.111328 0.328125
vt 0.111328 0.332031
vt 0.101562 0.332031
vt 0.096680 0.345703
vt 0.096680 0.367188
vt 0.099609 0.367188
vt 0.099609 0.345703
vt 0.096680 0.345703
vt 0.096680 0.365234
vt 0.093750 0.365234
vt 0.093750 0.345703
vt 0.097656 0.345703
vt 0.097656 0.365234
vt 0.101562 0.365234
vt 0.101562 0.345703
vt 0.098633 0.345703
vt 0.098633 0.367188
vt 0.101562 0.367188
vt 0.101562 0.345703
vt 0.104492 0.372070
vt 0.107422 0.372070
vt 0.107422 0.375000
vt 0.104492 0.375000
vt 0.096680 0.372070
vt 0.099609 0.372070
vt 0.099609 0.375000
vt 0.096680 0.375000
vt 0.093750 0.372070
vt 0.093750 0.375000
vt 0.101562 0.372070
vt 0.101562 0.375000
vt 0.095703 0.345703
vt 0.095703 0.367188
vt 0.099609 0.365234
vt 0.101562 0.369141
vt 0.104492 0.369141
vt 0.093750 0.369141
vt 0.096680 0.369141
vt 0.099609 0.369141
vt 0.107422 0.369141
vt 0.093750 0.345703
vt 0.093750 0.367188
vt 0.096680 0.345703
vt 0.096680 0.367188
vt 0.099609 0.367188
vt 0.099609 0.345703
vt 0.096680 0.345703
vt 0.096680 0.365234
vt 0.093750 0.365234
vt 0.093750 0.345703
vt 0.097656 0.345703
vt 0.097656 0.365234
vt 0.101562 0.365234
vt 0.101562 0.345703
vt 0.098633 0.345703
vt 0.098633 0.367188
vt 0.101562 0.367188
vt 0.101562 0.345703
vt 0.104492 0.372070
vt 0.107422 0.372070
vt 0.107422 0.375000
vt 0.104492 0.375000
vt 0.096680 0.372070
vt 0.099609 0.372070
vt 0.099609 0.375000
vt 0.096680 0.375000
vt 0.093750 0.372070
vt 0.093750 0.375000
vt 0.101562 0.372070
vt 0.101562 0.375000
vt 0.095703 0.345703
vt 0.095703 0.367188
vt 0.099609 0.365234
vt 0.101562 0.369141
vt 0.104492 0.369141
vt 0.093750 0.369141
vt 0.096680 0.369141
vt 0.099609 0.369141
vt 0.107422 0.369141
vt 0.093750 0.345703
vt 0.093750 0.367188
vt 0.096680 0.345703
vt 0.096680 0.367188
vt 0.099609 0.367188
vt 0.099609 0.345703
vt 0.096680 0.345703
vt 0.096680 0.365234
vt 0.093750 0.365234
vt 0.093750 0.345703
vt 0.097656 0.345703
vt 0.097656 0.365234
vt 0.101562 0.365234
vt 0.101562 0.345703
vt 0.098633 0.345703
vt 0.098633 0.367188
vt 0.101562 0.367188
vt 0.101562 0.345703
vt 0.104492 0.372070
vt 0.107422 0.372070
vt 0.107422 0.375000
vt 0.104492 0.375000
vt 0.096680 0.372070
vt 0.099609 0.372070
vt 0.099609 0.375000
vt 0.096680 0.375000
vt 0.093750 0.372070
vt 0.093750 0.375000
vt 0.101562 0.372070
vt 0.101562 0.375000
vt 0.095703 0.345703
vt 0.095703 0.367188
vt 0.099609 0.365234
vt 0.101562 0.369141
vt 0.104492 0.369141
vt 0.093750 0.369141
vt 0.096680 0.369141
vt 0.099609 0.369141
vt 0.107422 0.369141
vt 0.093750 0.345703
vt 0.093750 0.367188
vn 0.8944 0.0000 -0.4472
vn -0.8944 0.0000 -0.4472
vn 0.0000 0.0000 1.0000
vn 0.9195 0.3595 -0.1590
vn -0.9195 0.3595 -0.1590
vn -0.0000 -0.9203 0.3913
vn 0.9144 -0.0703 -0.3986
vn -0.9144 -0.0703 -0.3986
vn 0.0000 0.7610 0.6488
vn 0.4472 0.0000 0.8944
vn 0.4472 0.0000 -0.8944
vn -1.0000 -0.0000 0.0000
vn 0.1590 0.3595 0.9195
vn 0.1590 0.3595 -0.9195
vn -0.3913 -0.9203 0.0000
vn 0.3986 -0.0703 0.9144
vn 0.3986 -0.0703 -0.9144
vn -0.6488 0.7610 0.0000
vn -0.8944 0.0000 0.4472
vn 0.8944 0.0000 0.4472
vn 0.0000 0.0000 -1.0000
vn -0.9195 0.3595 0.1590
vn 0.9195 0.3595 0.1590
vn 0.0000 -0.9203 -0.3913
vn -0.9144 -0.0703 0.3986
vn 0.9144 -0.0703 0.3986
vn 0.0000 0.7610 -0.6488
vn -0.4472 0.0000 -0.8944
vn -0.4472 0.0000 0.8944
vn 1.0000 0.0000 0.0000
vn -0.1590 0.3595 -0.9195
vn -0.1590 0.3595 0.9195
vn 0.3913 -0.9203 0.0000
vn -0.3986 -0.0703 -0.9144
vn -0.3986 -0.0703 0.9144
vn 0.6488 0.7610 0.0000
vn -0.5078 0.8615 0.0000
vn 0.0000 0.8615 0.5078
vn 0.5078 0.8615 0.0000
vn 0.0000 0.8615 -0.5078
vn -0.5078 -0.8615 0.0000
vn 0.0000 -0.8615 0.5078
vn 0.5078 -0.8615 0.0000
vn 0.0000 -0.8615 -0.5078
vn 0.0000 -1.0000 0.0000
vn 0.7071 -0.0000 0.7071
vn -0.7660 0.0000 0.6428
vn -0.7071 0.0000 -0.7071
vn -0.6572 0.5282 0.5376
vn -0.6991 -0.1607 -0.6967
vn 0.6572 -0.5282 -0.5376
vn 0.6991 0.1607 0.6967
vn -0.2816 -0.8338 0.4749
vn 0.2816 0.8338 -0.4749
vn 0.9380 -0.1350 0.3192
vn -0.9380 0.1350 -0.3192
vn 0.2020 -0.5353 -0.8201
vn -0.2020 0.5353 0.8201
vn -0.7519 -0.6588 -0.0260
vn 0.1258 -0.1046 -0.9865
vn 0.7519 0.6588 0.0260
vn -0.1258 0.1046 0.9865
vn 0.6472 -0.7451 0.1615
vn -0.6472 0.7451 -0.1615
vn -0.6472 0.7450 -0.1615
vn 0.2804 0.4296 0.8584
vn -0.2804 -0.4296 -0.8584
vn 0.7089 0.5102 -0.4869
vn -0.7089 -0.5102 0.4869
vn -0.7124 0.4227 0.5602
vn -0.2324 0.6112 -0.7566
vn 0.7124 -0.4226 -0.5603
vn 0.2324 -0.6112 0.7566
vn -0.6622 -0.6692 -0.3372
vn 0.6622 0.6692 0.3372
vn 0.5667 -0.7417 0.3588
vn -0.5667 0.7417 -0.3588
vn 0.4902 -0.0465 -0.8704
vn -0.4902 0.0465 0.8704
usemtl frostland_tilesheet
s off
f 1/1/1 6/2/1 5/3/1 4/4/1
f 6/2/2 3/5/2 2/6/2 5/3/2
f 3/7/3 1/8/3 4/9/3 2/10/3
f 8/11/4 9/12/4 6/13/4 1/14/4
f 9/12/5 7/15/5 3/16/5 6/13/5
f 7/17/6 8/18/6 1/19/6 3/20/6
f 4/4/7 5/21/7 10/22/7
f 5/23/8 2/6/8 10/24/8
f 2/25/9 4/26/9 10/27/9
f 11/28/10 16/29/10 15/30/10 14/31/10
f 16/29/11 13/32/11 12/33/11 15/30/11
f 13/34/12 11/35/12 14/36/12 12/37/12
f 7/38/13 9/39/13 16/40/13 11/41/13
f 9/12/14 17/42/14 13/43/14 16/44/14
f 17/45/15 7/46/15 11/47/15 13/48/15
f 14/31/16 15/49/16 18/50/16
f 15/51/17 12/33/17 18/52/17
f 12/53/18 14/54/18 18/55/18
f 19/56/19 24/57/19 23/58/19 22/59/19
f 24/57/20 21/60/20 20/61/20 23/58/20
f 21/62/21 19/63/21 22/64/21 20/65/21
f 17/66/22 9/12/22 24/67/22 19/68/22
f 9/12/23 25/69/23 21/70/23 24/67/23
f 25/71/24 17/72/24 19/73/24 21/74/24
f 22/59/25 23/75/25 26/76/25
f 23/77/26 20/61/26 26/78/26
f 20/79/27 22/80/27 26/81/27
f 27/82/28 32/83/28 31/84/28 30/85/28
f 32/83/29 29/86/29 28/87/29 31/84/29
f 29/88/30 27/89/30 30/90/30 28/91/30
f 25/92/31 9/12/31 32/93/31 27/94/31
f 9/95/32 8/18/32 29/96/32 32/97/32
f 8/98/33 25/99/33 27/100/33 29/101/33
f 30/85/34 31/102/34 33/103/34
f 31/104/35 28/87/35 33/105/35
f 28/106/36 30/107/36 33/108/36
f 17/109/21 25/110/21 37/111/21 36/112/21
f 7/113/12 17/114/12 36/115/12 34/116/12
f 8/117/3 7/118/3 34/119/3 35/120/3
f 25/121/30 8/122/30 35/123/30 37/124/30
f 34/119/37 36/125/37 39/126/37 38/127/37
f 35/128/38 34/129/38 40/130/38 41/131/38
f 37/132/39 35/133/39 42/134/39 43/135/39
f 36/136/40 37/137/40 45/138/40 44/139/40
f 39/140/21 36/115/21 48/141/21 51/142/21
f 45/143/30 37/144/30 49/145/30 57/146/30
f 37/111/21 43/147/21 55/148/21 49/145/21
f 40/149/12 34/150/12 46/151/12 52/152/12
f 34/153/3 38/154/3 50/155/3 46/156/3
f 36/115/12 44/157/12 56/158/12 48/141/12
f 42/159/3 35/160/3 47/161/3 54/162/3
f 35/163/30 41/164/30 53/165/30 47/166/30
f 55/167/41 54/162/41 47/161/41 49/168/41
f 56/169/42 57/146/42 49/145/42 48/170/42
f 50/171/43 51/172/43 48/173/43 46/174/43
f 53/165/44 52/175/44 46/176/44 47/166/44
f 49/177/45 47/178/45 46/179/45 48/180/45
f 40/181/3 52/182/3 53/183/3 41/184/3
f 42/185/30 54/186/30 55/187/30 43/188/30
f 45/189/21 57/190/21 56/191/21 44/192/21
f 39/193/12 51/194/12 50/195/12 38/196/12
f 58/197/46 59/198/46 60/199/46 61/200/46
f 62/201/47 63/202/47 64/203/47 65/204/47
f 66/205/48 67/206/48 68/207/48 69/208/48
f 70/209/47 71/210/47 72/211/47 73/212/47
f 86/213/49 87/214/49 77/215/49 76/216/49
f 82/217/50 83/218/50 81/219/50 80/220/50
f 88/221/51 89/222/51 79/223/51 78/224/51
f 84/225/52 85/226/52 75/227/52 74/228/52
f 91/229/53 88/230/53 78/231/53 84/232/53
f 90/233/54 87/234/54 75/235/54 85/236/54
f 89/237/54 90/233/54 85/236/54 79/238/54
f 86/239/53 91/229/53 84/232/53 74/240/53
f 78/241/55 79/242/55 85/226/55 84/225/55
f 76/216/56 77/243/56 83/218/56 82/217/56
f 76/244/53 82/245/53 91/229/53 86/239/53
f 81/246/54 83/247/54 90/233/54 89/237/54
f 83/247/54 77/248/54 87/234/54 90/233/54
f 82/245/53 80/249/53 88/230/53 91/229/53
f 80/220/57 81/219/57 89/222/57 88/221/57
f 74/250/58 75/251/58 87/214/58 86/213/58
f 104/252/59 105/253/59 95/254/59 94/255/59
f 100/256/60 101/257/60 99/258/60 98/259/60
f 106/260/61 107/261/61 97/262/61 96/263/61
f 102/264/62 103/265/62 93/266/62 92/267/62
f 109/268/63 106/269/63 96/270/63 102/271/63
f 108/272/64 105/273/64 93/274/64 103/275/64
f 107/276/65 108/272/65 103/275/65 97/277/65
f 104/278/63 109/268/63 102/271/63 92/279/63
f 96/280/66 97/281/66 103/265/66 102/264/66
f 94/255/67 95/282/67 101/257/67 100/256/67
f 94/283/63 100/284/63 109/268/63 104/278/63
f 99/285/64 101/286/64 108/272/64 107/276/64
f 101/286/64 95/287/64 105/273/64 108/272/64
f 100/284/63 98/288/63 106/269/63 109/268/63
f 98/259/68 99/258/68 107/261/68 106/260/68
f 92/289/69 93/290/69 105/253/69 104/252/69
f 122/291/70 123/292/70 113/293/70 112/294/70
f 118/295/71 119/296/71 117/297/71 116/298/71
f 124/299/72 125/300/72 115/301/72 114/302/72
f 120/303/73 121/304/73 111/305/73 110/306/73
f 127/307/74 124/308/74 114/309/74 120/310/74
f 126/311/75 123/312/75 111/313/75 121/314/75
f 125/315/75 126/311/75 121/314/75 115/316/75
f 122/317/74 127/307/74 120/310/74 110/318/74
f 114/319/76 115/320/76 121/304/76 120/303/76
f 112/294/77 113/321/77 119/296/77 118/295/77
f 112/322/74 118/323/74 127/307/74 122/317/74
f 117/324/75 119/325/75 126/311/75 125/315/75
f 119/325/75 113/326/75 123/312/75 126/311/75
f 118/323/74 116/327/74 124/308/74 127/307/74
f 116/298/78 117/297/78 125/300/78 124/299/78
f 110/328/79 111/329/79 123/292/79 122/291/79
