# Blender v2.93.5 OBJ File: 'Frostlands.blend'
# www.blender.org
mtllib SM_Trunk_04.mtl
o Cylinder.022_export_temp_Cylinder.009
v 0.000000 0.000000 -0.139937
v 0.000000 0.257574 -0.130080
v 0.098950 0.000000 -0.098950
v 0.091980 0.257574 -0.091980
v 0.139937 0.000000 0.000000
v 0.130080 0.257574 0.000000
v 0.098950 0.000000 0.098950
v 0.091980 0.257574 0.091980
v 0.000000 0.000000 0.139937
v 0.000000 0.257574 0.130080
v -0.098950 0.000000 0.098950
v -0.091980 0.257574 0.091980
v -0.139937 0.000000 0.000000
v -0.130080 0.257574 0.000000
v -0.098950 0.000000 -0.098950
v -0.091980 0.257574 -0.091980
v 0.000000 0.105826 -0.130080
v 0.091980 0.105826 -0.091980
v 0.130080 0.105826 0.000000
v 0.091980 0.105826 0.091980
v 0.000000 0.105826 0.130080
v -0.091980 0.105826 0.091980
v -0.130080 0.105826 0.000000
v -0.091980 0.105826 -0.091980
vt 0.023438 0.193359
vt 0.023438 0.207031
vt 0.015625 0.207031
vt 0.015625 0.193359
vt 0.023438 0.193359
vt 0.023438 0.207031
vt 0.015625 0.207031
vt 0.015625 0.193359
vt 0.023438 0.193359
vt 0.023438 0.207031
vt 0.015625 0.207031
vt 0.015625 0.193359
vt 0.023438 0.193359
vt 0.023438 0.207031
vt 0.015625 0.207031
vt 0.015625 0.193359
vt 0.023438 0.193359
vt 0.023438 0.207031
vt 0.015625 0.207031
vt 0.015625 0.193359
vt 0.023438 0.193359
vt 0.023438 0.207031
vt 0.015625 0.207031
vt 0.015625 0.193359
vt 0.025391 0.269531
vt 0.019531 0.275391
vt 0.011719 0.275391
vt 0.005859 0.269531
vt 0.005859 0.261719
vt 0.011719 0.255859
vt 0.019531 0.255859
vt 0.025391 0.261719
vt 0.023438 0.193359
vt 0.023438 0.207031
vt 0.015625 0.207031
vt 0.015625 0.193359
vt 0.023438 0.193359
vt 0.023438 0.207031
vt 0.015625 0.207031
vt 0.015625 0.193359
vt 0.029297 0.187500
vt 0.029297 0.193359
vt 0.021484 0.193359
vt 0.021484 0.187500
vt 0.025391 0.187500
vt 0.025391 0.193359
vt 0.017578 0.193359
vt 0.017578 0.187500
vt 0.031250 0.187500
vt 0.031250 0.193359
vt 0.023438 0.187500
vt 0.029297 0.187500
vt 0.029297 0.193359
vt 0.021484 0.193359
vt 0.021484 0.187500
vt 0.023438 0.187500
vt 0.015625 0.187500
vt 0.027344 0.187500
vt 0.027344 0.193359
vt 0.019531 0.193359
vt 0.019531 0.187500
vt 0.029297 0.187500
vt 0.029297 0.193359
vt 0.021484 0.193359
vt 0.021484 0.187500
vt 0.027344 0.187500
vt 0.027344 0.193359
vt 0.019531 0.193359
vt 0.019531 0.187500
vn 0.3827 0.0000 -0.9239
vn 0.9239 0.0000 -0.3827
vn 0.9239 0.0000 0.3827
vn 0.3827 0.0000 0.9239
vn -0.3827 0.0000 0.9239
vn -0.9239 0.0000 0.3827
vn 0.0000 1.0000 -0.0000
vn -0.9239 0.0000 -0.3827
vn -0.3827 0.0000 -0.9239
vn -0.3813 0.0857 -0.9205
vn -0.9205 0.0857 -0.3813
vn -0.9205 0.0857 0.3813
vn -0.3813 0.0857 0.9205
vn 0.3813 0.0857 0.9205
vn 0.9205 0.0857 0.3813
vn 0.9205 0.0857 -0.3813
vn 0.3813 0.0857 -0.9205
usemtl frostland_tilesheet
s off
f 17/1/1 2/2/1 4/3/1 18/4/1
f 18/5/2 4/6/2 6/7/2 19/8/2
f 19/9/3 6/10/3 8/11/3 20/12/3
f 20/13/4 8/14/4 10/15/4 21/16/4
f 21/17/5 10/18/5 12/19/5 22/20/5
f 22/21/6 12/22/6 14/23/6 23/24/6
f 4/25/7 2/26/7 16/27/7 14/28/7 12/29/7 10/30/7 8/31/7 6/32/7
f 23/33/8 14/34/8 16/35/8 24/36/8
f 24/37/9 16/38/9 2/39/9 17/40/9
f 15/41/10 24/42/10 17/43/10 1/44/10
f 13/45/11 23/46/11 24/47/11 15/48/11
f 11/49/12 22/50/12 23/33/12 13/51/12
f 9/52/13 21/53/13 22/54/13 11/55/13
f 7/56/14 20/13/14 21/16/14 9/57/14
f 5/58/15 19/59/15 20/60/15 7/61/15
f 3/62/16 18/63/16 19/64/16 5/65/16
f 1/66/17 17/67/17 18/68/17 3/69/17
