# Blender v2.93.5 OBJ File: 'Frostlands.blend'
# www.blender.org
mtllib SM_Trunk_02.mtl
o Cylinder.021_export_temp_Cylinder.009
v 0.000000 0.000000 -0.340165
v 0.000000 0.347939 -0.316204
v 0.240533 0.000000 -0.240533
v 0.223590 0.347939 -0.223590
v 0.340165 0.000000 0.000000
v 0.316204 0.347939 0.000000
v 0.240533 0.000000 0.240533
v 0.223590 0.347939 0.223590
v 0.000000 0.000000 0.340165
v 0.000000 0.347939 0.316204
v -0.240533 0.000000 0.240533
v -0.223590 0.347939 0.223590
v -0.340165 0.000000 0.000000
v -0.316204 0.347939 0.000000
v -0.240533 0.000000 -0.240533
v -0.223590 0.347939 -0.223590
v 0.000000 0.105826 -0.316204
v 0.223590 0.105826 -0.223590
v 0.316204 0.105826 0.000000
v 0.223590 0.105826 0.223590
v 0.000000 0.105826 0.316204
v -0.223590 0.105826 0.223590
v -0.316204 0.105826 0.000000
v -0.223590 0.105826 -0.223590
vt 0.031250 0.193359
vt 0.031250 0.207031
vt 0.015625 0.207031
vt 0.015625 0.193359
vt 0.031250 0.193359
vt 0.031250 0.207031
vt 0.015625 0.207031
vt 0.015625 0.193359
vt 0.031250 0.193359
vt 0.031250 0.207031
vt 0.015625 0.207031
vt 0.015625 0.193359
vt 0.031250 0.193359
vt 0.031250 0.207031
vt 0.015625 0.207031
vt 0.015625 0.193359
vt 0.031250 0.193359
vt 0.031250 0.207031
vt 0.015625 0.207031
vt 0.015625 0.193359
vt 0.031250 0.193359
vt 0.031250 0.207031
vt 0.015625 0.207031
vt 0.015625 0.193359
vt 0.031250 0.271484
vt 0.021484 0.281250
vt 0.009766 0.281250
vt 0.000000 0.271484
vt 0.000000 0.259766
vt 0.009766 0.250000
vt 0.021484 0.250000
vt 0.031250 0.259766
vt 0.031250 0.193359
vt 0.031250 0.207031
vt 0.015625 0.207031
vt 0.015625 0.193359
vt 0.031250 0.193359
vt 0.031250 0.207031
vt 0.015625 0.207031
vt 0.015625 0.193359
vt 0.031250 0.187500
vt 0.015625 0.187500
vt 0.031250 0.187500
vt 0.015625 0.187500
vt 0.031250 0.187500
vt 0.015625 0.187500
vt 0.031250 0.187500
vt 0.015625 0.187500
vt 0.031250 0.187500
vt 0.015625 0.187500
vt 0.031250 0.187500
vt 0.015625 0.187500
vt 0.031250 0.187500
vt 0.015625 0.187500
vt 0.031250 0.187500
vt 0.015625 0.187500
vn 0.3827 0.0000 -0.9239
vn 0.9239 0.0000 -0.3827
vn 0.9239 0.0000 0.3827
vn 0.3827 0.0000 0.9239
vn -0.3827 0.0000 0.9239
vn -0.9239 0.0000 0.3827
vn 0.0000 1.0000 -0.0000
vn -0.9239 0.0000 -0.3827
vn -0.3827 0.0000 -0.9239
vn -0.3746 0.2048 -0.9043
vn -0.9043 0.2048 -0.3746
vn -0.9043 0.2048 0.3746
vn -0.3746 0.2048 0.9043
vn 0.3746 0.2048 0.9043
vn 0.9043 0.2048 0.3746
vn 0.9043 0.2048 -0.3746
vn 0.3746 0.2048 -0.9043
usemtl frostland_tilesheet
s off
f 17/1/1 2/2/1 4/3/1 18/4/1
f 18/5/2 4/6/2 6/7/2 19/8/2
f 19/9/3 6/10/3 8/11/3 20/12/3
f 20/13/4 8/14/4 10/15/4 21/16/4
f 21/17/5 10/18/5 12/19/5 22/20/5
f 22/21/6 12/22/6 14/23/6 23/24/6
f 4/25/7 2/26/7 16/27/7 14/28/7 12/29/7 10/30/7 8/31/7 6/32/7
f 23/33/8 14/34/8 16/35/8 24/36/8
f 24/37/9 16/38/9 2/39/9 17/40/9
f 15/41/10 24/37/10 17/40/10 1/42/10
f 13/43/11 23/33/11 24/36/11 15/44/11
f 11/45/12 22/21/12 23/24/12 13/46/12
f 9/47/13 21/17/13 22/20/13 11/48/13
f 7/49/14 20/13/14 21/16/14 9/50/14
f 5/51/15 19/9/15 20/12/15 7/52/15
f 3/53/16 18/5/16 19/8/16 5/54/16
f 1/55/17 17/1/17 18/4/17 3/56/17
