# Blender v2.93.5 OBJ File: 'Frostlands.blend'
# www.blender.org
mtllib SM_SIce_Cliff_Corner_02.mtl
o Cube.038_export_temp_Cube.061
v -0.750000 0.049865 0.576159
v 0.250000 0.049865 0.580792
v 0.250000 0.131935 0.478475
v -0.750000 0.131935 0.478475
v 0.250000 0.851294 0.478475
v -0.750000 0.851294 0.478475
v -0.750000 0.000112 0.750000
v 0.250000 0.000112 0.750000
v 0.411555 1.851182 0.411555
v 0.478474 1.851294 0.250000
v 0.388550 1.939759 0.250000
v 0.347970 1.939647 0.347673
v 0.250000 2.000112 0.250000
v 0.250000 1.851294 0.478475
v 0.250000 1.939759 0.388551
v 0.388550 1.939759 -0.750000
v 0.250000 2.000112 -0.750000
v 0.478474 1.851294 -0.750000
v -0.750000 1.939759 0.388552
v -0.750000 2.000112 0.250000
v -0.750000 1.851294 0.478475
v 0.576159 0.049865 0.250000
v 0.580792 0.049865 -0.750000
v 0.478474 0.131935 -0.750000
v 0.478474 0.131935 0.250000
v 0.478474 0.851294 -0.750000
v 0.478474 0.851294 0.250000
v 0.750000 0.000112 0.250000
v 0.750000 0.000112 -0.750000
v 0.411555 0.131823 0.411258
v 0.411555 0.851182 0.411258
v 0.483905 0.049754 0.483608
v 0.603553 0.000000 0.603553
v 0.603553 0.000000 0.603256
vt 0.937500 0.476562
vt 1.000000 0.476562
vt 1.000000 0.484375
vt 0.937500 0.484375
vt 0.937500 0.500000
vt 1.000000 0.500000
vt 1.000000 0.562500
vt 0.937500 0.562500
vt 1.000000 0.468750
vt 0.937500 0.468750
vt 0.937500 0.476562
vt 1.000000 0.476562
vt 1.000000 0.486328
vt 0.988281 0.486328
vt 0.990234 0.492188
vt 1.000000 0.492188
vt 0.996094 0.500000
vt 0.992188 0.492188
vt 1.000000 0.492188
vt 0.937500 0.484375
vt 0.951172 0.484375
vt 0.949219 0.492188
vt 0.937500 0.492188
vt 0.943359 0.500000
vt 0.937500 0.492188
vt 1.000000 0.492188
vt 1.000000 0.500000
vt 0.937500 0.500000
vt 1.000000 0.484375
vt 0.937500 0.484375
vt 0.937500 0.492188
vt 0.937500 0.492188
vt 1.000000 0.492188
vt 1.000000 0.500000
vt 0.937500 0.500000
vt 0.937500 0.484375
vt 1.000000 0.484375
vt 0.937500 0.476562
vt 1.000000 0.476562
vt 1.000000 0.484375
vt 0.937500 0.484375
vt 0.937500 0.500000
vt 1.000000 0.500000
vt 1.000000 0.562500
vt 0.937500 0.562500
vt 1.000000 0.468750
vt 0.937500 0.468750
vt 0.937500 0.476562
vt 1.000000 0.476562
vt 0.937500 0.500000
vt 0.951172 0.500000
vt 0.951172 0.562500
vt 0.937500 0.562500
vt 0.955078 0.476562
vt 0.951172 0.484375
vt 0.941406 0.484375
vt 0.941406 0.468750
vt 0.960938 0.468750
vt 0.958984 0.476562
vt 0.943359 0.476562
vt 0.990234 0.500000
vt 1.000000 0.500000
vt 1.000000 0.562500
vt 0.990234 0.562500
vt 0.980469 0.478516
vt 1.000000 0.478516
vt 0.996094 0.486328
vt 0.984375 0.486328
vt 0.941406 0.468750
vt 0.964844 0.468750
vt 0.960938 0.476562
vt 0.945312 0.476562
vt 1.000000 0.562500
vt 0.990234 0.562500
vt 0.990234 0.500000
vt 1.000000 0.500000
vt 0.951172 0.562500
vt 0.937500 0.562500
vt 0.937500 0.500000
vt 0.951172 0.500000
vt 0.937500 0.500000
vt 1.000000 0.500000
vt 1.000000 0.562500
vt 0.937500 0.562500
vt 0.937500 0.500000
vt 1.000000 0.500000
vt 1.000000 0.562500
vt 0.937500 0.562500
vn -0.0011 0.8845 0.4665
vn 0.0875 0.8925 0.4424
vn 0.1825 0.4470 0.8757
vn -0.0008 0.4276 0.9040
vn 0.1957 -0.0000 0.9807
vn 0.0000 0.0000 1.0000
vn -0.0006 0.9604 0.2786
vn 0.0500 0.9588 0.2796
vn 0.6607 0.3563 0.6607
vn 0.9134 0.3670 0.1762
vn 0.5700 0.8131 0.1183
vn 0.4171 0.8079 0.4164
vn 0.2324 0.9444 0.2325
vn 0.1764 0.3671 0.9133
vn 0.1186 0.8131 0.5699
vn 0.5597 0.8287 0.0000
vn 0.3994 0.9168 0.0000
vn 0.9223 0.3865 0.0000
vn -0.0000 0.8287 0.5597
vn -0.0000 0.9168 0.3994
vn 0.0000 0.3865 0.9223
vn 0.4455 0.8910 0.0874
vn 0.4655 0.8850 0.0011
vn 0.9040 0.4276 0.0008
vn 0.8778 0.4433 0.1816
vn 1.0000 0.0000 0.0000
vn 0.9807 -0.0000 0.1953
vn 0.2785 0.9592 0.0493
vn 0.2786 0.9604 0.0006
vn 0.6238 0.4773 0.6190
vn 0.7074 -0.0001 0.7068
vn 0.3003 0.9062 0.2976
vn 0.1164 0.9530 0.2798
vn 0.2773 0.9541 0.1132
usemtl frostland_tilesheet
s 1
f 1/1/1 2/2/2 3/3/3 4/4/4
f 4/5/4 3/6/3 5/7/5 6/8/6
f 7/9/7 8/10/8 2/11/2 1/12/1
f 9/13/9 10/14/10 11/15/11 12/16/12
f 13/17/13 12/18/12 11/19/11
f 14/20/14 9/21/9 12/22/12 15/23/15
f 13/24/13 15/23/15 12/22/12
f 11/25/11 16/26/16 17/27/17 13/28/13
f 10/29/10 18/30/18 16/31/16 11/19/11
f 19/32/19 15/33/15 13/34/13 20/35/20
f 21/36/21 14/37/14 15/33/15 19/32/19
f 22/38/22 23/39/23 24/40/24 25/41/25
f 25/42/25 24/43/24 26/44/26 27/45/27
f 28/46/28 29/47/29 23/48/23 22/49/22
f 3/50/3 30/51/30 31/52/31 5/53/5
f 2/11/2 32/54/32 30/55/30 3/56/3
f 8/57/8 33/58/33 32/59/32 2/60/2
f 30/61/30 25/62/25 27/63/27 31/64/31
f 32/65/32 22/66/22 25/67/25 30/68/30
f 34/69/34 28/70/28 22/71/22 32/72/32
f 10/73/10 9/74/9 31/75/31 27/76/27
f 9/77/9 14/78/14 5/79/5 31/80/31
f 27/81/27 26/82/26 18/83/18 10/84/10
f 6/85/6 5/86/5 14/87/14 21/88/21
