# Blender v2.93.5 OBJ File: 'Frostlands.blend'
# www.blender.org
mtllib SM_LDirt_Cliff_Corner_07.mtl
o Cube.047_export_temp_Cube.061
v -1.249851 0.049865 1.076160
v -0.249851 0.049865 1.080791
v -0.249851 0.131935 0.978474
v -1.249851 0.131935 0.978474
v -0.249851 0.971760 0.978474
v -1.249851 0.971871 0.978474
v -1.249851 0.000112 1.250000
v -0.249851 0.000112 1.250000
v 0.103702 0.000000 1.103554
v 0.603554 0.000000 0.603405
v 0.480630 0.049754 0.480480
v -0.019222 0.049754 0.980629
v -0.088296 0.131823 0.911556
v 0.411555 0.131823 0.411407
v 0.411555 0.971760 0.411407
v -0.088297 0.971760 0.911556
v 1.103405 0.000000 0.103256
v 0.983757 0.049754 -0.016392
v 0.911407 0.131823 -0.088741
v 0.911407 0.971760 -0.088741
v 1.076011 0.049865 -0.250000
v 1.080644 0.049865 -1.250000
v 0.978326 0.131935 -1.250000
v 0.978326 0.131935 -0.250000
v 0.978325 0.971871 -1.250000
v 0.978326 0.971871 -0.250000
v 1.249851 0.000112 -0.250000
v 1.249851 0.000112 -1.250000
v 0.978325 1.851294 -0.250000
v 0.911407 1.851182 -0.088741
v -0.088297 1.851182 0.911556
v -0.249851 1.851294 0.978474
v -1.249852 1.851294 0.978474
v -0.249851 1.939759 0.888550
v -1.249852 1.939759 0.888550
v -0.249851 2.000000 0.750000
v -1.249852 2.000112 0.750000
v -0.151881 1.939647 0.847969
v 0.347970 1.939647 0.347820
v 0.250000 2.000000 0.249851
v 0.411555 1.851182 0.411407
v 0.847821 1.939647 -0.152328
v 0.749851 2.000000 -0.250298
v 0.978325 1.851294 -1.250000
v 0.888402 1.939759 -1.250000
v 0.888402 1.939759 -0.250000
v 0.749851 2.000112 -1.250000
vt 0.937500 0.576172
vt 1.000000 0.576172
vt 1.000000 0.583984
vt 0.937500 0.583984
vt 0.937500 0.562500
vt 1.000000 0.562500
vt 1.000000 0.625000
vt 0.937500 0.625000
vt 0.937500 0.500000
vt 0.875000 0.500000
vt 0.875000 0.509766
vt 0.937500 0.509766
vt 0.937500 0.500000
vt 0.875000 0.500000
vt 0.875000 0.509766
vt 0.937500 0.509766
vt 0.937500 0.562500
vt 1.000000 0.562500
vt 1.000000 0.625000
vt 0.937500 0.625000
vt 0.937500 0.576172
vt 1.000000 0.576172
vt 1.000000 0.583984
vt 0.937500 0.583984
vt 0.937500 0.500000
vt 0.875000 0.500000
vt 0.875000 0.509766
vt 0.937500 0.509766
vt 0.937500 0.562500
vt 1.000000 0.562500
vt 1.000000 0.625000
vt 0.937500 0.625000
vt 0.937500 0.576172
vt 1.000000 0.576172
vt 1.000000 0.583984
vt 0.937500 0.583984
vt 0.937500 0.576172
vt 1.000000 0.576172
vt 1.000000 0.583984
vt 0.937500 0.583984
vt 0.937500 0.562500
vt 1.000000 0.562500
vt 1.000000 0.625000
vt 0.937500 0.625000
vt 0.937500 0.500000
vt 0.875000 0.500000
vt 0.875000 0.509766
vt 0.937500 0.509766
vt 0.955078 0.562500
vt 0.968750 0.562500
vt 0.968750 0.625000
vt 0.955078 0.625000
vt 0.962891 0.562500
vt 0.980469 0.562500
vt 0.980469 0.625000
vt 0.962891 0.625000
vt 0.962891 0.562500
vt 0.980469 0.562500
vt 0.980469 0.625000
vt 0.962891 0.625000
vt 0.962891 0.576172
vt 0.982422 0.576172
vt 0.978516 0.583984
vt 0.966797 0.583984
vt 0.894531 0.500000
vt 0.925781 0.500000
vt 0.921875 0.509766
vt 0.898438 0.509766
vt 0.955078 0.562500
vt 0.968750 0.562500
vt 0.968750 0.625000
vt 0.955078 0.625000
vt 0.962891 0.576172
vt 0.982422 0.576172
vt 0.978516 0.583984
vt 0.966797 0.583984
vt 0.894531 0.500000
vt 0.925781 0.500000
vt 0.921875 0.509766
vt 0.898438 0.509766
vt 1.000000 0.583984
vt 0.937500 0.583984
vt 0.937500 0.591797
vt 1.000000 0.591797
vt 0.875000 0.523438
vt 0.937500 0.523438
vt 0.937500 0.531250
vt 0.875000 0.531250
vt 0.875000 0.523438
vt 0.937500 0.523438
vt 0.937500 0.531250
vt 0.875000 0.531250
vt 1.000000 0.583984
vt 0.937500 0.583984
vt 0.937500 0.591797
vt 1.000000 0.591797
vt 0.875000 0.523438
vt 0.937500 0.523438
vt 0.937500 0.531250
vt 0.875000 0.531250
vt 1.000000 0.583984
vt 0.937500 0.583984
vt 0.937500 0.591797
vt 1.000000 0.591797
vt 1.000000 0.583984
vt 0.937500 0.583984
vt 0.937500 0.591797
vt 1.000000 0.591797
vt 0.875000 0.523438
vt 0.937500 0.523438
vt 0.937500 0.531250
vt 0.875000 0.531250
vt 0.912109 0.531250
vt 0.904297 0.521484
vt 0.919922 0.521484
vt 0.962891 0.585938
vt 0.972656 0.585938
vt 0.972656 0.591797
vt 0.962891 0.591797
vt 0.912109 0.531250
vt 0.904297 0.521484
vt 0.919922 0.521484
vt 0.972656 0.585938
vt 0.962891 0.585938
vt 0.962891 0.591797
vt 0.972656 0.591797
vt 0.937500 0.562500
vt 1.000000 0.562500
vt 1.000000 0.625000
vt 0.937500 0.625000
vt 0.937500 0.562500
vt 1.000000 0.562500
vt 1.000000 0.625000
vt 0.937500 0.625000
vt 0.937500 0.562500
vt 1.000000 0.562500
vt 1.000000 0.625000
vt 0.937500 0.625000
vt 0.937500 0.562500
vt 1.000000 0.562500
vt 1.000000 0.625000
vt 0.937500 0.625000
vn -0.0011 0.8845 0.4665
vn 0.0892 0.8926 0.4420
vn 0.1846 0.4440 0.8768
vn -0.0008 0.4276 0.9040
vn 0.1951 0.0000 0.9808
vn -0.0000 0.0000 1.0000
vn -0.0006 0.9604 0.2786
vn 0.0502 0.9593 0.2779
vn 0.1613 0.9597 0.2300
vn 0.1955 0.9609 0.1960
vn 0.3305 0.8837 0.3314
vn 0.2551 0.8903 0.3773
vn 0.4942 0.4410 0.7492
vn 0.6399 0.4249 0.6403
vn 0.7073 0.0000 0.7069
vn 0.5557 0.0000 0.8314
vn 0.2318 0.9593 0.1614
vn 0.3753 0.8926 0.2500
vn 0.7502 0.4441 0.4899
vn 0.8314 0.0000 0.5557
vn 0.4455 0.8910 0.0874
vn 0.4655 0.8850 0.0011
vn 0.9040 0.4276 0.0008
vn 0.8778 0.4433 0.1816
vn 1.0000 0.0000 -0.0000
vn 0.9807 0.0000 0.1954
vn 0.2785 0.9592 0.0493
vn 0.2786 0.9604 0.0006
vn 0.9134 0.3669 0.1764
vn 0.7702 0.3668 0.5218
vn 0.5217 0.3667 0.7703
vn 0.1761 0.3669 0.9134
vn -0.0000 0.3865 0.9223
vn 0.1181 0.8132 0.5699
vn 0.0000 0.8288 0.5596
vn 0.1469 0.9237 0.3539
vn 0.0001 0.9169 0.3990
vn 0.3202 0.8131 0.4862
vn 0.3959 0.8287 0.3956
vn 0.2825 0.9168 0.2823
vn 0.6524 0.3865 0.6520
vn 0.4861 0.8131 0.3203
vn 0.3539 0.9237 0.1468
vn 0.9223 0.3865 -0.0000
vn 0.5596 0.8288 0.0000
vn 0.5698 0.8132 0.1184
vn 0.3990 0.9169 0.0001
usemtl frostland_tilesheet
s 1
f 1/1/1 2/2/2 3/3/3 4/4/4
f 4/5/4 3/6/3 5/7/5 6/8/6
f 7/9/7 8/10/8 2/11/2 1/12/1
f 9/13/9 10/14/10 11/15/11 12/16/12
f 13/17/13 14/18/14 15/19/15 16/20/16
f 12/21/12 11/22/11 14/23/14 13/24/13
f 10/25/10 17/26/17 18/27/18 11/28/11
f 14/29/14 19/30/19 20/31/20 15/32/15
f 11/33/11 18/34/18 19/35/19 14/36/14
f 21/37/21 22/38/22 23/39/23 24/40/24
f 24/41/24 23/42/23 25/43/25 26/44/26
f 27/45/27 28/46/28 22/47/22 21/48/21
f 20/49/20 26/50/26 29/51/29 30/52/30
f 5/53/5 16/54/16 31/55/31 32/56/32
f 3/57/3 13/58/13 16/59/16 5/60/5
f 2/61/2 12/62/12 13/63/13 3/64/3
f 8/65/8 9/66/9 12/67/12 2/68/2
f 19/69/19 24/70/24 26/71/26 20/72/20
f 18/73/18 21/74/21 24/75/24 19/76/19
f 17/77/17 27/78/27 21/79/21 18/80/18
f 33/81/33 32/82/32 34/83/34 35/84/35
f 35/85/35 34/86/34 36/87/36 37/88/37
f 38/89/38 39/90/39 40/91/40 36/92/36
f 31/93/31 41/94/41 39/95/39 38/96/38
f 39/97/39 42/98/42 43/99/43 40/100/40
f 41/101/41 30/102/30 42/103/42 39/104/39
f 29/105/29 44/106/44 45/107/45 46/108/46
f 46/109/46 45/110/45 47/111/47 43/112/43
f 36/113/36 34/114/34 38/115/38
f 32/116/32 31/117/31 38/118/38 34/119/34
f 43/120/43 42/121/42 46/122/46
f 30/123/30 29/124/29 46/125/46 42/126/42
f 26/127/26 25/128/25 44/129/44 29/130/29
f 15/131/15 20/132/20 30/133/30 41/134/41
f 16/135/16 15/136/15 41/137/41 31/138/31
f 6/139/6 5/140/5 32/141/32 33/142/33
