# Blender v2.93.5 OBJ File: 'Frostlands.blend'
# www.blender.org
mtllib SM_SSnow_Cliff_Corner_01.mtl
o Cube.004_export_temp_Cube.061
v -0.750000 0.049865 0.576160
v 0.250000 0.049865 0.580791
v 0.250000 0.131935 0.478474
v -0.750000 0.131935 0.478474
v -0.750000 0.000112 0.750000
v 0.250000 0.000112 0.750000
v 0.411554 1.131823 0.411556
v 0.478474 1.131935 0.250000
v 0.388550 1.220400 0.250000
v 0.347969 1.220288 0.347672
v 0.250000 1.280753 0.250000
v 0.250000 1.131935 0.478474
v 0.250000 1.220400 0.388550
v 0.388550 1.220400 -0.750000
v 0.250000 1.280753 -0.750000
v 0.478474 1.131935 -0.750000
v -0.750000 1.220400 0.388550
v -0.750000 1.280753 0.250000
v -0.750000 1.131935 0.478474
v 0.576159 0.049865 0.250000
v 0.580791 0.049865 -0.750000
v 0.478474 0.131935 0.250000
v 0.478474 0.131935 -0.750000
v 0.750000 0.000112 0.250000
v 0.750000 0.000112 -0.750000
v 0.411554 0.131823 0.411259
v 0.483906 0.049754 0.483608
v 0.603554 0.000000 0.603554
v 0.603554 0.000000 0.603256
vt 0.875000 0.539062
vt 0.937500 0.539062
vt 0.937500 0.546875
vt 0.875000 0.546875
vt 0.937500 0.531250
vt 0.875000 0.531250
vt 0.875000 0.539062
vt 0.937500 0.539062
vt 0.937500 0.548828
vt 0.925781 0.548828
vt 0.927734 0.554688
vt 0.937500 0.554688
vt 0.933594 0.562500
vt 0.929688 0.554688
vt 0.937500 0.554688
vt 0.875000 0.546875
vt 0.888672 0.546875
vt 0.886719 0.554688
vt 0.875000 0.554688
vt 0.880859 0.562500
vt 0.875000 0.554688
vt 0.937500 0.554688
vt 0.937500 0.562500
vt 0.875000 0.562500
vt 0.937500 0.546875
vt 0.875000 0.546875
vt 0.875000 0.554688
vt 0.875000 0.554688
vt 0.937500 0.554688
vt 0.937500 0.562500
vt 0.875000 0.562500
vt 0.875000 0.546875
vt 0.937500 0.546875
vt 0.875000 0.539062
vt 0.937500 0.539062
vt 0.937500 0.546875
vt 0.875000 0.546875
vt 0.937500 0.531250
vt 0.875000 0.531250
vt 0.875000 0.539062
vt 0.937500 0.539062
vt 0.892578 0.539062
vt 0.888672 0.546875
vt 0.878906 0.546875
vt 0.878906 0.531250
vt 0.898438 0.531250
vt 0.896484 0.539062
vt 0.880859 0.539062
vt 0.917969 0.541016
vt 0.937500 0.541016
vt 0.933594 0.548828
vt 0.921875 0.548828
vt 0.878906 0.531250
vt 0.902344 0.531250
vt 0.898438 0.539062
vt 0.882812 0.539062
vt 0.937500 0.625000
vt 0.927734 0.625000
vt 0.927734 0.562500
vt 0.937500 0.562500
vt 0.888672 0.625000
vt 0.875000 0.625000
vt 0.875000 0.562500
vt 0.888672 0.562500
vt 0.875000 0.562500
vt 0.937500 0.562500
vt 0.937500 0.625000
vt 0.875000 0.625000
vt 0.875000 0.562500
vt 0.937500 0.562500
vt 0.937500 0.625000
vt 0.875000 0.625000
vn -0.0011 0.8845 0.4665
vn 0.0875 0.8925 0.4424
vn 0.1961 0.1367 0.9710
vn -0.0007 0.1303 0.9915
vn -0.0006 0.9604 0.2786
vn 0.0500 0.9588 0.2796
vn 0.6607 0.3563 0.6607
vn 0.9134 0.3670 0.1762
vn 0.5700 0.8131 0.1183
vn 0.4171 0.8079 0.4164
vn 0.2324 0.9444 0.2325
vn 0.1764 0.3671 0.9133
vn 0.1186 0.8131 0.5699
vn 0.5597 0.8287 0.0000
vn 0.3994 0.9168 0.0000
vn 0.9223 0.3865 0.0000
vn -0.0000 0.8287 0.5597
vn -0.0000 0.9168 0.3994
vn -0.0000 0.3865 0.9223
vn 0.4455 0.8910 0.0874
vn 0.4655 0.8850 0.0011
vn 0.9915 0.1303 0.0002
vn 0.9713 0.1355 0.1955
vn 0.2785 0.9592 0.0493
vn 0.2786 0.9604 0.0006
vn 0.3003 0.9062 0.2976
vn 0.7003 0.1470 0.6985
vn 0.1164 0.9530 0.2798
vn 0.2773 0.9541 0.1132
usemtl frostland_tilesheet
s 1
f 1/1/1 2/2/2 3/3/3 4/4/4
f 5/5/5 6/6/6 2/7/2 1/8/1
f 7/9/7 8/10/8 9/11/9 10/12/10
f 11/13/11 10/14/10 9/15/9
f 12/16/12 7/17/7 10/18/10 13/19/13
f 11/20/11 13/19/13 10/18/10
f 9/21/9 14/22/14 15/23/15 11/24/11
f 8/25/8 16/26/16 14/27/14 9/15/9
f 17/28/17 13/29/13 11/30/11 18/31/18
f 19/32/19 12/33/12 13/29/13 17/28/17
f 20/34/20 21/35/21 23/36/22 22/37/23
f 24/38/24 25/39/25 21/40/21 20/41/20
f 2/7/2 27/42/26 26/43/27 3/44/3
f 6/45/6 28/46/28 27/47/26 2/48/2
f 27/49/26 20/50/20 22/51/23 26/52/27
f 29/53/29 24/54/24 20/55/20 27/56/26
f 8/57/8 7/58/7 26/59/27 22/60/23
f 7/61/7 12/62/12 3/63/3 26/64/27
f 22/65/23 23/66/22 16/67/16 8/68/8
f 4/69/4 3/70/3 12/71/12 19/72/19
