# Blender v2.93.5 OBJ File: 'Frostlands.blend'
# www.blender.org
mtllib SM_SIce_Cliff_Corner_04.mtl
o Cube.003_export_temp_Cube.061
v -0.396298 0.000000 0.603703
v 0.103554 0.000000 0.103554
v -0.016094 0.049754 -0.016094
v -0.519222 0.049754 0.480778
v -0.588296 0.131823 0.411705
v -0.088445 0.131823 -0.088444
v 0.603405 0.000000 -0.396595
v 0.483757 0.049754 -0.516243
v 0.411407 0.131823 -0.588593
v 0.478325 1.016061 -0.749851
v 0.411407 1.015949 -0.588593
v -0.588297 1.015949 0.411705
v -0.749851 1.016061 0.478622
v -0.749851 0.131935 0.478622
v -0.749851 0.049865 0.580940
v -0.749851 0.000112 0.750149
v 0.478326 0.131935 -0.749851
v 0.576011 0.049865 -0.749851
v 0.749851 0.000112 -0.749851
v -0.651881 1.104414 0.348118
v -0.152030 1.104414 -0.152031
v -0.250000 1.164767 -0.250000
v -0.749851 1.164767 0.250149
v -0.088445 1.015949 -0.088444
v 0.347821 1.104414 -0.652180
v 0.249851 1.164767 -0.750149
v -0.749851 1.104526 0.388699
v 0.388402 1.104526 -0.749851
vt 0.937500 0.468750
vt 1.000000 0.468750
vt 1.000000 0.480469
vt 0.937500 0.480469
vt 0.937500 0.478516
vt 1.000000 0.478516
vt 1.000000 0.488281
vt 0.937500 0.488281
vt 0.937500 0.468750
vt 1.000000 0.468750
vt 1.000000 0.480469
vt 0.937500 0.480469
vt 0.937500 0.478516
vt 1.000000 0.478516
vt 1.000000 0.488281
vt 0.937500 0.488281
vt 0.937500 0.500000
vt 0.949219 0.500000
vt 0.949219 0.562500
vt 0.937500 0.562500
vt 0.986328 0.500000
vt 1.000000 0.500000
vt 1.000000 0.562500
vt 0.986328 0.562500
vt 0.937500 0.478516
vt 0.964844 0.478516
vt 0.964844 0.488281
vt 0.937500 0.488281
vt 0.937500 0.468750
vt 0.964844 0.468750
vt 0.962891 0.478516
vt 0.972656 0.478516
vt 1.000000 0.478516
vt 1.000000 0.488281
vt 0.972656 0.488281
vt 0.970703 0.468750
vt 1.000000 0.468750
vt 0.974609 0.478516
vt 1.000000 0.490234
vt 0.937500 0.490234
vt 0.937500 0.500000
vt 1.000000 0.500000
vt 1.000000 0.480469
vt 0.937500 0.480469
vt 1.000000 0.490234
vt 0.937500 0.490234
vt 0.937500 0.500000
vt 1.000000 0.500000
vt 1.000000 0.480469
vt 0.937500 0.480469
vt 0.996094 0.500000
vt 0.992188 0.492188
vt 1.000000 0.492188
vt 1.000000 0.490234
vt 0.984375 0.490234
vt 0.984375 0.500000
vt 1.000000 0.500000
vt 0.996094 0.500000
vt 0.992188 0.492188
vt 1.000000 0.492188
vt 0.984375 0.490234
vt 1.000000 0.490234
vt 1.000000 0.500000
vt 0.984375 0.500000
vt 0.937500 0.500000
vt 1.000000 0.500000
vt 1.000000 0.562500
vt 0.937500 0.562500
vt 0.937500 0.500000
vt 1.000000 0.500000
vt 1.000000 0.562500
vt 0.937500 0.562500
vn 0.1623 0.9591 0.2317
vn 0.1980 0.9599 0.1985
vn 0.3277 0.8858 0.3285
vn 0.2536 0.8909 0.3767
vn 0.7011 0.1311 0.7009
vn 0.5489 0.1356 0.8248
vn 0.2335 0.9587 0.1624
vn 0.3748 0.8932 0.2485
vn 0.8254 0.1366 0.5478
vn 0.9155 0.1360 0.3786
vn 0.8710 0.3325 0.3618
vn 0.7702 0.3668 0.5218
vn 0.3803 0.1362 0.9148
vn 0.5217 0.3667 0.7703
vn 0.3611 0.3325 0.8712
vn 0.1766 0.8924 0.4153
vn 0.1168 0.9541 0.2758
vn 0.4216 0.8905 0.1710
vn 0.2773 0.9541 0.1132
vn 0.3202 0.8131 0.4862
vn 0.3959 0.8287 0.3956
vn 0.2825 0.9168 0.2823
vn 0.2460 0.9156 0.3180
vn 0.6524 0.3865 0.6520
vn 0.4861 0.8131 0.3203
vn 0.3180 0.9156 0.2461
vn 0.2377 0.7851 0.5720
vn 0.5717 0.7852 0.2382
usemtl frostland_tilesheet
s 1
f 1/1/1 2/2/2 3/3/3 4/4/4
f 4/5/4 3/6/3 6/7/5 5/8/6
f 2/9/2 7/10/7 8/11/8 3/12/3
f 3/13/3 8/14/8 9/15/9 6/16/5
f 9/17/9 17/18/10 10/19/11 11/20/12
f 14/21/13 5/22/6 12/23/14 13/24/15
f 15/25/16 4/26/4 5/27/6 14/28/13
f 16/29/17 1/30/1 4/31/4 15/25/16
f 8/32/8 18/33/18 17/34/10 9/35/9
f 7/36/7 19/37/19 18/33/18 8/38/8
f 20/39/20 21/40/21 22/41/22 23/42/23
f 12/43/14 24/44/24 21/40/21 20/39/20
f 21/45/21 25/46/25 26/47/26 22/48/22
f 24/49/24 11/50/12 25/46/25 21/45/21
f 23/51/23 27/52/27 20/53/20
f 13/54/15 12/55/14 20/56/20 27/57/27
f 26/58/26 25/59/25 28/60/28
f 11/61/12 10/62/11 28/63/28 25/64/25
f 6/65/5 9/66/9 11/67/12 24/68/24
f 5/69/6 6/70/5 24/71/24 12/72/14
