# Blender v2.93.5 OBJ File: 'Frostlands.blend'
# www.blender.org
mtllib SM_SDirt_Cliff_Corner_07.mtl
o Cube.049_export_temp_Cube.061
v -1.249851 0.049865 1.076160
v -0.249851 0.049865 1.080791
v -0.249851 0.131935 0.978474
v -0.249851 0.131824 0.978474
v -1.249851 0.131935 0.978474
v -1.249851 0.000112 1.250000
v -0.249851 0.000112 1.250000
v 0.103702 0.000000 1.103554
v 0.603554 0.000000 0.603405
v 0.480630 0.049754 0.480480
v -0.019222 0.049754 0.980629
v -0.088296 0.131823 0.911556
v 0.411555 0.131824 0.411407
v 1.103405 0.000000 0.103256
v 0.983757 0.049754 -0.016392
v 0.911407 0.131823 -0.088741
v 1.076011 0.049865 -0.250000
v 1.080644 0.049865 -1.250000
v 0.978325 0.131935 -1.250000
v 0.978326 0.131935 -0.250000
v 1.249851 0.000112 -0.250000
v 1.249851 0.000112 -1.250000
v 0.978325 1.011358 -0.250000
v 0.911407 1.011246 -0.088741
v -0.088297 1.011246 0.911556
v -0.249851 1.011358 0.978474
v -1.249852 1.011358 0.978474
v -0.249851 1.099823 0.888550
v -1.249852 1.099823 0.888550
v -0.249851 1.160064 0.750000
v -1.249852 1.160176 0.750000
v -0.151881 1.099711 0.847969
v 0.347970 1.099711 0.347820
v 0.250000 1.160064 0.249851
v 0.411555 1.011246 0.411407
v 0.847821 1.099711 -0.152328
v 0.749851 1.160064 -0.250298
v 0.978325 1.011358 -1.250000
v 0.888402 1.099823 -1.250000
v 0.888402 1.099823 -0.250000
v 0.749851 1.160176 -1.250000
vt 0.937500 0.576172
vt 1.000000 0.576172
vt 1.000000 0.583984
vt 0.937500 0.583984
vt 0.937500 0.500000
vt 0.875000 0.500000
vt 0.875000 0.509766
vt 0.937500 0.509766
vt 0.937500 0.500000
vt 0.875000 0.500000
vt 0.875000 0.509766
vt 0.937500 0.509766
vt 0.937500 0.576172
vt 1.000000 0.576172
vt 1.000000 0.583984
vt 0.937500 0.583984
vt 0.937500 0.500000
vt 0.875000 0.500000
vt 0.875000 0.509766
vt 0.937500 0.509766
vt 0.937500 0.576172
vt 1.000000 0.576172
vt 1.000000 0.583984
vt 0.937500 0.583984
vt 0.937500 0.576172
vt 1.000000 0.576172
vt 1.000000 0.583984
vt 0.937500 0.583984
vt 0.937500 0.500000
vt 0.875000 0.500000
vt 0.875000 0.509766
vt 0.937500 0.509766
vt 0.955078 0.562500
vt 0.968750 0.562500
vt 0.968750 0.625000
vt 0.955078 0.625000
vt 0.962891 0.562500
vt 0.980469 0.562500
vt 0.980469 0.625000
vt 0.962891 0.625000
vt 0.962891 0.576172
vt 0.982422 0.576172
vt 0.978516 0.583984
vt 0.966797 0.583984
vt 0.894531 0.500000
vt 0.925781 0.500000
vt 0.921875 0.509766
vt 0.898438 0.509766
vt 0.962891 0.576172
vt 0.982422 0.576172
vt 0.978516 0.583984
vt 0.966797 0.583984
vt 0.894531 0.500000
vt 0.925781 0.500000
vt 0.921875 0.509766
vt 0.898438 0.509766
vt 1.000000 0.583984
vt 0.937500 0.583984
vt 0.937500 0.591797
vt 1.000000 0.591797
vt 0.875000 0.523438
vt 0.937500 0.523438
vt 0.937500 0.531250
vt 0.875000 0.531250
vt 0.875000 0.523438
vt 0.937500 0.523438
vt 0.937500 0.531250
vt 0.875000 0.531250
vt 1.000000 0.583984
vt 0.937500 0.583984
vt 0.937500 0.591797
vt 1.000000 0.591797
vt 0.875000 0.523438
vt 0.937500 0.523438
vt 0.937500 0.531250
vt 0.875000 0.531250
vt 1.000000 0.583984
vt 0.937500 0.583984
vt 0.937500 0.591797
vt 1.000000 0.591797
vt 1.000000 0.583984
vt 0.937500 0.583984
vt 0.937500 0.591797
vt 1.000000 0.591797
vt 0.875000 0.523438
vt 0.937500 0.523438
vt 0.937500 0.531250
vt 0.875000 0.531250
vt 0.912109 0.531250
vt 0.904297 0.521484
vt 0.919922 0.521484
vt 0.962891 0.585938
vt 0.972656 0.585938
vt 0.972656 0.591797
vt 0.962891 0.591797
vt 0.912109 0.531250
vt 0.904297 0.521484
vt 0.919922 0.521484
vt 0.972656 0.585938
vt 0.962891 0.585938
vt 0.962891 0.591797
vt 0.972656 0.591797
vt 0.937500 0.562500
vt 1.000000 0.562500
vt 1.000000 0.625000
vt 0.937500 0.625000
vt 0.937500 0.562500
vt 1.000000 0.562500
vt 1.000000 0.625000
vt 0.937500 0.625000
vt 0.937500 0.562500
vt 1.000000 0.562500
vt 1.000000 0.625000
vt 0.937500 0.625000
vt 0.937500 0.562500
vt 1.000000 0.562500
vt 1.000000 0.625000
vt 0.937500 0.625000
vn -0.0011 0.8845 0.4665
vn 0.0892 0.8926 0.4420
vn 0.1846 0.4440 0.8768
vn -0.0013 0.4275 0.9040
vn -0.0006 0.9604 0.2786
vn 0.0502 0.9593 0.2779
vn 0.1613 0.9597 0.2300
vn 0.1955 0.9609 0.1960
vn 0.3305 0.8837 0.3314
vn 0.2551 0.8903 0.3773
vn 0.7012 0.1294 0.7011
vn 0.5493 0.1348 0.8247
vn 0.2318 0.9593 0.1614
vn 0.3753 0.8926 0.2500
vn 0.8253 0.1358 0.5482
vn 0.4455 0.8910 0.0874
vn 0.4655 0.8850 0.0011
vn 0.9915 0.1303 0.0003
vn 0.9713 0.1356 0.1956
vn 0.2785 0.9592 0.0493
vn 0.2786 0.9604 0.0006
vn 0.9134 0.3669 0.1764
vn 0.7702 0.3668 0.5218
vn 0.1951 0.0000 0.9808
vn 0.5217 0.3667 0.7703
vn 0.1761 0.3669 0.9134
vn -0.0000 0.3865 0.9223
vn 0.1181 0.8132 0.5699
vn 0.0000 0.8288 0.5596
vn 0.1469 0.9237 0.3539
vn 0.0001 0.9169 0.3990
vn 0.3202 0.8131 0.4862
vn 0.3959 0.8287 0.3956
vn 0.2825 0.9168 0.2823
vn 0.6524 0.3865 0.6520
vn 0.4861 0.8131 0.3203
vn 0.3539 0.9237 0.1468
vn 0.9223 0.3865 -0.0000
vn 0.5596 0.8288 0.0000
vn 0.5698 0.8132 0.1184
vn 0.3990 0.9169 0.0001
vn -0.0000 0.0000 1.0000
usemtl frostland_tilesheet
s 1
f 1/1/1 2/2/2 3/3/3 5/4/4
f 6/5/5 7/6/6 2/7/2 1/8/1
f 8/9/7 9/10/8 10/11/9 11/12/10
f 11/13/10 10/14/9 13/15/11 12/16/12
f 9/17/8 14/18/13 15/19/14 10/20/9
f 10/21/9 15/22/14 16/23/15 13/24/11
f 17/25/16 18/26/17 19/27/18 20/28/19
f 21/29/20 22/30/21 18/31/17 17/32/16
f 16/33/15 20/34/19 23/35/22 24/36/23
f 4/37/24 12/38/12 25/39/25 26/40/26
f 2/41/2 11/42/10 12/43/12 3/44/3
f 7/45/6 8/46/7 11/47/10 2/48/2
f 15/49/14 17/50/16 20/51/19 16/52/15
f 14/53/13 21/54/20 17/55/16 15/56/14
f 27/57/27 26/58/26 28/59/28 29/60/29
f 29/61/29 28/62/28 30/63/30 31/64/31
f 32/65/32 33/66/33 34/67/34 30/68/30
f 25/69/25 35/70/35 33/71/33 32/72/32
f 33/73/33 36/74/36 37/75/37 34/76/34
f 35/77/35 24/78/23 36/79/36 33/80/33
f 23/81/22 38/82/38 39/83/39 40/84/40
f 40/85/40 39/86/39 41/87/41 37/88/37
f 30/89/30 28/90/28 32/91/32
f 26/92/26 25/93/25 32/94/32 28/95/28
f 37/96/37 36/97/36 40/98/40
f 24/99/23 23/100/22 40/101/40 36/102/36
f 20/103/19 19/104/18 38/105/38 23/106/22
f 13/107/11 16/108/15 24/109/23 35/110/35
f 12/111/12 13/112/11 35/113/35 25/114/25
f 5/115/42 4/116/24 26/117/26 27/118/27
