# Blender v2.93.5 OBJ File: 'Frostlands.blend'
# www.blender.org
mtllib SM_SDirt_Cliff_Corner_03.mtl
o Cube.021_export_temp_Cube.061
v -0.500000 0.049753 -0.173840
v 0.173841 0.049753 -0.169209
v 0.271526 0.131823 -0.271526
v -0.500000 0.131823 -0.271526
v -0.500000 0.000000 0.000000
v 0.000000 0.000000 0.000000
v 0.000000 0.000000 0.500000
v 0.169209 0.049753 0.500000
v 0.271526 0.131823 0.500000
v 0.271526 1.000000 0.500000
v 0.271526 1.000000 -0.271526
v -0.500000 1.000000 -0.271526
v 0.271526 1.088465 -0.361450
v -0.500000 1.088465 -0.361450
v 0.271526 1.148818 -0.500000
v -0.500000 1.148818 -0.500000
v 0.361448 1.088465 0.500000
v 0.361448 1.088465 -0.271526
v 0.500000 1.148818 0.500000
v 0.500000 1.148818 -0.271526
v 0.361448 1.088465 -0.361450
v 0.500000 1.148818 -0.500000
vt 0.875000 0.507812
vt 0.937500 0.507812
vt 0.937500 0.515625
vt 0.875000 0.515625
vt 0.875000 0.562500
vt 0.937500 0.562500
vt 0.937500 0.625000
vt 0.875000 0.625000
vt 0.875000 0.500000
vt 0.919922 0.500000
vt 0.890625 0.500000
vt 0.937500 0.500000
vt 0.937500 0.507812
vt 0.875000 0.507812
vt 0.937500 0.515625
vt 0.875000 0.515625
vt 0.875000 0.562500
vt 0.937500 0.562500
vt 0.937500 0.625000
vt 0.875000 0.625000
vt 0.875000 0.515625
vt 0.937500 0.515625
vt 0.937500 0.523438
vt 0.875000 0.523438
vt 0.937500 0.531250
vt 0.875000 0.531250
vt 0.875000 0.515625
vt 0.937500 0.515625
vt 0.937500 0.523438
vt 0.875000 0.523438
vt 0.937500 0.531250
vt 0.875000 0.531250
vt 0.937500 0.513672
vt 0.937500 0.523438
vt 0.929688 0.523438
vt 0.925781 0.523438
vt 0.937500 0.531250
vt 0.914062 0.531250
vt 0.937500 0.507812
vt 0.916016 0.531250
vn -0.0016 0.8847 0.4661
vn -0.3019 0.9071 0.2933
vn -0.6387 0.4210 0.6441
vn -0.0011 0.4279 0.9038
vn -0.6824 0.2618 0.6825
vn -0.0000 0.1169 0.9931
vn -0.0011 0.9606 0.2781
vn -0.1421 0.9796 0.1420
vn -0.2791 0.9603 -0.0011
vn -0.4659 0.8848 -0.0016
vn -0.9042 0.4272 -0.0011
vn -0.9931 0.1169 -0.0001
vn -0.0000 0.8287 0.5597
vn -0.0000 0.9168 0.3994
vn -0.5597 0.8287 0.0000
vn -0.3994 0.9168 0.0000
vn -0.2637 0.9278 0.2637
vn -0.2082 0.9557 0.2082
usemtl frostland_tilesheet
s 1
f 1/1/1 2/2/2 3/3/3 4/4/4
f 4/5/4 3/6/3 11/7/5 12/8/6
f 5/9/7 6/10/8 2/2/2 1/1/1
f 6/11/8 7/12/9 8/13/10 2/14/2
f 2/14/2 8/13/10 9/15/11 3/16/3
f 3/17/3 9/18/11 10/19/12 11/20/5
f 12/21/6 11/22/5 13/23/13 14/24/13
f 14/24/13 13/23/13 15/25/14 16/26/14
f 11/27/5 10/28/12 17/29/15 18/30/15
f 18/30/15 17/29/15 19/31/16 20/32/16
f 11/33/5 18/34/15 21/35/17
f 21/36/17 18/34/15 20/37/16 22/38/18
f 13/23/13 11/39/5 21/35/17
f 13/23/13 21/36/17 22/40/18 15/25/14
