# Blender v2.93.5 OBJ File: 'Frostlands.blend'
# www.blender.org
mtllib SM_SSnow_Cliff_02.mtl
o Cube.013_export_temp_Cube.061
v -0.500000 0.049753 0.076160
v 0.500000 0.049753 0.080791
v 0.500000 0.131823 -0.021526
v -0.500000 0.131823 -0.021526
v 0.500000 0.851182 -0.021526
v -0.500000 0.851182 -0.021526
v -0.500000 0.000000 0.250000
v 0.500000 0.000000 0.250000
v 0.500000 0.939647 -0.111450
v -0.500000 0.939647 -0.111450
v 0.500000 1.000000 -0.250000
v -0.500000 1.000000 -0.250000
vt 0.937500 0.593750
vt 1.000000 0.593750
vt 1.000000 0.601562
vt 0.937500 0.601562
vt 0.937500 0.562500
vt 1.000000 0.562500
vt 1.000000 0.626953
vt 0.937500 0.626953
vt 0.937500 0.531250
vt 0.875000 0.531250
vt 0.875000 0.539062
vt 0.937500 0.539062
vt 0.937500 0.601562
vt 1.000000 0.601562
vt 1.000000 0.609375
vt 0.937500 0.609375
vt 0.875000 0.554688
vt 0.937500 0.554688
vt 0.937500 0.562500
vt 0.875000 0.562500
vn -0.0011 0.8845 0.4665
vn -0.0011 0.8850 0.4655
vn -0.0008 0.4276 0.9040
vn -0.0000 0.3865 0.9223
vn -0.0006 0.9604 0.2786
vn -0.0000 0.8287 0.5597
vn -0.0000 0.9168 0.3994
usemtl frostland_tilesheet
s 1
f 1/1/1 2/2/2 3/3/3 4/4/3
f 4/5/3 3/6/3 5/7/4 6/8/4
f 7/9/5 8/10/5 2/11/2 1/12/1
f 6/13/4 5/14/4 9/15/6 10/16/6
f 10/17/6 9/18/6 11/19/7 12/20/7
