# Blender v2.93.5 OBJ File: 'Frostlands.blend'
# www.blender.org
mtllib SM_Bridge_02.mtl
o Cube.251_export_temp_Cube.061
v -1.500000 0.000000 0.750000
v -1.500000 1.000000 0.500000
v -0.500000 0.978350 -0.500000
v -0.500000 1.000000 0.500000
v 0.500000 1.013104 0.500000
v 1.500000 1.000000 0.750000
v 1.500000 1.008489 -0.500000
v 1.500000 1.000000 -0.750000
v 0.500000 1.000000 -0.750000
v 1.500000 1.013104 0.500000
v 0.500000 1.008489 -0.500000
v -1.500000 0.000000 -0.750000
v -1.500000 1.000000 0.750000
v 0.500000 0.979943 0.750000
v -0.500000 0.979943 0.750000
v -1.500000 1.000000 -0.750000
v -0.500000 1.000000 -0.750000
v -1.500000 0.978350 -0.500000
v 1.500000 0.000000 0.500000
v -0.500000 0.536921 0.500000
v 1.500000 0.027277 0.500000
v 0.500000 0.531339 0.500000
v 0.500000 0.494791 0.750000
v -0.500000 0.500000 0.750000
v 1.500000 0.000000 0.750000
v -0.500000 0.500000 -0.750000
v 0.500000 0.500000 -0.750000
v 1.500000 0.000000 -0.750000
v -1.500000 0.000000 -0.500000
v 0.500000 0.524645 -0.500000
v -0.500000 0.524645 -0.500000
v -1.500000 0.025785 -0.500000
v -1.500000 0.031539 0.500000
v 0.500000 0.532459 -0.500000
v -0.500000 0.530268 -0.500000
v 1.500000 0.027276 -0.500000
v -1.500000 0.005755 0.500000
v -1.500000 0.000000 0.500000
v 0.500000 0.494791 0.500000
v -0.500000 0.500000 0.500000
v 1.500000 0.000000 -0.500000
v 0.500000 0.500000 -0.500000
v -0.500000 0.500000 -0.500000
vt 0.125049 0.437549
vt 0.187451 0.468750
vt 0.187451 0.499951
vt 0.125049 0.499951
vt 0.187549 0.484424
vt 0.249951 0.484424
vt 0.249951 0.499951
vt 0.187549 0.499951
vt 0.187549 0.484424
vt 0.249951 0.484424
vt 0.249951 0.499951
vt 0.187549 0.499951
vt 0.187549 0.484424
vt 0.249951 0.484424
vt 0.249951 0.499951
vt 0.187549 0.499951
vt 0.187549 0.484424
vt 0.249951 0.484424
vt 0.249951 0.499951
vt 0.187549 0.499951
vt 0.187549 0.484424
vt 0.249951 0.484424
vt 0.249951 0.499951
vt 0.187549 0.499951
vt 0.187549 0.484424
vt 0.249951 0.484424
vt 0.249951 0.499951
vt 0.187549 0.499951
vt 0.125049 0.470776
vt 0.187451 0.439251
vt 0.125049 0.499951
vt 0.140674 0.375049
vt 0.156201 0.375049
vt 0.156201 0.437451
vt 0.140674 0.437451
vt 0.140674 0.376751
vt 0.140674 0.375049
vt 0.156201 0.375049
vt 0.156201 0.377132
vt 0.156201 0.437451
vt 0.140674 0.437451
vt 0.140674 0.375049
vt 0.156201 0.375049
vt 0.156201 0.437451
vt 0.140674 0.437451
vt 0.140674 0.377017
vt 0.125049 0.468750
vt 0.187451 0.468750
vt 0.187451 0.499951
vt 0.125049 0.499951
vt 0.125049 0.468750
vt 0.187451 0.437549
vt 0.187451 0.499951
vt 0.125049 0.499951
vt 0.140674 0.375049
vt 0.156201 0.375049
vt 0.156201 0.376658
vt 0.156201 0.437451
vt 0.140674 0.437451
vt 0.125049 0.439158
vt 0.187451 0.470639
vt 0.125049 0.499951
vt 0.125049 0.468750
vt 0.187451 0.468750
vt 0.187451 0.499951
vt 0.125049 0.499951
vt 0.125049 0.468750
vt 0.187451 0.437549
vt 0.187451 0.499951
vt 0.125049 0.499951
vt 0.187451 0.468750
vt 0.187451 0.499951
vt 0.125049 0.499951
vt 0.125049 0.437549
vt 0.125049 0.439632
vt 0.187451 0.470706
vt 0.125049 0.499951
vt 0.125049 0.471054
vt 0.187451 0.439517
vt 0.125049 0.499951
vt 0.125049 0.470639
vt 0.187451 0.470776
vt 0.125049 0.499951
vt 0.218750 0.375000
vt 0.234375 0.375000
vt 0.234375 0.437500
vt 0.218750 0.437500
vt 0.218750 0.375000
vt 0.234375 0.375000
vt 0.234375 0.437500
vt 0.218750 0.437500
vt 0.218750 0.375000
vt 0.234375 0.375000
vt 0.234375 0.437500
vt 0.218750 0.437500
vt 0.218750 0.375000
vt 0.234375 0.375000
vt 0.234375 0.437500
vt 0.218750 0.437500
vt 0.218750 0.375000
vt 0.234375 0.375000
vt 0.234375 0.437500
vt 0.218750 0.437500
vt 0.218750 0.375000
vt 0.234375 0.375000
vt 0.234375 0.437500
vt 0.218750 0.437500
vt 0.125049 0.375049
vt 0.187451 0.375049
vt 0.187451 0.437451
vt 0.125049 0.437451
vt 0.125049 0.375049
vt 0.187451 0.375049
vt 0.187451 0.437451
vt 0.125049 0.437451
vt 0.125049 0.375049
vt 0.187451 0.375049
vt 0.187451 0.437451
vt 0.125049 0.437451
vt 0.125049 0.470706
vt 0.187451 0.471054
vt 0.125049 0.499951
vt 0.125049 0.375049
vt 0.187451 0.375049
vt 0.187451 0.437451
vt 0.125049 0.437451
vt 0.187500 0.375000
vt 0.250000 0.375000
vt 0.250000 0.437500
vt 0.187500 0.437500
vt 0.187500 0.375000
vt 0.250000 0.375000
vt 0.250000 0.437500
vt 0.187500 0.437500
vt 0.187500 0.375000
vt 0.250000 0.375000
vt 0.250000 0.437500
vt 0.187500 0.437500
vn -0.0000 0.0000 1.0000
vn -0.0100 0.9957 0.0921
vn -0.0065 0.9944 0.1058
vn 0.0100 0.9991 0.0401
vn 0.0000 0.9994 -0.0339
vn -0.0151 0.9995 0.0263
vn 0.0000 0.9963 0.0863
vn 1.0000 0.0000 0.0000
vn -1.0000 0.0000 0.0000
vn -0.0000 -0.0000 -1.0000
vn 0.4472 -0.8944 -0.0000
vn -0.0052 -1.0000 0.0000
vn -0.4435 -0.8963 -0.0000
vn 0.0000 -1.0000 0.0000
vn -0.4472 -0.8944 0.0000
vn -0.0009 1.0000 -0.0072
vn -0.0025 1.0000 -0.0072
vn -0.0009 1.0000 -0.0089
vn -0.0025 1.0000 -0.0088
vn 0.0028 1.0000 -0.0095
vn 0.0014 1.0000 -0.0035
vn -0.0003 1.0000 -0.0036
vn 0.0014 1.0000 -0.0027
vn -0.0003 1.0000 -0.0027
vn -0.8944 -0.0026 -0.4472
vn -0.8944 0.0026 0.4472
vn -0.8944 0.4472 -0.0000
vn 0.8944 0.0000 0.4472
vn 0.8944 -0.0000 -0.4472
vn 0.8944 0.4472 0.0000
vn 0.0028 -1.0000 -0.0021
vn 0.0014 -1.0000 -0.0021
vn -0.0026 -1.0000 -0.0026
usemtl frostland_tilesheet
s off
f 1/1/1 24/2/1 15/3/1 13/4/1
f 14/5/2 6/6/2 10/7/2 5/8/2
f 15/9/3 14/10/3 5/11/3 4/12/3
f 13/13/4 15/14/4 4/15/4 2/16/4
f 8/17/5 9/18/5 11/19/5 7/20/5
f 9/21/6 17/22/6 3/23/6 11/24/6
f 17/25/7 16/26/7 18/27/7 3/28/7
f 34/29/1 36/30/1 7/20/1 11/31/1
f 41/32/8 28/33/8 8/34/8 7/35/8 36/36/8
f 25/37/8 19/38/8 21/39/8 10/40/8 6/41/8
f 38/42/9 1/43/9 13/44/9 2/45/9 33/46/9
f 24/47/1 23/48/1 14/49/1 15/50/1
f 23/51/1 25/52/1 6/53/1 14/54/1
f 12/55/9 29/56/9 32/57/9 18/58/9 16/59/9
f 32/60/1 35/61/1 3/28/1 18/62/1
f 27/63/10 26/64/10 17/65/10 9/66/10
f 26/67/10 12/68/10 16/69/10 17/70/10
f 27/71/10 9/72/10 8/73/10 28/74/10
f 21/75/10 22/76/10 5/8/10 10/77/10
f 20/78/10 33/79/10 2/16/10 4/80/10
f 35/81/1 34/82/1 11/24/1 3/83/1
f 1/84/11 38/85/11 40/86/11 24/87/11
f 24/88/12 40/89/12 39/90/12 23/91/12
f 23/92/13 39/93/13 19/94/13 25/95/13
f 29/96/11 12/97/11 26/98/11 43/99/11
f 43/100/14 26/101/14 27/102/14 42/103/14
f 42/104/15 27/105/15 28/106/15 41/107/15
f 32/108/16 33/109/17 20/110/18 31/111/19
f 31/112/20 20/113/20 22/114/20 30/115/20
f 30/116/21 22/117/22 21/118/23 36/119/24
f 22/120/10 20/121/10 4/12/10 5/122/10
f 33/109/25 32/108/26 29/123/27 37/124/27
f 36/119/28 21/118/29 19/125/30 41/126/30
f 41/127/31 19/128/32 39/129/31 42/130/32
f 42/131/33 39/132/33 40/133/33 43/134/33
f 43/135/14 40/136/14 38/137/14 29/138/14
