# Blender v2.93.5 OBJ File: 'Frostlands.blend'
# www.blender.org
mtllib SM_LBridge_Mid.mtl
o Cube.242_export_temp_Cube.061
v -0.500000 0.500000 -1.000000
v -0.500000 0.500000 1.000000
v 0.500000 0.500000 1.000000
v 0.500000 0.500000 -1.250000
v 0.500000 0.500000 -1.000000
v 0.500000 0.500000 1.250000
v -0.500000 0.500000 1.250000
v -0.500000 0.500000 -1.250000
v -0.500000 0.036921 1.000000
v 0.500000 0.031338 1.000000
v 0.500000 0.000000 1.250000
v -0.500000 0.000000 1.250000
v -0.500000 0.000000 -1.250000
v 0.500000 0.000000 -1.250000
v 0.500000 0.024645 0.000000
v -0.500000 0.024645 0.000000
v 0.500000 0.032459 -1.000000
v -0.500000 0.030268 -1.000000
v 0.500000 0.000000 1.000000
v -0.500000 0.000000 1.000000
v 0.500000 0.000000 -1.000000
v -0.500000 0.000000 0.000000
v 0.500000 0.000000 0.000000
v -0.500000 0.000000 -1.000000
vt 0.187549 0.484424
vt 0.249951 0.484424
vt 0.249951 0.499951
vt 0.187549 0.499951
vt 0.187549 0.484424
vt 0.249951 0.484424
vt 0.249951 0.499951
vt 0.187549 0.499951
vt 0.125049 0.468750
vt 0.187451 0.468750
vt 0.187451 0.499951
vt 0.125049 0.499951
vt 0.125049 0.468750
vt 0.187451 0.468750
vt 0.187451 0.499951
vt 0.125049 0.499951
vt 0.125049 0.470639
vt 0.187451 0.470776
vt 0.125049 0.499951
vt 0.218750 0.375000
vt 0.234375 0.375000
vt 0.234375 0.437500
vt 0.218750 0.437500
vt 0.218750 0.375000
vt 0.234375 0.375000
vt 0.234375 0.437500
vt 0.218750 0.437500
vt 0.125049 0.375049
vt 0.187451 0.375049
vt 0.187451 0.437451
vt 0.125049 0.437451
vt 0.125049 0.375049
vt 0.187451 0.375049
vt 0.187451 0.437451
vt 0.125049 0.437451
vt 0.125049 0.470706
vt 0.187451 0.471054
vt 0.125049 0.499951
vt 0.187500 0.375000
vt 0.250000 0.375000
vt 0.250000 0.437500
vt 0.187500 0.437500
vt 0.187500 0.375000
vt 0.250000 0.375000
vt 0.250000 0.437500
vt 0.187500 0.437500
vn 0.0000 1.0000 0.0000
vn 0.0000 0.0000 1.0000
vn -0.0000 -0.0000 -1.0000
vn 0.0000 -1.0000 0.0000
vn -0.0011 1.0000 0.0067
vn 0.0028 1.0000 -0.0095
usemtl frostland_tilesheet
s off
f 7/1/1 6/2/1 3/3/1 2/4/1
f 4/5/1 8/6/1 1/7/1 5/8/1
f 12/9/2 11/10/2 6/11/2 7/12/2
f 14/13/3 13/14/3 8/15/3 4/16/3
f 18/17/2 17/18/2 5/8/2 1/19/2
f 12/20/4 20/21/4 19/22/4 11/23/4
f 24/24/4 13/25/4 14/26/4 21/27/4
f 18/28/5 16/29/5 15/30/5 17/31/5
f 16/32/6 9/33/6 10/34/6 15/35/6
f 10/36/3 9/37/3 2/4/3 3/38/3
f 23/39/4 19/40/4 20/41/4 22/42/4
f 21/43/4 23/44/4 22/45/4 24/46/4
