# Blender v2.93.5 OBJ File: 'Frostlands.blend'
# www.blender.org
mtllib SM_SBridge_End_01.mtl
o Cube.252_export_temp_Cube.061
v -0.500000 0.000000 0.750000
v -0.500000 1.000000 0.500000
v 0.500000 1.000000 -0.500000
v 0.500000 1.000000 0.500000
v -0.500000 0.000000 -0.750000
v -0.500000 1.000000 0.750000
v 0.500000 1.000000 0.750000
v -0.500000 1.000000 -0.750000
v 0.500000 1.000000 -0.750000
v -0.500000 1.000000 -0.500000
v 0.500000 0.536921 0.500000
v 0.500000 0.500000 0.750000
v 0.500000 0.500000 -0.750000
v -0.500000 0.000000 -0.500000
v 0.500000 0.524645 -0.500000
v -0.500000 0.025785 -0.500000
v -0.500000 0.031539 0.500000
v 0.500000 0.530268 -0.500000
v -0.500000 0.005755 0.500000
v -0.500000 0.000000 0.500000
v 0.500000 0.500000 0.500000
v 0.500000 0.500000 -0.500000
vt 0.125049 0.437549
vt 0.187451 0.468750
vt 0.187451 0.499951
vt 0.125049 0.499951
vt 0.187549 0.484424
vt 0.249951 0.484424
vt 0.249951 0.499951
vt 0.187549 0.499951
vt 0.187549 0.484424
vt 0.249951 0.484424
vt 0.249951 0.499951
vt 0.187549 0.499951
vt 0.140674 0.375049
vt 0.156201 0.375049
vt 0.156201 0.437451
vt 0.140674 0.437451
vt 0.140674 0.377017
vt 0.140674 0.375049
vt 0.156201 0.375049
vt 0.156201 0.376658
vt 0.156201 0.437451
vt 0.140674 0.437451
vt 0.125049 0.439158
vt 0.187451 0.470639
vt 0.125049 0.499951
vt 0.125049 0.468750
vt 0.187451 0.437549
vt 0.187451 0.499951
vt 0.125049 0.499951
vt 0.125049 0.471054
vt 0.187451 0.439517
vt 0.125049 0.499951
vt 0.218750 0.375000
vt 0.234375 0.375000
vt 0.234375 0.437500
vt 0.218750 0.437500
vt 0.218750 0.375000
vt 0.234375 0.375000
vt 0.234375 0.437500
vt 0.218750 0.437500
vt 0.125049 0.375049
vt 0.187451 0.375049
vt 0.187451 0.437451
vt 0.125049 0.437451
vt 0.125049 0.375049
vt 0.187451 0.375049
vt 0.187500 0.375000
vt 0.250000 0.375000
vt 0.250000 0.437500
vt 0.187500 0.437500
vn -0.0000 -0.0000 1.0000
vn 0.0000 1.0000 0.0000
vn -1.0000 0.0000 0.0000
vn 0.0000 0.0000 -1.0000
vn 0.4472 -0.8944 -0.0000
vn -0.0009 1.0000 -0.0072
vn -0.0025 1.0000 -0.0072
vn -0.0009 1.0000 -0.0089
vn -0.0025 1.0000 -0.0088
vn -0.8944 -0.0026 -0.4472
vn -0.8944 0.0026 0.4472
vn -0.8944 0.4472 -0.0000
vn -0.0000 -1.0000 -0.0000
usemtl frostland_tilesheet
s off
f 1/1/1 12/2/1 7/3/1 6/4/1
f 6/5/2 7/6/2 4/7/2 2/8/2
f 9/9/2 8/10/2 10/11/2 3/12/2
f 20/13/3 1/14/3 6/15/3 2/16/3 17/17/3
f 5/18/3 14/19/3 16/20/3 10/21/3 8/22/3
f 16/23/1 18/24/1 3/12/1 10/25/1
f 13/26/4 5/27/4 8/28/4 9/29/4
f 11/30/4 17/31/4 2/8/4 4/32/4
f 1/33/5 20/34/5 21/35/5 12/36/5
f 14/37/5 5/38/5 13/39/5 22/40/5
f 16/41/6 17/42/7 11/43/8 15/44/9
f 17/42/10 16/41/11 14/45/12 19/46/12
f 22/47/13 21/48/13 20/49/13 14/50/13
