# Blender v2.93.5 OBJ File: 'Frostlands.blend'
# www.blender.org
mtllib SM_SBridge_End_02.mtl
o Cube.253_export_temp_Cube.061
v -0.500000 1.000000 0.500000
v 0.500000 1.000000 0.750000
v 0.500000 1.000000 -0.500000
v 0.500000 1.000000 -0.750000
v -0.500000 1.000000 -0.750000
v 0.500000 1.000000 0.500000
v -0.500000 1.000000 -0.500000
v -0.500000 1.000000 0.750000
v 0.500000 0.000000 0.500000
v 0.500000 0.027276 0.500000
v -0.500000 0.531338 0.500000
v -0.500000 0.500000 0.750000
v 0.500000 0.000000 0.750000
v -0.500000 0.500000 -0.750000
v 0.500000 0.000000 -0.750000
v -0.500000 0.524645 -0.500000
v -0.500000 0.532459 -0.500000
v 0.500000 0.027276 -0.500000
v 0.500000 0.000000 -0.500000
v -0.500000 0.500000 0.500000
v -0.500000 0.500000 -0.500000
vt 0.187549 0.484424
vt 0.249951 0.484424
vt 0.249951 0.499951
vt 0.187549 0.499951
vt 0.187549 0.484424
vt 0.249951 0.484424
vt 0.249951 0.499951
vt 0.187549 0.499951
vt 0.125049 0.470776
vt 0.187451 0.439251
vt 0.125049 0.499951
vt 0.140674 0.375049
vt 0.156201 0.375049
vt 0.156201 0.437451
vt 0.140674 0.437451
vt 0.140674 0.376751
vt 0.140674 0.375049
vt 0.156201 0.375049
vt 0.156201 0.377132
vt 0.156201 0.437451
vt 0.140674 0.437451
vt 0.125049 0.468750
vt 0.187451 0.437549
vt 0.187451 0.499951
vt 0.125049 0.499951
vt 0.187451 0.468750
vt 0.187451 0.499951
vt 0.125049 0.499951
vt 0.125049 0.437549
vt 0.125049 0.439632
vt 0.187451 0.470706
vt 0.125049 0.499951
vt 0.218750 0.375000
vt 0.234375 0.375000
vt 0.234375 0.437500
vt 0.218750 0.437500
vt 0.218750 0.375000
vt 0.234375 0.375000
vt 0.234375 0.437500
vt 0.218750 0.437500
vt 0.125049 0.375049
vt 0.187451 0.375049
vt 0.187451 0.437451
vt 0.125049 0.437451
vt 0.187451 0.437451
vt 0.125049 0.437451
vt 0.187500 0.375000
vt 0.250000 0.375000
vt 0.250000 0.437500
vt 0.187500 0.437500
vn 0.0000 1.0000 0.0000
vn 0.0000 0.0000 1.0000
vn 1.0000 0.0000 0.0000
vn 0.0000 0.0000 -1.0000
vn -0.4472 -0.8944 -0.0000
vn 0.0014 1.0000 -0.0035
vn -0.0003 1.0000 -0.0036
vn 0.0014 1.0000 -0.0027
vn -0.0003 1.0000 -0.0027
vn 0.8944 0.0000 0.4472
vn 0.8944 -0.0000 -0.4472
vn 0.8944 0.4472 0.0000
vn 0.0000 -1.0000 0.0000
usemtl frostland_tilesheet
s off
f 8/1/1 2/2/1 6/3/1 1/4/1
f 4/5/1 5/6/1 7/7/1 3/8/1
f 17/9/2 18/10/2 3/8/2 7/11/2
f 19/12/3 15/13/3 4/14/3 3/15/3 18/16/3
f 13/17/3 9/18/3 10/19/3 6/20/3 2/21/3
f 12/22/2 13/23/2 2/24/2 8/25/2
f 14/26/4 5/27/4 4/28/4 15/29/4
f 10/30/4 11/31/4 1/4/4 6/32/4
f 12/33/5 20/34/5 9/35/5 13/36/5
f 21/37/5 14/38/5 15/39/5 19/40/5
f 16/41/6 11/42/7 10/43/8 18/44/9
f 18/44/10 10/43/11 9/45/12 19/46/12
f 19/47/13 9/48/13 20/49/13 21/50/13
