# Blender v2.93.5 OBJ File: 'Frostlands.blend'
# www.blender.org
mtllib SM_LIce_Cliff.mtl
o Cube.027_export_temp_Cube.061
v -0.500000 0.049753 0.076160
v 0.500000 0.049753 0.080791
v 0.500000 0.131823 -0.021526
v -0.500000 0.131823 -0.021526
v -0.500000 0.000000 0.250000
v 0.500000 0.000000 0.250000
v -0.500000 1.011361 -0.021526
v 0.500000 1.011361 -0.021526
v 0.500000 1.851182 -0.021526
v -0.500000 1.851182 -0.021526
v 0.500000 1.939647 -0.111450
v -0.500000 1.939647 -0.111450
v 0.500000 2.000000 -0.250000
v -0.500000 2.000000 -0.250000
vt 0.937500 0.476562
vt 1.000000 0.476562
vt 1.000000 0.484375
vt 0.937500 0.484375
vt 0.937500 0.500000
vt 1.000000 0.500000
vt 1.000000 0.562500
vt 0.937500 0.562500
vt 0.937500 0.468750
vt 1.000000 0.468750
vt 0.937500 0.500000
vt 1.000000 0.500000
vt 1.000000 0.562500
vt 0.937500 0.562500
vt 1.000000 0.484375
vt 0.937500 0.484375
vt 0.937500 0.492188
vt 1.000000 0.492188
vt 0.937500 0.500000
vt 1.000000 0.500000
vn -0.0011 0.8845 0.4665
vn -0.0011 0.8850 0.4655
vn -0.0008 0.4276 0.9040
vn -0.0000 0.0000 1.0000
vn -0.0006 0.9604 0.2786
vn -0.3865 0.3564 0.8507
vn -0.3220 0.1593 0.9333
vn -0.0000 0.8287 0.5597
vn -0.0000 0.9168 0.3994
usemtl frostland_tilesheet
s 1
f 1/1/1 2/2/2 3/3/3 4/4/3
f 4/5/3 3/6/3 8/7/4 7/8/4
f 5/9/5 6/10/5 2/2/2 1/1/1
f 7/11/4 8/12/4 9/13/6 10/14/7
f 10/15/7 9/16/6 11/17/8 12/18/8
f 12/18/8 11/17/8 13/19/9 14/20/9
