# Blender v2.93.5 OBJ File: 'Frostlands.blend'
# www.blender.org
mtllib SM_LIce_Cliff_Corner_04.mtl
o Cube.006_export_temp_Cube.061
v -0.396297 0.000000 0.603702
v 0.103554 0.000000 0.103553
v -0.016094 0.049754 -0.016095
v -0.519222 0.049754 0.480778
v -0.588297 0.131823 0.411704
v -0.088444 0.131823 -0.088445
v -0.088444 0.967056 -0.088445
v -0.588297 0.967056 0.411704
v 0.603405 0.000000 -0.396595
v 0.483757 0.049754 -0.516243
v 0.411407 0.131823 -0.588593
v 0.411407 0.967056 -0.588593
v 0.478325 0.967168 -0.749852
v 0.478325 1.851294 -0.749852
v 0.411407 1.851182 -0.588593
v -0.749851 0.967168 0.478622
v -0.588297 1.851182 0.411704
v -0.749851 1.851294 0.478622
v -0.749851 0.131935 0.478622
v -0.749851 0.049865 0.580941
v -0.749851 0.000112 0.750148
v 0.478325 0.131935 -0.749852
v 0.576010 0.049865 -0.749852
v 0.749851 0.000112 -0.749852
v -0.651882 1.939647 0.348118
v -0.152029 1.939647 -0.152030
v -0.250000 2.000000 -0.250000
v -0.749851 2.000000 0.250148
v -0.088444 1.851182 -0.088445
v 0.347822 1.939647 -0.652178
v 0.249851 2.000000 -0.750148
v -0.749851 1.939759 0.388700
v 0.388403 1.939759 -0.749852
vt 0.937500 0.468750
vt 1.000000 0.468750
vt 1.000000 0.480469
vt 0.937500 0.480469
vt 0.937500 0.500000
vt 1.000000 0.500000
vt 1.000000 0.562500
vt 0.937500 0.562500
vt 0.937500 0.478516
vt 1.000000 0.478516
vt 1.000000 0.488281
vt 0.937500 0.488281
vt 0.937500 0.468750
vt 1.000000 0.468750
vt 1.000000 0.480469
vt 0.937500 0.480469
vt 0.937500 0.500000
vt 1.000000 0.500000
vt 1.000000 0.562500
vt 0.937500 0.562500
vt 0.937500 0.478516
vt 1.000000 0.478516
vt 1.000000 0.488281
vt 0.937500 0.488281
vt 0.937500 0.500000
vt 0.949219 0.500000
vt 0.949219 0.562500
vt 0.937500 0.562500
vt 0.986328 0.500000
vt 1.000000 0.500000
vt 1.000000 0.562500
vt 0.986328 0.562500
vt 0.986328 0.500000
vt 1.000000 0.500000
vt 1.000000 0.562500
vt 0.986328 0.562500
vt 0.937500 0.478516
vt 0.964844 0.478516
vt 0.964844 0.488281
vt 0.937500 0.488281
vt 0.937500 0.468750
vt 0.964844 0.468750
vt 0.962891 0.478516
vt 0.937500 0.500000
vt 0.949219 0.500000
vt 0.949219 0.562500
vt 0.937500 0.562500
vt 0.972656 0.478516
vt 1.000000 0.478516
vt 1.000000 0.488281
vt 0.972656 0.488281
vt 0.970703 0.468750
vt 1.000000 0.468750
vt 0.974609 0.478516
vt 1.000000 0.490234
vt 0.937500 0.490234
vt 0.937500 0.500000
vt 1.000000 0.500000
vt 1.000000 0.480469
vt 0.937500 0.480469
vt 1.000000 0.490234
vt 0.937500 0.490234
vt 0.937500 0.500000
vt 1.000000 0.500000
vt 1.000000 0.480469
vt 0.937500 0.480469
vt 0.996094 0.500000
vt 0.992188 0.492188
vt 1.000000 0.492188
vt 1.000000 0.490234
vt 0.984375 0.490234
vt 0.984375 0.500000
vt 1.000000 0.500000
vt 0.996094 0.500000
vt 0.992188 0.492188
vt 1.000000 0.492188
vt 0.984375 0.490234
vt 1.000000 0.490234
vt 1.000000 0.500000
vt 0.984375 0.500000
vt 0.937500 0.500000
vt 1.000000 0.500000
vt 1.000000 0.562500
vt 0.937500 0.562500
vt 0.937500 0.500000
vt 1.000000 0.500000
vt 1.000000 0.562500
vt 0.937500 0.562500
vn 0.1623 0.9591 0.2317
vn 0.1980 0.9599 0.1985
vn 0.3277 0.8858 0.3285
vn 0.2536 0.8909 0.3767
vn 0.4927 0.4434 0.7487
vn 0.6382 0.4301 0.6386
vn 0.7073 0.0000 0.7069
vn 0.5557 0.0000 0.8314
vn 0.2335 0.9587 0.1624
vn 0.3748 0.8932 0.2485
vn 0.7498 0.4464 0.4884
vn 0.8314 0.0000 0.5557
vn 0.9236 0.0000 0.3833
vn 0.8710 0.3325 0.3618
vn 0.7702 0.3668 0.5218
vn 0.3827 0.0000 0.9239
vn 0.5217 0.3667 0.7702
vn 0.3612 0.3325 0.8712
vn 0.3465 0.4454 0.8256
vn 0.1767 0.8924 0.4153
vn 0.1168 0.9541 0.2758
vn 0.8287 0.4448 0.3398
vn 0.4216 0.8905 0.1710
vn 0.2773 0.9541 0.1132
vn 0.3202 0.8131 0.4862
vn 0.3959 0.8287 0.3956
vn 0.2825 0.9168 0.2823
vn 0.2460 0.9156 0.3180
vn 0.6524 0.3865 0.6520
vn 0.4861 0.8131 0.3203
vn 0.3180 0.9156 0.2461
vn 0.2377 0.7851 0.5720
vn 0.5717 0.7852 0.2382
usemtl frostland_tilesheet
s 1
f 1/1/1 2/2/2 3/3/3 4/4/4
f 5/5/5 6/6/6 7/7/7 8/8/8
f 4/9/4 3/10/3 6/11/6 5/12/5
f 2/13/2 9/14/9 10/15/10 3/16/3
f 6/17/6 11/18/11 12/19/12 7/20/7
f 3/21/3 10/22/10 11/23/11 6/24/6
f 12/25/12 13/26/13 14/27/14 15/28/15
f 16/29/16 8/30/8 17/31/17 18/32/18
f 19/33/19 5/34/5 8/35/8 16/36/16
f 20/37/20 4/38/4 5/39/5 19/40/19
f 21/41/21 1/42/1 4/43/4 20/37/20
f 11/44/11 22/45/22 13/46/13 12/47/12
f 10/48/10 23/49/23 22/50/22 11/51/11
f 9/52/9 24/53/24 23/49/23 10/54/10
f 25/55/25 26/56/26 27/57/27 28/58/28
f 17/59/17 29/60/29 26/56/26 25/55/25
f 26/61/26 30/62/30 31/63/31 27/64/27
f 29/65/29 15/66/15 30/62/30 26/61/26
f 28/67/28 32/68/32 25/69/25
f 18/70/18 17/71/17 25/72/25 32/73/32
f 31/74/31 30/75/30 33/76/33
f 15/77/15 14/78/14 33/79/33 30/80/30
f 7/81/7 12/82/12 15/83/15 29/84/29
f 8/85/8 7/86/7 29/87/29 17/88/17
