# Blender v2.93.5 OBJ File: 'Frostlands.blend'
# www.blender.org
mtllib SM_LSnow_Cliff_Corner_05.mtl
o Cube.018_export_temp_Cube.061
v -0.396298 0.000000 0.603703
v 0.103554 0.000000 0.103554
v -0.016094 0.049754 -0.016094
v -0.519222 0.049754 0.480778
v -0.588296 0.131823 0.411705
v -0.088444 0.131823 -0.088444
v -0.088445 1.045813 -0.088444
v -0.588296 1.045813 0.411705
v 0.603405 0.000000 -0.396595
v 0.483757 0.049754 -0.516243
v 0.411407 0.131823 -0.588593
v 0.411407 1.045813 -0.588593
v -0.749851 0.131935 0.478622
v -0.749852 1.045924 0.478622
v -0.749851 0.049865 0.580940
v -0.749851 0.000112 0.750149
v 0.478326 0.131935 -0.749851
v 0.478325 1.045924 -0.749851
v 0.576011 0.049865 -0.749851
v 0.749851 0.000112 -0.749851
v -0.651882 1.939647 0.348118
v -0.152030 1.939647 -0.152031
v -0.250000 2.000000 -0.250000
v -0.749852 2.000000 0.250149
v -0.588296 1.851182 0.411705
v -0.088445 1.851182 -0.088444
v 0.347821 1.939647 -0.652180
v 0.249851 2.000000 -0.750149
v 0.411407 1.851182 -0.588593
v -0.749852 1.939759 0.388699
v -0.749852 1.851294 0.478622
v 0.388402 1.939759 -0.749851
v 0.478325 1.851294 -0.749851
vt 0.875000 0.531250
vt 0.937500 0.531250
vt 0.937500 0.541016
vt 0.875000 0.541016
vt 0.875000 0.562500
vt 0.937500 0.562500
vt 0.937500 0.625000
vt 0.875000 0.625000
vt 0.875000 0.539062
vt 0.937500 0.539062
vt 0.937500 0.546875
vt 0.875000 0.546875
vt 0.875000 0.531250
vt 0.937500 0.531250
vt 0.937500 0.541016
vt 0.875000 0.541016
vt 0.875000 0.562500
vt 0.937500 0.562500
vt 0.937500 0.625000
vt 0.875000 0.625000
vt 0.875000 0.539062
vt 0.937500 0.539062
vt 0.937500 0.546875
vt 0.875000 0.546875
vt 0.925781 0.562500
vt 0.937500 0.562500
vt 0.937500 0.625000
vt 0.925781 0.625000
vt 0.882812 0.541016
vt 0.908203 0.541016
vt 0.906250 0.550781
vt 0.888672 0.550781
vt 0.875000 0.531250
vt 0.908203 0.531250
vt 0.900391 0.541016
vt 0.925781 0.562500
vt 0.937500 0.562500
vt 0.937500 0.625000
vt 0.925781 0.625000
vt 0.882812 0.541016
vt 0.900391 0.541016
vt 0.906250 0.550781
vt 0.888672 0.550781
vt 0.875000 0.531250
vt 0.908203 0.531250
vt 0.875000 0.554688
vt 0.937500 0.554688
vt 0.937500 0.562500
vt 0.875000 0.562500
vt 0.937500 0.546875
vt 0.875000 0.546875
vt 0.875000 0.554688
vt 0.937500 0.554688
vt 0.937500 0.554688
vt 0.937500 0.562500
vt 0.875000 0.562500
vt 0.937500 0.546875
vt 0.875000 0.546875
vt 0.875000 0.554688
vt 0.921875 0.562500
vt 0.929688 0.554688
vt 0.916016 0.554688
vt 0.902344 0.544922
vt 0.916016 0.544922
vt 0.906250 0.554688
vt 0.921875 0.562500
vt 0.929688 0.554688
vt 0.916016 0.554688
vt 0.916016 0.544922
vt 0.902344 0.544922
vt 0.906250 0.554688
vt 0.916016 0.554688
vt 0.875000 0.562500
vt 0.937500 0.562500
vt 0.937500 0.625000
vt 0.875000 0.625000
vt 0.875000 0.562500
vt 0.937500 0.562500
vt 0.937500 0.625000
vt 0.875000 0.625000
vt 0.925781 0.562500
vt 0.937500 0.562500
vt 0.937500 0.625000
vt 0.925781 0.625000
vt 0.925781 0.562500
vt 0.937500 0.562500
vt 0.937500 0.625000
vt 0.925781 0.625000
vn 0.1623 0.9591 0.2317
vn 0.1980 0.9599 0.1985
vn 0.3277 0.8858 0.3285
vn 0.2536 0.8909 0.3767
vn 0.4927 0.4434 0.7487
vn 0.6382 0.4301 0.6386
vn 0.7073 0.0000 0.7069
vn 0.5557 0.0000 0.8314
vn 0.2335 0.9587 0.1624
vn 0.3748 0.8932 0.2485
vn 0.7498 0.4464 0.4884
vn 0.8314 0.0000 0.5557
vn 0.3465 0.4454 0.8256
vn 0.3827 0.0000 0.9239
vn 0.1766 0.8924 0.4153
vn 0.1168 0.9541 0.2758
vn 0.8287 0.4448 0.3398
vn 0.9236 0.0000 0.3833
vn 0.4216 0.8905 0.1710
vn 0.2773 0.9541 0.1132
vn 0.3202 0.8131 0.4862
vn 0.3959 0.8287 0.3956
vn 0.2825 0.9168 0.2823
vn 0.2460 0.9156 0.3180
vn 0.5217 0.3667 0.7703
vn 0.6524 0.3865 0.6520
vn 0.4861 0.8131 0.3203
vn 0.3180 0.9156 0.2461
vn 0.7702 0.3668 0.5218
vn 0.2377 0.7851 0.5720
vn 0.3611 0.3325 0.8712
vn 0.5717 0.7852 0.2382
vn 0.8710 0.3325 0.3618
usemtl frostland_tilesheet
s 1
f 1/1/1 2/2/2 3/3/3 4/4/4
f 5/5/5 6/6/6 7/7/7 8/8/8
f 4/9/4 3/10/3 6/11/6 5/12/5
f 2/13/2 9/14/9 10/15/10 3/16/3
f 6/17/6 11/18/11 12/19/12 7/20/7
f 3/21/3 10/22/10 11/23/11 6/24/6
f 13/25/13 5/26/5 8/27/8 14/28/14
f 15/29/15 4/30/4 5/31/5 13/32/13
f 16/33/16 1/34/1 4/35/4 15/29/15
f 11/36/11 17/37/17 18/38/18 12/39/12
f 10/40/10 19/41/19 17/42/17 11/43/11
f 9/44/9 20/45/20 19/41/19 10/40/10
f 21/46/21 22/47/22 23/48/23 24/49/24
f 25/50/25 26/51/26 22/52/22 21/53/21
f 22/52/22 27/54/27 28/55/28 23/56/23
f 26/57/26 29/58/29 27/59/27 22/47/22
f 24/60/24 30/61/30 21/62/21
f 31/63/31 25/64/25 21/62/21 30/65/30
f 28/66/28 27/67/27 32/68/32
f 29/69/29 33/70/33 32/71/32 27/72/27
f 8/73/8 7/74/7 26/75/26 25/76/25
f 7/77/7 12/78/12 29/79/29 26/80/26
f 14/81/14 8/82/8 25/83/25 31/84/31
f 12/85/12 18/86/18 33/87/33 29/88/29
