# Blender v2.93.5 OBJ File: 'Frostlands.blend'
# www.blender.org
mtllib SM_LIce_Cliff_Corner_02.mtl
o Cube.045_export_temp_Cube.061
v -1.249851 0.049865 1.076159
v -0.249851 0.049865 1.080792
v -0.249851 0.131935 0.978474
v -1.249851 0.131935 0.978474
v -0.249851 0.971760 0.978474
v -1.249851 0.971871 0.978474
v -1.249851 0.000112 1.250000
v -0.249851 0.000112 1.250000
v 0.103702 0.000000 1.103553
v 0.603554 0.000000 0.603405
v 0.480630 0.049754 0.480481
v -0.019222 0.049754 0.980629
v -0.088296 0.131823 0.911555
v 0.411555 0.131823 0.411407
v 0.411555 0.971760 0.411407
v -0.088297 0.971760 0.911555
v 1.103405 0.000000 0.103256
v 0.983757 0.049754 -0.016392
v 0.911407 0.131823 -0.088742
v 0.911407 0.971760 -0.088742
v 1.076011 0.049865 -0.250000
v 1.080644 0.049865 -1.250000
v 0.978326 0.131935 -1.250000
v 0.978326 0.131935 -0.250000
v 0.978325 0.971871 -1.250000
v 0.978326 0.971871 -0.250000
v 1.249851 0.000112 -0.250000
v 1.249851 0.000112 -1.250000
v 0.978325 1.851294 -0.250000
v 0.911407 1.851182 -0.088742
v -0.088297 1.851182 0.911555
v -0.249851 1.851294 0.978474
v -1.249851 1.851294 0.978474
v -0.249851 1.939759 0.888551
v -1.249851 1.939759 0.888551
v -0.249851 2.000000 0.750000
v -1.249851 2.000112 0.750000
v -0.151881 1.939647 0.847970
v 0.347970 1.939647 0.347821
v 0.250000 2.000000 0.249851
v 0.411555 1.851182 0.411407
v 0.847821 1.939647 -0.152327
v 0.749851 2.000000 -0.250297
v 0.978325 1.851294 -1.250000
v 0.888402 1.939759 -1.250000
v 0.888402 1.939759 -0.250000
v 0.749851 2.000112 -1.250000
vt 0.937500 0.476562
vt 1.000000 0.476562
vt 1.000000 0.484375
vt 0.937500 0.484375
vt 0.937500 0.500000
vt 1.000000 0.500000
vt 1.000000 0.562500
vt 0.937500 0.562500
vt 0.937500 0.468750
vt 1.000000 0.468750
vt 1.000000 0.478516
vt 0.937500 0.478516
vt 1.000000 0.468750
vt 0.937500 0.468750
vt 0.937500 0.478516
vt 1.000000 0.478516
vt 0.937500 0.500000
vt 1.000000 0.500000
vt 1.000000 0.562500
vt 0.937500 0.562500
vt 1.000000 0.476562
vt 0.937500 0.476562
vt 0.937500 0.484375
vt 1.000000 0.484375
vt 1.000000 0.468750
vt 1.000000 0.478516
vt 0.937500 0.500000
vt 1.000000 0.500000
vt 1.000000 0.562500
vt 0.937500 0.562500
vt 1.000000 0.476562
vt 1.000000 0.484375
vt 0.937500 0.476562
vt 1.000000 0.476562
vt 1.000000 0.484375
vt 0.937500 0.484375
vt 0.937500 0.500000
vt 1.000000 0.500000
vt 1.000000 0.562500
vt 0.937500 0.562500
vt 1.000000 0.468750
vt 0.937500 0.468750
vt 0.937500 0.478516
vt 1.000000 0.478516
vt 0.955078 0.500000
vt 0.968750 0.500000
vt 0.968750 0.562500
vt 0.955078 0.562500
vt 0.953125 0.500000
vt 0.970703 0.500000
vt 0.970703 0.562500
vt 0.953125 0.562500
vt 0.953125 0.500000
vt 0.970703 0.500000
vt 0.970703 0.562500
vt 0.953125 0.562500
vt 0.962891 0.476562
vt 0.982422 0.476562
vt 0.978516 0.484375
vt 0.966797 0.484375
vt 0.957031 0.468750
vt 0.988281 0.468750
vt 0.984375 0.478516
vt 0.960938 0.478516
vt 0.955078 0.500000
vt 0.968750 0.500000
vt 0.968750 0.562500
vt 0.955078 0.562500
vt 0.962891 0.476562
vt 0.982422 0.476562
vt 0.978516 0.484375
vt 0.966797 0.484375
vt 0.957031 0.468750
vt 0.988281 0.468750
vt 0.984375 0.478516
vt 0.960938 0.478516
vt 1.000000 0.484375
vt 0.937500 0.484375
vt 0.937500 0.492188
vt 1.000000 0.492188
vt 0.937500 0.500000
vt 1.000000 0.500000
vt 1.000000 0.492188
vt 0.937500 0.492188
vt 0.937500 0.500000
vt 1.000000 0.500000
vt 1.000000 0.484375
vt 0.937500 0.484375
vt 1.000000 0.492188
vt 0.937500 0.492188
vt 0.937500 0.500000
vt 1.000000 0.500000
vt 1.000000 0.484375
vt 0.937500 0.484375
vt 1.000000 0.484375
vt 0.937500 0.484375
vt 0.937500 0.492188
vt 1.000000 0.492188
vt 0.937500 0.500000
vt 1.000000 0.500000
vt 0.974609 0.500000
vt 0.966797 0.490234
vt 0.982422 0.490234
vt 0.962891 0.486328
vt 0.972656 0.486328
vt 0.972656 0.492188
vt 0.962891 0.492188
vt 0.974609 0.500000
vt 0.966797 0.490234
vt 0.982422 0.490234
vt 0.972656 0.486328
vt 0.962891 0.486328
vt 0.962891 0.492188
vt 0.972656 0.492188
vt 0.937500 0.500000
vt 1.000000 0.500000
vt 1.000000 0.562500
vt 0.937500 0.562500
vt 0.937500 0.500000
vt 1.000000 0.500000
vt 1.000000 0.562500
vt 0.937500 0.562500
vt 0.937500 0.500000
vt 1.000000 0.500000
vt 1.000000 0.562500
vt 0.937500 0.562500
vt 0.937500 0.500000
vt 1.000000 0.500000
vt 1.000000 0.562500
vt 0.937500 0.562500
vn -0.0011 0.8845 0.4665
vn 0.0892 0.8926 0.4420
vn 0.1846 0.4440 0.8768
vn -0.0008 0.4276 0.9040
vn 0.1951 0.0000 0.9808
vn -0.0000 0.0000 1.0000
vn -0.0006 0.9604 0.2786
vn 0.0502 0.9593 0.2779
vn 0.1613 0.9597 0.2300
vn 0.1955 0.9609 0.1960
vn 0.3305 0.8837 0.3314
vn 0.2551 0.8903 0.3773
vn 0.4942 0.4410 0.7492
vn 0.6399 0.4249 0.6403
vn 0.7073 0.0000 0.7069
vn 0.5557 0.0000 0.8314
vn 0.2318 0.9593 0.1614
vn 0.3752 0.8926 0.2500
vn 0.7502 0.4441 0.4899
vn 0.8314 0.0000 0.5557
vn 0.4455 0.8910 0.0874
vn 0.4655 0.8850 0.0011
vn 0.9040 0.4276 0.0008
vn 0.8778 0.4433 0.1816
vn 1.0000 0.0000 -0.0000
vn 0.9807 0.0000 0.1954
vn 0.2785 0.9592 0.0493
vn 0.2786 0.9604 0.0006
vn 0.9134 0.3669 0.1764
vn 0.7702 0.3668 0.5218
vn 0.5217 0.3667 0.7703
vn 0.1761 0.3669 0.9134
vn -0.0000 0.3865 0.9223
vn 0.1181 0.8132 0.5699
vn 0.0000 0.8288 0.5596
vn 0.1469 0.9237 0.3539
vn 0.0001 0.9169 0.3990
vn 0.3202 0.8131 0.4862
vn 0.3959 0.8287 0.3956
vn 0.2825 0.9168 0.2823
vn 0.6524 0.3865 0.6520
vn 0.4861 0.8131 0.3203
vn 0.3539 0.9237 0.1468
vn 0.9223 0.3865 -0.0000
vn 0.5596 0.8288 0.0000
vn 0.5698 0.8132 0.1184
vn 0.3990 0.9169 0.0001
usemtl frostland_tilesheet
s 1
f 1/1/1 2/2/2 3/3/3 4/4/4
f 4/5/4 3/6/3 5/7/5 6/8/6
f 7/9/7 8/10/8 2/11/2 1/12/1
f 9/13/9 10/14/10 11/15/11 12/16/12
f 13/17/13 14/18/14 15/19/15 16/20/16
f 12/21/12 11/22/11 14/23/14 13/24/13
f 10/14/10 17/25/17 18/26/18 11/15/11
f 14/27/14 19/28/19 20/29/20 15/30/15
f 11/22/11 18/31/18 19/32/19 14/23/14
f 21/33/21 22/34/22 23/35/23 24/36/24
f 24/37/24 23/38/23 25/39/25 26/40/26
f 27/41/27 28/42/28 22/43/22 21/44/21
f 20/45/20 26/46/26 29/47/29 30/48/30
f 5/49/5 16/50/16 31/51/31 32/52/32
f 3/53/3 13/54/13 16/55/16 5/56/5
f 2/57/2 12/58/12 13/59/13 3/60/3
f 8/61/8 9/62/9 12/63/12 2/64/2
f 19/65/19 24/66/24 26/67/26 20/68/20
f 18/69/18 21/70/21 24/71/24 19/72/19
f 17/73/17 27/74/27 21/75/21 18/76/18
f 33/77/33 32/78/32 34/79/34 35/80/35
f 35/80/35 34/79/34 36/81/36 37/82/37
f 38/83/38 39/84/39 40/85/40 36/86/36
f 31/87/31 41/88/41 39/84/39 38/83/38
f 39/89/39 42/90/42 43/91/43 40/92/40
f 41/93/41 30/94/30 42/90/42 39/89/39
f 29/95/29 44/96/44 45/97/45 46/98/46
f 46/98/46 45/97/45 47/99/47 43/100/43
f 36/101/36 34/102/34 38/103/38
f 32/104/32 31/105/31 38/106/38 34/107/34
f 43/108/43 42/109/42 46/110/46
f 30/111/30 29/112/29 46/113/46 42/114/42
f 26/115/26 25/116/25 44/117/44 29/118/29
f 15/119/15 20/120/20 30/121/30 41/122/41
f 16/123/16 15/124/15 41/125/41 31/126/31
f 6/127/6 5/128/5 32/129/32 33/130/33
