# Blender v2.93.5 OBJ File: 'Frostlands.blend'
# www.blender.org
mtllib SM_SSnow_Cliff_Corner_04.mtl
o Cube.020_export_temp_Cube.061
v -0.500000 0.049753 -0.173840
v 0.173841 0.049753 -0.169209
v 0.271526 0.131823 -0.271526
v -0.500000 0.131823 -0.271526
v -0.500000 0.000000 0.000000
v 0.000000 0.000000 0.000000
v 0.000000 0.000000 0.500000
v 0.169209 0.049753 0.500000
v 0.271526 0.131823 0.500000
v 0.271526 1.000000 0.500000
v 0.271526 1.000000 -0.271526
v -0.500000 1.000000 -0.271526
v 0.271526 1.088465 -0.361450
v -0.500000 1.088465 -0.361450
v 0.271526 1.148818 -0.500000
v -0.500000 1.148818 -0.500000
v 0.361448 1.088465 0.500000
v 0.361448 1.088465 -0.271526
v 0.500000 1.148818 0.500000
v 0.500000 1.148818 -0.271526
v 0.361448 1.088465 -0.361450
v 0.500000 1.148818 -0.500000
vt 0.937500 0.593750
vt 1.000000 0.593750
vt 1.000000 0.601562
vt 0.937500 0.601562
vt 0.937500 0.562500
vt 1.000000 0.562500
vt 1.000000 0.625000
vt 0.937500 0.625000
vt 0.875000 0.531250
vt 0.919922 0.531250
vt 0.937500 0.539062
vt 0.875000 0.539062
vt 0.890625 0.531250
vt 0.937500 0.531250
vt 0.937500 0.539062
vt 0.875000 0.539062
vt 0.937500 0.593750
vt 1.000000 0.593750
vt 1.000000 0.601562
vt 0.937500 0.601562
vt 0.937500 0.562500
vt 1.000000 0.562500
vt 1.000000 0.625000
vt 0.937500 0.625000
vt 0.937500 0.601562
vt 1.000000 0.601562
vt 1.000000 0.609375
vt 0.937500 0.609375
vt 0.875000 0.554688
vt 0.937500 0.554688
vt 0.937500 0.562500
vt 0.875000 0.562500
vt 0.937500 0.601562
vt 1.000000 0.601562
vt 1.000000 0.609375
vt 0.937500 0.609375
vt 0.875000 0.554688
vt 0.937500 0.554688
vt 0.937500 0.562500
vt 0.875000 0.562500
vt 0.937500 0.544922
vt 0.937500 0.554688
vt 0.929688 0.554688
vt 0.925781 0.554688
vt 0.937500 0.562500
vt 0.914062 0.562500
vt 0.937500 0.539062
vt 0.916016 0.562500
vn -0.0016 0.8847 0.4661
vn -0.3019 0.9071 0.2933
vn -0.6387 0.4210 0.6441
vn -0.0011 0.4279 0.9038
vn -0.6824 0.2618 0.6825
vn -0.0000 0.1169 0.9931
vn -0.0011 0.9606 0.2781
vn -0.1421 0.9796 0.1420
vn -0.2791 0.9603 -0.0011
vn -0.4659 0.8848 -0.0016
vn -0.9042 0.4272 -0.0011
vn -0.9931 0.1169 -0.0001
vn -0.0000 0.8287 0.5597
vn -0.0000 0.9168 0.3994
vn -0.5597 0.8287 0.0000
vn -0.3994 0.9168 0.0000
vn -0.2637 0.9278 0.2637
vn -0.2082 0.9557 0.2082
usemtl frostland_tilesheet
s 1
f 1/1/1 2/2/2 3/3/3 4/4/4
f 4/5/4 3/6/3 11/7/5 12/8/6
f 5/9/7 6/10/8 2/11/2 1/12/1
f 6/13/8 7/14/9 8/15/10 2/16/2
f 2/17/2 8/18/10 9/19/11 3/20/3
f 3/21/3 9/22/11 10/23/12 11/24/5
f 12/25/6 11/26/5 13/27/13 14/28/13
f 14/29/13 13/30/13 15/31/14 16/32/14
f 11/33/5 10/34/12 17/35/15 18/36/15
f 18/37/15 17/38/15 19/39/16 20/40/16
f 11/41/5 18/42/15 21/43/17
f 21/44/17 18/42/15 20/45/16 22/46/18
f 13/30/13 11/47/5 21/43/17
f 13/30/13 21/44/17 22/48/18 15/31/14
