# Blender v2.93.5 OBJ File: 'Frostlands.blend'
# www.blender.org
mtllib SM_SDirt_Cliff_Corner_02.mtl
o Cube.043_export_temp_Cube.061
v -0.750000 0.049865 0.576160
v 0.250000 0.049865 0.580791
v 0.250000 0.131935 0.478474
v -0.750000 0.131935 0.478474
v -0.750000 0.000112 0.750000
v 0.250000 0.000112 0.750000
v 0.411554 1.131823 0.411556
v 0.478474 1.131935 0.250000
v 0.388550 1.220400 0.250000
v 0.347969 1.220288 0.347672
v 0.250000 1.280753 0.250000
v 0.250000 1.131935 0.478474
v 0.250000 1.220400 0.388550
v 0.388550 1.220400 -0.750000
v 0.250000 1.280753 -0.750000
v 0.478474 1.131935 -0.750000
v -0.750000 1.220400 0.388550
v -0.750000 1.280753 0.250000
v -0.750000 1.131935 0.478474
v 0.576159 0.049865 0.250000
v 0.580791 0.049865 -0.750000
v 0.478474 0.131935 0.250000
v 0.478474 0.131935 -0.750000
v 0.750000 0.000112 0.250000
v 0.750000 0.000112 -0.750000
v 0.411554 0.131823 0.411259
v 0.483906 0.049754 0.483608
v 0.603554 0.000000 0.603554
v 0.603554 0.000000 0.603256
vt 0.939453 0.578125
vt 1.001953 0.578125
vt 1.001953 0.585938
vt 0.939453 0.585938
vt 0.937500 0.500000
vt 0.875000 0.500000
vt 0.875000 0.507812
vt 0.937500 0.507812
vt 1.001953 0.587891
vt 0.990234 0.587891
vt 0.992188 0.593750
vt 1.001953 0.593750
vt 0.933594 0.531250
vt 0.929688 0.523438
vt 0.937500 0.523438
vt 0.939453 0.585938
vt 0.953125 0.585938
vt 0.951172 0.593750
vt 0.939453 0.593750
vt 0.880859 0.531250
vt 0.875000 0.523438
vt 0.886719 0.523438
vt 0.875000 0.523438
vt 0.937500 0.523438
vt 0.937500 0.531250
vt 0.875000 0.531250
vt 1.001953 0.585938
vt 0.939453 0.585938
vt 0.939453 0.593750
vt 1.001953 0.593750
vt 0.875000 0.523438
vt 0.937500 0.523438
vt 0.937500 0.531250
vt 0.875000 0.531250
vt 0.939453 0.585938
vt 1.001953 0.585938
vt 1.001953 0.593750
vt 0.939453 0.593750
vt 0.939453 0.578125
vt 1.001953 0.578125
vt 1.001953 0.585938
vt 0.939453 0.585938
vt 0.937500 0.500000
vt 0.875000 0.500000
vt 0.875000 0.507812
vt 0.937500 0.507812
vt 0.939453 0.578125
vt 0.957031 0.578125
vt 0.953125 0.585938
vt 0.943359 0.585938
vt 0.878906 0.500000
vt 0.898438 0.500000
vt 0.896484 0.507812
vt 0.880859 0.507812
vt 0.982422 0.580078
vt 1.001953 0.580078
vt 0.998047 0.587891
vt 0.986328 0.587891
vt 0.878906 0.500000
vt 0.902344 0.500000
vt 0.898438 0.507812
vt 0.882812 0.507812
vt 1.000000 0.625000
vt 0.990234 0.625000
vt 0.990234 0.562500
vt 1.000000 0.562500
vt 0.951172 0.625000
vt 0.937500 0.625000
vt 0.937500 0.562500
vt 0.951172 0.562500
vt 0.937500 0.562500
vt 1.000000 0.562500
vt 1.000000 0.625000
vt 0.937500 0.625000
vt 0.937500 0.562500
vt 1.000000 0.562500
vt 1.000000 0.625000
vt 0.937500 0.625000
vn -0.0011 0.8845 0.4665
vn 0.0875 0.8925 0.4424
vn 0.1961 0.1367 0.9710
vn -0.0007 0.1303 0.9915
vn -0.0006 0.9604 0.2786
vn 0.0500 0.9588 0.2796
vn 0.6607 0.3563 0.6607
vn 0.9134 0.3670 0.1762
vn 0.5700 0.8131 0.1183
vn 0.4171 0.8079 0.4164
vn 0.2324 0.9444 0.2325
vn 0.1764 0.3671 0.9133
vn 0.1186 0.8131 0.5699
vn 0.5597 0.8287 0.0000
vn 0.3994 0.9168 0.0000
vn 0.9223 0.3865 0.0000
vn -0.0000 0.8287 0.5597
vn -0.0000 0.9168 0.3994
vn -0.0000 0.3865 0.9223
vn 0.4455 0.8910 0.0874
vn 0.4655 0.8850 0.0011
vn 0.9915 0.1303 0.0002
vn 0.9713 0.1355 0.1955
vn 0.2785 0.9592 0.0493
vn 0.2786 0.9604 0.0006
vn 0.3003 0.9062 0.2976
vn 0.7003 0.1470 0.6985
vn 0.1164 0.9530 0.2798
vn 0.2773 0.9541 0.1132
usemtl frostland_tilesheet
s 1
f 1/1/1 2/2/2 3/3/3 4/4/4
f 5/5/5 6/6/6 2/7/2 1/8/1
f 7/9/7 8/10/8 9/11/9 10/12/10
f 11/13/11 10/14/10 9/15/9
f 12/16/12 7/17/7 10/18/10 13/19/13
f 11/20/11 13/21/13 10/22/10
f 9/23/9 14/24/14 15/25/15 11/26/11
f 8/27/8 16/28/16 14/29/14 9/30/9
f 17/31/17 13/32/13 11/33/11 18/34/18
f 19/35/19 12/36/12 13/37/13 17/38/17
f 20/39/20 21/40/21 23/41/22 22/42/23
f 24/43/24 25/44/25 21/45/21 20/46/20
f 2/47/2 27/48/26 26/49/27 3/50/3
f 6/51/6 28/52/28 27/53/26 2/54/2
f 27/55/26 20/56/20 22/57/23 26/58/27
f 29/59/29 24/60/24 20/61/20 27/62/26
f 8/63/8 7/64/7 26/65/27 22/66/23
f 7/67/7 12/68/12 3/69/3 26/70/27
f 22/71/23 23/72/22 16/73/16 8/74/8
f 4/75/4 3/76/3 12/77/12 19/78/19
