# Blender v2.93.5 OBJ File: 'Frostlands.blend'
# www.blender.org
mtllib SM_SSnow_Cliff_Corner_05.mtl
o Cube.015_export_temp_Cube.061
v -0.396298 0.000000 0.603703
v 0.103554 0.000000 0.103554
v -0.016094 0.049754 -0.016094
v -0.519222 0.049754 0.480778
v -0.088445 0.131823 -0.088444
v -0.588297 0.131823 0.411705
v 0.603405 0.000000 -0.396595
v 0.483757 0.049754 -0.516243
v 0.411407 0.131823 -0.588593
v -0.749851 0.131935 0.478622
v -0.749851 0.049865 0.580940
v -0.749851 0.000112 0.750149
v 0.478326 0.131935 -0.749851
v 0.576011 0.049865 -0.749851
v 0.749851 0.000112 -0.749851
v -0.651881 1.025657 0.348118
v -0.152030 1.025657 -0.152031
v -0.250000 1.086010 -0.250000
v -0.749851 1.086010 0.250149
v -0.588297 0.937192 0.411705
v -0.088445 0.937192 -0.088444
v 0.347821 1.025657 -0.652180
v 0.249851 1.086010 -0.750149
v 0.411407 0.937192 -0.588593
v -0.749851 1.025769 0.388699
v -0.749851 0.937304 0.478622
v 0.388402 1.025769 -0.749851
v 0.478325 0.937304 -0.749851
vt 0.875000 0.531250
vt 0.937500 0.531250
vt 0.937500 0.541016
vt 0.875000 0.541016
vt 0.875000 0.539062
vt 0.937500 0.539062
vt 0.937500 0.546875
vt 0.875000 0.546875
vt 0.875000 0.531250
vt 0.937500 0.531250
vt 0.937500 0.541016
vt 0.875000 0.541016
vt 0.875000 0.539062
vt 0.937500 0.539062
vt 0.937500 0.546875
vt 0.875000 0.546875
vt 0.882812 0.541016
vt 0.908203 0.541016
vt 0.906250 0.550781
vt 0.888672 0.550781
vt 0.875000 0.531250
vt 0.908203 0.531250
vt 0.900391 0.541016
vt 0.882812 0.541016
vt 0.900391 0.541016
vt 0.906250 0.550781
vt 0.888672 0.550781
vt 0.875000 0.531250
vt 0.908203 0.531250
vt 0.875000 0.554688
vt 0.937500 0.554688
vt 0.937500 0.562500
vt 0.875000 0.562500
vt 0.937500 0.546875
vt 0.875000 0.546875
vt 0.875000 0.554688
vt 0.937500 0.554688
vt 0.937500 0.554688
vt 0.937500 0.562500
vt 0.875000 0.562500
vt 0.937500 0.546875
vt 0.875000 0.546875
vt 0.875000 0.554688
vt 0.921875 0.562500
vt 0.929688 0.554688
vt 0.916016 0.554688
vt 0.902344 0.544922
vt 0.916016 0.544922
vt 0.906250 0.554688
vt 0.921875 0.562500
vt 0.929688 0.554688
vt 0.916016 0.554688
vt 0.916016 0.544922
vt 0.902344 0.544922
vt 0.906250 0.554688
vt 0.916016 0.554688
vt 0.875000 0.562500
vt 0.937500 0.562500
vt 0.937500 0.625000
vt 0.875000 0.625000
vt 0.875000 0.562500
vt 0.937500 0.562500
vt 0.937500 0.625000
vt 0.875000 0.625000
vt 0.925781 0.562500
vt 0.937500 0.562500
vt 0.937500 0.625000
vt 0.925781 0.625000
vt 0.925781 0.562500
vt 0.937500 0.562500
vt 0.937500 0.625000
vt 0.925781 0.625000
vn 0.1623 0.9591 0.2317
vn 0.1980 0.9599 0.1985
vn 0.3277 0.8858 0.3285
vn 0.2536 0.8909 0.3767
vn 0.7011 0.1311 0.7009
vn 0.5489 0.1356 0.8248
vn 0.2335 0.9587 0.1624
vn 0.3748 0.8932 0.2485
vn 0.8254 0.1366 0.5478
vn 0.1766 0.8924 0.4153
vn 0.3803 0.1362 0.9148
vn 0.1168 0.9541 0.2758
vn 0.4216 0.8905 0.1710
vn 0.9155 0.1360 0.3786
vn 0.2773 0.9541 0.1132
vn 0.3202 0.8131 0.4862
vn 0.3959 0.8287 0.3956
vn 0.2825 0.9168 0.2823
vn 0.2460 0.9156 0.3180
vn 0.5217 0.3667 0.7703
vn 0.6524 0.3865 0.6520
vn 0.4861 0.8131 0.3203
vn 0.3180 0.9156 0.2461
vn 0.7702 0.3668 0.5218
vn 0.2377 0.7851 0.5720
vn 0.3611 0.3325 0.8712
vn 0.5717 0.7852 0.2382
vn 0.8710 0.3325 0.3618
usemtl frostland_tilesheet
s 1
f 1/1/1 2/2/2 3/3/3 4/4/4
f 4/5/4 3/6/3 5/7/5 6/8/6
f 2/9/2 7/10/7 8/11/8 3/12/3
f 3/13/3 8/14/8 9/15/9 5/16/5
f 11/17/10 4/18/4 6/19/6 10/20/11
f 12/21/12 1/22/1 4/23/4 11/17/10
f 8/24/8 14/25/13 13/26/14 9/27/9
f 7/28/7 15/29/15 14/25/13 8/24/8
f 16/30/16 17/31/17 18/32/18 19/33/19
f 20/34/20 21/35/21 17/36/17 16/37/16
f 17/36/17 22/38/22 23/39/23 18/40/18
f 21/41/21 24/42/24 22/43/22 17/31/17
f 19/44/19 25/45/25 16/46/16
f 26/47/26 20/48/20 16/46/16 25/49/25
f 23/50/23 22/51/22 27/52/27
f 24/53/24 28/54/28 27/55/27 22/56/22
f 6/57/6 5/58/5 21/59/21 20/60/20
f 5/61/5 9/62/9 24/63/24 21/64/21
f 10/65/11 6/66/6 20/67/20 26/68/26
f 9/69/9 13/70/14 28/71/28 24/72/24
