# Blender v2.93.5 OBJ File: 'Frostlands.blend'
# www.blender.org
mtllib SM_SIce_Cliff.mtl
o Cube.026_export_temp_Cube.061
v -0.500000 0.049753 0.076160
v 0.500000 0.049753 0.080791
v 0.500000 0.131823 -0.021526
v -0.500000 0.131823 -0.021526
v 0.500000 0.851182 -0.021526
v -0.500000 0.851182 -0.021526
v -0.500000 0.000000 0.250000
v 0.500000 0.000000 0.250000
v 0.500000 0.939647 -0.111450
v -0.500000 0.939647 -0.111450
v 0.500000 1.000000 -0.250000
v -0.500000 1.000000 -0.250000
vt 0.937500 0.476562
vt 1.000000 0.476562
vt 1.000000 0.484375
vt 0.937500 0.484375
vt 0.937500 0.500000
vt 1.000000 0.500000
vt 1.000000 0.562500
vt 0.937500 0.562500
vt 0.937500 0.468750
vt 1.000000 0.468750
vt 1.000000 0.484375
vt 0.937500 0.484375
vt 0.937500 0.492188
vt 1.000000 0.492188
vt 0.937500 0.500000
vt 1.000000 0.500000
vn -0.0011 0.8845 0.4665
vn -0.0011 0.8850 0.4655
vn -0.0008 0.4276 0.9040
vn -0.0000 0.3865 0.9223
vn -0.0006 0.9604 0.2786
vn -0.0000 0.8287 0.5597
vn -0.0000 0.9168 0.3994
usemtl frostland_tilesheet
s 1
f 1/1/1 2/2/2 3/3/3 4/4/3
f 4/5/3 3/6/3 5/7/4 6/8/4
f 7/9/5 8/10/5 2/2/2 1/1/1
f 6/11/4 5/12/4 9/13/6 10/14/6
f 10/14/6 9/13/6 11/15/7 12/16/7
