# Blender v2.93.5 OBJ File: 'Frostlands.blend'
# www.blender.org
mtllib SM_LIce_Landmass_03.mtl
o Cube.097_export_temp_Cube.061
v -1.563889 1.062500 -0.037189
v -1.465408 1.062500 0.749043
v -1.465408 1.779920 0.749043
v -1.436111 1.779920 -0.037189
v -1.290062 0.145276 -0.037189
v -1.319351 0.301526 0.686543
v -0.436111 0.000000 -0.037189
v -0.436111 0.166246 0.863186
v 0.563889 0.000000 -0.037189
v 0.563889 0.166246 0.792553
v 1.330990 0.230633 -0.037189
v 1.156792 0.386883 0.667324
v 1.563889 1.062500 -0.037189
v 1.389687 1.062500 0.729828
v 1.563889 1.779920 -0.037189
v 1.389687 1.779920 0.729828
v 0.977444 0.418133 -0.922787
v 1.210342 1.062500 -0.922787
v 1.210342 1.779920 -0.922787
v 0.563889 0.233441 -1.001617
v -0.436111 0.233441 -0.906578
v -1.123474 0.332776 -0.930473
v -1.269524 1.062500 -0.930473
v -1.269524 1.779920 -0.930473
v -0.464058 1.137683 -1.018871
v 0.527401 1.023157 -1.113186
v 0.563889 1.779920 -1.113186
v -0.436111 1.779920 -1.018147
v 0.510010 0.962345 1.042553
v -0.490021 1.085757 1.113186
v -0.436111 1.779920 1.113186
v 0.563889 1.779920 1.042553
v -0.466751 1.983616 1.045616
v -1.351158 1.962628 0.673897
v 0.644726 1.992723 0.920540
v 1.255489 2.029920 0.640362
v 1.429691 2.029920 -0.037189
v 1.076145 2.029920 -0.833321
v 0.537724 2.013676 -1.044441
v -0.391762 1.955995 -0.888252
v -1.151199 1.936550 -0.857925
v -1.321251 1.908489 -0.037376
v -0.391762 2.068238 -0.037376
v 0.534538 2.030883 -0.028751
vt 0.937500 0.500000
vt 1.000000 0.500000
vt 1.000000 0.562500
vt 0.937500 0.562500
vt 0.937500 0.500000
vt 1.000000 0.500000
vt 1.000000 0.562500
vt 0.937500 0.562500
vt 0.937500 0.500000
vt 1.000000 0.500000
vt 1.000000 0.562500
vt 0.937500 0.562500
vt 0.937500 0.500000
vt 1.000000 0.500000
vt 1.000000 0.562500
vt 0.937500 0.562500
vt 0.937500 0.500000
vt 1.000000 0.500000
vt 1.000000 0.562500
vt 0.937500 0.562500
vt 0.937500 0.500000
vt 1.000000 0.500000
vt 1.000000 0.562500
vt 0.937500 0.562500
vt 0.937500 0.500000
vt 1.000000 0.500000
vt 1.000000 0.562500
vt 0.937500 0.562500
vt 0.937500 0.500000
vt 1.000000 0.500000
vt 1.000000 0.562500
vt 0.937500 0.562500
vt 0.937500 0.500000
vt 1.000000 0.500000
vt 1.000000 0.562500
vt 0.937500 0.562500
vt 0.937500 0.500000
vt 1.000000 0.500000
vt 1.000000 0.562500
vt 0.937500 0.562500
vt 1.000000 0.500000
vt 1.000000 0.562500
vt 0.937500 0.562500
vt 0.937500 0.500000
vt 1.000000 0.562500
vt 0.937500 0.562500
vt 0.937500 0.500000
vt 1.000000 0.500000
vt 1.000000 0.562500
vt 0.937500 0.562500
vt 0.937500 0.500000
vt 1.000000 0.500000
vt 1.000000 0.562500
vt 0.937500 0.562500
vt 1.000000 0.500000
vt 1.000000 0.562500
vt 0.937500 0.562500
vt 0.937500 0.500000
vt 1.000000 0.562500
vt 0.937500 0.562500
vt 0.937500 0.500000
vt 1.000000 0.562500
vt 0.937500 0.562500
vt 0.937500 0.500000
vt 1.000000 0.500000
vt 1.000000 0.562500
vt 0.937500 0.562500
vt 0.937500 0.500000
vt 1.000000 0.500000
vt 1.000000 0.562500
vt 0.937500 0.562500
vt 0.937500 0.500000
vt 1.000000 0.500000
vt 1.000000 0.562500
vt 0.937500 0.562500
vt 1.000000 0.500000
vt 1.000000 0.562500
vt 0.937500 0.562500
vt 1.000000 0.500000
vt 1.000000 0.562500
vt 0.937500 0.562500
vt 0.937500 0.500000
vt 1.000000 0.562500
vt 0.937500 0.562500
vt 0.937500 0.500000
vt 1.000000 0.500000
vt 1.000000 0.562500
vt 0.937500 0.562500
vt 0.937500 0.500000
vt 1.000000 0.500000
vt 1.000000 0.562500
vt 0.937500 0.562500
vt 0.937500 0.500000
vt 1.000000 0.500000
vt 1.000000 0.562500
vt 0.937500 0.562500
vt 0.937500 0.482422
vt 1.000000 0.482422
vt 1.000000 0.500000
vt 0.937500 0.500000
vt 0.937500 0.482422
vt 1.000000 0.482422
vt 1.000000 0.500000
vt 0.937500 0.500000
vt 0.937500 0.482422
vt 1.000000 0.482422
vt 1.000000 0.500000
vt 0.937500 0.500000
vt 0.937500 0.482422
vt 1.000000 0.482422
vt 1.000000 0.500000
vt 0.937500 0.500000
vt 0.937500 0.482422
vt 1.000000 0.482422
vt 1.000000 0.500000
vt 0.937500 0.500000
vt 0.937500 0.482422
vt 1.000000 0.482422
vt 1.000000 0.500000
vt 0.937500 0.500000
vt 0.937500 0.482422
vt 1.000000 0.482422
vt 1.000000 0.500000
vt 0.937500 0.500000
vt 0.937500 0.482422
vt 1.000000 0.482422
vt 1.000000 0.500000
vt 0.937500 0.500000
vt 0.937500 0.482422
vt 1.000000 0.482422
vt 1.000000 0.500000
vt 0.937500 0.500000
vt 0.937500 0.482422
vt 1.000000 0.482422
vt 1.000000 0.500000
vt 0.937500 0.500000
vt 0.937500 0.937500
vt 1.000000 0.937500
vt 1.000000 1.000000
vt 0.937500 1.000000
vt 0.937500 0.937500
vt 1.000000 0.937500
vt 1.000000 1.000000
vt 0.937500 1.000000
vt 0.937500 0.937500
vt 1.000000 0.937500
vt 1.000000 1.000000
vt 0.937500 1.000000
vt 0.937500 0.937500
vt 1.000000 0.937500
vt 1.000000 1.000000
vt 0.937500 1.000000
vt 0.937500 0.937500
vt 1.000000 0.937500
vt 1.000000 1.000000
vt 0.937500 1.000000
vt 0.937500 0.937500
vt 1.000000 0.937500
vt 1.000000 1.000000
vt 0.937500 1.000000
vn -0.9919 -0.0778 -0.1008
vn -0.7953 -0.1025 0.5975
vn -0.7748 0.2971 0.5580
vn -0.9262 0.3625 -0.1036
vn -0.6534 -0.7540 -0.0668
vn -0.6215 -0.5845 0.5216
vn -0.0835 -0.9961 -0.0284
vn -0.1114 -0.7150 0.6902
vn 0.1678 -0.9855 -0.0251
vn 0.1979 -0.7272 0.6573
vn 0.7306 -0.6812 -0.0475
vn 0.5936 -0.5565 0.5813
vn 0.9862 -0.1485 -0.0726
vn 0.7485 -0.1443 0.6472
vn 0.9646 0.2533 -0.0732
vn 0.7355 0.2384 0.6342
vn 0.5400 -0.5003 -0.6768
vn 0.6821 -0.1128 -0.7225
vn 0.6654 0.2282 -0.7107
vn 0.1373 -0.6634 -0.7356
vn -0.0941 -0.6778 -0.7292
vn -0.4852 -0.5385 -0.6889
vn -0.6541 -0.0716 -0.7530
vn -0.6329 0.3574 -0.6869
vn -0.0876 -0.0462 -0.9951
vn 0.0797 -0.0659 -0.9946
vn 0.0984 0.2092 -0.9729
vn -0.1018 0.2578 -0.9608
vn 0.1919 -0.1426 0.9710
vn -0.1358 -0.1134 0.9842
vn -0.1188 0.2056 0.9714
vn 0.2007 0.2038 0.9582
vn -0.1175 0.7902 0.6015
vn -0.4997 0.7985 0.3356
vn 0.1561 0.8042 0.5735
vn 0.4273 0.8092 0.4033
vn 0.5584 0.8283 -0.0457
vn 0.3829 0.8033 -0.4562
vn 0.0440 0.7958 -0.6040
vn -0.0910 0.8502 -0.5185
vn -0.3369 0.8331 -0.4386
vn -0.5008 0.8630 -0.0668
vn -0.0504 0.9986 -0.0143
vn -0.0064 1.0000 0.0024
usemtl frostland_tilesheet
s 1
f 1/1/1 2/2/2 3/3/3 4/4/4
f 5/5/5 6/6/6 2/7/2 1/8/1
f 7/9/7 8/10/8 6/11/6 5/12/5
f 8/13/8 7/14/7 9/15/9 10/16/10
f 10/17/10 9/18/9 11/19/11 12/20/12
f 12/21/12 11/22/11 13/23/13 14/24/14
f 14/25/14 13/26/13 15/27/15 16/28/16
f 11/29/11 17/30/17 18/31/18 13/32/13
f 13/33/13 18/34/18 19/35/19 15/36/15
f 9/37/9 20/38/20 17/39/17 11/40/11
f 7/9/7 21/41/21 20/42/20 9/43/9
f 21/44/21 7/14/7 5/45/5 22/46/22
f 22/47/22 5/48/5 1/49/1 23/50/23
f 23/51/23 1/52/1 4/53/4 24/54/24
f 21/44/21 22/55/22 23/56/23 25/57/25
f 20/58/20 21/41/21 25/59/25 26/60/26
f 17/61/17 20/38/20 26/62/26 18/63/18
f 18/64/18 26/65/26 27/66/27 19/67/19
f 26/68/26 25/69/25 28/70/28 27/71/27
f 25/72/25 23/73/23 24/74/24 28/75/28
f 10/17/10 12/76/12 14/77/14 29/78/29
f 8/13/8 10/79/10 29/80/29 30/81/30
f 6/82/6 8/10/8 30/83/30 2/84/2
f 2/85/2 30/86/30 31/87/31 3/88/3
f 30/89/30 29/90/29 32/91/32 31/92/31
f 29/93/29 14/94/14 16/95/16 32/96/32
f 3/97/3 31/98/31 33/99/33 34/100/34
f 31/101/31 32/102/32 35/103/35 33/104/33
f 32/105/32 16/106/16 36/107/36 35/108/35
f 16/109/16 15/110/15 37/111/37 36/112/36
f 15/113/15 19/114/19 38/115/38 37/116/37
f 19/117/19 27/118/27 39/119/39 38/120/38
f 27/121/27 28/122/28 40/123/40 39/124/39
f 28/125/28 24/126/24 41/127/41 40/128/40
f 24/129/24 4/130/4 42/131/42 41/132/41
f 4/133/4 3/134/3 34/135/34 42/136/42
f 42/137/42 34/138/34 33/139/33 43/140/43
f 41/141/41 42/142/42 43/143/43 40/144/40
f 40/145/40 43/146/43 44/147/44 39/148/39
f 43/149/43 33/150/33 35/151/35 44/152/44
f 44/153/44 35/154/35 36/155/36 37/156/37
f 39/157/39 44/158/44 37/159/37 38/160/38
