# Blender v2.93.5 OBJ File: 'Frostlands.blend'
# www.blender.org
mtllib SM_LIce_Landmass_02.mtl
o Cube.089_export_temp_Cube.061
v -0.015625 1.343750 0.093750
v -0.015625 1.312500 -1.218750
v -1.015625 1.312500 -0.906250
v -1.265625 1.312500 0.093750
v 1.265625 1.312500 0.093750
v 0.828125 1.187500 -0.843750
v 0.765625 1.312500 1.000000
v -0.140625 1.312500 1.281250
v -1.015625 1.187500 1.093750
v 0.993938 0.937500 -1.009563
v -0.015625 1.062500 -1.384563
v -1.181438 1.062500 -1.072063
v -1.431438 1.062500 0.093750
v -1.181438 0.937500 1.259563
v -0.140625 1.062500 1.447063
v 0.931438 1.062500 1.165813
v 1.431438 1.062500 0.093750
v 1.109745 0.250000 1.312870
v 1.578495 0.250000 0.093750
v 1.297245 0.250001 -1.219120
v -0.015625 0.250001 -1.531620
v -1.328495 0.250001 -1.219120
v -1.578495 0.250000 0.093750
v -1.328495 0.250000 1.406620
v -0.015625 0.250000 1.531620
v -1.545399 0.000000 1.623524
v -0.015625 0.000000 1.748524
v 1.326649 0.000000 1.529774
v 1.795399 0.000000 0.093750
v 1.514149 0.000001 -1.436024
v -0.015625 0.000001 -1.748524
v -1.545399 0.000001 -1.436024
v -1.795399 0.000000 0.093750
vt 0.937500 0.937500
vt 1.000000 0.937500
vt 1.000000 1.000000
vt 0.937500 1.000000
vt 0.937500 0.937500
vt 1.000000 0.937500
vt 1.000000 1.000000
vt 0.937500 1.000000
vt 0.937500 0.937500
vt 1.000000 0.937500
vt 1.000000 1.000000
vt 0.937500 1.000000
vt 0.937500 0.937500
vt 1.000000 0.937500
vt 1.000000 1.000000
vt 0.937500 1.000000
vt 0.937500 0.482422
vt 1.000000 0.482422
vt 1.000000 0.500000
vt 0.937500 0.500000
vt 0.937500 0.482422
vt 1.000000 0.482422
vt 1.000000 0.500000
vt 0.937500 0.500000
vt 0.937500 0.482422
vt 1.000000 0.482422
vt 1.000000 0.500000
vt 0.937500 0.500000
vt 0.937500 0.482422
vt 1.000000 0.482422
vt 1.000000 0.500000
vt 0.937500 0.500000
vt 0.937500 0.482422
vt 1.000000 0.482422
vt 1.000000 0.500000
vt 0.937500 0.500000
vt 0.937500 0.482422
vt 1.000000 0.482422
vt 1.000000 0.500000
vt 0.937500 0.500000
vt 0.937500 0.482422
vt 1.000000 0.482422
vt 1.000000 0.500000
vt 0.937500 0.500000
vt 0.937500 0.482422
vt 1.000000 0.482422
vt 1.000000 0.500000
vt 0.937500 0.500000
vt 0.937500 0.500000
vt 1.000000 0.500000
vt 1.000000 0.562500
vt 0.937500 0.562500
vt 0.937500 0.500000
vt 1.000000 0.500000
vt 1.000000 0.562500
vt 0.937500 0.562500
vt 0.937500 0.500000
vt 1.000000 0.500000
vt 1.000000 0.562500
vt 0.937500 0.562500
vt 0.937500 0.500000
vt 1.000000 0.500000
vt 1.000000 0.562500
vt 0.937500 0.562500
vt 0.937500 0.500000
vt 1.000000 0.500000
vt 1.000000 0.562500
vt 0.937500 0.562500
vt 0.937500 0.500000
vt 1.000000 0.500000
vt 1.000000 0.562500
vt 0.937500 0.562500
vt 0.937500 0.500000
vt 1.000000 0.500000
vt 1.000000 0.562500
vt 0.937500 0.562500
vt 0.937500 0.500000
vt 1.000000 0.500000
vt 1.000000 0.562500
vt 0.937500 0.562500
vt 0.937500 0.468750
vt 1.000000 0.468750
vt 1.000000 0.484375
vt 0.937500 0.484375
vt 0.937500 0.468750
vt 1.000000 0.468750
vt 1.000000 0.484375
vt 0.937500 0.484375
vt 0.937500 0.468750
vt 1.000000 0.468750
vt 1.000000 0.484375
vt 0.937500 0.484375
vt 0.937500 0.468750
vt 1.000000 0.468750
vt 1.000000 0.484375
vt 0.937500 0.484375
vt 0.937500 0.468750
vt 1.000000 0.468750
vt 1.000000 0.484375
vt 0.937500 0.484375
vt 0.937500 0.468750
vt 1.000000 0.468750
vt 1.000000 0.484375
vt 0.937500 0.484375
vt 0.937500 0.468750
vt 1.000000 0.468750
vt 1.000000 0.484375
vt 0.937500 0.484375
vt 0.937500 0.468750
vt 1.000000 0.468750
vt 1.000000 0.484375
vt 0.937500 0.484375
vn 0.0039 1.0000 -0.0024
vn 0.0604 0.8559 -0.5137
vn -0.3861 0.8489 -0.3609
vn -0.5075 0.8611 0.0306
vn 0.5233 0.8521 -0.0103
vn 0.4009 0.8215 -0.4055
vn 0.3240 0.8544 0.4063
vn -0.0137 0.8610 0.5083
vn -0.4047 0.8146 0.4155
vn 0.6186 0.4509 -0.6435
vn 0.0481 0.4334 -0.8999
vn -0.6577 0.4176 -0.6269
vn -0.9125 0.4086 0.0184
vn -0.6300 0.3965 0.6677
vn 0.0086 0.3939 0.9191
vn 0.5818 0.4104 0.7022
vn 0.8895 0.4564 0.0226
vn 0.5360 0.5478 0.6423
vn 0.8487 0.5262 0.0533
vn 0.5756 0.6007 -0.5548
vn 0.0116 0.5017 -0.8650
vn -0.5983 0.5643 -0.5688
vn -0.8794 0.4761 0.0024
vn -0.5501 0.5760 0.6046
vn 0.0470 0.4527 0.8904
vn -0.4496 0.7559 0.4759
vn 0.0298 0.6786 0.7339
vn 0.4479 0.7387 0.5037
vn 0.7117 0.7011 0.0440
vn 0.4741 0.7462 -0.4673
vn 0.0000 0.6937 -0.7203
vn -0.4764 0.7475 -0.4628
vn -0.7272 0.6864 0.0000
usemtl frostland_tilesheet
s 1
f 1/1/1 2/2/2 3/3/3 4/4/4
f 5/5/5 6/6/6 2/7/2 1/8/1
f 7/9/7 5/10/5 1/11/1 8/12/8
f 8/13/8 1/14/1 4/15/4 9/16/9
f 10/17/10 11/18/11 2/19/2 6/20/6
f 11/21/11 12/22/12 3/23/3 2/24/2
f 12/25/12 13/26/13 4/27/4 3/28/3
f 13/29/13 14/30/14 9/31/9 4/32/4
f 14/33/14 15/34/15 8/35/8 9/36/9
f 15/37/15 16/38/16 7/39/7 8/40/8
f 16/41/16 17/42/17 5/43/5 7/44/7
f 17/45/17 10/46/10 6/47/6 5/48/5
f 18/49/18 19/50/19 17/51/17 16/52/16
f 19/53/19 20/54/20 10/55/10 17/56/17
f 20/57/20 21/58/21 11/59/11 10/60/10
f 21/61/21 22/62/22 12/63/12 11/64/11
f 22/65/22 23/66/23 13/67/13 12/68/12
f 23/69/23 24/70/24 14/71/14 13/72/13
f 24/73/24 25/74/25 15/75/15 14/76/14
f 25/77/25 18/78/18 16/79/16 15/80/15
f 26/81/26 27/82/27 25/83/25 24/84/24
f 27/85/27 28/86/28 18/87/18 25/88/25
f 28/89/28 29/90/29 19/91/19 18/92/18
f 29/93/29 30/94/30 20/95/20 19/96/19
f 30/97/30 31/98/31 21/99/21 20/100/20
f 31/101/31 32/102/32 22/103/22 21/104/21
f 32/105/32 33/106/33 23/107/23 22/108/22
f 33/109/33 26/110/26 24/111/24 23/112/23
