# Blender v2.93.5 OBJ File: 'Frostlands.blend'
# www.blender.org
mtllib SM_SSnow_Landmass_09.mtl
o Cube.058_export_temp_Cube.061
v 0.031250 1.593750 -0.103127
v 0.031250 1.343750 -0.759377
v -0.468750 1.406250 -0.478127
v -0.656250 1.500000 0.021873
v 0.939285 1.312500 0.022655
v 0.733036 1.156250 -0.679131
v 0.531250 1.406250 -0.478127
v 0.718750 1.562500 0.021873
v 0.031250 1.093750 -0.988506
v -0.670536 1.187500 -0.679131
v 0.031250 1.250000 0.965065
v 0.733036 1.187500 0.724442
v 0.531250 1.437500 0.521873
v 0.031250 1.500000 0.740623
v 0.952892 0.250000 0.021091
v 0.784142 0.250000 -0.732189
v 0.030859 0.250000 -0.985313
v -0.722422 0.250000 -0.732189
v 0.030859 0.250000 0.971249
v 0.784142 0.250000 0.774376
v 0.031250 0.000000 -0.969322
v -0.860826 0.000000 -0.978699
v 0.031250 0.000000 -1.231823
v 0.031250 0.000000 1.231819
v 1.022448 0.000000 1.013069
v 1.209948 0.000000 0.021873
v 0.923326 0.000000 -0.978699
v -0.959948 0.000000 1.013069
v -0.722422 0.250000 0.774376
v -0.670536 1.250000 0.724442
v -0.468750 1.437500 0.521873
v -1.209948 0.000000 0.021873
v -0.919298 0.187500 0.021091
v -0.876785 1.250000 0.022655
v 0.803865 0.781250 0.020622
v 0.030859 0.671875 -0.831131
v 0.030859 0.750000 0.819881
v -0.584648 0.718750 -0.594883
v -0.754648 0.718750 0.020622
v 0.646366 0.718750 0.636131
v -0.584648 0.750000 0.636131
v 0.646366 0.703125 -0.594883
vt 0.968750 0.843750
vt 0.937500 0.843750
vt 0.937500 0.812500
vt 0.968750 0.812500
vt 0.906250 0.550781
vt 0.937500 0.550781
vt 0.937500 0.562500
vt 0.906250 0.562500
vt 0.906250 0.550781
vt 0.937500 0.550781
vt 0.937500 0.562500
vt 0.906250 0.562500
vt 0.906250 0.550781
vt 0.937500 0.550781
vt 0.937500 0.562500
vt 0.906250 0.562500
vt 0.906250 0.593750
vt 0.937500 0.593750
vt 0.937500 0.625000
vt 0.906250 0.625000
vt 0.906250 0.593750
vt 0.937500 0.593750
vt 0.937500 0.625000
vt 0.906250 0.625000
vt 0.906250 0.593750
vt 0.937500 0.593750
vt 0.937500 0.625000
vt 0.906250 0.625000
vt 0.812500 0.812598
vt 0.874902 0.812598
vt 0.812500 0.812598
vt 0.906250 0.531250
vt 0.937500 0.531250
vt 0.937500 0.542969
vt 0.906250 0.542969
vt 0.906250 0.531250
vt 0.937500 0.531250
vt 0.937500 0.542969
vt 0.906250 0.542969
vt 0.906250 0.531250
vt 0.937500 0.531250
vt 0.937500 0.542969
vt 0.906250 0.542969
vt 0.875000 0.531250
vt 0.875000 0.542969
vt 0.875000 0.531250
vt 0.875000 0.542969
vt 0.750098 0.812598
vt 0.875000 0.593750
vt 0.875000 0.625000
vt 0.875000 0.593750
vt 0.875000 0.625000
vt 0.875000 0.550781
vt 0.875000 0.562500
vt 0.875000 0.550781
vt 0.875000 0.562500
vt 0.968750 0.875000
vt 0.937500 0.875000
vt 0.906250 0.531250
vt 0.937500 0.531250
vt 0.937500 0.542969
vt 0.906250 0.542969
vt 0.906250 0.593750
vt 0.937500 0.593750
vt 0.937500 0.625000
vt 0.906250 0.625000
vt 0.906250 0.550781
vt 0.937500 0.550781
vt 0.937500 0.562500
vt 0.906250 0.562500
vt 0.875000 0.550781
vt 0.875000 0.562500
vt 0.875000 0.593750
vt 0.875000 0.625000
vt 0.875000 0.531250
vt 0.875000 0.542969
vt 1.000000 0.875000
vt 1.000000 0.843750
vt 0.875000 0.531250
vt 0.875000 0.542969
vt 0.875000 0.593750
vt 0.875000 0.625000
vt 0.875000 0.550781
vt 0.875000 0.562500
vt 1.000000 0.812500
vt 0.875000 0.562500
vt 0.906250 0.562500
vt 0.875000 0.562500
vt 0.906250 0.562500
vt 0.937500 0.562500
vt 0.875000 0.562500
vt 0.906250 0.562500
vt 0.875000 0.562500
vt 0.906250 0.562500
vt 0.937500 0.562500
vt 0.937500 0.562500
vt 0.937500 0.562500
vn -0.0206 0.9933 -0.1138
vn 0.0029 0.8180 -0.5753
vn -0.3402 0.8404 -0.4219
vn -0.4590 0.8875 -0.0399
vn 0.9486 0.3164 -0.0075
vn 0.7163 0.2008 -0.6683
vn 0.3315 0.8188 -0.4686
vn 0.4426 0.8962 -0.0312
vn 0.0030 0.1940 -0.9810
vn -0.7071 0.2460 -0.6629
vn 0.0075 0.2736 0.9618
vn 0.7044 0.1847 0.6854
vn 0.3621 0.8410 0.4020
vn 0.0040 0.8798 0.4753
vn 0.9998 0.0186 0.0012
vn 0.7568 0.0512 -0.6517
vn -0.0014 0.0469 -0.9989
vn -0.7521 0.0446 -0.6576
vn -0.0029 0.0291 0.9996
vn 0.7234 0.0578 0.6881
vn 0.0000 -1.0000 -0.0000
vn -0.4630 0.7086 -0.5324
vn 0.0002 -0.3178 -0.9481
vn 0.0001 0.7435 0.6687
vn 0.4417 0.7867 0.4314
vn 0.5554 0.6364 0.5352
vn 0.0013 0.5679 0.8231
vn 0.7058 0.7081 -0.0217
vn 0.4970 0.6748 -0.5456
vn 0.6064 0.5986 -0.5235
vn 0.8431 0.5375 -0.0150
vn -0.5854 0.6208 -0.5214
vn 0.0005 0.5813 -0.8137
vn -0.4052 0.8138 0.4166
vn -0.5380 0.6515 0.5348
vn -0.7182 0.0456 0.6943
vn -0.6938 0.2560 0.6731
vn -0.3594 0.8694 0.3391
vn -0.6319 0.7747 -0.0216
vn -0.8011 0.5983 -0.0167
vn -0.9985 0.0545 0.0016
vn -0.9559 0.2936 -0.0103
usemtl frostland_tilesheet
s 1
f 1/1/1 2/2/2 3/3/3 4/4/4
f 5/5/5 6/6/6 7/7/7 8/8/8
f 9/9/9 10/10/10 3/11/3 2/12/2
f 11/13/11 12/14/12 13/15/13 14/16/14
f 35/17/15 42/18/16 6/19/6 5/20/5
f 36/21/17 38/22/18 10/23/10 9/24/9
f 37/25/19 40/26/20 12/27/12 11/28/11
f 21/29/21 22/30/22 23/31/23
f 24/32/24 25/33/25 20/34/26 19/35/27
f 26/36/28 27/37/29 16/38/30 15/39/31
f 23/40/23 22/41/22 18/42/32 17/43/33
f 27/44/29 23/40/23 17/43/33 16/45/30
f 28/46/34 24/32/24 19/35/27 29/47/35
f 27/48/29 21/29/21 23/31/23
f 41/49/36 37/25/19 11/28/11 30/50/37
f 42/51/16 36/21/17 9/24/9 6/52/6
f 30/53/37 11/13/11 14/16/14 31/54/38
f 6/55/6 9/9/9 2/12/2 7/56/7
f 8/57/8 7/58/7 2/2/2 1/1/1
f 32/59/39 28/60/34 29/61/35 33/62/40
f 39/63/41 41/64/36 30/65/37 34/66/42
f 34/67/42 30/68/37 31/69/38 4/70/4
f 10/71/10 34/67/42 4/70/4 3/72/3
f 38/73/18 39/63/41 34/66/42 10/74/10
f 22/75/22 32/59/39 33/62/40 18/76/32
f 13/77/13 8/57/8 1/1/1 14/78/14
f 25/79/25 26/36/28 15/39/31 20/80/26
f 40/81/20 35/17/15 5/20/5 12/82/12
f 12/83/12 5/5/5 8/8/8 13/84/13
f 14/78/14 1/1/1 4/4/4 31/85/38
f 20/86/26 15/87/31 35/17/15 40/81/20
f 18/88/32 33/89/40 39/63/41 38/73/18
f 33/89/40 29/90/35 41/64/36 39/63/41
f 16/91/30 17/92/33 36/21/17 42/51/16
f 29/93/35 19/94/27 37/25/19 41/49/36
f 19/94/27 20/95/26 40/26/20 37/25/19
f 17/92/33 18/96/32 38/22/18 36/21/17
f 15/87/31 16/97/30 42/18/16 35/17/15
