# Blender v2.93.5 OBJ File: 'Fence_01.blend'
# www.blender.org
mtllib Fence_01.mtl
o Cube
v 0.000000 0.000000 0.000000
v -0.125000 0.000000 -0.125000
v 0.000000 0.000000 -0.125000
v 0.000000 0.531250 -0.125000
v -0.125000 0.000000 0.000000
v 0.000000 0.531250 0.000000
v -0.125000 0.531250 -0.125000
v -0.125000 0.531250 0.000000
v -0.053584 0.052518 -0.125000
v -0.053584 0.309785 -1.125000
v -0.053584 0.309785 -0.875000
v -0.053584 0.052518 -0.875000
v -0.053584 0.052518 -1.125000
v -0.053584 0.177518 -1.125000
v -0.053584 0.177518 -0.875000
v -0.053584 0.177518 -0.125000
v -0.053584 0.309785 -0.125000
v -0.053584 0.434785 -1.125000
v -0.053584 0.434785 -0.875000
v -0.053584 0.434785 -0.125000
v 0.000000 0.000000 -1.125000
v -0.125000 0.000000 -1.250000
v 0.000000 0.000000 -1.250000
v 0.000000 0.531250 -1.250000
v -0.125000 0.000000 -1.125000
v 0.000000 0.531250 -1.125000
v -0.125000 0.531250 -1.250000
v -0.125000 0.531250 -1.125000
v -0.084834 0.052518 -0.125000
v -0.084834 0.177518 -0.875000
v -0.084834 0.177518 -0.125000
v -0.084834 0.052518 -0.875000
v -0.084834 0.052518 -1.125000
v -0.084834 0.177518 -1.125000
v -0.084834 0.309785 -0.125000
v -0.084834 0.309785 -0.875000
v -0.084834 0.434785 -0.125000
v -0.084834 0.309785 -1.125000
v -0.084834 0.434785 -1.125000
v -0.084834 0.434785 -0.875000
vt 0.000098 0.125098
vt 0.015527 0.125098
vt 0.015527 0.191309
vt 0.000098 0.191309
vt 0.000098 0.125098
vt 0.015527 0.125098
vt 0.015527 0.191309
vt 0.000098 0.191309
vt 0.000098 0.125098
vt 0.015527 0.125098
vt 0.015527 0.191309
vt 0.000098 0.191309
vt 0.000098 0.125098
vt 0.015527 0.125098
vt 0.015527 0.191309
vt 0.000098 0.191309
vt 0.000098 0.187598
vt 0.015527 0.187598
vt 0.015527 0.203027
vt 0.000098 0.203027
vt 0.031348 0.191504
vt 0.124902 0.191504
vt 0.124902 0.206934
vt 0.031348 0.206934
vt 0.062402 0.191504
vt 0.031348 0.191504
vt 0.031348 0.206934
vt 0.062402 0.206934
vt 0.031348 0.207129
vt 0.062402 0.207129
vt 0.062402 0.210840
vt 0.031348 0.210840
vt 0.031348 0.207129
vt 0.124902 0.207129
vt 0.124902 0.210840
vt 0.031348 0.210840
vt 0.031348 0.191504
vt 0.124902 0.191504
vt 0.124902 0.206934
vt 0.031348 0.206934
vt 0.062402 0.191504
vt 0.031348 0.191504
vt 0.031348 0.206934
vt 0.062402 0.206934
vt 0.031348 0.207129
vt 0.062402 0.207129
vt 0.062402 0.210840
vt 0.031348 0.210840
vt 0.031348 0.207129
vt 0.124902 0.207129
vt 0.124902 0.210840
vt 0.031348 0.210840
vt 0.000098 0.125098
vt 0.015527 0.125098
vt 0.015527 0.191309
vt 0.000098 0.191309
vt 0.000098 0.125098
vt 0.015527 0.125098
vt 0.015527 0.191309
vt 0.000098 0.191309
vt 0.000098 0.125098
vt 0.015527 0.125098
vt 0.015527 0.191309
vt 0.000098 0.191309
vt 0.000098 0.125098
vt 0.015527 0.125098
vt 0.015527 0.191309
vt 0.000098 0.191309
vt 0.000098 0.187598
vt 0.015527 0.187598
vt 0.015527 0.203027
vt 0.000098 0.203027
vt 0.031348 0.191504
vt 0.031348 0.206934
vt 0.124902 0.206934
vt 0.124902 0.191504
vt 0.062402 0.191504
vt 0.062402 0.206934
vt 0.031348 0.206934
vt 0.031348 0.191504
vt 0.031348 0.191504
vt 0.031348 0.206934
vt 0.124902 0.206934
vt 0.124902 0.191504
vt 0.062402 0.191504
vt 0.062402 0.206934
vt 0.031348 0.206934
vt 0.031348 0.191504
vn 1.0000 0.0000 0.0000
vn 0.0000 0.0000 -1.0000
vn -1.0000 0.0000 0.0000
vn 0.0000 0.0000 1.0000
vn 0.0000 1.0000 0.0000
usemtl Grassland_Tileatlas_01
s off
f 1/1/1 3/2/1 4/3/1 6/4/1
f 3/5/2 2/6/2 7/7/2 4/8/2
f 2/9/3 5/10/3 8/11/3 7/12/3
f 5/13/4 1/14/4 6/15/4 8/16/4
f 8/17/5 6/18/5 4/19/5 7/20/5
f 9/21/1 12/22/1 15/23/1 16/24/1
f 12/25/1 13/26/1 14/27/1 15/28/1
f 15/29/5 14/30/5 34/31/5 30/32/5
f 16/33/5 15/34/5 30/35/5 31/36/5
f 17/37/1 11/38/1 19/39/1 20/40/1
f 11/41/1 10/42/1 18/43/1 19/44/1
f 19/45/5 18/46/5 39/47/5 40/48/5
f 20/49/5 19/50/5 40/51/5 37/52/5
f 21/53/1 23/54/1 24/55/1 26/56/1
f 23/57/2 22/58/2 27/59/2 24/60/2
f 22/61/3 25/62/3 28/63/3 27/64/3
f 25/65/4 21/66/4 26/67/4 28/68/4
f 28/69/5 26/70/5 24/71/5 27/72/5
f 29/73/3 31/74/3 30/75/3 32/76/3
f 32/77/3 30/78/3 34/79/3 33/80/3
f 35/81/3 37/82/3 40/83/3 36/84/3
f 36/85/3 40/86/3 39/87/3 38/88/3
