# Blender v2.93.5 OBJ File: 'Fence_End_01.blend'
# www.blender.org
mtllib Fence_End_01.mtl
o Cube
v 0.000000 0.000000 0.000000
v -0.125000 0.000000 -0.125000
v 0.000000 0.000000 -0.125000
v 0.000000 0.531250 -0.125000
v -0.125000 0.000000 0.000000
v 0.000000 0.531250 0.000000
v -0.125000 0.531250 -0.125000
v -0.125000 0.531250 0.000000
v -0.045932 0.309785 -0.113943
v -0.045932 0.309785 -0.363943
v -0.045932 0.434785 -0.363943
v -0.077182 0.372285 -0.332693
v -0.045932 0.434785 -0.270193
v -0.045932 0.434785 -0.113943
v -0.077182 0.434785 -0.270193
v -0.077182 0.434785 -0.113943
v -0.077182 0.403535 -0.270193
v -0.045932 0.403535 -0.332693
v -0.045932 0.403535 -0.270193
v -0.077182 0.434785 -0.363943
v -0.077182 0.309785 -0.363943
v -0.077182 0.403535 -0.332693
v -0.077182 0.309785 -0.113943
v -0.045932 0.372285 -0.363943
v -0.045932 0.372285 -0.332693
v -0.077182 0.372285 -0.363943
v -0.045932 0.052518 -0.125000
v -0.045932 0.052518 -0.281250
v -0.045932 0.177518 -0.281250
v -0.045932 0.177518 -0.125000
v -0.045932 0.146268 -0.218750
v -0.077182 0.115018 -0.281250
v -0.077182 0.177518 -0.218750
v -0.077182 0.177518 -0.125000
v -0.077182 0.146268 -0.218750
v -0.045932 0.146268 -0.250000
v -0.045932 0.177518 -0.218750
v -0.077182 0.083768 -0.281250
v -0.045932 0.115018 -0.250000
v -0.077182 0.146268 -0.250000
v -0.045932 0.115018 -0.281250
v -0.077182 0.115018 -0.250000
v -0.045932 0.083768 -0.281250
v -0.045932 0.083768 -0.250000
v -0.077182 0.052518 -0.250000
v -0.045932 0.052518 -0.250000
v -0.077182 0.083768 -0.250000
v -0.077182 0.052518 -0.125000
v -0.077182 0.052518 -0.281250
v -0.077182 0.177518 -0.281250
vt 0.000098 0.125098
vt 0.015527 0.125098
vt 0.015527 0.191309
vt 0.000098 0.191309
vt 0.000098 0.125098
vt 0.015527 0.125098
vt 0.015527 0.191309
vt 0.000098 0.191309
vt 0.000098 0.125098
vt 0.015527 0.125098
vt 0.015527 0.191309
vt 0.000098 0.191309
vt 0.000098 0.125098
vt 0.015527 0.125098
vt 0.015527 0.191309
vt 0.000098 0.191309
vt 0.000098 0.187598
vt 0.015527 0.187598
vt 0.015527 0.203027
vt 0.000098 0.203027
vt 0.187598 0.191504
vt 0.218652 0.191504
vt 0.218652 0.206934
vt 0.187598 0.206934
vt 0.187598 0.207129
vt 0.206934 0.207129
vt 0.206934 0.210840
vt 0.187598 0.210840
vt 0.199316 0.207129
vt 0.203027 0.207129
vt 0.203027 0.210840
vt 0.199316 0.210840
vt 0.183691 0.207129
vt 0.191309 0.207129
vt 0.191309 0.210840
vt 0.183691 0.210840
vt 0.171973 0.207129
vt 0.175684 0.207129
vt 0.175684 0.210840
vt 0.171973 0.210840
vt 0.171973 0.207129
vt 0.175684 0.207129
vt 0.175684 0.210840
vt 0.171973 0.210840
vt 0.191504 0.207129
vt 0.199121 0.207129
vt 0.199121 0.210840
vt 0.191504 0.210840
vt 0.187598 0.191504
vt 0.187598 0.206934
vt 0.218652 0.206934
vt 0.218652 0.191504
vt 0.187598 0.226660
vt 0.206934 0.226660
vt 0.206934 0.242090
vt 0.187598 0.242090
vt 0.187598 0.242285
vt 0.199121 0.242285
vt 0.199121 0.245996
vt 0.187598 0.245996
vt 0.195410 0.242285
vt 0.199121 0.242285
vt 0.195410 0.245996
vt 0.195410 0.242285
vt 0.199121 0.242285
vt 0.199121 0.245996
vt 0.195410 0.245996
vt 0.195410 0.242285
vt 0.199121 0.242285
vt 0.199121 0.245996
vt 0.195410 0.245996
vt 0.195410 0.242285
vt 0.199121 0.242285
vt 0.199121 0.245996
vt 0.195410 0.245996
vt 0.195410 0.242285
vt 0.199121 0.242285
vt 0.199121 0.245996
vt 0.195410 0.245996
vt 0.195410 0.242285
vt 0.199121 0.242285
vt 0.199121 0.245996
vt 0.195410 0.245996
vt 0.195410 0.242285
vt 0.199121 0.242285
vt 0.199121 0.245996
vt 0.195410 0.245996
vt 0.187598 0.226660
vt 0.187598 0.242090
vt 0.206934 0.242090
vt 0.206934 0.226660
vn 1.0000 0.0000 0.0000
vn 0.0000 0.0000 -1.0000
vn -1.0000 0.0000 0.0000
vn 0.0000 0.0000 1.0000
vn 0.0000 1.0000 0.0000
vn 0.0000 -1.0000 0.0000
usemtl Grassland_Tileatlas_01
s off
f 1/1/1 3/2/1 4/3/1 6/4/1
f 3/5/2 2/6/2 7/7/2 4/8/2
f 2/9/3 5/10/3 8/11/3 7/12/3
f 5/13/4 1/14/4 6/15/4 8/16/4
f 8/17/5 6/18/5 4/19/5 7/20/5
f 9/21/1 10/22/1 11/23/1 14/24/1
f 14/25/5 13/26/5 15/27/5 16/28/5
f 19/29/2 17/30/2 15/31/2 13/32/2
f 19/33/5 18/34/5 22/35/5 17/36/5
f 25/37/2 12/38/2 22/39/2 18/40/2
f 24/41/5 26/42/5 12/43/5 25/44/5
f 24/45/2 10/46/2 21/47/2 26/48/2
f 23/49/3 16/50/3 20/51/3 21/52/3
f 27/53/1 28/54/1 29/55/1 30/56/1
f 30/57/5 37/58/5 33/59/5 34/60/5
f 31/61/2 35/62/2 33/59/2 37/63/2
f 36/64/5 40/65/5 35/66/5 31/67/5
f 39/68/2 42/69/2 40/70/2 36/71/2
f 41/72/5 32/73/5 42/74/5 39/75/5
f 43/76/2 38/77/2 32/78/2 41/79/2
f 44/80/6 47/81/6 38/82/6 43/83/6
f 46/84/2 45/85/2 47/86/2 44/87/2
f 48/88/3 34/89/3 50/90/3 49/91/3
