# Blender v2.93.5 OBJ File: 'Frostlands.blend'
# www.blender.org
mtllib SM_DeadTree_01_var.mtl
o Cylinder.031_export_temp_Cylinder.009
v -0.182503 0.000000 -0.158128
v -0.080769 0.403469 -0.141061
v -0.113945 0.000000 -0.118546
v -0.026992 0.403469 -0.110012
v -0.113945 0.000000 -0.039383
v -0.026992 0.403469 -0.047916
v -0.182503 0.000000 0.000199
v -0.080769 0.403469 -0.016868
v -0.251060 0.000000 -0.039383
v -0.134545 0.403469 -0.047916
v -0.251060 0.000000 -0.118546
v -0.134545 0.403469 -0.110012
v -0.033461 0.818395 -0.104694
v -0.077434 0.811155 -0.130424
v -0.033461 0.818395 -0.053235
v -0.077434 0.811155 -0.027505
v -0.121407 0.803915 -0.053235
v -0.121407 0.803915 -0.104694
v -0.141654 1.200179 -0.147584
v -0.171371 1.188670 -0.165983
v -0.141654 1.200179 -0.110786
v -0.171371 1.188670 -0.092386
v -0.201089 1.177161 -0.110786
v -0.201089 1.177161 -0.147584
v -0.223510 1.561063 -0.058096
v -0.242650 1.579157 -0.057250
v -0.223510 1.561063 -0.040341
v -0.242650 1.579157 -0.045292
v -0.254262 1.560795 -0.040341
v -0.254262 1.560795 -0.058096
v -0.239804 1.563568 -0.030704
v -0.239683 1.562902 -0.067767
v 0.207012 0.399928 -0.157805
v 0.136167 1.215201 -0.160897
v 0.430501 1.515100 -0.238927
v -0.409352 0.521913 0.286399
v 0.029980 1.124084 -0.134887
v -0.245965 0.396105 0.079570
v -0.136211 0.344008 -0.060678
v 0.043928 1.338128 -0.163636
v -0.105197 0.892728 -0.087315
v 0.164429 1.454196 -0.194740
v 0.172446 1.272667 -0.173085
v 0.006073 1.275492 -0.150584
v 0.200791 0.510563 -0.156183
v -0.401752 0.584109 0.274023
v -0.039850 0.480774 -0.093422
v -0.381838 0.576720 0.248493
v -0.373473 0.254699 0.250681
v -0.385008 0.339823 0.262196
v -0.349400 0.375410 0.214570
v -0.330485 0.238482 0.195580
v -0.150964 0.223278 -0.036655
v -0.237811 0.296773 0.073016
v 0.106923 0.490320 -0.131701
v 0.149920 0.542564 -0.142915
v 0.149434 0.438098 -0.142788
v 0.118688 0.268527 -0.134769
v -0.036002 0.412356 -0.094426
v 0.209100 0.362808 -0.158349
v 0.147515 0.359110 -0.142288
v 0.199580 1.512359 -0.206860
v 0.492503 1.476711 -0.242633
v 0.408987 1.200454 -0.196528
v 0.461316 1.419996 -0.231238
v 0.355529 1.403872 -0.214684
v 0.245796 1.219742 -0.176527
v 0.357613 1.115448 -0.178814
v -0.016055 0.837739 -0.092667
v 0.183382 1.113906 -0.154685
v 0.120733 1.020500 -0.134370
v 0.217737 1.014402 -0.146931
v 0.214399 0.947364 -0.138069
v -0.398381 1.188643 0.003493
v -0.433015 1.292132 -0.015800
v -0.202373 1.336725 -0.102690
v -0.339904 1.301605 -0.048375
v -0.398213 1.336739 -0.040030
v -0.359701 1.240923 -0.024229
v -0.269827 1.094352 -0.009965
v -0.180955 1.272726 -0.090759
v -0.386761 1.153922 0.009967
v -0.329165 1.168940 -0.012871
v -0.492503 0.847513 -0.286399
v -0.264116 0.722353 -0.154204
v -0.109873 0.670704 -0.064926
v -0.480145 0.909765 -0.279246
v -0.452106 0.902458 -0.263017
v -0.448459 0.580349 -0.260906
v -0.462639 0.665456 -0.269113
v -0.411259 0.701209 -0.239373
v -0.387939 0.564309 -0.225875
v -0.133862 0.549865 -0.078811
v -0.255091 0.623017 -0.148980
vt 0.013672 0.062500
vt 0.013672 0.093750
vt 0.007812 0.093750
vt 0.007812 0.062500
vt 0.015625 0.062500
vt 0.015625 0.093750
vt 0.009766 0.093750
vt 0.009766 0.062500
vt 0.013672 0.062500
vt 0.013672 0.093750
vt 0.007812 0.093750
vt 0.007812 0.062500
vt 0.015625 0.062500
vt 0.015625 0.093750
vt 0.009766 0.093750
vt 0.009766 0.062500
vt 0.001953 0.103516
vt 0.007812 0.103516
vt 0.007812 0.072266
vt 0.001953 0.072266
vt 0.013672 0.062500
vt 0.013672 0.093750
vt 0.007812 0.093750
vt 0.007812 0.062500
vt 0.015625 0.062500
vt 0.015625 0.095703
vt 0.009766 0.095703
vt 0.009766 0.062500
vt 0.750000 0.490000
vt 0.957846 0.370000
vt 0.957846 0.130000
vt 0.750000 0.010000
vt 0.542154 0.130000
vt 0.542154 0.370000
vt 0.001953 0.099609
vt 0.007812 0.099609
vt 0.007812 0.068359
vt 0.001953 0.068359
vt 0.001953 0.093750
vt 0.007812 0.125000
vt 0.001953 0.125000
vt -0.000000 0.125000
vt 0.005859 0.125000
vt 0.005859 0.095703
vt 0.000000 0.095703
vt -0.000000 0.093750
vt 0.005859 0.093750
vt 0.005859 0.062500
vt 0.000000 0.062500
vt 0.000000 0.125000
vt 0.005859 0.125000
vt 0.005859 0.093750
vt -0.000000 0.093750
vt 0.000000 0.113281
vt 0.005859 0.113281
vt 0.005859 0.082031
vt 0.000000 0.082031
vt 0.000000 0.105469
vt 0.003906 0.105469
vt 0.003906 0.074219
vt 0.000000 0.074219
vt 0.001953 0.093750
vt 0.007812 0.093750
vt 0.007812 0.125000
vt 0.001953 0.125000
vt -0.000000 0.125000
vt 0.005859 0.125000
vt 0.005859 0.093750
vt 0.000000 0.093750
vt -0.000000 0.125000
vt 0.005859 0.125000
vt 0.005859 0.093750
vt 0.000000 0.093750
vt 0.000000 0.078125
vt 0.005859 0.078125
vt 0.005859 0.109375
vt 0.000000 0.109375
vt 0.001953 0.111328
vt 0.007812 0.111328
vt 0.007812 0.080078
vt 0.001953 0.080078
vt -0.000000 0.083984
vt 0.001953 0.082031
vt 0.001953 0.089844
vt -0.000000 0.087891
vt 0.001953 0.101562
vt 0.005859 0.101562
vt 0.005859 0.070312
vt 0.001953 0.071560
vt -0.000000 0.125000
vt 0.003906 0.125000
vt 0.003906 0.095051
vt -0.000000 0.093750
vt 0.003906 0.093750
vt 0.007812 0.093750
vt 0.007812 0.125000
vt 0.003906 0.123699
vt 0.000000 0.125000
vt 0.003906 0.125000
vt 0.003906 0.094998
vt 0.000000 0.093750
vt 0.003906 0.125000
vt 0.007812 0.125000
vt 0.007812 0.093750
vt 0.003906 0.093750
vt 0.003906 0.083984
vt 0.003906 0.087891
vt 0.003906 0.093750
vt 0.001953 0.070312
vt 0.003906 0.093750
vt 0.003906 0.125000
vt 0.039468 0.091509
vt 0.046059 0.087075
vt 0.045964 0.095943
vt 0.039562 0.096414
vt 0.071570 0.074524
vt 0.068169 0.071988
vt 0.068214 0.062549
vt 0.072476 0.062549
vt 0.074382 0.115369
vt 0.072150 0.103333
vt 0.078029 0.105348
vt 0.085930 0.121033
vt 0.071388 0.118473
vt 0.066455 0.116295
vt 0.066455 0.111829
vt 0.085922 0.123100
vt 0.081948 0.123100
vt 0.046341 0.121089
vt 0.045870 0.111414
vt 0.051708 0.116414
vt 0.051520 0.121080
vt 0.069663 0.093817
vt 0.077376 0.093817
vt 0.067262 0.078076
vt 0.065086 0.074932
vt 0.029346 0.090282
vt 0.036361 0.081886
vt 0.029346 0.095565
vt 0.081982 0.071943
vt 0.076466 0.074117
vt 0.076466 0.078076
vt 0.074154 0.078076
vt 0.032406 0.107263
vt 0.032406 0.112169
vt 0.056592 0.093773
vt 0.056592 0.100942
vt 0.045682 0.078962
vt 0.036643 0.062549
vt 0.044081 0.062549
vt 0.054062 0.078018
vt 0.051802 0.082263
vt 0.071570 0.074524
vt 0.068169 0.071988
vt 0.068214 0.062549
vt 0.072476 0.062549
vt 0.067262 0.078076
vt 0.065086 0.074932
vt 0.081982 0.071943
vt 0.076466 0.074117
vt 0.076466 0.078076
vt 0.074154 0.078076
vt 0.074382 0.115369
vt 0.072150 0.103333
vt 0.078029 0.105348
vt 0.085930 0.121033
vt 0.071388 0.118473
vt 0.066455 0.116295
vt 0.066455 0.111829
vt 0.085922 0.123100
vt 0.081948 0.123100
vt 0.069663 0.093817
vt 0.077376 0.093817
vn 0.4980 -0.0891 -0.8626
vn 0.9776 -0.2107 0.0000
vn 0.4980 -0.0891 0.8626
vn -0.4935 0.1606 0.8548
vn 0.5011 0.0187 0.8652
vn -0.9607 0.2774 0.0000
vn -0.4935 0.1606 -0.8548
vn 0.0000 -1.0000 0.0000
vn -0.4661 -0.1979 -0.8623
vn -0.5036 0.0273 -0.8635
vn -0.5036 0.0273 0.8635
vn 0.9999 0.0156 0.0000
vn -0.9995 0.0328 0.0000
vn 0.5011 0.0187 -0.8652
vn -0.9905 -0.1373 0.0000
vn -0.5174 0.0199 0.8555
vn 0.9621 0.2727 0.0000
vn -0.9780 -0.2088 0.0000
vn 0.4475 0.2572 0.8565
vn 0.5047 0.0453 -0.8621
vn 0.6870 0.7267 0.0000
vn 0.5262 -0.0450 0.8491
vn 0.4490 0.3061 -0.8395
vn -0.5566 0.1146 -0.8228
vn -0.4696 -0.2240 0.8540
vn 0.9752 0.2212 0.0000
vn -0.8452 0.5345 0.0000
vn -0.5406 0.5201 0.6613
vn 0.4583 0.6505 0.6057
vn 0.4770 0.5371 -0.6956
vn -0.5486 0.3812 -0.7441
vn 0.1351 0.1232 0.9831
vn 0.2524 0.0000 0.9676
vn 0.7917 0.0247 0.6104
vn -0.2935 -0.2692 -0.9173
vn -0.5010 0.0000 0.8655
usemtl frostland_tilesheet
s off
f 1/1/1 2/2/1 4/3/1 3/4/1
f 3/5/2 4/6/2 6/7/2 5/8/2
f 5/9/3 6/10/3 8/11/3 7/12/3
f 7/13/4 8/14/4 10/15/4 9/16/4
f 8/17/5 6/18/5 15/19/5 16/20/5
f 9/21/6 10/22/6 12/23/6 11/24/6
f 11/25/7 12/26/7 2/27/7 1/28/7
f 1/29/8 3/30/8 5/31/8 7/32/8 9/33/8 11/34/8
f 14/35/9 18/36/9 24/37/9 20/38/9
f 2/39/10 12/23/10 18/40/10 14/41/10
f 10/42/11 8/43/11 16/44/11 17/45/11
f 6/46/12 4/47/12 13/48/12 15/49/12
f 12/50/13 10/51/13 17/52/13 18/53/13
f 4/54/14 2/55/14 14/56/14 13/57/14
f 24/58/15 23/59/15 29/60/15 30/61/15
f 17/62/16 16/63/16 22/64/16 23/65/16
f 15/66/17 13/67/17 19/68/17 21/69/17
f 18/70/18 17/71/18 23/72/18 24/73/18
f 16/74/19 15/75/19 21/76/19 22/77/19
f 13/78/20 14/79/20 20/80/20 19/81/20
f 25/82/21 26/83/21 28/84/21 27/85/21
f 22/86/22 21/87/22 27/88/22 31/89/22
f 19/90/23 20/91/23 32/92/23 25/93/23
f 20/94/24 24/95/24 30/96/24 32/97/24
f 23/98/25 22/99/25 31/100/25 29/101/25
f 21/102/26 19/103/26 25/104/26 27/105/26
f 28/84/27 26/83/27 30/106/27 29/107/27
f 29/101/28 31/100/28 28/108/28
f 31/89/29 27/88/29 28/109/29
f 25/93/30 32/92/30 26/110/30
f 32/97/31 30/96/31 26/111/31
f 34/112/32 70/113/32 67/114/32 43/115/32
f 57/116/33 55/117/33 47/118/33 59/119/33
f 51/120/34 54/121/34 38/122/34 48/123/34
f 51/120/34 50/124/34 49/125/34 52/126/34
f 51/120/34 48/123/34 46/127/34 36/128/34
f 35/129/32 66/130/32 65/131/32 63/132/32
f 52/126/34 54/121/34 51/120/34
f 38/122/34 54/121/34 53/133/34 39/134/34
f 45/135/33 56/136/33 55/117/33 57/116/33
f 44/137/32 37/138/32 34/112/32 40/139/32
f 59/119/33 58/140/33 61/141/33 57/116/33
f 61/141/33 60/142/33 33/143/33 57/116/33
f 42/144/32 66/130/32 35/129/32 62/145/32
f 43/115/32 67/114/32 66/130/32 42/144/32
f 67/114/32 70/113/32 68/146/32 64/147/32
f 34/112/32 37/138/32 71/148/32 70/113/32
f 71/148/32 37/138/32 41/149/32 69/150/32
f 69/150/32 73/151/32 72/152/32 71/148/32
f 79/153/35 77/154/35 76/155/35 81/156/35
f 75/157/35 78/158/35 77/154/35 79/153/35
f 81/156/35 80/159/35 83/160/35 79/153/35
f 83/160/35 82/161/35 74/162/35 79/153/35
f 91/163/36 94/164/36 85/165/36 88/166/36
f 91/163/36 90/167/36 89/168/36 92/169/36
f 91/163/36 88/166/36 87/170/36 84/171/36
f 92/169/36 94/164/36 91/163/36
f 85/165/36 94/164/36 93/172/36 86/173/36
