# Blender v2.93.5 OBJ File: 'Frostlands.blend'
# www.blender.org
mtllib SM_Tree_02_var.mtl
o Cylinder.006_Cylinder.119
v -0.014104 0.000000 -0.142097
v -0.014104 1.847529 -0.114614
v 0.091550 0.000000 -0.098334
v 0.072117 1.847529 -0.078901
v 0.135313 0.000000 0.007320
v 0.107830 1.847529 0.007320
v 0.091550 0.000000 0.112973
v 0.072117 1.847529 0.093541
v -0.014104 0.000000 0.156737
v -0.014104 1.847529 0.129254
v -0.119757 0.000000 0.112973
v -0.100325 1.847529 0.093541
v -0.163521 0.000000 0.007320
v -0.136038 1.847529 0.007320
v -0.119757 0.000000 -0.098334
v -0.100325 1.847529 -0.078901
v -0.014104 3.662120 -0.054867
v 0.029869 3.662120 -0.036653
v 0.048083 3.662120 0.007320
v 0.029869 3.662120 0.051293
v -0.014104 3.662120 0.069507
v -0.058077 3.662120 0.051293
v -0.076291 3.662120 0.007320
v -0.058077 3.662120 -0.036653
v -0.014104 4.636467 0.007320
v 0.063591 2.754825 -0.070376
v 0.095774 2.754825 0.007320
v -0.014104 2.754825 0.117198
v -0.091800 2.754825 0.085015
v -0.091800 2.754825 -0.070376
v -0.014104 2.754825 -0.102558
v 0.063591 2.754825 0.085015
v -0.123982 2.754825 0.007320
v -0.014104 0.923765 -0.128356
v 0.081833 0.923765 -0.088617
v 0.121572 0.923765 0.007320
v 0.081833 0.923765 0.103257
v -0.014104 0.923765 0.142995
v -0.110041 0.923765 0.103257
v -0.149779 0.923765 0.007320
v -0.110041 0.923765 -0.088617
v 0.086691 0.461882 -0.093475
v 0.128442 0.461882 0.007320
v 0.086691 0.461882 0.108115
v -0.014104 0.461882 0.149866
v -0.114899 0.461882 0.108115
v -0.156650 0.461882 0.007320
v -0.114899 0.461882 -0.093475
v -0.014104 0.461882 -0.135226
v -0.014104 1.385647 -0.121485
v 0.076975 1.385647 -0.083759
v 0.114701 1.385647 0.007320
v 0.076975 1.385647 0.098399
v -0.014104 1.385647 0.136125
v -0.105183 1.385647 0.098399
v -0.142909 1.385647 0.007320
v -0.105183 1.385647 -0.083759
v 0.101802 2.301177 0.007320
v -0.096062 2.301177 0.089278
v -0.014104 2.301177 -0.108586
v 0.067854 2.301177 0.089278
v -0.130010 2.301177 0.007320
v 0.067854 2.301177 -0.074638
v -0.014104 2.301177 0.123226
v -0.096062 2.301177 -0.074638
v 0.059329 3.208472 -0.066113
v -0.014104 3.208472 0.111170
v -0.087537 3.208472 -0.066113
v 0.089746 3.208472 0.007320
v -0.087537 3.208472 0.080753
v -0.014104 3.208472 -0.096530
v 0.059329 3.208472 0.080753
v -0.117954 3.208472 0.007320
v -0.010979 4.619929 0.004196
v -0.014102 4.619602 0.002874
v -0.010969 4.619768 0.010453
v -0.009690 4.619988 0.007319
v -0.017235 4.619777 0.004186
v -0.018543 4.619662 0.007319
v -0.017242 4.619673 0.010459
v -0.014102 4.619616 0.011764
vt 0.001953 0.197266
vt 0.001953 0.240234
vt 0.013672 0.240234
vt 0.013672 0.197266
vt 0.001953 0.197266
vt 0.001953 0.240234
vt 0.013672 0.240234
vt 0.013672 0.197266
vt 0.001953 0.240234
vt 0.001953 0.197266
vt 0.013672 0.240234
vt 0.013672 0.197266
vt 0.001953 0.197266
vt 0.001953 0.240234
vt 0.013672 0.240234
vt 0.013672 0.197266
vt 0.001953 0.197266
vt 0.001953 0.240234
vt 0.013672 0.240234
vt 0.013672 0.197266
vt 0.003906 0.197266
vt 0.011719 0.197266
vt 0.011719 0.240234
vt 0.003906 0.240234
vt 0.001953 0.197266
vt 0.001953 0.240234
vt 0.013672 0.240234
vt 0.013672 0.197266
vt 0.001953 0.197266
vt 0.001953 0.240234
vt 0.013672 0.240234
vt 0.013672 0.197266
vt 0.750000 0.490000
vt 0.919706 0.419706
vt 0.990000 0.250000
vt 0.919706 0.080294
vt 0.750000 0.010000
vt 0.580294 0.080294
vt 0.510000 0.250000
vt 0.580294 0.419706
vt 0.000049 0.187549
vt 0.015576 0.187549
vt 0.015576 0.246781
vt 0.014789 0.246788
vt 0.003906 0.197266
vt 0.011719 0.197266
vt 0.011719 0.240234
vt 0.003906 0.240234
vt 0.003906 0.197266
vt 0.011719 0.197266
vt 0.011719 0.240234
vt 0.003906 0.240234
vt 0.003906 0.197266
vt 0.011719 0.197266
vt 0.011719 0.240234
vt 0.003906 0.240234
vt 0.011719 0.197266
vt 0.011719 0.240234
vt 0.003906 0.197266
vt 0.003906 0.240234
vt 0.000049 0.187549
vt 0.015576 0.187549
vt 0.015576 0.246778
vt 0.014788 0.246782
vt 0.000049 0.187549
vt 0.015576 0.187549
vt 0.015576 0.246801
vt 0.014789 0.246788
vt 0.000049 0.187549
vt 0.015576 0.187549
vt 0.015576 0.246777
vt 0.014791 0.246798
vt 0.000049 0.187549
vt 0.015576 0.187549
vt 0.000836 0.246788
vt 0.000049 0.246777
vt 0.000049 0.187549
vt 0.015576 0.187549
vt 0.000837 0.246782
vt 0.000049 0.246781
vt 0.000049 0.187549
vt 0.015576 0.187549
vt 0.000836 0.246788
vt 0.000049 0.246778
vt 0.000049 0.187549
vt 0.015576 0.187549
vt 0.000834 0.246798
vt 0.000049 0.246801
vt 0.013672 0.197266
vt 0.001953 0.197266
vt 0.003906 0.240234
vt 0.011719 0.240234
vt 0.013672 0.197266
vt 0.001953 0.197266
vt 0.003906 0.240234
vt 0.011719 0.240234
vt 0.013672 0.197266
vt 0.001953 0.197266
vt 0.003906 0.240234
vt 0.011719 0.240234
vt 0.013672 0.197266
vt 0.001953 0.197266
vt 0.003906 0.240234
vt 0.011719 0.240234
vt 0.013672 0.197266
vt 0.001953 0.197266
vt 0.003906 0.240234
vt 0.011719 0.240234
vt 0.013672 0.197266
vt 0.001953 0.197266
vt 0.003906 0.240234
vt 0.011719 0.240234
vt 0.013672 0.197266
vt 0.001953 0.197266
vt 0.003906 0.240234
vt 0.011719 0.240234
vt 0.013672 0.197266
vt 0.001953 0.197266
vt 0.003906 0.240234
vt 0.011719 0.240234
vt 0.001953 0.197266
vt 0.001953 0.240234
vt 0.013672 0.240234
vt 0.013672 0.197266
vt 0.001953 0.197266
vt 0.001953 0.240234
vt 0.013672 0.240234
vt 0.013672 0.197266
vt 0.001953 0.197266
vt 0.001953 0.240234
vt 0.013672 0.240234
vt 0.013672 0.197266
vt 0.001953 0.197266
vt 0.001953 0.240234
vt 0.013672 0.240234
vt 0.013672 0.197266
vt 0.001953 0.197266
vt 0.001953 0.240234
vt 0.013672 0.240234
vt 0.013672 0.197266
vt 0.013672 0.197266
vt 0.013672 0.240234
vt 0.001953 0.197266
vt 0.001953 0.240234
vt 0.001953 0.197266
vt 0.001953 0.240234
vt 0.013672 0.240234
vt 0.013672 0.197266
vt 0.001953 0.197266
vt 0.001953 0.240234
vt 0.013672 0.240234
vt 0.013672 0.197266
vt 0.001953 0.197266
vt 0.001953 0.240234
vt 0.013672 0.240234
vt 0.013672 0.197266
vt 0.001953 0.240234
vt 0.001953 0.197266
vt 0.013672 0.240234
vt 0.013672 0.197266
vt 0.001953 0.197266
vt 0.001953 0.240234
vt 0.013672 0.240234
vt 0.013672 0.197266
vt 0.001953 0.197266
vt 0.001953 0.240234
vt 0.013672 0.240234
vt 0.013672 0.197266
vt 0.001953 0.197266
vt 0.001953 0.240234
vt 0.013672 0.240234
vt 0.013672 0.197266
vt 0.001953 0.197266
vt 0.001953 0.240234
vt 0.013672 0.240234
vt 0.013672 0.197266
vt 0.001953 0.197266
vt 0.001953 0.240234
vt 0.013672 0.240234
vt 0.013672 0.197266
vt 0.001953 0.197266
vt 0.001953 0.240234
vt 0.013672 0.240234
vt 0.013672 0.197266
vt 0.001953 0.197266
vt 0.001953 0.240234
vt 0.013672 0.240234
vt 0.013672 0.197266
vt 0.001953 0.197266
vt 0.001953 0.240234
vt 0.013672 0.240234
vt 0.013672 0.197266
vt 0.001953 0.197266
vt 0.001953 0.240234
vt 0.013672 0.240234
vt 0.013672 0.197266
vt 0.013672 0.197266
vt 0.013672 0.240234
vt 0.003906 0.240234
vt 0.001953 0.197266
vt 0.001953 0.240234
vt 0.001953 0.197266
vt 0.001953 0.240234
vt 0.013672 0.240234
vt 0.013672 0.197266
vt 0.001953 0.197266
vt 0.013672 0.197266
vt 0.013672 0.240234
vt 0.001953 0.240234
vt 0.013672 0.197266
vt 0.001953 0.197266
vt 0.001953 0.240234
vt 0.013672 0.240234
vt 0.013672 0.197266
vt 0.001953 0.197266
vt 0.001953 0.240234
vt 0.013672 0.240234
vt 0.001953 0.197266
vt 0.001953 0.240234
vt 0.001953 0.197266
vt 0.013672 0.197266
vt 0.013672 0.240234
vt 0.001953 0.240234
vt 0.013672 0.197266
vt 0.001953 0.197266
vt 0.001953 0.240234
vt 0.013672 0.240234
vt 0.013672 0.197266
vt 0.013672 0.240234
vt 0.011719 0.197266
vt 0.003906 0.197266
vt 0.003906 0.240234
vt 0.011719 0.240234
vt 0.011719 0.197266
vt 0.003906 0.197266
vt 0.003906 0.240234
vt 0.011719 0.240234
vt 0.011719 0.197266
vt 0.003906 0.197266
vt 0.003906 0.240234
vt 0.011719 0.240234
vt 0.011719 0.197266
vt 0.003906 0.197266
vt 0.003906 0.240234
vt 0.011719 0.240234
vt 0.011719 0.197266
vt 0.003906 0.197266
vt 0.003906 0.240234
vt 0.011719 0.240234
vt 0.011719 0.197266
vt 0.003906 0.197266
vt 0.003906 0.240234
vt 0.011719 0.240234
vt 0.011719 0.197266
vt 0.003906 0.197266
vt 0.003906 0.240234
vt 0.011719 0.240234
vt 0.011719 0.197266
vt 0.003906 0.197266
vt 0.003906 0.240234
vt 0.011719 0.240234
vt 0.000000 0.000000
vt 0.000000 0.000000
vt 0.000000 0.000000
vt 0.000000 0.000000
vt 0.015576 0.249951
vt 0.000049 0.249951
vn 0.0000 0.0149 -0.9999
vn 0.0000 0.0141 -0.9999
vn 0.7070 0.0141 -0.7070
vn 0.7070 0.0149 -0.7070
vn 0.9999 0.0141 0.0000
vn 0.9999 0.0149 0.0000
vn 0.7070 0.0141 0.7070
vn 0.7070 0.0149 0.7070
vn 0.0000 0.0141 0.9999
vn 0.0000 0.0149 0.9999
vn -0.7070 0.0141 0.7070
vn -0.7070 0.0149 0.7070
vn -0.9999 0.0141 0.0000
vn -0.9999 0.0149 0.0000
vn 0.9986 0.0519 0.0000
vn 0.7061 0.0519 -0.7061
vn 0.7051 0.0761 -0.7050
vn 0.9971 0.0761 0.0000
vn -0.7070 0.0141 -0.7070
vn -0.7070 0.0149 -0.7070
vn 0.0000 -0.6247 -0.7809
vn 0.5522 -0.6247 -0.5522
vn 0.7809 -0.6247 0.0000
vn 0.5522 -0.6247 0.5522
vn 0.0000 -0.6247 0.7809
vn -0.5522 -0.6247 0.5522
vn -0.7809 -0.6247 0.0000
vn -0.5522 -0.6247 -0.5522
vn -0.7050 0.0761 -0.7050
vn -0.9971 0.0761 0.0000
vn -0.9881 0.1538 0.0010
vn -0.6977 0.1581 -0.6987
vn -0.7061 0.0519 0.7061
vn 0.0000 0.0519 0.9986
vn 0.0000 0.0761 0.9971
vn -0.7050 0.0761 0.7050
vn 0.0000 0.0519 -0.9986
vn -0.7061 0.0519 -0.7061
vn 0.0000 0.0761 -0.9971
vn 0.7061 0.0519 0.7061
vn 0.7051 0.0761 0.7050
vn -0.9986 0.0519 0.0000
vn -0.0009 0.1528 0.9882
vn -0.6981 0.1556 0.6988
vn 0.9706 -0.2404 -0.0083
vn 0.7138 0.0172 0.7001
vn 0.0142 0.0135 -0.9998
vn 0.7002 -0.2423 -0.6716
vn -0.7070 0.0133 -0.7070
vn -0.9999 0.0133 0.0000
vn 0.0000 0.0133 0.9999
vn 0.7070 0.0133 0.7070
vn -0.7070 0.0133 0.7070
vn 0.9999 0.0133 0.0000
vn 0.7070 0.0133 -0.7070
vn 0.0000 0.0133 -0.9999
vn -0.0012 1.0000 0.0004
usemtl Material
s 1
f 50/1/1 2/2/2 4/3/3 51/4/4
f 51/5/4 4/6/3 6/7/5 52/8/6
f 52/8/6 6/7/5 8/9/7 53/10/8
f 53/10/8 8/9/7 10/11/9 54/12/10
f 54/13/10 10/14/9 12/15/11 55/16/12
f 55/17/12 12/18/11 14/19/13 56/20/14
f 69/21/15 66/22/16 18/23/17 19/24/18
f 56/25/14 14/26/13 16/27/19 57/28/20
f 57/29/20 16/30/19 2/31/2 50/32/1
f 1/33/21 3/34/22 5/35/23 7/36/24 9/37/25 11/38/26 13/39/27 15/40/28
f 24/41/29 23/42/30 79/43/31 78/44/32
f 70/45/33 67/46/34 21/47/35 22/48/36
f 71/49/37 68/50/38 24/51/29 17/52/39
f 66/22/16 71/49/37 17/52/39 18/23/17
f 72/53/40 69/54/15 19/55/18 20/56/41
f 73/57/42 70/45/33 22/48/36 23/58/30
f 67/46/34 72/53/40 20/56/41 21/47/35
f 68/59/38 73/57/42 23/58/30 24/60/29
f 22/61/36 21/62/35 81/63/43 80/64/44
f 20/65/41 19/66/18 77/67/45 76/68/46
f 18/69/17 17/70/39 75/71/47 74/72/48
f 17/73/39 24/74/29 78/75/32 75/76/47
f 23/77/30 22/78/36 80/79/44 79/80/31
f 21/81/35 20/82/41 76/83/46 81/84/43
f 19/85/18 18/86/17 74/87/48 77/88/45
f 65/89/49 62/90/50 33/91/50 30/92/49
f 64/93/51 61/94/52 32/95/52 28/96/51
f 62/97/50 59/98/53 29/99/53 33/100/50
f 61/101/52 58/102/54 27/103/54 32/104/52
f 63/105/55 60/106/56 31/107/56 26/108/55
f 60/109/56 65/110/49 30/111/49 31/112/56
f 59/113/53 64/114/51 28/115/51 29/116/53
f 58/117/54 63/118/55 26/119/55 27/120/54
f 48/121/20 41/122/20 34/123/1 49/124/1
f 47/125/14 40/126/14 41/127/20 48/128/20
f 46/129/12 39/130/12 40/131/14 47/132/14
f 45/133/10 38/134/10 39/135/12 46/136/12
f 44/137/8 37/138/8 38/139/10 45/140/10
f 43/141/6 36/142/6 37/138/8 44/137/8
f 42/143/4 35/144/4 36/142/6 43/141/6
f 49/145/1 34/146/1 35/147/4 42/148/4
f 1/149/21 49/150/1 42/151/4 3/152/22
f 3/153/22 42/154/4 43/155/6 5/156/23
f 5/156/23 43/155/6 44/157/8 7/158/24
f 7/158/24 44/157/8 45/159/10 9/160/25
f 9/161/25 45/162/10 46/163/12 11/164/26
f 11/165/26 46/166/12 47/167/14 13/168/27
f 13/169/27 47/170/14 48/171/20 15/172/28
f 15/173/28 48/174/20 49/175/1 1/176/21
f 41/177/20 57/178/20 50/179/1 34/180/1
f 40/181/14 56/182/14 57/183/20 41/184/20
f 39/185/12 55/186/12 56/187/14 40/188/14
f 38/189/10 54/190/10 55/191/12 39/192/12
f 37/193/8 53/194/8 54/195/10 38/196/10
f 36/197/6 52/198/6 53/199/8 37/193/8
f 35/200/4 51/201/4 52/198/6 36/197/6
f 34/202/1 50/203/1 51/204/4 35/205/4
f 6/206/5 4/207/3 63/208/55 58/209/54
f 12/210/11 10/211/9 64/212/51 59/213/53
f 2/214/2 16/215/19 65/216/49 60/217/56
f 4/218/3 2/214/2 60/217/56 63/219/55
f 8/220/7 6/221/5 58/222/54 61/223/52
f 14/224/13 12/225/11 59/226/53 62/227/50
f 10/228/9 8/220/7 61/223/52 64/229/51
f 16/215/19 14/224/13 62/227/50 65/216/49
f 30/230/49 33/231/50 73/232/42 68/233/38
f 28/234/51 32/235/52 72/236/40 67/237/34
f 33/238/50 29/239/53 70/240/33 73/241/42
f 32/242/52 27/243/54 69/244/15 72/245/40
f 26/246/55 31/247/56 71/248/37 66/249/16
f 31/250/56 30/251/49 68/252/38 71/253/37
f 29/254/53 28/255/51 67/256/34 70/257/33
f 27/258/54 26/259/55 66/260/16 69/261/15
f 74/262/48 77/263/45 76/264/46 75/265/47
f 74/72/48 75/71/47 25/266/57
f 77/88/45 74/87/48 25/267/57
f 76/68/46 77/67/45 25/266/57
f 78/44/32 79/43/31 25/266/57
f 75/76/47 78/75/32 25/267/57
f 81/84/43 76/83/46 25/267/57
f 80/64/44 81/63/43 25/266/57
f 79/80/31 80/79/44 25/267/57
o Cylinder.007_Cylinder.120
v 0.041432 2.231103 0.205380
v -0.244812 2.237313 -0.042553
v -0.514554 1.928190 0.550408
v -0.120937 2.341031 0.106310
v -0.635082 1.801775 0.686394
v -0.354498 1.815835 0.652089
v -0.636115 1.826898 0.398934
v -0.163381 1.179324 -0.121452
v 0.139963 1.172942 -0.010904
v 0.183395 0.937491 -0.593068
v -0.004790 1.284157 -0.082286
v 0.241019 0.831340 -0.749473
v 0.025911 0.830620 -0.635236
v 0.327042 0.828313 -0.518685
v -0.031620 1.167496 -0.182675
v 0.104027 1.173000 0.110666
v 0.481319 0.795368 -0.247429
v 0.074458 1.269576 -0.054144
v 0.605903 0.650163 -0.306614
v 0.377633 0.690500 -0.377096
v 0.508497 0.701578 -0.081483
v 0.129356 1.191279 -0.129254
v 0.005413 1.191160 0.172364
v 0.537644 0.850721 0.199025
v 0.101134 1.293502 0.038696
v 0.671305 0.715139 0.248118
v 0.568431 0.745897 0.032017
v 0.439356 0.750982 0.331750
v 0.123653 1.166774 -0.026177
v -0.157961 1.181647 0.138299
v 0.222011 0.821790 0.481197
v 0.004665 1.275417 0.092078
v 0.288564 0.682886 0.600348
v 0.342276 0.710481 0.365230
v 0.058108 0.730686 0.525131
v 0.090926 1.177770 0.120300
v -0.212417 1.184152 0.009753
v -0.258928 0.981048 0.590441
v -0.066139 1.290199 0.081865
v -0.317961 0.886384 0.746171
v -0.102996 0.866803 0.631866
v -0.404073 0.876819 0.515340
v -0.013017 1.175693 0.161283
v -0.148634 1.174478 -0.132043
v -0.530939 0.838060 0.223649
v -0.117663 1.277633 0.033439
v -0.657487 0.703460 0.281893
v -0.428723 0.733536 0.352612
v -0.559482 0.737489 0.057049
v -0.173610 1.206510 0.108046
v -0.049829 1.183512 -0.193649
v -0.586622 0.874073 -0.222497
v -0.144026 1.298440 -0.059251
v -0.722148 0.744129 -0.272484
v -0.618808 0.779649 -0.056160
v -0.489824 0.761639 -0.355936
v -0.168290 1.176415 0.004785
v 0.113353 1.165831 -0.159676
v -0.271631 0.811638 -0.504977
v -0.047871 1.271792 -0.112783
v -0.340148 0.670736 -0.625069
v -0.393366 0.713556 -0.389714
v -0.109092 0.708382 -0.549565
v -0.143593 1.452432 -0.159398
v 0.152016 1.448256 0.028573
v 0.332178 1.198864 -0.580857
v 0.014496 1.558585 -0.079912
v 0.429455 1.088715 -0.734249
v 0.175957 1.090596 -0.663287
v 0.467831 1.090649 -0.469428
v 0.012147 1.447209 -0.194726
v 0.088099 1.455991 0.148964
v 0.565804 1.057156 -0.143342
v 0.091931 1.552486 -0.032780
v 0.710908 0.905483 -0.177197
v 0.488806 0.948968 -0.305938
v 0.559187 0.963572 0.039051
v 0.169509 1.471689 -0.099698
v -0.031227 1.472664 0.192645
v 0.523188 1.117124 0.343560
v 0.098819 1.575948 0.070597
v 0.653133 0.976629 0.427144
v 0.596373 1.010168 0.174870
v 0.390648 1.016536 0.464004
v 0.139059 1.448578 0.010098
v -0.196958 1.463894 0.119921
v 0.124771 1.088691 0.569700
v -0.015046 1.559249 0.105385
v 0.167584 0.944603 0.711876
v 0.279698 0.975254 0.477143
v -0.057963 0.996101 0.581507
v 0.078834 1.406386 0.144255
v -0.216647 1.413795 -0.043845
v -0.411938 1.279851 0.580812
v -0.070557 1.520613 0.056014
v -0.516471 1.206128 0.741509
v -0.264554 1.164208 0.672137
v -0.556022 1.174448 0.477869
v -0.051263 1.458588 0.176518
v -0.127181 1.454466 -0.167156
v -0.610178 1.099587 0.122614
v -0.129592 1.560427 0.015269
v -0.757337 0.958475 0.155484
v -0.534673 0.995040 0.284494
v -0.604942 0.996335 -0.060442
v -0.208248 1.487762 0.081671
v -0.007687 1.461675 -0.210756
v -0.566912 1.132155 -0.363977
v -0.136185 1.579035 -0.087966
v -0.698804 0.995317 -0.448494
v -0.641507 1.038256 -0.195962
v -0.435883 1.017421 -0.485145
v -0.178174 1.457219 -0.028306
v 0.157876 1.446563 -0.138113
v -0.169145 1.068052 -0.590428
v -0.022615 1.553664 -0.122895
v -0.214013 0.919355 -0.733589
v -0.325565 0.968753 -0.498586
v 0.012207 0.963805 -0.602897
v -0.104656 1.836142 -0.201281
v 0.169292 1.837818 0.035935
v 0.420624 1.486540 -0.530643
v 0.053607 1.940835 -0.107611
v 0.533007 1.347433 -0.660178
v 0.264518 1.379177 -0.626799
v 0.534152 1.386194 -0.384611
v 0.044368 1.779343 -0.193016
v 0.070309 1.790237 0.170919
v 0.600224 1.383031 -0.056159
v 0.100361 1.886373 -0.014880
v 0.753285 1.228904 -0.068799
v 0.547168 1.273042 -0.234537
v 0.567234 1.289852 0.129883
v 0.190467 1.804663 -0.071409
v -0.058551 1.806086 0.198081
v 0.483907 1.445610 0.436140
v 0.091936 1.909835 0.091605
v 0.603932 1.303462 0.541639
v 0.584742 1.337709 0.275152
v 0.331116 1.344589 0.540591
v 0.142443 1.782232 0.037182
v -0.217350 1.797128 0.099051
v 0.043282 1.416821 0.607460
v -0.029486 1.893499 0.110302
v 0.065564 1.270859 0.759693
v 0.215639 1.302753 0.537262
v -0.145010 1.323252 0.593287
v 0.053046 1.771916 0.171608
v -0.220724 1.773267 -0.065806
v -0.503606 1.587724 0.535859
v -0.092551 1.882729 0.063852
v -0.629474 1.497391 0.680391
v -0.360425 1.475177 0.646389
v -0.629363 1.479996 0.403427
v -0.078058 1.792511 0.178245
v -0.103965 1.786438 -0.185674
v -0.639289 1.423033 0.038811
v -0.132588 1.893836 0.000810
v -0.794445 1.278870 0.050448
v -0.587737 1.318941 0.216469
v -0.607688 1.318402 -0.147896
v -0.223783 1.820489 0.056817
v 0.025053 1.793086 -0.212760
v -0.522320 1.453468 -0.453175
v -0.123876 1.911357 -0.105537
v -0.644326 1.313259 -0.559624
v -0.624569 1.359908 -0.292864
v -0.371049 1.337888 -0.558355
v -0.176133 1.789621 -0.051953
v 0.183694 1.779546 -0.113806
v -0.082348 1.389243 -0.624808
v -0.002741 1.886710 -0.124373
v -0.106724 1.236915 -0.778045
v -0.256207 1.289230 -0.555330
v 0.104556 1.285002 -0.611300
v -0.129901 2.139219 -0.177761
v 0.156255 2.134647 0.070312
v 0.454095 1.928314 -0.566505
v 0.020609 2.246844 -0.060181
v 0.586831 1.830778 -0.721544
v 0.306133 1.818817 -0.687060
v 0.587192 1.817989 -0.433035
v 0.051369 2.172890 -0.200214
v 0.078482 2.184276 0.180160
v 0.629842 1.764823 -0.056976
v 0.108267 2.280920 -0.013887
v 0.789551 1.606791 -0.070171
v 0.576009 1.653760 -0.243556
v 0.596991 1.671213 0.137324
v 0.203522 2.197951 -0.072540
v -0.056732 2.199438 0.209110
v 0.508774 1.828413 0.456816
v 0.099528 2.303776 0.096721
v 0.634088 1.682853 0.567080
v 0.615174 1.719793 0.289672
v 0.350109 1.726868 0.567088
v 0.191680 2.192679 0.081484
v -0.187943 2.229984 0.099544
v -0.008933 1.782651 0.627675
v 0.010165 2.311865 0.141238
v -0.014781 1.620603 0.776625
v 0.172470 1.660355 0.570780
v -0.206929 1.703881 0.583121
v -0.079108 2.186734 0.187978
v -0.106186 2.180387 -0.192379
v -0.663115 1.806550 0.042088
v -0.134532 2.288696 0.002358
v -0.824970 1.658914 0.054254
v -0.610798 1.701755 0.227942
v -0.631661 1.701075 -0.152882
v -0.230890 2.214511 0.060481
v 0.029173 2.185871 -0.221259
v -0.541390 1.836612 -0.471390
v -0.125515 2.305382 -0.108118
v -0.668733 1.693071 -0.582626
v -0.649209 1.742985 -0.304926
v -0.384257 1.719856 -0.582396
v -0.180525 2.183647 -0.053951
v 0.195556 2.173117 -0.118597
v -0.082098 1.771301 -0.650148
v 0.000945 2.281266 -0.128074
v -0.107527 1.615147 -0.810010
v -0.264056 1.670685 -0.579093
v 0.113001 1.666149 -0.637602
v -0.083821 2.500328 -0.182765
v 0.137599 2.500364 0.082228
v 0.485717 2.249687 -0.439429
v 0.041142 2.608545 -0.061280
v 0.621849 2.139803 -0.555221
v 0.363367 2.139361 -0.563136
v 0.579561 2.143615 -0.293698
v 0.071574 2.495517 -0.170124
v 0.041424 2.507564 0.176818
v 0.576002 2.113977 0.043201
v 0.099287 2.602640 0.006224
v 0.721975 1.964345 0.054524
v 0.551091 2.003982 -0.132930
v 0.515337 2.021773 0.213578
v 0.112151 2.488266 -0.038228
v -0.182433 2.499562 0.149436
v 0.255551 2.168299 0.518564
v -0.016718 2.599331 0.085428
v 0.338922 2.036314 0.651192
v 0.386020 2.054700 0.397453
v 0.088236 2.071064 0.580025
v 0.056125 2.505258 0.193917
v -0.241815 2.512144 0.019457
v -0.366106 2.155682 0.559065
v -0.113234 2.612591 0.143913
v -0.443537 2.015774 0.686187
v -0.198233 2.045663 0.611509
v -0.493201 2.057921 0.432168
v 0.023558 2.506272 0.178430
v -0.197862 2.506236 -0.086563
v -0.549165 2.303302 0.433568
v -0.099876 2.615850 0.057678
v -0.686740 2.207598 0.548668
v -0.428372 2.191887 0.556529
v -0.644510 2.195525 0.287118
v -0.095393 2.509032 0.161720
v -0.065210 2.501576 -0.185207
v -0.605038 2.147309 -0.054106
v -0.121653 2.608826 -0.013932
v -0.753054 2.005989 -0.066408
v -0.581619 2.044802 0.121310
v -0.545754 2.042772 -0.225145
v -0.214837 2.536013 0.026090
v 0.059130 2.509811 -0.190558
v -0.420720 2.176556 -0.501139
v -0.097508 2.626711 -0.113337
v -0.519690 2.038716 -0.619887
v -0.539949 2.083212 -0.363993
v -0.262183 2.062302 -0.576082
v -0.154791 2.504972 -0.068394
v 0.192247 2.496640 -0.072541
v 0.018802 2.114557 -0.597315
v 0.018888 2.602056 -0.112396
v 0.018775 1.965282 -0.745801
v -0.154878 2.014607 -0.556164
v 0.192161 2.012006 -0.554610
v -0.052962 2.798491 -0.171208
v 0.113134 2.800171 0.092471
v 0.485541 2.562206 -0.332919
v 0.045655 2.907248 -0.048491
v 0.620237 2.456551 -0.420012
v 0.389509 2.451420 -0.457307
v 0.550435 2.457156 -0.190285
v 0.081111 2.787056 -0.141863
v 0.013014 2.799012 0.165165
v 0.511155 2.431968 0.110840
v 0.088439 2.892761 0.019950
v 0.641247 2.383864 0.138984
v 0.506312 2.323555 -0.050439
v 0.433245 2.340927 0.255521
v 0.173463 2.814970 -0.006917
v -0.096894 2.816113 0.154296
v 0.292635 2.493839 0.490678
v 0.054840 2.918636 0.107552
v 0.365450 2.363764 0.607994
v 0.412656 2.387677 0.378462
v 0.139503 2.393814 0.535171
v 0.087763 2.793075 0.102381
v -0.212143 2.802061 0.016851
v -0.203005 2.464028 0.519365
v -0.072759 2.899692 0.100179
v -0.242888 2.330624 0.647722
v -0.043249 2.354851 0.524030
v -0.341624 2.368957 0.433573
v -0.000523 2.805472 0.165302
v -0.166619 2.803792 -0.098377
v -0.542056 2.610135 0.325560
v -0.097615 2.913931 0.043316
v -0.678147 2.517111 0.411985
v -0.447576 2.499891 0.449205
v -0.608448 2.501782 0.182209
v -0.101704 2.799692 0.136612
v -0.033578 2.791877 -0.170402
v -0.536641 2.457898 -0.118436
v -0.107603 2.897572 -0.024516
v -0.668015 2.323267 -0.147195
v -0.533263 2.357434 0.042140
v -0.460094 2.354787 -0.263770
v -0.193674 2.826325 0.001849
v 0.076527 2.802864 -0.159439
v -0.317481 2.487156 -0.497968
v -0.073687 2.916941 -0.111966
v -0.392132 2.355554 -0.616164
v -0.438900 2.394015 -0.386422
v -0.165834 2.375605 -0.543172
v -0.130600 2.795196 -0.074306
v 0.179541 2.788823 -0.036606
v 0.087665 2.428420 -0.532571
v 0.030116 2.891562 -0.096527
v 0.105287 2.286603 -0.666091
v -0.072712 2.329331 -0.512912
v 0.236752 2.328403 -0.470087
v -0.050779 3.109508 -0.170161
v 0.115318 3.111188 0.093517
v 0.487724 2.873222 -0.331872
v 0.047838 3.218265 -0.047444
v 0.622420 2.767568 -0.418966
v 0.391693 2.762437 -0.456261
v 0.552619 2.768173 -0.189239
v 0.083294 3.098072 -0.140817
v 0.015197 3.110028 0.166211
v 0.513339 2.742984 0.111886
v 0.090623 3.203777 0.020996
v 0.643422 2.693649 0.140026
v 0.508495 2.634571 -0.049392
v 0.435429 2.651943 0.256567
v 0.175647 3.125987 -0.005870
v -0.094711 3.127130 0.155342
v 0.294819 2.804856 0.491725
v 0.057024 3.229652 0.108598
v 0.367633 2.674780 0.609041
v 0.414839 2.698694 0.379508
v 0.141686 2.704830 0.536217
v 0.112190 3.102569 0.070101
v -0.197921 3.113082 0.032415
v -0.110967 2.772462 0.526021
v -0.047097 3.209787 0.093007
v -0.130525 2.638551 0.658613
v 0.047944 2.662673 0.505660
v -0.261416 2.678328 0.462884
v 0.001661 3.116489 0.166348
v -0.164436 3.114809 -0.097330
v -0.539873 2.921152 0.326607
v -0.095431 3.224947 0.044362
v -0.675453 2.900843 0.413276
v -0.445393 2.810908 0.450251
v -0.606265 2.812799 0.183255
v -0.099521 3.110708 0.137658
v -0.031394 3.102893 -0.169356
v -0.534457 2.768914 -0.117390
v -0.105420 3.208589 -0.023470
v -0.665831 2.634284 -0.146148
v -0.531080 2.668450 0.043186
v -0.457910 2.665803 -0.262724
v -0.191490 3.137342 0.002895
v 0.078711 3.113880 -0.158392
v -0.315297 2.798173 -0.496922
v -0.071503 3.227957 -0.110920
v -0.389949 2.666570 -0.615118
v -0.436717 2.705031 -0.385376
v -0.163650 2.686621 -0.542126
v -0.128416 3.106212 -0.073259
v 0.181724 3.099839 -0.035560
v 0.089849 2.739436 -0.531525
v 0.032300 3.202579 -0.095481
v 0.107471 2.597619 -0.665044
v -0.070529 2.640348 -0.511866
v 0.238935 2.639419 -0.469041
v -0.025157 1.863977 -0.273231
v 0.181845 1.872898 0.130203
v 0.726884 1.460788 -0.410626
v 0.108181 1.975063 -0.087582
v 0.916334 1.303314 -0.509544
v 0.597182 1.346680 -0.598173
v 0.796911 1.361646 -0.190942
v 0.146637 1.815746 -0.191580
v 0.008991 1.834047 0.244871
v 0.712790 1.363222 0.222719
v 0.121004 1.931437 0.039301
v 0.893999 1.189231 0.278883
v 0.741901 1.244191 -0.007084
v 0.597299 1.269171 0.427212
v 0.255892 1.843022 0.019238
v -0.155618 1.844348 0.218290
v 0.355620 1.435591 0.740408
v 0.064400 1.952431 0.155813
v 0.444793 1.277332 0.919414
v 0.548823 1.323145 0.607269
v 0.133890 1.330547 0.799449
v 0.146623 1.823843 0.126317
v -0.297197 1.837907 0.031948
v -0.228155 1.404789 0.734550
v -0.083650 1.939777 0.123097
v -0.272404 1.240973 0.921782
v 0.001268 1.285711 0.741365
v -0.440854 1.306064 0.639808
v -0.016079 1.790426 0.235245
v -0.222781 1.785286 -0.168353
v -0.827542 1.585162 0.403546
v -0.131389 1.898547 0.040219
v -1.040709 1.489202 0.514799
v -0.716324 1.475200 0.600708
v -0.914843 1.473743 0.192839
v -0.177157 1.835052 0.180952
v -0.039469 1.822772 -0.255479
v -0.749569 1.395869 -0.236348
v -0.149993 1.937400 -0.049196
v -0.933164 1.230049 -0.293655
v -0.780257 1.290338 -0.007300
v -0.635521 1.284423 -0.441532
v -0.286058 1.858208 -0.029697
v 0.125224 1.824444 -0.228858
v -0.391720 1.420194 -0.753711
v -0.093161 1.949022 -0.165598
v -0.483141 1.258264 -0.933795
v -0.586372 1.326272 -0.621266
v -0.171581 1.298725 -0.813514
v -0.177143 1.826955 -0.136945
v 0.266720 1.818911 -0.042556
v 0.191376 1.354302 -0.748179
v 0.054660 1.929060 -0.132991
v 0.233239 1.178307 -0.936553
v -0.039624 1.248818 -0.755749
v 0.402632 1.247530 -0.654128
v -0.078477 2.520549 -0.205646
v 0.165209 2.523933 0.062604
v 0.484644 2.168530 -0.474305
v 0.067665 2.626981 -0.094087
v 0.612325 2.028149 -0.590730
v 0.340953 2.059403 -0.588099
v 0.579737 2.068177 -0.315379
v 0.066165 2.465787 -0.182043
v 0.049093 2.478011 0.182908
v 0.608272 2.066426 0.020302
v 0.101364 2.574975 0.001639
v 0.764307 2.027128 0.026408
v 0.576052 1.954248 -0.163270
v 0.553021 1.972450 0.201461
v 0.198639 2.491098 -0.046547
v -0.079942 2.492631 0.192037
v 0.433807 2.130811 0.497811
v 0.082081 2.597675 0.104193
v 0.541507 1.987855 0.618339
v 0.552431 2.021490 0.349384
v 0.269716 2.028511 0.583341
v 0.140600 2.469548 0.054180
v -0.223347 2.483477 0.073184
v -0.024704 2.100822 0.617217
v -0.038347 2.581897 0.107072
v -0.020526 1.953514 0.773427
v 0.154324 1.985645 0.567323
v -0.209784 2.005229 0.580331
v 0.036817 2.456322 0.181252
v -0.206664 2.455965 -0.087174
v -0.558785 2.271245 0.478626
v -0.094818 2.566485 0.056830
v -0.700247 2.267414 0.608074
v -0.429877 2.159347 0.605527
v -0.667905 2.162460 0.332143
v -0.089992 2.479566 0.173006
v -0.072886 2.472162 -0.191928
v -0.637547 2.102869 -0.031949
v -0.123710 2.581504 -0.009965
v -0.794888 1.956308 -0.038681
v -0.606850 1.998117 0.150892
v -0.583703 1.996340 -0.213784
v -0.222103 2.506001 0.037685
v 0.056295 2.478489 -0.200987
v -0.462423 2.132337 -0.509143
v -0.104153 2.597806 -0.112388
v -0.572128 1.989808 -0.630632
v -0.582479 2.037797 -0.361402
v -0.299869 2.015757 -0.595410
v -0.164428 2.475806 -0.063217
v 0.199554 2.466696 -0.082205
v -0.004571 2.068472 -0.628865
v 0.016002 2.574583 -0.115399
v -0.010871 1.913498 -0.786092
v -0.185121 1.966721 -0.579701
v 0.179102 1.963561 -0.592653
v -0.116202 3.405869 -0.076171
v 0.110533 3.400624 -0.012190
v 0.110881 3.198617 -0.438053
v 0.002827 3.510614 -0.060578
v 0.143967 3.103082 -0.553638
v -0.007514 3.092038 -0.455865
v 0.217952 3.090461 -0.387446
v -0.031423 3.376625 -0.123127
v 0.083038 3.379961 0.082696
v 0.353089 3.066557 -0.206209
v 0.061277 3.473927 -0.040290
v 0.442443 2.941818 -0.257014
v 0.262104 2.966861 -0.290021
v 0.373134 2.974986 -0.082248
v 0.090203 3.401915 -0.098126
v 0.016108 3.401482 0.127794
v 0.417077 3.117045 0.120935
v 0.087056 3.500880 0.029044
v 0.518131 2.999513 0.149073
v 0.422163 3.015824 -0.005695
v 0.344189 3.019903 0.219144
v 0.092907 3.375252 -0.028991
v -0.103278 3.386195 0.105676
v 0.200670 3.085297 0.348055
v 0.018316 3.478074 0.071401
v 0.256508 2.965026 0.432768
v 0.276332 2.980167 0.249289
v 0.078004 2.995726 0.380703
v 0.081515 3.404029 0.086988
v -0.145221 3.409275 0.023006
v -0.148252 3.229033 0.447583
v -0.035999 3.515171 0.072121
v -0.182624 3.141415 0.562552
v -0.031398 3.116209 0.464657
v -0.256814 3.124818 0.396262
v 0.015608 3.381330 0.117595
v -0.098831 3.381122 -0.088218
v -0.373063 3.098888 0.198683
v -0.075716 3.480009 0.035416
v -0.464112 2.982187 0.248676
v -0.283486 2.997969 0.281820
v -0.394430 3.002241 0.074088
v -0.105620 3.412715 0.092784
v -0.031644 3.396282 -0.133192
v -0.436432 3.136580 -0.128164
v -0.101131 3.504987 -0.033743
v -0.539103 3.023771 -0.157077
v -0.442892 3.042142 -0.002192
v -0.364974 3.030040 -0.227059
v -0.108721 3.382702 0.023459
v 0.087485 3.374887 -0.111197
v -0.220644 3.080149 -0.355581
v -0.032755 3.475861 -0.076274
v -0.278177 2.958979 -0.441106
v -0.297715 2.984664 -0.257490
v -0.099299 2.981500 -0.388863
v -0.116333 3.643064 -0.039251
v 0.091346 3.636777 -0.038848
v -0.008462 3.448977 -0.397948
v -0.011481 3.747065 -0.056038
v -0.007538 3.357700 -0.502643
v -0.113296 3.343224 -0.383171
v 0.094347 3.340442 -0.378749
v -0.056788 3.606747 -0.096936
v 0.088844 3.607440 0.049644
v 0.253555 3.318239 -0.261425
v 0.044351 3.700939 -0.051725
v 0.317614 3.201055 -0.325637
v 0.153645 3.221798 -0.307869
v 0.296817 3.226990 -0.158824
v 0.052753 3.632224 -0.105520
v 0.042912 3.630410 0.102575
v 0.384911 3.364337 0.001167
v 0.083803 3.728715 0.003186
v 0.477113 3.252762 0.000549
v 0.355631 3.265704 -0.107551
v 0.342251 3.268174 0.100567
v 0.070972 3.604083 -0.049435
v -0.064055 3.613626 0.110513
v 0.254435 3.331122 0.245396
v 0.034376 3.703977 0.055676
v 0.321818 3.216952 0.303489
v 0.292324 3.229037 0.141399
v 0.154710 3.242963 0.299118
v 0.089983 3.639162 0.053167
v -0.117695 3.645449 0.052763
v -0.020439 3.469936 0.410641
v -0.013358 3.750349 0.070678
v -0.022607 3.384071 0.514740
v 0.082861 3.357101 0.395128
v -0.124734 3.366684 0.390728
v 0.042510 3.608560 0.092440
v -0.103103 3.610616 -0.054131
v -0.271692 3.347322 0.255079
v -0.057281 3.706558 0.047875
v -0.337347 3.237321 0.318526
v -0.173162 3.247213 0.300862
v -0.316254 3.253492 0.151855
v -0.066624 3.641109 0.101218
v -0.056887 3.628100 -0.106926
v -0.402440 3.387997 -0.007221
v -0.096345 3.733922 -0.006851
v -0.495644 3.356697 -0.007084
v -0.374517 3.293151 0.100846
v -0.361183 3.284208 -0.107295
v -0.085250 3.611224 0.044939
v 0.049796 3.604430 -0.115000
v -0.272572 3.334439 -0.251742
v -0.047305 3.703519 -0.059526
v -0.341550 3.221424 -0.310600
v -0.311841 3.239974 -0.148407
v -0.174147 3.237519 -0.306087
v -0.085465 3.954543 -0.006704
v 0.055659 3.949427 -0.039542
v -0.069850 3.803318 -0.269539
v -0.017388 4.042311 -0.037047
v -0.085914 3.730137 -0.340729
v -0.138236 3.714145 -0.240562
v 0.003505 3.711839 -0.270667
v -0.061269 3.925284 -0.046143
v 0.060904 3.924465 0.029601
v 0.135337 3.693202 -0.225979
v 0.018093 4.005855 -0.037225
v 0.171238 3.597466 -0.283776
v 0.056664 3.610794 -0.236006
v 0.177459 3.613650 -0.158043
v 0.008854 3.945316 -0.077437
v 0.035210 3.942978 0.064743
v 0.268778 3.729925 -0.063033
v 0.053046 4.027576 -0.009399
v 0.334837 3.638782 -0.079456
v 0.225854 3.645916 -0.131386
v 0.249674 3.647076 0.011424
v 0.028804 3.922437 -0.050700
v -0.037538 3.928704 0.078817
v 0.219732 3.699680 0.128793
v 0.026557 4.007288 0.029124
v 0.278883 3.605489 0.159313
v 0.223114 3.613020 0.049555
v 0.154502 3.622903 0.177900
v 0.068669 3.950544 0.019782
v -0.072455 3.955659 0.052620
v 0.051032 3.813693 0.281648
v 0.001864 4.043963 0.050735
v 0.066087 3.743182 0.352355
v 0.118126 3.718920 0.252052
v -0.023576 3.726742 0.282176
v 0.049716 3.924234 0.044757
v -0.072444 3.926965 -0.030980
v -0.150000 3.713293 0.223103
v -0.028484 4.009143 0.036396
v -0.187209 3.622702 0.280273
v -0.072514 3.626646 0.232561
v -0.193245 3.632854 0.154629
v -0.020085 3.950108 0.076207
v -0.046513 3.942125 -0.066008
v -0.282927 3.749797 0.060403
v -0.063128 4.031560 0.008719
v -0.349937 3.705414 0.076370
v -0.241177 3.666688 0.128194
v -0.265021 3.662018 -0.014628
v -0.040357 3.927082 0.049315
v 0.025998 3.922727 -0.080196
v -0.234395 3.706815 -0.131669
v -0.036948 4.007710 -0.029953
v -0.294855 3.614680 -0.162815
v -0.238964 3.624419 -0.052999
v -0.170288 3.623601 -0.181314
v -0.061754 4.224997 0.007307
v 0.034135 4.221008 -0.035162
v -0.086243 4.116910 -0.180926
v -0.017498 4.288308 -0.023349
v -0.107293 4.064427 -0.229178
v -0.130903 4.052592 -0.151196
v -0.034205 4.050617 -0.191813
v -0.049888 4.203968 -0.023922
v 0.047252 4.202653 0.013016
v 0.065598 4.036544 -0.178180
v 0.007718 4.261869 -0.028347
v 0.083321 3.967549 -0.224060
v 0.008331 3.977319 -0.174636
v 0.104791 3.978653 -0.135937
v -0.004282 4.218356 -0.055599
v 0.033743 4.215946 0.041398
v 0.182563 4.061917 -0.081045
v 0.036337 4.277322 -0.013402
v 0.227339 3.995959 -0.101758
v 0.142804 4.001685 -0.123639
v 0.179110 4.001808 -0.025847
v 0.013538 4.201650 -0.039424
v -0.016068 4.205802 0.061255
v 0.173720 4.039367 0.061323
v 0.022735 4.262580 0.017442
v 0.219953 3.971017 0.074760
v 0.165410 3.977124 0.004714
v 0.134030 3.983901 0.104877
v 0.051432 4.221508 0.005037
v -0.044457 4.225497 0.047506
v 0.074461 4.121551 0.192570
v 0.008095 4.289047 0.036133
v 0.094782 4.070262 0.240472
v 0.118188 4.053027 0.162393
v 0.021518 4.058985 0.203023
v 0.041353 4.202454 0.025263
v -0.055778 4.205149 -0.011671
v -0.076379 4.049933 0.178444
v -0.015415 4.264059 0.030090
v -0.095046 3.984366 0.223871
v -0.019969 3.987070 0.174490
v -0.116383 3.992281 0.135812
v -0.004021 4.221217 0.057051
v -0.042098 4.216173 -0.039971
v -0.192973 4.077443 0.081487
v -0.043809 4.280481 0.015252
v -0.238648 4.015272 0.101769
v -0.154062 4.016985 0.123676
v -0.190385 4.014328 0.025875
v -0.022073 4.204772 0.040765
v 0.007542 4.202000 -0.059909
v -0.184501 4.047111 -0.061059
v -0.030431 4.263348 -0.015700
v -0.231678 3.980898 -0.074949
v -0.177048 3.987264 -0.004861
v -0.145622 3.987034 -0.105002
v -0.061023 4.399186 0.013508
v 0.031819 4.396291 0.010363
v -0.018631 4.301127 -0.150584
v -0.014388 4.455735 0.002746
v -0.019930 4.253786 -0.197535
v -0.065290 4.243670 -0.140724
v 0.027602 4.242592 -0.142066
v 0.008151 4.422719 0.050255
v -0.044062 4.419038 -0.026191
v -0.151446 4.295428 0.108507
v -0.034731 4.475921 0.022029
v -0.187185 4.240160 0.134988
v -0.109250 4.241165 0.137241
v -0.160092 4.239606 0.059779
v -0.010553 4.506634 0.030990
v -0.007566 4.505670 -0.015366
v -0.090988 4.437360 0.002936
v -0.019730 4.532834 0.007493
v -0.112807 4.408125 0.001540
v -0.082230 4.410599 0.026406
v -0.078405 4.410757 -0.019897
v -0.005379 4.459881 -0.014387
v -0.034205 4.461997 0.022309
v 0.043325 4.389152 0.054167
v -0.011006 4.487208 0.010600
v 0.059961 4.359127 0.067508
v 0.049271 4.361249 0.029436
v 0.019807 4.364517 0.065620
vt 0.099609 0.250000
vt 0.111328 0.250000
vt 0.111328 0.287109
vt 0.099609 0.287109
vt 0.111328 0.296875
vt 0.125000 0.287109
vt 0.125000 0.250000
vt 0.099609 0.250000
vt 0.111328 0.250000
vt 0.111328 0.287109
vt 0.099609 0.287109
vt 0.111328 0.296875
vt 0.125000 0.287109
vt 0.125000 0.250000
vt 0.099609 0.250000
vt 0.111328 0.250000
vt 0.111328 0.287109
vt 0.099609 0.287109
vt 0.111328 0.296875
vt 0.125000 0.287109
vt 0.125000 0.250000
vt 0.099609 0.250000
vt 0.111328 0.250000
vt 0.111328 0.287109
vt 0.099609 0.287109
vt 0.111328 0.296875
vt 0.125000 0.287109
vt 0.125000 0.250000
vt 0.099609 0.250000
vt 0.111328 0.250000
vt 0.111328 0.287109
vt 0.099609 0.287109
vt 0.111328 0.296875
vt 0.125000 0.287109
vt 0.125000 0.250000
vt 0.099609 0.250000
vt 0.111328 0.250000
vt 0.111328 0.287109
vt 0.099609 0.287109
vt 0.111328 0.296875
vt 0.125000 0.287109
vt 0.125000 0.250000
vt 0.099609 0.250000
vt 0.111328 0.250000
vt 0.111328 0.287109
vt 0.099609 0.287109
vt 0.111328 0.296875
vt 0.125000 0.287109
vt 0.125000 0.250000
vt 0.099609 0.250000
vt 0.111328 0.250000
vt 0.111328 0.287109
vt 0.099609 0.287109
vt 0.111328 0.296875
vt 0.125000 0.287109
vt 0.125000 0.250000
vt 0.099609 0.250000
vt 0.111328 0.250000
vt 0.111328 0.287109
vt 0.099609 0.287109
vt 0.111328 0.296875
vt 0.125000 0.287109
vt 0.125000 0.250000
vt 0.099609 0.250000
vt 0.111328 0.250000
vt 0.111328 0.287109
vt 0.099609 0.287109
vt 0.111328 0.296875
vt 0.125000 0.287109
vt 0.125000 0.250000
vt 0.099609 0.250000
vt 0.111328 0.250000
vt 0.111328 0.287109
vt 0.099609 0.287109
vt 0.111328 0.296875
vt 0.125000 0.287109
vt 0.125000 0.250000
vt 0.099609 0.250000
vt 0.111328 0.250000
vt 0.111328 0.287109
vt 0.099609 0.287109
vt 0.111328 0.296875
vt 0.125000 0.287109
vt 0.125000 0.250000
vt 0.099609 0.250000
vt 0.111328 0.250000
vt 0.111328 0.287109
vt 0.099609 0.287109
vt 0.111328 0.296875
vt 0.125000 0.287109
vt 0.125000 0.250000
vt 0.099609 0.250000
vt 0.111328 0.250000
vt 0.111328 0.287109
vt 0.099609 0.287109
vt 0.111328 0.296875
vt 0.125000 0.287109
vt 0.125000 0.250000
vt 0.099609 0.250000
vt 0.111328 0.250000
vt 0.111328 0.287109
vt 0.099609 0.287109
vt 0.111328 0.296875
vt 0.125000 0.287109
vt 0.125000 0.250000
vt 0.099609 0.250000
vt 0.111328 0.250000
vt 0.111328 0.287109
vt 0.099609 0.287109
vt 0.111328 0.296875
vt 0.125000 0.287109
vt 0.125000 0.250000
vt 0.099609 0.250000
vt 0.111328 0.250000
vt 0.111328 0.287109
vt 0.099609 0.287109
vt 0.111328 0.296875
vt 0.125000 0.287109
vt 0.125000 0.250000
vt 0.099609 0.250000
vt 0.111328 0.250000
vt 0.111328 0.287109
vt 0.099609 0.287109
vt 0.111328 0.296875
vt 0.125000 0.287109
vt 0.125000 0.250000
vt 0.099609 0.250000
vt 0.111328 0.250000
vt 0.111328 0.287109
vt 0.099609 0.287109
vt 0.111328 0.296875
vt 0.125000 0.287109
vt 0.125000 0.250000
vt 0.099609 0.250000
vt 0.111328 0.250000
vt 0.111328 0.287109
vt 0.099609 0.287109
vt 0.111328 0.296875
vt 0.125000 0.287109
vt 0.125000 0.250000
vt 0.099609 0.250000
vt 0.111328 0.250000
vt 0.111328 0.287109
vt 0.099609 0.287109
vt 0.111328 0.296875
vt 0.125000 0.287109
vt 0.125000 0.250000
vt 0.099609 0.250000
vt 0.111328 0.250000
vt 0.111328 0.287109
vt 0.099609 0.287109
vt 0.111328 0.296875
vt 0.125000 0.287109
vt 0.125000 0.250000
vt 0.099609 0.250000
vt 0.111328 0.250000
vt 0.111328 0.287109
vt 0.099609 0.287109
vt 0.111328 0.296875
vt 0.125000 0.287109
vt 0.125000 0.250000
vt 0.099609 0.250000
vt 0.111328 0.250000
vt 0.111328 0.287109
vt 0.099609 0.287109
vt 0.111328 0.296875
vt 0.125000 0.287109
vt 0.125000 0.250000
vt 0.099609 0.250000
vt 0.111328 0.250000
vt 0.111328 0.287109
vt 0.099609 0.287109
vt 0.111328 0.296875
vt 0.125000 0.287109
vt 0.125000 0.250000
vt 0.099609 0.250000
vt 0.111328 0.250000
vt 0.111328 0.287109
vt 0.099609 0.287109
vt 0.111328 0.296875
vt 0.125000 0.287109
vt 0.125000 0.250000
vt 0.099609 0.250000
vt 0.111328 0.250000
vt 0.111328 0.287109
vt 0.099609 0.287109
vt 0.111328 0.296875
vt 0.125000 0.287109
vt 0.125000 0.250000
vt 0.099609 0.250000
vt 0.111328 0.250000
vt 0.111328 0.287109
vt 0.099609 0.287109
vt 0.111328 0.296875
vt 0.125000 0.287109
vt 0.125000 0.250000
vt 0.099609 0.250000
vt 0.111328 0.250000
vt 0.111328 0.287109
vt 0.099609 0.287109
vt 0.111328 0.296875
vt 0.125000 0.287109
vt 0.125000 0.250000
vt 0.099609 0.250000
vt 0.111328 0.250000
vt 0.111328 0.287109
vt 0.099609 0.287109
vt 0.111328 0.296875
vt 0.125000 0.287109
vt 0.125000 0.250000
vt 0.099609 0.250000
vt 0.111328 0.250000
vt 0.111328 0.287109
vt 0.099609 0.287109
vt 0.111328 0.296875
vt 0.125000 0.287109
vt 0.125000 0.250000
vt 0.099609 0.250000
vt 0.111328 0.250000
vt 0.111328 0.287109
vt 0.099609 0.287109
vt 0.111328 0.296875
vt 0.125000 0.287109
vt 0.125000 0.250000
vt 0.099609 0.250000
vt 0.111328 0.250000
vt 0.111328 0.287109
vt 0.099609 0.287109
vt 0.111328 0.296875
vt 0.125000 0.287109
vt 0.125000 0.250000
vt 0.099609 0.250000
vt 0.111328 0.250000
vt 0.111328 0.287109
vt 0.099609 0.287109
vt 0.111328 0.296875
vt 0.125000 0.287109
vt 0.125000 0.250000
vt 0.099609 0.250000
vt 0.111328 0.250000
vt 0.111328 0.287109
vt 0.099609 0.287109
vt 0.111328 0.296875
vt 0.125000 0.287109
vt 0.125000 0.250000
vt 0.099609 0.250000
vt 0.111328 0.250000
vt 0.111328 0.287109
vt 0.099609 0.287109
vt 0.111328 0.296875
vt 0.125000 0.287109
vt 0.125000 0.250000
vt 0.099609 0.250000
vt 0.111328 0.250000
vt 0.111328 0.287109
vt 0.099609 0.287109
vt 0.111328 0.296875
vt 0.125000 0.287109
vt 0.125000 0.250000
vt 0.099609 0.250000
vt 0.111328 0.250000
vt 0.111328 0.287109
vt 0.099609 0.287109
vt 0.111328 0.296875
vt 0.125000 0.287109
vt 0.125000 0.250000
vt 0.099609 0.250000
vt 0.111328 0.250000
vt 0.111328 0.287109
vt 0.099609 0.287109
vt 0.111328 0.296875
vt 0.125000 0.287109
vt 0.125000 0.250000
vt 0.099609 0.250000
vt 0.111328 0.250000
vt 0.111328 0.287109
vt 0.099609 0.287109
vt 0.111328 0.296875
vt 0.125000 0.287109
vt 0.125000 0.250000
vt 0.099609 0.250000
vt 0.111328 0.250000
vt 0.111328 0.287109
vt 0.099609 0.287109
vt 0.111328 0.296875
vt 0.125000 0.287109
vt 0.125000 0.250000
vt 0.099609 0.250000
vt 0.111328 0.250000
vt 0.111328 0.287109
vt 0.099609 0.287109
vt 0.111328 0.296875
vt 0.125000 0.287109
vt 0.125000 0.250000
vt 0.099609 0.250000
vt 0.111328 0.250000
vt 0.111328 0.287109
vt 0.099609 0.287109
vt 0.111328 0.296875
vt 0.125000 0.287109
vt 0.125000 0.250000
vt 0.099609 0.250000
vt 0.111328 0.250000
vt 0.111328 0.287109
vt 0.099609 0.287109
vt 0.111328 0.296875
vt 0.125000 0.287109
vt 0.125000 0.250000
vt 0.099609 0.250000
vt 0.111328 0.250000
vt 0.111328 0.287109
vt 0.099609 0.287109
vt 0.111328 0.296875
vt 0.125000 0.287109
vt 0.125000 0.250000
vt 0.099609 0.250000
vt 0.111328 0.250000
vt 0.111328 0.287109
vt 0.099609 0.287109
vt 0.111328 0.296875
vt 0.125000 0.287109
vt 0.125000 0.250000
vt 0.099609 0.250000
vt 0.111328 0.250000
vt 0.111328 0.287109
vt 0.099609 0.287109
vt 0.111328 0.296875
vt 0.125000 0.287109
vt 0.125000 0.250000
vt 0.099609 0.250000
vt 0.111328 0.250000
vt 0.111328 0.287109
vt 0.099609 0.287109
vt 0.111328 0.296875
vt 0.125000 0.287109
vt 0.125000 0.250000
vt 0.099609 0.250000
vt 0.111328 0.250000
vt 0.111328 0.287109
vt 0.099609 0.287109
vt 0.111328 0.296875
vt 0.125000 0.287109
vt 0.125000 0.250000
vt 0.099609 0.250000
vt 0.111328 0.250000
vt 0.111328 0.287109
vt 0.099609 0.287109
vt 0.111328 0.296875
vt 0.125000 0.287109
vt 0.125000 0.250000
vt 0.099609 0.250000
vt 0.111328 0.250000
vt 0.111328 0.287109
vt 0.099609 0.287109
vt 0.111328 0.296875
vt 0.125000 0.287109
vt 0.125000 0.250000
vt 0.099609 0.250000
vt 0.111328 0.250000
vt 0.111328 0.287109
vt 0.099609 0.287109
vt 0.111328 0.296875
vt 0.125000 0.287109
vt 0.125000 0.250000
vt 0.099609 0.250000
vt 0.111328 0.250000
vt 0.111328 0.287109
vt 0.099609 0.287109
vt 0.111328 0.296875
vt 0.125000 0.287109
vt 0.125000 0.250000
vt 0.099609 0.250000
vt 0.111328 0.250000
vt 0.111328 0.287109
vt 0.099609 0.287109
vt 0.111328 0.296875
vt 0.125000 0.287109
vt 0.125000 0.250000
vt 0.099609 0.250000
vt 0.111328 0.250000
vt 0.111328 0.287109
vt 0.099609 0.287109
vt 0.111328 0.296875
vt 0.125000 0.287109
vt 0.125000 0.250000
vt 0.099609 0.250000
vt 0.111328 0.250000
vt 0.111328 0.287109
vt 0.099609 0.287109
vt 0.111328 0.296875
vt 0.125000 0.287109
vt 0.125000 0.250000
vt 0.099609 0.250000
vt 0.111328 0.250000
vt 0.111328 0.287109
vt 0.099609 0.287109
vt 0.111328 0.296875
vt 0.125000 0.287109
vt 0.125000 0.250000
vt 0.099609 0.250000
vt 0.111328 0.250000
vt 0.111328 0.287109
vt 0.099609 0.287109
vt 0.111328 0.296875
vt 0.125000 0.287109
vt 0.125000 0.250000
vt 0.099609 0.250000
vt 0.111328 0.250000
vt 0.111328 0.287109
vt 0.099609 0.287109
vt 0.111328 0.296875
vt 0.125000 0.287109
vt 0.125000 0.250000
vt 0.099609 0.250000
vt 0.111328 0.250000
vt 0.111328 0.287109
vt 0.099609 0.287109
vt 0.111328 0.296875
vt 0.125000 0.287109
vt 0.125000 0.250000
vt 0.099609 0.250000
vt 0.111328 0.250000
vt 0.111328 0.287109
vt 0.099609 0.287109
vt 0.111328 0.296875
vt 0.125000 0.287109
vt 0.125000 0.250000
vt 0.099609 0.250000
vt 0.111328 0.250000
vt 0.111328 0.287109
vt 0.099609 0.287109
vt 0.111328 0.296875
vt 0.125000 0.287109
vt 0.125000 0.250000
vt 0.099609 0.250000
vt 0.111328 0.250000
vt 0.111328 0.287109
vt 0.099609 0.287109
vt 0.111328 0.296875
vt 0.125000 0.287109
vt 0.125000 0.250000
vt 0.099609 0.250000
vt 0.111328 0.250000
vt 0.111328 0.287109
vt 0.099609 0.287109
vt 0.111328 0.296875
vt 0.125000 0.287109
vt 0.125000 0.250000
vt 0.099609 0.250000
vt 0.111328 0.250000
vt 0.111328 0.287109
vt 0.099609 0.287109
vt 0.111328 0.296875
vt 0.125000 0.287109
vt 0.125000 0.250000
vt 0.099609 0.250000
vt 0.111328 0.250000
vt 0.111328 0.287109
vt 0.099609 0.287109
vt 0.111328 0.296875
vt 0.125000 0.287109
vt 0.125000 0.250000
vt 0.099609 0.250000
vt 0.111328 0.250000
vt 0.111328 0.287109
vt 0.099609 0.287109
vt 0.111328 0.296875
vt 0.125000 0.287109
vt 0.125000 0.250000
vt 0.099609 0.250000
vt 0.111328 0.250000
vt 0.111328 0.287109
vt 0.099609 0.287109
vt 0.111328 0.296875
vt 0.125000 0.287109
vt 0.125000 0.250000
vt 0.099609 0.250000
vt 0.111328 0.250000
vt 0.111328 0.287109
vt 0.099609 0.287109
vt 0.111328 0.296875
vt 0.125000 0.287109
vt 0.125000 0.250000
vt 0.099609 0.250000
vt 0.111328 0.250000
vt 0.111328 0.287109
vt 0.099609 0.287109
vt 0.111328 0.296875
vt 0.125000 0.287109
vt 0.125000 0.250000
vt 0.099609 0.250000
vt 0.111328 0.250000
vt 0.111328 0.287109
vt 0.099609 0.287109
vt 0.111328 0.296875
vt 0.125000 0.287109
vt 0.125000 0.250000
vt 0.099609 0.250000
vt 0.111328 0.250000
vt 0.111328 0.287109
vt 0.099609 0.287109
vt 0.111328 0.296875
vt 0.125000 0.287109
vt 0.125000 0.250000
vt 0.099609 0.250000
vt 0.111328 0.250000
vt 0.111328 0.287109
vt 0.099609 0.287109
vt 0.111328 0.296875
vt 0.125000 0.287109
vt 0.125000 0.250000
vt 0.099609 0.250000
vt 0.111328 0.250000
vt 0.111328 0.287109
vt 0.099609 0.287109
vt 0.111328 0.296875
vt 0.125000 0.287109
vt 0.125000 0.250000
vt 0.099609 0.250000
vt 0.111328 0.250000
vt 0.111328 0.287109
vt 0.099609 0.287109
vt 0.111328 0.296875
vt 0.125000 0.287109
vt 0.125000 0.250000
vt 0.099609 0.250000
vt 0.111328 0.250000
vt 0.111328 0.287109
vt 0.099609 0.287109
vt 0.111328 0.296875
vt 0.125000 0.287109
vt 0.125000 0.250000
vt 0.099609 0.250000
vt 0.111328 0.250000
vt 0.111328 0.287109
vt 0.099609 0.287109
vt 0.111328 0.296875
vt 0.125000 0.287109
vt 0.125000 0.250000
vt 0.099609 0.250000
vt 0.111328 0.250000
vt 0.111328 0.287109
vt 0.099609 0.287109
vt 0.111328 0.296875
vt 0.125000 0.287109
vt 0.125000 0.250000
vt 0.099609 0.250000
vt 0.111328 0.250000
vt 0.111328 0.287109
vt 0.099609 0.287109
vt 0.111328 0.296875
vt 0.125000 0.287109
vt 0.125000 0.250000
vt 0.099609 0.250000
vt 0.111328 0.250000
vt 0.111328 0.287109
vt 0.099609 0.287109
vt 0.111328 0.296875
vt 0.125000 0.287109
vt 0.125000 0.250000
vt 0.099609 0.250000
vt 0.111328 0.250000
vt 0.111328 0.287109
vt 0.099609 0.287109
vt 0.111328 0.296875
vt 0.125000 0.287109
vt 0.125000 0.250000
vt 0.099609 0.250000
vt 0.111328 0.250000
vt 0.111328 0.287109
vt 0.099609 0.287109
vt 0.111328 0.296875
vt 0.125000 0.287109
vt 0.125000 0.250000
vt 0.099609 0.250000
vt 0.111328 0.250000
vt 0.111328 0.287109
vt 0.099609 0.287109
vt 0.111328 0.296875
vt 0.125000 0.287109
vt 0.125000 0.250000
vt 0.099609 0.250000
vt 0.111328 0.250000
vt 0.111328 0.287109
vt 0.099609 0.287109
vt 0.111328 0.296875
vt 0.125000 0.287109
vt 0.125000 0.250000
vt 0.099609 0.250000
vt 0.111328 0.250000
vt 0.111328 0.287109
vt 0.099609 0.287109
vt 0.111328 0.296875
vt 0.125000 0.287109
vt 0.125000 0.250000
vt 0.099609 0.250000
vt 0.111328 0.250000
vt 0.111328 0.287109
vt 0.099609 0.287109
vt 0.111328 0.296875
vt 0.125000 0.287109
vt 0.125000 0.250000
vt 0.099609 0.250000
vt 0.111328 0.250000
vt 0.111328 0.287109
vt 0.099609 0.287109
vt 0.111328 0.296875
vt 0.125000 0.287109
vt 0.125000 0.250000
vt 0.099609 0.250000
vt 0.111328 0.250000
vt 0.111328 0.287109
vt 0.099609 0.287109
vt 0.111328 0.296875
vt 0.125000 0.287109
vt 0.125000 0.250000
vt 0.099609 0.250000
vt 0.111328 0.250000
vt 0.111328 0.287109
vt 0.099609 0.287109
vt 0.111328 0.296875
vt 0.125000 0.287109
vt 0.125000 0.250000
vt 0.099609 0.250000
vt 0.111328 0.250000
vt 0.111328 0.287109
vt 0.099609 0.287109
vt 0.111328 0.296875
vt 0.125000 0.287109
vt 0.125000 0.250000
vt 0.099609 0.250000
vt 0.111328 0.250000
vt 0.111328 0.287109
vt 0.099609 0.287109
vt 0.111328 0.296875
vt 0.125000 0.287109
vt 0.125000 0.250000
vt 0.099609 0.250000
vt 0.111328 0.250000
vt 0.111328 0.287109
vt 0.099609 0.287109
vt 0.111328 0.296875
vt 0.125000 0.287109
vt 0.125000 0.250000
vt 0.099609 0.250000
vt 0.111328 0.250000
vt 0.111328 0.287109
vt 0.099609 0.287109
vt 0.111328 0.296875
vt 0.125000 0.287109
vt 0.125000 0.250000
vt 0.099609 0.250000
vt 0.111328 0.250000
vt 0.111328 0.287109
vt 0.099609 0.287109
vt 0.111328 0.296875
vt 0.125000 0.287109
vt 0.125000 0.250000
vt 0.099609 0.250000
vt 0.111328 0.250000
vt 0.111328 0.287109
vt 0.099609 0.287109
vt 0.111328 0.296875
vt 0.125000 0.287109
vt 0.125000 0.250000
vt 0.099609 0.250000
vt 0.111328 0.250000
vt 0.111328 0.287109
vt 0.099609 0.287109
vt 0.111328 0.296875
vt 0.125000 0.287109
vt 0.125000 0.250000
vt 0.099609 0.250000
vt 0.111328 0.250000
vt 0.111328 0.287109
vt 0.099609 0.287109
vt 0.111328 0.296875
vt 0.125000 0.287109
vt 0.125000 0.250000
vt 0.099609 0.250000
vt 0.111328 0.250000
vt 0.111328 0.287109
vt 0.099609 0.287109
vt 0.111328 0.296875
vt 0.125000 0.287109
vt 0.125000 0.250000
vt 0.099609 0.250000
vt 0.111328 0.250000
vt 0.111328 0.287109
vt 0.099609 0.287109
vt 0.111328 0.296875
vt 0.125000 0.287109
vt 0.125000 0.250000
vt 0.099609 0.250000
vt 0.111328 0.250000
vt 0.111328 0.287109
vt 0.099609 0.287109
vt 0.111328 0.296875
vt 0.125000 0.287109
vt 0.125000 0.250000
vt 0.099609 0.250000
vt 0.111328 0.250000
vt 0.111328 0.287109
vt 0.099609 0.287109
vt 0.111328 0.296875
vt 0.125000 0.287109
vt 0.125000 0.250000
vt 0.099609 0.250000
vt 0.111328 0.250000
vt 0.111328 0.287109
vt 0.099609 0.287109
vt 0.111328 0.296875
vt 0.125000 0.287109
vt 0.125000 0.250000
vt 0.099609 0.250000
vt 0.111328 0.250000
vt 0.111328 0.287109
vt 0.099609 0.287109
vt 0.111328 0.296875
vt 0.125000 0.287109
vt 0.125000 0.250000
vt 0.099609 0.250000
vt 0.111328 0.250000
vt 0.111328 0.287109
vt 0.099609 0.287109
vt 0.111328 0.296875
vt 0.125000 0.287109
vt 0.125000 0.250000
vt 0.099609 0.250000
vt 0.111328 0.250000
vt 0.111328 0.287109
vt 0.099609 0.287109
vt 0.111328 0.296875
vt 0.125000 0.287109
vt 0.125000 0.250000
vt 0.099609 0.250000
vt 0.111328 0.250000
vt 0.111328 0.287109
vt 0.099609 0.287109
vt 0.111328 0.296875
vt 0.125000 0.287109
vt 0.125000 0.250000
vt 0.099609 0.250000
vt 0.111328 0.250000
vt 0.111328 0.287109
vt 0.099609 0.287109
vt 0.111328 0.296875
vt 0.125000 0.287109
vt 0.125000 0.250000
vt 0.099609 0.250000
vt 0.111328 0.250000
vt 0.111328 0.287109
vt 0.099609 0.287109
vt 0.111328 0.296875
vt 0.125000 0.287109
vt 0.125000 0.250000
vn 0.0505 0.7087 0.7036
vn -0.3638 0.8207 0.4405
vn -0.3582 0.8206 0.4453
vn -0.6859 0.7247 0.0658
vn -0.3265 0.7218 -0.6102
vn 0.1936 0.8434 -0.5011
vn 0.1981 0.8434 -0.4994
vn 0.1956 0.8434 -0.5004
vn 0.6628 0.7100 -0.2377
vn 0.3318 0.5860 -0.7392
vn 0.6566 0.6887 -0.3075
vn 0.6536 0.6887 -0.3138
vn 0.6467 0.6886 -0.3281
vn 0.7825 0.5881 0.2042
vn 0.7331 0.6287 -0.2595
vn 0.6327 0.7236 0.2756
vn 0.6362 0.7238 0.2670
vn 0.6435 0.7241 0.2478
vn 0.3511 0.6049 0.7146
vn 0.7753 0.5820 0.2454
vn 0.3750 0.7005 0.6071
vn 0.3800 0.7003 0.6042
vn 0.3968 0.6997 0.5941
vn -0.1289 0.6093 0.7823
vn 0.3748 0.7223 0.5812
vn -0.1560 0.8692 0.4692
vn -0.1571 0.8692 0.4688
vn -0.1475 0.8690 0.4723
vn -0.6392 0.7404 0.2078
vn -0.3066 0.6059 0.7341
vn -0.6294 0.7191 0.2944
vn -0.6297 0.7191 0.2938
vn -0.6279 0.7191 0.2976
vn -0.7569 0.6087 -0.2378
vn -0.7165 0.6571 0.2344
vn -0.6052 0.7421 -0.2880
vn -0.6029 0.7418 -0.2936
vn -0.6013 0.7416 -0.2975
vn -0.3092 0.6048 -0.7339
vn -0.7486 0.6016 -0.2787
vn -0.3533 0.7004 -0.6201
vn -0.3443 0.7003 -0.6252
vn -0.3399 0.7003 -0.6277
vn 0.1609 0.5937 -0.7884
vn -0.1751 0.7437 -0.6451
vn 0.2850 0.8550 -0.4332
vn 0.2864 0.8550 -0.4323
vn 0.2815 0.8550 -0.4355
vn 0.6704 0.7348 -0.1025
vn 0.4847 0.6048 -0.6319
vn 0.6951 0.7008 -0.1605
vn 0.6930 0.7008 -0.1691
vn 0.6888 0.7006 -0.1862
vn 0.7165 0.6098 0.3388
vn 0.7559 0.6493 -0.0837
vn 0.5484 0.7395 0.3904
vn 0.5527 0.7396 0.3840
vn 0.5631 0.7398 0.3681
vn 0.2011 0.6315 0.7488
vn 0.6853 0.6044 0.4062
vn 0.2349 0.7172 0.6561
vn 0.2383 0.7171 0.6550
vn 0.2541 0.7165 0.6496
vn -0.2739 0.6330 0.7240
vn 0.2815 0.7895 0.5453
vn -0.1769 0.9331 0.3130
vn -0.1776 0.9331 0.3126
vn -0.1707 0.9329 0.3170
vn -0.5860 0.8103 -0.0094
vn -0.4643 0.6294 0.6231
vn -0.6673 0.7301 0.1466
vn -0.6677 0.7301 0.1453
vn -0.6672 0.7301 0.1473
vn -0.6842 0.6266 -0.3730
vn -0.7348 0.6763 0.0517
vn -0.5204 0.7517 -0.4050
vn -0.5160 0.7514 -0.4112
vn -0.5130 0.7511 -0.4154
vn -0.1591 0.6252 -0.7640
vn -0.6509 0.6192 -0.4391
vn -0.2108 0.7102 -0.6716
vn -0.2013 0.7102 -0.6746
vn -0.1974 0.7102 -0.6758
vn 0.3018 0.6124 -0.7306
vn -0.0116 0.6764 -0.7364
vn 0.4105 0.7766 -0.4779
vn 0.4099 0.7766 -0.4783
vn 0.4035 0.7765 -0.4839
vn 0.7272 0.6793 -0.0985
vn 0.5710 0.6120 -0.5472
vn 0.7059 0.7058 -0.0593
vn 0.7050 0.7058 -0.0689
vn 0.7032 0.7055 -0.0873
vn 0.6589 0.6193 0.4270
vn 0.7525 0.6579 0.0303
vn 0.4817 0.7469 0.4584
vn 0.4860 0.7470 0.4536
vn 0.4979 0.7472 0.4402
vn 0.0941 0.6433 0.7598
vn 0.6103 0.6145 0.4999
vn 0.1361 0.7250 0.6752
vn 0.1385 0.7249 0.6748
vn 0.1532 0.7244 0.6721
vn -0.3700 0.6429 0.6706
vn 0.1415 0.7794 0.6103
vn -0.2764 0.9045 0.3246
vn -0.2710 0.9045 0.3293
vn -0.6192 0.7837 -0.0494
vn -0.5533 0.6386 0.5347
vn -0.6782 0.7335 0.0451
vn -0.6783 0.7335 0.0431
vn -0.6782 0.7335 0.0438
vn -0.6226 0.6330 -0.4601
vn -0.7276 0.6829 -0.0655
vn -0.4535 0.7546 -0.4741
vn -0.4477 0.7542 -0.4803
vn -0.4438 0.7539 -0.4844
vn -0.0534 0.6329 -0.7724
vn -0.5719 0.6254 -0.5307
vn -0.1108 0.7136 -0.6917
vn -0.1016 0.7136 -0.6932
vn -0.0985 0.7135 -0.6936
vn 0.3945 0.6195 -0.6786
vn -0.1069 0.7978 -0.5934
vn 0.2908 0.9022 -0.3186
vn 0.2907 0.9022 -0.3186
vn 0.2851 0.9022 -0.3235
vn 0.6173 0.7859 0.0341
vn 0.5714 0.6221 -0.5352
vn 0.6996 0.7120 -0.0594
vn 0.6988 0.7120 -0.0687
vn 0.6971 0.7117 -0.0865
vn 0.6572 0.6295 0.4144
vn 0.7427 0.6685 0.0384
vn 0.4766 0.7534 0.4530
vn 0.4808 0.7535 0.4483
vn 0.4922 0.7537 0.4355
vn 0.1015 0.6547 0.7490
vn 0.5633 0.5480 0.6183
vn 0.0898 0.6722 0.7349
vn 0.0933 0.6719 0.7347
vn 0.1091 0.6705 0.7338
vn -0.4000 0.6280 0.6675
vn -0.5531 0.6494 0.5219
vn -0.6714 0.7397 0.0441
vn -0.6716 0.7397 0.0421
vn -0.6715 0.7397 0.0430
vn -0.6206 0.6434 -0.4482
vn -0.7167 0.6934 -0.0742
vn -0.4473 0.7610 -0.4699
vn -0.4417 0.7606 -0.4758
vn -0.4379 0.7603 -0.4798
vn -0.0600 0.6442 -0.7625
vn -0.5593 0.6357 -0.5320
vn -0.1093 0.7197 -0.6856
vn -0.1003 0.7197 -0.6870
vn -0.0973 0.7196 -0.6875
vn 0.3828 0.6297 -0.6760
vn 0.0194 0.7365 -0.6761
vn 0.4041 0.8518 -0.3332
vn 0.4025 0.8518 -0.3352
vn 0.3953 0.8518 -0.3436
vn 0.6744 0.7318 0.0984
vn 0.6506 0.5994 -0.4663
vn 0.7129 0.6994 0.0516
vn 0.7136 0.6993 0.0411
vn 0.7148 0.6989 0.0208
vn 0.5830 0.6094 0.5373
vn 0.7370 0.6503 0.1839
vn 0.3563 0.7646 0.5369
vn 0.3602 0.7646 0.5344
vn 0.3751 0.7642 0.5247
vn -0.1167 0.6663 0.7364
vn 0.1606 0.6136 0.7731
vn -0.3355 0.7284 0.5973
vn -0.3354 0.7284 0.5974
vn -0.3272 0.7282 0.6022
vn -0.7341 0.6319 0.2484
vn 0.0258 0.7533 0.6572
vn -0.3601 0.8823 0.3031
vn -0.3598 0.8823 0.3035
vn -0.3554 0.8822 0.3087
vn -0.6409 0.7550 -0.1383
vn -0.6356 0.6265 0.4510
vn -0.6863 0.7244 -0.0642
vn -0.6861 0.7244 -0.0673
vn -0.6860 0.7244 -0.0680
vn -0.5438 0.6189 -0.5668
vn -0.7230 0.6686 -0.1735
vn -0.3819 0.7452 -0.5466
vn -0.3741 0.7447 -0.5526
vn -0.3691 0.7444 -0.5564
vn 0.0763 0.6187 -0.7819
vn -0.4977 0.6117 -0.6149
vn -0.0020 0.7052 -0.7090
vn 0.0067 0.7052 -0.7089
vn 0.0084 0.7052 -0.7089
vn 0.5093 0.6069 -0.6102
vn 0.0980 0.7044 -0.7030
vn 0.4664 0.8351 -0.2916
vn 0.4639 0.8351 -0.2955
vn 0.4561 0.8350 -0.3076
vn 0.6828 0.7010 0.2056
vn 0.7118 0.5728 -0.4064
vn 0.7141 0.6842 0.1479
vn 0.5567 0.8255 0.0929
vn 0.6178 0.6439 -0.4514
vn 0.3431 0.9391 0.0191
vn 0.4036 0.6606 0.6330
vn 0.5007 0.5852 0.6378
vn 0.7534 0.6197 0.2195
vn 0.3426 0.7277 0.5942
vn 0.3465 0.7277 0.5918
vn 0.3623 0.7279 0.5821
vn -0.1699 0.6059 0.7772
vn 0.3763 0.5815 0.7213
vn -0.1793 0.7094 0.6816
vn -0.1787 0.7094 0.6818
vn -0.1663 0.7090 0.6853
vn -0.6755 0.6060 0.4199
vn -0.0571 0.7231 0.6883
vn -0.4235 0.8661 0.2654
vn -0.4230 0.8661 0.2661
vn -0.4195 0.8661 0.2716
vn -0.6482 0.7210 -0.2447
vn -0.6994 0.5992 0.3896
vn -0.6897 0.7067 -0.1574
vn -0.6888 0.7067 -0.1617
vn -0.6883 0.7067 -0.1636
vn -0.4608 0.5911 -0.6620
vn -0.7249 0.6400 -0.2547
vn -0.3199 0.7270 -0.6075
vn -0.3101 0.7266 -0.6131
vn -0.3042 0.7262 -0.6164
vn 0.2002 0.5893 -0.7826
vn -0.4442 0.5842 -0.6792
vn 0.0922 0.6886 -0.7192
vn 0.1002 0.6886 -0.7182
vn 0.1001 0.6886 -0.7182
vn 0.6137 0.5803 -0.5354
vn 0.5600 0.8231 0.0938
vn 0.6191 0.6430 -0.4508
vn 0.3506 0.9363 0.0208
vn 0.4050 0.6596 0.6331
vn 0.4841 0.5789 0.6561
vn -0.0696 0.7070 0.7038
vn -0.0685 0.7070 0.7039
vn -0.0541 0.7065 0.7056
vn -0.5989 0.6059 0.5236
vn -0.0571 0.7231 0.6884
vn -0.2799 0.9434 0.1781
vn 0.0417 0.7613 0.6470
vn -0.0981 0.9920 0.0790
vn -0.5714 0.7599 -0.3098
vn 0.2738 0.7258 -0.6310
vn 0.5233 0.8050 -0.2793
vn 0.5210 0.8050 -0.2836
vn 0.5154 0.8049 -0.2941
vn 0.6702 0.7328 0.1170
vn 0.7098 0.6582 -0.2510
vn 0.6496 0.7369 0.1869
vn 0.6521 0.7368 0.1786
vn 0.6568 0.7364 0.1622
vn 0.4679 0.6724 0.5735
vn 0.6299 0.7103 0.3142
vn 0.2649 0.7841 0.5612
vn 0.2673 0.7841 0.5600
vn 0.2785 0.7841 0.5545
vn -0.1480 0.7032 0.6954
vn 0.3285 0.6710 0.6647
vn -0.1162 0.7609 0.6383
vn -0.1157 0.7609 0.6384
vn -0.1064 0.7606 0.6403
vn -0.5361 0.6940 0.4805
vn -0.1035 0.8426 0.5284
vn -0.3338 0.9287 0.1615
vn -0.3332 0.9287 0.1625
vn -0.3309 0.9287 0.1670
vn -0.4983 0.8346 -0.2348
vn -0.6908 0.6874 0.2241
vn -0.6196 0.7573 -0.2064
vn -0.6184 0.7573 -0.2101
vn -0.6178 0.7572 -0.2117
vn -0.4230 0.6766 -0.6026
vn -0.5904 0.7258 -0.3529
vn -0.2324 0.7789 -0.5824
vn -0.2244 0.7785 -0.5861
vn -0.2197 0.7783 -0.5882
vn 0.1844 0.6824 -0.7073
vn -0.2828 0.6687 -0.6876
vn 0.1468 0.7389 -0.6577
vn 0.1521 0.7388 -0.6565
vn 0.1516 0.7388 -0.6566
vn 0.5574 0.6648 -0.4973
vn 0.0705 0.6740 -0.7353
vn 0.4640 0.7761 -0.4270
vn 0.4623 0.7761 -0.4288
vn 0.4552 0.7760 -0.4365
vn 0.7349 0.6780 -0.0116
vn 0.6290 0.6093 -0.4827
vn 0.7076 0.7062 0.0227
vn 0.5044 0.8634 -0.0064
vn 0.5125 0.6897 -0.5114
vn 0.2455 0.9685 -0.0407
vn 0.4907 0.7032 0.5145
vn 0.6021 0.6187 0.5046
vn 0.7458 0.6566 0.1124
vn 0.4241 0.7489 0.5092
vn 0.4283 0.7489 0.5056
vn 0.4414 0.7490 0.4940
vn -0.0023 0.6436 0.7654
vn 0.5521 0.6139 0.5641
vn 0.0547 0.7272 0.6843
vn 0.0565 0.7271 0.6842
vn 0.0707 0.7266 0.6833
vn -0.4546 0.6419 0.6175
vn 0.0671 0.7812 0.6206
vn -0.3152 0.9047 0.2865
vn -0.1722 0.9718 0.1612
vn 0.1637 0.8165 0.5536
vn -0.0038 0.9997 0.0254
vn -0.5362 0.8180 -0.2080
vn -0.6111 0.7815 -0.1252
vn -0.6131 0.6367 0.4677
vn -0.6803 0.7320 -0.0364
vn -0.6802 0.7320 -0.0392
vn -0.6801 0.7320 -0.0394
vn -0.5632 0.6293 -0.5354
vn -0.7183 0.6796 -0.1487
vn -0.3967 0.7529 -0.5251
vn -0.3895 0.7525 -0.5310
vn -0.3849 0.7522 -0.5349
vn 0.0403 0.6300 -0.7755
vn -0.5119 0.6220 -0.5925
vn -0.0295 0.7125 -0.7011
vn -0.0207 0.7124 -0.7014
vn -0.0186 0.7124 -0.7015
vn 0.4759 0.6167 -0.6270
vn -0.4583 0.6162 -0.6405
vn 0.1769 0.7829 -0.5965
vn 0.1837 0.7828 -0.5944
vn 0.1811 0.7829 -0.5952
vn 0.7445 0.6034 -0.2856
vn 0.2226 0.5003 -0.8368
vn 0.6741 0.6359 -0.3757
vn 0.6705 0.6359 -0.3821
vn 0.6611 0.6358 -0.3984
vn 0.8329 0.5008 0.2353
vn 0.7397 0.5398 -0.4018
vn 0.7038 0.6650 0.2499
vn 0.7073 0.6653 0.2389
vn 0.7148 0.6658 0.2140
vn 0.3726 0.5065 0.7776
vn 0.8596 0.4931 0.1335
vn 0.4416 0.6446 0.6241
vn 0.4480 0.6444 0.6197
vn 0.4694 0.6437 0.6044
vn -0.1557 0.5195 0.8401
vn 0.4996 0.6105 0.6146
vn -0.1484 0.8074 0.5709
vn -0.1498 0.8075 0.5706
vn -0.1358 0.8071 0.5745
vn -0.7299 0.6310 0.2627
vn -0.1981 0.5125 0.8355
vn -0.6500 0.6648 0.3682
vn -0.6502 0.6648 0.3677
vn -0.6471 0.6648 0.3732
vn -0.8120 0.5203 -0.2643
vn -0.7293 0.5648 0.3860
vn -0.6824 0.6858 -0.2528
vn -0.6803 0.6856 -0.2591
vn -0.6788 0.6854 -0.2635
vn -0.3366 0.5094 -0.7920
vn -0.8424 0.5140 -0.1615
vn -0.4289 0.6479 -0.6294
vn -0.4187 0.6479 -0.6362
vn -0.4141 0.6479 -0.6393
vn 0.1820 0.5079 -0.8420
vn -0.6476 0.5715 -0.5040
vn 0.0093 0.7537 -0.6571
vn 0.0202 0.7537 -0.6569
vn 0.0215 0.7537 -0.6569
vn 0.6778 0.5571 -0.4798
vn -0.0371 0.4645 -0.8848
vn 0.5615 0.6120 -0.5568
vn 0.5598 0.6120 -0.5585
vn 0.5491 0.6120 -0.5691
vn 0.8855 0.4630 0.0384
vn 0.6040 0.5025 -0.6186
vn 0.7697 0.6358 0.0573
vn 0.7702 0.6362 0.0451
vn 0.7707 0.6368 0.0187
vn 0.5621 0.4606 0.6869
vn 0.8811 0.4557 -0.1263
vn 0.6071 0.6146 0.5036
vn 0.6143 0.6144 0.4950
vn 0.6334 0.6137 0.4713
vn 0.0512 0.4768 0.8775
vn 0.6808 0.5580 0.4744
vn 0.0113 0.7713 0.6364
vn 0.0102 0.7713 0.6364
vn 0.0294 0.7708 0.6364
vn -0.6657 0.5824 0.4665
vn 0.0666 0.4684 0.8810
vn -0.5402 0.6385 0.5481
vn -0.5403 0.6385 0.5480
vn -0.5324 0.6384 0.5558
vn -0.8726 0.4842 -0.0634
vn -0.5923 0.5235 0.6124
vn -0.7476 0.6616 -0.0580
vn -0.5800 0.8119 -0.0652
vn -0.4821 0.5929 0.6449
vn -0.3182 0.9475 -0.0307
vn -0.4361 0.5287 -0.7281
vn -0.5301 0.4698 -0.7058
vn -0.8722 0.4776 0.1051
vn -0.5961 0.6258 -0.5031
vn -0.5889 0.6258 -0.5113
vn -0.5853 0.6258 -0.5155
vn -0.0216 0.4722 -0.8812
vn -0.7969 0.5019 -0.3361
vn -0.1546 0.7061 -0.6910
vn -0.1419 0.7060 -0.6938
vn -0.1387 0.7060 -0.6944
vn 0.5981 0.4875 -0.6361
vn -0.3120 0.4025 -0.8606
vn 0.4302 0.5793 -0.6923
vn 0.4326 0.5793 -0.6908
vn 0.4212 0.5793 -0.6979
vn 0.9114 0.4001 -0.0966
vn 0.4095 0.4407 -0.7988
vn 0.7927 0.5969 -0.1240
vn 0.7905 0.5973 -0.1354
vn 0.7848 0.5981 -0.1626
vn 0.6894 0.3897 0.6105
vn 0.6895 0.3897 0.6105
vn 0.8302 0.3934 -0.3948
vn 0.7276 0.5771 0.3709
vn 0.7342 0.5770 0.3579
vn 0.7498 0.5762 0.3251
vn 0.1906 0.4089 0.8925
vn 0.8192 0.4837 0.3080
vn 0.1676 0.7157 0.6780
vn 0.1677 0.7157 0.6780
vn 0.1920 0.7150 0.6722
vn -0.5869 0.5074 0.6309
vn 0.3407 0.3977 0.8519
vn -0.4142 0.6013 0.6832
vn -0.3986 0.6009 0.6928
vn -0.9041 0.4202 0.0774
vn -0.3940 0.4539 0.7992
vn -0.7709 0.6244 0.1257
vn -0.6894 0.7171 0.1024
vn -0.3162 0.4992 0.8067
vn -0.5341 0.8402 0.0939
vn -0.6077 0.4407 -0.6606
vn -0.6643 0.4027 -0.6297
vn -0.8262 0.4123 0.3839
vn -0.7181 0.5939 -0.3628
vn -0.7140 0.5939 -0.3708
vn -0.7123 0.5939 -0.3740
vn -0.1626 0.4101 -0.8974
vn -0.8450 0.5038 -0.1794
vn -0.2803 0.7082 -0.6480
vn -0.2685 0.7081 -0.6530
vn -0.2643 0.7080 -0.6548
vn 0.4686 0.4887 -0.7360
vn -0.4662 0.4037 -0.7872
vn 0.2898 0.5805 -0.7609
vn 0.2964 0.5805 -0.7584
vn 0.2879 0.5804 -0.7617
vn 0.8771 0.4010 -0.2642
vn 0.2527 0.4418 -0.8607
vn 0.7546 0.5974 -0.2712
vn 0.7514 0.5978 -0.2794
vn 0.7420 0.5985 -0.3019
vn 0.7910 0.3885 0.4726
vn 0.7413 0.3947 -0.5428
vn 0.7845 0.5759 0.2299
vn 0.7888 0.5758 0.2148
vn 0.7979 0.5752 0.1803
vn 0.3559 0.4062 0.8416
vn 0.8621 0.4833 0.1517
vn 0.2924 0.7120 0.6383
vn 0.2944 0.7120 0.6374
vn 0.3193 0.7113 0.6261
vn -0.4530 0.5060 0.7339
vn 0.4948 0.3953 0.7739
vn -0.2772 0.5993 0.7510
vn -0.2770 0.5993 0.7511
vn -0.2568 0.5987 0.7586
vn -0.8722 0.4209 0.2492
vn -0.2322 0.4516 0.8614
vn -0.7320 0.6257 0.2695
vn -0.7325 0.6257 0.2683
vn -0.7307 0.6258 0.2727
vn -0.7696 0.4041 -0.4944
vn -0.7364 0.4121 0.5365
vn -0.7716 0.5962 -0.2215
vn -0.7698 0.5962 -0.2278
vn -0.7692 0.5962 -0.2297
vn -0.3265 0.4112 -0.8510
vn -0.7180 0.5000 -0.4842
vn -0.0182 0.7043 -0.7096
vn -0.0060 0.7042 -0.7099
vn -0.0052 0.7042 -0.7100
vn 0.7096 0.4863 -0.5099
vn -0.0316 0.4484 0.8932
vn -0.6524 0.6263 0.4266
vn -0.6529 0.6263 0.4259
vn -0.6483 0.6265 0.4327
vn -0.8589 0.4057 -0.3124
vn -0.5949 0.4111 0.6907
vn -0.7995 0.5989 -0.0454
vn -0.7993 0.5989 -0.0493
vn -0.7993 0.5989 -0.0488
vn -0.5043 0.4125 -0.7586
vn 0.8910 0.3923 -0.2283
vn 0.6427 0.5790 0.5016
vn 0.6505 0.5789 0.4917
vn 0.6722 0.5780 0.4626
vn 0.0124 0.4117 0.9112
usemtl frostland_tilesheet
s 1
f 82/268/58 85/269/59 84/270/59 87/271/58
f 87/271/58 84/270/59 86/272/60
f 86/272/60 84/270/59 88/273/61
f 88/273/61 84/270/59 85/269/59 83/274/61
f 89/275/62 92/276/63 91/277/64 94/278/62
f 94/278/62 91/277/64 93/279/65
f 93/279/65 91/277/64 95/280/66
f 95/280/66 91/277/64 92/276/63 90/281/66
f 96/282/67 99/283/68 98/284/69 101/285/67
f 101/285/67 98/284/69 100/286/70
f 100/286/70 98/284/69 102/287/71
f 102/287/71 98/284/69 99/283/68 97/288/71
f 103/289/72 106/290/73 105/291/74 108/292/72
f 108/292/72 105/291/74 107/293/75
f 107/293/75 105/291/74 109/294/76
f 109/294/76 105/291/74 106/290/73 104/295/76
f 110/296/77 113/297/78 112/298/79 115/299/77
f 115/299/77 112/298/79 114/300/80
f 114/300/80 112/298/79 116/301/81
f 116/301/81 112/298/79 113/297/78 111/302/81
f 117/303/82 120/304/83 119/305/84 122/306/82
f 122/306/82 119/305/84 121/307/85
f 121/307/85 119/305/84 123/308/86
f 123/308/86 119/305/84 120/304/83 118/309/86
f 124/310/87 127/311/88 126/312/89 129/313/87
f 129/313/87 126/312/89 128/314/90
f 128/314/90 126/312/89 130/315/91
f 130/315/91 126/312/89 127/311/88 125/316/91
f 131/317/92 134/318/93 133/319/94 136/320/92
f 136/320/92 133/319/94 135/321/95
f 135/321/95 133/319/94 137/322/96
f 137/322/96 133/319/94 134/318/93 132/323/96
f 138/324/97 141/325/98 140/326/99 143/327/97
f 143/327/97 140/326/99 142/328/100
f 142/328/100 140/326/99 144/329/101
f 144/329/101 140/326/99 141/325/98 139/330/101
f 145/331/102 148/332/103 147/333/104 150/334/102
f 150/334/102 147/333/104 149/335/105
f 149/335/105 147/333/104 151/336/106
f 151/336/106 147/333/104 148/332/103 146/337/106
f 152/338/107 155/339/108 154/340/109 157/341/107
f 157/341/107 154/340/109 156/342/110
f 156/342/110 154/340/109 158/343/111
f 158/343/111 154/340/109 155/339/108 153/344/111
f 159/345/112 162/346/113 161/347/114 164/348/112
f 164/348/112 161/347/114 163/349/115
f 163/349/115 161/347/114 165/350/116
f 165/350/116 161/347/114 162/346/113 160/351/116
f 166/352/117 169/353/118 168/354/119 171/355/117
f 171/355/117 168/354/119 170/356/120
f 170/356/120 168/354/119 172/357/121
f 172/357/121 168/354/119 169/353/118 167/358/121
f 173/359/122 176/360/123 175/361/124 178/362/122
f 178/362/122 175/361/124 177/363/125
f 177/363/125 175/361/124 179/364/126
f 179/364/126 175/361/124 176/360/123 174/365/126
f 180/366/127 183/367/128 182/368/129 185/369/127
f 185/369/127 182/368/129 184/370/130
f 184/370/130 182/368/129 186/371/131
f 186/371/131 182/368/129 183/367/128 181/372/131
f 187/373/132 190/374/133 189/375/134 192/376/132
f 192/376/132 189/375/134 191/377/135
f 191/377/135 189/375/134 193/378/136
f 193/378/136 189/375/134 190/374/133 188/379/136
f 194/380/137 197/381/138 196/382/139 199/383/137
f 199/383/137 196/382/139 198/384/140
f 198/384/140 196/382/139 200/385/141
f 200/385/141 196/382/139 197/381/138 195/386/141
f 201/387/142 204/388/143 203/389/144 206/390/142
f 206/390/142 203/389/144 205/391/145
f 205/391/145 203/389/144 207/392/146
f 207/392/146 203/389/144 204/388/143 202/393/146
f 208/394/147 211/395/148 210/396/149 213/397/147
f 213/397/147 210/396/149 212/398/150
f 212/398/150 210/396/149 214/399/151
f 214/399/151 210/396/149 211/395/148 209/400/151
f 215/401/152 218/402/153 217/403/154 220/404/152
f 220/404/152 217/403/154 219/405/155
f 219/405/155 217/403/154 221/406/156
f 221/406/156 217/403/154 218/402/153 216/407/156
f 222/408/157 225/409/158 224/410/159 227/411/157
f 227/411/157 224/410/159 226/412/160
f 226/412/160 224/410/159 228/413/161
f 228/413/161 224/410/159 225/409/158 223/414/161
f 229/415/162 232/416/163 231/417/163 234/418/162
f 234/418/162 231/417/163 233/419/164
f 233/419/164 231/417/163 235/420/165
f 235/420/165 231/417/163 232/416/163 230/421/165
f 236/422/166 239/423/167 238/424/168 241/425/166
f 241/425/166 238/424/168 240/426/169
f 240/426/169 238/424/168 242/427/170
f 242/427/170 238/424/168 239/423/167 237/428/170
f 243/429/171 246/430/172 245/431/173 248/432/171
f 248/432/171 245/431/173 247/433/174
f 247/433/174 245/431/173 249/434/175
f 249/434/175 245/431/173 246/430/172 244/435/175
f 250/436/176 253/437/177 252/438/178 255/439/176
f 255/439/176 252/438/178 254/440/179
f 254/440/179 252/438/178 256/441/180
f 256/441/180 252/438/178 253/437/177 251/442/180
f 257/443/181 260/444/182 259/445/183 262/446/181
f 262/446/181 259/445/183 261/447/184
f 261/447/184 259/445/183 263/448/185
f 263/448/185 259/445/183 260/444/182 258/449/185
f 264/450/186 267/451/187 266/452/188 269/453/186
f 269/453/186 266/452/188 268/454/189
f 268/454/189 266/452/188 270/455/190
f 270/455/190 266/452/188 267/451/187 265/456/190
f 271/457/191 274/458/192 273/459/193 276/460/191
f 276/460/191 273/459/193 275/461/194
f 275/461/194 273/459/193 277/462/195
f 277/462/195 273/459/193 274/458/192 272/463/195
f 278/464/196 281/465/197 280/466/198 283/467/196
f 283/467/196 280/466/198 282/468/199
f 282/468/199 280/466/198 284/469/200
f 284/469/200 280/466/198 281/465/197 279/470/200
f 285/471/201 288/472/202 287/473/203 290/474/201
f 290/474/201 287/473/203 289/475/204
f 289/475/204 287/473/203 291/476/205
f 291/476/205 287/473/203 288/472/202 286/477/205
f 292/478/206 295/479/207 294/480/208 297/481/206
f 297/481/206 294/480/208 296/482/209
f 296/482/209 294/480/208 298/483/210
f 298/483/210 294/480/208 295/479/207 293/484/210
f 299/485/211 302/486/212 301/487/213 304/488/211
f 304/488/211 301/487/213 303/489/214
f 303/489/214 301/487/213 305/490/215
f 305/490/215 301/487/213 302/486/212 300/491/215
f 306/492/216 309/493/217 308/494/218 311/495/216
f 311/495/216 308/494/218 310/496/219
f 310/496/219 308/494/218 312/497/220
f 312/497/220 308/494/218 309/493/217 307/498/220
f 313/499/221 316/500/222 315/501/223 318/502/221
f 318/502/221 315/501/223 317/503/224
f 317/503/224 315/501/223 319/504/225
f 319/504/225 315/501/223 316/500/222 314/505/225
f 320/506/226 323/507/227 322/508/228 325/509/226
f 325/509/226 322/508/228 324/510/229
f 324/510/229 322/508/228 326/511/230
f 326/511/230 322/508/228 323/507/227 321/512/230
f 327/513/231 330/514/232 329/515/233 332/516/231
f 332/516/231 329/515/233 331/517/234
f 331/517/234 329/515/233 333/518/235
f 333/518/235 329/515/233 330/514/232 328/519/235
f 334/520/236 337/521/237 336/522/238 339/523/236
f 339/523/236 336/522/238 338/524/239
f 338/524/239 336/522/238 340/525/240
f 340/525/240 336/522/238 337/521/237 335/526/240
f 341/527/241 344/528/242 343/529/243 346/530/241
f 346/530/241 343/529/243 345/531/244
f 345/531/244 343/529/243 347/532/245
f 347/532/245 343/529/243 344/528/242 342/533/245
f 348/534/246 351/535/247 350/536/248 353/537/246
f 353/537/246 350/536/248 352/538/249
f 352/538/249 350/536/248 354/539/250
f 354/539/250 350/536/248 351/535/247 349/540/250
f 355/541/251 358/542/252 357/543/253 360/544/251
f 360/544/251 357/543/253 359/545/254
f 359/545/254 357/543/253 361/546/255
f 361/546/255 357/543/253 358/542/252 356/547/255
f 362/548/256 365/549/257 364/550/258 367/551/256
f 367/551/256 364/550/258 366/552/259
f 366/552/259 364/550/258 368/553/260
f 368/553/260 364/550/258 365/549/257 363/554/260
f 369/555/261 372/556/262 371/557/263 374/558/264
f 374/558/264 371/557/263 373/559/265
f 373/559/265 371/557/263 375/560/266
f 375/560/266 371/557/263 372/556/262 370/561/267
f 376/562/268 379/563/269 378/564/270 381/565/268
f 381/565/268 378/564/270 380/566/271
f 380/566/271 378/564/270 382/567/272
f 382/567/272 378/564/270 379/563/269 377/568/272
f 383/569/273 386/570/274 385/571/275 388/572/273
f 388/572/273 385/571/275 387/573/276
f 387/573/276 385/571/275 389/574/277
f 389/574/277 385/571/275 386/570/274 384/575/277
f 390/576/278 393/577/279 392/578/280 395/579/278
f 395/579/278 392/578/280 394/580/281
f 394/580/281 392/578/280 396/581/282
f 396/581/282 392/578/280 393/577/279 391/582/282
f 397/583/283 400/584/284 399/585/285 402/586/283
f 402/586/283 399/585/285 401/587/286
f 401/587/286 399/585/285 403/588/287
f 403/588/287 399/585/285 400/584/284 398/589/287
f 404/590/288 407/591/289 406/592/290 409/593/288
f 409/593/288 406/592/290 408/594/291
f 408/594/291 406/592/290 410/595/292
f 410/595/292 406/592/290 407/591/289 405/596/292
f 411/597/293 414/598/294 413/599/295 416/600/293
f 416/600/293 413/599/295 415/601/296
f 415/601/296 413/599/295 417/602/297
f 417/602/297 413/599/295 414/598/294 412/603/297
f 418/604/256 421/605/257 420/606/258 423/607/256
f 423/607/256 420/606/258 422/608/259
f 422/608/259 420/606/258 424/609/260
f 424/609/260 420/606/258 421/605/257 419/610/260
f 425/611/261 428/612/262 427/613/298 430/614/299
f 430/614/299 427/613/298 429/615/300
f 429/615/300 427/613/298 431/616/301
f 431/616/301 427/613/298 428/612/262 426/617/267
f 432/618/268 435/619/269 434/620/270 437/621/268
f 437/621/268 434/620/270 436/622/271
f 436/622/271 434/620/270 438/623/272
f 438/623/272 434/620/270 435/619/269 433/624/272
f 439/625/302 442/626/303 441/627/304 444/628/302
f 444/628/302 441/627/304 443/629/305
f 443/629/305 441/627/304 445/630/306
f 445/630/306 441/627/304 442/626/303 440/631/306
f 446/632/307 449/633/279 448/634/308 451/635/309
f 451/635/309 448/634/308 450/636/310
f 450/636/310 448/634/308 452/637/311
f 452/637/311 448/634/308 449/633/279 447/638/282
f 453/639/283 456/640/284 455/641/285 458/642/283
f 458/642/283 455/641/285 457/643/286
f 457/643/286 455/641/285 459/644/287
f 459/644/287 455/641/285 456/640/284 454/645/287
f 460/646/288 463/647/289 462/648/290 465/649/288
f 465/649/288 462/648/290 464/650/291
f 464/650/291 462/648/290 466/651/292
f 466/651/292 462/648/290 463/647/289 461/652/292
f 467/653/293 470/654/294 469/655/295 472/656/293
f 472/656/293 469/655/295 471/657/296
f 471/657/296 469/655/295 473/658/297
f 473/658/297 469/655/295 470/654/294 468/659/297
f 474/660/312 477/661/313 476/662/314 479/663/312
f 479/663/312 476/662/314 478/664/315
f 478/664/315 476/662/314 480/665/316
f 480/665/316 476/662/314 477/661/313 475/666/316
f 481/667/317 484/668/318 483/669/319 486/670/317
f 486/670/317 483/669/319 485/671/320
f 485/671/320 483/669/319 487/672/321
f 487/672/321 483/669/319 484/668/318 482/673/321
f 488/674/322 491/675/323 490/676/324 493/677/322
f 493/677/322 490/676/324 492/678/325
f 492/678/325 490/676/324 494/679/326
f 494/679/326 490/676/324 491/675/323 489/680/326
f 495/681/327 498/682/328 497/683/329 500/684/327
f 500/684/327 497/683/329 499/685/330
f 499/685/330 497/683/329 501/686/331
f 501/686/331 497/683/329 498/682/328 496/687/331
f 502/688/332 505/689/333 504/690/334 507/691/332
f 507/691/332 504/690/334 506/692/335
f 506/692/335 504/690/334 508/693/336
f 508/693/336 504/690/334 505/689/333 503/694/336
f 509/695/337 512/696/338 511/697/339 514/698/337
f 514/698/337 511/697/339 513/699/340
f 513/699/340 511/697/339 515/700/341
f 515/700/341 511/697/339 512/696/338 510/701/341
f 516/702/342 519/703/343 518/704/344 521/705/342
f 521/705/342 518/704/344 520/706/345
f 520/706/345 518/704/344 522/707/346
f 522/707/346 518/704/344 519/703/343 517/708/346
f 523/709/347 526/710/348 525/711/349 528/712/347
f 528/712/347 525/711/349 527/713/350
f 527/713/350 525/711/349 529/714/351
f 529/714/351 525/711/349 526/710/348 524/715/351
f 530/716/352 533/717/353 532/718/354 535/719/352
f 535/719/352 532/718/354 534/720/355
f 534/720/355 532/718/354 536/721/356
f 536/721/356 532/718/354 533/717/353 531/722/356
f 537/723/357 540/724/358 539/725/359 542/726/360
f 542/726/360 539/725/359 541/727/361
f 541/727/361 539/725/359 543/728/362
f 543/728/362 539/725/359 540/724/358 538/729/363
f 544/730/364 547/731/365 546/732/366 549/733/364
f 549/733/364 546/732/366 548/734/367
f 548/734/367 546/732/366 550/735/368
f 550/735/368 546/732/366 547/731/365 545/736/368
f 551/737/369 554/738/370 553/739/371 556/740/369
f 556/740/369 553/739/371 555/741/372
f 555/741/372 553/739/371 557/742/373
f 557/742/373 553/739/371 554/738/370 552/743/373
f 558/744/374 561/745/375 560/746/376 563/747/377
f 563/747/377 560/746/376 562/748/378
f 562/748/378 560/746/376 564/749/379
f 564/749/379 560/746/376 561/745/375 559/750/380
f 565/751/381 568/752/382 567/753/383 570/754/381
f 570/754/381 567/753/383 569/755/384
f 569/755/384 567/753/383 571/756/385
f 571/756/385 567/753/383 568/752/382 566/757/385
f 572/758/386 575/759/387 574/760/388 577/761/386
f 577/761/386 574/760/388 576/762/389
f 576/762/389 574/760/388 578/763/390
f 578/763/390 574/760/388 575/759/387 573/764/390
f 579/765/391 582/766/392 581/767/393 584/768/391
f 584/768/391 581/767/393 583/769/394
f 583/769/394 581/767/393 585/770/395
f 585/770/395 581/767/393 582/766/392 580/771/395
f 586/772/396 589/773/397 588/774/398 591/775/396
f 591/775/396 588/774/398 590/776/399
f 590/776/399 588/774/398 592/777/400
f 592/777/400 588/774/398 589/773/397 587/778/400
f 593/779/401 596/780/402 595/781/403 598/782/401
f 598/782/401 595/781/403 597/783/404
f 597/783/404 595/781/403 599/784/405
f 599/784/405 595/781/403 596/780/402 594/785/405
f 600/786/406 603/787/407 602/788/408 605/789/406
f 605/789/406 602/788/408 604/790/409
f 604/790/409 602/788/408 606/791/410
f 606/791/410 602/788/408 603/787/407 601/792/410
f 607/793/411 610/794/412 609/795/413 612/796/411
f 612/796/411 609/795/413 611/797/414
f 611/797/414 609/795/413 613/798/415
f 613/798/415 609/795/413 610/794/412 608/799/415
f 614/800/416 617/801/417 616/802/418 619/803/416
f 619/803/416 616/802/418 618/804/419
f 618/804/419 616/802/418 620/805/420
f 620/805/420 616/802/418 617/801/417 615/806/420
f 621/807/421 624/808/422 623/809/423 626/810/421
f 626/810/421 623/809/423 625/811/424
f 625/811/424 623/809/423 627/812/425
f 627/812/425 623/809/423 624/808/422 622/813/425
f 628/814/426 631/815/427 630/816/428 633/817/426
f 633/817/426 630/816/428 632/818/429
f 632/818/429 630/816/428 634/819/430
f 634/819/430 630/816/428 631/815/427 629/820/430
f 635/821/431 638/822/432 637/823/433 640/824/431
f 640/824/431 637/823/433 639/825/434
f 639/825/434 637/823/433 641/826/435
f 641/826/435 637/823/433 638/822/432 636/827/435
f 642/828/436 645/829/437 644/830/438 647/831/436
f 647/831/436 644/830/438 646/832/439
f 646/832/439 644/830/438 648/833/440
f 648/833/440 644/830/438 645/829/437 643/834/440
f 649/835/441 652/836/442 651/837/443 654/838/441
f 654/838/441 651/837/443 653/839/444
f 653/839/444 651/837/443 655/840/445
f 655/840/445 651/837/443 652/836/442 650/841/445
f 656/842/446 659/843/447 658/844/448 661/845/446
f 661/845/446 658/844/448 660/846/449
f 660/846/449 658/844/448 662/847/450
f 662/847/450 658/844/448 659/843/447 657/848/450
f 663/849/451 666/850/452 665/851/453 668/852/451
f 668/852/451 665/851/453 667/853/454
f 667/853/454 665/851/453 669/854/455
f 669/854/455 665/851/453 666/850/452 664/855/455
f 670/856/456 673/857/457 672/858/458 675/859/456
f 675/859/456 672/858/458 674/860/459
f 674/860/459 672/858/458 676/861/460
f 676/861/460 672/858/458 673/857/457 671/862/460
f 677/863/461 680/864/462 679/865/463 682/866/461
f 682/866/461 679/865/463 681/867/464
f 681/867/464 679/865/463 683/868/465
f 683/868/465 679/865/463 680/864/462 678/869/465
f 684/870/466 687/871/467 686/872/468 689/873/469
f 689/873/469 686/872/468 688/874/470
f 688/874/470 686/872/468 690/875/471
f 690/875/471 686/872/468 687/871/467 685/876/472
f 691/877/473 694/878/474 693/879/475 696/880/473
f 696/880/473 693/879/475 695/881/476
f 695/881/476 693/879/475 697/882/477
f 697/882/477 693/879/475 694/878/474 692/883/477
f 698/884/478 701/885/479 700/886/480 703/887/478
f 703/887/478 700/886/480 702/888/481
f 702/888/481 700/886/480 704/889/482
f 704/889/482 700/886/480 701/885/479 699/890/482
f 705/891/483 708/892/484 707/893/485 710/894/483
f 710/894/483 707/893/485 709/895/486
f 709/895/486 707/893/485 711/896/487
f 711/896/487 707/893/485 708/892/484 706/897/487
f 712/898/488 715/899/489 714/900/490 717/901/488
f 717/901/488 714/900/490 716/902/491
f 716/902/491 714/900/490 718/903/492
f 718/903/492 714/900/490 715/899/489 713/904/493
f 719/905/494 722/906/495 721/907/496 724/908/494
f 724/908/494 721/907/496 723/909/497
f 723/909/497 721/907/496 725/910/498
f 725/910/498 721/907/496 722/906/495 720/911/498
f 726/912/499 729/913/500 728/914/501 731/915/499
f 731/915/499 728/914/501 730/916/502
f 730/916/502 728/914/501 732/917/503
f 732/917/503 728/914/501 729/913/500 727/918/503
f 733/919/504 736/920/505 735/921/505 738/922/504
f 738/922/504 735/921/505 737/923/506
f 737/923/506 735/921/505 739/924/507
f 739/924/507 735/921/505 736/920/505 734/925/507
f 740/926/508 743/927/509 742/928/510 745/929/511
f 745/929/511 742/928/510 744/930/512
f 744/930/512 742/928/510 746/931/513
f 746/931/513 742/928/510 743/927/509 741/932/514
f 747/933/515 750/934/516 749/935/517 752/936/515
f 752/936/515 749/935/517 751/937/518
f 751/937/518 749/935/517 753/938/519
f 753/938/519 749/935/517 750/934/516 748/939/519
f 754/940/520 757/941/521 756/942/522 759/943/520
f 759/943/520 756/942/522 758/944/523
f 758/944/523 756/942/522 760/945/524
f 760/945/524 756/942/522 757/941/521 755/946/524
f 761/947/525 764/948/526 763/949/527 766/950/525
f 766/950/525 763/949/527 765/951/528
f 765/951/528 763/949/527 767/952/529
f 767/952/529 763/949/527 764/948/526 762/953/529
f 768/954/530 771/955/531 770/956/532 773/957/530
f 773/957/530 770/956/532 772/958/533
f 772/958/533 770/956/532 774/959/534
f 774/959/534 770/956/532 771/955/531 769/960/534
f 775/961/535 778/962/536 777/963/537 780/964/535
f 780/964/535 777/963/537 779/965/538
f 779/965/538 777/963/537 781/966/539
f 781/966/539 777/963/537 778/962/536 776/967/539
f 782/968/540 785/969/541 784/970/542 787/971/540
f 787/971/540 784/970/542 786/972/543
f 786/972/543 784/970/542 788/973/544
f 788/973/544 784/970/542 785/969/541 783/974/544
f 789/975/545 792/976/546 791/977/547 794/978/545
f 794/978/545 791/977/547 793/979/548
f 793/979/548 791/977/547 795/980/549
f 795/980/549 791/977/547 792/976/546 790/981/549
f 796/982/550 799/983/551 798/984/552 801/985/550
f 801/985/550 798/984/552 800/986/553
f 800/986/553 798/984/552 802/987/554
f 802/987/554 798/984/552 799/983/551 797/988/554
f 803/989/555 806/990/556 805/991/557 808/992/555
f 808/992/555 805/991/557 807/993/558
f 807/993/558 805/991/557 809/994/559
f 809/994/559 805/991/557 806/990/556 804/995/559
f 810/996/560 813/997/561 812/998/562 815/999/560
f 815/999/560 812/998/562 814/1000/563
f 814/1000/563 812/998/562 816/1001/564
f 816/1001/564 812/998/562 813/997/561 811/1002/564
f 817/1003/565 820/1004/566 819/1005/567 822/1006/565
f 822/1006/565 819/1005/567 821/1007/568
f 821/1007/568 819/1005/567 823/1008/569
f 823/1008/569 819/1005/567 820/1004/566 818/1009/569
f 824/1010/570 827/1011/571 826/1012/572 829/1013/570
f 829/1013/570 826/1012/572 828/1014/573
f 828/1014/573 826/1012/572 830/1015/574
f 830/1015/574 826/1012/572 827/1011/571 825/1016/574
f 831/1017/575 834/1018/576 833/1019/577 836/1020/575
f 836/1020/575 833/1019/577 835/1021/578
f 835/1021/578 833/1019/577 837/1022/579
f 837/1022/579 833/1019/577 834/1018/576 832/1023/579
