# Blender v2.93.5 OBJ File: 'Frostlands.blend'
# www.blender.org
mtllib SM_Tree_04.mtl
o Cylinder.015_Cylinder.153
v -0.048197 3.623862 0.002978
v 0.087784 3.608725 -0.061299
v -0.061986 3.432792 -0.297123
v 0.015079 3.688778 -0.029337
v -0.085583 3.354407 -0.379121
v -0.125715 3.366371 -0.266382
v 0.011172 3.354243 -0.327511
v -0.012313 3.853211 -0.070250
v 0.094424 3.865747 0.030529
v 0.196881 3.583882 -0.233369
v 0.051541 3.924904 -0.028842
v 0.241385 3.479459 -0.295997
v 0.133881 3.510185 -0.275980
v 0.238910 3.526731 -0.172796
v 0.099047 4.097552 -0.058424
v 0.007207 4.098751 0.074355
v 0.286393 3.925843 0.119416
v 0.047577 4.168634 0.026399
v 0.359520 3.851498 0.147899
v 0.339267 3.853334 0.035140
v 0.244619 3.857387 0.166826
v 0.082610 3.444327 0.088688
v -0.055678 3.418711 0.060562
v -0.046308 3.431756 0.366678
v 0.006293 3.501940 0.044453
v -0.062414 3.410265 0.465345
v 0.029701 3.373730 0.412807
v -0.107969 3.348939 0.380893
v 0.008038 4.021695 0.078575
v 0.000463 3.990537 -0.081836
v -0.257554 3.848389 -0.003314
v 0.001759 4.078732 0.005305
v -0.336957 3.777857 -0.005954
v -0.252799 3.789999 0.069906
v -0.257325 3.761548 -0.090404
v 0.073202 3.799790 0.061509
v -0.034068 3.788298 -0.032999
v -0.126033 3.613002 0.201050
v 0.000792 3.867700 0.026219
v -0.164868 3.535012 0.254584
v -0.054368 3.543595 0.237367
v -0.160148 3.535096 0.140804
v -0.137162 1.160787 -0.083251
v 0.211393 1.160787 -0.069572
v 0.060669 0.938812 -0.676608
v 0.037853 1.270754 -0.095203
v 0.067656 0.837169 -0.854638
v -0.114211 0.826894 -0.668073
v 0.234075 0.830796 -0.647560
v 0.028586 1.155181 -0.200015
v 0.176613 1.157351 0.115834
v 0.582878 0.795935 -0.264704
v 0.142879 1.258446 -0.061671
v 0.717609 0.654311 -0.326875
v 0.471171 0.689952 -0.404242
v 0.614026 0.697559 -0.086007
v 0.196795 1.155181 -0.030934
v -0.105160 1.157352 0.143697
v 0.308894 0.795935 0.515746
v 0.068788 1.258446 0.094829
v 0.382416 0.654311 0.644633
v 0.438312 0.689952 0.392456
v 0.133535 0.697560 0.562140
v 0.124612 1.140538 0.157648
v -0.143648 1.142709 -0.065308
v -0.349597 0.781292 0.451843
v -0.037653 1.243803 0.081016
v -0.445116 0.639669 0.565393
v -0.189166 0.675309 0.530654
v -0.453759 0.682917 0.303339
v -0.122405 1.182817 0.111018
v 0.008793 1.171116 -0.211980
v -0.566675 0.842180 -0.245455
v -0.092471 1.281087 -0.068739
v -0.711880 0.707784 -0.299566
v -0.599397 0.741330 -0.066736
v -0.462625 0.734789 -0.387657
v -0.158598 1.906552 -0.052817
v 0.233213 1.913496 -0.105121
v -0.068854 1.698710 -0.741951
v 0.035845 2.023158 -0.103147
v -0.100913 1.599361 -0.937557
v -0.263912 1.580197 -0.695376
v 0.129129 1.590955 -0.740171
v -0.035141 1.907305 -0.179917
v 0.197879 1.904448 0.141279
v 0.563655 1.552637 -0.348347
v 0.123729 2.011882 -0.051795
v 0.698363 1.412014 -0.439153
v 0.407370 1.445362 -0.478211
v 0.635220 1.447903 -0.153529
v 0.198791 1.670493 -0.077323
v -0.100551 1.661870 0.174514
v 0.435550 1.290732 0.517123
v 0.084631 1.770322 0.083754
v 0.543003 1.143878 0.649823
v 0.551772 1.188084 0.358592
v 0.248305 1.185099 0.605336
v 0.158726 1.885055 0.136802
v -0.188414 1.887435 -0.058341
v -0.312867 1.499555 0.565008
v -0.037122 1.989408 0.080290
v -0.397303 1.349559 0.713432
v -0.118640 1.392322 0.624369
v -0.462539 1.400461 0.423528
v -0.100555 2.152204 0.154336
v 0.032898 2.151333 -0.212660
v -0.626740 1.803244 -0.228001
v -0.072946 2.258138 -0.051664
v -0.796315 1.663952 -0.281996
v -0.657603 1.694636 -0.023038
v -0.517641 1.699113 -0.387960
v 0.013077 1.449019 0.202149
v -0.136616 1.455964 -0.163696
v -0.676351 1.241177 0.289606
v -0.084791 1.565625 0.026756
v -0.857491 1.141829 0.370092
v -0.581960 1.122664 0.466544
v -0.724699 1.133422 0.097609
v -0.141114 1.613113 0.114850
v 0.110710 1.610255 -0.191827
v -0.455505 1.258445 -0.421885
v -0.057335 1.717690 -0.071259
v -0.577426 1.117822 -0.529249
v -0.541623 1.151169 -0.237837
v -0.285119 1.153711 -0.540393
v -0.101017 1.451796 -0.137424
v 0.218338 1.443173 0.088497
v 0.414228 1.072035 -0.516822
v 0.083695 1.551625 -0.067712
v 0.515439 0.925181 -0.654343
v 0.231458 0.969387 -0.589174
v 0.546928 0.966402 -0.357974
v 0.116280 1.427522 -0.152815
v 0.015273 1.429903 0.232393
v 0.649833 1.042022 0.195155
v 0.111135 1.531876 0.050959
v 0.814786 0.892027 0.239309
v 0.658144 0.934790 -0.007771
v 0.550804 0.942928 0.375741
v 0.198816 1.694672 0.093604
v -0.190000 1.693800 0.057303
v -0.038018 1.345711 0.699377
v -0.007469 1.800605 0.118990
v -0.047372 1.206420 0.877096
v 0.168088 1.237104 0.677402
v -0.220369 1.241580 0.634279
v -0.117013 2.436238 0.037352
v 0.105265 2.426249 -0.136770
v -0.292225 2.193265 -0.459821
v -0.014823 2.536971 -0.056943
v -0.377167 2.088020 -0.583185
v -0.396046 2.090512 -0.367895
v -0.170507 2.084562 -0.537281
v -0.073109 2.330068 -0.125221
v 0.176712 2.339494 0.000900
v 0.236987 1.963197 -0.475098
v 0.066896 2.431750 -0.091030
v 0.289070 1.819724 -0.592702
v 0.097983 1.858762 -0.511545
v 0.345804 1.873696 -0.380910
v 0.115611 2.574315 -0.104457
v 0.016532 2.592027 0.166764
v 0.458889 2.243573 0.172070
v 0.099557 2.682826 0.048794
v 0.568919 2.109071 0.209818
v 0.477056 2.132481 0.019544
v 0.373753 2.155357 0.289315
v 0.165532 2.340726 0.054357
v -0.112030 2.342591 0.051462
v 0.019878 2.018228 0.475772
v 0.026846 2.442719 0.095050
v 0.017744 1.888246 0.592351
v 0.158523 1.913740 0.437315
v -0.118957 1.920595 0.429946
v -0.010504 2.464367 0.155960
v -0.091337 2.437037 -0.121785
v -0.463829 2.134706 0.142895
v -0.082100 2.551887 0.029023
v -0.580717 2.006962 0.177764
v -0.394476 2.044734 0.270501
v -0.470823 2.022309 -0.008582
v 0.111983 2.736369 0.096312
v -0.094420 2.730680 0.009556
v -0.125493 2.499402 0.387139
v -0.004018 2.817389 0.077584
v -0.162690 2.402033 0.481927
v -0.010207 2.416513 0.407686
v -0.215181 2.414562 0.317292
v -0.036576 3.167720 0.095347
v -0.007397 3.146694 -0.111518
v -0.395379 2.902327 -0.117675
v -0.025790 3.257887 -0.002749
v -0.508550 2.793452 -0.152867
v -0.408338 2.810070 -0.020255
v -0.374814 2.793223 -0.225769
v -0.101027 3.055394 -0.024127
v 0.097389 3.072807 -0.071090
v -0.130685 2.681302 -0.391392
v -0.004240 3.154974 -0.066631
v -0.169403 2.536260 -0.490836
v -0.228215 2.578938 -0.350796
v -0.028312 2.601919 -0.393942
v 0.021221 3.290503 -0.090674
v 0.107890 3.325365 0.113194
v 0.331482 2.992411 -0.112908
v 0.095882 3.404457 0.010222
v 0.403625 2.866240 -0.150612
v 0.258206 2.876035 -0.214528
v 0.342106 2.915741 -0.009213
v 0.118830 3.077519 -0.035021
v -0.030837 3.079052 0.096448
v 0.242432 2.796791 0.260570
v 0.070088 3.177766 0.059796
v 0.295205 2.680134 0.322049
v 0.292187 2.694304 0.166933
v 0.140494 2.700316 0.296042
v 0.082268 3.202499 0.113685
v -0.104271 3.157966 -0.008164
v -0.181167 2.886119 0.307275
v -0.017070 3.277829 0.079521
v -0.231415 2.766175 0.377015
v -0.082793 2.808488 0.342778
v -0.267404 2.768559 0.218253
vt 0.035156 0.250000
vt 0.048828 0.250000
vt 0.048828 0.287109
vt 0.035156 0.287109
vt 0.048828 0.298828
vt 0.060547 0.287109
vt 0.060547 0.250000
vt 0.035156 0.250000
vt 0.048828 0.250000
vt 0.048828 0.287109
vt 0.035156 0.287109
vt 0.048828 0.298828
vt 0.060547 0.287109
vt 0.060547 0.250000
vt 0.035156 0.250000
vt 0.048828 0.250000
vt 0.048828 0.287109
vt 0.035156 0.287109
vt 0.048828 0.298828
vt 0.060547 0.287109
vt 0.060547 0.250000
vt 0.035156 0.250000
vt 0.048828 0.250000
vt 0.048828 0.287109
vt 0.035156 0.287109
vt 0.048828 0.298828
vt 0.060547 0.287109
vt 0.060547 0.250000
vt 0.035156 0.250000
vt 0.048828 0.250000
vt 0.048828 0.287109
vt 0.035156 0.287109
vt 0.048828 0.298828
vt 0.060547 0.287109
vt 0.060547 0.250000
vt 0.035156 0.250000
vt 0.048828 0.250000
vt 0.048828 0.287109
vt 0.035156 0.287109
vt 0.048828 0.298828
vt 0.060547 0.287109
vt 0.060547 0.250000
vt 0.035156 0.250000
vt 0.048828 0.250000
vt 0.048828 0.287109
vt 0.035156 0.287109
vt 0.048828 0.298828
vt 0.060547 0.287109
vt 0.060547 0.250000
vt 0.035156 0.250000
vt 0.048828 0.250000
vt 0.048828 0.287109
vt 0.035156 0.287109
vt 0.048828 0.298828
vt 0.060547 0.287109
vt 0.060547 0.250000
vt 0.035156 0.250000
vt 0.048828 0.250000
vt 0.048828 0.287109
vt 0.035156 0.287109
vt 0.048828 0.298828
vt 0.060547 0.287109
vt 0.060547 0.250000
vt 0.035156 0.250000
vt 0.048828 0.250000
vt 0.048828 0.287109
vt 0.035156 0.287109
vt 0.048828 0.298828
vt 0.060547 0.287109
vt 0.060547 0.250000
vt 0.035156 0.250000
vt 0.048828 0.250000
vt 0.048828 0.287109
vt 0.035156 0.287109
vt 0.048828 0.298828
vt 0.060547 0.287109
vt 0.060547 0.250000
vt 0.035156 0.250000
vt 0.048828 0.250000
vt 0.048828 0.287109
vt 0.035156 0.287109
vt 0.048828 0.298828
vt 0.060547 0.287109
vt 0.060547 0.250000
vt 0.035156 0.250000
vt 0.048828 0.250000
vt 0.048828 0.287109
vt 0.035156 0.287109
vt 0.048828 0.298828
vt 0.060547 0.287109
vt 0.060547 0.250000
vt 0.035156 0.250000
vt 0.048828 0.250000
vt 0.048828 0.287109
vt 0.035156 0.287109
vt 0.048828 0.298828
vt 0.060547 0.287109
vt 0.060547 0.250000
vt 0.035156 0.250000
vt 0.048828 0.250000
vt 0.048828 0.287109
vt 0.035156 0.287109
vt 0.048828 0.298828
vt 0.060547 0.287109
vt 0.060547 0.250000
vt 0.035156 0.250000
vt 0.048828 0.250000
vt 0.048828 0.287109
vt 0.035156 0.287109
vt 0.048828 0.298828
vt 0.060547 0.287109
vt 0.060547 0.250000
vt 0.035156 0.250000
vt 0.048828 0.250000
vt 0.048828 0.287109
vt 0.035156 0.287109
vt 0.048828 0.298828
vt 0.060547 0.287109
vt 0.060547 0.250000
vt 0.035156 0.250000
vt 0.048828 0.250000
vt 0.048828 0.287109
vt 0.035156 0.287109
vt 0.048828 0.298828
vt 0.060547 0.287109
vt 0.060547 0.250000
vt 0.035156 0.250000
vt 0.048828 0.250000
vt 0.048828 0.287109
vt 0.035156 0.287109
vt 0.048828 0.298828
vt 0.060547 0.287109
vt 0.060547 0.250000
vt 0.035156 0.250000
vt 0.048828 0.250000
vt 0.048828 0.287109
vt 0.035156 0.287109
vt 0.048828 0.298828
vt 0.060547 0.287109
vt 0.060547 0.250000
vt 0.035156 0.250000
vt 0.048828 0.250000
vt 0.048828 0.287109
vt 0.035156 0.287109
vt 0.048828 0.298828
vt 0.060547 0.287109
vt 0.060547 0.250000
vt 0.035156 0.250000
vt 0.048828 0.250000
vt 0.048828 0.287109
vt 0.035156 0.287109
vt 0.048828 0.298828
vt 0.060547 0.287109
vt 0.060547 0.250000
vt 0.035156 0.250000
vt 0.048828 0.250000
vt 0.048828 0.287109
vt 0.035156 0.287109
vt 0.048828 0.298828
vt 0.060547 0.287109
vt 0.060547 0.250000
vt 0.035156 0.250000
vt 0.048828 0.250000
vt 0.048828 0.287109
vt 0.035156 0.287109
vt 0.048828 0.298828
vt 0.060547 0.287109
vt 0.060547 0.250000
vt 0.035156 0.250000
vt 0.048828 0.250000
vt 0.048828 0.287109
vt 0.035156 0.287109
vt 0.048828 0.298828
vt 0.060547 0.287109
vt 0.060547 0.250000
vt 0.035156 0.250000
vt 0.048828 0.250000
vt 0.048828 0.287109
vt 0.035156 0.287109
vt 0.048828 0.298828
vt 0.060547 0.287109
vt 0.060547 0.250000
vt 0.035156 0.250000
vt 0.048828 0.250000
vt 0.048828 0.287109
vt 0.035156 0.287109
vt 0.048828 0.298828
vt 0.060547 0.287109
vt 0.060547 0.250000
vt 0.035156 0.250000
vt 0.048828 0.250000
vt 0.048828 0.287109
vt 0.035156 0.287109
vt 0.048828 0.298828
vt 0.060547 0.287109
vt 0.060547 0.250000
vt 0.035156 0.250000
vt 0.048828 0.250000
vt 0.048828 0.287109
vt 0.035156 0.287109
vt 0.048828 0.298828
vt 0.060547 0.287109
vt 0.060547 0.250000
vt 0.035156 0.250000
vt 0.048828 0.250000
vt 0.048828 0.287109
vt 0.035156 0.287109
vt 0.048828 0.298828
vt 0.060547 0.287109
vt 0.060547 0.250000
vt 0.035156 0.250000
vt 0.048828 0.250000
vt 0.048828 0.287109
vt 0.035156 0.287109
vt 0.048828 0.298828
vt 0.060547 0.287109
vt 0.060547 0.250000
vt 0.035156 0.250000
vt 0.048828 0.250000
vt 0.048828 0.287109
vt 0.035156 0.287109
vt 0.048828 0.298828
vt 0.060547 0.287109
vt 0.060547 0.250000
vn -0.7529 0.5703 -0.3285
vn -0.3058 0.7306 -0.6104
vn -0.2364 0.7354 -0.6350
vn -0.1664 0.7362 -0.6559
vn 0.3718 0.6152 -0.6951
vn -0.0145 0.5097 -0.8602
vn 0.5639 0.5881 -0.5798
vn 0.5172 0.5914 -0.6186
vn 0.4624 0.5926 -0.6595
vn 0.8690 0.4675 -0.1619
vn 0.7304 0.6724 -0.1202
vn 0.5203 0.6995 0.4899
vn 0.5458 0.7083 0.4475
vn 0.5964 0.7214 0.3519
vn 0.1660 0.4910 0.8552
vn 0.4808 0.8371 0.2608
vn -0.2146 0.9610 0.1743
vn -0.2153 0.9609 0.1741
vn -0.2021 0.9633 0.1768
vn -0.8021 0.5971 -0.0009
vn -0.5713 0.6232 0.5340
vn -0.6643 0.7474 0.0108
vn -0.6627 0.7476 -0.0431
vn -0.6550 0.7426 -0.1392
vn -0.5175 0.6052 -0.6048
vn 0.0897 0.5329 0.8414
vn -0.5454 0.6417 0.5392
vn -0.5459 0.6417 0.5388
vn -0.5356 0.6427 0.5477
vn -0.9045 0.4248 -0.0372
vn -0.4981 0.7444 -0.4446
vn 0.0194 0.8686 -0.4951
vn 0.0116 0.8686 -0.4954
vn 0.5314 0.7444 -0.4042
vn 0.3156 0.6167 -0.7211
vn 0.6233 0.7233 -0.2971
vn 0.6199 0.7233 -0.3042
vn 0.7528 0.6232 0.2118
vn 0.7455 0.6167 0.2524
vn 0.3496 0.7233 0.5954
vn 0.3563 0.7233 0.5915
vn -0.1463 0.6232 0.7682
vn 0.0209 0.6167 0.7869
vn -0.4378 0.7233 0.5339
vn -0.4318 0.7233 0.5389
vn -0.7714 0.6232 0.1283
vn -0.7062 0.6641 0.2455
vn -0.5978 0.7547 -0.2701
vn -0.6008 0.7549 -0.2629
vn -0.3186 0.6296 -0.7086
vn -0.5466 0.7794 -0.3062
vn -0.0580 0.8939 -0.4445
vn -0.0689 0.8940 -0.4427
vn -0.0905 0.8938 -0.4391
vn 0.4266 0.7762 -0.4642
vn 0.1738 0.6463 -0.7430
vn 0.5255 0.7557 -0.3907
vn 0.5314 0.7559 -0.3823
vn 0.5342 0.7560 -0.3782
vn 0.7455 0.6614 0.0817
vn 0.7453 0.6555 0.1219
vn 0.4236 0.7580 0.4959
vn 0.4170 0.7581 0.5013
vn 0.4095 0.7581 0.5074
vn -0.0205 0.6620 0.7492
vn 0.1361 0.6570 0.7414
vn -0.3193 0.7513 0.5775
vn -0.3193 0.7513 0.5776
vn -0.3133 0.7512 0.5810
vn -0.6971 0.6628 0.2732
vn -0.6610 0.6996 0.2712
vn -0.5713 0.7865 -0.2346
vn -0.5743 0.7868 -0.2262
vn -0.5825 0.7874 -0.2017
vn -0.3367 0.6674 -0.6641
vn -0.1580 0.7794 0.6063
vn -0.4154 0.8939 0.1686
vn -0.4109 0.8940 0.1787
vn -0.4020 0.8938 0.1986
vn -0.5570 0.7762 -0.2954
vn -0.7628 0.6463 0.0197
vn -0.5109 0.7557 -0.4096
vn -0.5042 0.7559 -0.4175
vn -0.5010 0.7560 -0.4212
vn -0.1095 0.6614 -0.7420
vn -0.0705 0.6555 -0.7519
vn 0.3726 0.7580 -0.5352
vn 0.3795 0.7581 -0.5303
vn 0.3873 0.7581 -0.5245
vn 0.7300 0.6620 -0.1696
vn 0.6829 0.6570 -0.3192
vn 0.6395 0.7513 0.1629
vn 0.6395 0.7513 0.1628
vn 0.6413 0.7512 0.1561
vn 0.4407 0.6628 0.6054
vn 0.4295 0.6996 0.5709
vn -0.0825 0.7865 0.6120
vn -0.0736 0.7868 0.6128
vn -0.0479 0.7874 0.6146
vn -0.5574 0.6674 0.4938
vn -0.7331 0.6762 -0.0721
vn -0.3596 0.8175 -0.4498
vn -0.3385 0.8181 -0.4649
vn -0.3204 0.8182 -0.4773
vn 0.1679 0.6898 -0.7042
vn -0.2201 0.5694 -0.7921
vn 0.3377 0.6670 -0.6641
vn 0.3176 0.6674 -0.6735
vn 0.2883 0.6674 -0.6865
vn 0.7559 0.5567 -0.3444
vn 0.7770 0.5493 -0.3075
vn 0.7094 0.6540 0.2627
vn 0.7152 0.6541 0.2460
vn 0.7289 0.6535 0.2039
vn 0.4237 0.5488 0.7206
vn 0.5770 0.5401 0.6127
vn -0.0036 0.6677 0.7444
vn -0.0038 0.6677 0.7444
vn 0.0060 0.6676 0.7445
vn -0.5831 0.5477 0.6000
vn -0.4517 0.5948 0.6649
vn -0.6993 0.6904 0.1850
vn -0.7043 0.6900 0.1669
vn -0.7116 0.6888 0.1382
vn -0.7309 0.5638 -0.3846
vn 0.3021 0.6032 0.7382
vn -0.2851 0.7223 0.6301
vn -0.2853 0.7223 0.6300
vn -0.2762 0.7225 0.6338
vn -0.7669 0.5734 0.2881
vn -0.6881 0.5703 0.4485
vn -0.6781 0.7306 -0.0799
vn -0.6604 0.7354 -0.1514
vn -0.6395 0.7362 -0.2213
vn -0.3765 0.6152 -0.6926
vn -0.7267 0.5097 -0.4605
vn -0.1747 0.5881 -0.7897
vn -0.2327 0.5914 -0.7720
vn -0.2970 0.5926 -0.7487
vn 0.3422 0.4675 -0.8151
vn 0.3833 0.4587 -0.8017
vn 0.7855 0.5396 -0.3028
vn 0.7649 0.5416 -0.3487
vn 0.7137 0.5410 -0.4449
vn 0.8730 0.4307 0.2290
vn 0.9067 0.4212 0.0208
vn 0.5445 0.5704 0.6149
vn 0.5440 0.5704 0.6154
vn 0.5542 0.5702 0.6063
vn -0.0948 0.4302 0.8977
vn 0.0643 0.4813 0.8742
vn -0.4378 0.5819 0.6854
vn -0.4820 0.5825 0.6545
vn -0.5576 0.5793 0.5945
vn -0.8563 0.4757 0.2012
usemtl frostland_tilesheet
s 1
f 1/1/1 4/2/2 3/3/3 6/4/1
f 6/4/1 3/3/3 5/5/4
f 5/5/4 3/3/3 7/6/5
f 7/6/5 3/3/3 4/2/2 2/7/5
f 8/8/6 11/9/7 10/10/8 13/11/6
f 13/11/6 10/10/8 12/12/9
f 12/12/9 10/10/8 14/13/10
f 14/13/10 10/10/8 11/9/7 9/14/10
f 15/15/11 18/16/12 17/17/13 20/18/11
f 20/18/11 17/17/13 19/19/14
f 19/19/14 17/17/13 21/20/15
f 21/20/15 17/17/13 18/16/12 16/21/15
f 22/22/16 25/23/17 24/24/18 27/25/16
f 27/25/16 24/24/18 26/26/19
f 26/26/19 24/24/18 28/27/20
f 28/27/20 24/24/18 25/23/17 23/28/20
f 29/29/21 32/30/22 31/31/23 34/32/21
f 34/32/21 31/31/23 33/33/24
f 33/33/24 31/31/23 35/34/25
f 35/34/25 31/31/23 32/30/22 30/35/25
f 36/36/26 39/37/27 38/38/28 41/39/26
f 41/39/26 38/38/28 40/40/29
f 40/40/29 38/38/28 42/41/30
f 42/41/30 38/38/28 39/37/27 37/42/30
f 43/43/31 46/44/32 45/45/32 48/46/31
f 48/46/31 45/45/32 47/47/33
f 47/47/33 45/45/32 49/48/34
f 49/48/34 45/45/32 46/44/32 44/49/34
f 50/50/35 53/51/36 52/52/36 55/53/35
f 55/53/35 52/52/36 54/54/37
f 54/54/37 52/52/36 56/55/38
f 56/55/38 52/52/36 53/51/36 51/56/38
f 57/57/39 60/58/40 59/59/40 62/60/39
f 62/60/39 59/59/40 61/61/41
f 61/61/41 59/59/40 63/62/42
f 63/62/42 59/59/40 60/58/40 58/63/42
f 64/64/43 67/65/44 66/66/44 69/67/43
f 69/67/43 66/66/44 68/68/45
f 68/68/45 66/66/44 70/69/46
f 70/69/46 66/66/44 67/65/44 65/70/46
f 71/71/47 74/72/48 73/73/48 76/74/47
f 76/74/47 73/73/48 75/75/49
f 75/75/49 73/73/48 77/76/50
f 77/76/50 73/73/48 74/72/48 72/77/50
f 78/78/51 81/79/52 80/80/53 83/81/51
f 83/81/51 80/80/53 82/82/54
f 82/82/54 80/80/53 84/83/55
f 84/83/55 80/80/53 81/79/52 79/84/55
f 85/85/56 88/86/57 87/87/58 90/88/56
f 90/88/56 87/87/58 89/89/59
f 89/89/59 87/87/58 91/90/60
f 91/90/60 87/87/58 88/86/57 86/91/60
f 92/92/61 95/93/62 94/94/63 97/95/61
f 97/95/61 94/94/63 96/96/64
f 96/96/64 94/94/63 98/97/65
f 98/97/65 94/94/63 95/93/62 93/98/65
f 99/99/66 102/100/67 101/101/68 104/102/66
f 104/102/66 101/101/68 103/103/69
f 103/103/69 101/101/68 105/104/70
f 105/104/70 101/101/68 102/100/67 100/105/70
f 106/106/71 109/107/72 108/108/73 111/109/71
f 111/109/71 108/108/73 110/110/74
f 110/110/74 108/108/73 112/111/75
f 112/111/75 108/108/73 109/107/72 107/112/75
f 113/113/76 116/114/77 115/115/78 118/116/76
f 118/116/76 115/115/78 117/117/79
f 117/117/79 115/115/78 119/118/80
f 119/118/80 115/115/78 116/114/77 114/119/80
f 120/120/81 123/121/82 122/122/83 125/123/81
f 125/123/81 122/122/83 124/124/84
f 124/124/84 122/122/83 126/125/85
f 126/125/85 122/122/83 123/121/82 121/126/85
f 127/127/86 130/128/87 129/129/88 132/130/86
f 132/130/86 129/129/88 131/131/89
f 131/131/89 129/129/88 133/132/90
f 133/132/90 129/129/88 130/128/87 128/133/90
f 134/134/91 137/135/92 136/136/93 139/137/91
f 139/137/91 136/136/93 138/138/94
f 138/138/94 136/136/93 140/139/95
f 140/139/95 136/136/93 137/135/92 135/140/95
f 141/141/96 144/142/97 143/143/98 146/144/96
f 146/144/96 143/143/98 145/145/99
f 145/145/99 143/143/98 147/146/100
f 147/146/100 143/143/98 144/142/97 142/147/100
f 148/148/101 151/149/102 150/150/103 153/151/101
f 153/151/101 150/150/103 152/152/104
f 152/152/104 150/150/103 154/153/105
f 154/153/105 150/150/103 151/149/102 149/154/105
f 155/155/106 158/156/107 157/157/108 160/158/106
f 160/158/106 157/157/108 159/159/109
f 159/159/109 157/157/108 161/160/110
f 161/160/110 157/157/108 158/156/107 156/161/110
f 162/162/111 165/163/112 164/164/113 167/165/111
f 167/165/111 164/164/113 166/166/114
f 166/166/114 164/164/113 168/167/115
f 168/167/115 164/164/113 165/163/112 163/168/115
f 169/169/116 172/170/117 171/171/118 174/172/116
f 174/172/116 171/171/118 173/173/119
f 173/173/119 171/171/118 175/174/120
f 175/174/120 171/171/118 172/170/117 170/175/120
f 176/176/121 179/177/122 178/178/123 181/179/121
f 181/179/121 178/178/123 180/180/124
f 180/180/124 178/178/123 182/181/125
f 182/181/125 178/178/123 179/177/122 177/182/125
f 183/183/126 186/184/127 185/185/128 188/186/126
f 188/186/126 185/185/128 187/187/129
f 187/187/129 185/185/128 189/188/130
f 189/188/130 185/185/128 186/184/127 184/189/130
f 190/190/131 193/191/132 192/192/133 195/193/131
f 195/193/131 192/192/133 194/194/134
f 194/194/134 192/192/133 196/195/135
f 196/195/135 192/192/133 193/191/132 191/196/135
f 197/197/136 200/198/137 199/199/138 202/200/136
f 202/200/136 199/199/138 201/201/139
f 201/201/139 199/199/138 203/202/140
f 203/202/140 199/199/138 200/198/137 198/203/140
f 204/204/141 207/205/142 206/206/143 209/207/141
f 209/207/141 206/206/143 208/208/144
f 208/208/144 206/206/143 210/209/145
f 210/209/145 206/206/143 207/205/142 205/210/145
f 211/211/146 214/212/147 213/213/148 216/214/146
f 216/214/146 213/213/148 215/215/149
f 215/215/149 213/213/148 217/216/150
f 217/216/150 213/213/148 214/212/147 212/217/150
f 218/218/151 221/219/152 220/220/153 223/221/151
f 223/221/151 220/220/153 222/222/154
f 222/222/154 220/220/153 224/223/155
f 224/223/155 220/220/153 221/219/152 219/224/155
o Cylinder.016_Cylinder.154
v 0.031275 0.000000 -0.149417
v 0.031275 1.847529 -0.121934
v 0.136929 0.000000 -0.105654
v 0.117496 1.847529 -0.086221
v 0.180692 0.000000 0.000000
v 0.153210 1.847529 0.000000
v 0.136929 0.000000 0.105654
v 0.117496 1.847529 0.086221
v 0.031275 0.000000 0.149417
v 0.031275 1.847529 0.121934
v -0.074378 0.000000 0.105654
v -0.054945 1.847529 0.086221
v -0.118141 0.000000 0.000000
v -0.090659 1.847529 0.000000
v -0.074378 0.000000 -0.105654
v -0.054945 1.847529 -0.086221
v 0.031275 3.662120 -0.062187
v 0.075248 3.662120 -0.043973
v 0.093462 3.662120 0.000000
v 0.075248 3.662120 0.043973
v 0.031275 3.662120 0.062187
v -0.012698 3.662120 0.043973
v -0.030912 3.662120 0.000000
v -0.012698 3.662120 -0.043973
v 0.031275 4.636467 0.000000
v 0.108971 2.754825 -0.077696
v 0.141153 2.754825 0.000000
v 0.031275 2.754825 0.109878
v -0.046420 2.754825 0.077696
v -0.046420 2.754825 -0.077696
v 0.031275 2.754825 -0.109878
v 0.108971 2.754825 0.077696
v -0.078603 2.754825 0.000000
v 0.031275 0.923765 -0.135675
v 0.127212 0.923765 -0.095937
v 0.166951 0.923765 0.000000
v 0.127212 0.923765 0.095937
v 0.031275 0.923765 0.135676
v -0.064662 0.923765 0.095937
v -0.104400 0.923765 0.000000
v -0.064662 0.923765 -0.095937
v 0.132071 0.461882 -0.100795
v 0.173821 0.461882 0.000000
v 0.132071 0.461882 0.100795
v 0.031275 0.461882 0.142546
v -0.069520 0.461882 0.100795
v -0.111271 0.461882 0.000000
v -0.069520 0.461882 -0.100795
v 0.031275 0.461882 -0.142546
v 0.031275 1.385647 -0.128805
v 0.122354 1.385647 -0.091079
v 0.160080 1.385647 0.000000
v 0.122354 1.385647 0.091079
v 0.031275 1.385647 0.128805
v -0.059804 1.385647 0.091079
v -0.097530 1.385647 0.000000
v -0.059804 1.385647 -0.091079
v 0.147181 2.301177 0.000000
v -0.050683 2.301177 0.081958
v 0.031275 2.301177 -0.115906
v 0.113233 2.301177 0.081958
v -0.084631 2.301177 0.000000
v 0.113233 2.301177 -0.081958
v 0.031275 2.301177 0.115906
v -0.050683 2.301177 -0.081958
v 0.104708 3.208472 -0.073433
v 0.031275 3.208472 0.103850
v -0.042158 3.208472 -0.073433
v 0.135125 3.208472 0.000000
v -0.042158 3.208472 0.073433
v 0.031275 3.208472 -0.103850
v 0.104708 3.208472 0.073433
v -0.072575 3.208472 0.000000
v 0.034400 4.619929 -0.003124
v 0.031277 4.619602 -0.004446
v 0.034410 4.619768 0.003133
v 0.035689 4.619988 -0.000001
v 0.028144 4.619777 -0.003133
v 0.026836 4.619661 -0.000001
v 0.028138 4.619673 0.003139
v 0.031277 4.619616 0.004444
vt 0.001953 0.197266
vt 0.001953 0.240234
vt 0.013672 0.240234
vt 0.013672 0.197266
vt 0.001953 0.197266
vt 0.001953 0.240234
vt 0.013672 0.240234
vt 0.013672 0.197266
vt 0.001953 0.240234
vt 0.001953 0.197266
vt 0.013672 0.240234
vt 0.013672 0.197266
vt 0.001953 0.197266
vt 0.001953 0.240234
vt 0.013672 0.240234
vt 0.013672 0.197266
vt 0.001953 0.197266
vt 0.001953 0.240234
vt 0.013672 0.240234
vt 0.013672 0.197266
vt 0.003906 0.197266
vt 0.011719 0.197266
vt 0.011719 0.240234
vt 0.003906 0.240234
vt 0.001953 0.197266
vt 0.001953 0.240234
vt 0.013672 0.240234
vt 0.013672 0.197266
vt 0.001953 0.144531
vt 0.001953 0.187500
vt 0.013672 0.187500
vt 0.013672 0.144531
vt 0.750000 0.490000
vt 0.919706 0.419706
vt 0.990000 0.250000
vt 0.919706 0.080294
vt 0.750000 0.010000
vt 0.580294 0.080294
vt 0.510000 0.250000
vt 0.580294 0.419706
vt 0.003906 0.187500
vt 0.011719 0.187500
vt 0.011719 0.250000
vt 0.003906 0.250000
vt 0.003906 0.197266
vt 0.011719 0.197266
vt 0.011719 0.240234
vt 0.003906 0.240234
vt 0.003906 0.197266
vt 0.011719 0.197266
vt 0.011719 0.240234
vt 0.003906 0.240234
vt 0.009766 0.134766
vt 0.001953 0.134766
vt 0.001953 0.177734
vt 0.009766 0.177734
vt 0.003906 0.134766
vt 0.011719 0.134766
vt 0.011719 0.177734
vt 0.003906 0.177734
vt 0.009766 0.134766
vt 0.001953 0.134766
vt 0.001953 0.177734
vt 0.009766 0.177734
vt 0.003906 0.197266
vt 0.003906 0.240234
vt 0.003906 0.197266
vt 0.011719 0.197266
vt 0.011719 0.240234
vt 0.003906 0.240234
vt 0.003906 0.187500
vt 0.011719 0.187500
vt 0.011719 0.250000
vt 0.003906 0.250000
vt 0.000049 0.187549
vt 0.007812 0.187500
vt 0.007812 0.250000
vt 0.000000 0.250000
vt 0.000049 0.187549
vt 0.007812 0.187500
vt 0.007812 0.250000
vt -0.000000 0.250000
vt 0.000049 0.187549
vt 0.007812 0.187500
vt 0.007812 0.250000
vt 0.000000 0.250000
vt 0.000049 0.187549
vt 0.007812 0.187500
vt 0.007812 0.250000
vt -0.000000 0.250000
vt 0.001953 0.187500
vt 0.009766 0.187500
vt 0.009766 0.250000
vt 0.001953 0.250000
vt 0.003906 0.187500
vt 0.011719 0.187500
vt 0.011719 0.250000
vt 0.003906 0.250000
vt 0.011719 0.134766
vt -0.000000 0.134766
vt 0.001953 0.177734
vt 0.009766 0.177734
vt 0.013672 0.197266
vt 0.001953 0.197266
vt 0.003906 0.240234
vt 0.011719 0.240234
vt 0.013672 0.197266
vt 0.001953 0.197266
vt 0.003906 0.240234
vt 0.011719 0.240234
vt 0.013672 0.197266
vt 0.001953 0.197266
vt 0.003906 0.240234
vt 0.011719 0.240234
vt 0.011719 0.134766
vt -0.000000 0.134766
vt 0.001953 0.177734
vt 0.009766 0.177734
vt 0.013672 0.197266
vt 0.001953 0.197266
vt 0.003906 0.240234
vt 0.011719 0.240234
vt 0.013672 0.197266
vt 0.001953 0.197266
vt 0.003906 0.240234
vt 0.011719 0.240234
vt 0.013672 0.197266
vt 0.001953 0.197266
vt 0.003906 0.240234
vt 0.011719 0.240234
vt 0.001953 0.197266
vt 0.001953 0.240234
vt 0.013672 0.240234
vt 0.013672 0.197266
vt 0.001953 0.197266
vt 0.001953 0.240234
vt 0.013672 0.240234
vt 0.013672 0.197266
vt -0.000000 0.134766
vt -0.000000 0.177734
vt 0.011719 0.177734
vt 0.011719 0.134766
vt 0.001953 0.197266
vt 0.001953 0.240234
vt 0.013672 0.240234
vt 0.013672 0.197266
vt 0.001953 0.142578
vt 0.001953 0.185547
vt 0.013672 0.185547
vt 0.013672 0.142578
vt 0.013672 0.197266
vt 0.013672 0.240234
vt 0.001953 0.240234
vt 0.001953 0.197266
vt 0.001953 0.197266
vt 0.001953 0.240234
vt -0.000000 0.134766
vt -0.000000 0.177734
vt 0.011719 0.177734
vt 0.011719 0.134766
vt 0.017578 0.187500
vt 0.017578 0.230469
vt 0.029297 0.230469
vt 0.029297 0.187500
vt 0.017578 0.187500
vt 0.017578 0.230469
vt 0.029297 0.230469
vt 0.029297 0.187500
vt 0.017578 0.230469
vt 0.017578 0.187500
vt 0.029297 0.230469
vt 0.029297 0.187500
vt 0.017578 0.187500
vt 0.017578 0.230469
vt 0.029297 0.230469
vt 0.029297 0.187500
vt 0.017578 0.187500
vt 0.017578 0.230469
vt 0.029297 0.230469
vt 0.029297 0.187500
vt 0.017578 0.187500
vt 0.017578 0.230469
vt 0.029297 0.230469
vt 0.029297 0.187500
vt 0.017578 0.187500
vt 0.017578 0.230469
vt 0.029297 0.230469
vt 0.029297 0.187500
vt 0.001953 0.197266
vt 0.001953 0.240234
vt 0.013672 0.240234
vt 0.013672 0.197266
vt 0.001953 0.197266
vt 0.001953 0.240234
vt 0.013672 0.240234
vt 0.013672 0.197266
vt 0.001953 0.197266
vt 0.001953 0.240234
vt 0.013672 0.240234
vt 0.013672 0.197266
vt 0.000000 0.140625
vt 0.000000 0.183594
vt 0.011719 0.183594
vt 0.011719 0.140625
vt 0.001953 0.197266
vt 0.001953 0.240234
vt 0.013672 0.240234
vt 0.013672 0.197266
vt 0.013672 0.197266
vt 0.013672 0.240234
vt 0.003906 0.240234
vt 0.001953 0.197266
vt 0.001953 0.240234
vt 0.001953 0.197266
vt 0.001953 0.240234
vt 0.013672 0.240234
vt 0.013672 0.197266
vt 0.001953 0.197266
vt 0.013672 0.197266
vt 0.013672 0.240234
vt 0.001953 0.240234
vt 0.013672 0.138672
vt 0.001953 0.138672
vt 0.001953 0.181641
vt 0.013672 0.181641
vt 0.013672 0.197266
vt 0.001953 0.197266
vt 0.001953 0.240234
vt 0.013672 0.240234
vt 0.001953 0.136719
vt 0.013672 0.136719
vt 0.013672 0.179688
vt 0.001953 0.179688
vt 0.003906 0.125000
vt 0.015625 0.125000
vt 0.015625 0.167969
vt 0.003906 0.167969
vt 0.013672 0.197266
vt 0.001953 0.197266
vt 0.001953 0.240234
vt 0.013672 0.240234
vt 0.013672 0.197266
vt 0.001953 0.197266
vt 0.001953 0.240234
vt 0.013672 0.240234
vt 0.011719 0.197266
vt 0.003906 0.197266
vt 0.003906 0.240234
vt 0.011719 0.240234
vt 0.011719 0.197266
vt 0.003906 0.197266
vt 0.003906 0.240234
vt 0.011719 0.240234
vt 0.011719 0.197266
vt 0.003906 0.197266
vt 0.003906 0.240234
vt 0.011719 0.240234
vt 0.009766 0.134766
vt 0.001953 0.134766
vt 0.001953 0.177734
vt 0.009766 0.177734
vt 0.011719 0.197266
vt 0.003906 0.197266
vt 0.003906 0.240234
vt 0.011719 0.240234
vt 0.009766 0.134766
vt 0.001953 0.134766
vt 0.001953 0.177734
vt 0.009766 0.177734
vt 0.011719 0.197266
vt 0.003906 0.197266
vt 0.003906 0.240234
vt 0.011719 0.240234
vt 0.011719 0.197266
vt 0.003906 0.197266
vt 0.003906 0.240234
vt 0.011719 0.240234
vt 0.000000 0.000000
vt 0.000000 0.000000
vt 0.000000 0.000000
vt 0.000000 0.000000
vt 0.014791 0.246798
vt 0.015576 0.246777
vt 0.015576 0.249951
vt 0.000049 0.246801
vt 0.000834 0.246798
vt 0.000049 0.249951
vt 0.014789 0.246788
vt 0.015576 0.246801
vt 0.014789 0.246788
vt 0.015576 0.246781
vt 0.000049 0.246777
vt 0.000836 0.246788
vt 0.000049 0.246778
vt 0.000836 0.246788
vt 0.014788 0.246782
vt 0.015576 0.246778
vt 0.000049 0.246781
vt 0.000837 0.246782
vn 0.0000 0.0149 -0.9999
vn 0.0000 0.0141 -0.9999
vn 0.7070 0.0141 -0.7070
vn 0.7070 0.0149 -0.7070
vn 0.9999 0.0141 0.0000
vn 0.9999 0.0149 0.0000
vn 0.7070 0.0141 0.7070
vn 0.7070 0.0149 0.7070
vn 0.0000 0.0141 0.9999
vn 0.0000 0.0149 0.9999
vn -0.7070 0.0141 0.7070
vn -0.7070 0.0149 0.7070
vn -0.9999 0.0141 0.0000
vn -0.9999 0.0149 0.0000
vn 0.9986 0.0519 0.0000
vn 0.7061 0.0519 -0.7061
vn 0.7051 0.0761 -0.7050
vn 0.9971 0.0761 0.0000
vn -0.7070 0.0141 -0.7070
vn -0.7070 0.0149 -0.7070
vn 0.0000 -0.6247 -0.7809
vn 0.5522 -0.6247 -0.5522
vn 0.7809 -0.6247 0.0000
vn 0.5522 -0.6247 0.5522
vn 0.0000 -0.6247 0.7809
vn -0.5522 -0.6247 0.5522
vn -0.7809 -0.6247 0.0000
vn -0.5522 -0.6247 -0.5522
vn -0.7050 0.0761 -0.7050
vn -0.9971 0.0761 0.0000
vn -0.9881 0.1538 0.0011
vn -0.6977 0.1581 -0.6987
vn -0.7061 0.0519 0.7061
vn 0.0000 0.0519 0.9986
vn 0.0000 0.0761 0.9971
vn -0.7050 0.0761 0.7050
vn 0.0000 0.0519 -0.9986
vn -0.7061 0.0519 -0.7061
vn 0.0000 0.0761 -0.9971
vn 0.7061 0.0519 0.7061
vn 0.7051 0.0761 0.7050
vn -0.9986 0.0519 0.0000
vn -0.0009 0.1529 0.9882
vn -0.6981 0.1556 0.6988
vn 0.9706 -0.2404 -0.0084
vn 0.7138 0.0172 0.7001
vn 0.0142 0.0135 -0.9998
vn 0.7002 -0.2423 -0.6716
vn -0.7070 0.0133 -0.7070
vn -0.9999 0.0133 0.0000
vn 0.0000 0.0133 0.9999
vn 0.7070 0.0133 0.7070
vn -0.7070 0.0133 0.7070
vn 0.9999 0.0133 0.0000
vn 0.7070 0.0133 -0.7070
vn 0.0000 0.0133 -0.9999
vn -0.0013 1.0000 0.0005
usemtl Material.004
s 1
f 274/225/156 226/226/157 228/227/158 275/228/159
f 275/229/159 228/230/158 230/231/160 276/232/161
f 276/232/161 230/231/160 232/233/162 277/234/163
f 277/234/163 232/233/162 234/235/164 278/236/165
f 278/237/165 234/238/164 236/239/166 279/240/167
f 279/241/167 236/242/166 238/243/168 280/244/169
f 293/245/170 290/246/171 242/247/172 243/248/173
f 280/249/169 238/250/168 240/251/174 281/252/175
f 281/253/175 240/254/174 226/255/157 274/256/156
f 225/257/176 227/258/177 229/259/178 231/260/179 233/261/180 235/262/181 237/263/182 239/264/183
f 248/265/184 247/266/185 303/267/186 302/268/187
f 294/269/188 291/270/189 245/271/190 246/272/191
f 295/273/192 292/274/193 248/275/184 241/276/194
f 290/277/171 295/278/192 241/279/194 242/280/172
f 296/281/195 293/282/170 243/283/173 244/284/196
f 297/285/197 294/286/188 246/287/191 247/288/185
f 291/270/189 296/289/195 244/290/196 245/271/190
f 292/291/193 297/292/197 247/293/185 248/294/184
f 246/295/191 245/296/190 305/297/198 304/298/199
f 244/299/196 243/300/173 301/301/200 300/302/201
f 242/303/172 241/304/194 299/305/202 298/306/203
f 241/307/194 248/308/184 302/309/187 299/310/202
f 247/311/185 246/312/191 304/313/199 303/314/186
f 245/315/190 244/316/196 300/317/201 305/318/198
f 243/319/173 242/320/172 298/321/203 301/322/200
f 289/323/204 286/324/205 257/325/205 254/326/204
f 288/327/206 285/328/207 256/329/207 252/330/206
f 286/331/205 283/332/208 253/333/208 257/334/205
f 285/335/207 282/336/209 251/337/209 256/338/207
f 287/339/210 284/340/211 255/341/211 250/342/210
f 284/343/211 289/344/204 254/345/204 255/346/211
f 283/347/208 288/348/206 252/349/206 253/350/208
f 282/351/209 287/352/210 250/353/210 251/354/209
f 272/355/175 265/356/175 258/357/156 273/358/156
f 271/359/169 264/360/169 265/361/175 272/362/175
f 270/363/167 263/364/167 264/365/169 271/366/169
f 269/367/165 262/368/165 263/369/167 270/370/167
f 268/371/163 261/372/163 262/373/165 269/374/165
f 267/375/161 260/376/161 261/377/163 268/378/163
f 266/379/159 259/380/159 260/376/161 267/375/161
f 273/381/156 258/382/156 259/383/159 266/384/159
f 225/385/176 273/386/156 266/387/159 227/388/177
f 227/389/177 266/390/159 267/391/161 229/392/178
f 229/392/178 267/391/161 268/393/163 231/394/179
f 231/394/179 268/393/163 269/395/165 233/396/180
f 233/397/180 269/398/165 270/399/167 235/400/181
f 235/401/181 270/402/167 271/403/169 237/404/182
f 237/405/182 271/406/169 272/407/175 239/408/183
f 239/409/183 272/410/175 273/411/156 225/412/176
f 265/413/175 281/414/175 274/415/156 258/416/156
f 264/417/169 280/418/169 281/419/175 265/420/175
f 263/421/167 279/422/167 280/423/169 264/424/169
f 262/425/165 278/426/165 279/427/167 263/428/167
f 261/429/163 277/430/163 278/431/165 262/432/165
f 260/433/161 276/434/161 277/435/163 261/429/163
f 259/436/159 275/437/159 276/434/161 260/433/161
f 258/438/156 274/439/156 275/440/159 259/441/159
f 230/442/160 228/443/158 287/444/210 282/445/209
f 236/446/166 234/447/164 288/448/206 283/449/208
f 226/450/157 240/451/174 289/452/204 284/453/211
f 228/454/158 226/455/157 284/456/211 287/457/210
f 232/458/162 230/459/160 282/460/209 285/461/207
f 238/462/168 236/463/166 283/464/208 286/465/205
f 234/466/164 232/467/162 285/468/207 288/469/206
f 240/451/174 238/462/168 286/465/205 289/452/204
f 254/470/204 257/471/205 297/472/197 292/473/193
f 252/474/206 256/475/207 296/476/195 291/477/189
f 257/478/205 253/479/208 294/480/188 297/481/197
f 256/482/207 251/483/209 293/484/170 296/485/195
f 250/486/210 255/487/211 295/488/192 290/489/171
f 255/490/211 254/491/204 292/492/193 295/493/192
f 253/494/208 252/495/206 291/496/189 294/497/188
f 251/498/209 250/499/210 290/500/171 293/501/170
f 298/502/203 301/503/200 300/504/201 299/505/202
f 298/506/203 299/507/202 249/508/212
f 301/509/200 298/510/203 249/511/212
f 300/512/201 301/513/200 249/508/212
f 302/514/187 303/515/186 249/508/212
f 299/516/202 302/517/187 249/511/212
f 305/518/198 300/519/201 249/511/212
f 304/520/199 305/521/198 249/508/212
f 303/522/186 304/523/199 249/511/212
