# Blender v2.93.5 OBJ File: 'Frostlands.blend'
# www.blender.org
mtllib SM_Tree_04_var.mtl
o Cylinder.014_Cylinder.143
v -0.000593 0.000000 -0.158895
v -0.000593 1.847529 -0.131413
v 0.105061 0.000000 -0.115132
v 0.085628 1.847529 -0.095699
v 0.148824 0.000000 -0.009479
v 0.121342 1.847529 -0.009479
v 0.105061 0.000000 0.096175
v 0.085628 1.847529 0.076742
v -0.000593 0.000000 0.139938
v -0.000593 1.847529 0.112456
v -0.106246 0.000000 0.096175
v -0.086813 1.847529 0.076742
v -0.150009 0.000000 -0.009479
v -0.122527 1.847529 -0.009479
v -0.106246 0.000000 -0.115132
v -0.086813 1.847529 -0.095699
v -0.000593 3.662120 -0.071666
v 0.043380 3.662120 -0.053452
v 0.061594 3.662120 -0.009479
v 0.043380 3.662120 0.034494
v -0.000593 3.662120 0.052708
v -0.044566 3.662120 0.034494
v -0.062780 3.662120 -0.009479
v -0.044566 3.662120 -0.053452
v -0.000593 4.636467 -0.009479
v 0.077103 2.754825 -0.087174
v 0.109285 2.754825 -0.009479
v -0.000593 2.754825 0.100399
v -0.078288 2.754825 0.068217
v -0.078288 2.754825 -0.087174
v -0.000593 2.754825 -0.119357
v 0.077103 2.754825 0.068217
v -0.110471 2.754825 -0.009479
v -0.000593 0.923765 -0.145154
v 0.095344 0.923765 -0.105416
v 0.135083 0.923765 -0.009479
v 0.095344 0.923765 0.086458
v -0.000593 0.923765 0.126197
v -0.096530 0.923765 0.086458
v -0.136268 0.923765 -0.009479
v -0.096530 0.923765 -0.105416
v 0.100203 0.461882 -0.110274
v 0.141953 0.461882 -0.009479
v 0.100203 0.461882 0.091317
v -0.000593 0.461882 0.133067
v -0.101388 0.461882 0.091317
v -0.143139 0.461882 -0.009479
v -0.101388 0.461882 -0.110274
v -0.000593 0.461882 -0.152025
v -0.000593 1.385647 -0.138284
v 0.090486 1.385647 -0.100558
v 0.128212 1.385647 -0.009479
v 0.090486 1.385647 0.081600
v -0.000593 1.385647 0.119326
v -0.091672 1.385647 0.081600
v -0.129398 1.385647 -0.009479
v -0.091672 1.385647 -0.100558
v 0.115313 2.301177 -0.009479
v -0.082551 2.301177 0.072479
v -0.000593 2.301177 -0.125385
v 0.081365 2.301177 0.072479
v -0.116499 2.301177 -0.009479
v 0.081365 2.301177 -0.091437
v -0.000593 2.301177 0.106428
v -0.082551 2.301177 -0.091437
v 0.072840 3.208472 -0.082912
v -0.000593 3.208472 0.094371
v -0.074026 3.208472 -0.082912
v 0.103257 3.208472 -0.009479
v -0.074026 3.208472 0.063954
v -0.000593 3.208472 -0.113329
v 0.072840 3.208472 0.063954
v -0.104443 3.208472 -0.009479
v 0.002532 4.619929 -0.012603
v -0.000591 4.619602 -0.013925
v 0.002542 4.619768 -0.006346
v 0.003821 4.619988 -0.009479
v -0.003724 4.619777 -0.012612
v -0.005032 4.619661 -0.009479
v -0.003730 4.619673 -0.006340
v -0.000591 4.619616 -0.005035
vt 0.001953 0.197266
vt 0.001953 0.240234
vt 0.013672 0.240234
vt 0.013672 0.197266
vt 0.001953 0.197266
vt 0.001953 0.240234
vt 0.013672 0.240234
vt 0.013672 0.197266
vt 0.001953 0.240234
vt 0.001953 0.197266
vt 0.013672 0.240234
vt 0.013672 0.197266
vt 0.001953 0.197266
vt 0.001953 0.240234
vt 0.013672 0.240234
vt 0.013672 0.197266
vt 0.001953 0.197266
vt 0.001953 0.240234
vt 0.013672 0.240234
vt 0.013672 0.197266
vt 0.003906 0.197266
vt 0.011719 0.197266
vt 0.011719 0.240234
vt 0.003906 0.240234
vt 0.001953 0.197266
vt 0.001953 0.240234
vt 0.013672 0.240234
vt 0.013672 0.197266
vt 0.001953 0.144531
vt 0.001953 0.187500
vt 0.013672 0.187500
vt 0.013672 0.144531
vt 0.750000 0.490000
vt 0.919706 0.419706
vt 0.990000 0.250000
vt 0.919706 0.080294
vt 0.750000 0.010000
vt 0.580294 0.080294
vt 0.510000 0.250000
vt 0.580294 0.419706
vt 0.003906 0.187500
vt 0.011719 0.187500
vt 0.011719 0.250000
vt 0.003906 0.250000
vt 0.003906 0.197266
vt 0.011719 0.197266
vt 0.011719 0.240234
vt 0.003906 0.240234
vt 0.003906 0.197266
vt 0.011719 0.197266
vt 0.011719 0.240234
vt 0.003906 0.240234
vt 0.009766 0.134766
vt 0.001953 0.134766
vt 0.001953 0.177734
vt 0.009766 0.177734
vt 0.003906 0.134766
vt 0.011719 0.134766
vt 0.011719 0.177734
vt 0.003906 0.177734
vt 0.009766 0.134766
vt 0.001953 0.134766
vt 0.001953 0.177734
vt 0.009766 0.177734
vt 0.003906 0.197266
vt 0.003906 0.240234
vt 0.003906 0.197266
vt 0.011719 0.197266
vt 0.011719 0.240234
vt 0.003906 0.240234
vt 0.003906 0.187500
vt 0.011719 0.187500
vt 0.011719 0.250000
vt 0.003906 0.250000
vt 0.000049 0.187549
vt 0.007812 0.187500
vt 0.007812 0.250000
vt 0.000000 0.250000
vt 0.000049 0.187549
vt 0.007812 0.187500
vt 0.007812 0.250000
vt -0.000000 0.250000
vt 0.000049 0.187549
vt 0.007812 0.187500
vt 0.007812 0.250000
vt 0.000000 0.250000
vt 0.000049 0.187549
vt 0.007812 0.187500
vt 0.007812 0.250000
vt -0.000000 0.250000
vt 0.001953 0.187500
vt 0.009766 0.187500
vt 0.009766 0.250000
vt 0.001953 0.250000
vt 0.003906 0.187500
vt 0.011719 0.187500
vt 0.011719 0.250000
vt 0.003906 0.250000
vt 0.011719 0.134766
vt -0.000000 0.134766
vt 0.001953 0.177734
vt 0.009766 0.177734
vt 0.013672 0.197266
vt 0.001953 0.197266
vt 0.003906 0.240234
vt 0.011719 0.240234
vt 0.013672 0.197266
vt 0.001953 0.197266
vt 0.003906 0.240234
vt 0.011719 0.240234
vt 0.013672 0.197266
vt 0.001953 0.197266
vt 0.003906 0.240234
vt 0.011719 0.240234
vt 0.011719 0.134766
vt -0.000000 0.134766
vt 0.001953 0.177734
vt 0.009766 0.177734
vt 0.013672 0.197266
vt 0.001953 0.197266
vt 0.003906 0.240234
vt 0.011719 0.240234
vt 0.013672 0.197266
vt 0.001953 0.197266
vt 0.003906 0.240234
vt 0.011719 0.240234
vt 0.013672 0.197266
vt 0.001953 0.197266
vt 0.003906 0.240234
vt 0.011719 0.240234
vt 0.001953 0.197266
vt 0.001953 0.240234
vt 0.013672 0.240234
vt 0.013672 0.197266
vt 0.001953 0.197266
vt 0.001953 0.240234
vt 0.013672 0.240234
vt 0.013672 0.197266
vt -0.000000 0.134766
vt -0.000000 0.177734
vt 0.011719 0.177734
vt 0.011719 0.134766
vt 0.001953 0.197266
vt 0.001953 0.240234
vt 0.013672 0.240234
vt 0.013672 0.197266
vt 0.001953 0.142578
vt 0.001953 0.185547
vt 0.013672 0.185547
vt 0.013672 0.142578
vt 0.013672 0.197266
vt 0.013672 0.240234
vt 0.001953 0.240234
vt 0.001953 0.197266
vt 0.001953 0.197266
vt 0.001953 0.240234
vt -0.000000 0.134766
vt -0.000000 0.177734
vt 0.011719 0.177734
vt 0.011719 0.134766
vt 0.001953 0.197266
vt 0.001953 0.240234
vt 0.013672 0.240234
vt 0.013672 0.197266
vt 0.000000 0.126953
vt 0.000000 0.169922
vt 0.011719 0.169922
vt 0.011719 0.126953
vt 0.013672 0.197266
vt 0.013672 0.240234
vt 0.001953 0.240234
vt 0.001953 0.197266
vt 0.013672 0.240234
vt 0.013672 0.197266
vt 0.001953 0.197266
vt 0.001953 0.240234
vt 0.013672 0.240234
vt 0.013672 0.197266
vt 0.001953 0.197266
vt 0.001953 0.240234
vt 0.013672 0.240234
vt 0.013672 0.197266
vt 0.001953 0.197266
vt 0.001953 0.240234
vt 0.013672 0.240234
vt 0.013672 0.197266
vt -0.000000 0.134766
vt -0.000000 0.177734
vt 0.011719 0.177734
vt 0.011719 0.134766
vt 0.001953 0.197266
vt 0.001953 0.240234
vt 0.013672 0.240234
vt 0.013672 0.197266
vt 0.001953 0.197266
vt 0.001953 0.240234
vt 0.013672 0.240234
vt 0.013672 0.197266
vt 0.001953 0.197266
vt 0.001953 0.240234
vt 0.013672 0.240234
vt 0.013672 0.197266
vt 0.000000 0.140625
vt 0.000000 0.183594
vt 0.011719 0.183594
vt 0.011719 0.140625
vt 0.001953 0.197266
vt 0.001953 0.240234
vt 0.013672 0.240234
vt 0.013672 0.197266
vt 0.013672 0.197266
vt 0.013672 0.240234
vt 0.003906 0.240234
vt 0.001953 0.197266
vt 0.001953 0.240234
vt 0.001953 0.197266
vt 0.001953 0.240234
vt 0.013672 0.240234
vt 0.013672 0.197266
vt 0.001953 0.197266
vt 0.013672 0.197266
vt 0.013672 0.240234
vt 0.001953 0.240234
vt 0.013672 0.138672
vt 0.001953 0.138672
vt 0.001953 0.181641
vt 0.013672 0.181641
vt 0.013672 0.197266
vt 0.001953 0.197266
vt 0.001953 0.240234
vt 0.013672 0.240234
vt 0.001953 0.136719
vt 0.013672 0.136719
vt 0.013672 0.179688
vt 0.001953 0.179688
vt 0.003906 0.125000
vt 0.015625 0.125000
vt 0.015625 0.167969
vt 0.003906 0.167969
vt 0.013672 0.197266
vt 0.001953 0.197266
vt 0.001953 0.240234
vt 0.013672 0.240234
vt 0.013672 0.197266
vt 0.001953 0.197266
vt 0.001953 0.240234
vt 0.013672 0.240234
vt 0.011719 0.197266
vt 0.003906 0.197266
vt 0.003906 0.240234
vt 0.011719 0.240234
vt 0.011719 0.197266
vt 0.003906 0.197266
vt 0.003906 0.240234
vt 0.011719 0.240234
vt 0.011719 0.197266
vt 0.003906 0.197266
vt 0.003906 0.240234
vt 0.011719 0.240234
vt 0.009766 0.134766
vt 0.001953 0.134766
vt 0.001953 0.177734
vt 0.009766 0.177734
vt 0.011719 0.197266
vt 0.003906 0.197266
vt 0.003906 0.240234
vt 0.011719 0.240234
vt 0.009766 0.134766
vt 0.001953 0.134766
vt 0.001953 0.177734
vt 0.009766 0.177734
vt 0.011719 0.197266
vt 0.003906 0.197266
vt 0.003906 0.240234
vt 0.011719 0.240234
vt 0.011719 0.197266
vt 0.003906 0.197266
vt 0.003906 0.240234
vt 0.011719 0.240234
vt 0.000000 0.000000
vt 0.000000 0.000000
vt 0.000000 0.000000
vt 0.000000 0.000000
vt 0.014791 0.246798
vt 0.015576 0.246777
vt 0.015576 0.249951
vt 0.000049 0.246801
vt 0.000834 0.246798
vt 0.000049 0.249951
vt 0.014789 0.246788
vt 0.015576 0.246801
vt 0.014789 0.246788
vt 0.015576 0.246781
vt 0.000049 0.246777
vt 0.000836 0.246788
vt 0.000049 0.246778
vt 0.000836 0.246788
vt 0.014788 0.246782
vt 0.015576 0.246778
vt 0.000049 0.246781
vt 0.000837 0.246782
vn 0.0000 0.0149 -0.9999
vn 0.0000 0.0141 -0.9999
vn 0.7070 0.0141 -0.7070
vn 0.7070 0.0149 -0.7070
vn 0.9999 0.0141 0.0000
vn 0.9999 0.0149 0.0000
vn 0.7070 0.0141 0.7070
vn 0.7070 0.0149 0.7070
vn 0.0000 0.0141 0.9999
vn 0.0000 0.0149 0.9999
vn -0.7070 0.0141 0.7070
vn -0.7070 0.0149 0.7070
vn -0.9999 0.0141 0.0000
vn -0.9999 0.0149 0.0000
vn 0.9986 0.0519 0.0000
vn 0.7061 0.0519 -0.7061
vn 0.7051 0.0761 -0.7050
vn 0.9971 0.0761 0.0000
vn -0.7070 0.0141 -0.7070
vn -0.7070 0.0149 -0.7070
vn 0.0000 -0.6247 -0.7809
vn 0.5522 -0.6247 -0.5522
vn 0.7809 -0.6247 0.0000
vn 0.5522 -0.6247 0.5522
vn 0.0000 -0.6247 0.7809
vn -0.5522 -0.6247 0.5522
vn -0.7809 -0.6247 0.0000
vn -0.5522 -0.6247 -0.5522
vn -0.7050 0.0761 -0.7050
vn -0.9971 0.0761 0.0000
vn -0.9881 0.1538 0.0011
vn -0.6977 0.1581 -0.6987
vn -0.7061 0.0519 0.7061
vn 0.0000 0.0519 0.9986
vn 0.0000 0.0761 0.9971
vn -0.7050 0.0761 0.7050
vn 0.0000 0.0519 -0.9986
vn -0.7061 0.0519 -0.7061
vn 0.0000 0.0761 -0.9971
vn 0.7061 0.0519 0.7061
vn 0.7051 0.0761 0.7050
vn -0.9986 0.0519 0.0000
vn -0.0009 0.1529 0.9882
vn -0.6981 0.1556 0.6988
vn 0.9706 -0.2404 -0.0084
vn 0.7138 0.0172 0.7001
vn 0.0142 0.0135 -0.9998
vn 0.7002 -0.2423 -0.6716
vn -0.7070 0.0133 -0.7070
vn -0.9999 0.0133 0.0000
vn 0.0000 0.0133 0.9999
vn 0.7070 0.0133 0.7070
vn -0.7070 0.0133 0.7070
vn 0.9999 0.0133 0.0000
vn 0.7070 0.0133 -0.7070
vn 0.0000 0.0133 -0.9999
vn -0.0012 1.0000 0.0005
usemtl Material
s 1
f 50/1/1 2/2/2 4/3/3 51/4/4
f 51/5/4 4/6/3 6/7/5 52/8/6
f 52/8/6 6/7/5 8/9/7 53/10/8
f 53/10/8 8/9/7 10/11/9 54/12/10
f 54/13/10 10/14/9 12/15/11 55/16/12
f 55/17/12 12/18/11 14/19/13 56/20/14
f 69/21/15 66/22/16 18/23/17 19/24/18
f 56/25/14 14/26/13 16/27/19 57/28/20
f 57/29/20 16/30/19 2/31/2 50/32/1
f 1/33/21 3/34/22 5/35/23 7/36/24 9/37/25 11/38/26 13/39/27 15/40/28
f 24/41/29 23/42/30 79/43/31 78/44/32
f 70/45/33 67/46/34 21/47/35 22/48/36
f 71/49/37 68/50/38 24/51/29 17/52/39
f 66/53/16 71/54/37 17/55/39 18/56/17
f 72/57/40 69/58/15 19/59/18 20/60/41
f 73/61/42 70/62/33 22/63/36 23/64/30
f 67/46/34 72/65/40 20/66/41 21/47/35
f 68/67/38 73/68/42 23/69/30 24/70/29
f 22/71/36 21/72/35 81/73/43 80/74/44
f 20/75/41 19/76/18 77/77/45 76/78/46
f 18/79/17 17/80/39 75/81/47 74/82/48
f 17/83/39 24/84/29 78/85/32 75/86/47
f 23/87/30 22/88/36 80/89/44 79/90/31
f 21/91/35 20/92/41 76/93/46 81/94/43
f 19/95/18 18/96/17 74/97/48 77/98/45
f 65/99/49 62/100/50 33/101/50 30/102/49
f 64/103/51 61/104/52 32/105/52 28/106/51
f 62/107/50 59/108/53 29/109/53 33/110/50
f 61/111/52 58/112/54 27/113/54 32/114/52
f 63/115/55 60/116/56 31/117/56 26/118/55
f 60/119/56 65/120/49 30/121/49 31/122/56
f 59/123/53 64/124/51 28/125/51 29/126/53
f 58/127/54 63/128/55 26/129/55 27/130/54
f 48/131/20 41/132/20 34/133/1 49/134/1
f 47/135/14 40/136/14 41/137/20 48/138/20
f 46/139/12 39/140/12 40/141/14 47/142/14
f 45/143/10 38/144/10 39/145/12 46/146/12
f 44/147/8 37/148/8 38/149/10 45/150/10
f 43/151/6 36/152/6 37/153/8 44/154/8
f 42/155/4 35/156/4 36/152/6 43/151/6
f 49/157/1 34/158/1 35/159/4 42/160/4
f 1/161/21 49/162/1 42/163/4 3/164/22
f 3/165/22 42/166/4 43/167/6 5/168/23
f 5/169/23 43/170/6 44/171/8 7/172/24
f 7/172/24 44/171/8 45/173/10 9/174/25
f 9/175/25 45/176/10 46/177/12 11/178/26
f 11/179/26 46/180/12 47/181/14 13/182/27
f 13/183/27 47/184/14 48/185/20 15/186/28
f 15/187/28 48/188/20 49/189/1 1/190/21
f 41/191/20 57/192/20 50/193/1 34/194/1
f 40/195/14 56/196/14 57/197/20 41/198/20
f 39/199/12 55/200/12 56/201/14 40/202/14
f 38/203/10 54/204/10 55/205/12 39/206/12
f 37/207/8 53/208/8 54/209/10 38/210/10
f 36/211/6 52/212/6 53/213/8 37/207/8
f 35/214/4 51/215/4 52/212/6 36/211/6
f 34/216/1 50/217/1 51/218/4 35/219/4
f 6/220/5 4/221/3 63/222/55 58/223/54
f 12/224/11 10/225/9 64/226/51 59/227/53
f 2/228/2 16/229/19 65/230/49 60/231/56
f 4/232/3 2/233/2 60/234/56 63/235/55
f 8/236/7 6/237/5 58/238/54 61/239/52
f 14/240/13 12/241/11 59/242/53 62/243/50
f 10/244/9 8/245/7 61/246/52 64/247/51
f 16/229/19 14/240/13 62/243/50 65/230/49
f 30/248/49 33/249/50 73/250/42 68/251/38
f 28/252/51 32/253/52 72/254/40 67/255/34
f 33/256/50 29/257/53 70/258/33 73/259/42
f 32/260/52 27/261/54 69/262/15 72/263/40
f 26/264/55 31/265/56 71/266/37 66/267/16
f 31/268/56 30/269/49 68/270/38 71/271/37
f 29/272/53 28/273/51 67/274/34 70/275/33
f 27/276/54 26/277/55 66/278/16 69/279/15
f 74/280/48 77/281/45 76/282/46 75/283/47
f 74/284/48 75/285/47 25/286/57
f 77/287/45 74/288/48 25/289/57
f 76/290/46 77/291/45 25/286/57
f 78/292/32 79/293/31 25/286/57
f 75/294/47 78/295/32 25/289/57
f 81/296/43 76/297/46 25/289/57
f 80/298/44 81/299/43 25/286/57
f 79/300/31 80/301/44 25/289/57
o Cylinder.020_Cylinder.151
v -0.072948 3.623862 -0.008732
v 0.063033 3.608725 -0.073009
v -0.086737 3.432792 -0.308834
v -0.009672 3.688778 -0.041047
v -0.110335 3.354407 -0.390831
v -0.150466 3.366371 -0.278092
v -0.013579 3.354243 -0.339222
v -0.037065 3.853211 -0.081961
v 0.069673 3.865747 0.018818
v 0.172130 3.583882 -0.245080
v 0.026789 3.924904 -0.040553
v 0.216634 3.479459 -0.307708
v 0.109129 3.510185 -0.287690
v 0.214159 3.526731 -0.184507
v 0.074295 4.097552 -0.070135
v -0.017545 4.098751 0.062644
v 0.261641 3.925843 0.107706
v 0.022825 4.168634 0.014688
v 0.334768 3.851498 0.136188
v 0.314515 3.853334 0.023429
v 0.219868 3.857387 0.155115
v 0.057859 3.444327 0.076977
v -0.080429 3.418711 0.048851
v -0.071059 3.431756 0.354967
v -0.018459 3.501940 0.032742
v -0.087166 3.410265 0.453635
v 0.004949 3.373730 0.401096
v -0.132721 3.348939 0.369182
v -0.016714 4.021695 0.066865
v -0.024288 3.990537 -0.093547
v -0.282306 3.848389 -0.015025
v -0.022993 4.078732 -0.006406
v -0.361709 3.777857 -0.017664
v -0.277551 3.789999 0.058195
v -0.282077 3.761548 -0.102115
v 0.048450 3.799790 0.049798
v -0.058820 3.788298 -0.044710
v -0.150785 3.613002 0.189339
v -0.023960 3.867700 0.014508
v -0.189619 3.535012 0.242874
v -0.079120 3.543595 0.225657
v -0.184899 3.535096 0.129093
v -0.161913 1.160787 -0.094962
v 0.186641 1.160787 -0.081283
v 0.035918 0.938812 -0.688319
v 0.013101 1.270754 -0.106914
v 0.042904 0.837169 -0.866349
v -0.138963 0.826894 -0.679784
v 0.209324 0.830796 -0.659271
v 0.003834 1.155181 -0.211726
v 0.151862 1.157351 0.104123
v 0.558127 0.795935 -0.276415
v 0.118128 1.258446 -0.073381
v 0.692857 0.654311 -0.338585
v 0.446419 0.689952 -0.415953
v 0.589275 0.697559 -0.097717
v 0.172043 1.155181 -0.042645
v -0.129911 1.157352 0.131986
v 0.284142 0.795935 0.504035
v 0.044036 1.258446 0.083118
v 0.357664 0.654311 0.632922
v 0.413560 0.689952 0.380746
v 0.108783 0.697560 0.550429
v 0.099860 1.140538 0.145937
v -0.168400 1.142709 -0.077018
v -0.374348 0.781292 0.440133
v -0.062404 1.243803 0.069306
v -0.469868 0.639669 0.553682
v -0.213917 0.675309 0.518944
v -0.478510 0.682917 0.291629
v -0.147156 1.182817 0.099308
v -0.015959 1.171116 -0.223690
v -0.591427 0.842180 -0.257165
v -0.117222 1.281087 -0.080450
v -0.736631 0.707784 -0.311277
v -0.624148 0.741330 -0.078447
v -0.487377 0.734789 -0.399367
v -0.183349 1.906552 -0.064528
v 0.208461 1.913496 -0.116832
v -0.093606 1.698710 -0.753662
v 0.011093 2.023158 -0.114857
v -0.125665 1.599361 -0.949268
v -0.288664 1.580197 -0.707087
v 0.104377 1.590955 -0.751882
v -0.059893 1.907305 -0.191628
v 0.173128 1.904448 0.129569
v 0.538903 1.552637 -0.360057
v 0.098978 2.011882 -0.063506
v 0.673612 1.412014 -0.450863
v 0.382619 1.445362 -0.489922
v 0.610468 1.447903 -0.165240
v 0.174039 1.670493 -0.089034
v -0.125303 1.661870 0.162803
v 0.410798 1.290732 0.505412
v 0.059879 1.770322 0.072043
v 0.518252 1.143878 0.638112
v 0.527020 1.188084 0.346882
v 0.223554 1.185099 0.593625
v 0.133975 1.885055 0.125092
v -0.213166 1.887435 -0.070052
v -0.337619 1.499555 0.553298
v -0.061874 1.989408 0.068579
v -0.422054 1.349559 0.701721
v -0.143391 1.392322 0.612659
v -0.487290 1.400461 0.411817
v -0.125306 2.152204 0.142625
v 0.008146 2.151333 -0.224371
v -0.651492 1.803244 -0.239711
v -0.097698 2.258138 -0.063375
v -0.821067 1.663952 -0.293707
v -0.682355 1.694636 -0.034748
v -0.542393 1.699113 -0.399671
v -0.011675 1.449019 0.190438
v -0.161368 1.455964 -0.175407
v -0.701103 1.241177 0.277895
v -0.109543 1.565625 0.015045
v -0.882242 1.141829 0.358382
v -0.606712 1.122664 0.454833
v -0.749451 1.133422 0.085898
v -0.165865 1.613113 0.103139
v 0.085958 1.610255 -0.203538
v -0.480256 1.258445 -0.433595
v -0.082087 1.717690 -0.082969
v -0.602178 1.117822 -0.540960
v -0.566374 1.151169 -0.249548
v -0.309871 1.153711 -0.552103
v -0.125768 1.451796 -0.149134
v 0.193586 1.443173 0.076786
v 0.389476 1.072035 -0.528533
v 0.058943 1.551625 -0.079422
v 0.490687 0.925181 -0.666054
v 0.206707 0.969387 -0.600884
v 0.522176 0.966402 -0.369685
v 0.091529 1.427522 -0.164525
v -0.009479 1.429903 0.220682
v 0.625081 1.042022 0.183444
v 0.086384 1.531876 0.039249
v 0.790034 0.892027 0.227598
v 0.633392 0.934790 -0.019482
v 0.526052 0.942928 0.364031
v 0.174065 1.694672 0.081893
v -0.214751 1.693800 0.045593
v -0.062770 1.345711 0.687667
v -0.032221 1.800605 0.107280
v -0.072124 1.206420 0.865385
v 0.143336 1.237104 0.665691
v -0.245121 1.241580 0.622568
v -0.141765 2.436238 0.025641
v 0.080513 2.426249 -0.148481
v -0.316976 2.193265 -0.471532
v -0.039574 2.536971 -0.068654
v -0.401919 2.088020 -0.594896
v -0.420798 2.090512 -0.379605
v -0.195258 2.084562 -0.548991
v -0.097860 2.330068 -0.136931
v 0.151961 2.339494 -0.010810
v 0.212236 1.963197 -0.486809
v 0.042144 2.431750 -0.102741
v 0.264319 1.819724 -0.604412
v 0.073231 1.858762 -0.523256
v 0.321053 1.873696 -0.392620
v 0.090860 2.574315 -0.116167
v -0.008219 2.592027 0.155053
v 0.434137 2.243573 0.160360
v 0.074805 2.682826 0.037083
v 0.544167 2.109071 0.198108
v 0.452304 2.132481 0.007833
v 0.349001 2.155357 0.277605
v 0.140780 2.340726 0.042646
v -0.136782 2.342591 0.039752
v -0.004874 2.018228 0.464061
v 0.002094 2.442719 0.083340
v -0.007007 1.888246 0.580641
v 0.133772 1.913740 0.425605
v -0.143709 1.920595 0.418235
v -0.035255 2.464367 0.144249
v -0.116089 2.437037 -0.133495
v -0.488581 2.134706 0.131185
v -0.106852 2.551887 0.017313
v -0.605469 2.006962 0.166053
v -0.419228 2.044734 0.258790
v -0.495574 2.022309 -0.020293
v 0.087231 2.736369 0.084601
v -0.119172 2.730680 -0.002154
v -0.150245 2.499402 0.375428
v -0.028769 2.817389 0.065873
v -0.187441 2.402033 0.470216
v -0.034958 2.416513 0.395976
v -0.239933 2.414562 0.305582
v -0.061328 3.167720 0.083637
v -0.032149 3.146694 -0.123228
v -0.420131 2.902327 -0.129386
v -0.050541 3.257887 -0.014459
v -0.533301 2.793452 -0.164577
v -0.433090 2.810070 -0.031965
v -0.399566 2.793223 -0.237480
v -0.125779 3.055394 -0.035838
v 0.072637 3.072807 -0.082801
v -0.155437 2.681302 -0.403103
v -0.028992 3.154974 -0.078342
v -0.194155 2.536260 -0.502546
v -0.252967 2.578938 -0.362507
v -0.053064 2.601919 -0.405652
v -0.003531 3.290503 -0.102384
v 0.083138 3.325365 0.101484
v 0.306731 2.992411 -0.124619
v 0.071130 3.404457 -0.001488
v 0.378873 2.866240 -0.162322
v 0.233455 2.876035 -0.226239
v 0.317354 2.915741 -0.020923
v 0.094079 3.077519 -0.046731
v -0.055589 3.079052 0.084737
v 0.217680 2.796791 0.248860
v 0.045336 3.177766 0.048086
v 0.270453 2.680134 0.310338
v 0.267436 2.694304 0.155223
v 0.115742 2.700316 0.284331
v 0.057517 3.202499 0.101974
v -0.129023 3.157966 -0.019874
v -0.205919 2.886119 0.295565
v -0.041822 3.277829 0.067810
v -0.256166 2.766175 0.365305
v -0.107545 2.808488 0.331068
v -0.292156 2.768559 0.206542
vt 0.035156 0.250000
vt 0.048828 0.250000
vt 0.048828 0.287109
vt 0.035156 0.287109
vt 0.048828 0.298828
vt 0.060547 0.287109
vt 0.060547 0.250000
vt 0.035156 0.250000
vt 0.048828 0.250000
vt 0.048828 0.287109
vt 0.035156 0.287109
vt 0.048828 0.298828
vt 0.060547 0.287109
vt 0.060547 0.250000
vt 0.035156 0.250000
vt 0.048828 0.250000
vt 0.048828 0.287109
vt 0.035156 0.287109
vt 0.048828 0.298828
vt 0.060547 0.287109
vt 0.060547 0.250000
vt 0.035156 0.250000
vt 0.048828 0.250000
vt 0.048828 0.287109
vt 0.035156 0.287109
vt 0.048828 0.298828
vt 0.060547 0.287109
vt 0.060547 0.250000
vt 0.035156 0.250000
vt 0.048828 0.250000
vt 0.048828 0.287109
vt 0.035156 0.287109
vt 0.048828 0.298828
vt 0.060547 0.287109
vt 0.060547 0.250000
vt 0.035156 0.250000
vt 0.048828 0.250000
vt 0.048828 0.287109
vt 0.035156 0.287109
vt 0.048828 0.298828
vt 0.060547 0.287109
vt 0.060547 0.250000
vt 0.035156 0.250000
vt 0.048828 0.250000
vt 0.048828 0.287109
vt 0.035156 0.287109
vt 0.048828 0.298828
vt 0.060547 0.287109
vt 0.060547 0.250000
vt 0.035156 0.250000
vt 0.048828 0.250000
vt 0.048828 0.287109
vt 0.035156 0.287109
vt 0.048828 0.298828
vt 0.060547 0.287109
vt 0.060547 0.250000
vt 0.035156 0.250000
vt 0.048828 0.250000
vt 0.048828 0.287109
vt 0.035156 0.287109
vt 0.048828 0.298828
vt 0.060547 0.287109
vt 0.060547 0.250000
vt 0.035156 0.250000
vt 0.048828 0.250000
vt 0.048828 0.287109
vt 0.035156 0.287109
vt 0.048828 0.298828
vt 0.060547 0.287109
vt 0.060547 0.250000
vt 0.035156 0.250000
vt 0.048828 0.250000
vt 0.048828 0.287109
vt 0.035156 0.287109
vt 0.048828 0.298828
vt 0.060547 0.287109
vt 0.060547 0.250000
vt 0.035156 0.250000
vt 0.048828 0.250000
vt 0.048828 0.287109
vt 0.035156 0.287109
vt 0.048828 0.298828
vt 0.060547 0.287109
vt 0.060547 0.250000
vt 0.035156 0.250000
vt 0.048828 0.250000
vt 0.048828 0.287109
vt 0.035156 0.287109
vt 0.048828 0.298828
vt 0.060547 0.287109
vt 0.060547 0.250000
vt 0.035156 0.250000
vt 0.048828 0.250000
vt 0.048828 0.287109
vt 0.035156 0.287109
vt 0.048828 0.298828
vt 0.060547 0.287109
vt 0.060547 0.250000
vt 0.035156 0.250000
vt 0.048828 0.250000
vt 0.048828 0.287109
vt 0.035156 0.287109
vt 0.048828 0.298828
vt 0.060547 0.287109
vt 0.060547 0.250000
vt 0.035156 0.250000
vt 0.048828 0.250000
vt 0.048828 0.287109
vt 0.035156 0.287109
vt 0.048828 0.298828
vt 0.060547 0.287109
vt 0.060547 0.250000
vt 0.035156 0.250000
vt 0.048828 0.250000
vt 0.048828 0.287109
vt 0.035156 0.287109
vt 0.048828 0.298828
vt 0.060547 0.287109
vt 0.060547 0.250000
vt 0.035156 0.250000
vt 0.048828 0.250000
vt 0.048828 0.287109
vt 0.035156 0.287109
vt 0.048828 0.298828
vt 0.060547 0.287109
vt 0.060547 0.250000
vt 0.035156 0.250000
vt 0.048828 0.250000
vt 0.048828 0.287109
vt 0.035156 0.287109
vt 0.048828 0.298828
vt 0.060547 0.287109
vt 0.060547 0.250000
vt 0.035156 0.250000
vt 0.048828 0.250000
vt 0.048828 0.287109
vt 0.035156 0.287109
vt 0.048828 0.298828
vt 0.060547 0.287109
vt 0.060547 0.250000
vt 0.035156 0.250000
vt 0.048828 0.250000
vt 0.048828 0.287109
vt 0.035156 0.287109
vt 0.048828 0.298828
vt 0.060547 0.287109
vt 0.060547 0.250000
vt 0.035156 0.250000
vt 0.048828 0.250000
vt 0.048828 0.287109
vt 0.035156 0.287109
vt 0.048828 0.298828
vt 0.060547 0.287109
vt 0.060547 0.250000
vt 0.035156 0.250000
vt 0.048828 0.250000
vt 0.048828 0.287109
vt 0.035156 0.287109
vt 0.048828 0.298828
vt 0.060547 0.287109
vt 0.060547 0.250000
vt 0.035156 0.250000
vt 0.048828 0.250000
vt 0.048828 0.287109
vt 0.035156 0.287109
vt 0.048828 0.298828
vt 0.060547 0.287109
vt 0.060547 0.250000
vt 0.035156 0.250000
vt 0.048828 0.250000
vt 0.048828 0.287109
vt 0.035156 0.287109
vt 0.048828 0.298828
vt 0.060547 0.287109
vt 0.060547 0.250000
vt 0.035156 0.250000
vt 0.048828 0.250000
vt 0.048828 0.287109
vt 0.035156 0.287109
vt 0.048828 0.298828
vt 0.060547 0.287109
vt 0.060547 0.250000
vt 0.035156 0.250000
vt 0.048828 0.250000
vt 0.048828 0.287109
vt 0.035156 0.287109
vt 0.048828 0.298828
vt 0.060547 0.287109
vt 0.060547 0.250000
vt 0.035156 0.250000
vt 0.048828 0.250000
vt 0.048828 0.287109
vt 0.035156 0.287109
vt 0.048828 0.298828
vt 0.060547 0.287109
vt 0.060547 0.250000
vt 0.035156 0.250000
vt 0.048828 0.250000
vt 0.048828 0.287109
vt 0.035156 0.287109
vt 0.048828 0.298828
vt 0.060547 0.287109
vt 0.060547 0.250000
vt 0.035156 0.250000
vt 0.048828 0.250000
vt 0.048828 0.287109
vt 0.035156 0.287109
vt 0.048828 0.298828
vt 0.060547 0.287109
vt 0.060547 0.250000
vt 0.035156 0.250000
vt 0.048828 0.250000
vt 0.048828 0.287109
vt 0.035156 0.287109
vt 0.048828 0.298828
vt 0.060547 0.287109
vt 0.060547 0.250000
vt 0.035156 0.250000
vt 0.048828 0.250000
vt 0.048828 0.287109
vt 0.035156 0.287109
vt 0.048828 0.298828
vt 0.060547 0.287109
vt 0.060547 0.250000
vn -0.7529 0.5703 -0.3285
vn -0.3058 0.7306 -0.6104
vn -0.2364 0.7354 -0.6350
vn -0.1664 0.7362 -0.6559
vn 0.3718 0.6152 -0.6951
vn -0.0145 0.5097 -0.8602
vn 0.5639 0.5881 -0.5798
vn 0.5172 0.5914 -0.6186
vn 0.4624 0.5926 -0.6595
vn 0.8690 0.4675 -0.1619
vn 0.7304 0.6724 -0.1202
vn 0.5203 0.6995 0.4899
vn 0.5458 0.7083 0.4475
vn 0.5964 0.7214 0.3519
vn 0.1660 0.4910 0.8552
vn 0.4808 0.8371 0.2608
vn -0.2146 0.9610 0.1743
vn -0.2153 0.9609 0.1741
vn -0.2021 0.9633 0.1768
vn -0.8021 0.5971 -0.0009
vn -0.5713 0.6232 0.5340
vn -0.6643 0.7474 0.0108
vn -0.6627 0.7476 -0.0431
vn -0.6550 0.7426 -0.1392
vn -0.5175 0.6052 -0.6048
vn 0.0897 0.5329 0.8414
vn -0.5454 0.6417 0.5392
vn -0.5459 0.6417 0.5388
vn -0.5356 0.6427 0.5477
vn -0.9045 0.4248 -0.0372
vn -0.4981 0.7444 -0.4446
vn 0.0194 0.8686 -0.4951
vn 0.0116 0.8686 -0.4954
vn 0.5314 0.7444 -0.4042
vn 0.3156 0.6167 -0.7211
vn 0.6233 0.7233 -0.2971
vn 0.6199 0.7233 -0.3042
vn 0.7528 0.6232 0.2118
vn 0.7455 0.6167 0.2524
vn 0.3496 0.7233 0.5954
vn 0.3563 0.7233 0.5915
vn -0.1463 0.6232 0.7682
vn 0.0209 0.6167 0.7869
vn -0.4378 0.7233 0.5339
vn -0.4318 0.7233 0.5389
vn -0.7714 0.6232 0.1283
vn -0.7062 0.6641 0.2455
vn -0.5978 0.7547 -0.2701
vn -0.6008 0.7549 -0.2629
vn -0.3186 0.6296 -0.7086
vn -0.5466 0.7794 -0.3062
vn -0.0580 0.8939 -0.4445
vn -0.0689 0.8940 -0.4427
vn -0.0905 0.8938 -0.4391
vn 0.4266 0.7762 -0.4642
vn 0.1738 0.6463 -0.7430
vn 0.5255 0.7557 -0.3907
vn 0.5314 0.7559 -0.3823
vn 0.5342 0.7560 -0.3782
vn 0.7455 0.6614 0.0817
vn 0.7453 0.6555 0.1219
vn 0.4236 0.7580 0.4959
vn 0.4170 0.7581 0.5013
vn 0.4095 0.7581 0.5074
vn -0.0205 0.6620 0.7492
vn 0.1361 0.6570 0.7414
vn -0.3193 0.7513 0.5775
vn -0.3193 0.7513 0.5776
vn -0.3133 0.7512 0.5810
vn -0.6971 0.6628 0.2732
vn -0.6610 0.6996 0.2712
vn -0.5713 0.7865 -0.2346
vn -0.5743 0.7868 -0.2262
vn -0.5825 0.7874 -0.2017
vn -0.3367 0.6674 -0.6641
vn -0.1580 0.7794 0.6063
vn -0.4154 0.8939 0.1686
vn -0.4109 0.8940 0.1787
vn -0.4020 0.8938 0.1986
vn -0.5570 0.7762 -0.2954
vn -0.7628 0.6463 0.0197
vn -0.5109 0.7557 -0.4096
vn -0.5042 0.7559 -0.4175
vn -0.5010 0.7560 -0.4212
vn -0.1095 0.6614 -0.7420
vn -0.0705 0.6555 -0.7519
vn 0.3726 0.7580 -0.5352
vn 0.3795 0.7581 -0.5303
vn 0.3873 0.7581 -0.5245
vn 0.7300 0.6620 -0.1696
vn 0.6829 0.6570 -0.3192
vn 0.6395 0.7513 0.1629
vn 0.6395 0.7513 0.1628
vn 0.6413 0.7512 0.1561
vn 0.4407 0.6628 0.6054
vn 0.4295 0.6996 0.5709
vn -0.0825 0.7865 0.6120
vn -0.0736 0.7868 0.6128
vn -0.0479 0.7874 0.6146
vn -0.5574 0.6674 0.4938
vn -0.7331 0.6762 -0.0721
vn -0.3596 0.8175 -0.4498
vn -0.3385 0.8181 -0.4649
vn -0.3204 0.8182 -0.4773
vn 0.1679 0.6898 -0.7042
vn -0.2201 0.5694 -0.7921
vn 0.3377 0.6670 -0.6641
vn 0.3176 0.6674 -0.6735
vn 0.2883 0.6674 -0.6865
vn 0.7559 0.5567 -0.3444
vn 0.7770 0.5493 -0.3075
vn 0.7094 0.6540 0.2627
vn 0.7152 0.6541 0.2460
vn 0.7289 0.6535 0.2039
vn 0.4237 0.5488 0.7206
vn 0.5770 0.5401 0.6127
vn -0.0036 0.6677 0.7444
vn -0.0038 0.6677 0.7444
vn 0.0060 0.6676 0.7445
vn -0.5831 0.5477 0.6000
vn -0.4517 0.5948 0.6649
vn -0.6993 0.6904 0.1850
vn -0.7043 0.6900 0.1669
vn -0.7116 0.6888 0.1382
vn -0.7309 0.5638 -0.3846
vn 0.3021 0.6032 0.7382
vn -0.2851 0.7223 0.6301
vn -0.2853 0.7223 0.6300
vn -0.2762 0.7225 0.6338
vn -0.7669 0.5734 0.2881
vn -0.6881 0.5703 0.4485
vn -0.6781 0.7306 -0.0799
vn -0.6604 0.7354 -0.1514
vn -0.6395 0.7362 -0.2213
vn -0.3765 0.6152 -0.6926
vn -0.7267 0.5097 -0.4605
vn -0.1747 0.5881 -0.7897
vn -0.2327 0.5914 -0.7720
vn -0.2970 0.5926 -0.7487
vn 0.3422 0.4675 -0.8151
vn 0.3833 0.4587 -0.8017
vn 0.7855 0.5396 -0.3028
vn 0.7649 0.5416 -0.3487
vn 0.7137 0.5410 -0.4449
vn 0.8730 0.4307 0.2290
vn 0.9067 0.4212 0.0208
vn 0.5445 0.5704 0.6149
vn 0.5440 0.5704 0.6154
vn 0.5542 0.5702 0.6063
vn -0.0948 0.4302 0.8977
vn 0.0643 0.4813 0.8742
vn -0.4378 0.5819 0.6854
vn -0.4820 0.5825 0.6545
vn -0.5576 0.5793 0.5945
vn -0.8563 0.4757 0.2012
usemtl frostland_tilesheet
s 1
f 82/302/58 85/303/59 84/304/60 87/305/58
f 87/305/58 84/304/60 86/306/61
f 86/306/61 84/304/60 88/307/62
f 88/307/62 84/304/60 85/303/59 83/308/62
f 89/309/63 92/310/64 91/311/65 94/312/63
f 94/312/63 91/311/65 93/313/66
f 93/313/66 91/311/65 95/314/67
f 95/314/67 91/311/65 92/310/64 90/315/67
f 96/316/68 99/317/69 98/318/70 101/319/68
f 101/319/68 98/318/70 100/320/71
f 100/320/71 98/318/70 102/321/72
f 102/321/72 98/318/70 99/317/69 97/322/72
f 103/323/73 106/324/74 105/325/75 108/326/73
f 108/326/73 105/325/75 107/327/76
f 107/327/76 105/325/75 109/328/77
f 109/328/77 105/325/75 106/324/74 104/329/77
f 110/330/78 113/331/79 112/332/80 115/333/78
f 115/333/78 112/332/80 114/334/81
f 114/334/81 112/332/80 116/335/82
f 116/335/82 112/332/80 113/331/79 111/336/82
f 117/337/83 120/338/84 119/339/85 122/340/83
f 122/340/83 119/339/85 121/341/86
f 121/341/86 119/339/85 123/342/87
f 123/342/87 119/339/85 120/338/84 118/343/87
f 124/344/88 127/345/89 126/346/89 129/347/88
f 129/347/88 126/346/89 128/348/90
f 128/348/90 126/346/89 130/349/91
f 130/349/91 126/346/89 127/345/89 125/350/91
f 131/351/92 134/352/93 133/353/93 136/354/92
f 136/354/92 133/353/93 135/355/94
f 135/355/94 133/353/93 137/356/95
f 137/356/95 133/353/93 134/352/93 132/357/95
f 138/358/96 141/359/97 140/360/97 143/361/96
f 143/361/96 140/360/97 142/362/98
f 142/362/98 140/360/97 144/363/99
f 144/363/99 140/360/97 141/359/97 139/364/99
f 145/365/100 148/366/101 147/367/101 150/368/100
f 150/368/100 147/367/101 149/369/102
f 149/369/102 147/367/101 151/370/103
f 151/370/103 147/367/101 148/366/101 146/371/103
f 152/372/104 155/373/105 154/374/105 157/375/104
f 157/375/104 154/374/105 156/376/106
f 156/376/106 154/374/105 158/377/107
f 158/377/107 154/374/105 155/373/105 153/378/107
f 159/379/108 162/380/109 161/381/110 164/382/108
f 164/382/108 161/381/110 163/383/111
f 163/383/111 161/381/110 165/384/112
f 165/384/112 161/381/110 162/380/109 160/385/112
f 166/386/113 169/387/114 168/388/115 171/389/113
f 171/389/113 168/388/115 170/390/116
f 170/390/116 168/388/115 172/391/117
f 172/391/117 168/388/115 169/387/114 167/392/117
f 173/393/118 176/394/119 175/395/120 178/396/118
f 178/396/118 175/395/120 177/397/121
f 177/397/121 175/395/120 179/398/122
f 179/398/122 175/395/120 176/394/119 174/399/122
f 180/400/123 183/401/124 182/402/125 185/403/123
f 185/403/123 182/402/125 184/404/126
f 184/404/126 182/402/125 186/405/127
f 186/405/127 182/402/125 183/401/124 181/406/127
f 187/407/128 190/408/129 189/409/130 192/410/128
f 192/410/128 189/409/130 191/411/131
f 191/411/131 189/409/130 193/412/132
f 193/412/132 189/409/130 190/408/129 188/413/132
f 194/414/133 197/415/134 196/416/135 199/417/133
f 199/417/133 196/416/135 198/418/136
f 198/418/136 196/416/135 200/419/137
f 200/419/137 196/416/135 197/415/134 195/420/137
f 201/421/138 204/422/139 203/423/140 206/424/138
f 206/424/138 203/423/140 205/425/141
f 205/425/141 203/423/140 207/426/142
f 207/426/142 203/423/140 204/422/139 202/427/142
f 208/428/143 211/429/144 210/430/145 213/431/143
f 213/431/143 210/430/145 212/432/146
f 212/432/146 210/430/145 214/433/147
f 214/433/147 210/430/145 211/429/144 209/434/147
f 215/435/148 218/436/149 217/437/150 220/438/148
f 220/438/148 217/437/150 219/439/151
f 219/439/151 217/437/150 221/440/152
f 221/440/152 217/437/150 218/436/149 216/441/152
f 222/442/153 225/443/154 224/444/155 227/445/153
f 227/445/153 224/444/155 226/446/156
f 226/446/156 224/444/155 228/447/157
f 228/447/157 224/444/155 225/443/154 223/448/157
f 229/449/158 232/450/159 231/451/160 234/452/158
f 234/452/158 231/451/160 233/453/161
f 233/453/161 231/451/160 235/454/162
f 235/454/162 231/451/160 232/450/159 230/455/162
f 236/456/163 239/457/164 238/458/165 241/459/163
f 241/459/163 238/458/165 240/460/166
f 240/460/166 238/458/165 242/461/167
f 242/461/167 238/458/165 239/457/164 237/462/167
f 243/463/168 246/464/169 245/465/170 248/466/168
f 248/466/168 245/465/170 247/467/171
f 247/467/171 245/465/170 249/468/172
f 249/468/172 245/465/170 246/464/169 244/469/172
f 250/470/173 253/471/174 252/472/175 255/473/173
f 255/473/173 252/472/175 254/474/176
f 254/474/176 252/472/175 256/475/177
f 256/475/177 252/472/175 253/471/174 251/476/177
f 257/477/178 260/478/179 259/479/180 262/480/178
f 262/480/178 259/479/180 261/481/181
f 261/481/181 259/479/180 263/482/182
f 263/482/182 259/479/180 260/478/179 258/483/182
f 264/484/183 267/485/184 266/486/185 269/487/183
f 269/487/183 266/486/185 268/488/186
f 268/488/186 266/486/185 270/489/187
f 270/489/187 266/486/185 267/485/184 265/490/187
f 271/491/188 274/492/189 273/493/190 276/494/188
f 276/494/188 273/493/190 275/495/191
f 275/495/191 273/493/190 277/496/192
f 277/496/192 273/493/190 274/492/189 272/497/192
f 278/498/193 281/499/194 280/500/195 283/501/193
f 283/501/193 280/500/195 282/502/196
f 282/502/196 280/500/195 284/503/197
f 284/503/197 280/500/195 281/499/194 279/504/197
f 285/505/198 288/506/199 287/507/200 290/508/198
f 290/508/198 287/507/200 289/509/201
f 289/509/201 287/507/200 291/510/202
f 291/510/202 287/507/200 288/506/199 286/511/202
f 292/512/203 295/513/204 294/514/205 297/515/203
f 297/515/203 294/514/205 296/516/206
f 296/516/206 294/514/205 298/517/207
f 298/517/207 294/514/205 295/513/204 293/518/207
f 299/519/208 302/520/209 301/521/210 304/522/208
f 304/522/208 301/521/210 303/523/211
f 303/523/211 301/521/210 305/524/212
f 305/524/212 301/521/210 302/520/209 300/525/212
