# Blender v2.93.5 OBJ File: 'Frostlands.blend'
# www.blender.org
mtllib SM_Tree_01.mtl
o Cylinder.001_Cylinder.114
v 0.001863 -0.004011 -0.149417
v 0.001863 1.843518 -0.121934
v 0.107517 -0.004011 -0.105654
v 0.088084 1.843518 -0.086221
v 0.151280 -0.004011 0.000000
v 0.123798 1.843518 0.000000
v 0.107517 -0.004011 0.105654
v 0.088084 1.843518 0.086221
v 0.001863 -0.004011 0.149417
v 0.001863 1.843518 0.121934
v -0.103790 -0.004011 0.105654
v -0.084357 1.843518 0.086221
v -0.147553 -0.004011 0.000000
v -0.120071 1.843518 0.000000
v -0.103790 -0.004011 -0.105654
v -0.084357 1.843518 -0.086221
v 0.001863 3.658109 -0.062187
v 0.045836 3.658109 -0.043973
v 0.064050 3.658109 0.000000
v 0.045836 3.658109 0.043973
v 0.001863 3.658109 0.062187
v -0.042110 3.658109 0.043973
v -0.060324 3.658109 0.000000
v -0.042110 3.658109 -0.043973
v 0.001863 4.632456 0.000000
v 0.079559 2.750813 -0.077696
v 0.111741 2.750813 0.000000
v 0.001863 2.750813 0.109878
v -0.075832 2.750813 0.077696
v -0.075832 2.750813 -0.077696
v 0.001863 2.750813 -0.109878
v 0.079559 2.750813 0.077696
v -0.108015 2.750813 0.000000
v 0.001863 0.919754 -0.135675
v 0.097800 0.919754 -0.095937
v 0.137539 0.919754 0.000000
v 0.097800 0.919754 0.095937
v 0.001863 0.919754 0.135676
v -0.094074 0.919754 0.095937
v -0.133812 0.919754 0.000000
v -0.094074 0.919754 -0.095937
v 0.102659 0.457871 -0.100795
v 0.144410 0.457871 0.000000
v 0.102659 0.457871 0.100795
v 0.001863 0.457871 0.142546
v -0.098932 0.457871 0.100795
v -0.140683 0.457871 0.000000
v -0.098932 0.457871 -0.100795
v 0.001863 0.457871 -0.142546
v 0.001863 1.381636 -0.128805
v 0.092942 1.381636 -0.091079
v 0.130668 1.381636 0.000000
v 0.092942 1.381636 0.091079
v 0.001863 1.381636 0.128805
v -0.089215 1.381636 0.091079
v -0.126942 1.381636 0.000000
v -0.089215 1.381636 -0.091079
v 0.117770 2.297166 0.000000
v -0.080095 2.297166 0.081958
v 0.001863 2.297166 -0.115906
v 0.083821 2.297166 0.081958
v -0.114043 2.297166 0.000000
v 0.083821 2.297166 -0.081958
v 0.001863 2.297166 0.115906
v -0.080095 2.297166 -0.081958
v 0.075296 3.204461 -0.073433
v 0.001863 3.204461 0.103850
v -0.071570 3.204461 -0.073433
v 0.105713 3.204461 0.000000
v -0.071570 3.204461 0.073433
v 0.001863 3.204461 -0.103850
v 0.075296 3.204461 0.073433
v -0.101987 3.204461 0.000000
v 0.004989 4.615918 -0.003124
v 0.001865 4.615591 -0.004446
v 0.004998 4.615757 0.003133
v 0.006277 4.615977 -0.000001
v -0.001268 4.615766 -0.003133
v -0.002576 4.615651 -0.000001
v -0.001274 4.615662 0.003139
v 0.001865 4.615604 0.004444
vt 0.001953 0.197266
vt 0.001953 0.240234
vt 0.013672 0.240234
vt 0.013672 0.197266
vt 0.001953 0.197266
vt 0.001953 0.240234
vt 0.013672 0.240234
vt 0.013672 0.197266
vt 0.001953 0.240234
vt 0.001953 0.197266
vt 0.013672 0.240234
vt 0.013672 0.197266
vt 0.001953 0.197266
vt 0.001953 0.240234
vt 0.013672 0.240234
vt 0.013672 0.197266
vt 0.001953 0.197266
vt 0.001953 0.240234
vt 0.013672 0.240234
vt 0.013672 0.197266
vt 0.003906 0.197266
vt 0.011719 0.197266
vt 0.011719 0.240234
vt 0.003906 0.240234
vt 0.001953 0.197266
vt 0.001953 0.240234
vt 0.013672 0.240234
vt 0.013672 0.197266
vt 0.001953 0.197266
vt 0.001953 0.240234
vt 0.013672 0.240234
vt 0.013672 0.197266
vt 0.750000 0.490000
vt 0.919706 0.419706
vt 0.990000 0.250000
vt 0.919706 0.080294
vt 0.750000 0.010000
vt 0.580294 0.080294
vt 0.510000 0.250000
vt 0.580294 0.419706
vt 0.000049 0.187549
vt 0.015576 0.187549
vt 0.015576 0.246781
vt 0.014789 0.246788
vt 0.003906 0.197266
vt 0.011719 0.197266
vt 0.011719 0.240234
vt 0.003906 0.240234
vt 0.003906 0.197266
vt 0.011719 0.197266
vt 0.011719 0.240234
vt 0.003906 0.240234
vt 0.003906 0.197266
vt 0.011719 0.197266
vt 0.011719 0.240234
vt 0.003906 0.240234
vt 0.011719 0.197266
vt 0.011719 0.240234
vt 0.003906 0.197266
vt 0.003906 0.240234
vt 0.000049 0.187549
vt 0.015576 0.187549
vt 0.015576 0.246778
vt 0.014788 0.246782
vt 0.000049 0.187549
vt 0.015576 0.187549
vt 0.015576 0.246801
vt 0.014789 0.246788
vt 0.000049 0.187549
vt 0.015576 0.187549
vt 0.015576 0.246777
vt 0.014791 0.246798
vt 0.000049 0.187549
vt 0.015576 0.187549
vt 0.000836 0.246788
vt 0.000049 0.246777
vt 0.000049 0.187549
vt 0.015576 0.187549
vt 0.000837 0.246782
vt 0.000049 0.246781
vt 0.000049 0.187549
vt 0.015576 0.187549
vt 0.000836 0.246788
vt 0.000049 0.246778
vt 0.000049 0.187549
vt 0.015576 0.187549
vt 0.000834 0.246798
vt 0.000049 0.246801
vt 0.013672 0.197266
vt 0.001953 0.197266
vt 0.003906 0.240234
vt 0.011719 0.240234
vt 0.013672 0.197266
vt 0.001953 0.197266
vt 0.003906 0.240234
vt 0.011719 0.240234
vt 0.013672 0.197266
vt 0.001953 0.197266
vt 0.003906 0.240234
vt 0.011719 0.240234
vt 0.013672 0.197266
vt 0.001953 0.197266
vt 0.003906 0.240234
vt 0.011719 0.240234
vt 0.013672 0.197266
vt 0.001953 0.197266
vt 0.003906 0.240234
vt 0.011719 0.240234
vt 0.013672 0.197266
vt 0.001953 0.197266
vt 0.003906 0.240234
vt 0.011719 0.240234
vt 0.013672 0.197266
vt 0.001953 0.197266
vt 0.003906 0.240234
vt 0.011719 0.240234
vt 0.013672 0.197266
vt 0.001953 0.197266
vt 0.003906 0.240234
vt 0.011719 0.240234
vt 0.001953 0.197266
vt 0.001953 0.240234
vt 0.013672 0.240234
vt 0.013672 0.197266
vt 0.001953 0.197266
vt 0.001953 0.240234
vt 0.013672 0.240234
vt 0.013672 0.197266
vt 0.001953 0.197266
vt 0.001953 0.240234
vt 0.013672 0.240234
vt 0.013672 0.197266
vt 0.001953 0.197266
vt 0.001953 0.240234
vt 0.013672 0.240234
vt 0.013672 0.197266
vt 0.001953 0.197266
vt 0.001953 0.240234
vt 0.013672 0.240234
vt 0.013672 0.197266
vt 0.013672 0.197266
vt 0.013672 0.240234
vt 0.001953 0.197266
vt 0.001953 0.240234
vt 0.001953 0.197266
vt 0.001953 0.240234
vt 0.013672 0.240234
vt 0.013672 0.197266
vt 0.015625 0.187500
vt 0.015625 0.230469
vt 0.031250 0.230469
vt 0.031250 0.187500
vt 0.015625 0.187500
vt 0.015625 0.230469
vt 0.031250 0.230469
vt 0.031250 0.187500
vt 0.015625 0.230469
vt 0.015625 0.187500
vt 0.031250 0.230469
vt 0.031250 0.187500
vt 0.015625 0.187500
vt 0.015625 0.230469
vt 0.031250 0.230469
vt 0.031250 0.187500
vt 0.015625 0.187500
vt 0.015625 0.230469
vt 0.031250 0.230469
vt 0.031250 0.187500
vt 0.015625 0.187500
vt 0.015625 0.230469
vt 0.031250 0.230469
vt 0.031250 0.187500
vt 0.015625 0.187500
vt 0.015625 0.230469
vt 0.031250 0.230469
vt 0.031250 0.187500
vt 0.001953 0.197266
vt 0.001953 0.240234
vt 0.013672 0.240234
vt 0.013672 0.197266
vt 0.001953 0.197266
vt 0.001953 0.240234
vt 0.013672 0.240234
vt 0.013672 0.197266
vt 0.001953 0.197266
vt 0.001953 0.240234
vt 0.013672 0.240234
vt 0.013672 0.197266
vt 0.001953 0.197266
vt 0.001953 0.240234
vt 0.013672 0.240234
vt 0.013672 0.197266
vt 0.001953 0.197266
vt 0.001953 0.240234
vt 0.013672 0.240234
vt 0.013672 0.197266
vt 0.013672 0.197266
vt 0.013672 0.240234
vt 0.003906 0.240234
vt 0.001953 0.197266
vt 0.001953 0.240234
vt 0.001953 0.197266
vt 0.001953 0.240234
vt 0.013672 0.240234
vt 0.013672 0.197266
vt 0.001953 0.197266
vt 0.013672 0.197266
vt 0.013672 0.240234
vt 0.001953 0.240234
vt 0.013672 0.197266
vt 0.001953 0.197266
vt 0.001953 0.240234
vt 0.013672 0.240234
vt 0.013672 0.197266
vt 0.001953 0.197266
vt 0.001953 0.240234
vt 0.013672 0.240234
vt 0.001953 0.197266
vt 0.001953 0.240234
vt 0.001953 0.197266
vt 0.013672 0.197266
vt 0.013672 0.240234
vt 0.001953 0.240234
vt 0.013672 0.197266
vt 0.001953 0.197266
vt 0.001953 0.240234
vt 0.013672 0.240234
vt 0.013672 0.197266
vt 0.013672 0.240234
vt 0.011719 0.197266
vt 0.003906 0.197266
vt 0.003906 0.240234
vt 0.011719 0.240234
vt 0.011719 0.197266
vt 0.003906 0.197266
vt 0.003906 0.240234
vt 0.011719 0.240234
vt 0.011719 0.197266
vt 0.003906 0.197266
vt 0.003906 0.240234
vt 0.011719 0.240234
vt 0.011719 0.197266
vt 0.003906 0.197266
vt 0.003906 0.240234
vt 0.011719 0.240234
vt 0.011719 0.197266
vt 0.003906 0.197266
vt 0.003906 0.240234
vt 0.011719 0.240234
vt 0.011719 0.197266
vt 0.003906 0.197266
vt 0.003906 0.240234
vt 0.011719 0.240234
vt 0.011719 0.197266
vt 0.003906 0.197266
vt 0.003906 0.240234
vt 0.011719 0.240234
vt 0.011719 0.197266
vt 0.003906 0.197266
vt 0.003906 0.240234
vt 0.011719 0.240234
vt 0.000000 0.000000
vt 0.000000 0.000000
vt 0.000000 0.000000
vt 0.000000 0.000000
vt 0.015576 0.249951
vt 0.000049 0.249951
vn 0.0000 0.0149 -0.9999
vn 0.0000 0.0141 -0.9999
vn 0.7070 0.0141 -0.7070
vn 0.7070 0.0149 -0.7070
vn 0.9999 0.0141 0.0000
vn 0.9999 0.0149 0.0000
vn 0.7070 0.0141 0.7070
vn 0.7070 0.0149 0.7070
vn 0.0000 0.0141 0.9999
vn 0.0000 0.0149 0.9999
vn -0.7070 0.0141 0.7070
vn -0.7070 0.0149 0.7070
vn -0.9999 0.0141 0.0000
vn -0.9999 0.0149 0.0000
vn 0.9986 0.0519 0.0000
vn 0.7061 0.0519 -0.7061
vn 0.7051 0.0761 -0.7050
vn 0.9971 0.0761 0.0000
vn -0.7070 0.0141 -0.7070
vn -0.7070 0.0149 -0.7070
vn 0.0000 -0.6247 -0.7809
vn 0.5522 -0.6247 -0.5522
vn 0.7809 -0.6247 0.0000
vn 0.5522 -0.6247 0.5522
vn 0.0000 -0.6247 0.7809
vn -0.5522 -0.6247 0.5522
vn -0.7809 -0.6247 0.0000
vn -0.5522 -0.6247 -0.5522
vn -0.7050 0.0761 -0.7050
vn -0.9971 0.0761 0.0000
vn -0.9881 0.1538 0.0010
vn -0.6977 0.1581 -0.6987
vn -0.7061 0.0519 0.7061
vn 0.0000 0.0519 0.9986
vn 0.0000 0.0761 0.9971
vn -0.7050 0.0761 0.7050
vn 0.0000 0.0519 -0.9986
vn -0.7061 0.0519 -0.7061
vn 0.0000 0.0761 -0.9971
vn 0.7061 0.0519 0.7061
vn 0.7051 0.0761 0.7050
vn -0.9986 0.0519 0.0000
vn -0.0009 0.1528 0.9882
vn -0.6981 0.1556 0.6988
vn 0.9706 -0.2404 -0.0084
vn 0.7138 0.0172 0.7001
vn 0.0142 0.0135 -0.9998
vn 0.7002 -0.2423 -0.6716
vn -0.7070 0.0133 -0.7070
vn -0.9999 0.0133 0.0000
vn 0.0000 0.0133 0.9999
vn 0.7070 0.0133 0.7070
vn -0.7070 0.0133 0.7070
vn 0.9999 0.0133 0.0000
vn 0.7070 0.0133 -0.7070
vn 0.0000 0.0133 -0.9999
vn -0.0013 1.0000 0.0004
usemtl Material.001
s 1
f 50/1/1 2/2/2 4/3/3 51/4/4
f 51/5/4 4/6/3 6/7/5 52/8/6
f 52/8/6 6/7/5 8/9/7 53/10/8
f 53/10/8 8/9/7 10/11/9 54/12/10
f 54/13/10 10/14/9 12/15/11 55/16/12
f 55/17/12 12/18/11 14/19/13 56/20/14
f 69/21/15 66/22/16 18/23/17 19/24/18
f 56/25/14 14/26/13 16/27/19 57/28/20
f 57/29/20 16/30/19 2/31/2 50/32/1
f 1/33/21 3/34/22 5/35/23 7/36/24 9/37/25 11/38/26 13/39/27 15/40/28
f 24/41/29 23/42/30 79/43/31 78/44/32
f 70/45/33 67/46/34 21/47/35 22/48/36
f 71/49/37 68/50/38 24/51/29 17/52/39
f 66/22/16 71/49/37 17/52/39 18/23/17
f 72/53/40 69/54/15 19/55/18 20/56/41
f 73/57/42 70/45/33 22/48/36 23/58/30
f 67/46/34 72/53/40 20/56/41 21/47/35
f 68/59/38 73/57/42 23/58/30 24/60/29
f 22/61/36 21/62/35 81/63/43 80/64/44
f 20/65/41 19/66/18 77/67/45 76/68/46
f 18/69/17 17/70/39 75/71/47 74/72/48
f 17/73/39 24/74/29 78/75/32 75/76/47
f 23/77/30 22/78/36 80/79/44 79/80/31
f 21/81/35 20/82/41 76/83/46 81/84/43
f 19/85/18 18/86/17 74/87/48 77/88/45
f 65/89/49 62/90/50 33/91/50 30/92/49
f 64/93/51 61/94/52 32/95/52 28/96/51
f 62/97/50 59/98/53 29/99/53 33/100/50
f 61/101/52 58/102/54 27/103/54 32/104/52
f 63/105/55 60/106/56 31/107/56 26/108/55
f 60/109/56 65/110/49 30/111/49 31/112/56
f 59/113/53 64/114/51 28/115/51 29/116/53
f 58/117/54 63/118/55 26/119/55 27/120/54
f 48/121/20 41/122/20 34/123/1 49/124/1
f 47/125/14 40/126/14 41/127/20 48/128/20
f 46/129/12 39/130/12 40/131/14 47/132/14
f 45/133/10 38/134/10 39/135/12 46/136/12
f 44/137/8 37/138/8 38/139/10 45/140/10
f 43/141/6 36/142/6 37/138/8 44/137/8
f 42/143/4 35/144/4 36/142/6 43/141/6
f 49/145/1 34/146/1 35/147/4 42/148/4
f 1/149/21 49/150/1 42/151/4 3/152/22
f 3/153/22 42/154/4 43/155/6 5/156/23
f 5/156/23 43/155/6 44/157/8 7/158/24
f 7/158/24 44/157/8 45/159/10 9/160/25
f 9/161/25 45/162/10 46/163/12 11/164/26
f 11/165/26 46/166/12 47/167/14 13/168/27
f 13/169/27 47/170/14 48/171/20 15/172/28
f 15/173/28 48/174/20 49/175/1 1/176/21
f 41/177/20 57/178/20 50/179/1 34/180/1
f 40/181/14 56/182/14 57/183/20 41/184/20
f 39/185/12 55/186/12 56/187/14 40/188/14
f 38/189/10 54/190/10 55/191/12 39/192/12
f 37/193/8 53/194/8 54/195/10 38/196/10
f 36/197/6 52/198/6 53/199/8 37/193/8
f 35/200/4 51/201/4 52/198/6 36/197/6
f 34/202/1 50/203/1 51/204/4 35/205/4
f 6/206/5 4/207/3 63/208/55 58/209/54
f 12/210/11 10/211/9 64/212/51 59/213/53
f 2/214/2 16/215/19 65/216/49 60/217/56
f 4/218/3 2/214/2 60/217/56 63/219/55
f 8/220/7 6/221/5 58/222/54 61/223/52
f 14/224/13 12/225/11 59/226/53 62/227/50
f 10/228/9 8/220/7 61/223/52 64/229/51
f 16/215/19 14/224/13 62/227/50 65/216/49
f 30/230/49 33/231/50 73/232/42 68/233/38
f 28/234/51 32/235/52 72/236/40 67/237/34
f 33/238/50 29/239/53 70/240/33 73/241/42
f 32/242/52 27/243/54 69/244/15 72/245/40
f 26/246/55 31/247/56 71/248/37 66/249/16
f 31/250/56 30/251/49 68/252/38 71/253/37
f 29/254/53 28/255/51 67/256/34 70/257/33
f 27/258/54 26/259/55 66/260/16 69/261/15
f 74/262/48 77/263/45 76/264/46 75/265/47
f 74/72/48 75/71/47 25/266/57
f 77/88/45 74/87/48 25/267/57
f 76/68/46 77/67/45 25/266/57
f 78/44/32 79/43/31 25/266/57
f 75/76/47 78/75/32 25/267/57
f 81/84/43 76/83/46 25/267/57
f 80/64/44 81/63/43 25/266/57
f 79/80/31 80/79/44 25/267/57
o Cylinder.002_Cylinder.115
v 0.079745 2.219960 0.218404
v -0.230092 2.223852 -0.049756
v -0.513737 1.887401 0.586193
v -0.096515 2.328797 0.110534
v -0.641492 1.752243 0.731843
v -0.339929 1.775970 0.696859
v -0.644862 1.785051 0.423108
v -0.135020 1.157519 -0.130042
v 0.192230 1.157519 -0.009274
v 0.236563 0.935544 -0.633169
v 0.035116 1.267486 -0.087301
v 0.298247 0.833901 -0.800317
v 0.067611 0.823626 -0.679118
v 0.392493 0.827528 -0.551933
v 0.006408 1.151170 -0.194840
v 0.154435 1.153340 0.121008
v 0.560700 0.791924 -0.259530
v 0.120701 1.254434 -0.056496
v 0.695431 0.650300 -0.321700
v 0.448993 0.685940 -0.399067
v 0.591848 0.693548 -0.080832
v 0.179827 1.178805 -0.136481
v 0.048629 1.167105 0.186517
v 0.624097 0.838169 0.219992
v 0.149892 1.277076 0.043276
v 0.769302 0.703773 0.274103
v 0.656819 0.737319 0.041273
v 0.520047 0.730777 0.362194
v 0.174617 1.151170 -0.025759
v -0.127338 1.153340 0.148872
v 0.286715 0.791924 0.520920
v 0.046610 1.254434 0.100003
v 0.360237 0.650300 0.649808
v 0.416134 0.685941 0.397631
v 0.111357 0.693548 0.567314
v 0.140372 1.157519 0.131246
v -0.186878 1.157519 0.010478
v -0.231211 0.935544 0.634373
v -0.029764 1.267486 0.088505
v -0.292895 0.833901 0.801521
v -0.062259 0.823626 0.680323
v -0.387141 0.827528 0.553138
v 0.028836 1.151170 0.174552
v -0.119191 1.153340 -0.141296
v -0.525456 0.791924 0.239242
v -0.085457 1.254434 0.036208
v -0.660187 0.650300 0.301412
v -0.413749 0.685940 0.378779
v -0.556604 0.693548 0.060544
v -0.144583 1.178805 0.116193
v -0.013386 1.167105 -0.206805
v -0.588853 0.838169 -0.240280
v -0.114649 1.277076 -0.063564
v -0.734058 0.703773 -0.294391
v -0.621575 0.737319 -0.061561
v -0.484803 0.730777 -0.382482
v -0.139373 1.151170 0.005471
v 0.162582 1.153340 -0.169160
v -0.251472 0.791924 -0.541208
v -0.011366 1.254434 -0.120291
v -0.324994 0.650300 -0.670096
v -0.380890 0.685940 -0.417919
v -0.076113 0.693548 -0.587602
v -0.116070 1.435537 -0.171650
v 0.203397 1.435537 0.032185
v 0.394765 1.204350 -0.620007
v 0.053805 1.545785 -0.085626
v 0.499169 1.099800 -0.783638
v 0.226894 1.092095 -0.709171
v 0.542353 1.096108 -0.499054
v 0.051297 1.435941 -0.208507
v 0.135427 1.438300 0.160984
v 0.650373 1.056807 -0.148162
v 0.137513 1.540773 -0.034476
v 0.807414 0.908614 -0.182973
v 0.567171 0.949131 -0.322861
v 0.645273 0.957178 0.047966
v 0.221121 1.463098 -0.105503
v 0.007216 1.450388 0.207014
v 0.607563 1.103644 0.374102
v 0.145490 1.562067 0.076477
v 0.749053 0.963272 0.465237
v 0.685910 1.001981 0.193872
v 0.466574 0.994659 0.502890
v 0.189319 1.435941 0.012261
v -0.171571 1.438300 0.127843
v 0.180696 1.056807 0.614307
v 0.023344 1.540773 0.113118
v 0.228878 0.908614 0.767775
v 0.347596 0.949131 0.516396
v -0.015144 0.957179 0.626086
v 0.125800 1.387928 0.156047
v -0.193555 1.391209 -0.047937
v -0.398187 1.233536 0.621905
v -0.036449 1.501236 0.059876
v -0.508954 1.151565 0.794002
v -0.238065 1.118655 0.721379
v -0.553168 1.125082 0.510788
v -0.014351 1.435941 0.189615
v -0.098482 1.438299 -0.179875
v -0.613428 1.056807 0.129270
v -0.100567 1.540773 0.015585
v -0.770469 0.908614 0.164081
v -0.530226 0.949131 0.303969
v -0.608328 0.957178 -0.066858
v -0.184175 1.463098 0.086611
v 0.029729 1.450388 -0.225905
v -0.570618 1.103644 -0.392993
v -0.108545 1.562067 -0.095369
v -0.712108 0.963272 -0.484128
v -0.648965 1.001981 -0.212763
v -0.429629 0.994660 -0.521781
v -0.152374 1.435941 -0.031152
v 0.208517 1.438300 -0.146734
v -0.143751 1.056807 -0.633198
v 0.013601 1.540773 -0.132009
v -0.191933 0.908614 -0.786666
v -0.310651 0.949131 -0.535287
v 0.052090 0.957179 -0.644977
v -0.077381 1.826192 -0.217759
v 0.219088 1.830181 0.038781
v 0.488116 1.496948 -0.566548
v 0.092794 1.934602 -0.116500
v 0.609166 1.362935 -0.704355
v 0.320264 1.385966 -0.670452
v 0.612086 1.395099 -0.408622
v 0.083462 1.773062 -0.207668
v 0.113910 1.775502 0.183213
v 0.685567 1.385457 -0.055515
v 0.144182 1.878521 -0.016422
v 0.851342 1.234478 -0.067486
v 0.628029 1.277100 -0.246991
v 0.652112 1.285336 0.144349
v 0.241352 1.800039 -0.076206
v -0.024672 1.786889 0.211445
v 0.563473 1.432537 0.472033
v 0.135705 1.899265 0.097764
v 0.694458 1.289621 0.586637
v 0.671633 1.330567 0.300263
v 0.400581 1.322904 0.583514
v 0.190628 1.773062 0.040142
v -0.196189 1.775502 0.104078
v 0.090797 1.385457 0.653097
v 0.005309 1.878521 0.117077
v 0.116974 1.234478 0.817229
v 0.276618 1.277100 0.579312
v -0.111204 1.285336 0.636947
v 0.095479 1.756411 0.183902
v -0.200823 1.755497 -0.072859
v -0.499481 1.543502 0.571893
v -0.062803 1.866882 0.066817
v -0.633195 1.444481 0.726550
v -0.343766 1.431131 0.691946
v -0.634935 1.434018 0.429247
v -0.045702 1.773062 0.190066
v -0.076149 1.775502 -0.200815
v -0.647806 1.385457 0.037913
v -0.106422 1.878521 -0.001180
v -0.813582 1.234478 0.049883
v -0.590268 1.277100 0.229388
v -0.614351 1.285336 -0.161952
v -0.203591 1.800039 0.058603
v 0.062433 1.786889 -0.229048
v -0.525712 1.432536 -0.489636
v -0.097944 1.899265 -0.115367
v -0.656697 1.289621 -0.604240
v -0.633873 1.330567 -0.317866
v -0.362820 1.322904 -0.601117
v -0.152867 1.773062 -0.057744
v 0.233950 1.775502 -0.121681
v -0.053036 1.385457 -0.670700
v 0.032451 1.878521 -0.134680
v -0.079213 1.234478 -0.834832
v -0.238857 1.277100 -0.596915
v 0.148965 1.285336 -0.654550
v -0.106673 2.131577 -0.193786
v 0.203057 2.129336 0.074516
v 0.520526 1.946051 -0.606442
v 0.055310 2.242100 -0.066920
v 0.662979 1.855398 -0.771647
v 0.361278 1.833787 -0.736479
v 0.665539 1.835026 -0.461835
v 0.087962 2.171800 -0.216789
v 0.119784 2.174351 0.191748
v 0.714538 1.772827 -0.057590
v 0.149707 2.278088 -0.016747
v 0.887493 1.618113 -0.070096
v 0.656112 1.663570 -0.257872
v 0.681296 1.672060 0.151144
v 0.252410 2.198544 -0.078771
v -0.025617 2.184801 0.221859
v 0.587478 1.820228 0.493000
v 0.140925 2.298102 0.101868
v 0.724215 1.673900 0.612768
v 0.701588 1.717862 0.314661
v 0.418312 1.709736 0.610693
v 0.240816 2.188873 0.086539
v -0.167823 2.214517 0.103222
v 0.031984 1.753617 0.673108
v 0.045026 2.302399 0.149029
v 0.027991 1.585576 0.833584
v 0.227697 1.636866 0.613698
v -0.180788 1.668960 0.624220
v -0.049750 2.171800 0.199065
v -0.081572 2.174351 -0.209472
v -0.676326 1.772827 0.039866
v -0.111495 2.278088 -0.000978
v -0.849281 1.618113 0.052372
v -0.617900 1.663570 0.240148
v -0.643084 1.672060 -0.168869
v -0.214199 2.198544 0.061047
v 0.063829 2.184801 -0.239583
v -0.549266 1.820228 -0.510724
v -0.102713 2.298102 -0.119592
v -0.686003 1.673900 -0.630492
v -0.663376 1.717862 -0.332385
v -0.380100 1.709736 -0.628417
v -0.160593 2.171800 -0.061361
v 0.243696 2.174351 -0.128185
v -0.055845 1.772827 -0.699303
v 0.033402 2.278088 -0.140074
v -0.083173 1.618113 -0.870542
v -0.250364 1.663570 -0.623877
v 0.154974 1.672060 -0.684127
v -0.059863 2.498625 -0.200169
v 0.180297 2.498625 0.085845
v 0.553031 2.269030 -0.470967
v 0.074654 2.608862 -0.069285
v 0.699513 2.164971 -0.593965
v 0.421326 2.156795 -0.604212
v 0.655862 2.160790 -0.313477
v 0.107475 2.498198 -0.185527
v 0.077435 2.500522 0.186726
v 0.654679 2.121995 0.048325
v 0.137751 2.602929 0.003608
v 0.812966 1.974730 0.062018
v 0.627441 2.014437 -0.140547
v 0.591325 2.022415 0.231180
v 0.152139 2.488704 -0.043613
v -0.163578 2.486258 0.155839
v 0.312871 2.154889 0.556338
v 0.013520 2.593978 0.087874
v 0.404534 2.020437 0.699785
v 0.453249 2.047034 0.427604
v 0.134013 2.049750 0.621550
v 0.093394 2.498198 0.205192
v -0.228504 2.500523 0.015837
v -0.355664 2.121995 0.595660
v -0.090014 2.602929 0.149965
v -0.437008 1.974730 0.732135
v -0.173817 2.014437 0.653507
v -0.492593 2.022415 0.458912
v 0.058232 2.498625 0.188340
v -0.181927 2.498625 -0.097673
v -0.554662 2.269030 0.459139
v -0.076285 2.608862 0.057456
v -0.701144 2.164971 0.582136
v -0.422957 2.156795 0.592384
v -0.657493 2.160790 0.301648
v -0.069904 2.498198 0.169583
v -0.039864 2.500522 -0.202669
v -0.617108 2.121995 -0.064269
v -0.100180 2.602929 -0.019551
v -0.775394 1.974730 -0.077961
v -0.589870 2.014437 0.124603
v -0.553754 2.022415 -0.247124
v -0.199608 2.525338 0.023054
v 0.093829 2.512812 -0.207603
v -0.422212 2.168781 -0.543093
v -0.075049 2.624336 -0.126181
v -0.528515 2.029287 -0.670754
v -0.548812 2.067106 -0.396309
v -0.251294 2.059934 -0.622065
v -0.135442 2.498198 -0.077870
v 0.238015 2.500522 -0.079942
v 0.050505 2.121995 -0.643151
v 0.050390 2.602929 -0.124293
v 0.050540 1.974730 -0.802029
v -0.135326 2.014438 -0.599778
v 0.238129 2.022415 -0.595751
v -0.028834 2.801066 -0.188642
v 0.151774 2.801066 0.095579
v 0.551239 2.582600 -0.357755
v 0.077339 2.911010 -0.056616
v 0.696350 2.482039 -0.449966
v 0.447851 2.470726 -0.491552
v 0.622889 2.474587 -0.203791
v 0.115730 2.792850 -0.156186
v 0.044573 2.794946 0.172955
v 0.582979 2.440123 0.119344
v 0.123978 2.895895 0.017210
v 0.723528 2.394700 0.150618
v 0.577428 2.334400 -0.053452
v 0.500875 2.341853 0.274488
v 0.215863 2.820459 -0.010776
v -0.073899 2.809163 0.160478
v 0.350107 2.486248 0.525458
v 0.088259 2.918795 0.110943
v 0.430286 2.353800 0.652385
v 0.479250 2.385371 0.406176
v 0.186410 2.379158 0.572557
v 0.124598 2.792850 0.106073
v -0.198792 2.794946 0.012179
v -0.182785 2.440123 0.553011
v -0.048951 2.895895 0.102232
v -0.223766 2.300563 0.691042
v -0.010022 2.334400 0.559501
v -0.331839 2.341853 0.460308
v 0.029959 2.801066 0.172986
v -0.150649 2.801066 -0.111235
v -0.550114 2.582600 0.342099
v -0.076214 2.911010 0.040960
v -0.695225 2.482039 0.434310
v -0.446727 2.470726 0.475896
v -0.621764 2.474587 0.188134
v -0.079077 2.792850 0.141519
v -0.007920 2.794946 -0.187622
v -0.546326 2.440123 -0.134012
v -0.087325 2.895895 -0.031877
v -0.686875 2.300563 -0.165286
v -0.540776 2.334400 0.038784
v -0.464223 2.341853 -0.289156
v -0.179210 2.820459 -0.003892
v 0.110552 2.809163 -0.175146
v -0.313454 2.486248 -0.540126
v -0.051606 2.918795 -0.125610
v -0.393633 2.353800 -0.667053
v -0.442597 2.385371 -0.420844
v -0.149757 2.379158 -0.587225
v -0.111653 2.792850 -0.085116
v 0.222387 2.794946 -0.042516
v 0.122692 2.440123 -0.574320
v 0.060392 2.895895 -0.108239
v 0.141768 2.300563 -0.717037
v -0.048987 2.334399 -0.553936
v 0.284320 2.341853 -0.505857
v -0.028834 3.115909 -0.188642
v 0.151774 3.115909 0.095579
v 0.551239 2.897443 -0.357755
v 0.077339 3.225852 -0.056616
v 0.696350 2.796882 -0.449966
v 0.447851 2.785569 -0.491552
v 0.622889 2.789429 -0.203791
v 0.115730 3.107692 -0.156186
v 0.044573 3.109788 0.172955
v 0.582979 2.754965 0.119344
v 0.123978 3.210737 0.017210
v 0.723528 2.708296 0.150618
v 0.577428 2.649242 -0.053452
v 0.500875 2.656695 0.274488
v 0.215863 3.135301 -0.010776
v -0.073899 3.124005 0.160478
v 0.350107 2.801090 0.525458
v 0.088259 3.233637 0.110943
v 0.430286 2.668642 0.652385
v 0.479250 2.700213 0.406176
v 0.186410 2.694001 0.572557
v 0.148305 3.107692 0.070448
v -0.185734 3.109788 0.027848
v -0.086039 2.754965 0.559652
v -0.023740 3.210737 0.093571
v -0.105115 2.615405 0.702369
v 0.085640 2.649242 0.539269
v -0.247667 2.656695 0.491190
v 0.029959 3.115909 0.172986
v -0.150649 3.115909 -0.111235
v -0.550114 2.897443 0.342099
v -0.076214 3.225852 0.040960
v -0.695225 2.870491 0.434310
v -0.446727 2.785568 0.475896
v -0.621764 2.789429 0.188134
v -0.079077 3.107692 0.141519
v -0.007920 3.109788 -0.187622
v -0.546326 2.754965 -0.134012
v -0.087325 3.210737 -0.031877
v -0.686875 2.615405 -0.165286
v -0.540776 2.649242 0.038784
v -0.464223 2.656695 -0.289156
v -0.179210 3.135301 -0.003892
v 0.110552 3.124005 -0.175146
v -0.313454 2.801090 -0.540126
v -0.051606 3.233637 -0.125610
v -0.393633 2.668642 -0.667053
v -0.442597 2.700213 -0.420844
v -0.149757 2.694001 -0.587225
v -0.111653 3.107692 -0.085116
v 0.222387 3.109788 -0.042516
v 0.122692 2.754965 -0.574320
v 0.060393 3.210737 -0.108239
v 0.141768 2.615405 -0.717037
v -0.048987 2.649242 -0.553936
v 0.284320 2.656695 -0.505857
v 0.007433 1.858661 -0.294573
v 0.233007 1.863642 0.139950
v 0.818718 1.477187 -0.435522
v 0.151402 1.970405 -0.094752
v 1.023055 1.326161 -0.539868
v 0.678672 1.362544 -0.637346
v 0.896401 1.373323 -0.198818
v 0.193241 1.813010 -0.205568
v 0.048130 1.816057 0.262038
v 0.808846 1.361672 0.244742
v 0.166443 1.923371 0.041726
v 1.005555 1.189677 0.306907
v 0.839420 1.248010 -0.001358
v 0.686758 1.257660 0.463861
v 0.312112 1.838536 0.021421
v -0.129263 1.822118 0.232346
v 0.427695 1.410614 0.797884
v 0.106214 1.939879 0.166360
v 0.526134 1.248550 0.991261
v 0.635482 1.306161 0.656657
v 0.190328 1.295964 0.860158
v 0.195450 1.813010 0.135719
v -0.282898 1.816057 0.031342
v -0.200273 1.361672 0.787755
v -0.053231 1.923371 0.130278
v -0.245298 1.189677 0.989079
v 0.047544 1.248010 0.797061
v -0.429076 1.257660 0.684955
v 0.021415 1.771385 0.251692
v -0.203865 1.770243 -0.183019
v -0.848977 1.534379 0.427649
v -0.104883 1.882310 0.041122
v -1.076824 1.427840 0.546005
v -0.727052 1.421408 0.640490
v -0.943586 1.424357 0.201236
v -0.152638 1.813010 0.192146
v -0.007526 1.816057 -0.275460
v -0.768243 1.361672 -0.258164
v -0.125840 1.923371 -0.055148
v -0.964952 1.189677 -0.320329
v -0.798817 1.248010 -0.012064
v -0.646154 1.257660 -0.477283
v -0.271509 1.838536 -0.034843
v 0.169867 1.822118 -0.245768
v -0.387091 1.410614 -0.811306
v -0.065611 1.939879 -0.179782
v -0.485531 1.248550 -1.004683
v -0.594879 1.306161 -0.670079
v -0.149724 1.295964 -0.873580
v -0.154847 1.813010 -0.149141
v 0.323501 1.816057 -0.044764
v 0.240876 1.361672 -0.801178
v 0.093834 1.923371 -0.143700
v 0.285902 1.189676 -1.002502
v -0.006941 1.248010 -0.810483
v 0.469679 1.257660 -0.698377
v -0.054430 2.519846 -0.224773
v 0.209686 2.523834 0.064876
v 0.552240 2.187750 -0.508123
v 0.102818 2.629182 -0.104396
v 0.689856 2.052581 -0.631746
v 0.397634 2.075820 -0.630873
v 0.656467 2.084997 -0.336478
v 0.101794 2.468248 -0.198251
v 0.085955 2.470688 0.193424
v 0.689598 2.075446 0.024131
v 0.140163 2.575110 -0.001200
v 0.857838 2.040302 0.031888
v 0.654458 1.965647 -0.172771
v 0.632161 1.973961 0.218606
v 0.245122 2.494439 -0.051970
v -0.052935 2.481290 0.202299
v 0.504814 2.122950 0.535400
v 0.119979 2.594851 0.108696
v 0.622653 1.978452 0.666060
v 0.632218 2.019766 0.377243
v 0.329638 2.012164 0.626495
v 0.183558 2.468248 0.055864
v -0.208029 2.470688 0.073753
v 0.012528 2.075446 0.660608
v -0.009466 2.575110 0.111030
v 0.019263 1.922446 0.828893
v 0.205681 1.965647 0.608673
v -0.186164 1.973961 0.620102
v 0.072898 2.448401 0.191642
v -0.191022 2.447487 -0.098205
v -0.564446 2.235125 0.507568
v -0.070474 2.559072 0.056760
v -0.715704 2.223569 0.645608
v -0.423977 2.122550 0.645100
v -0.682091 2.125444 0.349953
v -0.063788 2.468248 0.181845
v -0.047949 2.470688 -0.209830
v -0.651592 2.075446 -0.040537
v -0.102157 2.575110 -0.015206
v -0.819833 1.922446 -0.048294
v -0.616453 1.965647 0.156365
v -0.594155 1.973961 -0.235012
v -0.207116 2.494439 0.035564
v 0.090941 2.481290 -0.218705
v -0.466808 2.122950 -0.551807
v -0.081973 2.594851 -0.125102
v -0.584647 1.978452 -0.682466
v -0.594213 2.019766 -0.393649
v -0.291632 2.012164 -0.642902
v -0.145552 2.468248 -0.072270
v 0.246035 2.470688 -0.090159
v 0.025478 2.075446 -0.677014
v 0.047472 2.575110 -0.127436
v 0.018743 1.922446 -0.845299
v -0.167675 1.965647 -0.625079
v 0.224170 1.973961 -0.636508
v -0.100802 3.411446 -0.089256
v 0.143672 3.411446 -0.019007
v 0.142515 3.217971 -0.475500
v 0.026596 3.520717 -0.072091
v 0.178010 3.125268 -0.599027
v 0.015798 3.106920 -0.495036
v 0.258910 3.110479 -0.420045
v -0.009692 3.385658 -0.138990
v 0.114926 3.387241 0.082759
v 0.405805 3.085760 -0.224454
v 0.089914 3.484854 -0.049778
v 0.502533 2.963554 -0.277940
v 0.308056 2.984218 -0.314692
v 0.428961 2.990493 -0.090890
v 0.121169 3.414345 -0.111416
v 0.043068 3.405808 0.130646
v 0.476628 3.130392 0.127038
v 0.117947 3.511139 0.024739
v 0.586459 3.013804 0.158363
v 0.481958 3.031359 -0.008516
v 0.399641 3.027298 0.232344
v 0.124777 3.385658 -0.037073
v -0.085438 3.387241 0.106146
v 0.245642 3.085760 0.369540
v 0.044458 3.484854 0.069834
v 0.307245 2.963554 0.461312
v 0.327143 2.984218 0.264395
v 0.114563 2.990493 0.404091
v 0.113135 3.411446 0.087268
v -0.131339 3.411446 0.017019
v -0.130182 3.217971 0.473512
v -0.014263 3.520717 0.070103
v -0.165677 3.125268 0.597038
v -0.003466 3.106920 0.493048
v -0.246577 3.110479 0.418057
v 0.042609 3.385658 0.119766
v -0.082009 3.387241 -0.101982
v -0.372889 3.085760 0.205230
v -0.056997 3.484854 0.030555
v -0.469617 2.963554 0.258717
v -0.275139 2.984218 0.295468
v -0.396044 2.990493 0.071666
v -0.088252 3.414345 0.092193
v -0.010152 3.405808 -0.149870
v -0.443711 3.130392 -0.146262
v -0.085030 3.511139 -0.043963
v -0.553542 3.013804 -0.177587
v -0.449041 3.031359 -0.010708
v -0.366725 3.027298 -0.251568
v -0.091860 3.385658 0.017849
v 0.118355 3.387241 -0.125370
v -0.212725 3.085759 -0.388764
v -0.011541 3.484854 -0.089057
v -0.274329 2.963554 -0.480536
v -0.294226 2.984218 -0.283619
v -0.081646 2.990493 -0.423315
v -0.102474 3.650573 -0.050486
v 0.121045 3.650573 -0.048623
v 0.012490 3.466681 -0.434166
v 0.009440 3.759490 -0.068180
v 0.013423 3.377021 -0.546233
v -0.099407 3.356043 -0.418623
v 0.124076 3.359485 -0.412458
v -0.038542 3.617128 -0.111884
v 0.119211 3.618519 0.046478
v 0.296400 3.338874 -0.285333
v 0.069899 3.714405 -0.063002
v 0.365756 3.223884 -0.353412
v 0.189290 3.239390 -0.335522
v 0.344381 3.245196 -0.174547
v 0.079073 3.646498 -0.120451
v 0.069994 3.638996 0.102913
v 0.439282 3.382794 -0.002676
v 0.112534 3.742314 -0.003880
v 0.539335 3.272707 -0.002307
v 0.407741 3.284865 -0.119240
v 0.394821 3.281588 0.104111
v 0.099293 3.617128 -0.060009
v -0.044921 3.618519 0.110774
v 0.300893 3.338874 0.258783
v 0.059914 3.714405 0.052232
v 0.374683 3.223884 0.322030
v 0.341689 3.239390 0.147756
v 0.194641 3.245196 0.316110
v 0.120222 3.650572 0.050152
v -0.103297 3.650572 0.048289
v 0.005258 3.466681 0.433832
v 0.008307 3.759490 0.067846
v 0.004324 3.377021 0.545900
v 0.117154 3.356043 0.418289
v -0.106328 3.359485 0.412125
v 0.069654 3.617128 0.092109
v -0.088099 3.618519 -0.066253
v -0.265288 3.338874 0.265558
v -0.038787 3.714405 0.043227
v -0.334644 3.223884 0.333637
v -0.158179 3.239390 0.315747
v -0.313269 3.245196 0.154771
v -0.047961 3.646498 0.100676
v -0.038882 3.638996 -0.122688
v -0.408170 3.382794 -0.017100
v -0.081423 3.742314 -0.015895
v -0.508223 3.348250 -0.017468
v -0.376629 3.284865 0.099465
v -0.363710 3.281588 -0.123886
v -0.068182 3.617128 0.040234
v 0.076033 3.618519 -0.130549
v -0.269781 3.338874 -0.278558
v -0.028802 3.714405 -0.072008
v -0.343571 3.223884 -0.341805
v -0.310577 3.239390 -0.167531
v -0.163529 3.245196 -0.335885
v -0.071386 3.965951 -0.016471
v 0.080270 3.965951 -0.050754
v -0.055327 3.820141 -0.298009
v 0.000984 4.057659 -0.048910
v -0.072570 3.747411 -0.374285
v -0.128028 3.727037 -0.267035
v 0.024290 3.729829 -0.298390
v -0.045412 3.938096 -0.058544
v 0.086600 3.939063 0.023610
v 0.166608 3.713859 -0.249448
v 0.039437 4.021852 -0.048727
v 0.205548 3.619549 -0.310910
v 0.082506 3.628291 -0.260445
v 0.213023 3.632880 -0.175931
v 0.029666 3.961330 -0.091743
v 0.059065 3.956107 0.061098
v 0.311087 3.750923 -0.073729
v 0.077084 4.044193 -0.018695
v 0.382741 3.661121 -0.090581
v 0.265045 3.666336 -0.147101
v 0.291694 3.664560 0.006387
v 0.051498 3.938095 -0.062818
v -0.019004 3.939063 0.075769
v 0.259920 3.713859 0.132007
v 0.049011 4.021852 0.022562
v 0.324502 3.619550 0.165520
v 0.263647 3.628291 0.047271
v 0.190666 3.632880 0.184570
v 0.094688 3.965951 0.013024
v -0.056968 3.965951 0.047307
v 0.078629 3.820141 0.294562
v 0.022318 4.057659 0.045463
v 0.095872 3.747411 0.370838
v 0.151330 3.727037 0.263588
v -0.000988 3.729829 0.294943
v 0.074673 3.938095 0.039807
v -0.057340 3.939063 -0.042347
v -0.137347 3.713859 0.230710
v -0.010177 4.021852 0.029990
v -0.176288 3.619549 0.292173
v -0.053245 3.628291 0.241708
v -0.183763 3.632879 0.157194
v -0.000406 3.961330 0.073006
v -0.029805 3.956107 -0.079835
v -0.281827 3.750923 0.054992
v -0.047823 4.044193 -0.000043
v -0.353481 3.703531 0.071844
v -0.235785 3.666336 0.128364
v -0.262433 3.664560 -0.025124
v -0.022237 3.938096 0.044080
v 0.048264 3.939063 -0.094506
v -0.230660 3.713859 -0.150744
v -0.019751 4.021853 -0.041299
v -0.295242 3.619550 -0.184257
v -0.234387 3.628291 -0.066008
v -0.161406 3.632880 -0.203308
v -0.047820 4.240064 -0.002258
v 0.055084 4.240064 -0.047192
v -0.074706 4.134762 -0.204128
v -0.000901 4.306293 -0.035105
v -0.097306 4.082238 -0.255884
v -0.122060 4.067524 -0.172275
v -0.018288 4.069540 -0.215222
v -0.035118 4.219947 -0.035630
v 0.069684 4.220646 0.004692
v 0.089308 4.058007 -0.199857
v 0.026398 4.280436 -0.040203
v 0.108571 3.989899 -0.248744
v 0.028162 3.996212 -0.196223
v 0.132224 3.999526 -0.154024
v 0.013619 4.236727 -0.069384
v 0.055250 4.232955 0.035025
v 0.215672 4.084774 -0.094867
v 0.057182 4.296569 -0.024020
v 0.264203 4.019921 -0.116561
v 0.173041 4.023687 -0.140648
v 0.212809 4.022404 -0.035407
v 0.033036 4.219947 -0.051836
v 0.001873 4.220646 0.056044
v 0.207351 4.058008 0.058012
v 0.042880 4.280436 0.009059
v 0.257714 3.989899 0.073001
v 0.198475 3.996212 -0.002596
v 0.165377 3.999526 0.104709
v 0.073981 4.240064 -0.003916
v -0.028924 4.240064 0.041018
v 0.100866 4.134762 0.197954
v 0.027061 4.306293 0.028931
v 0.123466 4.082238 0.249710
v 0.148220 4.067524 0.166101
v 0.044448 4.069540 0.209048
v 0.063426 4.219947 0.017802
v -0.041376 4.220646 -0.022520
v -0.061000 4.058008 0.182029
v 0.001910 4.280436 0.022374
v -0.080264 3.989899 0.230916
v 0.000146 3.996212 0.178395
v -0.103916 3.999526 0.136196
v 0.014688 4.236727 0.051556
v -0.026943 4.232955 -0.052853
v -0.187365 4.084774 0.077039
v -0.028875 4.296569 0.006191
v -0.235896 4.019921 0.098733
v -0.144733 4.023687 0.122820
v -0.184501 4.022404 0.017578
v -0.004729 4.219947 0.034008
v 0.026435 4.220646 -0.073872
v -0.179044 4.058008 -0.075840
v -0.014572 4.280436 -0.026888
v -0.229406 3.989899 -0.090830
v -0.170167 3.996212 -0.015233
v -0.137070 3.999526 -0.122537
v -0.048309 4.416235 0.003767
v 0.051591 4.416235 0.001030
v -0.003131 4.322515 -0.171767
v 0.001365 4.475181 -0.007678
v -0.004508 4.275767 -0.222012
v -0.052831 4.262671 -0.161286
v 0.047121 4.264466 -0.162094
v 0.026210 4.441230 0.043604
v -0.030495 4.437873 -0.038813
v -0.144138 4.305990 0.105533
v -0.020538 4.494492 0.012814
v -0.181985 4.248269 0.133924
v -0.098116 4.251621 0.136868
v -0.153368 4.250479 0.053361
v 0.005309 4.526090 0.022486
v 0.008197 4.526400 -0.027261
v -0.080918 4.454226 -0.007926
v -0.004933 4.552932 -0.002900
v -0.104185 4.424003 -0.009465
v -0.071122 4.426804 0.017430
v -0.067341 4.428275 -0.032258
v 0.010904 4.480096 -0.026027
v -0.019865 4.480406 0.013169
v 0.064340 4.408233 0.048165
v 0.004822 4.506939 0.000662
v 0.082565 4.378009 0.062711
v 0.070772 4.380811 0.021755
v 0.039303 4.382281 0.060393
vt 0.066406 0.250000
vt 0.079102 0.250000
vt 0.079102 0.285886
vt 0.066406 0.286097
vt 0.079102 0.296875
vt 0.091797 0.285675
vt 0.091797 0.250000
vt 0.066406 0.250000
vt 0.079102 0.250000
vt 0.079102 0.285886
vt 0.066406 0.286097
vt 0.079102 0.296875
vt 0.091797 0.285675
vt 0.091797 0.250000
vt 0.066406 0.250000
vt 0.079102 0.250000
vt 0.079102 0.285886
vt 0.066406 0.286097
vt 0.079102 0.296875
vt 0.091797 0.285675
vt 0.091797 0.250000
vt 0.066406 0.250000
vt 0.079102 0.250000
vt 0.079102 0.285886
vt 0.066406 0.286097
vt 0.079102 0.296875
vt 0.091797 0.285675
vt 0.091797 0.250000
vt 0.066406 0.250000
vt 0.079102 0.250000
vt 0.079102 0.285886
vt 0.066406 0.286097
vt 0.079102 0.296875
vt 0.091797 0.285675
vt 0.091797 0.250000
vt 0.066406 0.250000
vt 0.079102 0.250000
vt 0.079102 0.285886
vt 0.066406 0.286097
vt 0.079102 0.296875
vt 0.091797 0.285675
vt 0.091797 0.250000
vt 0.066406 0.250000
vt 0.079102 0.250000
vt 0.079102 0.285886
vt 0.066406 0.286097
vt 0.079102 0.296875
vt 0.091797 0.285675
vt 0.091797 0.250000
vt 0.066406 0.250000
vt 0.079102 0.250000
vt 0.079102 0.285886
vt 0.066406 0.286097
vt 0.079102 0.296875
vt 0.091797 0.285675
vt 0.091797 0.250000
vt 0.066406 0.250000
vt 0.079102 0.250000
vt 0.079102 0.285886
vt 0.066406 0.286097
vt 0.079102 0.296875
vt 0.091797 0.285675
vt 0.091797 0.250000
vt 0.066406 0.250000
vt 0.079102 0.250000
vt 0.079102 0.285886
vt 0.066406 0.286097
vt 0.079102 0.296875
vt 0.091797 0.285675
vt 0.091797 0.250000
vt 0.066406 0.250000
vt 0.079102 0.250000
vt 0.079102 0.285886
vt 0.066406 0.286097
vt 0.079102 0.296875
vt 0.091797 0.285675
vt 0.091797 0.250000
vt 0.066406 0.250000
vt 0.079102 0.250000
vt 0.079102 0.285886
vt 0.066406 0.286097
vt 0.079102 0.296875
vt 0.091797 0.285675
vt 0.091797 0.250000
vt 0.066406 0.250000
vt 0.079102 0.250000
vt 0.079102 0.285886
vt 0.066406 0.286097
vt 0.079102 0.296875
vt 0.091797 0.285675
vt 0.091797 0.250000
vt 0.066406 0.250000
vt 0.079102 0.250000
vt 0.079102 0.285886
vt 0.066406 0.286097
vt 0.079102 0.296875
vt 0.091797 0.285675
vt 0.091797 0.250000
vt 0.066406 0.250000
vt 0.079102 0.250000
vt 0.079102 0.285886
vt 0.066406 0.286097
vt 0.079102 0.296875
vt 0.091797 0.285675
vt 0.091797 0.250000
vt 0.066406 0.250000
vt 0.079102 0.250000
vt 0.079102 0.285886
vt 0.066406 0.286097
vt 0.079102 0.296875
vt 0.091797 0.285675
vt 0.091797 0.250000
vt 0.066406 0.250000
vt 0.079102 0.250000
vt 0.079102 0.285886
vt 0.066406 0.286097
vt 0.079102 0.296875
vt 0.091797 0.285675
vt 0.091797 0.250000
vt 0.066406 0.250000
vt 0.079102 0.250000
vt 0.079102 0.285886
vt 0.066406 0.286097
vt 0.079102 0.296875
vt 0.091797 0.285675
vt 0.091797 0.250000
vt 0.066406 0.250000
vt 0.079102 0.250000
vt 0.079102 0.285886
vt 0.066406 0.286097
vt 0.079102 0.296875
vt 0.091797 0.285675
vt 0.091797 0.250000
vt 0.066406 0.250000
vt 0.079102 0.250000
vt 0.079102 0.285886
vt 0.066406 0.286097
vt 0.079102 0.296875
vt 0.091797 0.285675
vt 0.091797 0.250000
vt 0.066406 0.250000
vt 0.079102 0.250000
vt 0.079102 0.285886
vt 0.066406 0.286097
vt 0.079102 0.296875
vt 0.091797 0.285675
vt 0.091797 0.250000
vt 0.066406 0.250000
vt 0.079102 0.250000
vt 0.079102 0.285886
vt 0.066406 0.286097
vt 0.079102 0.296875
vt 0.091797 0.285675
vt 0.091797 0.250000
vt 0.066406 0.250000
vt 0.079102 0.250000
vt 0.079102 0.285886
vt 0.066406 0.286097
vt 0.079102 0.296875
vt 0.091797 0.285675
vt 0.091797 0.250000
vt 0.066406 0.250000
vt 0.079102 0.250000
vt 0.079102 0.285886
vt 0.066406 0.286097
vt 0.079102 0.296875
vt 0.091797 0.285675
vt 0.091797 0.250000
vt 0.066406 0.250000
vt 0.079102 0.250000
vt 0.079102 0.285886
vt 0.066406 0.286097
vt 0.079102 0.296875
vt 0.091797 0.285675
vt 0.091797 0.250000
vt 0.066406 0.250000
vt 0.079102 0.250000
vt 0.079102 0.285886
vt 0.066406 0.286097
vt 0.079102 0.296875
vt 0.091797 0.285675
vt 0.091797 0.250000
vt 0.066406 0.250000
vt 0.079102 0.250000
vt 0.079102 0.285886
vt 0.066406 0.286097
vt 0.079102 0.296875
vt 0.091797 0.285675
vt 0.091797 0.250000
vt 0.066406 0.250000
vt 0.079102 0.250000
vt 0.079102 0.285886
vt 0.066406 0.286097
vt 0.079102 0.296875
vt 0.091797 0.285675
vt 0.091797 0.250000
vt 0.066406 0.250000
vt 0.079102 0.250000
vt 0.079102 0.285886
vt 0.066406 0.286097
vt 0.079102 0.296875
vt 0.091797 0.285675
vt 0.091797 0.250000
vt 0.066406 0.250000
vt 0.079102 0.250000
vt 0.079102 0.285886
vt 0.066406 0.286097
vt 0.079102 0.296875
vt 0.091797 0.285675
vt 0.091797 0.250000
vt 0.066406 0.250000
vt 0.079102 0.250000
vt 0.079102 0.285886
vt 0.066406 0.286097
vt 0.079102 0.296875
vt 0.091797 0.285675
vt 0.091797 0.250000
vt 0.066406 0.250000
vt 0.079102 0.250000
vt 0.079102 0.285886
vt 0.066406 0.286097
vt 0.079102 0.296875
vt 0.091797 0.285675
vt 0.091797 0.250000
vt 0.066406 0.250000
vt 0.079102 0.250000
vt 0.079102 0.285886
vt 0.066406 0.286097
vt 0.079102 0.296875
vt 0.091797 0.285675
vt 0.091797 0.250000
vt 0.066406 0.250000
vt 0.079102 0.250000
vt 0.079102 0.285886
vt 0.066406 0.286097
vt 0.079102 0.296875
vt 0.091797 0.285675
vt 0.091797 0.250000
vt 0.066406 0.250000
vt 0.079102 0.250000
vt 0.079102 0.285886
vt 0.066406 0.286097
vt 0.079102 0.296875
vt 0.091797 0.285675
vt 0.091797 0.250000
vt 0.066406 0.250000
vt 0.079102 0.250000
vt 0.079102 0.285886
vt 0.066406 0.286097
vt 0.079102 0.296875
vt 0.091797 0.285675
vt 0.091797 0.250000
vt 0.066406 0.250000
vt 0.079102 0.250000
vt 0.079102 0.285886
vt 0.066406 0.286097
vt 0.079102 0.296875
vt 0.091797 0.285675
vt 0.091797 0.250000
vt 0.066406 0.250000
vt 0.079102 0.250000
vt 0.079102 0.285886
vt 0.066406 0.286097
vt 0.079102 0.296875
vt 0.091797 0.285675
vt 0.091797 0.250000
vt 0.066406 0.250000
vt 0.079102 0.250000
vt 0.079102 0.285886
vt 0.066406 0.286097
vt 0.079102 0.296875
vt 0.091797 0.285675
vt 0.091797 0.250000
vt 0.066406 0.250000
vt 0.079102 0.250000
vt 0.079102 0.285886
vt 0.066406 0.286097
vt 0.079102 0.296875
vt 0.091797 0.285675
vt 0.091797 0.250000
vt 0.066406 0.250000
vt 0.079102 0.250000
vt 0.079102 0.285886
vt 0.066406 0.286097
vt 0.079102 0.296875
vt 0.091797 0.285675
vt 0.091797 0.250000
vt 0.066406 0.250000
vt 0.079102 0.250000
vt 0.079102 0.285886
vt 0.066406 0.286097
vt 0.079102 0.296875
vt 0.091797 0.285675
vt 0.091797 0.250000
vt 0.066406 0.250000
vt 0.079102 0.250000
vt 0.079102 0.285886
vt 0.066406 0.286097
vt 0.079102 0.296875
vt 0.091797 0.285675
vt 0.091797 0.250000
vt 0.066406 0.250000
vt 0.079102 0.250000
vt 0.079102 0.285886
vt 0.066406 0.286097
vt 0.079102 0.296875
vt 0.091797 0.285675
vt 0.091797 0.250000
vt 0.066406 0.250000
vt 0.079102 0.250000
vt 0.079102 0.285886
vt 0.066406 0.286097
vt 0.079102 0.296875
vt 0.091797 0.285675
vt 0.091797 0.250000
vt 0.066406 0.250000
vt 0.079102 0.250000
vt 0.079102 0.285886
vt 0.066406 0.286097
vt 0.079102 0.296875
vt 0.091797 0.285675
vt 0.091797 0.250000
vt 0.066406 0.250000
vt 0.079102 0.250000
vt 0.079102 0.285886
vt 0.066406 0.286097
vt 0.079102 0.296875
vt 0.091797 0.285675
vt 0.091797 0.250000
vt 0.066406 0.250000
vt 0.079102 0.250000
vt 0.079102 0.285886
vt 0.066406 0.286097
vt 0.079102 0.296875
vt 0.091797 0.285675
vt 0.091797 0.250000
vt 0.066406 0.250000
vt 0.079102 0.250000
vt 0.079102 0.285886
vt 0.066406 0.286097
vt 0.079102 0.296875
vt 0.091797 0.285675
vt 0.091797 0.250000
vt 0.066406 0.250000
vt 0.079102 0.250000
vt 0.079102 0.285886
vt 0.066406 0.286097
vt 0.079102 0.296875
vt 0.091797 0.285675
vt 0.091797 0.250000
vt 0.066406 0.250000
vt 0.079102 0.250000
vt 0.079102 0.285886
vt 0.066406 0.286097
vt 0.079102 0.296875
vt 0.091797 0.285675
vt 0.091797 0.250000
vt 0.066406 0.250000
vt 0.079102 0.250000
vt 0.079102 0.285886
vt 0.066406 0.286097
vt 0.079102 0.296875
vt 0.091797 0.285675
vt 0.091797 0.250000
vt 0.066406 0.250000
vt 0.079102 0.250000
vt 0.079102 0.285886
vt 0.066406 0.286097
vt 0.079102 0.296875
vt 0.091797 0.285675
vt 0.091797 0.250000
vt 0.066406 0.250000
vt 0.079102 0.250000
vt 0.079102 0.285886
vt 0.066406 0.286097
vt 0.079102 0.296875
vt 0.091797 0.285675
vt 0.091797 0.250000
vt 0.066406 0.250000
vt 0.079102 0.250000
vt 0.079102 0.285886
vt 0.066406 0.286097
vt 0.079102 0.296875
vt 0.091797 0.285675
vt 0.091797 0.250000
vt 0.066406 0.250000
vt 0.079102 0.250000
vt 0.079102 0.285886
vt 0.066406 0.286097
vt 0.079102 0.296875
vt 0.091797 0.285675
vt 0.091797 0.250000
vt 0.066406 0.250000
vt 0.079102 0.250000
vt 0.079102 0.285886
vt 0.066406 0.286097
vt 0.079102 0.296875
vt 0.091797 0.285675
vt 0.091797 0.250000
vt 0.066406 0.250000
vt 0.079102 0.250000
vt 0.079102 0.285886
vt 0.066406 0.286097
vt 0.079102 0.296875
vt 0.091797 0.285675
vt 0.091797 0.250000
vt 0.066406 0.250000
vt 0.079102 0.250000
vt 0.079102 0.285886
vt 0.066406 0.286097
vt 0.079102 0.296875
vt 0.091797 0.285675
vt 0.091797 0.250000
vt 0.066406 0.250000
vt 0.079102 0.250000
vt 0.079102 0.285886
vt 0.066406 0.286097
vt 0.079102 0.296875
vt 0.091797 0.285675
vt 0.091797 0.250000
vt 0.066406 0.250000
vt 0.079102 0.250000
vt 0.079102 0.285886
vt 0.066406 0.286097
vt 0.079102 0.296875
vt 0.091797 0.285675
vt 0.091797 0.250000
vt 0.066406 0.250000
vt 0.079102 0.250000
vt 0.079102 0.285886
vt 0.066406 0.286097
vt 0.079102 0.296875
vt 0.091797 0.285675
vt 0.091797 0.250000
vt 0.066406 0.250000
vt 0.079102 0.250000
vt 0.079102 0.285886
vt 0.066406 0.286097
vt 0.079102 0.296875
vt 0.091797 0.285675
vt 0.091797 0.250000
vt 0.066406 0.250000
vt 0.079102 0.250000
vt 0.079102 0.285886
vt 0.066406 0.286097
vt 0.079102 0.296875
vt 0.091797 0.285675
vt 0.091797 0.250000
vt 0.066406 0.250000
vt 0.079102 0.250000
vt 0.079102 0.285886
vt 0.066406 0.286097
vt 0.079102 0.296875
vt 0.091797 0.285675
vt 0.091797 0.250000
vt 0.066406 0.250000
vt 0.079102 0.250000
vt 0.079102 0.285886
vt 0.066406 0.286097
vt 0.079102 0.296875
vt 0.091797 0.285675
vt 0.091797 0.250000
vt 0.066406 0.250000
vt 0.079102 0.250000
vt 0.079102 0.285886
vt 0.066406 0.286097
vt 0.079102 0.296875
vt 0.091797 0.285675
vt 0.091797 0.250000
vt 0.066406 0.250000
vt 0.079102 0.250000
vt 0.079102 0.285886
vt 0.066406 0.286097
vt 0.079102 0.296875
vt 0.091797 0.285675
vt 0.091797 0.250000
vt 0.066406 0.250000
vt 0.079102 0.250000
vt 0.079102 0.285886
vt 0.066406 0.286097
vt 0.079102 0.296875
vt 0.091797 0.285675
vt 0.091797 0.250000
vt 0.066406 0.250000
vt 0.079102 0.250000
vt 0.079102 0.285886
vt 0.066406 0.286097
vt 0.079102 0.296875
vt 0.091797 0.285675
vt 0.091797 0.250000
vt 0.066406 0.250000
vt 0.079102 0.250000
vt 0.079102 0.285886
vt 0.066406 0.286097
vt 0.079102 0.296875
vt 0.091797 0.285675
vt 0.091797 0.250000
vt 0.066406 0.250000
vt 0.079102 0.250000
vt 0.079102 0.285886
vt 0.066406 0.286097
vt 0.079102 0.296875
vt 0.091797 0.285675
vt 0.091797 0.250000
vt 0.066406 0.250000
vt 0.079102 0.250000
vt 0.079102 0.285886
vt 0.066406 0.286097
vt 0.079102 0.296875
vt 0.091797 0.285675
vt 0.091797 0.250000
vt 0.066406 0.250000
vt 0.079102 0.250000
vt 0.079102 0.285886
vt 0.066406 0.286097
vt 0.079102 0.296875
vt 0.091797 0.285675
vt 0.091797 0.250000
vt 0.066406 0.250000
vt 0.079102 0.250000
vt 0.079102 0.285886
vt 0.066406 0.286097
vt 0.079102 0.296875
vt 0.091797 0.285675
vt 0.091797 0.250000
vt 0.066406 0.250000
vt 0.079102 0.250000
vt 0.079102 0.285886
vt 0.066406 0.286097
vt 0.079102 0.296875
vt 0.091797 0.285675
vt 0.091797 0.250000
vt 0.066406 0.250000
vt 0.079102 0.250000
vt 0.079102 0.285886
vt 0.066406 0.286097
vt 0.079102 0.296875
vt 0.091797 0.285675
vt 0.091797 0.250000
vt 0.066406 0.250000
vt 0.079102 0.250000
vt 0.079102 0.285886
vt 0.066406 0.286097
vt 0.079102 0.296875
vt 0.091797 0.285675
vt 0.091797 0.250000
vt 0.066406 0.250000
vt 0.079102 0.250000
vt 0.079102 0.285886
vt 0.066406 0.286097
vt 0.079102 0.296875
vt 0.091797 0.285675
vt 0.091797 0.250000
vt 0.066406 0.250000
vt 0.079102 0.250000
vt 0.079102 0.285886
vt 0.066406 0.286097
vt 0.079102 0.296875
vt 0.091797 0.285675
vt 0.091797 0.250000
vt 0.066406 0.250000
vt 0.079102 0.250000
vt 0.079102 0.285886
vt 0.066406 0.286097
vt 0.079102 0.296875
vt 0.091797 0.285675
vt 0.091797 0.250000
vt 0.066406 0.250000
vt 0.079102 0.250000
vt 0.079102 0.285886
vt 0.066406 0.286097
vt 0.079102 0.296875
vt 0.091797 0.285675
vt 0.091797 0.250000
vt 0.066406 0.250000
vt 0.079102 0.250000
vt 0.079102 0.285886
vt 0.066406 0.286097
vt 0.079102 0.296875
vt 0.091797 0.285675
vt 0.091797 0.250000
vt 0.066406 0.250000
vt 0.079102 0.250000
vt 0.079102 0.285886
vt 0.066406 0.286097
vt 0.079102 0.296875
vt 0.091797 0.285675
vt 0.091797 0.250000
vt 0.066406 0.250000
vt 0.079102 0.250000
vt 0.079102 0.285886
vt 0.066406 0.286097
vt 0.079102 0.296875
vt 0.091797 0.285675
vt 0.091797 0.250000
vt 0.066406 0.250000
vt 0.079102 0.250000
vt 0.079102 0.285886
vt 0.066406 0.286097
vt 0.079102 0.296875
vt 0.091797 0.285675
vt 0.091797 0.250000
vt 0.066406 0.250000
vt 0.079102 0.250000
vt 0.079102 0.285886
vt 0.066406 0.286097
vt 0.079102 0.296875
vt 0.091797 0.285675
vt 0.091797 0.250000
vt 0.066406 0.250000
vt 0.079102 0.250000
vt 0.079102 0.285886
vt 0.066406 0.286097
vt 0.079102 0.296875
vt 0.091797 0.285675
vt 0.091797 0.250000
vt 0.066406 0.250000
vt 0.079102 0.250000
vt 0.079102 0.285886
vt 0.066406 0.286097
vt 0.079102 0.296875
vt 0.091797 0.285675
vt 0.091797 0.250000
vt 0.066406 0.250000
vt 0.079102 0.250000
vt 0.079102 0.285886
vt 0.066406 0.286097
vt 0.079102 0.296875
vt 0.091797 0.285675
vt 0.091797 0.250000
vt 0.066406 0.250000
vt 0.079102 0.250000
vt 0.079102 0.285886
vt 0.066406 0.286097
vt 0.079102 0.296875
vt 0.091797 0.285675
vt 0.091797 0.250000
vt 0.066406 0.250000
vt 0.079102 0.250000
vt 0.079102 0.285886
vt 0.066406 0.286097
vt 0.079102 0.296875
vt 0.091797 0.285675
vt 0.091797 0.250000
vt 0.066406 0.250000
vt 0.079102 0.250000
vt 0.079102 0.285886
vt 0.066406 0.286097
vt 0.079102 0.296875
vt 0.091797 0.285675
vt 0.091797 0.250000
vt 0.066406 0.250000
vt 0.079102 0.250000
vt 0.079102 0.285886
vt 0.066406 0.286097
vt 0.079102 0.296875
vt 0.091797 0.285675
vt 0.091797 0.250000
vt 0.066406 0.250000
vt 0.079102 0.250000
vt 0.079102 0.285886
vt 0.066406 0.286097
vt 0.079102 0.296875
vt 0.091797 0.285675
vt 0.091797 0.250000
vt 0.066406 0.250000
vt 0.079102 0.250000
vt 0.079102 0.285886
vt 0.066406 0.286097
vt 0.079102 0.296875
vt 0.091797 0.285675
vt 0.091797 0.250000
vt 0.066406 0.250000
vt 0.079102 0.250000
vt 0.079102 0.285886
vt 0.066406 0.286097
vt 0.079102 0.296875
vt 0.091797 0.285675
vt 0.091797 0.250000
vt 0.066406 0.250000
vt 0.079102 0.250000
vt 0.079102 0.285886
vt 0.066406 0.286097
vt 0.079102 0.296875
vt 0.091797 0.285675
vt 0.091797 0.250000
vt 0.066406 0.250000
vt 0.079102 0.250000
vt 0.079102 0.285886
vt 0.066406 0.286097
vt 0.079102 0.296875
vt 0.091797 0.285675
vt 0.091797 0.250000
vt 0.066406 0.250000
vt 0.079102 0.250000
vt 0.079102 0.285886
vt 0.066406 0.286097
vt 0.079102 0.296875
vt 0.091797 0.285675
vt 0.091797 0.250000
vt 0.066406 0.250000
vt 0.079102 0.250000
vt 0.079102 0.285886
vt 0.066406 0.286097
vt 0.079102 0.296875
vt 0.091797 0.285675
vt 0.091797 0.250000
vt 0.066406 0.250000
vt 0.079102 0.250000
vt 0.079102 0.285886
vt 0.066406 0.286097
vt 0.079102 0.296875
vt 0.091797 0.285675
vt 0.091797 0.250000
vt 0.066406 0.250000
vt 0.079102 0.250000
vt 0.079102 0.285886
vt 0.066406 0.286097
vt 0.079102 0.296875
vt 0.091797 0.285675
vt 0.091797 0.250000
vt 0.066406 0.250000
vt 0.079102 0.250000
vt 0.079102 0.285886
vt 0.066406 0.286097
vt 0.079102 0.296875
vt 0.091797 0.285675
vt 0.091797 0.250000
vt 0.066406 0.250000
vt 0.079102 0.250000
vt 0.079102 0.285886
vt 0.066406 0.286097
vt 0.079102 0.296875
vt 0.091797 0.285675
vt 0.091797 0.250000
vt 0.066406 0.250000
vt 0.079102 0.250000
vt 0.079102 0.285886
vt 0.066406 0.286097
vt 0.079102 0.296875
vt 0.091797 0.285675
vt 0.091797 0.250000
vt 0.066406 0.250000
vt 0.079102 0.250000
vt 0.079102 0.285886
vt 0.066406 0.286097
vt 0.079102 0.296875
vt 0.091797 0.285675
vt 0.091797 0.250000
vt 0.066406 0.250000
vt 0.079102 0.250000
vt 0.079102 0.285886
vt 0.066406 0.286097
vt 0.079102 0.296875
vt 0.091797 0.285675
vt 0.091797 0.250000
vn 0.0233 0.7225 0.6909
vn -0.3685 0.8201 0.4377
vn -0.3634 0.8200 0.4422
vn -0.6767 0.7313 0.0851
vn -0.3363 0.7444 -0.5768
vn 0.1715 0.8686 -0.4649
vn 0.1642 0.8686 -0.4676
vn 0.6303 0.7444 -0.2201
vn 0.3156 0.6167 -0.7211
vn 0.6233 0.7233 -0.2971
vn 0.6199 0.7233 -0.3042
vn 0.7528 0.6232 0.2118
vn 0.7062 0.6641 -0.2455
vn 0.5978 0.7547 0.2701
vn 0.6008 0.7549 0.2629
vn 0.3186 0.6296 0.7086
vn 0.7455 0.6167 0.2524
vn 0.3496 0.7233 0.5954
vn 0.3563 0.7233 0.5915
vn -0.1463 0.6232 0.7682
vn 0.3363 0.7444 0.5768
vn -0.1715 0.8686 0.4649
vn -0.1642 0.8686 0.4676
vn -0.6303 0.7444 0.2201
vn -0.3156 0.6167 0.7211
vn -0.6233 0.7233 0.2971
vn -0.6199 0.7233 0.3042
vn -0.7528 0.6232 -0.2118
vn -0.7062 0.6641 0.2455
vn -0.5978 0.7547 -0.2701
vn -0.6008 0.7549 -0.2629
vn -0.3186 0.6296 -0.7086
vn -0.7455 0.6167 -0.2524
vn -0.3496 0.7233 -0.5954
vn -0.3563 0.7233 -0.5915
vn 0.1463 0.6232 -0.7682
vn -0.1890 0.7683 -0.6115
vn 0.2551 0.8804 -0.3998
vn 0.2489 0.8804 -0.4037
vn 0.6342 0.7683 -0.0862
vn 0.4652 0.6373 -0.6143
vn 0.6597 0.7354 -0.1549
vn 0.6580 0.7353 -0.1620
vn 0.6836 0.6434 0.3446
vn 0.7252 0.6848 -0.0710
vn 0.5143 0.7672 0.3832
vn 0.5184 0.7674 0.3771
vn 0.1709 0.6519 0.7388
vn 0.6521 0.6373 0.4107
vn 0.2110 0.7354 0.6439
vn 0.2180 0.7353 0.6416
vn -0.2846 0.6434 0.7106
vn 0.2427 0.8059 0.5400
vn -0.1934 0.9283 0.3177
vn -0.1872 0.9282 0.3216
vn -0.5802 0.8143 0.0144
vn -0.4652 0.6373 0.6143
vn -0.6597 0.7354 0.1549
vn -0.6580 0.7353 0.1620
vn -0.6836 0.6434 -0.3446
vn -0.7252 0.6848 0.0710
vn -0.5143 0.7672 -0.3832
vn -0.5184 0.7674 -0.3771
vn -0.1709 0.6519 -0.7388
vn -0.6521 0.6373 -0.4107
vn -0.2110 0.7354 -0.6439
vn -0.2180 0.7353 -0.6416
vn 0.2846 0.6434 -0.7106
vn -0.0270 0.7047 -0.7090
vn 0.3798 0.8074 -0.4515
vn 0.3745 0.8073 -0.4561
vn 0.6946 0.7144 -0.0845
vn 0.5495 0.6455 -0.5304
vn 0.6700 0.7402 -0.0568
vn 0.6694 0.7401 -0.0639
vn 0.6244 0.6514 0.4309
vn 0.7197 0.6930 0.0417
vn 0.4486 0.7721 0.4501
vn 0.4534 0.7723 0.4449
vn 0.0669 0.6608 0.7476
vn 0.5757 0.6455 0.5019
vn 0.1142 0.7402 0.6626
vn 0.1212 0.7401 0.6615
vn -0.3756 0.6514 0.6592
vn 0.1083 0.7920 0.6008
vn -0.2870 0.9000 0.3280
vn -0.2817 0.9000 0.3327
vn -0.6129 0.7898 -0.0242
vn -0.5495 0.6455 0.5304
vn -0.6700 0.7402 0.0568
vn -0.6694 0.7401 0.0639
vn -0.6244 0.6514 -0.4309
vn -0.7197 0.6930 -0.0417
vn -0.4486 0.7721 -0.4501
vn -0.4534 0.7723 -0.4449
vn -0.0669 0.6608 -0.7476
vn -0.5757 0.6455 -0.5019
vn -0.1142 0.7402 -0.6626
vn -0.1212 0.7401 -0.6615
vn 0.3756 0.6514 -0.6592
vn -0.1238 0.8210 -0.5572
vn 0.2551 0.9234 -0.2868
vn 0.2499 0.9234 -0.2912
vn 0.5760 0.8160 0.0489
vn 0.5492 0.6558 -0.5180
vn 0.6634 0.7461 -0.0563
vn 0.6628 0.7461 -0.0631
vn 0.6221 0.6616 0.4185
vn 0.7090 0.7034 0.0499
vn 0.4429 0.7782 0.4452
vn 0.4475 0.7784 0.4401
vn 0.0737 0.6720 0.7368
vn 0.5325 0.5779 0.6184
vn 0.0726 0.6879 0.7221
vn 0.0795 0.6875 0.7218
vn -0.4042 0.6367 0.6566
vn -0.5492 0.6558 0.5180
vn -0.6634 0.7461 0.0563
vn -0.6628 0.7461 0.0631
vn -0.6221 0.6616 -0.4185
vn -0.7090 0.7034 -0.0499
vn -0.4429 0.7782 -0.4452
vn -0.4475 0.7784 -0.4401
vn -0.0737 0.6720 -0.7368
vn -0.5632 0.6558 -0.5026
vn -0.1131 0.7461 -0.6561
vn -0.1199 0.7461 -0.6549
vn 0.3634 0.6616 -0.6558
vn 0.0013 0.7642 -0.6450
vn 0.3660 0.8784 -0.3073
vn 0.3612 0.8784 -0.3130
vn 0.6355 0.7642 0.1103
vn 0.6284 0.6335 -0.4514
vn 0.6780 0.7334 0.0501
vn 0.6785 0.7333 0.0427
vn 0.5485 0.6397 0.5384
vn 0.7028 0.6847 0.1927
vn 0.3267 0.7847 0.5267
vn 0.3330 0.7848 0.5228
vn -0.1353 0.6782 0.7222
vn 0.1322 0.6335 0.7624
vn -0.3407 0.7334 0.5882
vn -0.3343 0.7333 0.5920
vn -0.7237 0.6397 0.2589
vn -0.0013 0.7642 0.6450
vn -0.3660 0.8784 0.3073
vn -0.3612 0.8784 0.3130
vn -0.6355 0.7642 -0.1103
vn -0.6284 0.6335 0.4514
vn -0.6780 0.7334 -0.0501
vn -0.6785 0.7333 -0.0427
vn -0.5485 0.6397 -0.5384
vn -0.7173 0.6811 -0.1469
vn -0.3774 0.7651 -0.5217
vn -0.3833 0.7653 -0.5171
vn 0.0617 0.6478 -0.7593
vn -0.5037 0.6335 -0.5873
vn -0.0083 0.7334 -0.6798
vn -0.0158 0.7333 -0.6797
vn 0.4892 0.6397 -0.5928
vn 0.0795 0.7336 -0.6749
vn 0.4261 0.8632 -0.2708
vn 0.4217 0.8632 -0.2776
vn 0.6448 0.7336 0.2146
vn 0.6903 0.6070 -0.3936
vn 0.6812 0.7180 0.1427
vn 0.5122 0.8529 0.1009
vn 0.5976 0.6752 -0.4323
vn 0.2985 0.9534 0.0430
vn 0.3706 0.6834 0.6290
vn 0.4677 0.6136 0.6362
vn 0.7212 0.6544 0.2273
vn 0.3151 0.7491 0.5826
vn 0.3221 0.7494 0.5785
vn -0.1854 0.6191 0.7631
vn 0.3446 0.6070 0.7161
vn -0.1898 0.7180 0.6696
vn -0.1819 0.7179 0.6719
vn -0.6672 0.6136 0.4223
vn -0.0795 0.7336 0.6749
vn -0.4261 0.8632 0.2708
vn -0.4217 0.8632 0.2776
vn -0.6448 0.7336 -0.2146
vn -0.6903 0.6070 0.3936
vn -0.6812 0.7180 -0.1427
vn -0.6829 0.7179 -0.1347
vn -0.4677 0.6136 -0.6362
vn -0.7212 0.6544 -0.2273
vn -0.3151 0.7491 -0.5826
vn -0.3221 0.7494 -0.5785
vn 0.1854 0.6191 -0.7631
vn -0.4515 0.6070 -0.6540
vn 0.0836 0.7180 -0.6910
vn 0.0755 0.7179 -0.6920
vn 0.5936 0.6136 -0.5207
vn 0.5155 0.8508 0.1017
vn 0.5989 0.6744 -0.4318
vn 0.3058 0.9510 0.0447
vn 0.3720 0.6825 0.6291
vn 0.4515 0.6070 0.6540
vn -0.0836 0.7180 0.6910
vn -0.0755 0.7179 0.6920
vn -0.5936 0.6136 0.5207
vn -0.2917 0.9377 0.1886
vn 0.0136 0.7722 0.6352
vn -0.1226 0.9878 0.0957
vn -0.5701 0.7734 -0.2773
vn 0.2508 0.7566 -0.6038
vn 0.4841 0.8352 -0.2609
vn 0.4814 0.8351 -0.2661
vn 0.6311 0.7650 0.1285
vn 0.6808 0.6935 -0.2357
vn 0.6130 0.7680 0.1852
vn 0.6147 0.7680 0.1796
vn 0.4303 0.6987 0.5715
vn 0.5902 0.7409 0.3204
vn 0.2339 0.8005 0.5518
vn 0.2392 0.8007 0.5492
vn -0.1654 0.7128 0.6816
vn 0.2933 0.6935 0.6580
vn -0.1318 0.7680 0.6267
vn -0.1260 0.7680 0.6279
vn -0.5323 0.6987 0.4779
vn -0.1249 0.8449 0.5200
vn -0.3413 0.9236 0.1744
vn -0.3386 0.9236 0.1795
vn -0.4987 0.8430 -0.2012
vn -0.6808 0.6935 0.2357
vn -0.6130 0.7680 -0.1852
vn -0.6147 0.7680 -0.1796
vn -0.4303 0.6987 -0.5715
vn -0.5902 0.7409 -0.3204
vn -0.2339 0.8005 -0.5518
vn -0.2392 0.8007 -0.5492
vn 0.1654 0.7128 -0.6816
vn -0.2933 0.6935 -0.6580
vn 0.1318 0.7680 -0.6267
vn 0.1260 0.7680 -0.6279
vn 0.5323 0.6987 -0.4779
vn 0.0538 0.7032 -0.7089
vn 0.4304 0.8073 -0.4036
vn 0.4256 0.8072 -0.4089
vn 0.7012 0.7129 0.0010
vn 0.6066 0.6434 -0.4670
vn 0.6720 0.7401 0.0226
vn 0.4594 0.8882 0.0077
vn 0.4928 0.7196 -0.4892
vn 0.2050 0.9787 -0.0130
vn 0.4550 0.7272 0.5139
vn 0.5672 0.6494 0.5064
vn 0.7120 0.6914 0.1225
vn 0.3924 0.7721 0.4999
vn 0.3979 0.7723 0.4952
vn -0.0257 0.6588 0.7518
vn 0.5174 0.6434 0.5642
vn 0.0353 0.7401 0.6715
vn 0.0425 0.7401 0.6712
vn -0.4558 0.6494 0.6087
vn 0.0374 0.7917 0.6098
vn -0.3237 0.9000 0.2919
vn -0.1908 0.9659 0.1748
vn 0.1290 0.8279 0.5459
vn -0.0333 0.9983 0.0470
vn -0.5341 0.8267 -0.1766
vn -0.6061 0.7894 -0.0969
vn -0.6066 0.6434 0.4670
vn -0.6720 0.7401 -0.0226
vn -0.6723 0.7401 -0.0153
vn -0.5672 0.6494 -0.5064
vn -0.7120 0.6914 -0.1225
vn -0.3924 0.7721 -0.4999
vn -0.3979 0.7723 -0.4952
vn 0.0257 0.6588 -0.7518
vn -0.5174 0.6434 -0.5642
vn -0.0353 0.7401 -0.6715
vn -0.0425 0.7401 -0.6712
vn 0.4558 0.6494 -0.6087
vn -0.4652 0.6386 -0.6129
vn 0.1615 0.8110 -0.5622
vn 0.1516 0.8110 -0.5651
vn 0.7196 0.6386 -0.2725
vn 0.2115 0.5275 -0.8227
vn 0.6445 0.6707 -0.3670
vn 0.6393 0.6706 -0.3761
vn 0.8095 0.5351 0.2413
vn 0.7201 0.5734 -0.3906
vn 0.6730 0.6990 0.2418
vn 0.6762 0.6993 0.2318
vn 0.3446 0.5324 0.7732
vn 0.8379 0.5275 0.1400
vn 0.4210 0.6707 0.6106
vn 0.4296 0.6706 0.6046
vn -0.1708 0.5351 0.8273
vn 0.4652 0.6386 0.6129
vn -0.1615 0.8110 0.5622
vn -0.1516 0.8110 0.5651
vn -0.7196 0.6386 0.2725
vn -0.2115 0.5275 0.8227
vn -0.6445 0.6707 0.3670
vn -0.6393 0.6706 0.3761
vn -0.8095 0.5351 -0.2413
vn -0.7201 0.5734 0.3906
vn -0.6730 0.6990 -0.2418
vn -0.6762 0.6993 -0.2318
vn -0.3446 0.5324 -0.7732
vn -0.8379 0.5275 -0.1400
vn -0.4210 0.6707 -0.6106
vn -0.4210 0.6708 -0.6106
vn -0.4296 0.6706 -0.6046
vn 0.1708 0.5351 -0.8273
vn -0.6503 0.5905 -0.4779
vn 0.0052 0.7808 -0.6247
vn -0.0063 0.7808 -0.6247
vn 0.6581 0.5905 -0.4670
vn -0.0454 0.4885 -0.8714
vn 0.5383 0.6455 -0.5419
vn 0.5300 0.6453 -0.5501
vn 0.8668 0.4965 0.0444
vn 0.5889 0.5332 -0.6073
vn 0.7389 0.6717 0.0526
vn 0.7393 0.6721 0.0410
vn 0.5363 0.4897 0.6874
vn 0.8642 0.4885 -0.1202
vn 0.5861 0.6455 0.4897
vn 0.5936 0.6453 0.4808
vn 0.0302 0.4965 0.8675
vn 0.6503 0.5905 0.4779
vn -0.0052 0.7808 0.6247
vn 0.0063 0.7808 0.6247
vn -0.6581 0.5905 0.4670
vn 0.0454 0.4885 0.8714
vn -0.5383 0.6455 0.5419
vn -0.5300 0.6453 0.5501
vn -0.8668 0.4965 -0.0444
vn -0.5889 0.5332 0.6073
vn -0.7389 0.6717 -0.0526
vn -0.5727 0.8180 -0.0527
vn -0.4851 0.6004 0.6357
vn -0.3263 0.9452 -0.0135
vn -0.4443 0.5505 -0.7067
vn -0.5363 0.4897 -0.6874
vn -0.8642 0.4885 0.1202
vn -0.5861 0.6455 -0.4897
vn -0.5936 0.6453 -0.4808
vn -0.0302 0.4965 -0.8675
vn -0.7962 0.5175 -0.3134
vn -0.1502 0.7322 -0.6643
vn -0.1502 0.7322 -0.6642
vn -0.1633 0.7322 -0.6612
vn 0.5840 0.5175 -0.6254
vn -0.3182 0.4219 -0.8490
vn 0.4151 0.6108 -0.6742
vn 0.4025 0.6106 -0.6820
vn 0.8977 0.4308 -0.0923
vn 0.3995 0.4668 -0.7889
vn 0.7639 0.6330 -0.1253
vn 0.7611 0.6334 -0.1395
vn 0.6693 0.4189 0.6136
vn 0.8184 0.4219 -0.3900
vn 0.7074 0.6108 0.3556
vn 0.7140 0.6106 0.3424
vn 0.1691 0.4308 0.8864
vn 0.7962 0.5175 0.3134
vn 0.1502 0.7322 0.6643
vn 0.1502 0.7322 0.6642
vn 0.1633 0.7322 0.6612
vn -0.5840 0.5175 0.6254
vn 0.3182 0.4219 0.8490
vn -0.4151 0.6108 0.6742
vn -0.4025 0.6106 0.6820
vn -0.8977 0.4308 0.0923
vn -0.3995 0.4668 0.7889
vn -0.7639 0.6330 0.1253
vn -0.6809 0.7248 0.1048
vn -0.3265 0.5116 0.7947
vn -0.5314 0.8406 0.1046
vn -0.6137 0.4584 -0.6428
vn -0.6693 0.4189 -0.6136
vn -0.8184 0.4219 0.3900
vn -0.7074 0.6108 -0.3556
vn -0.7140 0.6106 -0.3424
vn -0.1691 0.4308 -0.8864
vn -0.8410 0.5175 -0.1579
vn -0.2725 0.7322 -0.6241
vn -0.2848 0.7322 -0.6187
vn 0.4558 0.5175 -0.7242
vn -0.4723 0.4219 -0.7739
vn 0.2807 0.6108 -0.7403
vn 0.2669 0.6106 -0.7455
vn 0.8643 0.4308 -0.2596
vn 0.2439 0.4668 -0.8500
vn 0.7266 0.6330 -0.2669
vn 0.7212 0.6334 -0.2803
vn 0.7729 0.4189 0.4766
vn 0.7304 0.4219 -0.5371
vn 0.7617 0.6108 0.2161
vn 0.7657 0.6106 0.2018
vn 0.3329 0.4308 0.8388
vn 0.8410 0.5175 0.1579
vn 0.2725 0.7322 0.6241
vn 0.2848 0.7322 0.6187
vn -0.4558 0.5175 0.7242
vn 0.4723 0.4219 0.7739
vn -0.2807 0.6108 0.7403
vn -0.2669 0.6106 0.7455
vn -0.8643 0.4308 0.2596
vn -0.2439 0.4668 0.8500
vn -0.7266 0.6330 0.2669
vn -0.7212 0.6334 0.2803
vn -0.7729 0.4189 -0.4766
vn -0.7304 0.4219 0.5371
vn -0.7617 0.6108 -0.2161
vn -0.7657 0.6106 -0.2018
vn -0.3329 0.4308 -0.8388
vn -0.7204 0.5175 -0.4617
vn -0.0186 0.7322 -0.6807
vn -0.0321 0.7322 -0.6803
vn 0.6941 0.5175 -0.5004
vn -0.0496 0.4668 0.8829
vn -0.6495 0.6330 0.4211
vn -0.6413 0.6334 0.4330
vn -0.8592 0.4189 -0.2937
vn -0.5934 0.4219 0.6855
vn -0.7906 0.6108 -0.0421
vn -0.7914 0.6106 -0.0273
vn -0.5104 0.4308 -0.7443
vn 0.8785 0.4219 -0.2241
vn 0.6251 0.6108 0.4859
vn 0.6342 0.6106 0.4742
vn -0.0058 0.4308 0.9024
usemtl frostland_tilesheet
s 1
f 82/268/58 85/269/59 84/270/59 87/271/58
f 87/271/58 84/270/59 86/272/60
f 86/272/60 84/270/59 88/273/61
f 88/273/61 84/270/59 85/269/59 83/274/61
f 89/275/62 92/276/63 91/277/63 94/278/62
f 94/278/62 91/277/63 93/279/64
f 93/279/64 91/277/63 95/280/65
f 95/280/65 91/277/63 92/276/63 90/281/65
f 96/282/66 99/283/67 98/284/67 101/285/66
f 101/285/66 98/284/67 100/286/68
f 100/286/68 98/284/67 102/287/69
f 102/287/69 98/284/67 99/283/67 97/288/69
f 103/289/70 106/290/71 105/291/71 108/292/70
f 108/292/70 105/291/71 107/293/72
f 107/293/72 105/291/71 109/294/73
f 109/294/73 105/291/71 106/290/71 104/295/73
f 110/296/74 113/297/75 112/298/75 115/299/74
f 115/299/74 112/298/75 114/300/76
f 114/300/76 112/298/75 116/301/77
f 116/301/77 112/298/75 113/297/75 111/302/77
f 117/303/78 120/304/79 119/305/79 122/306/78
f 122/306/78 119/305/79 121/307/80
f 121/307/80 119/305/79 123/308/81
f 123/308/81 119/305/79 120/304/79 118/309/81
f 124/310/82 127/311/83 126/312/83 129/313/82
f 129/313/82 126/312/83 128/314/84
f 128/314/84 126/312/83 130/315/85
f 130/315/85 126/312/83 127/311/83 125/316/85
f 131/317/86 134/318/87 133/319/87 136/320/86
f 136/320/86 133/319/87 135/321/88
f 135/321/88 133/319/87 137/322/89
f 137/322/89 133/319/87 134/318/87 132/323/89
f 138/324/90 141/325/91 140/326/91 143/327/90
f 143/327/90 140/326/91 142/328/92
f 142/328/92 140/326/91 144/329/93
f 144/329/93 140/326/91 141/325/91 139/330/93
f 145/331/94 148/332/95 147/333/95 150/334/94
f 150/334/94 147/333/95 149/335/96
f 149/335/96 147/333/95 151/336/97
f 151/336/97 147/333/95 148/332/95 146/337/97
f 152/338/98 155/339/99 154/340/99 157/341/98
f 157/341/98 154/340/99 156/342/100
f 156/342/100 154/340/99 158/343/101
f 158/343/101 154/340/99 155/339/99 153/344/101
f 159/345/102 162/346/103 161/347/103 164/348/102
f 164/348/102 161/347/103 163/349/104
f 163/349/104 161/347/103 165/350/105
f 165/350/105 161/347/103 162/346/103 160/351/105
f 166/352/106 169/353/107 168/354/107 171/355/106
f 171/355/106 168/354/107 170/356/108
f 170/356/108 168/354/107 172/357/109
f 172/357/109 168/354/107 169/353/107 167/358/109
f 173/359/110 176/360/111 175/361/111 178/362/110
f 178/362/110 175/361/111 177/363/112
f 177/363/112 175/361/111 179/364/113
f 179/364/113 175/361/111 176/360/111 174/365/113
f 180/366/114 183/367/115 182/368/115 185/369/114
f 185/369/114 182/368/115 184/370/116
f 184/370/116 182/368/115 186/371/117
f 186/371/117 182/368/115 183/367/115 181/372/117
f 187/373/118 190/374/119 189/375/119 192/376/118
f 192/376/118 189/375/119 191/377/120
f 191/377/120 189/375/119 193/378/121
f 193/378/121 189/375/119 190/374/119 188/379/121
f 194/380/122 197/381/123 196/382/123 199/383/122
f 199/383/122 196/382/123 198/384/124
f 198/384/124 196/382/123 200/385/125
f 200/385/125 196/382/123 197/381/123 195/386/125
f 201/387/126 204/388/127 203/389/127 206/390/126
f 206/390/126 203/389/127 205/391/128
f 205/391/128 203/389/127 207/392/129
f 207/392/129 203/389/127 204/388/127 202/393/129
f 208/394/130 211/395/131 210/396/131 213/397/130
f 213/397/130 210/396/131 212/398/132
f 212/398/132 210/396/131 214/399/133
f 214/399/133 210/396/131 211/395/131 209/400/133
f 215/401/134 218/402/135 217/403/135 220/404/134
f 220/404/134 217/403/135 219/405/136
f 219/405/136 217/403/135 221/406/137
f 221/406/137 217/403/135 218/402/135 216/407/137
f 222/408/138 225/409/139 224/410/139 227/411/138
f 227/411/138 224/410/139 226/412/140
f 226/412/140 224/410/139 228/413/141
f 228/413/141 224/410/139 225/409/139 223/414/141
f 229/415/142 232/416/143 231/417/143 234/418/142
f 234/418/142 231/417/143 233/419/144
f 233/419/144 231/417/143 235/420/145
f 235/420/145 231/417/143 232/416/143 230/421/145
f 236/422/146 239/423/147 238/424/147 241/425/146
f 241/425/146 238/424/147 240/426/148
f 240/426/148 238/424/147 242/427/149
f 242/427/149 238/424/147 239/423/147 237/428/149
f 243/429/150 246/430/151 245/431/151 248/432/150
f 248/432/150 245/431/151 247/433/152
f 247/433/152 245/431/151 249/434/153
f 249/434/153 245/431/151 246/430/151 244/435/153
f 250/436/154 253/437/155 252/438/155 255/439/154
f 255/439/154 252/438/155 254/440/156
f 254/440/156 252/438/155 256/441/157
f 256/441/157 252/438/155 253/437/155 251/442/157
f 257/443/158 260/444/159 259/445/159 262/446/158
f 262/446/158 259/445/159 261/447/160
f 261/447/160 259/445/159 263/448/161
f 263/448/161 259/445/159 260/444/159 258/449/161
f 264/450/162 267/451/163 266/452/163 269/453/162
f 269/453/162 266/452/163 268/454/164
f 268/454/164 266/452/163 270/455/165
f 270/455/165 266/452/163 267/451/163 265/456/165
f 271/457/166 274/458/167 273/459/167 276/460/166
f 276/460/166 273/459/167 275/461/168
f 275/461/168 273/459/167 277/462/169
f 277/462/169 273/459/167 274/458/167 272/463/169
f 278/464/170 281/465/171 280/466/171 283/467/170
f 283/467/170 280/466/171 282/468/172
f 282/468/172 280/466/171 284/469/173
f 284/469/173 280/466/171 281/465/171 279/470/173
f 285/471/174 288/472/175 287/473/175 290/474/174
f 290/474/174 287/473/175 289/475/176
f 289/475/176 287/473/175 291/476/177
f 291/476/177 287/473/175 288/472/175 286/477/177
f 292/478/178 295/479/179 294/480/179 297/481/178
f 297/481/178 294/480/179 296/482/180
f 296/482/180 294/480/179 298/483/181
f 298/483/181 294/480/179 295/479/179 293/484/181
f 299/485/182 302/486/183 301/487/183 304/488/182
f 304/488/182 301/487/183 303/489/184
f 303/489/184 301/487/183 305/490/185
f 305/490/185 301/487/183 302/486/183 300/491/185
f 306/492/186 309/493/187 308/494/187 311/495/186
f 311/495/186 308/494/187 310/496/188
f 310/496/188 308/494/187 312/497/189
f 312/497/189 308/494/187 309/493/187 307/498/189
f 313/499/190 316/500/191 315/501/191 318/502/190
f 318/502/190 315/501/191 317/503/192
f 317/503/192 315/501/191 319/504/193
f 319/504/193 315/501/191 316/500/191 314/505/193
f 320/506/194 323/507/195 322/508/195 325/509/194
f 325/509/194 322/508/195 324/510/196
f 324/510/196 322/508/195 326/511/197
f 326/511/197 322/508/195 323/507/195 321/512/197
f 327/513/198 330/514/199 329/515/199 332/516/198
f 332/516/198 329/515/199 331/517/200
f 331/517/200 329/515/199 333/518/201
f 333/518/201 329/515/199 330/514/199 328/519/201
f 334/520/202 337/521/203 336/522/203 339/523/202
f 339/523/202 336/522/203 338/524/204
f 338/524/204 336/522/203 340/525/205
f 340/525/205 336/522/203 337/521/203 335/526/205
f 341/527/206 344/528/207 343/529/207 346/530/206
f 346/530/206 343/529/207 345/531/208
f 345/531/208 343/529/207 347/532/209
f 347/532/209 343/529/207 344/528/207 342/533/209
f 348/534/210 351/535/211 350/536/211 353/537/210
f 353/537/210 350/536/211 352/538/212
f 352/538/212 350/536/211 354/539/213
f 354/539/213 350/536/211 351/535/211 349/540/213
f 355/541/214 358/542/215 357/543/215 360/544/214
f 360/544/214 357/543/215 359/545/216
f 359/545/216 357/543/215 361/546/217
f 361/546/217 357/543/215 358/542/215 356/547/217
f 362/548/218 365/549/219 364/550/219 367/551/218
f 367/551/218 364/550/219 366/552/220
f 366/552/220 364/550/219 368/553/221
f 368/553/221 364/550/219 365/549/219 363/554/221
f 369/555/222 372/556/223 371/557/224 374/558/225
f 374/558/225 371/557/224 373/559/226
f 373/559/226 371/557/224 375/560/227
f 375/560/227 371/557/224 372/556/223 370/561/228
f 376/562/229 379/563/230 378/564/230 381/565/229
f 381/565/229 378/564/230 380/566/231
f 380/566/231 378/564/230 382/567/232
f 382/567/232 378/564/230 379/563/230 377/568/232
f 383/569/233 386/570/234 385/571/234 388/572/233
f 388/572/233 385/571/234 387/573/235
f 387/573/235 385/571/234 389/574/236
f 389/574/236 385/571/234 386/570/234 384/575/236
f 390/576/237 393/577/238 392/578/238 395/579/237
f 395/579/237 392/578/238 394/580/239
f 394/580/239 392/578/238 396/581/240
f 396/581/240 392/578/238 393/577/238 391/582/240
f 397/583/241 400/584/242 399/585/242 402/586/241
f 402/586/241 399/585/242 401/587/243
f 401/587/243 399/585/242 403/588/244
f 403/588/244 399/585/242 400/584/242 398/589/244
f 404/590/245 407/591/246 406/592/246 409/593/245
f 409/593/245 406/592/246 408/594/247
f 408/594/247 406/592/246 410/595/248
f 410/595/248 406/592/246 407/591/246 405/596/248
f 411/597/249 414/598/250 413/599/250 416/600/249
f 416/600/249 413/599/250 415/601/251
f 415/601/251 413/599/250 417/602/252
f 417/602/252 413/599/250 414/598/250 412/603/252
f 418/604/218 421/605/219 420/606/219 423/607/218
f 423/607/218 420/606/219 422/608/220
f 422/608/220 420/606/219 424/609/221
f 424/609/221 420/606/219 421/605/219 419/610/221
f 425/611/222 428/612/223 427/613/253 430/614/254
f 430/614/254 427/613/253 429/615/255
f 429/615/255 427/613/253 431/616/256
f 431/616/256 427/613/253 428/612/223 426/617/228
f 432/618/229 435/619/230 434/620/230 437/621/229
f 437/621/229 434/620/230 436/622/231
f 436/622/231 434/620/230 438/623/232
f 438/623/232 434/620/230 435/619/230 433/624/232
f 439/625/257 442/626/258 441/627/258 444/628/257
f 444/628/257 441/627/258 443/629/259
f 443/629/259 441/627/258 445/630/260
f 445/630/260 441/627/258 442/626/258 440/631/260
f 446/632/237 449/633/238 448/634/261 451/635/262
f 451/635/262 448/634/261 450/636/263
f 450/636/263 448/634/261 452/637/264
f 452/637/264 448/634/261 449/633/238 447/638/240
f 453/639/241 456/640/242 455/641/242 458/642/241
f 458/642/241 455/641/242 457/643/243
f 457/643/243 455/641/242 459/644/244
f 459/644/244 455/641/242 456/640/242 454/645/244
f 460/646/245 463/647/246 462/648/246 465/649/245
f 465/649/245 462/648/246 464/650/247
f 464/650/247 462/648/246 466/651/248
f 466/651/248 462/648/246 463/647/246 461/652/248
f 467/653/249 470/654/250 469/655/250 472/656/249
f 472/656/249 469/655/250 471/657/251
f 471/657/251 469/655/250 473/658/252
f 473/658/252 469/655/250 470/654/250 468/659/252
f 474/660/265 477/661/266 476/662/266 479/663/265
f 479/663/265 476/662/266 478/664/267
f 478/664/267 476/662/266 480/665/268
f 480/665/268 476/662/266 477/661/266 475/666/268
f 481/667/269 484/668/270 483/669/270 486/670/269
f 486/670/269 483/669/270 485/671/271
f 485/671/271 483/669/270 487/672/272
f 487/672/272 483/669/270 484/668/270 482/673/272
f 488/674/273 491/675/274 490/676/274 493/677/273
f 493/677/273 490/676/274 492/678/275
f 492/678/275 490/676/274 494/679/276
f 494/679/276 490/676/274 491/675/274 489/680/276
f 495/681/277 498/682/278 497/683/278 500/684/277
f 500/684/277 497/683/278 499/685/279
f 499/685/279 497/683/278 501/686/280
f 501/686/280 497/683/278 498/682/278 496/687/280
f 502/688/281 505/689/282 504/690/282 507/691/281
f 507/691/281 504/690/282 506/692/283
f 506/692/283 504/690/282 508/693/284
f 508/693/284 504/690/282 505/689/282 503/694/284
f 509/695/285 512/696/286 511/697/286 514/698/285
f 514/698/285 511/697/286 513/699/287
f 513/699/287 511/697/286 515/700/288
f 515/700/288 511/697/286 512/696/286 510/701/288
f 516/702/289 519/703/290 518/704/290 521/705/289
f 521/705/289 518/704/290 520/706/291
f 520/706/291 518/704/290 522/707/292
f 522/707/292 518/704/290 519/703/290 517/708/292
f 523/709/293 526/710/294 525/711/294 528/712/293
f 528/712/293 525/711/294 527/713/295
f 527/713/295 525/711/294 529/714/296
f 529/714/296 525/711/294 526/710/294 524/715/296
f 530/716/297 533/717/298 532/718/298 535/719/297
f 535/719/297 532/718/298 534/720/299
f 534/720/299 532/718/298 536/721/300
f 536/721/300 532/718/298 533/717/298 531/722/300
f 537/723/301 540/724/302 539/725/303 542/726/304
f 542/726/304 539/725/303 541/727/305
f 541/727/305 539/725/303 543/728/306
f 543/728/306 539/725/303 540/724/302 538/729/307
f 544/730/308 547/731/309 546/732/309 549/733/308
f 549/733/308 546/732/309 548/734/310
f 548/734/310 546/732/309 550/735/311
f 550/735/311 546/732/309 547/731/309 545/736/311
f 551/737/312 554/738/313 553/739/313 556/740/312
f 556/740/312 553/739/313 555/741/314
f 555/741/314 553/739/313 557/742/315
f 557/742/315 553/739/313 554/738/313 552/743/315
f 558/744/316 561/745/317 560/746/318 563/747/319
f 563/747/319 560/746/318 562/748/320
f 562/748/320 560/746/318 564/749/321
f 564/749/321 560/746/318 561/745/317 559/750/322
f 565/751/323 568/752/324 567/753/324 570/754/323
f 570/754/323 567/753/324 569/755/325
f 569/755/325 567/753/324 571/756/326
f 571/756/326 567/753/324 568/752/324 566/757/326
f 572/758/327 575/759/328 574/760/328 577/761/327
f 577/761/327 574/760/328 576/762/329
f 576/762/329 574/760/328 578/763/330
f 578/763/330 574/760/328 575/759/328 573/764/330
f 579/765/331 582/766/332 581/767/332 584/768/331
f 584/768/331 581/767/332 583/769/333
f 583/769/333 581/767/332 585/770/334
f 585/770/334 581/767/332 582/766/332 580/771/334
f 586/772/335 589/773/336 588/774/336 591/775/335
f 591/775/335 588/774/336 590/776/337
f 590/776/337 588/774/336 592/777/338
f 592/777/338 588/774/336 589/773/336 587/778/338
f 593/779/339 596/780/340 595/781/340 598/782/339
f 598/782/339 595/781/340 597/783/341
f 597/783/341 595/781/340 599/784/342
f 599/784/342 595/781/340 596/780/340 594/785/342
f 600/786/343 603/787/344 602/788/344 605/789/343
f 605/789/343 602/788/344 604/790/345
f 604/790/345 602/788/344 606/791/346
f 606/791/346 602/788/344 603/787/344 601/792/346
f 607/793/347 610/794/348 609/795/348 612/796/347
f 612/796/347 609/795/348 611/797/349
f 611/797/349 609/795/348 613/798/350
f 613/798/350 609/795/348 610/794/348 608/799/350
f 614/800/351 617/801/352 616/802/352 619/803/351
f 619/803/351 616/802/352 618/804/353
f 618/804/353 616/802/352 620/805/354
f 620/805/354 616/802/352 617/801/352 615/806/354
f 621/807/355 624/808/356 623/809/356 626/810/355
f 626/810/355 623/809/356 625/811/357
f 625/811/357 623/809/356 627/812/358
f 627/812/358 623/809/356 624/808/356 622/813/358
f 628/814/359 631/815/360 630/816/360 633/817/359
f 633/817/359 630/816/360 632/818/361
f 632/818/361 630/816/360 634/819/362
f 634/819/362 630/816/360 631/815/360 629/820/362
f 635/821/363 638/822/364 637/823/365 640/824/363
f 640/824/363 637/823/365 639/825/366
f 639/825/366 637/823/365 641/826/367
f 641/826/367 637/823/365 638/822/364 636/827/367
f 642/828/368 645/829/369 644/830/369 647/831/368
f 647/831/368 644/830/369 646/832/370
f 646/832/370 644/830/369 648/833/371
f 648/833/371 644/830/369 645/829/369 643/834/371
f 649/835/372 652/836/373 651/837/373 654/838/372
f 654/838/372 651/837/373 653/839/374
f 653/839/374 651/837/373 655/840/375
f 655/840/375 651/837/373 652/836/373 650/841/375
f 656/842/376 659/843/377 658/844/377 661/845/376
f 661/845/376 658/844/377 660/846/378
f 660/846/378 658/844/377 662/847/379
f 662/847/379 658/844/377 659/843/377 657/848/379
f 663/849/380 666/850/381 665/851/381 668/852/380
f 668/852/380 665/851/381 667/853/382
f 667/853/382 665/851/381 669/854/383
f 669/854/383 665/851/381 666/850/381 664/855/383
f 670/856/384 673/857/385 672/858/385 675/859/384
f 675/859/384 672/858/385 674/860/386
f 674/860/386 672/858/385 676/861/387
f 676/861/387 672/858/385 673/857/385 671/862/387
f 677/863/388 680/864/389 679/865/389 682/866/388
f 682/866/388 679/865/389 681/867/390
f 681/867/390 679/865/389 683/868/391
f 683/868/391 679/865/389 680/864/389 678/869/391
f 684/870/392 687/871/393 686/872/394 689/873/395
f 689/873/395 686/872/394 688/874/396
f 688/874/396 686/872/394 690/875/397
f 690/875/397 686/872/394 687/871/393 685/876/398
f 691/877/399 694/878/400 693/879/400 696/880/399
f 696/880/399 693/879/400 695/881/401
f 695/881/401 693/879/400 697/882/402
f 697/882/402 693/879/400 694/878/400 692/883/402
f 698/884/403 701/885/404 700/886/405 703/887/403
f 703/887/403 700/886/405 702/888/406
f 702/888/406 700/886/405 704/889/407
f 704/889/407 700/886/405 701/885/404 699/890/407
f 705/891/408 708/892/409 707/893/409 710/894/408
f 710/894/408 707/893/409 709/895/410
f 709/895/410 707/893/409 711/896/411
f 711/896/411 707/893/409 708/892/409 706/897/411
f 712/898/412 715/899/413 714/900/413 717/901/412
f 717/901/412 714/900/413 716/902/414
f 716/902/414 714/900/413 718/903/415
f 718/903/415 714/900/413 715/899/413 713/904/415
f 719/905/416 722/906/417 721/907/417 724/908/416
f 724/908/416 721/907/417 723/909/418
f 723/909/418 721/907/417 725/910/419
f 725/910/419 721/907/417 722/906/417 720/911/419
f 726/912/420 729/913/421 728/914/422 731/915/420
f 731/915/420 728/914/422 730/916/423
f 730/916/423 728/914/422 732/917/424
f 732/917/424 728/914/422 729/913/421 727/918/424
f 733/919/425 736/920/426 735/921/426 738/922/425
f 738/922/425 735/921/426 737/923/427
f 737/923/427 735/921/426 739/924/428
f 739/924/428 735/921/426 736/920/426 734/925/428
f 740/926/429 743/927/430 742/928/431 745/929/432
f 745/929/432 742/928/431 744/930/433
f 744/930/433 742/928/431 746/931/434
f 746/931/434 742/928/431 743/927/430 741/932/435
f 747/933/436 750/934/437 749/935/437 752/936/436
f 752/936/436 749/935/437 751/937/438
f 751/937/438 749/935/437 753/938/439
f 753/938/439 749/935/437 750/934/437 748/939/439
f 754/940/440 757/941/441 756/942/441 759/943/440
f 759/943/440 756/942/441 758/944/442
f 758/944/442 756/942/441 760/945/443
f 760/945/443 756/942/441 757/941/441 755/946/443
f 761/947/444 764/948/445 763/949/445 766/950/444
f 766/950/444 763/949/445 765/951/446
f 765/951/446 763/949/445 767/952/447
f 767/952/447 763/949/445 764/948/445 762/953/447
f 768/954/448 771/955/449 770/956/449 773/957/448
f 773/957/448 770/956/449 772/958/450
f 772/958/450 770/956/449 774/959/451
f 774/959/451 770/956/449 771/955/449 769/960/451
f 775/961/452 778/962/453 777/963/453 780/964/452
f 780/964/452 777/963/453 779/965/454
f 779/965/454 777/963/453 781/966/455
f 781/966/455 777/963/453 778/962/453 776/967/455
f 782/968/456 785/969/457 784/970/457 787/971/456
f 787/971/456 784/970/457 786/972/458
f 786/972/458 784/970/457 788/973/459
f 788/973/459 784/970/457 785/969/457 783/974/459
f 789/975/460 792/976/461 791/977/461 794/978/460
f 794/978/460 791/977/461 793/979/462
f 793/979/462 791/977/461 795/980/463
f 795/980/463 791/977/461 792/976/461 790/981/463
f 796/982/464 799/983/465 798/984/465 801/985/464
f 801/985/464 798/984/465 800/986/466
f 800/986/466 798/984/465 802/987/467
f 802/987/467 798/984/465 799/983/465 797/988/467
f 803/989/468 806/990/469 805/991/469 808/992/468
f 808/992/468 805/991/469 807/993/470
f 807/993/470 805/991/469 809/994/471
f 809/994/471 805/991/469 806/990/469 804/995/471
f 810/996/472 813/997/473 812/998/473 815/999/472
f 815/999/472 812/998/473 814/1000/474
f 814/1000/474 812/998/473 816/1001/475
f 816/1001/475 812/998/473 813/997/473 811/1002/475
f 817/1003/476 820/1004/477 819/1005/477 822/1006/476
f 822/1006/476 819/1005/477 821/1007/478
f 821/1007/478 819/1005/477 823/1008/479
f 823/1008/479 819/1005/477 820/1004/477 818/1009/479
f 824/1010/480 827/1011/481 826/1012/481 829/1013/480
f 829/1013/480 826/1012/481 828/1014/482
f 828/1014/482 826/1012/481 830/1015/483
f 830/1015/483 826/1012/481 827/1011/481 825/1016/483
f 831/1017/484 834/1018/485 833/1019/485 836/1020/484
f 836/1020/484 833/1019/485 835/1021/486
f 835/1021/486 833/1019/485 837/1022/487
f 837/1022/487 833/1019/485 834/1018/485 832/1023/487
