# Blender v2.93.5 OBJ File: 'Cavern_Dead_Tree_02.blend'
# www.blender.org
mtllib Cavern_Dead_Tree_02.mtl
o Cube
v 0.151245 1.469443 -0.125000
v 0.075776 0.554111 -0.084992
v -0.114598 0.000000 -0.118481
v 0.199108 0.956380 -0.148610
v 0.181558 0.554111 -0.190775
v 0.087240 0.000000 -0.320319
v 0.321737 0.956380 -0.200018
v 0.257915 0.554111 -0.161349
v 0.321737 0.956380 -0.097201
v 0.105202 0.554111 -0.161349
v 0.218920 0.956380 -0.097201
v 0.270328 0.956380 -0.219830
v 0.218920 0.956380 -0.200018
v -0.058452 0.000000 -0.264173
v 0.105202 0.554111 -0.008636
v 0.232933 0.000000 0.027212
v 0.257915 0.554111 -0.008636
v 0.232933 0.000000 -0.264173
v -0.058452 0.000000 0.027212
v 0.125000 0.250000 0.003806
v 0.253806 0.250000 -0.125000
v 0.217976 0.250000 -0.217976
v 0.032024 0.250000 -0.032024
v 0.217976 0.250000 -0.032024
v 0.125000 0.250000 -0.253806
v 0.032024 0.250000 -0.217976
v -0.003806 0.250000 -0.125000
v 0.287341 0.554111 -0.084992
v 0.289079 0.000000 -0.118481
v 0.341548 0.956380 -0.148610
v 0.181558 0.554111 0.020790
v 0.087240 0.000000 0.083358
v 0.270328 0.956380 -0.077390
v -0.329412 0.000000 -0.123583
v -0.079412 0.000000 -0.042816
v -0.079412 0.000000 -0.150221
v -0.058774 0.067610 -0.063874
v -0.059808 0.096777 -0.094914
v -0.079412 0.067610 -0.128720
v -0.204412 0.000000 -0.128582
v -0.204412 0.000000 -0.021178
v -0.204412 0.053216 -0.107082
v -0.204412 0.082382 -0.073275
v -0.204412 0.053216 -0.042236
v 0.441012 -0.000249 0.234426
v 0.262001 -0.000249 -0.125021
v 0.145260 -0.000249 0.039441
v 0.232003 0.068686 -0.066779
v 0.203519 0.123263 -0.039217
v 0.188321 0.068686 0.008286
v 0.295508 -0.000249 0.126444
v 0.397135 -0.000249 0.034457
v 0.315851 0.029905 0.108030
v 0.347840 0.067130 0.079076
v 0.377209 0.029905 0.052493
v 0.116660 0.000000 -0.520674
v 0.035478 0.000000 -0.280757
v 0.188196 0.000000 -0.279651
v 0.056074 0.067610 -0.281686
v 0.111805 0.059713 -0.250342
v 0.167053 0.034214 -0.275752
v 0.133332 0.000000 -0.398654
v 0.050530 0.000000 -0.379175
v 0.123103 0.021662 -0.394754
v 0.089857 0.050829 -0.388623
v 0.066157 0.021662 -0.382994
v 0.310022 0.914059 -0.125000
v 0.622522 0.914059 -0.125000
v 0.622522 1.101559 -0.125000
v 0.310022 1.101559 -0.125000
v -0.214790 0.416216 -0.125000
v 0.097710 0.416216 -0.125000
v 0.097710 0.603716 -0.125000
v -0.214790 0.603716 -0.125000
v 0.220212 1.182339 -0.487536
v 0.242591 1.096115 -0.188002
v 0.197441 1.270072 -0.134553
v 0.175062 1.356296 -0.434088
v 0.101782 0.290576 -0.870106
v 0.101782 0.290576 -0.213856
v 0.193846 0.686257 -0.213856
v 0.193846 0.686257 -0.870106
v 0.163571 0.454379 -0.004134
v 0.163571 0.454379 0.652116
v 0.193823 0.859501 0.652116
v 0.193823 0.859501 -0.004134
v 0.213589 0.319813 -0.115176
v 0.834850 0.252536 -0.126703
v 0.875805 0.619939 -0.063750
v 0.254543 0.687216 -0.052222
v 0.168929 0.685462 -0.074007
v -0.331071 0.685462 -0.074007
v -0.331071 1.142983 -0.175993
v 0.168929 1.142983 -0.175993
vt 0.386435 0.312598
vt 0.397727 0.312598
vt 0.386435 0.374902
vt 0.386435 0.312598
vt 0.397727 0.312598
vt 0.397727 0.374902
vt 0.386435 0.374902
vt 0.386435 0.343750
vt 0.397727 0.343750
vt 0.397727 0.374902
vt 0.386435 0.374902
vt 0.409162 0.312598
vt 0.420455 0.312598
vt 0.409162 0.374902
vt 0.386435 0.312598
vt 0.397727 0.312598
vt 0.397727 0.374902
vt 0.386435 0.374902
vt 0.409091 0.343750
vt 0.420455 0.343750
vt 0.420455 0.374902
vt 0.409162 0.374902
vt 0.420455 0.312598
vt 0.431747 0.312598
vt 0.420455 0.374902
vt 0.420455 0.312598
vt 0.431747 0.312598
vt 0.386435 0.312598
vt 0.397727 0.312598
vt 0.409162 0.312598
vt 0.420455 0.312598
vt 0.431747 0.312598
vt 0.409020 0.312598
vt 0.397727 0.374902
vt 0.409020 0.312598
vt 0.409020 0.374902
vt 0.409091 0.343750
vt 0.409020 0.374902
vt 0.409020 0.312598
vt 0.409020 0.374902
vt 0.409020 0.312598
vt 0.431747 0.312598
vt 0.431747 0.343750
vt 0.431747 0.374902
vt 0.420455 0.312598
vt 0.431747 0.312598
vt 0.431747 0.374902
vt 0.420455 0.374902
vt 0.397727 0.343750
vt 0.409020 0.374902
vt 0.397727 0.374902
vt 0.397727 0.312598
vt 0.409020 0.312598
vt 0.420455 0.312598
vt 0.431747 0.312598
vt 0.431747 0.343750
vt 0.420455 0.343750
vt 0.397727 0.312598
vt 0.409020 0.312598
vt 0.409020 0.374902
vt 0.397727 0.374902
vt 0.431747 0.374902
vt 0.420455 0.374902
vt 0.386435 0.312598
vt 0.386435 0.343750
vt 0.409162 0.312598
vt 0.409162 0.312598
vt 0.409162 0.312598
vt 0.409162 0.374902
vt 0.386435 0.374902
vt 0.409162 0.312598
vt 0.386435 0.312598
vt 0.386435 0.374902
vt 0.409162 0.374902
vt 0.403374 0.234375
vt 0.409020 0.234375
vt 0.409020 0.249902
vt 0.403374 0.249902
vt 0.386435 0.234375
vt 0.392081 0.234375
vt 0.392081 0.249902
vt 0.386435 0.249902
vt 0.397727 0.234375
vt 0.397727 0.249902
vt 0.403374 0.218848
vt 0.397727 0.218848
vt 0.392081 0.218848
vt 0.409020 0.218848
vt 0.403374 0.234375
vt 0.409020 0.234375
vt 0.409020 0.249902
vt 0.403374 0.249902
vt 0.386435 0.234375
vt 0.392081 0.234375
vt 0.392081 0.249902
vt 0.386435 0.249902
vt 0.397727 0.234375
vt 0.397727 0.249902
vt 0.403374 0.218848
vt 0.397727 0.218848
vt 0.392081 0.218848
vt 0.409020 0.218848
vt 0.403374 0.234375
vt 0.409020 0.234375
vt 0.409020 0.249902
vt 0.403374 0.249902
vt 0.386435 0.234375
vt 0.392081 0.234375
vt 0.392081 0.249902
vt 0.386435 0.249902
vt 0.397727 0.234375
vt 0.397727 0.249902
vt 0.403374 0.218848
vt 0.397727 0.218848
vt 0.392081 0.218848
vt 0.409020 0.218848
vt 0.414844 0.445410
vt 0.443111 0.445410
vt 0.443111 0.468652
vt 0.414844 0.468652
vt 0.443111 0.445410
vt 0.414844 0.445410
vt 0.414844 0.468652
vt 0.443111 0.468652
vt 0.443111 0.445410
vt 0.414844 0.445410
vt 0.414844 0.468652
vt 0.443111 0.468652
vt 0.491406 0.379004
vt 0.431889 0.379004
vt 0.431889 0.429590
vt 0.491406 0.429590
vt 0.431889 0.379004
vt 0.491406 0.379004
vt 0.491406 0.429590
vt 0.431889 0.429590
vt 0.363707 0.379004
vt 0.420384 0.379004
vt 0.420384 0.425684
vt 0.363707 0.425684
vt 0.451776 0.437598
vt 0.497088 0.437598
vt 0.497088 0.495996
vt 0.451776 0.495996
vn -0.6618 0.0669 -0.7467
vn -0.9943 0.1041 -0.0244
vn -0.2223 0.9740 0.0441
vn -0.7064 0.2226 -0.6719
vn -0.9619 0.2719 0.0303
vn -0.6585 0.3262 -0.6782
vn -0.9412 0.3375 -0.0150
vn 0.7187 0.0709 -0.6916
vn 0.0482 0.0537 -0.9974
vn 0.7205 -0.0779 -0.6890
vn -0.0029 0.0698 -0.9975
vn 0.6919 0.1118 -0.7132
vn 0.0006 0.2321 -0.9727
vn 0.0506 0.1676 0.9845
vn 0.7383 0.1447 0.6587
vn 0.9945 0.1024 -0.0219
vn -0.6760 0.3631 -0.6412
vn -0.9142 0.4053 0.0044
vn 0.6817 0.1722 -0.7111
vn -0.0295 0.2611 -0.9648
vn -0.6824 0.1526 0.7149
vn -0.6714 0.2138 0.7095
vn -0.6901 0.2692 0.6717
vn -0.6625 0.3911 0.6388
vn 0.9921 -0.1207 0.0328
vn 0.9997 0.0176 -0.0185
vn 0.9901 0.1398 0.0056
vn -0.0282 0.3070 0.9513
vn 0.6710 0.2087 0.7114
vn 0.7151 0.0298 0.6983
vn -0.0028 0.1326 0.9911
vn -0.0003 0.0894 0.9960
vn 0.6857 -0.0416 0.7267
vn -0.2696 0.5144 0.8140
vn -0.2309 0.3243 0.9173
vn 0.1345 0.3056 0.9426
vn 0.0741 0.5770 0.8133
vn -0.1103 0.3525 -0.9293
vn -0.1750 0.5957 -0.7839
vn -0.1869 0.5979 -0.7794
vn -0.1794 0.3298 -0.9268
vn -0.3111 0.9444 0.1062
vn -0.0887 0.9893 0.1158
vn -0.5810 0.7887 -0.2009
vn 0.6781 0.6598 -0.3237
vn 0.6718 0.6511 -0.3530
vn 0.5729 0.6613 -0.4841
vn 0.5859 0.6564 -0.4752
vn -0.4140 0.6301 0.6568
vn -0.3742 0.6805 0.6300
vn -0.3313 0.6549 0.6792
vn -0.3876 0.5987 0.7009
vn 0.2815 0.9482 0.1470
vn 0.2663 0.9604 0.0810
vn 0.1955 0.9312 0.3077
vn -0.7248 0.6183 -0.3038
vn -0.8679 0.4190 -0.2667
vn -0.9120 0.3595 -0.1975
vn -0.5297 0.8161 -0.2309
vn 0.8491 0.4716 -0.2378
vn 0.7058 0.6737 -0.2190
vn 0.6464 0.7096 -0.2803
vn 0.7930 0.4948 -0.3553
vn -0.0091 0.9572 -0.2891
vn 0.2051 0.9558 -0.2106
vn 0.0592 0.9195 -0.3885
vn 0.0000 0.0000 1.0000
vn -0.9679 -0.2512 0.0000
vn -0.9740 0.2266 0.0000
vn -0.9972 0.0745 0.0000
vn 0.0000 -0.1689 0.9856
vn 0.0000 -0.2176 -0.9760
usemtl Caverns_Tileset
s 1
f 13/1/1 4/2/2 1/3/3
f 10/4/4 2/5/5 4/6/2 13/7/1
f 26/8/6 27/9/7 2/10/5 10/11/4
f 7/12/8 12/13/9 1/14/3
f 8/15/10 5/16/11 12/17/9 7/18/8
f 22/19/12 25/20/13 5/21/11 8/22/10
f 33/23/14 9/24/15 1/25/3
f 30/26/16 7/27/8 1/25/3
f 14/28/17 3/29/18 27/9/7 26/8/6
f 18/30/19 6/31/20 25/20/13 22/19/12
f 12/13/9 13/32/1 1/25/3
f 4/2/2 11/33/21 1/34/3
f 2/5/5 15/35/22 11/36/21 4/6/2
f 27/9/7 23/37/23 15/38/22 2/10/5
f 5/16/11 10/39/4 13/40/1 12/17/9
f 3/29/18 19/41/24 23/37/23 27/9/7
f 6/31/20 14/42/17 26/43/6 25/20/13
f 25/20/13 26/43/6 10/44/4 5/21/11
f 28/45/25 8/46/10 7/47/8 30/48/16
f 21/49/26 22/19/12 8/50/10 28/51/25
f 29/52/27 18/53/19 22/19/12 21/49/26
f 32/54/28 16/55/29 24/56/30 20/57/31
f 31/58/32 17/59/33 9/60/15 33/61/14
f 20/57/31 24/56/30 17/62/33 31/63/32
f 16/64/29 29/52/27 21/49/26 24/65/30
f 19/66/24 32/54/28 20/57/31 23/37/23
f 9/67/15 30/26/16 1/14/3
f 17/68/33 28/45/25 30/48/16 9/69/15
f 24/65/30 21/49/26 28/51/25 17/70/33
f 11/71/21 33/23/14 1/14/3
f 15/72/22 31/58/32 33/61/14 11/73/21
f 23/37/23 20/57/31 31/63/32 15/74/22
f 44/75/34 41/76/35 35/77/36 37/78/37
f 40/79/38 42/80/39 39/81/40 36/82/41
f 42/80/39 43/83/42 38/84/43 39/81/40
f 43/83/42 44/75/34 37/78/37 38/84/43
f 34/85/44 44/75/34 43/83/42
f 34/86/44 43/83/42 42/80/39
f 34/87/44 42/80/39 40/79/38
f 34/88/44 41/76/35 44/75/34
f 55/89/45 52/90/46 46/91/47 48/92/48
f 51/93/49 53/94/50 50/95/51 47/96/52
f 53/94/50 54/97/53 49/98/54 50/95/51
f 54/97/53 55/89/45 48/92/48 49/98/54
f 45/99/55 55/89/45 54/97/53
f 45/100/55 54/97/53 53/94/50
f 45/101/55 53/94/50 51/93/49
f 45/102/55 52/90/46 55/89/45
f 66/103/56 63/104/57 57/105/58 59/106/59
f 62/107/60 64/108/61 61/109/62 58/110/63
f 64/108/61 65/111/64 60/112/65 61/109/62
f 65/111/64 66/103/56 59/106/59 60/112/65
f 56/113/66 66/103/56 65/111/64
f 56/114/66 65/111/64 64/108/61
f 56/115/66 64/108/61 62/107/60
f 56/116/66 63/104/57 66/103/56
f 67/117/67 68/118/67 69/119/67 70/120/67
f 71/121/67 72/122/67 73/123/67 74/124/67
f 75/125/68 76/126/68 77/127/68 78/128/68
f 79/129/69 80/130/69 81/131/69 82/132/69
f 83/133/70 84/134/70 85/135/70 86/136/70
f 87/137/71 88/138/71 89/139/71 90/140/71
f 91/141/72 92/142/72 93/143/72 94/144/72
