# Blender v2.93.5 OBJ File: 'Cavern_Dead_Tree_01.blend'
# www.blender.org
mtllib Cavern_Dead_Tree_01.mtl
o Cube
v -0.640541 1.067213 -0.170257
v 0.000638 0.000000 0.031888
v -0.313138 0.000000 -0.281888
v -0.313138 0.000000 0.031888
v -0.893229 1.501030 -0.125001
v -0.293659 0.493483 -0.211229
v 0.000638 0.000000 -0.281888
v -0.625580 1.074205 -0.125000
v -0.293659 0.493483 -0.038771
v -0.640541 1.067213 -0.079743
v -0.722542 1.028892 -0.079743
v -0.124396 0.526529 -0.038771
v -0.318105 0.826632 -0.048898
v -0.124396 0.526529 -0.211229
v -0.318105 0.826632 -0.201102
v 0.057885 0.000000 -0.125000
v -0.419637 0.713243 -0.048898
v -0.419637 0.713243 -0.201102
v -0.156250 0.000000 0.089135
v -0.722542 1.028892 -0.170257
v -0.093515 0.532558 -0.125000
v -0.209028 0.510006 -0.007306
v -0.368871 0.769937 -0.021130
v -0.681541 1.048053 -0.063229
v -0.299581 0.847319 -0.125000
v -0.156250 0.000000 -0.339135
v -0.681541 1.048053 -0.186771
v -0.209028 0.510006 -0.242693
v -0.368871 0.769937 -0.228870
v -0.324540 0.487454 -0.125000
v -0.370385 0.000000 -0.125000
v -0.438161 0.692556 -0.125000
v -0.737503 1.021901 -0.125000
v -0.255274 0.150000 -0.224024
v -0.255274 0.150000 -0.025976
v -0.057226 0.150000 -0.025976
v -0.057226 0.150000 -0.224024
v -0.156250 0.150000 0.010156
v -0.021094 0.150000 -0.125000
v -0.156250 0.150000 -0.260156
v -0.291406 0.150000 -0.125000
v -0.066652 0.265661 -0.103041
v 0.245848 0.265661 -0.103041
v 0.245848 0.484411 -0.103041
v -0.066652 0.484411 -0.103041
v -1.348229 0.999188 -0.271653
v -0.737767 1.171373 -0.103271
v -0.840521 1.563390 -0.131614
v -1.450983 1.391205 -0.299995
v -0.642698 1.004960 -0.133435
v 0.000942 1.004960 -0.005405
v 0.000942 1.411210 -0.005405
v -0.642698 1.411210 -0.133435
v -0.171256 0.621287 -0.168030
v 0.351434 0.934423 -0.307191
v 0.169878 1.258962 -0.258853
v -0.352813 0.945826 -0.119692
v -1.022760 0.495831 -0.139008
v -0.482181 0.808967 -0.120447
v -0.669951 1.133506 -0.126894
v -1.210531 0.820370 -0.145456
v -0.273050 0.349736 -0.144654
v -0.526175 0.349736 -0.327913
v -0.526175 0.537236 -0.327913
v -0.273050 0.537236 -0.144654
vt 0.420455 0.312598
vt 0.431747 0.312598
vt 0.431747 0.374902
vt 0.420455 0.374902
vt 0.397727 0.312500
vt 0.386364 0.312500
vt 0.386364 0.261719
vt 0.397727 0.261719
vt 0.397727 0.331289
vt 0.409020 0.331289
vt 0.409020 0.374902
vt 0.397727 0.374902
vt 0.397727 0.331289
vt 0.409020 0.331289
vt 0.409020 0.374902
vt 0.397727 0.374902
vt 0.397727 0.331289
vt 0.409020 0.331289
vt 0.409020 0.374902
vt 0.397727 0.374902
vt 0.397727 0.331289
vt 0.409020 0.331289
vt 0.409020 0.374902
vt 0.397727 0.374902
vt 0.420455 0.312598
vt 0.431747 0.312598
vt 0.431747 0.374902
vt 0.420455 0.374902
vt 0.397727 0.312598
vt 0.409020 0.312598
vt 0.409020 0.374902
vt 0.397727 0.374902
vt 0.397727 0.312500
vt 0.409020 0.312598
vt 0.409020 0.374902
vt 0.397727 0.374902
vt 0.397727 0.312598
vt 0.409020 0.312598
vt 0.409020 0.374902
vt 0.397727 0.374902
vt 0.420455 0.312598
vt 0.431747 0.312598
vt 0.431747 0.374902
vt 0.420455 0.374902
vt 0.420455 0.312598
vt 0.431747 0.312598
vt 0.431747 0.374902
vt 0.420455 0.374902
vt 0.420455 0.312598
vt 0.431747 0.312598
vt 0.420455 0.374902
vt 0.420455 0.312598
vt 0.431747 0.312598
vt 0.397727 0.312598
vt 0.409020 0.312598
vt 0.397727 0.374902
vt 0.409020 0.312598
vt 0.409162 0.312598
vt 0.409162 0.374902
vt 0.386435 0.312598
vt 0.386435 0.374902
vt 0.386435 0.331289
vt 0.386435 0.374902
vt 0.409091 0.312500
vt 0.409091 0.261719
vt 0.397727 0.312598
vt 0.386435 0.374902
vt 0.386435 0.312598
vt 0.386435 0.374902
vt 0.386435 0.331289
vt 0.386435 0.374902
vt 0.409162 0.312598
vt 0.409162 0.374902
vt 0.409162 0.312598
vt 0.409162 0.312598
vt 0.409162 0.374902
vt 0.409162 0.312598
vt 0.409162 0.374902
vt 0.386435 0.331289
vt 0.386435 0.374902
vt 0.386435 0.312598
vt 0.386435 0.374902
vt 0.409162 0.312598
vt 0.409162 0.374902
vt 0.386435 0.312598
vt 0.386435 0.374902
vt 0.386435 0.331289
vt 0.386435 0.374902
vt 0.386435 0.312598
vt 0.397727 0.312598
vt 0.386435 0.312598
vt 0.397727 0.312598
vt 0.386435 0.312598
vt 0.397727 0.312598
vt 0.386435 0.312598
vt 0.397727 0.312598
vt 0.409020 0.312598
vt 0.409020 0.312598
vt 0.409020 0.312598
vt 0.409020 0.312598
vt 0.414844 0.441504
vt 0.443111 0.441504
vt 0.443111 0.468652
vt 0.414844 0.468652
vt 0.491477 0.378906
vt 0.431818 0.378906
vt 0.431818 0.429688
vt 0.491477 0.429688
vt 0.431889 0.379004
vt 0.491406 0.379004
vt 0.491406 0.429590
vt 0.431889 0.429590
vt 0.363707 0.379004
vt 0.420384 0.379004
vt 0.420384 0.425684
vt 0.363707 0.425684
vt 0.420455 0.378906
vt 0.363636 0.378906
vt 0.363636 0.425781
vt 0.420455 0.425781
vt 0.414844 0.445410
vt 0.443111 0.445410
vt 0.443111 0.468652
vt 0.414844 0.468652
vn 0.9299 0.3678 0.0000
vn 0.6770 0.2881 -0.6772
vn 0.5149 0.5267 -0.6763
vn 0.7156 0.6985 0.0000
vn 0.0273 0.0650 0.9975
vn 0.6770 0.2881 0.6772
vn 0.5149 0.5267 0.6763
vn -0.0152 0.0758 0.9970
vn 0.0131 0.2778 0.9605
vn 0.6732 0.3348 0.6592
vn -0.9787 0.2052 0.0000
vn -0.6769 0.2403 0.6957
vn -0.6539 -0.1850 0.7336
vn -0.9532 -0.3024 0.0000
vn 0.0131 0.2778 -0.9605
vn -0.6769 0.2403 -0.6957
vn -0.6539 -0.1850 -0.7336
vn 0.0273 0.0650 -0.9975
vn 0.9402 0.3405 0.0000
vn 0.6732 0.3348 -0.6592
vn -0.5801 -0.3836 -0.7185
vn -0.0152 0.0758 -0.9970
vn -0.5801 -0.3836 0.7185
vn -0.8157 -0.5785 0.0000
vn 0.4672 0.5032 0.7270
vn -0.0895 0.0603 0.9941
vn 0.4672 0.5032 -0.7270
vn 0.7154 0.6987 0.0000
vn -0.6455 -0.3422 -0.6827
vn -0.0895 0.0603 -0.9941
vn -0.6455 -0.3422 0.6827
vn -0.8667 -0.4989 0.0000
vn -0.4234 0.9059 0.0000
vn -0.6207 0.4789 -0.6207
vn -0.8848 0.4659 0.0000
vn 0.6207 0.4789 -0.6207
vn 0.0000 0.4659 -0.8848
vn 0.6207 0.4789 0.6207
vn 0.8848 0.4659 0.0000
vn -0.6207 0.4789 0.6207
vn 0.0000 0.4659 0.8848
vn 0.0000 0.0000 1.0000
vn -0.2659 0.0000 0.9640
vn -0.1951 0.0000 0.9808
vn 0.2573 0.0000 0.9663
vn -0.0343 0.0000 0.9994
vn 0.5864 0.0000 -0.8100
usemtl Caverns_Tileset
s 1
f 21/1/1 14/2/2 15/3/3 25/4/4
f 22/5/5 12/6/6 13/7/7 23/8/8
f 38/9/9 36/10/10 12/11/6 22/12/5
f 41/13/11 35/14/12 9/15/13 30/16/14
f 40/17/15 34/18/16 6/19/17 28/20/18
f 39/21/19 37/22/20 14/23/2 21/24/1
f 28/25/18 6/26/17 18/27/21 29/28/22
f 30/29/14 9/30/13 17/31/23 32/32/24
f 23/33/8 13/34/7 10/35/25 24/36/26
f 25/37/4 15/38/3 1/39/27 8/40/28
f 29/41/22 18/42/21 20/43/29 27/44/30
f 32/45/24 17/46/23 11/47/31 33/48/32
f 24/49/26 10/50/25 5/51/33
f 27/52/30 20/53/29 5/51/33
f 33/54/32 11/55/31 5/56/33
f 5/57/33 10/35/25 8/40/28
f 11/58/31 24/49/26 5/59/33
f 17/60/23 23/33/8 24/36/26 11/61/31
f 35/62/12 38/9/9 22/12/5 9/63/13
f 9/64/13 22/5/5 23/8/8 17/65/23
f 5/66/33 8/40/28 1/67/27
f 13/68/7 25/37/4 8/40/28 10/69/25
f 36/70/10 39/21/19 21/24/1 12/71/6
f 12/72/6 21/1/1 25/4/4 13/73/7
f 1/74/27 27/52/30 5/59/33
f 15/75/3 29/41/22 27/44/30 1/76/27
f 14/77/2 28/25/18 29/28/22 15/78/3
f 37/79/20 40/17/15 28/20/18 14/80/2
f 20/81/29 33/54/32 5/82/33
f 18/83/21 32/45/24 33/48/32 20/84/29
f 6/85/17 30/29/14 32/32/24 18/86/21
f 34/87/16 41/13/11 30/16/14 6/88/17
f 3/89/34 31/90/35 41/13/11 34/87/16
f 7/91/36 26/92/37 40/17/15 37/79/20
f 2/93/38 16/94/39 39/21/19 36/70/10
f 4/95/40 19/96/41 38/9/9 35/62/12
f 16/94/39 7/97/36 37/22/20 39/21/19
f 26/92/37 3/98/34 34/18/16 40/17/15
f 31/90/35 4/99/40 35/14/12 41/13/11
f 19/96/41 2/100/38 36/10/10 38/9/9
f 42/101/42 43/102/42 44/103/42 45/104/42
f 46/105/43 47/106/43 48/107/43 49/108/43
f 50/109/44 51/110/44 52/111/44 53/112/44
f 54/113/45 55/114/45 56/115/45 57/116/45
f 58/117/46 59/118/46 60/119/46 61/120/46
f 62/121/47 63/122/47 64/123/47 65/124/47
