# Blender v2.93.5 OBJ File: 'Cavern_Plank_01.blend'
# www.blender.org
mtllib Cavern_Plank_01.mtl
o Cube
v -0.250000 -0.125000 -1.000000
v -0.000000 -0.125001 -1.000000
v 0.000000 -0.125000 0.000000
v 0.000000 -0.000001 -1.000000
v 0.000000 0.000000 -1.000000
v -0.250000 0.000000 0.000000
v -0.000000 0.000001 0.000000
v -0.250000 -0.000000 -1.000000
v 0.000000 -0.124999 0.000000
v -0.250000 -0.125000 0.000000
vt 0.443253 0.500098
vt 0.454474 0.500098
vt 0.454474 0.531152
vt 0.443253 0.531152
vt 0.443253 0.500098
vt 0.454474 0.500098
vt 0.454474 0.531152
vt 0.443253 0.531152
vt 0.454616 0.531152
vt 0.545384 0.531152
vt 0.545384 0.500098
vt 0.454616 0.500098
vt 0.454616 0.546777
vt 0.545384 0.546777
vt 0.545384 0.531348
vt 0.454616 0.531348
vt 0.454616 0.531348
vt 0.545384 0.531348
vt 0.545384 0.546777
vt 0.454616 0.546777
vt 0.454616 0.500098
vt 0.545384 0.500098
vt 0.545384 0.531152
vt 0.454616 0.531152
vn 0.0000 0.0000 1.0000
vn 0.0000 0.0000 -1.0000
vn -0.0000 -1.0000 0.0000
vn -1.0000 0.0000 0.0000
vn 1.0000 0.0000 0.0000
vn -0.0000 1.0000 -0.0000
usemtl Caverns_Tileset
s off
f 9/1/1 7/2/1 6/3/1 10/4/1
f 1/5/2 8/6/2 4/7/2 2/8/2
f 2/9/3 3/10/3 10/11/3 1/12/3
f 1/13/4 10/14/4 6/15/4 8/16/4
f 3/17/5 2/18/5 5/19/5 7/20/5
f 7/21/6 5/22/6 8/23/6 6/24/6
