# Blender v2.93.5 OBJ File: 'Cavern_Stone_01.blend'
# www.blender.org
mtllib Cavern_Stone_01.mtl
o Cube
v -0.125000 0.000000 -0.125000
v -0.032751 0.085307 -0.000000
v -0.125000 0.000000 0.000000
v -0.027449 0.068112 -0.102112
v 0.000000 0.000000 0.031250
v 0.000000 0.000000 -0.125000
v -0.103520 0.062500 -0.025315
v -0.101373 0.062500 -0.106400
v -0.021320 0.078125 -0.055819
v -0.125000 0.000000 -0.062500
v 0.015625 0.000000 -0.062500
v -0.110790 0.062500 -0.062158
v -0.069788 -0.000000 0.013664
v -0.046875 0.000000 -0.125000
v -0.064309 0.057605 -0.105630
v -0.075418 0.082428 -0.008313
v -0.054688 0.000000 -0.062500
v -0.074233 0.094480 -0.057425
vt 0.392045 0.449219
vt 0.397727 0.449219
vt 0.397727 0.453125
vt 0.392045 0.453125
vt 0.372159 0.445312
vt 0.377770 0.445312
vt 0.377770 0.453027
vt 0.372159 0.453027
vt 0.392045 0.437500
vt 0.386364 0.437500
vt 0.386364 0.453125
vt 0.392045 0.453125
vt 0.369318 0.437500
vt 0.375000 0.437500
vt 0.375000 0.453125
vt 0.369318 0.453125
vt 0.389205 0.437500
vt 0.394886 0.437500
vt 0.394886 0.453125
vt 0.389205 0.453125
vt 0.372159 0.437598
vt 0.377770 0.437598
vt 0.377770 0.453027
vt 0.372159 0.453027
vt 0.366548 0.437598
vt 0.366548 0.453027
vt 0.377841 0.437500
vt 0.372159 0.437500
vt 0.372159 0.453125
vt 0.377841 0.453125
vt 0.366548 0.445312
vt 0.366548 0.453027
vt 0.389205 0.449219
vt 0.389205 0.453125
vt 0.389205 0.449219
vt 0.394886 0.449219
vt 0.394886 0.453125
vt 0.389205 0.453125
vt 0.366548 0.437598
vt 0.366548 0.437598
vt 0.372159 0.437598
vt 0.372159 0.453027
vt 0.366548 0.453027
vt 0.372159 0.437598
vt 0.372159 0.453125
vt 0.366477 0.453125
vt 0.377770 0.437598
vt 0.386364 0.445312
vt 0.392045 0.445312
vt 0.392045 0.449219
vt 0.386364 0.449219
vn -0.2059 0.9673 -0.1481
vn -0.3068 0.7383 0.6005
vn 0.3564 0.7339 0.5782
vn 0.6149 0.7801 -0.1155
vn 0.0000 -1.0000 0.0000
vn -0.2528 -0.6015 0.7577
vn -0.7210 -0.4390 0.5361
vn -0.8032 -0.5956 -0.0061
vn -0.7416 0.5236 0.4193
vn -0.8005 0.5940 -0.0796
vn 0.0066 -0.5869 -0.8096
vn -0.6250 -0.4196 -0.6582
vn -0.5066 0.6117 -0.6075
vn -0.0389 0.6170 -0.7860
vn 0.5384 -0.3944 0.7447
vn 0.8699 -0.4914 -0.0418
vn 0.5840 -0.4112 -0.6999
vn 0.4213 0.6665 -0.6151
usemtl Caverns_Tileset
s 1
f 18/1/1 16/2/2 2/3/3 9/4/4
f 17/5/5 13/6/6 3/7/7 10/8/8
f 10/9/8 3/10/7 7/11/9 12/12/10
f 14/13/11 1/14/12 8/15/13 15/16/14
f 13/17/6 5/18/15 2/19/3 16/20/2
f 11/21/16 6/22/17 4/23/18 9/24/4
f 5/25/15 11/21/16 9/24/4 2/26/3
f 1/27/12 10/28/8 12/29/10 8/30/13
f 14/31/11 17/5/5 10/8/8 1/32/12
f 15/33/14 18/1/1 9/4/4 4/34/18
f 8/35/13 12/36/10 18/37/1 15/38/14
f 6/39/17 11/21/16 17/5/5 14/31/11
f 3/40/7 13/41/6 16/42/2 7/43/9
f 6/39/17 14/44/11 15/45/14 4/46/18
f 11/21/16 5/47/15 13/6/6 17/5/5
f 12/48/10 7/49/9 16/50/2 18/51/1
