# Blender v2.93.5 OBJ File: 'Cavern_Stalagmite_02.blend'
# www.blender.org
mtllib Cavern_Stalagmite_02.mtl
o Cube
v 0.125000 0.625000 -0.187500
v -0.179015 0.000000 -0.429015
v -0.179015 0.000000 0.179015
v 0.429015 0.000000 -0.429015
v 0.022959 0.250000 -0.054209
v 0.227041 0.250000 -0.258291
v 0.227041 0.250000 -0.054209
v 0.429015 0.000000 0.179015
v 0.022959 0.250000 -0.258291
v 0.125000 0.000000 0.266490
v 0.125000 0.250000 -0.024849
v 0.256401 0.250000 -0.156250
v 0.516490 0.000000 -0.125000
v 0.125000 0.000000 -0.516490
v 0.125000 0.250000 -0.287651
v -0.266490 0.000000 -0.125000
v -0.006401 0.250000 -0.156250
vt 0.375000 0.250000
vt 0.386293 0.250098
vt 0.375000 0.312402
vt 0.375000 0.312598
vt 0.386293 0.312598
vt 0.375000 0.374902
vt 0.375000 0.312598
vt 0.386293 0.312598
vt 0.375000 0.250000
vt 0.386293 0.250098
vt 0.375000 0.218848
vt 0.386293 0.218848
vt 0.386293 0.249902
vt 0.375000 0.249902
vt 0.375000 0.218848
vt 0.386293 0.218848
vt 0.386293 0.249902
vt 0.375000 0.249902
vt 0.375000 0.218848
vt 0.386293 0.218848
vt 0.386293 0.249902
vt 0.375000 0.218848
vt 0.386293 0.218848
vt 0.386293 0.249902
vt 0.363707 0.218848
vt 0.363707 0.249902
vt 0.363707 0.250098
vt 0.363707 0.312402
vt 0.363707 0.218848
vt 0.363707 0.249902
vt 0.363707 0.250098
vt 0.363707 0.218848
vt 0.363707 0.249902
vt 0.363707 0.312598
vt 0.363707 0.374902
vt 0.363707 0.218848
vt 0.363707 0.249902
vt 0.363707 0.312598
vn 0.0000 0.6132 0.7899
vn 0.5439 0.6452 0.5366
vn 0.0000 0.9972 -0.0741
vn -0.8285 0.5599 -0.0017
vn -0.5439 0.6452 0.5366
vn 0.0000 0.4990 -0.8666
vn -0.5763 0.5714 -0.5842
vn 0.8285 0.5599 -0.0017
vn 0.5763 0.5714 -0.5842
vn -0.6924 0.7214 0.0089
vn -0.4399 0.7764 0.4513
vn 0.0000 0.6752 -0.7376
vn -0.4932 0.7259 -0.4794
vn 0.6924 0.7214 0.0089
vn 0.4932 0.7259 -0.4794
vn 0.0000 0.7589 0.6512
vn 0.4399 0.7764 0.4513
usemtl Caverns_Tileset
s 1
f 11/1/1 7/2/2 1/3/3
f 17/4/4 5/5/5 1/6/3
f 15/7/6 9/8/7 1/6/3
f 12/9/8 6/10/9 1/3/3
f 16/11/10 3/12/11 5/13/5 17/14/4
f 14/15/12 2/16/13 9/17/7 15/18/6
f 13/19/14 4/20/15 6/21/9 12/9/8
f 10/22/16 8/23/17 7/24/2 11/1/1
f 3/25/11 10/22/16 11/1/1 5/26/5
f 5/27/5 11/1/1 1/28/3
f 8/29/17 13/19/14 12/9/8 7/30/2
f 7/31/2 12/9/8 1/28/3
f 4/32/15 14/15/12 15/18/6 6/33/9
f 6/34/9 15/7/6 1/35/3
f 2/36/13 16/11/10 17/14/4 9/37/7
f 9/38/7 17/4/4 1/35/3
