# Blender v2.93.5 OBJ File: 'Cavern_Stalagmite_05.blend'
# www.blender.org
mtllib Cavern_Stalagmite_05.mtl
o Cube
v 0.145756 0.480404 0.055299
v 0.276252 0.415111 0.055299
v -0.136868 0.000000 -0.136868
v 0.093617 0.346230 0.037701
v -0.136868 0.000000 0.386868
v 0.386868 0.000000 0.386868
v 0.259715 0.168964 0.279252
v 0.093617 0.346230 0.212299
v 0.259715 0.168964 -0.029252
v 0.386868 0.000000 -0.136868
v 0.156347 0.445736 0.194701
v 0.257283 0.265053 0.212299
v 0.282491 0.256701 0.125000
v 0.257283 0.265053 0.028344
v -0.011881 0.209065 0.279252
v -0.011881 0.209065 -0.029252
v 0.279157 0.375443 0.194701
v 0.466525 0.000000 0.125000
v 0.321934 0.162865 0.125000
v 0.296642 0.376141 0.125000
v 0.125000 0.000000 -0.216525
v 0.176486 0.318774 0.001788
v 0.139894 0.189015 -0.076173
v 0.211149 0.440007 0.034097
v 0.132579 0.480804 0.125766
v 0.058269 0.354582 0.125000
v -0.216525 0.000000 0.125000
v -0.058050 0.215165 0.125000
v 0.202548 0.419734 0.216925
v 0.125000 0.000000 0.466525
v 0.139894 0.189015 0.326173
v 0.176486 0.303508 0.238855
v 0.211405 0.426311 0.125000
vt 0.375000 0.218848
vt 0.386293 0.218848
vt 0.386293 0.249902
vt 0.375000 0.249902
vt 0.375000 0.218848
vt 0.386293 0.218848
vt 0.386293 0.249902
vt 0.375000 0.249902
vt 0.375000 0.218848
vt 0.386293 0.218848
vt 0.386293 0.249902
vt 0.375000 0.249902
vt 0.375000 0.218848
vt 0.386293 0.218848
vt 0.386293 0.249902
vt 0.375000 0.249902
vt 0.375000 0.343848
vt 0.386293 0.343848
vt 0.386293 0.374902
vt 0.375000 0.374902
vt 0.375000 0.343848
vt 0.386293 0.343848
vt 0.386293 0.374902
vt 0.375000 0.374902
vt 0.375000 0.312598
vt 0.386293 0.312598
vt 0.386293 0.343652
vt 0.375000 0.343750
vt 0.375000 0.312598
vt 0.386293 0.312598
vt 0.386293 0.343652
vt 0.375000 0.343750
vt 0.386293 0.343848
vt 0.386293 0.374902
vt 0.375000 0.374902
vt 0.375000 0.343848
vt 0.386293 0.343848
vt 0.386293 0.374902
vt 0.375000 0.374902
vt 0.386293 0.343848
vt 0.386293 0.374902
vt 0.375000 0.374902
vt 0.375000 0.343848
vt 0.386293 0.343848
vt 0.386293 0.374902
vt 0.375000 0.374902
vt 0.363707 0.343848
vt 0.363707 0.374902
vt 0.363707 0.312598
vt 0.363707 0.343652
vt 0.363707 0.218848
vt 0.363707 0.249902
vt 0.363707 0.343848
vt 0.363707 0.374902
vt 0.363707 0.343848
vt 0.363707 0.374902
vt 0.363707 0.218848
vt 0.363707 0.249902
vt 0.363707 0.343848
vt 0.363707 0.374902
vt 0.363707 0.312598
vt 0.363707 0.343652
vt 0.363707 0.218848
vt 0.363707 0.249902
vt 0.363707 0.343848
vt 0.363707 0.374902
vt 0.363707 0.343848
vt 0.363707 0.374902
vt 0.363707 0.218848
vt 0.363707 0.249902
vt 0.170455 0.671875
vt 0.181747 0.671875
vt 0.181747 0.687402
vt 0.170455 0.687402
vt 0.159162 0.671875
vt 0.159162 0.687402
vt 0.159162 0.656348
vt 0.170455 0.656348
vt 0.181747 0.656348
vn -0.8009 0.5988 0.0000
vn -0.5495 0.6257 0.5536
vn -0.5129 0.6410 0.5710
vn -0.7763 0.6304 0.0000
vn 0.0219 0.6053 0.7957
vn 0.5374 0.6729 0.5083
vn 0.5732 0.5811 0.5776
vn 0.0756 0.5823 0.8094
vn 0.7340 0.6791 0.0000
vn 0.5374 0.6729 -0.5083
vn 0.5878 0.5585 -0.5853
vn 0.8441 0.5361 0.0018
vn 0.0219 0.6053 -0.7957
vn -0.5495 0.6257 -0.5536
vn -0.5258 0.6330 -0.5681
vn 0.0647 0.5640 -0.8232
vn 0.7500 0.2414 0.6158
vn 0.1308 0.3828 0.9145
vn -0.5487 0.5311 -0.6456
vn 0.1047 0.3593 -0.9273
vn 0.7557 0.2346 -0.6114
vn 0.9930 0.1178 -0.0022
vn -0.5017 0.5475 0.6697
vn -0.8032 0.5947 0.0327
vn -0.1236 0.7779 0.6161
vn -0.3031 0.9453 0.1205
vn 0.7508 0.3703 0.5470
vn 0.2893 0.6001 0.7457
vn 0.7388 0.5554 -0.3817
vn 0.9317 0.3593 0.0520
vn -0.1901 0.8569 -0.4792
vn 0.3280 0.6857 -0.6498
vn 0.4972 0.8523 0.1621
usemtl Caverns_Tileset
s 1
f 27/1/1 5/2/2 15/3/3 28/4/4
f 30/5/5 6/6/6 7/7/7 31/8/8
f 18/9/9 10/10/10 9/11/11 19/12/12
f 21/13/13 3/14/14 16/15/15 23/16/16
f 31/17/8 7/18/7 12/19/17 32/20/18
f 23/21/16 16/22/15 4/23/19 22/24/20
f 19/25/12 9/26/11 14/27/21 13/28/22
f 28/29/4 15/30/3 8/31/23 26/32/24
f 26/32/24 8/33/23 11/34/25 25/35/26
f 32/36/18 12/37/17 17/38/27 29/39/28
f 13/28/22 14/40/21 2/41/29 20/42/30
f 22/43/20 4/44/19 1/45/31 24/46/32
f 12/47/17 13/28/22 20/42/30 17/48/27
f 7/49/7 19/25/12 13/28/22 12/50/17
f 6/51/6 18/9/9 19/12/12 7/52/7
f 14/53/21 22/43/20 24/46/32 2/54/29
f 9/55/11 23/21/16 22/24/20 14/56/21
f 10/57/10 21/13/13 23/16/16 9/58/11
f 4/59/19 26/32/24 25/35/26 1/60/31
f 16/61/15 28/29/4 26/32/24 4/62/19
f 3/63/14 27/1/1 28/4/4 16/64/15
f 8/65/23 32/36/18 29/39/28 11/66/25
f 15/67/3 31/17/8 32/20/18 8/68/23
f 5/69/2 30/5/5 31/8/8 15/70/3
f 33/71/33 24/72/32 1/73/31 25/74/26
f 29/75/28 33/71/33 25/74/26 11/76/25
f 17/77/27 20/78/30 33/71/33 29/75/28
f 20/78/30 2/79/29 24/72/32 33/71/33
