# Blender v2.93.5 OBJ File: 'Cavern_Stalagmite_03.blend'
# www.blender.org
mtllib Cavern_Stalagmite_03.mtl
o Cube
v 0.154123 0.651107 0.055299
v 0.283377 0.598893 0.055299
v -0.058619 0.000000 -0.058619
v 0.104631 0.464956 0.037701
v -0.058619 0.000000 0.308619
v 0.308619 0.000000 0.308619
v 0.266799 0.229949 0.237353
v 0.104631 0.464956 0.212299
v 0.266799 0.229949 0.012647
v 0.308619 0.000000 -0.058619
v 0.154123 0.651107 0.194701
v 0.270369 0.410044 0.212299
v 0.295577 0.401693 0.125000
v 0.270369 0.410044 0.037701
v 0.045701 0.270051 0.237353
v 0.045701 0.270051 0.012647
v 0.283377 0.598893 0.194701
v 0.364474 0.000000 0.125000
v 0.300427 0.223850 0.125000
v 0.303036 0.590952 0.125000
v 0.125000 0.000000 -0.114474
v 0.187500 0.437500 0.011145
v 0.156250 0.250000 -0.021529
v 0.218750 0.625000 0.034097
v 0.134464 0.659048 0.125000
v 0.079423 0.473308 0.125000
v -0.114474 0.000000 0.125000
v 0.012073 0.276150 0.125000
v 0.218750 0.625000 0.215903
v 0.125000 0.000000 0.364474
v 0.156250 0.250000 0.271529
v 0.187500 0.437500 0.238855
v 0.283377 0.598893 0.194701
v 0.283377 0.598893 0.055299
v 0.154123 0.651107 0.055299
v 0.303036 0.590952 0.125000
v 0.134464 0.659048 0.125000
v 0.218750 0.625000 0.034097
v 0.218750 0.625000 0.215903
v 0.218750 0.625000 0.125000
vt 0.375000 0.218848
vt 0.386293 0.218848
vt 0.386293 0.249902
vt 0.375000 0.249902
vt 0.375000 0.218848
vt 0.386293 0.218848
vt 0.386293 0.249902
vt 0.375000 0.249902
vt 0.375000 0.218848
vt 0.386293 0.218848
vt 0.386293 0.249902
vt 0.375000 0.249902
vt 0.375000 0.218848
vt 0.386293 0.218848
vt 0.386293 0.249902
vt 0.375000 0.249902
vt 0.375000 0.343848
vt 0.386293 0.343848
vt 0.386293 0.374902
vt 0.375000 0.374902
vt 0.375000 0.343848
vt 0.386293 0.343848
vt 0.386293 0.374902
vt 0.375000 0.374902
vt 0.375000 0.312598
vt 0.386293 0.312598
vt 0.386293 0.343652
vt 0.375000 0.343750
vt 0.375000 0.312598
vt 0.386293 0.312598
vt 0.386293 0.343652
vt 0.375000 0.343750
vt 0.386293 0.343848
vt 0.386293 0.374902
vt 0.375000 0.374902
vt 0.375000 0.343848
vt 0.386293 0.343848
vt 0.386293 0.374902
vt 0.375000 0.374902
vt 0.386293 0.343848
vt 0.386293 0.374902
vt 0.375000 0.374902
vt 0.375000 0.343848
vt 0.386293 0.343848
vt 0.386293 0.374902
vt 0.375000 0.374902
vt 0.363707 0.343848
vt 0.363707 0.374902
vt 0.363707 0.312598
vt 0.363707 0.343652
vt 0.363707 0.218848
vt 0.363707 0.249902
vt 0.363707 0.343848
vt 0.363707 0.374902
vt 0.363707 0.343848
vt 0.363707 0.374902
vt 0.363707 0.218848
vt 0.363707 0.249902
vt 0.363707 0.343848
vt 0.363707 0.374902
vt 0.363707 0.312598
vt 0.363707 0.343652
vt 0.363707 0.218848
vt 0.363707 0.249902
vt 0.363707 0.343848
vt 0.363707 0.374902
vt 0.363707 0.343848
vt 0.363707 0.374902
vt 0.363707 0.218848
vt 0.363707 0.249902
vt 0.170455 0.671875
vt 0.181747 0.671875
vt 0.181747 0.687402
vt 0.170455 0.687402
vt 0.159162 0.671875
vt 0.159162 0.687402
vt 0.159162 0.656348
vt 0.170455 0.656348
vt 0.181747 0.656348
vn -0.9073 0.4204 0.0000
vn -0.6451 0.4225 0.6366
vn -0.6441 0.3615 0.6742
vn -0.9272 0.3746 0.0000
vn 0.0016 0.3474 0.9377
vn 0.6638 0.3220 0.6750
vn 0.7043 0.2133 0.6771
vn 0.0280 0.2618 0.9647
vn 0.9630 0.2695 0.0000
vn 0.6638 0.3220 -0.6750
vn 0.7043 0.2133 -0.6771
vn 0.9879 0.1553 0.0000
vn 0.0016 0.3474 -0.9377
vn -0.6451 0.4225 -0.6366
vn -0.6441 0.3615 -0.6742
vn 0.0280 0.2618 -0.9647
vn 0.7242 0.0487 0.6878
vn 0.0399 0.1414 0.9891
vn -0.6581 0.2671 -0.7039
vn 0.0399 0.1414 -0.9891
vn 0.7242 0.0487 -0.6878
vn 1.0000 -0.0064 0.0000
vn -0.6581 0.2671 0.7039
vn -0.9527 0.3040 0.0000
vn -0.3201 0.7801 0.5376
vn -0.9588 0.2839 0.0000
vn 0.6966 0.0181 0.7172
vn 0.0007 0.1219 0.9925
vn 0.6966 0.0181 -0.7172
vn 0.9991 -0.0406 0.0000
vn -0.6956 0.2492 -0.6738
vn 0.0007 0.1219 -0.9925
vn 0.3745 0.9272 0.0000
usemtl Caverns_Tileset
s 1
f 27/1/1 5/2/2 15/3/3 28/4/4
f 30/5/5 6/6/6 7/7/7 31/8/8
f 18/9/9 10/10/10 9/11/11 19/12/12
f 21/13/13 3/14/14 16/15/15 23/16/16
f 31/17/8 7/18/7 12/19/17 32/20/18
f 23/21/16 16/22/15 4/23/19 22/24/20
f 19/25/12 9/26/11 14/27/21 13/28/22
f 28/29/4 15/30/3 8/31/23 26/32/24
f 26/32/24 8/33/23 11/34/25 25/35/26
f 32/36/18 12/37/17 17/38/27 29/39/28
f 13/28/22 14/40/21 2/41/29 20/42/30
f 22/43/20 4/44/19 1/45/31 24/46/32
f 12/47/17 13/28/22 20/42/30 17/48/27
f 7/49/7 19/25/12 13/28/22 12/50/17
f 6/51/6 18/9/9 19/12/12 7/52/7
f 14/53/21 22/43/20 24/46/32 2/54/29
f 9/55/11 23/21/16 22/24/20 14/56/21
f 10/57/10 21/13/13 23/16/16 9/58/11
f 4/59/19 26/32/24 25/35/26 1/60/31
f 16/61/15 28/29/4 26/32/24 4/62/19
f 3/63/14 27/1/1 28/4/4 16/64/15
f 8/65/23 32/36/18 29/39/28 11/66/25
f 15/67/3 31/17/8 32/20/18 8/68/23
f 5/69/2 30/5/5 31/8/8 15/70/3
f 40/71/33 38/72/33 35/73/33 37/74/33
f 39/75/33 40/71/33 37/74/33 11/76/25
f 33/77/33 36/78/33 40/71/33 39/75/33
f 36/78/33 34/79/33 38/72/33 40/71/33
