# Blender v2.93.5 OBJ File: 'Cavern_Rope_Fence_04.blend'
# www.blender.org
mtllib Cavern_Rope_Fence_04.mtl
o Cube
v -0.017191 0.281005 -0.066573
v -0.017191 0.281005 -1.071185
v -0.017191 0.312255 -1.071185
v -0.017191 0.257913 -0.221185
v -0.017191 0.289163 -0.221185
v -0.017191 0.226663 -0.518685
v -0.017191 0.257913 -0.850185
v -0.017191 0.289163 -0.850185
v -0.017191 0.312255 -0.066573
v -0.048441 0.289163 -0.221185
v -0.048441 0.289163 -0.850185
v -0.048441 0.257913 -0.851185
v -0.048441 0.257913 -0.518685
v -0.017191 0.257913 -0.518685
v -0.048441 0.226663 -0.521185
v -0.048441 0.281005 -1.071185
v -0.048441 0.257913 -0.221185
v -0.048441 0.281005 -0.066573
v -0.048441 0.312255 -0.066573
v -0.048441 0.312255 -1.071185
vt 0.298051 0.527441
vt 0.318111 0.527441
vt 0.318111 0.531152
vt 0.298051 0.531152
vt 0.227344 0.527441
vt 0.240959 0.527441
vt 0.240959 0.531152
vt 0.227344 0.531152
vt 0.267962 0.527441
vt 0.267962 0.531152
vt 0.298051 0.527441
vt 0.318111 0.527441
vt 0.318111 0.531152
vt 0.298051 0.531152
vt 0.227344 0.527441
vt 0.240959 0.527441
vt 0.240959 0.531152
vt 0.227344 0.531152
vt 0.267962 0.527441
vt 0.267962 0.531152
vt 0.298142 0.527441
vt 0.318111 0.527441
vt 0.318111 0.531152
vt 0.298142 0.531152
vt 0.227344 0.527441
vt 0.240959 0.527441
vt 0.240959 0.531152
vt 0.227344 0.531152
vt 0.304496 0.527441
vt 0.318111 0.527441
vt 0.318111 0.531152
vt 0.304496 0.531152
vt 0.268189 0.527441
vt 0.268189 0.531152
vt 0.241164 0.527441
vt 0.241164 0.531152
vt 0.247403 0.527441
vt 0.277493 0.527441
vt 0.277493 0.531152
vt 0.247403 0.531152
vt 0.227344 0.527441
vt 0.227344 0.531152
vn 0.7072 -0.7035 -0.0700
vn 0.7299 -0.6798 -0.0712
vn 0.6825 0.7270 0.0759
vn 0.7082 0.7025 0.0698
vn 0.7382 -0.6671 0.0996
vn 0.7015 -0.7070 0.0897
vn 0.7120 0.6965 -0.0885
vn 0.6713 0.7331 -0.1095
vn 0.6856 -0.7280 0.0073
vn 0.7301 0.6833 -0.0036
vn -0.6825 0.7270 0.0759
vn -0.7082 0.7025 0.0698
vn -0.7120 0.6965 -0.0885
vn -0.6713 0.7331 -0.1095
vn -0.7301 0.6833 -0.0036
vn -0.7047 -0.7060 -0.0704
vn -0.7290 -0.6808 -0.0713
vn -0.7382 -0.6671 0.0996
vn -0.7029 -0.7056 0.0895
vn -0.6852 -0.7284 0.0000
usemtl Caverns_Tileset
s 1
f 7/1/1 2/2/2 3/3/3 8/4/4
f 1/5/5 4/6/6 5/7/7 9/8/8
f 4/6/6 6/9/9 14/10/10 5/7/7
f 6/9/9 7/1/1 8/4/4 14/10/10
f 8/11/4 3/12/3 20/13/11 11/14/12
f 9/15/8 5/16/7 10/17/13 19/18/14
f 5/16/7 14/19/10 13/20/15 10/17/13
f 14/19/10 8/11/4 11/14/12 13/20/15
f 12/21/16 16/22/17 2/23/2 7/24/1
f 18/25/18 17/26/19 4/27/6 1/28/5
f 17/29/19 18/30/18 19/31/14 10/32/13
f 15/33/20 12/21/16 7/24/1 6/34/9
f 17/35/19 15/33/20 6/34/9 4/36/6
f 12/37/16 15/38/20 13/39/15 11/40/12
f 16/41/17 12/37/16 11/40/12 20/42/11
f 15/38/20 17/29/19 10/32/13 13/39/15
