# Blender v2.93.5 OBJ File: 'Caverns_Landmass_Dirt_01.blend'
# www.blender.org
mtllib Caverns_Landmass_Dirt_01.mtl
o Cube
v -0.550576 1.242424 -0.550576
v -0.821422 -0.007576 -0.821422
v 0.550576 1.242424 0.550576
v -0.671259 0.211174 0.671259
v 0.550576 1.242424 -0.550576
v 0.500000 1.429924 -0.500000
v 0.500000 1.523674 0.500000
v 0.671259 0.211174 -0.671259
v -0.500000 1.492424 -0.500000
v -0.500000 1.429924 0.500000
v -0.550576 1.179924 0.550576
v 0.821422 -0.007576 -0.821422
v 0.671259 0.211174 0.671259
v 0.821422 -0.007576 0.821422
v -0.821422 -0.007576 0.821422
v -0.671259 0.211174 -0.671259
v -0.642390 1.461174 0.000000
v -1.055346 -0.007576 0.000000
v 1.055346 -0.007576 0.000000
v -0.707369 1.179924 0.000000
v 0.642390 1.523674 0.000000
v -0.862420 0.211174 -0.000000
v 0.707369 1.242424 0.000000
v 0.862420 0.211174 -0.000000
v 0.000000 1.211174 -0.707369
v -0.000000 0.211174 -0.862420
v 0.000000 1.461174 -0.642390
v 0.000000 1.492424 0.642390
v 0.000000 1.242424 0.707369
v 0.000000 -0.007576 1.055346
v 0.000000 -0.007576 -1.055346
v 0.000000 0.211174 0.862420
v 0.000000 1.523674 0.000000
vt 0.863636 0.812500
vt 0.909091 0.812500
vt 0.909091 0.875000
vt 0.863636 0.875000
vt 0.136364 0.843750
vt 0.181818 0.843750
vt 0.181818 0.875000
vt 0.136364 0.875000
vt 0.136364 0.843750
vt 0.181818 0.843750
vt 0.181818 0.875000
vt 0.136364 0.875000
vt 0.136364 0.843750
vt 0.181818 0.843750
vt 0.181818 0.875000
vt 0.136364 0.875000
vt 0.136364 0.843750
vt 0.181818 0.843750
vt 0.181818 0.875000
vt 0.136364 0.875000
vt 0.136364 0.625098
vt 0.181747 0.625098
vt 0.181747 0.749902
vt 0.136364 0.749902
vt 0.136364 0.625098
vt 0.181747 0.625098
vt 0.181747 0.749902
vt 0.136364 0.749902
vt 0.136364 0.625098
vt 0.181747 0.625098
vt 0.181747 0.749902
vt 0.136364 0.749902
vt 0.136364 0.625098
vt 0.181747 0.625098
vt 0.181747 0.749902
vt 0.136364 0.749902
vt 0.045455 0.812598
vt 0.090838 0.812598
vt 0.090838 0.843652
vt 0.045455 0.843652
vt 0.045455 0.812598
vt 0.090838 0.812598
vt 0.090838 0.843652
vt 0.045455 0.843652
vt 0.045455 0.812598
vt 0.090838 0.812598
vt 0.090838 0.843652
vt 0.045455 0.843652
vt 0.045455 0.812598
vt 0.090838 0.812598
vt 0.090838 0.843652
vt 0.045455 0.843652
vt 0.000071 0.812598
vt 0.000071 0.843652
vt 0.000071 0.812598
vt 0.000071 0.843652
vt 0.090980 0.625098
vt 0.090980 0.749902
vt 0.090980 0.625098
vt 0.090980 0.749902
vt 0.090909 0.843750
vt 0.090909 0.875000
vt 0.090909 0.843750
vt 0.090909 0.875000
vt 0.818182 0.812500
vt 0.818182 0.875000
vt 0.818182 0.750000
vt 0.863636 0.750000
vt 0.000071 0.812598
vt 0.000071 0.843652
vt 0.000071 0.812598
vt 0.000071 0.843652
vt 0.090980 0.625098
vt 0.090980 0.749902
vt 0.090980 0.625098
vt 0.090980 0.749902
vt 0.090909 0.843750
vt 0.090909 0.875000
vt 0.090909 0.843750
vt 0.090909 0.875000
vt 0.909091 0.750000
vn -0.0320 0.9993 -0.0199
vn 0.0012 0.7221 -0.6918
vn -0.4994 0.7106 -0.4956
vn -0.6996 0.7144 0.0128
vn 0.9805 0.1966 -0.0046
vn 0.6847 0.2289 -0.6919
vn 0.5074 0.6670 -0.5455
vn 0.6596 0.7510 -0.0299
vn 0.0026 0.2054 -0.9786
vn -0.6920 0.2177 -0.6883
vn -0.9810 0.1936 0.0078
vn -0.6954 0.2135 0.6862
vn -0.5444 0.6594 0.5184
vn -0.0100 0.1987 0.9800
vn 0.6911 0.2058 0.6928
vn 0.4874 0.7118 0.5058
vn -0.0409 0.7298 0.6825
vn -0.0017 0.4436 0.8962
vn 0.6153 0.4927 0.6153
vn -0.8954 0.4453 0.0017
vn -0.6153 0.4955 0.6131
vn 0.0000 0.4433 -0.8964
vn -0.6151 0.4946 -0.6140
vn 0.8968 0.4425 0.0000
vn 0.6146 0.4933 -0.6156
vn 0.7500 0.6614 0.0000
vn 0.5073 0.6965 -0.5073
vn 0.0000 0.6614 -0.7500
vn -0.5073 0.6965 -0.5073
vn -0.7500 0.6614 0.0000
vn -0.5073 0.6965 0.5073
vn 0.0000 0.6614 0.7500
vn 0.5073 0.6965 0.5073
usemtl Caverns_Tileset
s 1
f 33/1/1 27/2/2 9/3/3 17/4/4
f 23/5/5 5/6/6 6/7/7 21/8/8
f 25/9/9 1/10/10 9/11/3 27/12/2
f 20/13/11 11/14/12 10/15/13 17/16/4
f 29/17/14 3/18/15 7/19/16 28/20/17
f 32/21/18 13/22/19 3/23/15 29/24/14
f 22/25/20 4/26/21 11/27/12 20/28/11
f 26/29/22 16/30/23 1/31/10 25/32/9
f 24/33/24 8/34/25 5/35/6 23/36/5
f 19/37/26 12/38/27 8/39/25 24/40/24
f 31/41/28 2/42/29 16/43/23 26/44/22
f 18/45/30 15/46/31 4/47/21 22/48/20
f 30/49/32 14/50/33 13/51/19 32/52/18
f 2/53/29 18/45/30 22/48/20 16/54/23
f 14/55/33 19/37/26 24/40/24 13/56/19
f 13/57/19 24/33/24 23/36/5 3/58/15
f 16/59/23 22/25/20 20/28/11 1/60/10
f 1/61/10 20/13/11 17/16/4 9/62/3
f 3/63/15 23/5/5 21/8/8 7/64/16
f 28/65/17 33/1/1 17/4/4 10/66/13
f 7/67/16 21/68/8 33/1/1 28/65/17
f 15/69/31 30/49/32 32/52/18 4/70/21
f 12/71/27 31/41/28 26/44/22 8/72/25
f 8/73/25 26/29/22 25/32/9 5/74/6
f 4/75/21 32/21/18 29/24/14 11/76/12
f 11/77/12 29/17/14 28/20/17 10/78/13
f 5/79/6 25/9/9 27/12/2 6/80/7
f 21/68/8 6/81/7 27/2/2 33/1/1
