# Blender v2.93.5 OBJ File: 'Caverns_Landmass_Wall_01.blend'
# www.blender.org
mtllib Caverns_Landmass_Wall_01.mtl
o Cube
v 1.000000 2.000000 0.000000
v -1.000000 2.000000 1.000000
v 0.965446 1.000000 0.000000
v 1.000000 0.000000 0.000000
v 1.000000 0.000000 1.000000
v 0.000000 0.000000 -0.247094
v 0.000000 1.000000 -0.199042
v -1.000000 0.000000 1.000000
v -1.000000 0.000000 0.000000
v 0.000000 2.000000 -0.292520
v -1.000000 2.000000 0.000000
v -1.000000 1.000000 1.000000
v -0.956387 1.000000 0.000000
v 1.000000 2.000000 1.000000
v 0.960756 1.000000 1.000000
v 1.000000 1.500000 0.000000
v -0.028487 1.500000 -0.274781
v -1.072163 1.500000 0.000000
v -1.000000 1.500000 1.000000
v 1.000000 1.500000 1.000000
v 1.031666 0.500000 1.000000
v -1.000000 0.500000 1.000000
v 0.000000 0.500000 -0.179492
v -0.939225 0.500000 0.000000
v 1.031666 0.500000 0.000000
v 1.000000 2.000000 0.500000
v 1.052073 0.000000 0.500000
v 0.935708 1.000000 0.500000
v 1.038326 1.500000 0.500000
v 1.053518 0.500000 0.500000
v -1.000000 2.000000 0.500000
v -1.052995 1.000000 0.500000
v -1.000000 0.000000 0.500000
v -1.074782 1.500000 0.500000
v -0.961031 0.500000 0.500000
vt 0.000071 0.687500
vt 0.090838 0.687500
vt 0.090838 0.749902
vt 0.000071 0.749902
vt 0.090909 0.687500
vt 0.181747 0.687500
vt 0.181747 0.749902
vt 0.090980 0.749902
vt 0.000071 0.687500
vt 0.090838 0.687500
vt 0.090838 0.749902
vt 0.000071 0.749902
vt 0.090980 0.687500
vt 0.181747 0.687500
vt 0.181747 0.749902
vt 0.090980 0.749902
vt 0.136364 0.687500
vt 0.181747 0.687500
vt 0.181747 0.749902
vt 0.136364 0.749902
vt 0.045455 0.687500
vt 0.090838 0.687500
vt 0.090838 0.749902
vt 0.045455 0.749902
vt 0.045455 0.687500
vt 0.090838 0.687500
vt 0.090838 0.749902
vt 0.045455 0.749902
vt 0.045490 0.687500
vt 0.090838 0.749902
vt 0.045455 0.749902
vt 0.045455 0.625098
vt 0.090838 0.625098
vt 0.136364 0.625098
vt 0.181747 0.625098
vt 0.090980 0.625098
vt 0.181747 0.625098
vt 0.000071 0.625098
vt 0.090838 0.625098
vt 0.045455 0.625098
vt 0.090838 0.625098
vt 0.045455 0.625098
vt 0.090838 0.625098
vt 0.000071 0.625098
vt 0.090838 0.625098
vt 0.090980 0.625098
vt 0.181747 0.625098
vt 0.000071 0.625098
vt 0.000071 0.687500
vt 0.000071 0.625098
vt 0.000071 0.687500
vt 0.000071 0.749902
vt 0.000071 0.749902
vt 0.000071 0.625098
vt 0.000071 0.687500
vt 0.090980 0.625098
vt 0.090980 0.687500
vt 0.000071 0.749902
vt 0.090980 0.749902
vn 0.7866 -0.0616 -0.6143
vn -0.0082 -0.0500 -0.9987
vn 0.0107 -0.0084 -0.9999
vn 0.7848 0.0084 -0.6196
vn 0.7755 0.0657 -0.6279
vn -0.0048 0.0280 -0.9996
vn 0.0020 -0.0541 -0.9985
vn 0.7594 -0.0125 -0.6504
vn -0.7402 0.0163 -0.6722
vn -0.7212 -0.1151 -0.6831
vn -0.8001 -0.0241 -0.5994
vn -0.7696 0.0938 -0.6315
vn -0.9995 0.0156 0.0251
vn -0.9945 0.0264 0.1007
vn -0.9944 0.0743 0.0743
vn -0.9933 0.1100 0.0359
vn -0.9990 -0.0153 -0.0413
vn -0.9996 -0.0264 -0.0125
vn -0.9959 -0.0567 0.0705
vn -0.9958 -0.0895 -0.0182
vn 0.9987 -0.0499 0.0012
vn 0.9992 0.0383 0.0000
vn 0.9971 0.0753 0.0011
vn 0.9997 0.0227 0.0023
vn 0.9995 -0.0331 0.0000
vn 0.7421 0.0179 -0.6700
vn -0.9971 0.0691 -0.0303
vn -0.9985 0.0389 -0.0389
vn -0.0046 0.0707 -0.9975
vn -0.7859 0.1134 -0.6078
vn 0.9967 -0.0330 0.0737
vn 0.9964 0.0768 0.0355
vn 0.9997 0.0229 0.0050
vn 0.9983 -0.0515 0.0258
vn 0.9985 0.0382 0.0382
usemtl Caverns_Tileset
s 1
f 16/1/1 17/2/2 10/3/3 1/4/4
f 25/5/5 23/6/6 7/7/7 3/8/8
f 23/9/6 24/10/9 13/11/10 7/12/7
f 17/13/2 18/14/11 11/15/12 10/16/3
f 34/17/13 19/18/14 2/19/15 31/20/16
f 35/21/17 22/22/18 12/23/19 32/24/20
f 29/25/21 16/26/1 1/27/4 26/28/22
f 30/29/23 25/5/5 3/30/8 28/31/24
f 28/32/24 3/33/8 16/26/1 29/25/21
f 32/34/20 12/35/19 19/18/14 34/17/13
f 7/36/7 13/37/10 18/14/11 17/13/2
f 3/38/8 7/39/7 17/2/2 16/1/1
f 27/40/25 4/41/26 25/5/5 30/29/23
f 33/42/27 8/43/28 22/22/18 35/21/17
f 6/44/29 9/45/30 24/10/9 23/9/6
f 4/46/26 6/47/29 23/6/6 25/5/5
f 5/48/31 27/40/25 30/29/23 21/49/32
f 15/50/33 28/32/24 29/25/21 20/51/34
f 21/49/32 30/29/23 28/31/24 15/52/33
f 20/51/34 29/25/21 26/28/22 14/53/35
f 9/54/30 33/42/27 35/21/17 24/55/9
f 13/56/10 32/34/20 34/17/13 18/57/11
f 24/55/9 35/21/17 32/24/20 13/58/10
f 18/57/11 34/17/13 31/20/16 11/59/12
