# Blender v2.93.5 OBJ File: 'Cavern_Cliff_Grass_Corner_Inverted_01.blend'
# www.blender.org
mtllib Cavern_Cliff_Grass_Corner_Inverted_01.mtl
o Cube
v -0.271526 1.000000 0.228474
v -0.271526 1.000000 1.000000
v -0.173841 0.049753 1.000000
v -0.271526 0.131823 1.000000
v 0.000000 0.000000 1.000000
v 0.000000 0.000000 0.500000
v -0.271526 0.131823 0.228474
v 0.500000 0.049753 0.330792
v -0.500000 1.148818 1.000000
v -0.500000 1.148818 0.228474
v -0.361449 1.088465 1.000000
v -0.361449 1.088465 0.228474
v -0.169208 0.049753 0.326159
v 0.500000 0.000000 0.500000
v 0.500000 1.088465 0.138551
v -0.271526 1.088465 0.138551
v 0.500000 1.148818 0.000000
v 0.500000 0.131823 0.228474
v 0.500000 1.000000 0.228474
v -0.361449 1.088465 0.138551
v -0.271526 1.148818 0.000000
v -0.500000 1.148818 -0.000000
vt 0.070312 0.828223
vt 0.111328 0.828223
vt 0.117188 0.843652
vt 0.070312 0.843652
vt 0.062549 0.625098
vt 0.124951 0.625098
vt 0.124951 0.749902
vt 0.062549 0.749902
vt 0.105114 0.750098
vt 0.150568 0.750098
vt 0.167614 0.765527
vt 0.105114 0.765527
vt 0.117188 0.843848
vt 0.070312 0.843848
vt 0.070312 0.859277
vt 0.117188 0.859277
vt 0.102273 0.796973
vt 0.170455 0.796973
vt 0.170455 0.812402
vt 0.102273 0.812402
vt 0.122159 0.750098
vt 0.167614 0.750098
vt 0.167614 0.765527
vt 0.105114 0.765527
vt 0.076172 0.828223
vt 0.117188 0.828223
vt 0.117188 0.843652
vt 0.070312 0.843652
vt 0.117188 0.843848
vt 0.117188 0.859277
vt 0.070312 0.859277
vt 0.062549 0.625098
vt 0.124951 0.625098
vt 0.124951 0.749902
vt 0.062549 0.749902
vt 0.102273 0.796973
vt 0.170455 0.796973
vt 0.170455 0.812402
vt 0.102273 0.812402
vt 0.091797 0.843848
vt 0.095703 0.859277
vt 0.095703 0.859277
vt 0.139205 0.796973
vt 0.147727 0.796973
vt 0.147727 0.812402
vt 0.125000 0.812402
vt 0.091797 0.859277
vt 0.125000 0.796973
vt 0.133523 0.796973
vt 0.147727 0.812402
vt 0.125000 0.812402
vn 0.4661 0.8847 0.0016
vn 0.2933 0.9071 0.3019
vn 0.6440 0.4210 0.6387
vn 0.9038 0.4279 0.0011
vn 0.5764 0.5793 0.5764
vn 0.9223 0.3864 0.0000
vn 0.2781 0.9605 0.0011
vn 0.1420 0.9796 0.1421
vn 0.5597 0.8287 0.0000
vn 0.3993 0.9168 0.0000
vn -0.0011 0.9603 0.2791
vn -0.0016 0.8848 0.4659
vn -0.0011 0.4272 0.9041
vn 0.0000 0.3864 0.9223
vn 0.0000 0.8287 0.5597
vn 0.0000 0.9168 0.3993
vn 0.2637 0.9278 0.2637
vn 0.2081 0.9557 0.2081
usemtl Caverns_Tileset
s 1
f 3/1/1 13/2/2 7/3/3 4/4/4
f 4/5/4 7/6/3 1/7/5 2/8/6
f 5/9/7 6/10/8 13/11/2 3/12/1
f 2/13/6 1/14/5 12/15/9 11/16/9
f 11/17/9 12/18/9 10/19/10 9/20/10
f 6/21/8 14/22/11 8/23/12 13/24/2
f 13/25/2 8/26/12 18/27/13 7/28/3
f 1/14/5 19/29/14 15/30/15 16/31/15
f 7/32/3 18/33/13 19/34/14 1/35/5
f 16/36/15 15/37/15 17/38/16 21/39/16
f 1/40/5 16/41/15 20/42/17
f 20/43/17 16/44/15 21/45/16 22/46/18
f 12/47/9 1/40/5 20/42/17
f 12/48/9 20/49/17 22/50/18 10/51/10
