# Blender v2.93.5 OBJ File: 'Cavern_Cliff_Dirt_Corner_Inverted_High_02.blend'
# www.blender.org
mtllib Cavern_Cliff_Dirt_Corner_Inverted_High_02.mtl
o Cube
v -0.271526 1.000000 1.000000
v -0.173841 0.049753 1.000000
v -0.271526 0.131823 1.000000
v 0.000000 0.000000 1.000000
v 0.000000 0.000000 0.500000
v -0.271526 0.131823 0.228474
v 0.500000 0.049753 0.330792
v -0.173841 0.049753 0.326159
v 0.500000 0.000000 0.500000
v -0.271526 1.000000 0.228474
v 0.500000 0.131823 0.228474
v 0.500000 1.000000 0.228474
v -0.271526 1.851182 0.228474
v -0.271526 1.851182 1.000000
v -0.500000 2.000000 1.000000
v -0.500000 2.000000 0.228474
v -0.361449 1.939647 1.000000
v -0.361449 1.939647 0.228474
v 0.500000 1.939647 0.138551
v -0.271526 1.939647 0.138551
v 0.500000 2.000000 0.000000
v 0.500000 1.851182 0.228474
v -0.361449 1.939647 0.138551
v -0.271526 2.000000 0.000000
v -0.500000 2.000000 -0.000000
vt 0.117188 0.828223
vt 0.076172 0.828223
vt 0.070312 0.843652
vt 0.117188 0.843652
vt 0.000049 0.625098
vt 0.062451 0.625098
vt 0.062451 0.749902
vt 0.000049 0.749902
vt 0.115234 0.812598
vt 0.083984 0.812598
vt 0.072266 0.828027
vt 0.115234 0.828027
vt 0.103516 0.812598
vt 0.072266 0.812598
vt 0.072266 0.828027
vt 0.115234 0.828027
vt 0.111328 0.828223
vt 0.070312 0.828223
vt 0.070312 0.843652
vt 0.117188 0.843652
vt 0.000049 0.625098
vt 0.062451 0.625098
vt 0.062451 0.749902
vt 0.000049 0.749902
vt 0.000049 0.625098
vt 0.062451 0.625098
vt 0.062451 0.749902
vt 0.000049 0.749902
vt 0.000049 0.625098
vt 0.062451 0.625098
vt 0.062451 0.749902
vt 0.000049 0.749902
vt 0.117188 0.843848
vt 0.070312 0.843848
vt 0.070312 0.859277
vt 0.117188 0.859277
vt 0.117188 0.859473
vt 0.070312 0.859473
vt 0.070312 0.874902
vt 0.117188 0.874902
vt 0.117188 0.843848
vt 0.070312 0.843848
vt 0.070312 0.859277
vt 0.117188 0.859277
vt 0.117188 0.859473
vt 0.070312 0.859473
vt 0.070312 0.874902
vt 0.117188 0.874902
vt 0.095703 0.843848
vt 0.091797 0.843848
vt 0.091797 0.859277
vt 0.091797 0.859473
vt 0.085938 0.859473
vt 0.085938 0.874902
vt 0.101562 0.874902
vt 0.095703 0.859277
vt 0.101562 0.859473
vt 0.095703 0.859473
vt 0.085938 0.874902
vt 0.101562 0.874902
vn 0.4695 0.8829 0.0000
vn 0.3004 0.9058 0.2988
vn 0.6426 0.4199 0.6409
vn 0.9064 0.4223 0.0000
vn 0.7071 0.0000 0.7071
vn 1.0000 0.0000 0.0000
vn 0.2751 0.9614 0.0000
vn 0.1397 0.9799 0.1423
vn -0.0011 0.9602 0.2791
vn -0.0016 0.8848 0.4659
vn -0.0011 0.4272 0.9041
vn 0.0000 0.0000 1.0000
vn 0.0000 0.3864 0.9223
vn 0.5764 0.5793 0.5764
vn 0.9223 0.3864 0.0000
vn 0.5597 0.8287 0.0000
vn 0.3993 0.9168 0.0000
vn 0.0000 0.8287 0.5597
vn 0.0000 0.9168 0.3993
vn 0.2637 0.9278 0.2637
vn 0.2081 0.9557 0.2081
usemtl Caverns_Tileset
s 1
f 2/1/1 8/2/2 6/3/3 3/4/4
f 3/5/4 6/6/3 10/7/5 1/8/6
f 4/9/7 5/10/8 8/11/2 2/12/1
f 5/13/8 9/14/9 7/15/10 8/16/2
f 8/17/2 7/18/10 11/19/11 6/20/3
f 6/21/3 11/22/11 12/23/12 10/24/5
f 10/25/5 12/26/12 22/27/13 13/28/14
f 1/29/6 10/30/5 13/31/14 14/32/15
f 14/33/15 13/34/14 18/35/16 17/36/16
f 17/37/16 18/38/16 16/39/17 15/40/17
f 13/41/14 22/42/13 19/43/18 20/44/18
f 20/45/18 19/46/18 21/47/19 24/48/19
f 13/49/14 20/50/18 23/51/20
f 23/52/20 20/53/18 24/54/19 25/55/21
f 18/56/16 13/49/14 23/51/20
f 18/57/16 23/58/20 25/59/21 16/60/17
