# Blender v2.93.5 OBJ File: 'Cavern_Grass_Foliage_03.blend'
# www.blender.org
mtllib Cavern_Grass_Foliage_03.mtl
o Cube
v 0.000000 0.000000 0.093750
v 0.000000 0.000000 -0.062500
v -0.093750 0.312500 -0.062500
v -0.093750 0.312500 0.093750
v 0.062500 0.000000 0.000000
v 0.062500 0.000000 -0.125000
v 0.125000 0.301020 -0.179343
v 0.125000 0.320284 -0.055836
v 0.031250 0.000000 0.062500
v 0.031250 0.000000 0.187500
v 0.062500 0.343750 0.187500
v 0.062500 0.343750 0.062500
v 0.000000 0.000000 -0.093750
v 0.000000 0.000000 -0.125000
v 0.000000 0.281250 -0.125000
v 0.000000 0.281250 -0.093750
v 0.062500 0.000000 0.125000
v 0.062500 0.000000 0.093750
v 0.031250 0.000000 -0.093750
v 0.031250 0.000000 -0.187500
v 0.000000 0.218750 -0.250000
v 0.000000 0.218750 -0.156250
v 0.000000 0.000000 0.218750
v 0.000000 0.000000 0.125000
v 0.031250 0.218750 0.156250
v 0.031250 0.218750 0.250000
v 0.000000 0.150000 0.093750
v 0.000000 0.150000 -0.062500
v 0.031250 0.098438 -0.125000
v 0.031250 0.098438 -0.218750
v 0.000000 0.098438 0.250000
v 0.000000 0.098438 0.156250
v 0.062500 0.045855 -0.008157
v 0.062500 0.026591 -0.131664
v 0.062500 0.196875 0.156250
v 0.062500 0.196875 0.125000
v 0.031250 0.189063 0.062500
v 0.031250 0.189063 0.187500
v 0.062500 0.179430 -0.155503
v 0.062500 0.198695 -0.031997
v -0.059158 0.000000 -0.012002
v 0.096497 0.000000 -0.025620
v 0.088326 0.312500 -0.119014
v -0.067329 0.312500 -0.105396
v 0.039682 0.000000 0.042089
v 0.164206 0.000000 0.031194
v 0.223790 0.301020 0.088720
v 0.100753 0.320284 0.099485
v -0.025304 0.000000 0.016405
v -0.149828 0.000000 0.027300
v -0.147104 0.343750 0.058431
v -0.022580 0.343750 0.047536
v 0.127628 0.000000 -0.028344
v 0.158759 0.000000 -0.031068
v 0.158759 0.281250 -0.031068
v 0.127628 0.281250 -0.028344
v -0.084842 0.000000 0.052983
v -0.053711 0.000000 0.050260
v 0.130352 0.000000 0.002787
v 0.223745 0.000000 -0.005384
v 0.283283 0.218750 -0.041962
v 0.189890 0.218750 -0.033791
v -0.183683 0.000000 -0.001108
v -0.090290 0.000000 -0.009279
v -0.118697 0.218750 0.024576
v -0.212090 0.218750 0.032747
v -0.059158 0.150000 -0.012002
v 0.096497 0.150000 -0.025620
v 0.161483 0.098438 0.000063
v 0.254876 0.098438 -0.008107
v -0.214814 0.098438 0.001616
v -0.121421 0.098438 -0.006555
v 0.047808 0.045855 0.041378
v 0.170845 0.026591 0.030614
v -0.115973 0.196875 0.055707
v -0.084842 0.196875 0.052983
v -0.025304 0.189063 0.016405
v -0.149828 0.189063 0.027300
v 0.194594 0.179430 0.028536
v 0.071557 0.198695 0.039300
vt 0.412003 0.581270
vt 0.426065 0.581270
vt 0.426065 0.609277
vt 0.412003 0.609277
vt 0.443253 0.586123
vt 0.454474 0.586123
vt 0.454474 0.605371
vt 0.443253 0.605371
vt 0.443253 0.586123
vt 0.454474 0.586123
vt 0.454474 0.605371
vt 0.443253 0.605371
vt 0.394957 0.562598
vt 0.397656 0.562598
vt 0.397656 0.597559
vt 0.394957 0.597559
vt 0.429048 0.574814
vt 0.437429 0.574814
vt 0.437429 0.589746
vt 0.429048 0.589746
vt 0.429048 0.574814
vt 0.437429 0.574814
vt 0.437429 0.589746
vt 0.429048 0.589746
vt 0.412003 0.562598
vt 0.426065 0.562598
vt 0.429048 0.562598
vt 0.437429 0.562598
vt 0.429048 0.562598
vt 0.437429 0.562598
vt 0.443253 0.562598
vt 0.454474 0.562598
vt 0.454474 0.566875
vt 0.443253 0.566875
vt 0.394957 0.562598
vt 0.397656 0.562598
vt 0.397656 0.587070
vt 0.394957 0.587070
vt 0.443253 0.562598
vt 0.454474 0.562598
vt 0.412003 0.581270
vt 0.426065 0.581270
vt 0.426065 0.609277
vt 0.412003 0.609277
vt 0.443253 0.586123
vt 0.454474 0.586123
vt 0.454474 0.605371
vt 0.443253 0.605371
vt 0.443253 0.586123
vt 0.454474 0.586123
vt 0.454474 0.605371
vt 0.443253 0.605371
vt 0.394957 0.562598
vt 0.397656 0.562598
vt 0.397656 0.597559
vt 0.394957 0.597559
vt 0.429048 0.574814
vt 0.437429 0.574814
vt 0.437429 0.589746
vt 0.429048 0.589746
vt 0.429048 0.574814
vt 0.437429 0.574814
vt 0.437429 0.589746
vt 0.429048 0.589746
vt 0.412003 0.562598
vt 0.426065 0.562598
vt 0.429048 0.562598
vt 0.437429 0.562598
vt 0.429048 0.562598
vt 0.437429 0.562598
vt 0.443253 0.562598
vt 0.454474 0.562598
vt 0.454474 0.566875
vt 0.443253 0.566875
vt 0.394957 0.562598
vt 0.397656 0.562598
vt 0.397656 0.587070
vt 0.394957 0.587070
vt 0.443253 0.562598
vt 0.454474 0.562598
vn 0.9659 0.2586 0.0000
vn 0.8662 0.4997 0.0000
vn 0.9734 -0.2263 0.0353
vn 0.9722 -0.2313 0.0361
vn 0.8927 -0.4452 0.0694
vn -0.9950 0.0995 0.0000
vn -0.9802 0.1980 0.0000
vn 1.0000 0.0000 0.0000
vn 0.9945 0.1048 0.0000
vn 0.9887 0.1494 0.0000
vn 0.9679 0.2514 0.0000
vn 0.9901 -0.1404 0.0000
vn 0.9933 -0.1154 0.0000
vn 0.9679 -0.2514 0.0000
vn -1.0000 0.0000 0.0000
vn 0.0842 0.2586 0.9623
vn 0.0755 0.4997 0.8629
vn 0.0497 -0.2263 0.9728
vn 0.0488 -0.2313 0.9716
vn 0.0086 -0.4452 0.8954
vn -0.0867 0.0995 -0.9912
vn -0.0854 0.1980 -0.9764
vn 0.0871 0.0000 0.9962
vn 0.0867 0.1048 0.9907
vn 0.0862 0.1494 0.9850
vn 0.0844 0.2514 0.9642
vn 0.0863 -0.1404 0.9863
vn 0.0866 -0.1154 0.9895
vn 0.0844 -0.2514 0.9642
vn -0.0871 0.0000 -0.9962
usemtl Caverns_Tileset
s 1
f 27/1/1 28/2/1 3/3/2 4/4/2
f 40/5/3 39/6/4 7/7/5 8/8/5
f 37/9/6 38/10/6 11/11/7 12/12/7
f 13/13/8 14/14/8 15/15/8 16/16/8
f 29/17/9 30/18/10 21/19/11 22/20/11
f 31/21/12 32/22/13 25/23/14 26/24/14
f 1/25/8 2/26/8 28/2/1 27/1/1
f 19/27/8 20/28/8 30/18/10 29/17/9
f 23/29/8 24/30/8 32/22/13 31/21/12
f 5/31/8 6/32/8 34/33/8 33/34/8
f 17/35/8 18/36/8 36/37/8 35/38/8
f 9/39/15 10/40/15 38/10/6 37/9/6
f 33/34/8 34/33/8 39/6/4 40/5/3
f 67/41/16 68/42/16 43/43/17 44/44/17
f 80/45/18 79/46/19 47/47/20 48/48/20
f 77/49/21 78/50/21 51/51/22 52/52/22
f 53/53/23 54/54/23 55/55/23 56/56/23
f 69/57/24 70/58/25 61/59/26 62/60/26
f 71/61/27 72/62/28 65/63/29 66/64/29
f 41/65/23 42/66/23 68/42/16 67/41/16
f 59/67/23 60/68/23 70/58/25 69/57/24
f 63/69/23 64/70/23 72/62/28 71/61/27
f 45/71/23 46/72/23 74/73/23 73/74/23
f 57/75/23 58/76/23 76/77/23 75/78/23
f 49/79/30 50/80/30 78/50/21 77/49/21
f 73/74/23 74/73/23 79/46/19 80/45/18
