# Blender v2.93.5 OBJ File: 'Cavern_Grass_Foliage_01.blend'
# www.blender.org
mtllib Cavern_Grass_Foliage_01.mtl
o Cube
v 0.000000 0.000000 0.218750
v 0.000000 0.000000 0.187500
v 0.000000 0.500000 0.187500
v 0.000000 0.500000 0.218750
v 0.000000 0.000000 0.125000
v 0.000000 0.000000 0.093750
v 0.000000 0.375000 0.093750
v 0.000000 0.375000 0.125000
v -0.218750 0.000000 0.031250
v 0.062500 0.000000 -0.062500
v 0.062500 0.000000 -0.093750
v 0.062500 0.375000 -0.093750
v 0.062500 0.375000 -0.062500
v -0.062500 0.000000 0.187500
v -0.062500 0.000000 0.156250
v -0.062500 0.375000 0.156250
v -0.062500 0.375000 0.187500
v -0.031250 0.000000 0.000000
v -0.031250 0.000000 -0.031250
v -0.031250 0.281250 -0.031250
v -0.031250 0.281250 0.000000
v 0.093750 0.000000 0.062500
v 0.093750 0.000000 0.031250
v 0.093750 0.281250 0.031250
v 0.093750 0.281250 0.062500
v -0.031250 0.000000 -0.187500
v -0.031250 0.000000 -0.218750
v -0.031250 0.093750 -0.218750
v -0.031250 0.093750 -0.187500
v 0.062500 0.000000 0.187500
v 0.062500 0.000000 0.156250
v 0.062500 0.093750 0.156250
v 0.062500 0.093750 0.187500
v -0.093750 0.000000 0.281250
v -0.218750 0.000000 0.000000
v -0.218750 0.093750 0.000000
v -0.218750 0.093750 0.031250
v -0.093750 0.000000 0.250000
v -0.093750 0.093750 0.250000
v -0.093750 0.093750 0.281250
v -0.187500 0.000000 0.156250
v -0.187500 0.000000 0.125000
v -0.187500 0.093750 0.125000
v -0.187500 0.093750 0.156250
v -0.062500 0.000000 -0.093750
v -0.062500 0.000000 -0.125000
v -0.062500 0.281250 -0.125000
v -0.062500 0.281250 -0.093750
v -0.093750 0.000000 0.093750
v -0.093750 0.000000 0.062500
v -0.093750 0.281250 0.062500
v -0.093750 0.281250 0.093750
v -0.156250 0.000000 -0.031250
v -0.156250 0.000000 -0.062500
v -0.156250 0.312500 -0.062500
v -0.156250 0.312500 -0.031250
v -0.093750 0.000000 -0.156250
v -0.093750 0.000000 -0.187500
v -0.093750 0.312500 -0.187500
v -0.093750 0.312500 -0.156250
v -0.234375 0.000000 0.092708
v -0.203125 0.000000 0.092708
v -0.203125 0.500000 0.092708
v -0.234375 0.500000 0.092708
v -0.140625 0.000000 0.092708
v -0.109375 0.000000 0.092708
v -0.109375 0.375000 0.092708
v -0.140625 0.375000 0.092708
v -0.046875 0.000000 -0.126042
v 0.046875 0.000000 0.155208
v 0.078125 0.000000 0.155208
v 0.078125 0.375000 0.155208
v 0.046875 0.375000 0.155208
v -0.203125 0.000000 0.030208
v -0.171875 0.000000 0.030208
v -0.171875 0.375000 0.030208
v -0.203125 0.375000 0.030208
v -0.015625 0.000000 0.061458
v 0.015625 0.000000 0.061458
v 0.015625 0.281250 0.061458
v -0.015625 0.281250 0.061458
v -0.078125 0.000000 0.186458
v -0.046875 0.000000 0.186458
v -0.046875 0.281250 0.186458
v -0.078125 0.281250 0.186458
v 0.171875 0.000000 0.061458
v 0.203125 0.000000 0.061458
v 0.203125 0.093750 0.061458
v 0.171875 0.093750 0.061458
v -0.203125 0.000000 0.155208
v -0.171875 0.000000 0.155208
v -0.171875 0.093750 0.155208
v -0.203125 0.093750 0.155208
v -0.296875 0.000000 -0.001042
v -0.015625 0.000000 -0.126042
v -0.015625 0.093750 -0.126042
v -0.046875 0.093750 -0.126042
v -0.265625 0.000000 -0.001042
v -0.265625 0.093750 -0.001042
v -0.296875 0.093750 -0.001042
v -0.171875 0.000000 -0.094792
v -0.140625 0.000000 -0.094792
v -0.140625 0.093750 -0.094792
v -0.171875 0.093750 -0.094792
v 0.078125 0.000000 0.030208
v 0.109375 0.000000 0.030208
v 0.109375 0.281250 0.030208
v 0.078125 0.281250 0.030208
v -0.109375 0.000000 -0.001042
v -0.078125 0.000000 -0.001042
v -0.078125 0.281250 -0.001042
v -0.109375 0.281250 -0.001042
v 0.015625 0.000000 -0.063542
v 0.046875 0.000000 -0.063542
v 0.046875 0.312500 -0.063542
v 0.015625 0.312500 -0.063542
v 0.140625 0.000000 -0.001042
v 0.171875 0.000000 -0.001042
v 0.171875 0.312500 -0.001042
v 0.140625 0.312500 -0.001042
vt 0.394957 0.562598
vt 0.397656 0.562598
vt 0.397656 0.624902
vt 0.394957 0.624902
vt 0.394957 0.562598
vt 0.397656 0.562598
vt 0.397656 0.609277
vt 0.394957 0.609277
vt 0.394957 0.562598
vt 0.397656 0.562598
vt 0.397656 0.609277
vt 0.394957 0.609277
vt 0.394957 0.562598
vt 0.397656 0.562598
vt 0.397656 0.609277
vt 0.394957 0.609277
vt 0.394957 0.566504
vt 0.397656 0.566504
vt 0.397656 0.601465
vt 0.394957 0.601465
vt 0.394957 0.566504
vt 0.397656 0.566504
vt 0.397656 0.601465
vt 0.394957 0.601465
vt 0.394957 0.566504
vt 0.397656 0.566504
vt 0.397656 0.578027
vt 0.394957 0.578027
vt 0.394957 0.566504
vt 0.397656 0.566504
vt 0.397656 0.578027
vt 0.394957 0.578027
vt 0.394957 0.566504
vt 0.397656 0.566504
vt 0.397656 0.578027
vt 0.394957 0.578027
vt 0.394957 0.566504
vt 0.397656 0.566504
vt 0.397656 0.578027
vt 0.394957 0.578027
vt 0.394957 0.566504
vt 0.397656 0.566504
vt 0.397656 0.578027
vt 0.394957 0.578027
vt 0.394957 0.566504
vt 0.397656 0.566504
vt 0.397656 0.601465
vt 0.394957 0.601465
vt 0.394957 0.566504
vt 0.397656 0.566504
vt 0.397656 0.601465
vt 0.394957 0.601465
vt 0.394957 0.574316
vt 0.397656 0.574316
vt 0.397656 0.613184
vt 0.394957 0.613184
vt 0.394957 0.574316
vt 0.397656 0.574316
vt 0.397656 0.613184
vt 0.394957 0.613184
vt 0.394957 0.562598
vt 0.397656 0.562598
vt 0.397656 0.624902
vt 0.394957 0.624902
vt 0.394957 0.562598
vt 0.397656 0.562598
vt 0.397656 0.609277
vt 0.394957 0.609277
vt 0.394957 0.562598
vt 0.397656 0.562598
vt 0.397656 0.609277
vt 0.394957 0.609277
vt 0.394957 0.562598
vt 0.397656 0.562598
vt 0.397656 0.609277
vt 0.394957 0.609277
vt 0.394957 0.566504
vt 0.397656 0.566504
vt 0.397656 0.601465
vt 0.394957 0.601465
vt 0.394957 0.566504
vt 0.397656 0.566504
vt 0.397656 0.601465
vt 0.394957 0.601465
vt 0.394957 0.566504
vt 0.397656 0.566504
vt 0.397656 0.578027
vt 0.394957 0.578027
vt 0.394957 0.566504
vt 0.397656 0.566504
vt 0.397656 0.578027
vt 0.394957 0.578027
vt 0.394957 0.566504
vt 0.397656 0.566504
vt 0.397656 0.578027
vt 0.394957 0.578027
vt 0.394957 0.566504
vt 0.397656 0.566504
vt 0.397656 0.578027
vt 0.394957 0.578027
vt 0.394957 0.566504
vt 0.397656 0.566504
vt 0.397656 0.578027
vt 0.394957 0.578027
vt 0.394957 0.566504
vt 0.397656 0.566504
vt 0.397656 0.601465
vt 0.394957 0.601465
vt 0.394957 0.566504
vt 0.397656 0.566504
vt 0.397656 0.601465
vt 0.394957 0.601465
vt 0.394957 0.574316
vt 0.397656 0.574316
vt 0.397656 0.613184
vt 0.394957 0.613184
vt 0.394957 0.574316
vt 0.397656 0.574316
vt 0.397656 0.613184
vt 0.394957 0.613184
vn 1.0000 0.0000 0.0000
vn 0.0000 0.0000 1.0000
usemtl Caverns_Tileset
s off
f 1/1/1 2/2/1 3/3/1 4/4/1
f 5/5/1 6/6/1 7/7/1 8/8/1
f 10/9/1 11/10/1 12/11/1 13/12/1
f 14/13/1 15/14/1 16/15/1 17/16/1
f 18/17/1 19/18/1 20/19/1 21/20/1
f 22/21/1 23/22/1 24/23/1 25/24/1
f 26/25/1 27/26/1 28/27/1 29/28/1
f 30/29/1 31/30/1 32/31/1 33/32/1
f 9/33/1 35/34/1 36/35/1 37/36/1
f 34/37/1 38/38/1 39/39/1 40/40/1
f 41/41/1 42/42/1 43/43/1 44/44/1
f 45/45/1 46/46/1 47/47/1 48/48/1
f 49/49/1 50/50/1 51/51/1 52/52/1
f 53/53/1 54/54/1 55/55/1 56/56/1
f 57/57/1 58/58/1 59/59/1 60/60/1
f 61/61/2 62/62/2 63/63/2 64/64/2
f 65/65/2 66/66/2 67/67/2 68/68/2
f 70/69/2 71/70/2 72/71/2 73/72/2
f 74/73/2 75/74/2 76/75/2 77/76/2
f 78/77/2 79/78/2 80/79/2 81/80/2
f 82/81/2 83/82/2 84/83/2 85/84/2
f 86/85/2 87/86/2 88/87/2 89/88/2
f 90/89/2 91/90/2 92/91/2 93/92/2
f 69/93/2 95/94/2 96/95/2 97/96/2
f 94/97/2 98/98/2 99/99/2 100/100/2
f 101/101/2 102/102/2 103/103/2 104/104/2
f 105/105/2 106/106/2 107/107/2 108/108/2
f 109/109/2 110/110/2 111/111/2 112/112/2
f 113/113/2 114/114/2 115/115/2 116/116/2
f 117/117/2 118/118/2 119/119/2 120/120/2
