# Blender v2.93.5 OBJ File: 'Cavern_Grass_Foliage_06.blend'
# www.blender.org
mtllib Cavern_Grass_Foliage_06.mtl
o Cube
v -0.021916 0.018553 -0.098303
v 0.008727 0.000149 -0.027842
v -0.021914 0.001626 -0.022258
v 0.078357 0.020280 -0.076922
v 0.023729 0.000000 -0.003229
v 0.000937 0.000000 -0.032040
v -0.109314 0.071467 -0.006963
v -0.019168 -0.000000 -0.028003
v -0.019168 -0.000000 0.015656
v 0.083728 0.006992 0.048541
v -0.006692 -0.001664 0.013755
v 0.015407 -0.001664 -0.019296
v -0.032297 0.045553 0.099483
v -0.028699 -0.001584 0.005287
v 0.010155 -0.001355 0.017238
v -0.042183 0.047711 -0.038219
v -0.042183 0.055950 0.024287
v -0.027622 0.036786 0.022413
v 0.014907 0.036467 0.035865
v 0.032604 0.056646 0.053709
v 0.067344 0.046018 0.001754
v 0.012551 0.045380 -0.054508
v -0.033094 0.048374 -0.043347
v 0.050305 0.032929 -0.007828
v 0.011528 0.046234 -0.056844
v -0.078230 0.066192 -0.038213
v -0.078230 0.074689 0.024287
v -0.052550 0.051996 0.056673
v 0.002061 0.051225 0.080830
v 0.058580 0.039504 0.069318
v 0.093320 0.032553 0.017362
v 0.014646 0.041882 -0.084454
v -0.046089 0.043213 -0.069767
v 0.081289 0.046893 -0.029730
v 0.042512 0.056847 -0.078746
v 0.035442 0.035468 -0.012738
v 0.007022 0.035468 0.029765
vt 0.480185 0.574170
vt 0.485724 0.574170
vt 0.482955 0.578125
vt 0.457457 0.574170
vt 0.462997 0.574170
vt 0.460227 0.578125
vt 0.491548 0.581973
vt 0.497088 0.581973
vt 0.494318 0.585938
vt 0.491548 0.581973
vt 0.497088 0.581973
vt 0.494318 0.585938
vt 0.491548 0.582069
vt 0.497088 0.582069
vt 0.494318 0.585938
vt 0.491548 0.566504
vt 0.497088 0.566504
vt 0.497088 0.576172
vt 0.491548 0.576172
vt 0.491548 0.566504
vt 0.497088 0.566504
vt 0.497088 0.573272
vt 0.491548 0.573272
vt 0.491548 0.572305
vt 0.497088 0.572305
vt 0.497088 0.578105
vt 0.491548 0.578105
vt 0.480185 0.562598
vt 0.485724 0.562598
vt 0.485724 0.570312
vt 0.480185 0.570312
vt 0.457457 0.562598
vt 0.462997 0.562598
vt 0.462997 0.570312
vt 0.457457 0.570312
vt 0.491548 0.566504
vt 0.497088 0.566504
vn -0.0610 0.9206 -0.3857
vn -0.0631 0.9173 -0.3932
vn -0.1591 0.6763 -0.7192
vn 0.1996 0.9778 0.0642
vn 0.1811 0.9802 0.0800
vn 0.6650 0.6320 -0.3977
vn 0.3182 0.9395 -0.1265
vn 0.3261 0.9369 -0.1261
vn 0.0327 0.9903 -0.1346
vn 0.6144 0.7333 0.2909
vn 0.5884 0.7629 0.2679
vn 0.8097 0.3065 0.5004
vn 0.0530 0.9919 -0.1155
vn 0.0619 0.9885 -0.1376
vn -0.0651 0.9817 0.1786
vn 0.9137 0.4052 -0.0314
vn 0.7252 0.6839 -0.0795
vn 0.6989 0.7102 -0.0843
vn 0.2746 0.3912 -0.8784
vn 0.2156 0.7464 -0.6296
vn 0.2120 0.7589 -0.6157
vn -0.5208 0.7505 -0.4068
vn -0.5219 0.7495 -0.4073
vn 0.0918 0.9926 -0.0791
vn 0.1051 0.9919 -0.0711
vn 0.2158 0.4635 0.8594
vn 0.1161 0.9303 0.3479
vn 0.1187 0.9253 0.3601
vn -0.6287 0.5124 0.5849
vn -0.3984 0.7798 0.4828
vn -0.3659 0.8058 0.4655
vn -0.7294 0.4797 -0.4877
usemtl Caverns_Tileset
s 1
f 33/1/1 32/2/2 1/3/3
f 35/4/4 34/5/5 4/6/6
f 27/7/7 26/8/8 7/9/9
f 31/10/10 30/11/11 10/12/12
f 29/13/13 28/14/14 13/15/15
f 9/16/16 8/17/16 16/18/17 17/19/18
f 15/20/19 14/21/19 18/22/20 19/23/21
f 36/24/22 37/25/23 20/26/24 21/27/25
f 3/28/26 2/29/26 22/30/27 23/31/28
f 6/32/29 5/33/29 24/34/30 25/35/31
f 17/19/18 16/18/17 26/8/8 27/7/7
f 19/23/21 18/22/20 28/14/14 29/13/13
f 21/27/25 20/26/24 30/11/11 31/10/10
f 23/31/28 22/30/27 32/2/2 33/1/1
f 25/35/31 24/34/30 34/5/5 35/4/4
f 12/36/32 11/37/32 37/25/23 36/24/22
