# Blender v2.93.5 OBJ File: 'Cavern_Grass_Foliage_02.blend'
# www.blender.org
mtllib Cavern_Grass_Foliage_02.mtl
o Cube
v -0.093750 0.375000 0.093750
v -0.093750 0.375000 -0.062500
v 0.000000 0.000000 -0.062500
v 0.000000 0.000000 0.093750
v 0.000000 0.000000 0.125000
v 0.000000 0.000000 -0.031250
v 0.093750 0.343750 0.031250
v 0.093750 0.343750 0.187500
v 0.000000 0.000000 0.031250
v 0.000000 0.000000 -0.125000
v 0.000000 0.375000 -0.218750
v 0.000000 0.375000 -0.062500
v 0.031250 0.187500 0.156250
v 0.031250 0.187500 0.000000
v -0.031250 0.187500 -0.062500
v -0.031250 0.187500 0.093750
v 0.000000 0.187500 0.000000
v 0.000000 0.187500 -0.156250
v -0.092014 0.375000 -0.092014
v 0.064236 0.375000 -0.092014
v 0.064236 0.000000 0.001736
v -0.092014 0.000000 0.001736
v -0.123264 0.000000 0.001736
v 0.032986 0.000000 0.001736
v -0.029514 0.343750 0.095486
v -0.185764 0.343750 0.095486
v -0.029514 0.000000 0.001736
v 0.126736 0.000000 0.001736
v 0.220486 0.375000 0.001736
v 0.064236 0.375000 0.001736
v -0.154514 0.187500 0.032986
v 0.001736 0.187500 0.032986
v 0.064236 0.187500 -0.029514
v -0.092014 0.187500 -0.029514
v 0.001736 0.187500 0.001736
v 0.157986 0.187500 0.001736
vt 0.412003 0.585938
vt 0.426065 0.585938
vt 0.426065 0.609277
vt 0.412003 0.609277
vt 0.412003 0.585938
vt 0.426065 0.585938
vt 0.426065 0.609277
vt 0.412003 0.609277
vt 0.412003 0.585938
vt 0.426065 0.585938
vt 0.426065 0.609277
vt 0.412003 0.609277
vt 0.412003 0.562598
vt 0.426065 0.562598
vt 0.412003 0.562598
vt 0.426065 0.562598
vt 0.412003 0.562598
vt 0.426065 0.562598
vt 0.412003 0.585938
vt 0.426065 0.585938
vt 0.426065 0.609277
vt 0.412003 0.609277
vt 0.412003 0.585938
vt 0.426065 0.585938
vt 0.426065 0.609277
vt 0.412003 0.609277
vt 0.412003 0.585938
vt 0.426065 0.585938
vt 0.426065 0.609277
vt 0.412003 0.609277
vt 0.412003 0.562598
vt 0.426065 0.562598
vt 0.412003 0.562598
vt 0.426065 0.562598
vt 0.412003 0.562598
vt 0.426065 0.562598
vn 0.9705 0.2410 0.0000
vn 0.9487 0.3162 0.0000
vn 0.9597 -0.2808 0.0000
vn 0.9662 -0.2579 0.0000
vn 0.9285 -0.3714 0.0000
vn 1.0000 0.0000 0.0000
vn 0.9864 -0.1644 0.0000
vn 0.9864 0.1644 0.0000
vn 0.0000 0.2410 0.9705
vn 0.0000 0.3162 0.9487
vn 0.0000 -0.2808 0.9597
vn 0.0000 -0.2579 0.9662
vn 0.0000 -0.3714 0.9285
vn 0.0000 0.0000 1.0000
vn 0.0000 -0.1644 0.9864
vn 0.0000 0.1644 0.9864
usemtl Caverns_Tileset
s 1
f 16/1/1 15/2/1 2/3/2 1/4/2
f 13/5/3 14/6/4 7/7/5 8/8/5
f 17/9/6 18/10/6 11/11/6 12/12/6
f 5/13/7 6/14/7 14/6/4 13/5/3
f 4/15/8 3/16/8 15/2/1 16/1/1
f 9/17/6 10/18/6 18/10/6 17/9/6
f 34/19/9 33/20/9 20/21/10 19/22/10
f 31/23/11 32/24/12 25/25/13 26/26/13
f 35/27/14 36/28/14 29/29/14 30/30/14
f 23/31/15 24/32/15 32/24/12 31/23/11
f 22/33/16 21/34/16 33/20/9 34/19/9
f 27/35/14 28/36/14 36/28/14 35/27/14
