# Blender v2.93.5 OBJ File: 'Frostlands.blend'
# www.blender.org
mtllib SM_Tree_01_var.mtl
o Cylinder
v -0.006561 0.000000 -0.145729
v -0.006561 1.847529 -0.118246
v 0.099092 0.000000 -0.101966
v 0.079659 1.847529 -0.082533
v 0.142855 0.000000 0.003688
v 0.115373 1.847529 0.003688
v 0.099092 0.000000 0.109341
v 0.079659 1.847529 0.089908
v -0.006561 0.000000 0.153105
v -0.006561 1.847529 0.125622
v -0.112215 0.000000 0.109341
v -0.092782 1.847529 0.089908
v -0.155978 0.000000 0.003688
v -0.128496 1.847529 0.003688
v -0.112215 0.000000 -0.101966
v -0.092782 1.847529 -0.082533
v -0.006562 3.662120 -0.058499
v 0.037411 3.662120 -0.040285
v 0.055625 3.662120 0.003688
v 0.037411 3.662120 0.047661
v -0.006562 3.662120 0.065875
v -0.050534 3.662120 0.047661
v -0.068749 3.662120 0.003688
v -0.050534 3.662120 -0.040285
v -0.006561 4.636467 0.003688
v 0.071134 2.754825 -0.074008
v 0.103317 2.754825 0.003688
v -0.006561 2.754825 0.113566
v -0.084257 2.754825 0.081383
v -0.084257 2.754825 -0.074008
v -0.006561 2.754825 -0.106190
v 0.071134 2.754825 0.081383
v -0.116440 2.754825 0.003688
v -0.006561 0.923765 -0.131988
v 0.089376 0.923765 -0.092249
v 0.129114 0.923765 0.003688
v 0.089376 0.923765 0.099625
v -0.006561 0.923765 0.139363
v -0.102498 0.923765 0.099625
v -0.142237 0.923765 0.003688
v -0.102498 0.923765 -0.092249
v 0.094234 0.461882 -0.097107
v 0.135985 0.461882 0.003688
v 0.094234 0.461882 0.104483
v -0.006561 0.461882 0.146234
v -0.107357 0.461882 0.104483
v -0.149107 0.461882 0.003688
v -0.107357 0.461882 -0.097107
v -0.006561 0.461882 -0.138858
v -0.006561 1.385647 -0.125117
v 0.084517 1.385647 -0.087391
v 0.122244 1.385647 0.003688
v 0.084517 1.385647 0.094767
v -0.006561 1.385647 0.132493
v -0.097640 1.385647 0.094767
v -0.135366 1.385647 0.003688
v -0.097640 1.385647 -0.087391
v 0.109345 2.301177 0.003688
v -0.088519 2.301177 0.085646
v -0.006561 2.301177 -0.112218
v 0.075397 2.301177 0.085646
v -0.122468 2.301177 0.003688
v 0.075397 2.301177 -0.078270
v -0.006561 2.301177 0.119594
v -0.088519 2.301177 -0.078270
v 0.066871 3.208472 -0.069745
v -0.006562 3.208472 0.107538
v -0.079995 3.208472 -0.069745
v 0.097288 3.208472 0.003688
v -0.079995 3.208472 0.077121
v -0.006562 3.208472 -0.100162
v 0.066871 3.208472 0.077121
v -0.110411 3.208472 0.003688
v -0.003436 4.619929 0.000564
v -0.006560 4.619602 -0.000758
v -0.003426 4.619768 0.006821
v -0.002147 4.619988 0.003687
v -0.009693 4.619777 0.000554
v -0.011000 4.619662 0.003687
v -0.009699 4.619673 0.006827
v -0.006560 4.619616 0.008132
vt 0.001953 0.197266
vt 0.001953 0.240234
vt 0.013672 0.240234
vt 0.013672 0.197266
vt 0.001953 0.197266
vt 0.001953 0.240234
vt 0.013672 0.240234
vt 0.013672 0.197266
vt 0.001953 0.240234
vt 0.001953 0.197266
vt 0.013672 0.240234
vt 0.013672 0.197266
vt 0.001953 0.197266
vt 0.001953 0.240234
vt 0.013672 0.240234
vt 0.013672 0.197266
vt 0.001953 0.197266
vt 0.001953 0.240234
vt 0.013672 0.240234
vt 0.013672 0.197266
vt 0.003906 0.197266
vt 0.011719 0.197266
vt 0.011719 0.240234
vt 0.003906 0.240234
vt 0.001953 0.197266
vt 0.001953 0.240234
vt 0.013672 0.240234
vt 0.013672 0.197266
vt 0.001953 0.197266
vt 0.001953 0.240234
vt 0.013672 0.240234
vt 0.013672 0.197266
vt 0.750000 0.490000
vt 0.919706 0.419706
vt 0.990000 0.250000
vt 0.919706 0.080294
vt 0.750000 0.010000
vt 0.580294 0.080294
vt 0.510000 0.250000
vt 0.580294 0.419706
vt 0.000049 0.187549
vt 0.015576 0.187549
vt 0.015576 0.246781
vt 0.014789 0.246788
vt 0.003906 0.197266
vt 0.011719 0.197266
vt 0.011719 0.240234
vt 0.003906 0.240234
vt 0.003906 0.197266
vt 0.011719 0.197266
vt 0.011719 0.240234
vt 0.003906 0.240234
vt 0.003906 0.197266
vt 0.011719 0.197266
vt 0.011719 0.240234
vt 0.003906 0.240234
vt 0.011719 0.197266
vt 0.011719 0.240234
vt 0.003906 0.197266
vt 0.003906 0.240234
vt 0.000049 0.187549
vt 0.015576 0.187549
vt 0.015576 0.246778
vt 0.014788 0.246782
vt 0.000049 0.187549
vt 0.015576 0.187549
vt 0.015576 0.246801
vt 0.014789 0.246788
vt 0.000049 0.187549
vt 0.015576 0.187549
vt 0.015576 0.246777
vt 0.014791 0.246798
vt 0.000049 0.187549
vt 0.015576 0.187549
vt 0.000836 0.246788
vt 0.000049 0.246777
vt 0.000049 0.187549
vt 0.015576 0.187549
vt 0.000837 0.246782
vt 0.000049 0.246781
vt 0.000049 0.187549
vt 0.015576 0.187549
vt 0.000836 0.246788
vt 0.000049 0.246778
vt 0.000049 0.187549
vt 0.015576 0.187549
vt 0.000834 0.246798
vt 0.000049 0.246801
vt 0.013672 0.197266
vt 0.001953 0.197266
vt 0.003906 0.240234
vt 0.011719 0.240234
vt 0.013672 0.197266
vt 0.001953 0.197266
vt 0.003906 0.240234
vt 0.011719 0.240234
vt 0.013672 0.197266
vt 0.001953 0.197266
vt 0.003906 0.240234
vt 0.011719 0.240234
vt 0.013672 0.197266
vt 0.001953 0.197266
vt 0.003906 0.240234
vt 0.011719 0.240234
vt 0.013672 0.197266
vt 0.001953 0.197266
vt 0.003906 0.240234
vt 0.011719 0.240234
vt 0.013672 0.197266
vt 0.001953 0.197266
vt 0.003906 0.240234
vt 0.011719 0.240234
vt 0.013672 0.197266
vt 0.001953 0.197266
vt 0.003906 0.240234
vt 0.011719 0.240234
vt 0.013672 0.197266
vt 0.001953 0.197266
vt 0.003906 0.240234
vt 0.011719 0.240234
vt 0.001953 0.197266
vt 0.001953 0.240234
vt 0.013672 0.240234
vt 0.013672 0.197266
vt 0.001953 0.197266
vt 0.001953 0.240234
vt 0.013672 0.240234
vt 0.013672 0.197266
vt 0.001953 0.197266
vt 0.001953 0.240234
vt 0.013672 0.240234
vt 0.013672 0.197266
vt 0.001953 0.197266
vt 0.001953 0.240234
vt 0.013672 0.240234
vt 0.013672 0.197266
vt 0.001953 0.197266
vt 0.001953 0.240234
vt 0.013672 0.240234
vt 0.013672 0.197266
vt 0.013672 0.197266
vt 0.013672 0.240234
vt 0.001953 0.197266
vt 0.001953 0.240234
vt 0.001953 0.197266
vt 0.001953 0.240234
vt 0.013672 0.240234
vt 0.013672 0.197266
vt 0.001953 0.197266
vt 0.001953 0.240234
vt 0.013672 0.240234
vt 0.013672 0.197266
vt 0.001953 0.197266
vt 0.001953 0.240234
vt 0.013672 0.240234
vt 0.013672 0.197266
vt 0.001953 0.240234
vt 0.001953 0.197266
vt 0.013672 0.240234
vt 0.013672 0.197266
vt 0.001953 0.197266
vt 0.001953 0.240234
vt 0.013672 0.240234
vt 0.013672 0.197266
vt 0.001953 0.197266
vt 0.001953 0.240234
vt 0.013672 0.240234
vt 0.013672 0.197266
vt 0.001953 0.197266
vt 0.001953 0.240234
vt 0.013672 0.240234
vt 0.013672 0.197266
vt 0.001953 0.197266
vt 0.001953 0.240234
vt 0.013672 0.240234
vt 0.013672 0.197266
vt 0.001953 0.197266
vt 0.001953 0.240234
vt 0.013672 0.240234
vt 0.013672 0.197266
vt 0.001953 0.197266
vt 0.001953 0.240234
vt 0.013672 0.240234
vt 0.013672 0.197266
vt 0.001953 0.197266
vt 0.001953 0.240234
vt 0.013672 0.240234
vt 0.013672 0.197266
vt 0.001953 0.197266
vt 0.001953 0.240234
vt 0.013672 0.240234
vt 0.013672 0.197266
vt 0.001953 0.197266
vt 0.001953 0.240234
vt 0.013672 0.240234
vt 0.013672 0.197266
vt 0.013672 0.197266
vt 0.013672 0.240234
vt 0.003906 0.240234
vt 0.001953 0.197266
vt 0.001953 0.240234
vt 0.001953 0.197266
vt 0.001953 0.240234
vt 0.013672 0.240234
vt 0.013672 0.197266
vt 0.001953 0.197266
vt 0.013672 0.197266
vt 0.013672 0.240234
vt 0.001953 0.240234
vt 0.013672 0.197266
vt 0.001953 0.197266
vt 0.001953 0.240234
vt 0.013672 0.240234
vt 0.013672 0.197266
vt 0.001953 0.197266
vt 0.001953 0.240234
vt 0.013672 0.240234
vt 0.001953 0.197266
vt 0.001953 0.240234
vt 0.001953 0.197266
vt 0.013672 0.197266
vt 0.013672 0.240234
vt 0.001953 0.240234
vt 0.013672 0.197266
vt 0.001953 0.197266
vt 0.001953 0.240234
vt 0.013672 0.240234
vt 0.013672 0.197266
vt 0.013672 0.240234
vt 0.011719 0.197266
vt 0.003906 0.197266
vt 0.003906 0.240234
vt 0.011719 0.240234
vt 0.011719 0.197266
vt 0.003906 0.197266
vt 0.003906 0.240234
vt 0.011719 0.240234
vt 0.011719 0.197266
vt 0.003906 0.197266
vt 0.003906 0.240234
vt 0.011719 0.240234
vt 0.011719 0.197266
vt 0.003906 0.197266
vt 0.003906 0.240234
vt 0.011719 0.240234
vt 0.011719 0.197266
vt 0.003906 0.197266
vt 0.003906 0.240234
vt 0.011719 0.240234
vt 0.011719 0.197266
vt 0.003906 0.197266
vt 0.003906 0.240234
vt 0.011719 0.240234
vt 0.011719 0.197266
vt 0.003906 0.197266
vt 0.003906 0.240234
vt 0.011719 0.240234
vt 0.011719 0.197266
vt 0.003906 0.197266
vt 0.003906 0.240234
vt 0.011719 0.240234
vt 0.000000 0.000000
vt 0.000000 0.000000
vt 0.000000 0.000000
vt 0.000000 0.000000
vt 0.015576 0.249951
vt 0.000049 0.249951
vn 0.0000 0.0149 -0.9999
vn 0.0000 0.0141 -0.9999
vn 0.7070 0.0141 -0.7070
vn 0.7070 0.0149 -0.7070
vn 0.9999 0.0141 0.0000
vn 0.9999 0.0149 0.0000
vn 0.7070 0.0141 0.7070
vn 0.7070 0.0149 0.7070
vn 0.0000 0.0141 0.9999
vn 0.0000 0.0149 0.9999
vn -0.7070 0.0141 0.7070
vn -0.7070 0.0149 0.7070
vn -0.9999 0.0141 0.0000
vn -0.9999 0.0149 0.0000
vn 0.9986 0.0519 0.0000
vn 0.7061 0.0519 -0.7061
vn 0.7051 0.0761 -0.7050
vn 0.9971 0.0761 0.0000
vn -0.7070 0.0141 -0.7070
vn -0.7070 0.0149 -0.7070
vn 0.0000 -0.6247 -0.7809
vn 0.5522 -0.6247 -0.5522
vn 0.7809 -0.6247 0.0000
vn 0.5522 -0.6247 0.5522
vn 0.0000 -0.6247 0.7809
vn -0.5522 -0.6247 0.5522
vn -0.7809 -0.6247 0.0000
vn -0.5522 -0.6247 -0.5522
vn -0.7050 0.0761 -0.7050
vn -0.9971 0.0761 0.0000
vn -0.9881 0.1538 0.0010
vn -0.6977 0.1581 -0.6987
vn -0.7061 0.0519 0.7061
vn 0.0000 0.0519 0.9986
vn 0.0000 0.0761 0.9971
vn -0.7050 0.0761 0.7050
vn 0.0000 0.0519 -0.9986
vn -0.7061 0.0519 -0.7061
vn 0.0000 0.0761 -0.9971
vn 0.7061 0.0519 0.7061
vn 0.7051 0.0761 0.7050
vn -0.9986 0.0519 0.0000
vn -0.0009 0.1528 0.9882
vn -0.6981 0.1556 0.6988
vn 0.9706 -0.2404 -0.0083
vn 0.7138 0.0172 0.7001
vn 0.0142 0.0135 -0.9998
vn 0.7002 -0.2423 -0.6716
vn -0.7070 0.0133 -0.7070
vn -0.9999 0.0133 0.0000
vn 0.0000 0.0133 0.9999
vn 0.7070 0.0133 0.7070
vn -0.7070 0.0133 0.7070
vn 0.9999 0.0133 0.0000
vn 0.7070 0.0133 -0.7070
vn 0.0000 0.0133 -0.9999
vn -0.0012 1.0000 0.0005
usemtl Material
s 1
f 50/1/1 2/2/2 4/3/3 51/4/4
f 51/5/4 4/6/3 6/7/5 52/8/6
f 52/8/6 6/7/5 8/9/7 53/10/8
f 53/10/8 8/9/7 10/11/9 54/12/10
f 54/13/10 10/14/9 12/15/11 55/16/12
f 55/17/12 12/18/11 14/19/13 56/20/14
f 69/21/15 66/22/16 18/23/17 19/24/18
f 56/25/14 14/26/13 16/27/19 57/28/20
f 57/29/20 16/30/19 2/31/2 50/32/1
f 1/33/21 3/34/22 5/35/23 7/36/24 9/37/25 11/38/26 13/39/27 15/40/28
f 24/41/29 23/42/30 79/43/31 78/44/32
f 70/45/33 67/46/34 21/47/35 22/48/36
f 71/49/37 68/50/38 24/51/29 17/52/39
f 66/22/16 71/49/37 17/52/39 18/23/17
f 72/53/40 69/54/15 19/55/18 20/56/41
f 73/57/42 70/45/33 22/48/36 23/58/30
f 67/46/34 72/53/40 20/56/41 21/47/35
f 68/59/38 73/57/42 23/58/30 24/60/29
f 22/61/36 21/62/35 81/63/43 80/64/44
f 20/65/41 19/66/18 77/67/45 76/68/46
f 18/69/17 17/70/39 75/71/47 74/72/48
f 17/73/39 24/74/29 78/75/32 75/76/47
f 23/77/30 22/78/36 80/79/44 79/80/31
f 21/81/35 20/82/41 76/83/46 81/84/43
f 19/85/18 18/86/17 74/87/48 77/88/45
f 65/89/49 62/90/50 33/91/50 30/92/49
f 64/93/51 61/94/52 32/95/52 28/96/51
f 62/97/50 59/98/53 29/99/53 33/100/50
f 61/101/52 58/102/54 27/103/54 32/104/52
f 63/105/55 60/106/56 31/107/56 26/108/55
f 60/109/56 65/110/49 30/111/49 31/112/56
f 59/113/53 64/114/51 28/115/51 29/116/53
f 58/117/54 63/118/55 26/119/55 27/120/54
f 48/121/20 41/122/20 34/123/1 49/124/1
f 47/125/14 40/126/14 41/127/20 48/128/20
f 46/129/12 39/130/12 40/131/14 47/132/14
f 45/133/10 38/134/10 39/135/12 46/136/12
f 44/137/8 37/138/8 38/139/10 45/140/10
f 43/141/6 36/142/6 37/138/8 44/137/8
f 42/143/4 35/144/4 36/142/6 43/141/6
f 49/145/1 34/146/1 35/147/4 42/148/4
f 1/149/21 49/150/1 42/151/4 3/152/22
f 3/153/22 42/154/4 43/155/6 5/156/23
f 5/156/23 43/155/6 44/157/8 7/158/24
f 7/158/24 44/157/8 45/159/10 9/160/25
f 9/161/25 45/162/10 46/163/12 11/164/26
f 11/165/26 46/166/12 47/167/14 13/168/27
f 13/169/27 47/170/14 48/171/20 15/172/28
f 15/173/28 48/174/20 49/175/1 1/176/21
f 41/177/20 57/178/20 50/179/1 34/180/1
f 40/181/14 56/182/14 57/183/20 41/184/20
f 39/185/12 55/186/12 56/187/14 40/188/14
f 38/189/10 54/190/10 55/191/12 39/192/12
f 37/193/8 53/194/8 54/195/10 38/196/10
f 36/197/6 52/198/6 53/199/8 37/193/8
f 35/200/4 51/201/4 52/198/6 36/197/6
f 34/202/1 50/203/1 51/204/4 35/205/4
f 6/206/5 4/207/3 63/208/55 58/209/54
f 12/210/11 10/211/9 64/212/51 59/213/53
f 2/214/2 16/215/19 65/216/49 60/217/56
f 4/218/3 2/214/2 60/217/56 63/219/55
f 8/220/7 6/221/5 58/222/54 61/223/52
f 14/224/13 12/225/11 59/226/53 62/227/50
f 10/228/9 8/220/7 61/223/52 64/229/51
f 16/215/19 14/224/13 62/227/50 65/216/49
f 30/230/49 33/231/50 73/232/42 68/233/38
f 28/234/51 32/235/52 72/236/40 67/237/34
f 33/238/50 29/239/53 70/240/33 73/241/42
f 32/242/52 27/243/54 69/244/15 72/245/40
f 26/246/55 31/247/56 71/248/37 66/249/16
f 31/250/56 30/251/49 68/252/38 71/253/37
f 29/254/53 28/255/51 67/256/34 70/257/33
f 27/258/54 26/259/55 66/260/16 69/261/15
f 74/262/48 77/263/45 76/264/46 75/265/47
f 74/72/48 75/71/47 25/266/57
f 77/88/45 74/87/48 25/267/57
f 76/68/46 77/67/45 25/266/57
f 78/44/32 79/43/31 25/266/57
f 75/76/47 78/75/32 25/267/57
f 81/84/43 76/83/46 25/267/57
f 80/64/44 81/63/43 25/266/57
f 79/80/31 80/79/44 25/267/57
o Cylinder.003_Cylinder.116
v 0.072647 2.223971 0.223827
v -0.237190 2.227863 -0.044332
v -0.520834 1.891412 0.591616
v -0.103612 2.332808 0.115957
v -0.648590 1.756254 0.737266
v -0.347026 1.779981 0.702282
v -0.651959 1.789062 0.428531
v -0.142117 1.161530 -0.124619
v 0.185133 1.161530 -0.003851
v 0.229466 0.939555 -0.627745
v 0.028019 1.271497 -0.081878
v 0.291150 0.837912 -0.794894
v 0.060514 0.827637 -0.673695
v 0.385396 0.831539 -0.546510
v -0.000690 1.155181 -0.189417
v 0.147338 1.157351 0.126432
v 0.553603 0.795935 -0.254106
v 0.113604 1.258445 -0.051073
v 0.688334 0.654311 -0.316277
v 0.441896 0.689951 -0.393644
v 0.584751 0.697559 -0.075409
v 0.172729 1.182816 -0.131058
v 0.041532 1.171116 0.191940
v 0.617000 0.842180 0.225415
v 0.142795 1.281087 0.048699
v 0.762205 0.707784 0.279526
v 0.649721 0.741330 0.046696
v 0.512950 0.734788 0.367617
v 0.167520 1.155180 -0.020336
v -0.134435 1.157351 0.154295
v 0.279618 0.795934 0.526344
v 0.039512 1.258445 0.105427
v 0.353140 0.654311 0.655231
v 0.409037 0.689951 0.403055
v 0.104260 0.697559 0.572738
v 0.133275 1.161530 0.136670
v -0.193975 1.161530 0.015901
v -0.238308 0.939555 0.639796
v -0.036861 1.271497 0.093928
v -0.299992 0.837912 0.806944
v -0.069356 0.827637 0.685746
v -0.394238 0.831539 0.558561
v 0.021739 1.155180 0.179976
v -0.126289 1.157351 -0.135873
v -0.532554 0.795934 0.244665
v -0.092555 1.258445 0.041631
v -0.667284 0.654311 0.306835
v -0.420846 0.689951 0.384202
v -0.563702 0.697559 0.065967
v -0.151680 1.182816 0.121616
v -0.020483 1.171116 -0.201382
v -0.595951 0.842180 -0.234857
v -0.121746 1.281087 -0.058141
v -0.741155 0.707784 -0.288968
v -0.628672 0.741330 -0.056138
v -0.491901 0.734788 -0.377059
v -0.146470 1.155180 0.010895
v 0.155484 1.157351 -0.163736
v -0.258569 0.795934 -0.535785
v -0.018463 1.258445 -0.114868
v -0.332091 0.654311 -0.664673
v -0.387987 0.689951 -0.412496
v -0.083210 0.697559 -0.582179
v -0.123167 1.439548 -0.166226
v 0.196300 1.439548 0.037608
v 0.387667 1.208361 -0.614584
v 0.046708 1.549796 -0.080203
v 0.492072 1.103811 -0.778214
v 0.219797 1.096106 -0.703748
v 0.535256 1.100119 -0.493631
v 0.044199 1.439952 -0.203083
v 0.128330 1.442310 0.166407
v 0.643276 1.060818 -0.142738
v 0.130416 1.544784 -0.029053
v 0.800317 0.912625 -0.177550
v 0.560074 0.953142 -0.317437
v 0.638176 0.961189 0.053390
v 0.214023 1.467109 -0.100079
v 0.000119 1.454399 0.212437
v 0.600466 1.107655 0.379525
v 0.138393 1.566078 0.081901
v 0.741956 0.967283 0.470660
v 0.678813 1.005992 0.199295
v 0.459477 0.998670 0.508313
v 0.182222 1.439952 0.017684
v -0.178669 1.442310 0.133266
v 0.173599 1.060818 0.619730
v 0.016247 1.544784 0.118541
v 0.221781 0.912625 0.773198
v 0.340499 0.953142 0.521819
v -0.022241 0.961190 0.631509
v 0.118702 1.391939 0.161470
v -0.200652 1.395220 -0.042514
v -0.405285 1.237547 0.627328
v -0.043546 1.505247 0.065300
v -0.516051 1.155576 0.799425
v -0.245162 1.122666 0.726802
v -0.560265 1.129093 0.516211
v -0.021449 1.439952 0.195039
v -0.105579 1.442310 -0.174452
v -0.620525 1.060818 0.134693
v -0.107665 1.544784 0.021008
v -0.777566 0.912625 0.169505
v -0.537323 0.953142 0.309392
v -0.615425 0.961189 -0.061435
v -0.191273 1.467109 0.092035
v 0.022632 1.454399 -0.220482
v -0.577715 1.107655 -0.387570
v -0.115642 1.566078 -0.089945
v -0.719205 0.967283 -0.478705
v -0.656062 1.005992 -0.207340
v -0.436726 0.998670 -0.516358
v -0.159471 1.439952 -0.025729
v 0.201420 1.442310 -0.141311
v -0.150848 1.060818 -0.627775
v 0.006504 1.544784 -0.126586
v -0.199030 0.912625 -0.781243
v -0.317748 0.953142 -0.529864
v 0.044992 0.961190 -0.639554
v -0.084479 1.830203 -0.212335
v 0.211990 1.834192 0.044204
v 0.481019 1.500959 -0.561125
v 0.085697 1.938612 -0.111077
v 0.602069 1.366946 -0.698932
v 0.313167 1.389977 -0.665028
v 0.604989 1.399110 -0.403199
v 0.076365 1.777073 -0.202245
v 0.106813 1.779513 0.188636
v 0.678470 1.389468 -0.050092
v 0.137085 1.882532 -0.010999
v 0.844245 1.238489 -0.062063
v 0.620931 1.281111 -0.241568
v 0.645015 1.289347 0.149773
v 0.234254 1.804050 -0.070783
v -0.031769 1.790900 0.216868
v 0.556375 1.436548 0.477457
v 0.128608 1.903276 0.103187
v 0.687360 1.293632 0.592060
v 0.664536 1.334578 0.305686
v 0.393484 1.326914 0.588938
v 0.183530 1.777073 0.045565
v -0.203286 1.779513 0.109501
v 0.083700 1.389468 0.658520
v -0.001788 1.882532 0.122500
v 0.109876 1.238489 0.822653
v 0.269520 1.281111 0.584735
v -0.118301 1.289347 0.642370
v 0.088381 1.760422 0.189326
v -0.207921 1.759508 -0.067436
v -0.506578 1.547513 0.577316
v -0.069900 1.870893 0.072240
v -0.640292 1.448492 0.731973
v -0.350863 1.435142 0.697370
v -0.642032 1.438029 0.434671
v -0.052799 1.777073 0.195489
v -0.083246 1.779513 -0.195392
v -0.654903 1.389468 0.043336
v -0.113519 1.882532 0.004243
v -0.820679 1.238489 0.055306
v -0.597365 1.281111 0.234811
v -0.621449 1.289347 -0.156529
v -0.210688 1.804050 0.064026
v 0.055336 1.790900 -0.223625
v -0.532809 1.436547 -0.484213
v -0.105042 1.903276 -0.109944
v -0.663794 1.293632 -0.598817
v -0.640970 1.334578 -0.312443
v -0.369918 1.326914 -0.595694
v -0.159964 1.777073 -0.052321
v 0.226852 1.779513 -0.116257
v -0.060133 1.389468 -0.665276
v 0.025354 1.882532 -0.129257
v -0.086310 1.238489 -0.829409
v -0.245954 1.281111 -0.591491
v 0.141868 1.289347 -0.649127
v -0.113770 2.135588 -0.188363
v 0.195959 2.133347 0.079939
v 0.513429 1.950062 -0.601019
v 0.048213 2.246111 -0.061497
v 0.655881 1.859409 -0.766224
v 0.354181 1.837798 -0.731056
v 0.658441 1.839037 -0.456412
v 0.080864 2.175811 -0.211366
v 0.112687 2.178361 0.197171
v 0.707440 1.776838 -0.052167
v 0.142610 2.282099 -0.011323
v 0.880395 1.622124 -0.064673
v 0.649015 1.667581 -0.252449
v 0.674198 1.676070 0.156568
v 0.245313 2.202555 -0.073348
v -0.032714 2.188812 0.227282
v 0.580380 1.824239 0.498423
v 0.133828 2.302113 0.107291
v 0.717118 1.677911 0.618191
v 0.694491 1.721873 0.320084
v 0.411214 1.713747 0.616116
v 0.233718 2.192884 0.091962
v -0.174920 2.218528 0.108645
v 0.024887 1.757628 0.678531
v 0.037929 2.306410 0.154452
v 0.020894 1.589587 0.839007
v 0.220600 1.640877 0.619121
v -0.187886 1.672971 0.629643
v -0.056847 2.175811 0.204488
v -0.088670 2.178361 -0.204049
v -0.683423 1.776838 0.045289
v -0.118592 2.282099 0.004446
v -0.856378 1.622124 0.057795
v -0.624998 1.667581 0.245571
v -0.650181 1.676070 -0.163446
v -0.221296 2.202555 0.066470
v 0.056731 2.188812 -0.234160
v -0.556363 1.824239 -0.505301
v -0.109810 2.302113 -0.114168
v -0.693100 1.677911 -0.625069
v -0.670473 1.721873 -0.326962
v -0.387197 1.713747 -0.622994
v -0.167690 2.175811 -0.055937
v 0.236599 2.178361 -0.122762
v -0.062942 1.776838 -0.693879
v 0.026304 2.282099 -0.134650
v -0.090270 1.622124 -0.865119
v -0.257461 1.667581 -0.618453
v 0.147877 1.676070 -0.678704
v -0.066960 2.502636 -0.194745
v 0.173199 2.502636 0.091268
v 0.545934 2.273041 -0.465544
v 0.067557 2.612873 -0.063861
v 0.692416 2.168982 -0.588542
v 0.414229 2.160806 -0.598789
v 0.648765 2.164801 -0.308054
v 0.100378 2.502209 -0.180104
v 0.070338 2.504533 0.192149
v 0.647582 2.126006 0.053748
v 0.130654 2.606940 0.009031
v 0.805869 1.978741 0.067441
v 0.620344 2.018448 -0.135124
v 0.584228 2.026426 0.236603
v 0.145042 2.492715 -0.038190
v -0.170675 2.490269 0.161262
v 0.305774 2.158900 0.561761
v 0.006423 2.597989 0.093297
v 0.397437 2.024448 0.705208
v 0.446152 2.051045 0.433027
v 0.126916 2.053761 0.626973
v 0.086297 2.502209 0.210615
v -0.235602 2.504534 0.021260
v -0.362761 2.126006 0.601084
v -0.097111 2.606940 0.155388
v -0.444105 1.978741 0.737558
v -0.180914 2.018448 0.658930
v -0.499690 2.026426 0.464336
v 0.051135 2.502636 0.193763
v -0.189024 2.502636 -0.092250
v -0.561759 2.273041 0.464562
v -0.083382 2.612873 0.062879
v -0.708241 2.168982 0.587560
v -0.430054 2.160806 0.597807
v -0.664590 2.164801 0.307071
v -0.077001 2.502209 0.175006
v -0.046961 2.504533 -0.197246
v -0.624205 2.126006 -0.058846
v -0.107277 2.606940 -0.014128
v -0.782492 1.978741 -0.072538
v -0.596967 2.018448 0.130026
v -0.560851 2.026426 -0.241701
v -0.206705 2.529349 0.028477
v 0.086731 2.516823 -0.202180
v -0.429309 2.172791 -0.537670
v -0.082146 2.628347 -0.120758
v -0.535613 2.033298 -0.665331
v -0.555909 2.071117 -0.390885
v -0.258391 2.063945 -0.616642
v -0.142539 2.502209 -0.072447
v 0.230918 2.504533 -0.074519
v 0.043408 2.126006 -0.637728
v 0.043293 2.606940 -0.118870
v 0.043443 1.978741 -0.796606
v -0.142424 2.018448 -0.594355
v 0.231032 2.026426 -0.590328
v -0.035932 2.805077 -0.183219
v 0.144677 2.805077 0.101002
v 0.544142 2.586611 -0.352332
v 0.070241 2.915021 -0.051192
v 0.689253 2.486050 -0.444543
v 0.440754 2.474737 -0.486129
v 0.615791 2.478598 -0.198368
v 0.108633 2.796861 -0.150763
v 0.037475 2.798957 0.178378
v 0.575881 2.444134 0.124767
v 0.116881 2.899906 0.022633
v 0.716430 2.398711 0.156041
v 0.570331 2.338410 -0.048029
v 0.493778 2.345864 0.279912
v 0.208766 2.824470 -0.005353
v -0.080997 2.813174 0.165901
v 0.343009 2.490259 0.530881
v 0.081161 2.922806 0.116366
v 0.423189 2.357811 0.657809
v 0.472153 2.389382 0.411599
v 0.179312 2.383169 0.577980
v 0.117501 2.796861 0.111496
v -0.205889 2.798957 0.017602
v -0.189882 2.444134 0.558434
v -0.056048 2.899906 0.107656
v -0.230863 2.304574 0.696465
v -0.017119 2.338411 0.564924
v -0.338936 2.345864 0.465732
v 0.022862 2.805077 0.178410
v -0.157746 2.805077 -0.105812
v -0.557211 2.586611 0.347522
v -0.083311 2.915021 0.046383
v -0.702323 2.486050 0.439733
v -0.453824 2.474737 0.481319
v -0.628861 2.478598 0.193558
v -0.086175 2.796861 0.146942
v -0.015017 2.798957 -0.182199
v -0.553423 2.444134 -0.128588
v -0.094423 2.899906 -0.026454
v -0.693972 2.304574 -0.159863
v -0.547873 2.338411 0.044207
v -0.471320 2.345864 -0.283733
v -0.186308 2.824470 0.001531
v 0.103455 2.813174 -0.169723
v -0.320551 2.490259 -0.534703
v -0.058703 2.922806 -0.120187
v -0.400731 2.357811 -0.661630
v -0.449695 2.389382 -0.415421
v -0.156854 2.383169 -0.581802
v -0.118750 2.796861 -0.079692
v 0.215290 2.798957 -0.037092
v 0.115594 2.444134 -0.568897
v 0.053295 2.899906 -0.102816
v 0.134671 2.304574 -0.711614
v -0.056085 2.338410 -0.548513
v 0.277223 2.345864 -0.500434
v -0.035932 3.119920 -0.183219
v 0.144677 3.119920 0.101002
v 0.544142 2.901454 -0.352332
v 0.070241 3.229864 -0.051192
v 0.689253 2.800893 -0.444543
v 0.440754 2.789580 -0.486129
v 0.615791 2.793440 -0.198368
v 0.108633 3.111703 -0.150763
v 0.037475 3.113799 0.178378
v 0.575881 2.758976 0.124767
v 0.116881 3.214748 0.022633
v 0.716430 2.712307 0.156041
v 0.570331 2.653253 -0.048029
v 0.493778 2.660706 0.279912
v 0.208766 3.139312 -0.005353
v -0.080996 3.128016 0.165901
v 0.343009 2.805101 0.530881
v 0.081161 3.237648 0.116366
v 0.423189 2.672653 0.657809
v 0.472153 2.704224 0.411599
v 0.179312 2.698011 0.577980
v 0.141208 3.111703 0.075871
v -0.192831 3.113799 0.033271
v -0.093136 2.758976 0.565075
v -0.030837 3.214748 0.098994
v -0.112212 2.619416 0.707793
v 0.078543 2.653253 0.544692
v -0.254764 2.660706 0.496613
v 0.022862 3.119920 0.178410
v -0.157746 3.119920 -0.105812
v -0.557211 2.901453 0.347522
v -0.083311 3.229863 0.046383
v -0.702323 2.874502 0.439733
v -0.453824 2.789579 0.481319
v -0.628861 2.793440 0.193558
v -0.086175 3.111703 0.146942
v -0.015017 3.113799 -0.182199
v -0.553423 2.758976 -0.128588
v -0.094423 3.214748 -0.026454
v -0.693972 2.619416 -0.159863
v -0.547873 2.653253 0.044207
v -0.471320 2.660706 -0.283733
v -0.186308 3.139312 0.001531
v 0.103455 3.128016 -0.169723
v -0.320551 2.805101 -0.534703
v -0.058703 3.237648 -0.120187
v -0.400731 2.672653 -0.661630
v -0.449695 2.704224 -0.415421
v -0.156854 2.698012 -0.581802
v -0.118750 3.111703 -0.079693
v 0.215290 3.113799 -0.037092
v 0.115594 2.758976 -0.568897
v 0.053295 3.214748 -0.102816
v 0.134671 2.619416 -0.711614
v -0.056085 2.653253 -0.548513
v 0.277223 2.660706 -0.500434
v 0.000336 1.862672 -0.289149
v 0.225910 1.867653 0.145373
v 0.811621 1.481198 -0.430098
v 0.144305 1.974416 -0.089328
v 1.015958 1.330172 -0.534444
v 0.671574 1.366555 -0.631922
v 0.889304 1.377334 -0.193394
v 0.186144 1.817021 -0.200145
v 0.041032 1.820068 0.267461
v 0.801749 1.365683 0.250165
v 0.159346 1.927382 0.047149
v 0.998457 1.193687 0.312330
v 0.832323 1.252021 0.004065
v 0.679660 1.261671 0.469284
v 0.305015 1.842547 0.026844
v -0.136361 1.826129 0.237769
v 0.420597 1.414625 0.803307
v 0.099117 1.943890 0.171783
v 0.519037 1.252561 0.996684
v 0.628385 1.310172 0.662080
v 0.183230 1.299975 0.865581
v 0.188353 1.817021 0.141142
v -0.289995 1.820068 0.036765
v -0.207370 1.365683 0.793179
v -0.060328 1.927382 0.135701
v -0.252396 1.193687 0.994503
v 0.040447 1.252021 0.802484
v -0.436173 1.261671 0.690378
v 0.014318 1.775396 0.257115
v -0.210963 1.774254 -0.177596
v -0.856075 1.538390 0.433072
v -0.111980 1.886321 0.046545
v -1.083921 1.431851 0.551428
v -0.734150 1.425419 0.645913
v -0.950684 1.428368 0.206659
v -0.159735 1.817021 0.197569
v -0.014624 1.820068 -0.270037
v -0.775341 1.365683 -0.252741
v -0.132937 1.927382 -0.049724
v -0.972049 1.193687 -0.314906
v -0.805915 1.252021 -0.006641
v -0.653252 1.261671 -0.471860
v -0.278606 1.842547 -0.029420
v 0.162769 1.826129 -0.240345
v -0.394189 1.414625 -0.805883
v -0.072708 1.943890 -0.174359
v -0.492628 1.252561 -0.999260
v -0.601976 1.310172 -0.664656
v -0.156821 1.299975 -0.868157
v -0.161944 1.817021 -0.143718
v 0.316404 1.820068 -0.039340
v 0.233779 1.365683 -0.795754
v 0.086737 1.927382 -0.138277
v 0.278804 1.193687 -0.997078
v -0.014038 1.252021 -0.805060
v 0.462582 1.261671 -0.692954
v -0.061527 2.523857 -0.219350
v 0.202589 2.527845 0.070299
v 0.545143 2.191761 -0.502699
v 0.095721 2.633193 -0.098973
v 0.682759 2.056592 -0.626323
v 0.390537 2.079831 -0.625450
v 0.649370 2.089008 -0.331055
v 0.094697 2.472259 -0.192828
v 0.078857 2.474699 0.198847
v 0.682501 2.079457 0.029554
v 0.133065 2.579121 0.004223
v 0.850741 2.044312 0.037311
v 0.647361 1.969658 -0.167348
v 0.625063 1.977972 0.224029
v 0.238024 2.498450 -0.046547
v -0.060032 2.485301 0.207722
v 0.497716 2.126961 0.540824
v 0.112881 2.598861 0.114119
v 0.615555 1.982463 0.671483
v 0.625121 2.023777 0.382666
v 0.322541 2.016175 0.631919
v 0.176461 2.472259 0.061287
v -0.215126 2.474699 0.079176
v 0.005431 2.079457 0.666031
v -0.016563 2.579121 0.116453
v 0.012166 1.926456 0.834316
v 0.198584 1.969658 0.614096
v -0.193261 1.977972 0.625525
v 0.065801 2.452412 0.197066
v -0.198120 2.451498 -0.092782
v -0.571543 2.239136 0.512991
v -0.077571 2.563083 0.062183
v -0.722801 2.227580 0.651031
v -0.431074 2.126561 0.650523
v -0.689188 2.129455 0.355377
v -0.070885 2.472259 0.187269
v -0.055046 2.474699 -0.204407
v -0.658689 2.079457 -0.035114
v -0.109254 2.579121 -0.009783
v -0.826930 1.926456 -0.042871
v -0.623550 1.969658 0.161788
v -0.601252 1.977972 -0.229589
v -0.214213 2.498450 0.040987
v 0.083844 2.485301 -0.213282
v -0.473905 2.126961 -0.546384
v -0.089070 2.598861 -0.119679
v -0.591744 1.982463 -0.677043
v -0.601310 2.023777 -0.388226
v -0.298729 2.016175 -0.637478
v -0.152650 2.472259 -0.066846
v 0.238937 2.474699 -0.084736
v 0.018380 2.079457 -0.671591
v 0.040374 2.579121 -0.122012
v 0.011646 1.926456 -0.839876
v -0.174773 1.969658 -0.619656
v 0.217073 1.977972 -0.631084
v -0.107899 3.415457 -0.083833
v 0.136575 3.415457 -0.013584
v 0.135418 3.221982 -0.470077
v 0.019499 3.524728 -0.066668
v 0.170913 3.129279 -0.593604
v 0.008701 3.110931 -0.489613
v 0.251813 3.114490 -0.414622
v -0.016790 3.389669 -0.133567
v 0.107829 3.391252 0.088182
v 0.398708 3.089770 -0.219031
v 0.082817 3.488865 -0.044355
v 0.495436 2.967565 -0.272517
v 0.300959 2.988229 -0.309269
v 0.421863 2.994503 -0.085467
v 0.114072 3.418355 -0.105993
v 0.035971 3.409819 0.136069
v 0.469531 3.134403 0.132462
v 0.110850 3.515150 0.030162
v 0.579361 3.017815 0.163786
v 0.474861 3.035370 -0.003092
v 0.392544 3.031309 0.237768
v 0.117680 3.389669 -0.031649
v -0.092536 3.391252 0.111570
v 0.238544 3.089771 0.374963
v 0.037361 3.488865 0.075257
v 0.300148 2.967565 0.466736
v 0.320046 2.988229 0.269819
v 0.107466 2.994504 0.409515
v 0.106038 3.415457 0.092691
v -0.138436 3.415457 0.022442
v -0.137279 3.221982 0.478935
v -0.021360 3.524728 0.075526
v -0.172774 3.129279 0.602462
v -0.010563 3.110931 0.498471
v -0.253674 3.114490 0.423480
v 0.035512 3.389669 0.125190
v -0.089106 3.391252 -0.096559
v -0.379986 3.089770 0.210653
v -0.064094 3.488865 0.035978
v -0.476714 2.967565 0.264140
v -0.282236 2.988229 0.300891
v -0.403141 2.994503 0.077089
v -0.095349 3.418355 0.097616
v -0.017249 3.409819 -0.144447
v -0.450809 3.134403 -0.140839
v -0.092128 3.515150 -0.038539
v -0.560639 3.017815 -0.172164
v -0.456139 3.035370 -0.005285
v -0.373822 3.031309 -0.246145
v -0.098957 3.389669 0.023272
v 0.111258 3.391252 -0.119947
v -0.219822 3.089770 -0.383341
v -0.018638 3.488865 -0.083634
v -0.281426 2.967565 -0.475113
v -0.301324 2.988229 -0.278196
v -0.088743 2.994503 -0.417892
v -0.109571 3.654583 -0.045062
v 0.113947 3.654583 -0.043200
v 0.005392 3.470692 -0.428743
v 0.002343 3.763500 -0.062757
v 0.006326 3.381032 -0.540810
v -0.106504 3.360054 -0.413200
v 0.116979 3.363496 -0.407035
v -0.045639 3.621139 -0.106461
v 0.112114 3.622530 0.051901
v 0.289303 3.342885 -0.279910
v 0.062801 3.718416 -0.057579
v 0.358659 3.227895 -0.347989
v 0.182193 3.243401 -0.330099
v 0.337284 3.249207 -0.169123
v 0.071975 3.650509 -0.115028
v 0.062897 3.643006 0.108336
v 0.432185 3.386805 0.002748
v 0.105437 3.746325 0.001543
v 0.532237 3.276718 0.003116
v 0.400644 3.288876 -0.113817
v 0.387724 3.285599 0.109534
v 0.092196 3.621139 -0.054586
v -0.052019 3.622530 0.116197
v 0.293796 3.342885 0.264206
v 0.052817 3.718416 0.057656
v 0.367585 3.227895 0.327453
v 0.334592 3.243401 0.153179
v 0.187544 3.249207 0.321533
v 0.113125 3.654583 0.055575
v -0.110394 3.654583 0.053713
v -0.001839 3.470692 0.439256
v 0.001210 3.763500 0.073269
v -0.002773 3.381032 0.551323
v 0.110057 3.360054 0.423712
v -0.113426 3.363496 0.417548
v 0.062557 3.621139 0.097532
v -0.095196 3.622530 -0.060830
v -0.272385 3.342885 0.270981
v -0.045884 3.718416 0.048650
v -0.341741 3.227895 0.339060
v -0.165276 3.243401 0.321170
v -0.320366 3.249207 0.160194
v -0.055058 3.650509 0.106099
v -0.045979 3.643006 -0.117265
v -0.415268 3.386805 -0.011676
v -0.088520 3.746325 -0.010472
v -0.515320 3.352261 -0.012045
v -0.383727 3.288876 0.104888
v -0.370807 3.285599 -0.118463
v -0.075279 3.621139 0.045657
v 0.068936 3.622530 -0.125125
v -0.276879 3.342885 -0.273135
v -0.035900 3.718416 -0.066584
v -0.350668 3.227895 -0.336382
v -0.317674 3.243401 -0.162108
v -0.170627 3.249207 -0.330462
v -0.078483 3.969962 -0.011048
v 0.073173 3.969962 -0.045331
v -0.062425 3.824152 -0.292586
v -0.006113 4.061670 -0.043487
v -0.079667 3.751422 -0.368862
v -0.135125 3.731048 -0.261611
v 0.017192 3.733840 -0.292967
v -0.052510 3.942106 -0.053121
v 0.079503 3.943074 0.029033
v 0.159510 3.717870 -0.244025
v 0.032340 4.025864 -0.043304
v 0.198451 3.623560 -0.305487
v 0.075408 3.632302 -0.255022
v 0.205926 3.636890 -0.170508
v 0.022569 3.965341 -0.086320
v 0.051968 3.960118 0.066521
v 0.303990 3.754934 -0.068306
v 0.069986 4.048204 -0.013272
v 0.375644 3.665133 -0.085158
v 0.257948 3.670347 -0.141678
v 0.284596 3.668571 0.011810
v 0.044401 3.942106 -0.057394
v -0.026101 3.943074 0.081192
v 0.252823 3.717870 0.137430
v 0.041914 4.025864 0.027985
v 0.317405 3.623560 0.170943
v 0.256550 3.632302 0.052694
v 0.183569 3.636890 0.189993
v 0.087591 3.969962 0.018447
v -0.064065 3.969962 0.052730
v 0.071532 3.824152 0.299986
v 0.015221 4.061670 0.050886
v 0.088775 3.751422 0.376261
v 0.144233 3.731048 0.269011
v -0.008085 3.733840 0.300366
v 0.067575 3.942106 0.045230
v -0.064437 3.943074 -0.036924
v -0.144444 3.717870 0.236134
v -0.017274 4.025864 0.035413
v -0.183385 3.623560 0.297596
v -0.060342 3.632302 0.247131
v -0.190860 3.636890 0.162617
v -0.007503 3.965341 0.078429
v -0.036902 3.960118 -0.074412
v -0.288924 3.754934 0.060415
v -0.054921 4.048204 0.005381
v -0.360578 3.707542 0.077267
v -0.242882 3.670347 0.133787
v -0.269531 3.668571 -0.019701
v -0.029335 3.942106 0.049503
v 0.041167 3.943074 -0.089083
v -0.237757 3.717870 -0.145321
v -0.026848 4.025864 -0.035876
v -0.302339 3.623560 -0.178834
v -0.241484 3.632302 -0.060585
v -0.168503 3.636890 -0.197885
v -0.054918 4.244074 0.003165
v 0.047987 4.244074 -0.041769
v -0.081803 4.138773 -0.198705
v -0.007998 4.310305 -0.029681
v -0.104403 4.086249 -0.250461
v -0.129157 4.071535 -0.166851
v -0.025385 4.073551 -0.209799
v -0.042215 4.223958 -0.030207
v 0.062586 4.224657 0.010115
v 0.082211 4.062018 -0.194434
v 0.019301 4.284446 -0.034780
v 0.101474 3.993910 -0.243321
v 0.021064 4.000223 -0.190800
v 0.125127 4.003536 -0.148601
v 0.006522 4.240738 -0.063961
v 0.048153 4.236965 0.040448
v 0.208575 4.088785 -0.089444
v 0.050085 4.300580 -0.018596
v 0.257106 4.023932 -0.111138
v 0.165944 4.027698 -0.135225
v 0.205712 4.026415 -0.029983
v 0.025939 4.223958 -0.046413
v -0.005225 4.224657 0.061467
v 0.200254 4.062018 0.063435
v 0.035783 4.284446 0.014482
v 0.250616 3.993910 0.078424
v 0.191377 4.000223 0.002827
v 0.158280 4.003536 0.110132
v 0.066884 4.244074 0.001507
v -0.036021 4.244074 0.046441
v 0.093769 4.138773 0.203378
v 0.019964 4.310305 0.034354
v 0.116369 4.086249 0.255134
v 0.141123 4.071535 0.171524
v 0.037351 4.073551 0.214471
v 0.056328 4.223958 0.023225
v -0.048473 4.224657 -0.017097
v -0.068097 4.062018 0.187452
v -0.005188 4.284447 0.027797
v -0.087361 3.993910 0.236339
v -0.006951 4.000223 0.183818
v -0.111013 4.003536 0.141619
v 0.007591 4.240738 0.056979
v -0.034040 4.236965 -0.047430
v -0.194462 4.088785 0.082462
v -0.035972 4.300580 0.011614
v -0.242993 4.023932 0.104156
v -0.151831 4.027698 0.128243
v -0.191599 4.026415 0.023001
v -0.011826 4.223958 0.039431
v 0.019338 4.224657 -0.068449
v -0.186141 4.062018 -0.070417
v -0.021670 4.284447 -0.021464
v -0.236503 3.993910 -0.085407
v -0.177264 4.000223 -0.009810
v -0.144167 4.003536 -0.117114
v -0.055406 4.420246 0.009191
v 0.044494 4.420246 0.006453
v -0.010228 4.326526 -0.166344
v -0.005732 4.479192 -0.002255
v -0.011605 4.279778 -0.216588
v -0.059929 4.266683 -0.155863
v 0.040024 4.268477 -0.156671
v 0.019113 4.445241 0.049027
v -0.037593 4.441884 -0.033390
v -0.151235 4.310000 0.110956
v -0.027636 4.498502 0.018237
v -0.189082 4.252280 0.139347
v -0.105213 4.255632 0.142291
v -0.160466 4.254490 0.058784
v -0.001788 4.530101 0.027909
v 0.001100 4.530411 -0.021838
v -0.088015 4.458238 -0.002503
v -0.012030 4.556943 0.002524
v -0.111282 4.428013 -0.004042
v -0.078219 4.430815 0.022853
v -0.074438 4.432285 -0.026835
v 0.003807 4.484107 -0.020604
v -0.026962 4.484417 0.018592
v 0.057243 4.412244 0.053589
v -0.002275 4.510950 0.006085
v 0.075468 4.382020 0.068134
v 0.063675 4.384821 0.027178
v 0.032206 4.386292 0.065816
vt 0.066406 0.250000
vt 0.079102 0.250000
vt 0.079102 0.285886
vt 0.066406 0.286097
vt 0.079102 0.296875
vt 0.091797 0.285675
vt 0.091797 0.250000
vt 0.066406 0.250000
vt 0.079102 0.250000
vt 0.079102 0.285886
vt 0.066406 0.286097
vt 0.079102 0.296875
vt 0.091797 0.285675
vt 0.091797 0.250000
vt 0.066406 0.250000
vt 0.079102 0.250000
vt 0.079102 0.285886
vt 0.066406 0.286097
vt 0.079102 0.296875
vt 0.091797 0.285675
vt 0.091797 0.250000
vt 0.066406 0.250000
vt 0.079102 0.250000
vt 0.079102 0.285886
vt 0.066406 0.286097
vt 0.079102 0.296875
vt 0.091797 0.285675
vt 0.091797 0.250000
vt 0.066406 0.250000
vt 0.079102 0.250000
vt 0.079102 0.285886
vt 0.066406 0.286097
vt 0.079102 0.296875
vt 0.091797 0.285675
vt 0.091797 0.250000
vt 0.066406 0.250000
vt 0.079102 0.250000
vt 0.079102 0.285886
vt 0.066406 0.286097
vt 0.079102 0.296875
vt 0.091797 0.285675
vt 0.091797 0.250000
vt 0.066406 0.250000
vt 0.079102 0.250000
vt 0.079102 0.285886
vt 0.066406 0.286097
vt 0.079102 0.296875
vt 0.091797 0.285675
vt 0.091797 0.250000
vt 0.066406 0.250000
vt 0.079102 0.250000
vt 0.079102 0.285886
vt 0.066406 0.286097
vt 0.079102 0.296875
vt 0.091797 0.285675
vt 0.091797 0.250000
vt 0.066406 0.250000
vt 0.079102 0.250000
vt 0.079102 0.285886
vt 0.066406 0.286097
vt 0.079102 0.296875
vt 0.091797 0.285675
vt 0.091797 0.250000
vt 0.066406 0.250000
vt 0.079102 0.250000
vt 0.079102 0.285886
vt 0.066406 0.286097
vt 0.079102 0.296875
vt 0.091797 0.285675
vt 0.091797 0.250000
vt 0.066406 0.250000
vt 0.079102 0.250000
vt 0.079102 0.285886
vt 0.066406 0.286097
vt 0.079102 0.296875
vt 0.091797 0.285675
vt 0.091797 0.250000
vt 0.066406 0.250000
vt 0.079102 0.250000
vt 0.079102 0.285886
vt 0.066406 0.286097
vt 0.079102 0.296875
vt 0.091797 0.285675
vt 0.091797 0.250000
vt 0.066406 0.250000
vt 0.079102 0.250000
vt 0.079102 0.285886
vt 0.066406 0.286097
vt 0.079102 0.296875
vt 0.091797 0.285675
vt 0.091797 0.250000
vt 0.066406 0.250000
vt 0.079102 0.250000
vt 0.079102 0.285886
vt 0.066406 0.286097
vt 0.079102 0.296875
vt 0.091797 0.285675
vt 0.091797 0.250000
vt 0.066406 0.250000
vt 0.079102 0.250000
vt 0.079102 0.285886
vt 0.066406 0.286097
vt 0.079102 0.296875
vt 0.091797 0.285675
vt 0.091797 0.250000
vt 0.066406 0.250000
vt 0.079102 0.250000
vt 0.079102 0.285886
vt 0.066406 0.286097
vt 0.079102 0.296875
vt 0.091797 0.285675
vt 0.091797 0.250000
vt 0.066406 0.250000
vt 0.079102 0.250000
vt 0.079102 0.285886
vt 0.066406 0.286097
vt 0.079102 0.296875
vt 0.091797 0.285675
vt 0.091797 0.250000
vt 0.066406 0.250000
vt 0.079102 0.250000
vt 0.079102 0.285886
vt 0.066406 0.286097
vt 0.079102 0.296875
vt 0.091797 0.285675
vt 0.091797 0.250000
vt 0.066406 0.250000
vt 0.079102 0.250000
vt 0.079102 0.285886
vt 0.066406 0.286097
vt 0.079102 0.296875
vt 0.091797 0.285675
vt 0.091797 0.250000
vt 0.066406 0.250000
vt 0.079102 0.250000
vt 0.079102 0.285886
vt 0.066406 0.286097
vt 0.079102 0.296875
vt 0.091797 0.285675
vt 0.091797 0.250000
vt 0.066406 0.250000
vt 0.079102 0.250000
vt 0.079102 0.285886
vt 0.066406 0.286097
vt 0.079102 0.296875
vt 0.091797 0.285675
vt 0.091797 0.250000
vt 0.066406 0.250000
vt 0.079102 0.250000
vt 0.079102 0.285886
vt 0.066406 0.286097
vt 0.079102 0.296875
vt 0.091797 0.285675
vt 0.091797 0.250000
vt 0.066406 0.250000
vt 0.079102 0.250000
vt 0.079102 0.285886
vt 0.066406 0.286097
vt 0.079102 0.296875
vt 0.091797 0.285675
vt 0.091797 0.250000
vt 0.066406 0.250000
vt 0.079102 0.250000
vt 0.079102 0.285886
vt 0.066406 0.286097
vt 0.079102 0.296875
vt 0.091797 0.285675
vt 0.091797 0.250000
vt 0.066406 0.250000
vt 0.079102 0.250000
vt 0.079102 0.285886
vt 0.066406 0.286097
vt 0.079102 0.296875
vt 0.091797 0.285675
vt 0.091797 0.250000
vt 0.066406 0.250000
vt 0.079102 0.250000
vt 0.079102 0.285886
vt 0.066406 0.286097
vt 0.079102 0.296875
vt 0.091797 0.285675
vt 0.091797 0.250000
vt 0.066406 0.250000
vt 0.079102 0.250000
vt 0.079102 0.285886
vt 0.066406 0.286097
vt 0.079102 0.296875
vt 0.091797 0.285675
vt 0.091797 0.250000
vt 0.066406 0.250000
vt 0.079102 0.250000
vt 0.079102 0.285886
vt 0.066406 0.286097
vt 0.079102 0.296875
vt 0.091797 0.285675
vt 0.091797 0.250000
vt 0.066406 0.250000
vt 0.079102 0.250000
vt 0.079102 0.285886
vt 0.066406 0.286097
vt 0.079102 0.296875
vt 0.091797 0.285675
vt 0.091797 0.250000
vt 0.066406 0.250000
vt 0.079102 0.250000
vt 0.079102 0.285886
vt 0.066406 0.286097
vt 0.079102 0.296875
vt 0.091797 0.285675
vt 0.091797 0.250000
vt 0.066406 0.250000
vt 0.079102 0.250000
vt 0.079102 0.285886
vt 0.066406 0.286097
vt 0.079102 0.296875
vt 0.091797 0.285675
vt 0.091797 0.250000
vt 0.066406 0.250000
vt 0.079102 0.250000
vt 0.079102 0.285886
vt 0.066406 0.286097
vt 0.079102 0.296875
vt 0.091797 0.285675
vt 0.091797 0.250000
vt 0.066406 0.250000
vt 0.079102 0.250000
vt 0.079102 0.285886
vt 0.066406 0.286097
vt 0.079102 0.296875
vt 0.091797 0.285675
vt 0.091797 0.250000
vt 0.066406 0.250000
vt 0.079102 0.250000
vt 0.079102 0.285886
vt 0.066406 0.286097
vt 0.079102 0.296875
vt 0.091797 0.285675
vt 0.091797 0.250000
vt 0.066406 0.250000
vt 0.079102 0.250000
vt 0.079102 0.285886
vt 0.066406 0.286097
vt 0.079102 0.296875
vt 0.091797 0.285675
vt 0.091797 0.250000
vt 0.066406 0.250000
vt 0.079102 0.250000
vt 0.079102 0.285886
vt 0.066406 0.286097
vt 0.079102 0.296875
vt 0.091797 0.285675
vt 0.091797 0.250000
vt 0.066406 0.250000
vt 0.079102 0.250000
vt 0.079102 0.285886
vt 0.066406 0.286097
vt 0.079102 0.296875
vt 0.091797 0.285675
vt 0.091797 0.250000
vt 0.066406 0.250000
vt 0.079102 0.250000
vt 0.079102 0.285886
vt 0.066406 0.286097
vt 0.079102 0.296875
vt 0.091797 0.285675
vt 0.091797 0.250000
vt 0.066406 0.250000
vt 0.079102 0.250000
vt 0.079102 0.285886
vt 0.066406 0.286097
vt 0.079102 0.296875
vt 0.091797 0.285675
vt 0.091797 0.250000
vt 0.066406 0.250000
vt 0.079102 0.250000
vt 0.079102 0.285886
vt 0.066406 0.286097
vt 0.079102 0.296875
vt 0.091797 0.285675
vt 0.091797 0.250000
vt 0.066406 0.250000
vt 0.079102 0.250000
vt 0.079102 0.285886
vt 0.066406 0.286097
vt 0.079102 0.296875
vt 0.091797 0.285675
vt 0.091797 0.250000
vt 0.066406 0.250000
vt 0.079102 0.250000
vt 0.079102 0.285886
vt 0.066406 0.286097
vt 0.079102 0.296875
vt 0.091797 0.285675
vt 0.091797 0.250000
vt 0.066406 0.250000
vt 0.079102 0.250000
vt 0.079102 0.285886
vt 0.066406 0.286097
vt 0.079102 0.296875
vt 0.091797 0.285675
vt 0.091797 0.250000
vt 0.066406 0.250000
vt 0.079102 0.250000
vt 0.079102 0.285886
vt 0.066406 0.286097
vt 0.079102 0.296875
vt 0.091797 0.285675
vt 0.091797 0.250000
vt 0.066406 0.250000
vt 0.079102 0.250000
vt 0.079102 0.285886
vt 0.066406 0.286097
vt 0.079102 0.296875
vt 0.091797 0.285675
vt 0.091797 0.250000
vt 0.066406 0.250000
vt 0.079102 0.250000
vt 0.079102 0.285886
vt 0.066406 0.286097
vt 0.079102 0.296875
vt 0.091797 0.285675
vt 0.091797 0.250000
vt 0.066406 0.250000
vt 0.079102 0.250000
vt 0.079102 0.285886
vt 0.066406 0.286097
vt 0.079102 0.296875
vt 0.091797 0.285675
vt 0.091797 0.250000
vt 0.066406 0.250000
vt 0.079102 0.250000
vt 0.079102 0.285886
vt 0.066406 0.286097
vt 0.079102 0.296875
vt 0.091797 0.285675
vt 0.091797 0.250000
vt 0.066406 0.250000
vt 0.079102 0.250000
vt 0.079102 0.285886
vt 0.066406 0.286097
vt 0.079102 0.296875
vt 0.091797 0.285675
vt 0.091797 0.250000
vt 0.066406 0.250000
vt 0.079102 0.250000
vt 0.079102 0.285886
vt 0.066406 0.286097
vt 0.079102 0.296875
vt 0.091797 0.285675
vt 0.091797 0.250000
vt 0.066406 0.250000
vt 0.079102 0.250000
vt 0.079102 0.285886
vt 0.066406 0.286097
vt 0.079102 0.296875
vt 0.091797 0.285675
vt 0.091797 0.250000
vt 0.066406 0.250000
vt 0.079102 0.250000
vt 0.079102 0.285886
vt 0.066406 0.286097
vt 0.079102 0.296875
vt 0.091797 0.285675
vt 0.091797 0.250000
vt 0.066406 0.250000
vt 0.079102 0.250000
vt 0.079102 0.285886
vt 0.066406 0.286097
vt 0.079102 0.296875
vt 0.091797 0.285675
vt 0.091797 0.250000
vt 0.066406 0.250000
vt 0.079102 0.250000
vt 0.079102 0.285886
vt 0.066406 0.286097
vt 0.079102 0.296875
vt 0.091797 0.285675
vt 0.091797 0.250000
vt 0.066406 0.250000
vt 0.079102 0.250000
vt 0.079102 0.285886
vt 0.066406 0.286097
vt 0.079102 0.296875
vt 0.091797 0.285675
vt 0.091797 0.250000
vt 0.066406 0.250000
vt 0.079102 0.250000
vt 0.079102 0.285886
vt 0.066406 0.286097
vt 0.079102 0.296875
vt 0.091797 0.285675
vt 0.091797 0.250000
vt 0.066406 0.250000
vt 0.079102 0.250000
vt 0.079102 0.285886
vt 0.066406 0.286097
vt 0.079102 0.296875
vt 0.091797 0.285675
vt 0.091797 0.250000
vt 0.066406 0.250000
vt 0.079102 0.250000
vt 0.079102 0.285886
vt 0.066406 0.286097
vt 0.079102 0.296875
vt 0.091797 0.285675
vt 0.091797 0.250000
vt 0.066406 0.250000
vt 0.079102 0.250000
vt 0.079102 0.285886
vt 0.066406 0.286097
vt 0.079102 0.296875
vt 0.091797 0.285675
vt 0.091797 0.250000
vt 0.066406 0.250000
vt 0.079102 0.250000
vt 0.079102 0.285886
vt 0.066406 0.286097
vt 0.079102 0.296875
vt 0.091797 0.285675
vt 0.091797 0.250000
vt 0.066406 0.250000
vt 0.079102 0.250000
vt 0.079102 0.285886
vt 0.066406 0.286097
vt 0.079102 0.296875
vt 0.091797 0.285675
vt 0.091797 0.250000
vt 0.066406 0.250000
vt 0.079102 0.250000
vt 0.079102 0.285886
vt 0.066406 0.286097
vt 0.079102 0.296875
vt 0.091797 0.285675
vt 0.091797 0.250000
vt 0.066406 0.250000
vt 0.079102 0.250000
vt 0.079102 0.285886
vt 0.066406 0.286097
vt 0.079102 0.296875
vt 0.091797 0.285675
vt 0.091797 0.250000
vt 0.066406 0.250000
vt 0.079102 0.250000
vt 0.079102 0.285886
vt 0.066406 0.286097
vt 0.079102 0.296875
vt 0.091797 0.285675
vt 0.091797 0.250000
vt 0.066406 0.250000
vt 0.079102 0.250000
vt 0.079102 0.285886
vt 0.066406 0.286097
vt 0.079102 0.296875
vt 0.091797 0.285675
vt 0.091797 0.250000
vt 0.066406 0.250000
vt 0.079102 0.250000
vt 0.079102 0.285886
vt 0.066406 0.286097
vt 0.079102 0.296875
vt 0.091797 0.285675
vt 0.091797 0.250000
vt 0.066406 0.250000
vt 0.079102 0.250000
vt 0.079102 0.285886
vt 0.066406 0.286097
vt 0.079102 0.296875
vt 0.091797 0.285675
vt 0.091797 0.250000
vt 0.066406 0.250000
vt 0.079102 0.250000
vt 0.079102 0.285886
vt 0.066406 0.286097
vt 0.079102 0.296875
vt 0.091797 0.285675
vt 0.091797 0.250000
vt 0.066406 0.250000
vt 0.079102 0.250000
vt 0.079102 0.285886
vt 0.066406 0.286097
vt 0.079102 0.296875
vt 0.091797 0.285675
vt 0.091797 0.250000
vt 0.066406 0.250000
vt 0.079102 0.250000
vt 0.079102 0.285886
vt 0.066406 0.286097
vt 0.079102 0.296875
vt 0.091797 0.285675
vt 0.091797 0.250000
vt 0.066406 0.250000
vt 0.079102 0.250000
vt 0.079102 0.285886
vt 0.066406 0.286097
vt 0.079102 0.296875
vt 0.091797 0.285675
vt 0.091797 0.250000
vt 0.066406 0.250000
vt 0.079102 0.250000
vt 0.079102 0.285886
vt 0.066406 0.286097
vt 0.079102 0.296875
vt 0.091797 0.285675
vt 0.091797 0.250000
vt 0.066406 0.250000
vt 0.079102 0.250000
vt 0.079102 0.285886
vt 0.066406 0.286097
vt 0.079102 0.296875
vt 0.091797 0.285675
vt 0.091797 0.250000
vt 0.066406 0.250000
vt 0.079102 0.250000
vt 0.079102 0.285886
vt 0.066406 0.286097
vt 0.079102 0.296875
vt 0.091797 0.285675
vt 0.091797 0.250000
vt 0.066406 0.250000
vt 0.079102 0.250000
vt 0.079102 0.285886
vt 0.066406 0.286097
vt 0.079102 0.296875
vt 0.091797 0.285675
vt 0.091797 0.250000
vt 0.066406 0.250000
vt 0.079102 0.250000
vt 0.079102 0.285886
vt 0.066406 0.286097
vt 0.079102 0.296875
vt 0.091797 0.285675
vt 0.091797 0.250000
vt 0.066406 0.250000
vt 0.079102 0.250000
vt 0.079102 0.285886
vt 0.066406 0.286097
vt 0.079102 0.296875
vt 0.091797 0.285675
vt 0.091797 0.250000
vt 0.066406 0.250000
vt 0.079102 0.250000
vt 0.079102 0.285886
vt 0.066406 0.286097
vt 0.079102 0.296875
vt 0.091797 0.285675
vt 0.091797 0.250000
vt 0.066406 0.250000
vt 0.079102 0.250000
vt 0.079102 0.285886
vt 0.066406 0.286097
vt 0.079102 0.296875
vt 0.091797 0.285675
vt 0.091797 0.250000
vt 0.066406 0.250000
vt 0.079102 0.250000
vt 0.079102 0.285886
vt 0.066406 0.286097
vt 0.079102 0.296875
vt 0.091797 0.285675
vt 0.091797 0.250000
vt 0.066406 0.250000
vt 0.079102 0.250000
vt 0.079102 0.285886
vt 0.066406 0.286097
vt 0.079102 0.296875
vt 0.091797 0.285675
vt 0.091797 0.250000
vt 0.066406 0.250000
vt 0.079102 0.250000
vt 0.079102 0.285886
vt 0.066406 0.286097
vt 0.079102 0.296875
vt 0.091797 0.285675
vt 0.091797 0.250000
vt 0.066406 0.250000
vt 0.079102 0.250000
vt 0.079102 0.285886
vt 0.066406 0.286097
vt 0.079102 0.296875
vt 0.091797 0.285675
vt 0.091797 0.250000
vt 0.066406 0.250000
vt 0.079102 0.250000
vt 0.079102 0.285886
vt 0.066406 0.286097
vt 0.079102 0.296875
vt 0.091797 0.285675
vt 0.091797 0.250000
vt 0.066406 0.250000
vt 0.079102 0.250000
vt 0.079102 0.285886
vt 0.066406 0.286097
vt 0.079102 0.296875
vt 0.091797 0.285675
vt 0.091797 0.250000
vt 0.066406 0.250000
vt 0.079102 0.250000
vt 0.079102 0.285886
vt 0.066406 0.286097
vt 0.079102 0.296875
vt 0.091797 0.285675
vt 0.091797 0.250000
vt 0.066406 0.250000
vt 0.079102 0.250000
vt 0.079102 0.285886
vt 0.066406 0.286097
vt 0.079102 0.296875
vt 0.091797 0.285675
vt 0.091797 0.250000
vt 0.066406 0.250000
vt 0.079102 0.250000
vt 0.079102 0.285886
vt 0.066406 0.286097
vt 0.079102 0.296875
vt 0.091797 0.285675
vt 0.091797 0.250000
vt 0.066406 0.250000
vt 0.079102 0.250000
vt 0.079102 0.285886
vt 0.066406 0.286097
vt 0.079102 0.296875
vt 0.091797 0.285675
vt 0.091797 0.250000
vt 0.066406 0.250000
vt 0.079102 0.250000
vt 0.079102 0.285886
vt 0.066406 0.286097
vt 0.079102 0.296875
vt 0.091797 0.285675
vt 0.091797 0.250000
vt 0.066406 0.250000
vt 0.079102 0.250000
vt 0.079102 0.285886
vt 0.066406 0.286097
vt 0.079102 0.296875
vt 0.091797 0.285675
vt 0.091797 0.250000
vt 0.066406 0.250000
vt 0.079102 0.250000
vt 0.079102 0.285886
vt 0.066406 0.286097
vt 0.079102 0.296875
vt 0.091797 0.285675
vt 0.091797 0.250000
vt 0.066406 0.250000
vt 0.079102 0.250000
vt 0.079102 0.285886
vt 0.066406 0.286097
vt 0.079102 0.296875
vt 0.091797 0.285675
vt 0.091797 0.250000
vt 0.066406 0.250000
vt 0.079102 0.250000
vt 0.079102 0.285886
vt 0.066406 0.286097
vt 0.079102 0.296875
vt 0.091797 0.285675
vt 0.091797 0.250000
vt 0.066406 0.250000
vt 0.079102 0.250000
vt 0.079102 0.285886
vt 0.066406 0.286097
vt 0.079102 0.296875
vt 0.091797 0.285675
vt 0.091797 0.250000
vt 0.066406 0.250000
vt 0.079102 0.250000
vt 0.079102 0.285886
vt 0.066406 0.286097
vt 0.079102 0.296875
vt 0.091797 0.285675
vt 0.091797 0.250000
vt 0.066406 0.250000
vt 0.079102 0.250000
vt 0.079102 0.285886
vt 0.066406 0.286097
vt 0.079102 0.296875
vt 0.091797 0.285675
vt 0.091797 0.250000
vt 0.066406 0.250000
vt 0.079102 0.250000
vt 0.079102 0.285886
vt 0.066406 0.286097
vt 0.079102 0.296875
vt 0.091797 0.285675
vt 0.091797 0.250000
vt 0.066406 0.250000
vt 0.079102 0.250000
vt 0.079102 0.285886
vt 0.066406 0.286097
vt 0.079102 0.296875
vt 0.091797 0.285675
vt 0.091797 0.250000
vt 0.066406 0.250000
vt 0.079102 0.250000
vt 0.079102 0.285886
vt 0.066406 0.286097
vt 0.079102 0.296875
vt 0.091797 0.285675
vt 0.091797 0.250000
vt 0.066406 0.250000
vt 0.079102 0.250000
vt 0.079102 0.285886
vt 0.066406 0.286097
vt 0.079102 0.296875
vt 0.091797 0.285675
vt 0.091797 0.250000
vt 0.066406 0.250000
vt 0.079102 0.250000
vt 0.079102 0.285886
vt 0.066406 0.286097
vt 0.079102 0.296875
vt 0.091797 0.285675
vt 0.091797 0.250000
vt 0.066406 0.250000
vt 0.079102 0.250000
vt 0.079102 0.285886
vt 0.066406 0.286097
vt 0.079102 0.296875
vt 0.091797 0.285675
vt 0.091797 0.250000
vt 0.066406 0.250000
vt 0.079102 0.250000
vt 0.079102 0.285886
vt 0.066406 0.286097
vt 0.079102 0.296875
vt 0.091797 0.285675
vt 0.091797 0.250000
vt 0.066406 0.250000
vt 0.079102 0.250000
vt 0.079102 0.285886
vt 0.066406 0.286097
vt 0.079102 0.296875
vt 0.091797 0.285675
vt 0.091797 0.250000
vt 0.066406 0.250000
vt 0.079102 0.250000
vt 0.079102 0.285886
vt 0.066406 0.286097
vt 0.079102 0.296875
vt 0.091797 0.285675
vt 0.091797 0.250000
vt 0.066406 0.250000
vt 0.079102 0.250000
vt 0.079102 0.285886
vt 0.066406 0.286097
vt 0.079102 0.296875
vt 0.091797 0.285675
vt 0.091797 0.250000
vt 0.066406 0.250000
vt 0.079102 0.250000
vt 0.079102 0.285886
vt 0.066406 0.286097
vt 0.079102 0.296875
vt 0.091797 0.285675
vt 0.091797 0.250000
vn 0.0233 0.7225 0.6909
vn -0.3685 0.8201 0.4377
vn -0.3634 0.8200 0.4422
vn -0.6767 0.7313 0.0851
vn -0.3363 0.7444 -0.5768
vn 0.1715 0.8686 -0.4649
vn 0.1642 0.8686 -0.4676
vn 0.6303 0.7444 -0.2201
vn 0.3156 0.6167 -0.7211
vn 0.6233 0.7233 -0.2971
vn 0.6199 0.7233 -0.3042
vn 0.7528 0.6232 0.2118
vn 0.7062 0.6641 -0.2455
vn 0.5978 0.7547 0.2701
vn 0.6008 0.7549 0.2629
vn 0.3186 0.6296 0.7086
vn 0.7455 0.6167 0.2524
vn 0.3496 0.7233 0.5954
vn 0.3563 0.7233 0.5915
vn -0.1463 0.6232 0.7682
vn 0.3363 0.7444 0.5768
vn -0.1715 0.8686 0.4649
vn -0.1642 0.8686 0.4676
vn -0.6303 0.7444 0.2201
vn -0.3156 0.6167 0.7211
vn -0.6233 0.7233 0.2971
vn -0.6199 0.7233 0.3042
vn -0.7528 0.6232 -0.2118
vn -0.7062 0.6641 0.2455
vn -0.5978 0.7547 -0.2701
vn -0.6008 0.7549 -0.2629
vn -0.3186 0.6296 -0.7086
vn -0.7455 0.6167 -0.2524
vn -0.3496 0.7233 -0.5954
vn -0.3563 0.7233 -0.5915
vn 0.1463 0.6232 -0.7682
vn -0.1890 0.7683 -0.6115
vn 0.2551 0.8804 -0.3998
vn 0.2489 0.8804 -0.4037
vn 0.6342 0.7683 -0.0862
vn 0.4652 0.6373 -0.6143
vn 0.6597 0.7354 -0.1549
vn 0.6580 0.7353 -0.1620
vn 0.6836 0.6434 0.3446
vn 0.7252 0.6848 -0.0710
vn 0.5143 0.7672 0.3832
vn 0.5184 0.7674 0.3771
vn 0.1709 0.6519 0.7388
vn 0.6521 0.6373 0.4107
vn 0.2110 0.7354 0.6439
vn 0.2180 0.7353 0.6416
vn -0.2846 0.6434 0.7106
vn 0.2427 0.8059 0.5400
vn -0.1934 0.9283 0.3177
vn -0.1872 0.9282 0.3216
vn -0.5802 0.8143 0.0144
vn -0.4652 0.6373 0.6143
vn -0.6597 0.7354 0.1549
vn -0.6580 0.7353 0.1620
vn -0.6836 0.6434 -0.3446
vn -0.7252 0.6848 0.0710
vn -0.5143 0.7672 -0.3832
vn -0.5184 0.7674 -0.3771
vn -0.1709 0.6519 -0.7388
vn -0.6521 0.6373 -0.4107
vn -0.2110 0.7354 -0.6439
vn -0.2180 0.7353 -0.6416
vn 0.2846 0.6434 -0.7106
vn -0.0270 0.7047 -0.7090
vn 0.3798 0.8074 -0.4515
vn 0.3745 0.8073 -0.4561
vn 0.6946 0.7144 -0.0845
vn 0.5495 0.6455 -0.5304
vn 0.6700 0.7402 -0.0568
vn 0.6694 0.7401 -0.0639
vn 0.6244 0.6514 0.4309
vn 0.7197 0.6930 0.0417
vn 0.4486 0.7721 0.4501
vn 0.4534 0.7723 0.4449
vn 0.0669 0.6608 0.7476
vn 0.5757 0.6455 0.5019
vn 0.1142 0.7402 0.6626
vn 0.1212 0.7401 0.6615
vn -0.3756 0.6514 0.6592
vn 0.1083 0.7920 0.6008
vn -0.2870 0.9000 0.3280
vn -0.2817 0.9000 0.3327
vn -0.6129 0.7898 -0.0242
vn -0.5495 0.6455 0.5304
vn -0.6700 0.7402 0.0568
vn -0.6694 0.7401 0.0639
vn -0.6244 0.6514 -0.4309
vn -0.7197 0.6930 -0.0417
vn -0.4486 0.7721 -0.4501
vn -0.4534 0.7723 -0.4449
vn -0.0669 0.6608 -0.7476
vn -0.5757 0.6455 -0.5019
vn -0.1142 0.7402 -0.6626
vn -0.1212 0.7401 -0.6615
vn 0.3756 0.6514 -0.6592
vn -0.1238 0.8210 -0.5572
vn 0.2551 0.9234 -0.2868
vn 0.2499 0.9234 -0.2912
vn 0.5760 0.8160 0.0489
vn 0.5492 0.6558 -0.5180
vn 0.6634 0.7461 -0.0563
vn 0.6628 0.7461 -0.0631
vn 0.6221 0.6616 0.4185
vn 0.7090 0.7034 0.0499
vn 0.4429 0.7782 0.4452
vn 0.4475 0.7784 0.4401
vn 0.0737 0.6720 0.7368
vn 0.5325 0.5779 0.6184
vn 0.0726 0.6879 0.7221
vn 0.0795 0.6875 0.7218
vn -0.4042 0.6367 0.6566
vn -0.5492 0.6558 0.5180
vn -0.6634 0.7461 0.0563
vn -0.6628 0.7461 0.0631
vn -0.6221 0.6616 -0.4185
vn -0.7090 0.7034 -0.0499
vn -0.4429 0.7782 -0.4452
vn -0.4475 0.7784 -0.4401
vn -0.0737 0.6720 -0.7368
vn -0.5632 0.6558 -0.5026
vn -0.1131 0.7461 -0.6561
vn -0.1199 0.7461 -0.6549
vn 0.3634 0.6616 -0.6558
vn 0.0013 0.7642 -0.6450
vn 0.3660 0.8784 -0.3073
vn 0.3612 0.8784 -0.3130
vn 0.6355 0.7642 0.1103
vn 0.6284 0.6335 -0.4514
vn 0.6780 0.7334 0.0501
vn 0.6785 0.7333 0.0427
vn 0.5485 0.6397 0.5384
vn 0.7028 0.6847 0.1927
vn 0.3267 0.7847 0.5267
vn 0.3330 0.7847 0.5228
vn -0.1353 0.6782 0.7222
vn 0.1322 0.6335 0.7624
vn -0.3407 0.7334 0.5882
vn -0.3343 0.7333 0.5920
vn -0.7237 0.6397 0.2589
vn -0.0013 0.7642 0.6450
vn -0.3660 0.8784 0.3073
vn -0.3612 0.8784 0.3129
vn -0.6355 0.7642 -0.1103
vn -0.6284 0.6335 0.4514
vn -0.6780 0.7334 -0.0501
vn -0.6785 0.7333 -0.0427
vn -0.5485 0.6397 -0.5384
vn -0.7173 0.6811 -0.1469
vn -0.3774 0.7651 -0.5217
vn -0.3833 0.7653 -0.5171
vn 0.0617 0.6478 -0.7593
vn -0.5037 0.6335 -0.5873
vn -0.0083 0.7334 -0.6798
vn -0.0158 0.7333 -0.6797
vn 0.4892 0.6397 -0.5928
vn 0.0795 0.7336 -0.6749
vn 0.4261 0.8632 -0.2708
vn 0.4217 0.8632 -0.2776
vn 0.6448 0.7336 0.2146
vn 0.6903 0.6070 -0.3936
vn 0.6812 0.7180 0.1427
vn 0.5122 0.8529 0.1009
vn 0.5976 0.6752 -0.4323
vn 0.2985 0.9534 0.0430
vn 0.3706 0.6834 0.6290
vn 0.4677 0.6136 0.6362
vn 0.7212 0.6544 0.2273
vn 0.3151 0.7491 0.5826
vn 0.3221 0.7494 0.5785
vn -0.1854 0.6191 0.7631
vn 0.3446 0.6070 0.7161
vn -0.1898 0.7180 0.6696
vn -0.1819 0.7179 0.6719
vn -0.6672 0.6136 0.4223
vn -0.0795 0.7336 0.6749
vn -0.4261 0.8632 0.2708
vn -0.4217 0.8632 0.2776
vn -0.6448 0.7336 -0.2146
vn -0.6903 0.6070 0.3936
vn -0.6812 0.7180 -0.1427
vn -0.6829 0.7179 -0.1347
vn -0.4677 0.6136 -0.6362
vn -0.7212 0.6544 -0.2273
vn -0.3151 0.7491 -0.5826
vn -0.3221 0.7494 -0.5785
vn 0.1854 0.6191 -0.7631
vn -0.4515 0.6070 -0.6540
vn 0.0836 0.7180 -0.6910
vn 0.0755 0.7179 -0.6920
vn 0.5936 0.6136 -0.5207
vn 0.5155 0.8508 0.1017
vn 0.5989 0.6744 -0.4318
vn 0.3058 0.9510 0.0447
vn 0.3720 0.6825 0.6291
vn 0.4515 0.6070 0.6540
vn -0.0836 0.7180 0.6910
vn -0.0755 0.7179 0.6920
vn -0.5936 0.6136 0.5207
vn -0.2917 0.9377 0.1886
vn 0.0136 0.7722 0.6352
vn -0.1226 0.9878 0.0957
vn -0.5701 0.7734 -0.2773
vn 0.2508 0.7566 -0.6038
vn 0.4841 0.8352 -0.2609
vn 0.4814 0.8351 -0.2661
vn 0.6311 0.7650 0.1285
vn 0.6808 0.6935 -0.2357
vn 0.6130 0.7680 0.1852
vn 0.6147 0.7680 0.1796
vn 0.4303 0.6987 0.5715
vn 0.5902 0.7409 0.3204
vn 0.2339 0.8005 0.5518
vn 0.2392 0.8007 0.5492
vn -0.1654 0.7128 0.6816
vn 0.2933 0.6935 0.6580
vn -0.1318 0.7680 0.6267
vn -0.1260 0.7680 0.6279
vn -0.5323 0.6987 0.4779
vn -0.1249 0.8449 0.5200
vn -0.3413 0.9236 0.1744
vn -0.3386 0.9236 0.1795
vn -0.4987 0.8430 -0.2012
vn -0.6808 0.6935 0.2357
vn -0.6130 0.7680 -0.1852
vn -0.6147 0.7680 -0.1796
vn -0.4303 0.6987 -0.5715
vn -0.5902 0.7409 -0.3204
vn -0.2339 0.8005 -0.5518
vn -0.2392 0.8007 -0.5492
vn 0.1654 0.7128 -0.6816
vn -0.2933 0.6935 -0.6580
vn 0.1318 0.7680 -0.6267
vn 0.1260 0.7680 -0.6279
vn 0.5323 0.6987 -0.4779
vn 0.0538 0.7032 -0.7089
vn 0.4304 0.8073 -0.4036
vn 0.4256 0.8072 -0.4089
vn 0.7012 0.7129 0.0010
vn 0.6066 0.6434 -0.4670
vn 0.6720 0.7401 0.0226
vn 0.4594 0.8882 0.0077
vn 0.4928 0.7196 -0.4892
vn 0.2050 0.9787 -0.0130
vn 0.4550 0.7272 0.5139
vn 0.5672 0.6494 0.5064
vn 0.7120 0.6914 0.1225
vn 0.3924 0.7721 0.4999
vn 0.3979 0.7723 0.4952
vn -0.0257 0.6588 0.7518
vn 0.5174 0.6434 0.5642
vn 0.0353 0.7401 0.6715
vn 0.0425 0.7401 0.6712
vn -0.4558 0.6494 0.6087
vn 0.0374 0.7917 0.6098
vn -0.3237 0.9000 0.2919
vn -0.1908 0.9659 0.1748
vn 0.1290 0.8279 0.5459
vn -0.0333 0.9983 0.0470
vn -0.5341 0.8267 -0.1766
vn -0.6061 0.7894 -0.0969
vn -0.6066 0.6434 0.4670
vn -0.6720 0.7401 -0.0226
vn -0.6723 0.7401 -0.0153
vn -0.5672 0.6494 -0.5064
vn -0.7120 0.6914 -0.1225
vn -0.3924 0.7721 -0.4999
vn -0.3979 0.7723 -0.4952
vn 0.0257 0.6588 -0.7518
vn -0.5174 0.6434 -0.5642
vn -0.0353 0.7401 -0.6715
vn -0.0425 0.7401 -0.6712
vn 0.4558 0.6494 -0.6087
vn -0.4652 0.6386 -0.6129
vn 0.1615 0.8110 -0.5622
vn 0.1516 0.8110 -0.5651
vn 0.7196 0.6386 -0.2725
vn 0.2115 0.5275 -0.8227
vn 0.6445 0.6707 -0.3670
vn 0.6393 0.6706 -0.3761
vn 0.8095 0.5351 0.2413
vn 0.7201 0.5734 -0.3906
vn 0.6730 0.6990 0.2418
vn 0.6762 0.6993 0.2318
vn 0.3446 0.5324 0.7732
vn 0.8379 0.5275 0.1400
vn 0.4210 0.6707 0.6106
vn 0.4296 0.6706 0.6046
vn -0.1708 0.5351 0.8273
vn 0.4652 0.6386 0.6129
vn -0.1615 0.8110 0.5622
vn -0.1516 0.8110 0.5651
vn -0.7196 0.6386 0.2725
vn -0.2115 0.5275 0.8227
vn -0.6445 0.6707 0.3670
vn -0.6393 0.6706 0.3761
vn -0.8095 0.5351 -0.2413
vn -0.7201 0.5734 0.3906
vn -0.6730 0.6990 -0.2418
vn -0.6762 0.6993 -0.2318
vn -0.3446 0.5324 -0.7732
vn -0.8379 0.5275 -0.1400
vn -0.4210 0.6707 -0.6106
vn -0.4296 0.6706 -0.6046
vn 0.1708 0.5351 -0.8273
vn -0.6503 0.5905 -0.4779
vn 0.0052 0.7808 -0.6247
vn -0.0063 0.7808 -0.6247
vn 0.6581 0.5905 -0.4670
vn -0.0454 0.4885 -0.8714
vn 0.5383 0.6455 -0.5419
vn 0.5300 0.6453 -0.5501
vn 0.8668 0.4965 0.0444
vn 0.5889 0.5332 -0.6073
vn 0.7389 0.6717 0.0526
vn 0.7393 0.6721 0.0410
vn 0.5363 0.4897 0.6874
vn 0.8642 0.4885 -0.1202
vn 0.5861 0.6455 0.4897
vn 0.5936 0.6453 0.4808
vn 0.0302 0.4965 0.8675
vn 0.6503 0.5905 0.4779
vn -0.0052 0.7808 0.6247
vn 0.0063 0.7808 0.6247
vn -0.6581 0.5905 0.4670
vn 0.0454 0.4885 0.8714
vn -0.5383 0.6455 0.5419
vn -0.5300 0.6453 0.5501
vn -0.8668 0.4965 -0.0444
vn -0.5889 0.5332 0.6073
vn -0.7389 0.6717 -0.0526
vn -0.5727 0.8180 -0.0527
vn -0.4851 0.6004 0.6357
vn -0.3263 0.9452 -0.0135
vn -0.4443 0.5505 -0.7067
vn -0.5363 0.4897 -0.6874
vn -0.8642 0.4885 0.1202
vn -0.5861 0.6455 -0.4897
vn -0.5936 0.6453 -0.4808
vn -0.0302 0.4965 -0.8675
vn -0.7962 0.5175 -0.3134
vn -0.1502 0.7322 -0.6642
vn -0.1502 0.7322 -0.6643
vn -0.1633 0.7322 -0.6612
vn 0.5840 0.5175 -0.6254
vn -0.3182 0.4219 -0.8490
vn 0.4151 0.6108 -0.6742
vn 0.4025 0.6106 -0.6820
vn 0.8977 0.4308 -0.0923
vn 0.3995 0.4668 -0.7889
vn 0.7639 0.6330 -0.1253
vn 0.7611 0.6334 -0.1395
vn 0.6693 0.4189 0.6136
vn 0.8184 0.4219 -0.3900
vn 0.7074 0.6108 0.3556
vn 0.7140 0.6106 0.3424
vn 0.1691 0.4308 0.8864
vn 0.7962 0.5175 0.3134
vn 0.1502 0.7322 0.6643
vn 0.1633 0.7322 0.6612
vn -0.5840 0.5175 0.6254
vn 0.3182 0.4219 0.8490
vn -0.4151 0.6108 0.6742
vn -0.4025 0.6106 0.6820
vn -0.8977 0.4308 0.0923
vn -0.3995 0.4668 0.7889
vn -0.7639 0.6330 0.1253
vn -0.6809 0.7248 0.1048
vn -0.3265 0.5116 0.7947
vn -0.5314 0.8406 0.1046
vn -0.6137 0.4584 -0.6428
vn -0.6693 0.4189 -0.6136
vn -0.8184 0.4219 0.3900
vn -0.7074 0.6108 -0.3556
vn -0.7140 0.6106 -0.3424
vn -0.1691 0.4308 -0.8864
vn -0.8410 0.5175 -0.1579
vn -0.2725 0.7322 -0.6241
vn -0.2848 0.7322 -0.6187
vn 0.4558 0.5175 -0.7242
vn -0.4723 0.4219 -0.7739
vn 0.2807 0.6108 -0.7403
vn 0.2669 0.6106 -0.7455
vn 0.8643 0.4308 -0.2596
vn 0.2439 0.4668 -0.8500
vn 0.7266 0.6330 -0.2669
vn 0.7212 0.6334 -0.2803
vn 0.7729 0.4189 0.4766
vn 0.7304 0.4219 -0.5371
vn 0.7617 0.6108 0.2161
vn 0.7657 0.6106 0.2018
vn 0.3329 0.4308 0.8388
vn 0.8410 0.5175 0.1579
vn 0.2725 0.7322 0.6241
vn 0.2848 0.7322 0.6187
vn -0.4558 0.5175 0.7242
vn 0.4723 0.4219 0.7739
vn -0.2807 0.6108 0.7403
vn -0.2669 0.6106 0.7455
vn -0.8643 0.4308 0.2596
vn -0.2439 0.4668 0.8500
vn -0.7266 0.6330 0.2669
vn -0.7212 0.6334 0.2803
vn -0.7729 0.4189 -0.4766
vn -0.7304 0.4219 0.5371
vn -0.7617 0.6108 -0.2161
vn -0.7657 0.6106 -0.2018
vn -0.3329 0.4308 -0.8388
vn -0.7204 0.5175 -0.4617
vn -0.0186 0.7322 -0.6807
vn -0.0321 0.7322 -0.6803
vn 0.6941 0.5175 -0.5004
vn -0.0496 0.4668 0.8829
vn -0.6495 0.6330 0.4211
vn -0.6413 0.6334 0.4330
vn -0.8592 0.4189 -0.2937
vn -0.5934 0.4219 0.6855
vn -0.7906 0.6108 -0.0421
vn -0.7914 0.6106 -0.0273
vn -0.5104 0.4308 -0.7443
vn 0.8785 0.4219 -0.2241
vn 0.6251 0.6108 0.4859
vn 0.6342 0.6106 0.4742
vn -0.0058 0.4308 0.9024
usemtl frostland_tilesheet
s 1
f 82/268/58 85/269/59 84/270/59 87/271/58
f 87/271/58 84/270/59 86/272/60
f 86/272/60 84/270/59 88/273/61
f 88/273/61 84/270/59 85/269/59 83/274/61
f 89/275/62 92/276/63 91/277/63 94/278/62
f 94/278/62 91/277/63 93/279/64
f 93/279/64 91/277/63 95/280/65
f 95/280/65 91/277/63 92/276/63 90/281/65
f 96/282/66 99/283/67 98/284/67 101/285/66
f 101/285/66 98/284/67 100/286/68
f 100/286/68 98/284/67 102/287/69
f 102/287/69 98/284/67 99/283/67 97/288/69
f 103/289/70 106/290/71 105/291/71 108/292/70
f 108/292/70 105/291/71 107/293/72
f 107/293/72 105/291/71 109/294/73
f 109/294/73 105/291/71 106/290/71 104/295/73
f 110/296/74 113/297/75 112/298/75 115/299/74
f 115/299/74 112/298/75 114/300/76
f 114/300/76 112/298/75 116/301/77
f 116/301/77 112/298/75 113/297/75 111/302/77
f 117/303/78 120/304/79 119/305/79 122/306/78
f 122/306/78 119/305/79 121/307/80
f 121/307/80 119/305/79 123/308/81
f 123/308/81 119/305/79 120/304/79 118/309/81
f 124/310/82 127/311/83 126/312/83 129/313/82
f 129/313/82 126/312/83 128/314/84
f 128/314/84 126/312/83 130/315/85
f 130/315/85 126/312/83 127/311/83 125/316/85
f 131/317/86 134/318/87 133/319/87 136/320/86
f 136/320/86 133/319/87 135/321/88
f 135/321/88 133/319/87 137/322/89
f 137/322/89 133/319/87 134/318/87 132/323/89
f 138/324/90 141/325/91 140/326/91 143/327/90
f 143/327/90 140/326/91 142/328/92
f 142/328/92 140/326/91 144/329/93
f 144/329/93 140/326/91 141/325/91 139/330/93
f 145/331/94 148/332/95 147/333/95 150/334/94
f 150/334/94 147/333/95 149/335/96
f 149/335/96 147/333/95 151/336/97
f 151/336/97 147/333/95 148/332/95 146/337/97
f 152/338/98 155/339/99 154/340/99 157/341/98
f 157/341/98 154/340/99 156/342/100
f 156/342/100 154/340/99 158/343/101
f 158/343/101 154/340/99 155/339/99 153/344/101
f 159/345/102 162/346/103 161/347/103 164/348/102
f 164/348/102 161/347/103 163/349/104
f 163/349/104 161/347/103 165/350/105
f 165/350/105 161/347/103 162/346/103 160/351/105
f 166/352/106 169/353/107 168/354/107 171/355/106
f 171/355/106 168/354/107 170/356/108
f 170/356/108 168/354/107 172/357/109
f 172/357/109 168/354/107 169/353/107 167/358/109
f 173/359/110 176/360/111 175/361/111 178/362/110
f 178/362/110 175/361/111 177/363/112
f 177/363/112 175/361/111 179/364/113
f 179/364/113 175/361/111 176/360/111 174/365/113
f 180/366/114 183/367/115 182/368/115 185/369/114
f 185/369/114 182/368/115 184/370/116
f 184/370/116 182/368/115 186/371/117
f 186/371/117 182/368/115 183/367/115 181/372/117
f 187/373/118 190/374/119 189/375/119 192/376/118
f 192/376/118 189/375/119 191/377/120
f 191/377/120 189/375/119 193/378/121
f 193/378/121 189/375/119 190/374/119 188/379/121
f 194/380/122 197/381/123 196/382/123 199/383/122
f 199/383/122 196/382/123 198/384/124
f 198/384/124 196/382/123 200/385/125
f 200/385/125 196/382/123 197/381/123 195/386/125
f 201/387/126 204/388/127 203/389/127 206/390/126
f 206/390/126 203/389/127 205/391/128
f 205/391/128 203/389/127 207/392/129
f 207/392/129 203/389/127 204/388/127 202/393/129
f 208/394/130 211/395/131 210/396/131 213/397/130
f 213/397/130 210/396/131 212/398/132
f 212/398/132 210/396/131 214/399/133
f 214/399/133 210/396/131 211/395/131 209/400/133
f 215/401/134 218/402/135 217/403/135 220/404/134
f 220/404/134 217/403/135 219/405/136
f 219/405/136 217/403/135 221/406/137
f 221/406/137 217/403/135 218/402/135 216/407/137
f 222/408/138 225/409/139 224/410/139 227/411/138
f 227/411/138 224/410/139 226/412/140
f 226/412/140 224/410/139 228/413/141
f 228/413/141 224/410/139 225/409/139 223/414/141
f 229/415/142 232/416/143 231/417/143 234/418/142
f 234/418/142 231/417/143 233/419/144
f 233/419/144 231/417/143 235/420/145
f 235/420/145 231/417/143 232/416/143 230/421/145
f 236/422/146 239/423/147 238/424/147 241/425/146
f 241/425/146 238/424/147 240/426/148
f 240/426/148 238/424/147 242/427/149
f 242/427/149 238/424/147 239/423/147 237/428/149
f 243/429/150 246/430/151 245/431/151 248/432/150
f 248/432/150 245/431/151 247/433/152
f 247/433/152 245/431/151 249/434/153
f 249/434/153 245/431/151 246/430/151 244/435/153
f 250/436/154 253/437/155 252/438/155 255/439/154
f 255/439/154 252/438/155 254/440/156
f 254/440/156 252/438/155 256/441/157
f 256/441/157 252/438/155 253/437/155 251/442/157
f 257/443/158 260/444/159 259/445/159 262/446/158
f 262/446/158 259/445/159 261/447/160
f 261/447/160 259/445/159 263/448/161
f 263/448/161 259/445/159 260/444/159 258/449/161
f 264/450/162 267/451/163 266/452/163 269/453/162
f 269/453/162 266/452/163 268/454/164
f 268/454/164 266/452/163 270/455/165
f 270/455/165 266/452/163 267/451/163 265/456/165
f 271/457/166 274/458/167 273/459/167 276/460/166
f 276/460/166 273/459/167 275/461/168
f 275/461/168 273/459/167 277/462/169
f 277/462/169 273/459/167 274/458/167 272/463/169
f 278/464/170 281/465/171 280/466/171 283/467/170
f 283/467/170 280/466/171 282/468/172
f 282/468/172 280/466/171 284/469/173
f 284/469/173 280/466/171 281/465/171 279/470/173
f 285/471/174 288/472/175 287/473/175 290/474/174
f 290/474/174 287/473/175 289/475/176
f 289/475/176 287/473/175 291/476/177
f 291/476/177 287/473/175 288/472/175 286/477/177
f 292/478/178 295/479/179 294/480/179 297/481/178
f 297/481/178 294/480/179 296/482/180
f 296/482/180 294/480/179 298/483/181
f 298/483/181 294/480/179 295/479/179 293/484/181
f 299/485/182 302/486/183 301/487/183 304/488/182
f 304/488/182 301/487/183 303/489/184
f 303/489/184 301/487/183 305/490/185
f 305/490/185 301/487/183 302/486/183 300/491/185
f 306/492/186 309/493/187 308/494/187 311/495/186
f 311/495/186 308/494/187 310/496/188
f 310/496/188 308/494/187 312/497/189
f 312/497/189 308/494/187 309/493/187 307/498/189
f 313/499/190 316/500/191 315/501/191 318/502/190
f 318/502/190 315/501/191 317/503/192
f 317/503/192 315/501/191 319/504/193
f 319/504/193 315/501/191 316/500/191 314/505/193
f 320/506/194 323/507/195 322/508/195 325/509/194
f 325/509/194 322/508/195 324/510/196
f 324/510/196 322/508/195 326/511/197
f 326/511/197 322/508/195 323/507/195 321/512/197
f 327/513/198 330/514/199 329/515/199 332/516/198
f 332/516/198 329/515/199 331/517/200
f 331/517/200 329/515/199 333/518/201
f 333/518/201 329/515/199 330/514/199 328/519/201
f 334/520/202 337/521/203 336/522/203 339/523/202
f 339/523/202 336/522/203 338/524/204
f 338/524/204 336/522/203 340/525/205
f 340/525/205 336/522/203 337/521/203 335/526/205
f 341/527/206 344/528/207 343/529/207 346/530/206
f 346/530/206 343/529/207 345/531/208
f 345/531/208 343/529/207 347/532/209
f 347/532/209 343/529/207 344/528/207 342/533/209
f 348/534/210 351/535/211 350/536/211 353/537/210
f 353/537/210 350/536/211 352/538/212
f 352/538/212 350/536/211 354/539/213
f 354/539/213 350/536/211 351/535/211 349/540/213
f 355/541/214 358/542/215 357/543/215 360/544/214
f 360/544/214 357/543/215 359/545/216
f 359/545/216 357/543/215 361/546/217
f 361/546/217 357/543/215 358/542/215 356/547/217
f 362/548/218 365/549/219 364/550/219 367/551/218
f 367/551/218 364/550/219 366/552/220
f 366/552/220 364/550/219 368/553/221
f 368/553/221 364/550/219 365/549/219 363/554/221
f 369/555/222 372/556/223 371/557/224 374/558/225
f 374/558/225 371/557/224 373/559/226
f 373/559/226 371/557/224 375/560/227
f 375/560/227 371/557/224 372/556/223 370/561/228
f 376/562/229 379/563/230 378/564/230 381/565/229
f 381/565/229 378/564/230 380/566/231
f 380/566/231 378/564/230 382/567/232
f 382/567/232 378/564/230 379/563/230 377/568/232
f 383/569/233 386/570/234 385/571/234 388/572/233
f 388/572/233 385/571/234 387/573/235
f 387/573/235 385/571/234 389/574/236
f 389/574/236 385/571/234 386/570/234 384/575/236
f 390/576/237 393/577/238 392/578/238 395/579/237
f 395/579/237 392/578/238 394/580/239
f 394/580/239 392/578/238 396/581/240
f 396/581/240 392/578/238 393/577/238 391/582/240
f 397/583/241 400/584/242 399/585/242 402/586/241
f 402/586/241 399/585/242 401/587/243
f 401/587/243 399/585/242 403/588/244
f 403/588/244 399/585/242 400/584/242 398/589/244
f 404/590/245 407/591/246 406/592/246 409/593/245
f 409/593/245 406/592/246 408/594/247
f 408/594/247 406/592/246 410/595/248
f 410/595/248 406/592/246 407/591/246 405/596/248
f 411/597/249 414/598/250 413/599/250 416/600/249
f 416/600/249 413/599/250 415/601/251
f 415/601/251 413/599/250 417/602/252
f 417/602/252 413/599/250 414/598/250 412/603/252
f 418/604/218 421/605/219 420/606/219 423/607/218
f 423/607/218 420/606/219 422/608/220
f 422/608/220 420/606/219 424/609/221
f 424/609/221 420/606/219 421/605/219 419/610/221
f 425/611/222 428/612/223 427/613/253 430/614/254
f 430/614/254 427/613/253 429/615/255
f 429/615/255 427/613/253 431/616/256
f 431/616/256 427/613/253 428/612/223 426/617/228
f 432/618/229 435/619/230 434/620/230 437/621/229
f 437/621/229 434/620/230 436/622/231
f 436/622/231 434/620/230 438/623/232
f 438/623/232 434/620/230 435/619/230 433/624/232
f 439/625/257 442/626/258 441/627/258 444/628/257
f 444/628/257 441/627/258 443/629/259
f 443/629/259 441/627/258 445/630/260
f 445/630/260 441/627/258 442/626/258 440/631/260
f 446/632/237 449/633/238 448/634/261 451/635/262
f 451/635/262 448/634/261 450/636/263
f 450/636/263 448/634/261 452/637/264
f 452/637/264 448/634/261 449/633/238 447/638/240
f 453/639/241 456/640/242 455/641/242 458/642/241
f 458/642/241 455/641/242 457/643/243
f 457/643/243 455/641/242 459/644/244
f 459/644/244 455/641/242 456/640/242 454/645/244
f 460/646/245 463/647/246 462/648/246 465/649/245
f 465/649/245 462/648/246 464/650/247
f 464/650/247 462/648/246 466/651/248
f 466/651/248 462/648/246 463/647/246 461/652/248
f 467/653/249 470/654/250 469/655/250 472/656/249
f 472/656/249 469/655/250 471/657/251
f 471/657/251 469/655/250 473/658/252
f 473/658/252 469/655/250 470/654/250 468/659/252
f 474/660/265 477/661/266 476/662/266 479/663/265
f 479/663/265 476/662/266 478/664/267
f 478/664/267 476/662/266 480/665/268
f 480/665/268 476/662/266 477/661/266 475/666/268
f 481/667/269 484/668/270 483/669/270 486/670/269
f 486/670/269 483/669/270 485/671/271
f 485/671/271 483/669/270 487/672/272
f 487/672/272 483/669/270 484/668/270 482/673/272
f 488/674/273 491/675/274 490/676/274 493/677/273
f 493/677/273 490/676/274 492/678/275
f 492/678/275 490/676/274 494/679/276
f 494/679/276 490/676/274 491/675/274 489/680/276
f 495/681/277 498/682/278 497/683/278 500/684/277
f 500/684/277 497/683/278 499/685/279
f 499/685/279 497/683/278 501/686/280
f 501/686/280 497/683/278 498/682/278 496/687/280
f 502/688/281 505/689/282 504/690/282 507/691/281
f 507/691/281 504/690/282 506/692/283
f 506/692/283 504/690/282 508/693/284
f 508/693/284 504/690/282 505/689/282 503/694/284
f 509/695/285 512/696/286 511/697/286 514/698/285
f 514/698/285 511/697/286 513/699/287
f 513/699/287 511/697/286 515/700/288
f 515/700/288 511/697/286 512/696/286 510/701/288
f 516/702/289 519/703/290 518/704/290 521/705/289
f 521/705/289 518/704/290 520/706/291
f 520/706/291 518/704/290 522/707/292
f 522/707/292 518/704/290 519/703/290 517/708/292
f 523/709/293 526/710/294 525/711/294 528/712/293
f 528/712/293 525/711/294 527/713/295
f 527/713/295 525/711/294 529/714/296
f 529/714/296 525/711/294 526/710/294 524/715/296
f 530/716/297 533/717/298 532/718/298 535/719/297
f 535/719/297 532/718/298 534/720/299
f 534/720/299 532/718/298 536/721/300
f 536/721/300 532/718/298 533/717/298 531/722/300
f 537/723/301 540/724/302 539/725/303 542/726/304
f 542/726/304 539/725/303 541/727/305
f 541/727/305 539/725/303 543/728/306
f 543/728/306 539/725/303 540/724/302 538/729/307
f 544/730/308 547/731/309 546/732/309 549/733/308
f 549/733/308 546/732/309 548/734/310
f 548/734/310 546/732/309 550/735/311
f 550/735/311 546/732/309 547/731/309 545/736/311
f 551/737/312 554/738/313 553/739/313 556/740/312
f 556/740/312 553/739/313 555/741/314
f 555/741/314 553/739/313 557/742/315
f 557/742/315 553/739/313 554/738/313 552/743/315
f 558/744/316 561/745/317 560/746/318 563/747/319
f 563/747/319 560/746/318 562/748/320
f 562/748/320 560/746/318 564/749/321
f 564/749/321 560/746/318 561/745/317 559/750/322
f 565/751/323 568/752/324 567/753/324 570/754/323
f 570/754/323 567/753/324 569/755/325
f 569/755/325 567/753/324 571/756/326
f 571/756/326 567/753/324 568/752/324 566/757/326
f 572/758/327 575/759/328 574/760/328 577/761/327
f 577/761/327 574/760/328 576/762/329
f 576/762/329 574/760/328 578/763/330
f 578/763/330 574/760/328 575/759/328 573/764/330
f 579/765/331 582/766/332 581/767/332 584/768/331
f 584/768/331 581/767/332 583/769/333
f 583/769/333 581/767/332 585/770/334
f 585/770/334 581/767/332 582/766/332 580/771/334
f 586/772/335 589/773/336 588/774/336 591/775/335
f 591/775/335 588/774/336 590/776/337
f 590/776/337 588/774/336 592/777/338
f 592/777/338 588/774/336 589/773/336 587/778/338
f 593/779/339 596/780/340 595/781/340 598/782/339
f 598/782/339 595/781/340 597/783/341
f 597/783/341 595/781/340 599/784/342
f 599/784/342 595/781/340 596/780/340 594/785/342
f 600/786/343 603/787/344 602/788/344 605/789/343
f 605/789/343 602/788/344 604/790/345
f 604/790/345 602/788/344 606/791/346
f 606/791/346 602/788/344 603/787/344 601/792/346
f 607/793/347 610/794/348 609/795/348 612/796/347
f 612/796/347 609/795/348 611/797/349
f 611/797/349 609/795/348 613/798/350
f 613/798/350 609/795/348 610/794/348 608/799/350
f 614/800/351 617/801/352 616/802/352 619/803/351
f 619/803/351 616/802/352 618/804/353
f 618/804/353 616/802/352 620/805/354
f 620/805/354 616/802/352 617/801/352 615/806/354
f 621/807/355 624/808/356 623/809/356 626/810/355
f 626/810/355 623/809/356 625/811/357
f 625/811/357 623/809/356 627/812/358
f 627/812/358 623/809/356 624/808/356 622/813/358
f 628/814/359 631/815/360 630/816/360 633/817/359
f 633/817/359 630/816/360 632/818/361
f 632/818/361 630/816/360 634/819/362
f 634/819/362 630/816/360 631/815/360 629/820/362
f 635/821/363 638/822/364 637/823/364 640/824/363
f 640/824/363 637/823/364 639/825/365
f 639/825/365 637/823/364 641/826/366
f 641/826/366 637/823/364 638/822/364 636/827/366
f 642/828/367 645/829/368 644/830/368 647/831/367
f 647/831/367 644/830/368 646/832/369
f 646/832/369 644/830/368 648/833/370
f 648/833/370 644/830/368 645/829/368 643/834/370
f 649/835/371 652/836/372 651/837/372 654/838/371
f 654/838/371 651/837/372 653/839/373
f 653/839/373 651/837/372 655/840/374
f 655/840/374 651/837/372 652/836/372 650/841/374
f 656/842/375 659/843/376 658/844/376 661/845/375
f 661/845/375 658/844/376 660/846/377
f 660/846/377 658/844/376 662/847/378
f 662/847/378 658/844/376 659/843/376 657/848/378
f 663/849/379 666/850/380 665/851/380 668/852/379
f 668/852/379 665/851/380 667/853/381
f 667/853/381 665/851/380 669/854/382
f 669/854/382 665/851/380 666/850/380 664/855/382
f 670/856/383 673/857/384 672/858/384 675/859/383
f 675/859/383 672/858/384 674/860/385
f 674/860/385 672/858/384 676/861/386
f 676/861/386 672/858/384 673/857/384 671/862/386
f 677/863/387 680/864/388 679/865/388 682/866/387
f 682/866/387 679/865/388 681/867/389
f 681/867/389 679/865/388 683/868/390
f 683/868/390 679/865/388 680/864/388 678/869/390
f 684/870/391 687/871/392 686/872/393 689/873/394
f 689/873/394 686/872/393 688/874/395
f 688/874/395 686/872/393 690/875/396
f 690/875/396 686/872/393 687/871/392 685/876/397
f 691/877/398 694/878/399 693/879/399 696/880/398
f 696/880/398 693/879/399 695/881/400
f 695/881/400 693/879/399 697/882/401
f 697/882/401 693/879/399 694/878/399 692/883/401
f 698/884/402 701/885/403 700/886/404 703/887/402
f 703/887/402 700/886/404 702/888/405
f 702/888/405 700/886/404 704/889/406
f 704/889/406 700/886/404 701/885/403 699/890/406
f 705/891/407 708/892/408 707/893/408 710/894/407
f 710/894/407 707/893/408 709/895/409
f 709/895/409 707/893/408 711/896/410
f 711/896/410 707/893/408 708/892/408 706/897/410
f 712/898/411 715/899/412 714/900/412 717/901/411
f 717/901/411 714/900/412 716/902/413
f 716/902/413 714/900/412 718/903/414
f 718/903/414 714/900/412 715/899/412 713/904/414
f 719/905/415 722/906/416 721/907/416 724/908/415
f 724/908/415 721/907/416 723/909/417
f 723/909/417 721/907/416 725/910/418
f 725/910/418 721/907/416 722/906/416 720/911/418
f 726/912/419 729/913/420 728/914/420 731/915/419
f 731/915/419 728/914/420 730/916/421
f 730/916/421 728/914/420 732/917/422
f 732/917/422 728/914/420 729/913/420 727/918/422
f 733/919/423 736/920/424 735/921/424 738/922/423
f 738/922/423 735/921/424 737/923/425
f 737/923/425 735/921/424 739/924/426
f 739/924/426 735/921/424 736/920/424 734/925/426
f 740/926/427 743/927/428 742/928/429 745/929/430
f 745/929/430 742/928/429 744/930/431
f 744/930/431 742/928/429 746/931/432
f 746/931/432 742/928/429 743/927/428 741/932/433
f 747/933/434 750/934/435 749/935/435 752/936/434
f 752/936/434 749/935/435 751/937/436
f 751/937/436 749/935/435 753/938/437
f 753/938/437 749/935/435 750/934/435 748/939/437
f 754/940/438 757/941/439 756/942/439 759/943/438
f 759/943/438 756/942/439 758/944/440
f 758/944/440 756/942/439 760/945/441
f 760/945/441 756/942/439 757/941/439 755/946/441
f 761/947/442 764/948/443 763/949/443 766/950/442
f 766/950/442 763/949/443 765/951/444
f 765/951/444 763/949/443 767/952/445
f 767/952/445 763/949/443 764/948/443 762/953/445
f 768/954/446 771/955/447 770/956/447 773/957/446
f 773/957/446 770/956/447 772/958/448
f 772/958/448 770/956/447 774/959/449
f 774/959/449 770/956/447 771/955/447 769/960/449
f 775/961/450 778/962/451 777/963/451 780/964/450
f 780/964/450 777/963/451 779/965/452
f 779/965/452 777/963/451 781/966/453
f 781/966/453 777/963/451 778/962/451 776/967/453
f 782/968/454 785/969/455 784/970/455 787/971/454
f 787/971/454 784/970/455 786/972/456
f 786/972/456 784/970/455 788/973/457
f 788/973/457 784/970/455 785/969/455 783/974/457
f 789/975/458 792/976/459 791/977/459 794/978/458
f 794/978/458 791/977/459 793/979/460
f 793/979/460 791/977/459 795/980/461
f 795/980/461 791/977/459 792/976/459 790/981/461
f 796/982/462 799/983/463 798/984/463 801/985/462
f 801/985/462 798/984/463 800/986/464
f 800/986/464 798/984/463 802/987/465
f 802/987/465 798/984/463 799/983/463 797/988/465
f 803/989/466 806/990/467 805/991/467 808/992/466
f 808/992/466 805/991/467 807/993/468
f 807/993/468 805/991/467 809/994/469
f 809/994/469 805/991/467 806/990/467 804/995/469
f 810/996/470 813/997/471 812/998/471 815/999/470
f 815/999/470 812/998/471 814/1000/472
f 814/1000/472 812/998/471 816/1001/473
f 816/1001/473 812/998/471 813/997/471 811/1002/473
f 817/1003/474 820/1004/475 819/1005/475 822/1006/474
f 822/1006/474 819/1005/475 821/1007/476
f 821/1007/476 819/1005/475 823/1008/477
f 823/1008/477 819/1005/475 820/1004/475 818/1009/477
f 824/1010/478 827/1011/479 826/1012/479 829/1013/478
f 829/1013/478 826/1012/479 828/1014/480
f 828/1014/480 826/1012/479 830/1015/481
f 830/1015/481 826/1012/479 827/1011/479 825/1016/481
f 831/1017/482 834/1018/483 833/1019/483 836/1020/482
f 836/1020/482 833/1019/483 835/1021/484
f 835/1021/484 833/1019/483 837/1022/485
f 837/1022/485 833/1019/483 834/1018/483 832/1023/485
