# Blender v2.93.5 OBJ File: 'Frostlands.blend'
# www.blender.org
mtllib SM_Tree_02.mtl
o Cylinder.004_Cylinder.117
v -0.014203 0.000000 -0.222110
v -0.014203 1.847529 -0.194628
v 0.091451 0.000000 -0.178347
v 0.072018 1.847529 -0.158914
v 0.135214 0.000000 -0.072693
v 0.107732 1.847529 -0.072693
v 0.091451 0.000000 0.032960
v 0.072018 1.847529 0.013527
v -0.014203 0.000000 0.076723
v -0.014203 1.847529 0.049241
v -0.119856 0.000000 0.032960
v -0.100423 1.847529 0.013527
v -0.163619 0.000000 -0.072693
v -0.136137 1.847529 -0.072693
v -0.119856 0.000000 -0.178347
v -0.100423 1.847529 -0.158914
v -0.014203 3.662120 -0.134880
v 0.029770 3.662120 -0.116666
v 0.047984 3.662120 -0.072693
v 0.029770 3.662120 -0.028721
v -0.014203 3.662120 -0.010507
v -0.058176 3.662120 -0.028721
v -0.076390 3.662120 -0.072693
v -0.058176 3.662120 -0.116666
v -0.014203 4.636467 -0.072693
v 0.063493 2.754825 -0.150389
v 0.095675 2.754825 -0.072693
v -0.014203 2.754825 0.037185
v -0.091898 2.754825 0.005002
v -0.091898 2.754825 -0.150389
v -0.014203 2.754825 -0.182572
v 0.063493 2.754825 0.005002
v -0.124081 2.754825 -0.072693
v -0.014203 0.923765 -0.208369
v 0.081734 0.923765 -0.168631
v 0.121473 0.923765 -0.072693
v 0.081734 0.923765 0.023244
v -0.014203 0.923765 0.062982
v -0.110140 0.923765 0.023244
v -0.149878 0.923765 -0.072693
v -0.110140 0.923765 -0.168631
v 0.086593 0.461882 -0.173489
v 0.128344 0.461882 -0.072693
v 0.086593 0.461882 0.028102
v -0.014203 0.461882 0.069853
v -0.114998 0.461882 0.028102
v -0.156749 0.461882 -0.072693
v -0.114998 0.461882 -0.173489
v -0.014203 0.461882 -0.215240
v -0.014203 1.385647 -0.201498
v 0.076876 1.385647 -0.163772
v 0.114602 1.385647 -0.072693
v 0.076876 1.385647 0.018385
v -0.014203 1.385647 0.056111
v -0.105281 1.385647 0.018385
v -0.143008 1.385647 -0.072693
v -0.105281 1.385647 -0.163772
v 0.101704 2.301177 -0.072693
v -0.096161 2.301177 0.009265
v -0.014203 2.301177 -0.188600
v 0.067755 2.301177 0.009265
v -0.130109 2.301177 -0.072693
v 0.067755 2.301177 -0.154652
v -0.014203 2.301177 0.043213
v -0.096161 2.301177 -0.154652
v 0.059230 3.208472 -0.146126
v -0.014203 3.208472 0.031156
v -0.087636 3.208472 -0.146126
v 0.089647 3.208472 -0.072693
v -0.087636 3.208472 0.000740
v -0.014203 3.208472 -0.176543
v 0.059230 3.208472 0.000740
v -0.118053 3.208472 -0.072693
v -0.011077 4.619929 -0.075818
v -0.014201 4.619602 -0.077140
v -0.011068 4.619768 -0.069561
v -0.009789 4.619988 -0.072694
v -0.017334 4.619777 -0.075827
v -0.018642 4.619662 -0.072694
v -0.017340 4.619673 -0.069555
v -0.014201 4.619616 -0.068249
vt 0.001953 0.197266
vt 0.001953 0.240234
vt 0.013672 0.240234
vt 0.013672 0.197266
vt 0.001953 0.197266
vt 0.001953 0.240234
vt 0.013672 0.240234
vt 0.013672 0.197266
vt 0.001953 0.240234
vt 0.001953 0.197266
vt 0.013672 0.240234
vt 0.013672 0.197266
vt 0.001953 0.197266
vt 0.001953 0.240234
vt 0.013672 0.240234
vt 0.013672 0.197266
vt 0.001953 0.197266
vt 0.001953 0.240234
vt 0.013672 0.240234
vt 0.013672 0.197266
vt 0.003906 0.197266
vt 0.011719 0.197266
vt 0.011719 0.240234
vt 0.003906 0.240234
vt 0.001953 0.197266
vt 0.001953 0.240234
vt 0.013672 0.240234
vt 0.013672 0.197266
vt 0.001953 0.197266
vt 0.001953 0.240234
vt 0.013672 0.240234
vt 0.013672 0.197266
vt 0.750000 0.490000
vt 0.919706 0.419706
vt 0.990000 0.250000
vt 0.919706 0.080294
vt 0.750000 0.010000
vt 0.580294 0.080294
vt 0.510000 0.250000
vt 0.580294 0.419706
vt 0.000049 0.187549
vt 0.015576 0.187549
vt 0.015576 0.246781
vt 0.014789 0.246788
vt 0.003906 0.197266
vt 0.011719 0.197266
vt 0.011719 0.240234
vt 0.003906 0.240234
vt 0.003906 0.197266
vt 0.011719 0.197266
vt 0.011719 0.240234
vt 0.003906 0.240234
vt 0.003906 0.197266
vt 0.011719 0.197266
vt 0.011719 0.240234
vt 0.003906 0.240234
vt 0.011719 0.197266
vt 0.011719 0.240234
vt 0.003906 0.197266
vt 0.003906 0.240234
vt 0.000049 0.187549
vt 0.015576 0.187549
vt 0.015576 0.246778
vt 0.014788 0.246782
vt 0.000049 0.187549
vt 0.015576 0.187549
vt 0.015576 0.246801
vt 0.014789 0.246788
vt 0.000049 0.187549
vt 0.015576 0.187549
vt 0.015576 0.246777
vt 0.014791 0.246798
vt 0.000049 0.187549
vt 0.015576 0.187549
vt 0.000836 0.246788
vt 0.000049 0.246777
vt 0.000049 0.187549
vt 0.015576 0.187549
vt 0.000837 0.246782
vt 0.000049 0.246781
vt 0.000049 0.187549
vt 0.015576 0.187549
vt 0.000836 0.246788
vt 0.000049 0.246778
vt 0.000049 0.187549
vt 0.015576 0.187549
vt 0.000834 0.246798
vt 0.000049 0.246801
vt 0.013672 0.197266
vt 0.001953 0.197266
vt 0.003906 0.240234
vt 0.011719 0.240234
vt 0.013672 0.197266
vt 0.001953 0.197266
vt 0.003906 0.240234
vt 0.011719 0.240234
vt 0.013672 0.197266
vt 0.001953 0.197266
vt 0.003906 0.240234
vt 0.011719 0.240234
vt 0.013672 0.197266
vt 0.001953 0.197266
vt 0.003906 0.240234
vt 0.011719 0.240234
vt 0.013672 0.197266
vt 0.001953 0.197266
vt 0.003906 0.240234
vt 0.011719 0.240234
vt 0.013672 0.197266
vt 0.001953 0.197266
vt 0.003906 0.240234
vt 0.011719 0.240234
vt 0.013672 0.197266
vt 0.001953 0.197266
vt 0.003906 0.240234
vt 0.011719 0.240234
vt 0.013672 0.197266
vt 0.001953 0.197266
vt 0.003906 0.240234
vt 0.011719 0.240234
vt 0.001953 0.197266
vt 0.001953 0.240234
vt 0.013672 0.240234
vt 0.013672 0.197266
vt 0.001953 0.197266
vt 0.001953 0.240234
vt 0.013672 0.240234
vt 0.013672 0.197266
vt 0.001953 0.197266
vt 0.001953 0.240234
vt 0.013672 0.240234
vt 0.013672 0.197266
vt 0.001953 0.197266
vt 0.001953 0.240234
vt 0.013672 0.240234
vt 0.013672 0.197266
vt 0.001953 0.197266
vt 0.001953 0.240234
vt 0.013672 0.240234
vt 0.013672 0.197266
vt 0.013672 0.197266
vt 0.013672 0.240234
vt 0.001953 0.197266
vt 0.001953 0.240234
vt 0.001953 0.197266
vt 0.001953 0.240234
vt 0.013672 0.240234
vt 0.013672 0.197266
vt 0.015625 0.187500
vt 0.015625 0.230469
vt 0.031250 0.230469
vt 0.031250 0.187500
vt 0.015625 0.187500
vt 0.015625 0.230469
vt 0.031250 0.230469
vt 0.031250 0.187500
vt 0.015625 0.230469
vt 0.015625 0.187500
vt 0.031250 0.230469
vt 0.031250 0.187500
vt 0.015625 0.187500
vt 0.015625 0.230469
vt 0.031250 0.230469
vt 0.031250 0.187500
vt 0.015625 0.187500
vt 0.015625 0.230469
vt 0.031250 0.230469
vt 0.031250 0.187500
vt 0.015625 0.187500
vt 0.015625 0.230469
vt 0.031250 0.230469
vt 0.031250 0.187500
vt 0.015625 0.187500
vt 0.015625 0.230469
vt 0.031250 0.230469
vt 0.031250 0.187500
vt 0.001953 0.197266
vt 0.001953 0.240234
vt 0.013672 0.240234
vt 0.013672 0.197266
vt 0.001953 0.197266
vt 0.001953 0.240234
vt 0.013672 0.240234
vt 0.013672 0.197266
vt 0.001953 0.197266
vt 0.001953 0.240234
vt 0.013672 0.240234
vt 0.013672 0.197266
vt 0.001953 0.197266
vt 0.001953 0.240234
vt 0.013672 0.240234
vt 0.013672 0.197266
vt 0.001953 0.197266
vt 0.001953 0.240234
vt 0.013672 0.240234
vt 0.013672 0.197266
vt 0.013672 0.197266
vt 0.013672 0.240234
vt 0.003906 0.240234
vt 0.001953 0.197266
vt 0.001953 0.240234
vt 0.001953 0.197266
vt 0.001953 0.240234
vt 0.013672 0.240234
vt 0.013672 0.197266
vt 0.001953 0.197266
vt 0.013672 0.197266
vt 0.013672 0.240234
vt 0.001953 0.240234
vt 0.013672 0.197266
vt 0.001953 0.197266
vt 0.001953 0.240234
vt 0.013672 0.240234
vt 0.013672 0.197266
vt 0.001953 0.197266
vt 0.001953 0.240234
vt 0.013672 0.240234
vt 0.001953 0.197266
vt 0.001953 0.240234
vt 0.001953 0.197266
vt 0.013672 0.197266
vt 0.013672 0.240234
vt 0.001953 0.240234
vt 0.013672 0.197266
vt 0.001953 0.197266
vt 0.001953 0.240234
vt 0.013672 0.240234
vt 0.013672 0.197266
vt 0.013672 0.240234
vt 0.011719 0.197266
vt 0.003906 0.197266
vt 0.003906 0.240234
vt 0.011719 0.240234
vt 0.011719 0.197266
vt 0.003906 0.197266
vt 0.003906 0.240234
vt 0.011719 0.240234
vt 0.011719 0.197266
vt 0.003906 0.197266
vt 0.003906 0.240234
vt 0.011719 0.240234
vt 0.011719 0.197266
vt 0.003906 0.197266
vt 0.003906 0.240234
vt 0.011719 0.240234
vt 0.011719 0.197266
vt 0.003906 0.197266
vt 0.003906 0.240234
vt 0.011719 0.240234
vt 0.011719 0.197266
vt 0.003906 0.197266
vt 0.003906 0.240234
vt 0.011719 0.240234
vt 0.011719 0.197266
vt 0.003906 0.197266
vt 0.003906 0.240234
vt 0.011719 0.240234
vt 0.011719 0.197266
vt 0.003906 0.197266
vt 0.003906 0.240234
vt 0.011719 0.240234
vt 0.000000 0.000000
vt 0.000000 0.000000
vt 0.000000 0.000000
vt 0.000000 0.000000
vt 0.015576 0.249951
vt 0.000049 0.249951
vn 0.0000 0.0149 -0.9999
vn 0.0000 0.0141 -0.9999
vn 0.7070 0.0141 -0.7070
vn 0.7070 0.0149 -0.7070
vn 0.9999 0.0141 0.0000
vn 0.9999 0.0149 0.0000
vn 0.7070 0.0141 0.7070
vn 0.7070 0.0149 0.7070
vn 0.0000 0.0141 0.9999
vn 0.0000 0.0149 0.9999
vn -0.7070 0.0141 0.7070
vn -0.7070 0.0149 0.7070
vn -0.9999 0.0141 0.0000
vn -0.9999 0.0149 0.0000
vn 0.9986 0.0519 0.0000
vn 0.7061 0.0519 -0.7061
vn 0.7051 0.0761 -0.7050
vn 0.9971 0.0761 0.0000
vn -0.7070 0.0141 -0.7070
vn -0.7070 0.0149 -0.7070
vn 0.0000 -0.6247 -0.7809
vn 0.5522 -0.6247 -0.5522
vn 0.7809 -0.6247 0.0000
vn 0.5522 -0.6247 0.5522
vn 0.0000 -0.6247 0.7809
vn -0.5522 -0.6247 0.5522
vn -0.7809 -0.6247 0.0000
vn -0.5522 -0.6247 -0.5522
vn -0.7050 0.0761 -0.7050
vn -0.9971 0.0761 0.0000
vn -0.9881 0.1538 0.0010
vn -0.6977 0.1581 -0.6987
vn -0.7061 0.0519 0.7061
vn 0.0000 0.0519 0.9986
vn 0.0000 0.0761 0.9971
vn -0.7050 0.0761 0.7050
vn 0.0000 0.0519 -0.9986
vn -0.7061 0.0519 -0.7061
vn 0.0000 0.0761 -0.9971
vn 0.7061 0.0519 0.7061
vn 0.7051 0.0761 0.7050
vn -0.9986 0.0519 0.0000
vn -0.0009 0.1528 0.9882
vn -0.6981 0.1556 0.6988
vn 0.9706 -0.2404 -0.0083
vn 0.7138 0.0172 0.7001
vn 0.0142 0.0135 -0.9998
vn 0.7002 -0.2423 -0.6716
vn -0.7070 0.0133 -0.7070
vn -0.9999 0.0133 0.0000
vn 0.0000 0.0133 0.9999
vn 0.7070 0.0133 0.7070
vn -0.7070 0.0133 0.7070
vn 0.9999 0.0133 0.0000
vn 0.7070 0.0133 -0.7070
vn 0.0000 0.0133 -0.9999
vn -0.0012 1.0000 0.0004
usemtl Material.002
s 1
f 50/1/1 2/2/2 4/3/3 51/4/4
f 51/5/4 4/6/3 6/7/5 52/8/6
f 52/8/6 6/7/5 8/9/7 53/10/8
f 53/10/8 8/9/7 10/11/9 54/12/10
f 54/13/10 10/14/9 12/15/11 55/16/12
f 55/17/12 12/18/11 14/19/13 56/20/14
f 69/21/15 66/22/16 18/23/17 19/24/18
f 56/25/14 14/26/13 16/27/19 57/28/20
f 57/29/20 16/30/19 2/31/2 50/32/1
f 1/33/21 3/34/22 5/35/23 7/36/24 9/37/25 11/38/26 13/39/27 15/40/28
f 24/41/29 23/42/30 79/43/31 78/44/32
f 70/45/33 67/46/34 21/47/35 22/48/36
f 71/49/37 68/50/38 24/51/29 17/52/39
f 66/22/16 71/49/37 17/52/39 18/23/17
f 72/53/40 69/54/15 19/55/18 20/56/41
f 73/57/42 70/45/33 22/48/36 23/58/30
f 67/46/34 72/53/40 20/56/41 21/47/35
f 68/59/38 73/57/42 23/58/30 24/60/29
f 22/61/36 21/62/35 81/63/43 80/64/44
f 20/65/41 19/66/18 77/67/45 76/68/46
f 18/69/17 17/70/39 75/71/47 74/72/48
f 17/73/39 24/74/29 78/75/32 75/76/47
f 23/77/30 22/78/36 80/79/44 79/80/31
f 21/81/35 20/82/41 76/83/46 81/84/43
f 19/85/18 18/86/17 74/87/48 77/88/45
f 65/89/49 62/90/50 33/91/50 30/92/49
f 64/93/51 61/94/52 32/95/52 28/96/51
f 62/97/50 59/98/53 29/99/53 33/100/50
f 61/101/52 58/102/54 27/103/54 32/104/52
f 63/105/55 60/106/56 31/107/56 26/108/55
f 60/109/56 65/110/49 30/111/49 31/112/56
f 59/113/53 64/114/51 28/115/51 29/116/53
f 58/117/54 63/118/55 26/119/55 27/120/54
f 48/121/20 41/122/20 34/123/1 49/124/1
f 47/125/14 40/126/14 41/127/20 48/128/20
f 46/129/12 39/130/12 40/131/14 47/132/14
f 45/133/10 38/134/10 39/135/12 46/136/12
f 44/137/8 37/138/8 38/139/10 45/140/10
f 43/141/6 36/142/6 37/138/8 44/137/8
f 42/143/4 35/144/4 36/142/6 43/141/6
f 49/145/1 34/146/1 35/147/4 42/148/4
f 1/149/21 49/150/1 42/151/4 3/152/22
f 3/153/22 42/154/4 43/155/6 5/156/23
f 5/156/23 43/155/6 44/157/8 7/158/24
f 7/158/24 44/157/8 45/159/10 9/160/25
f 9/161/25 45/162/10 46/163/12 11/164/26
f 11/165/26 46/166/12 47/167/14 13/168/27
f 13/169/27 47/170/14 48/171/20 15/172/28
f 15/173/28 48/174/20 49/175/1 1/176/21
f 41/177/20 57/178/20 50/179/1 34/180/1
f 40/181/14 56/182/14 57/183/20 41/184/20
f 39/185/12 55/186/12 56/187/14 40/188/14
f 38/189/10 54/190/10 55/191/12 39/192/12
f 37/193/8 53/194/8 54/195/10 38/196/10
f 36/197/6 52/198/6 53/199/8 37/193/8
f 35/200/4 51/201/4 52/198/6 36/197/6
f 34/202/1 50/203/1 51/204/4 35/205/4
f 6/206/5 4/207/3 63/208/55 58/209/54
f 12/210/11 10/211/9 64/212/51 59/213/53
f 2/214/2 16/215/19 65/216/49 60/217/56
f 4/218/3 2/214/2 60/217/56 63/219/55
f 8/220/7 6/221/5 58/222/54 61/223/52
f 14/224/13 12/225/11 59/226/53 62/227/50
f 10/228/9 8/220/7 61/223/52 64/229/51
f 16/215/19 14/224/13 62/227/50 65/216/49
f 30/230/49 33/231/50 73/232/42 68/233/38
f 28/234/51 32/235/52 72/236/40 67/237/34
f 33/238/50 29/239/53 70/240/33 73/241/42
f 32/242/52 27/243/54 69/244/15 72/245/40
f 26/246/55 31/247/56 71/248/37 66/249/16
f 31/250/56 30/251/49 68/252/38 71/253/37
f 29/254/53 28/255/51 67/256/34 70/257/33
f 27/258/54 26/259/55 66/260/16 69/261/15
f 74/262/48 77/263/45 76/264/46 75/265/47
f 74/72/48 75/71/47 25/266/57
f 77/88/45 74/87/48 25/267/57
f 76/68/46 77/67/45 25/266/57
f 78/44/32 79/43/31 25/266/57
f 75/76/47 78/75/32 25/267/57
f 81/84/43 76/83/46 25/267/57
f 80/64/44 81/63/43 25/266/57
f 79/80/31 80/79/44 25/267/57
o Cylinder.005_Cylinder.118
v 0.042557 2.231103 0.125127
v -0.243687 2.237313 -0.122806
v -0.513429 1.928190 0.470156
v -0.119812 2.341031 0.026057
v -0.633957 1.801775 0.606141
v -0.353373 1.815835 0.571836
v -0.634990 1.826898 0.318682
v -0.162256 1.179324 -0.201705
v 0.141088 1.172942 -0.091157
v 0.184520 0.937491 -0.673321
v -0.003665 1.284157 -0.162538
v 0.242144 0.831340 -0.829726
v 0.027035 0.830620 -0.715489
v 0.328167 0.828313 -0.598938
v -0.030495 1.167496 -0.262928
v 0.105152 1.173000 0.030413
v 0.482444 0.795368 -0.327682
v 0.075583 1.269576 -0.134396
v 0.607028 0.650163 -0.386867
v 0.378758 0.690500 -0.457349
v 0.509622 0.701578 -0.161736
v 0.130481 1.191279 -0.209507
v 0.006537 1.191160 0.092111
v 0.538768 0.850721 0.118772
v 0.102259 1.293502 -0.041557
v 0.672430 0.715139 0.167866
v 0.569555 0.745897 -0.048236
v 0.440481 0.750982 0.251497
v 0.124778 1.166774 -0.106430
v -0.156836 1.181647 0.058046
v 0.223136 0.821790 0.400945
v 0.005790 1.275417 0.011825
v 0.289689 0.682886 0.520096
v 0.343401 0.710481 0.284977
v 0.059233 0.730686 0.444879
v 0.092051 1.177770 0.040048
v -0.211292 1.184152 -0.070500
v -0.257803 0.981048 0.510188
v -0.065014 1.290199 0.001612
v -0.316836 0.886384 0.665918
v -0.101871 0.866803 0.551613
v -0.402948 0.876819 0.435087
v -0.011892 1.175693 0.081031
v -0.147509 1.174478 -0.212296
v -0.529815 0.838060 0.143396
v -0.116538 1.277633 -0.046814
v -0.656362 0.703460 0.201640
v -0.427598 0.733536 0.272359
v -0.558357 0.737489 -0.023203
v -0.172485 1.206510 0.027793
v -0.048704 1.183512 -0.273902
v -0.585497 0.874073 -0.302750
v -0.142901 1.298440 -0.139503
v -0.721023 0.744129 -0.352737
v -0.617683 0.779649 -0.136412
v -0.488699 0.761639 -0.436189
v -0.167166 1.176415 -0.075468
v 0.114478 1.165831 -0.239929
v -0.270506 0.811638 -0.585230
v -0.046746 1.271792 -0.193036
v -0.339023 0.670736 -0.705322
v -0.392241 0.713556 -0.469967
v -0.107967 0.708382 -0.629818
v -0.142468 1.452432 -0.239651
v 0.153141 1.448256 -0.051680
v 0.333303 1.198864 -0.661109
v 0.015620 1.558585 -0.160165
v 0.430579 1.088715 -0.814502
v 0.177082 1.090596 -0.743540
v 0.468956 1.090649 -0.549680
v 0.013272 1.447209 -0.274979
v 0.089224 1.455991 0.068711
v 0.566929 1.057156 -0.223595
v 0.093056 1.552486 -0.113033
v 0.712032 0.905483 -0.257450
v 0.489931 0.948968 -0.386191
v 0.560312 0.963572 -0.041201
v 0.170634 1.471689 -0.179951
v -0.030102 1.472664 0.112392
v 0.524313 1.117124 0.263308
v 0.099944 1.575948 -0.009656
v 0.654258 0.976629 0.346891
v 0.597498 1.010168 0.094617
v 0.391773 1.016536 0.383751
v 0.140184 1.448578 -0.070154
v -0.195834 1.463894 0.039668
v 0.125896 1.088691 0.489447
v -0.013922 1.559249 0.025132
v 0.168709 0.944603 0.631623
v 0.280823 0.975254 0.396890
v -0.056838 0.996101 0.501254
v 0.079959 1.406386 0.064002
v -0.215522 1.413795 -0.124097
v -0.410813 1.279851 0.500560
v -0.069432 1.520613 -0.024238
v -0.515346 1.206128 0.661256
v -0.263429 1.164208 0.591884
v -0.554897 1.174448 0.397616
v -0.050138 1.458588 0.096266
v -0.126056 1.454466 -0.247409
v -0.609053 1.099587 0.042362
v -0.128467 1.560427 -0.064983
v -0.756212 0.958475 0.075231
v -0.533548 0.995040 0.204241
v -0.603818 0.996335 -0.140694
v -0.207123 1.487762 0.001418
v -0.006563 1.461675 -0.291009
v -0.565787 1.132155 -0.444230
v -0.135060 1.579035 -0.168219
v -0.697679 0.995317 -0.528746
v -0.640382 1.038256 -0.276215
v -0.434758 1.017421 -0.565398
v -0.177049 1.457219 -0.108559
v 0.159001 1.446563 -0.218366
v -0.168020 1.068052 -0.670680
v -0.021490 1.553664 -0.203148
v -0.212888 0.919355 -0.813842
v -0.324440 0.968753 -0.578839
v 0.013332 0.963805 -0.683150
v -0.103531 1.836142 -0.281533
v 0.170417 1.837818 -0.044318
v 0.421749 1.486540 -0.610896
v 0.054732 1.940835 -0.187864
v 0.534132 1.347433 -0.740431
v 0.265643 1.379177 -0.707052
v 0.535277 1.386194 -0.464863
v 0.045493 1.779343 -0.273269
v 0.071434 1.790237 0.090666
v 0.601349 1.383031 -0.136412
v 0.101486 1.886373 -0.095133
v 0.754410 1.228904 -0.149052
v 0.548293 1.273042 -0.314790
v 0.568359 1.289852 0.049630
v 0.191592 1.804663 -0.151661
v -0.057426 1.806086 0.117828
v 0.485032 1.445610 0.355887
v 0.093061 1.909835 0.011352
v 0.605056 1.303462 0.461386
v 0.585867 1.337709 0.194899
v 0.332241 1.344589 0.460338
v 0.143568 1.782232 -0.043071
v -0.216225 1.797128 0.018799
v 0.044407 1.416821 0.527208
v -0.028361 1.893499 0.030050
v 0.066689 1.270859 0.679441
v 0.216764 1.302753 0.457009
v -0.143885 1.323252 0.513034
v 0.054171 1.771916 0.091355
v -0.219599 1.773267 -0.146059
v -0.502481 1.587724 0.455606
v -0.091426 1.882729 -0.016401
v -0.628349 1.497391 0.600138
v -0.359300 1.475177 0.566136
v -0.628238 1.479996 0.323174
v -0.076933 1.792511 0.097992
v -0.102840 1.786438 -0.265927
v -0.638164 1.423033 -0.041441
v -0.131463 1.893836 -0.079442
v -0.793320 1.278870 -0.029805
v -0.586612 1.318941 0.136217
v -0.606563 1.318402 -0.228149
v -0.222658 1.820489 -0.023436
v 0.026178 1.793086 -0.293013
v -0.521195 1.453468 -0.533427
v -0.122751 1.911357 -0.185790
v -0.643201 1.313259 -0.639876
v -0.623444 1.359908 -0.373117
v -0.369924 1.337888 -0.638607
v -0.175008 1.789621 -0.132206
v 0.184819 1.779546 -0.194059
v -0.081223 1.389243 -0.705061
v -0.001616 1.886710 -0.204625
v -0.105599 1.236915 -0.858298
v -0.255082 1.289230 -0.635583
v 0.105681 1.285002 -0.691553
v -0.128776 2.139219 -0.258013
v 0.157380 2.134647 -0.009941
v 0.455220 1.928314 -0.646757
v 0.021734 2.246844 -0.140434
v 0.587956 1.830778 -0.801797
v 0.307258 1.818817 -0.767313
v 0.588317 1.817989 -0.513288
v 0.052494 2.172890 -0.280467
v 0.079607 2.184276 0.099907
v 0.630967 1.764823 -0.137229
v 0.109392 2.280920 -0.094140
v 0.790676 1.606791 -0.150423
v 0.577134 1.653760 -0.323809
v 0.598116 1.671213 0.057071
v 0.204647 2.197951 -0.152792
v -0.055607 2.199438 0.128857
v 0.509899 1.828413 0.376563
v 0.100652 2.303776 0.016469
v 0.635213 1.682853 0.486827
v 0.616299 1.719793 0.209419
v 0.351234 1.726868 0.486835
v 0.192805 2.192679 0.001232
v -0.186819 2.229984 0.019291
v -0.007808 1.782651 0.547422
v 0.011290 2.311865 0.060985
v -0.013656 1.620603 0.696372
v 0.173595 1.660355 0.490527
v -0.205804 1.703881 0.502869
v -0.077983 2.186734 0.107725
v -0.105061 2.180387 -0.272632
v -0.661990 1.806550 -0.038165
v -0.133407 2.288696 -0.077895
v -0.823845 1.658914 -0.025999
v -0.609673 1.701755 0.147689
v -0.630537 1.701075 -0.233135
v -0.229765 2.214511 -0.019772
v 0.030298 2.185871 -0.301512
v -0.540265 1.836612 -0.551642
v -0.124390 2.305382 -0.188371
v -0.667608 1.693071 -0.662879
v -0.648084 1.742985 -0.385178
v -0.383132 1.719856 -0.662649
v -0.179400 2.183647 -0.134203
v 0.196681 2.173117 -0.198850
v -0.080973 1.771301 -0.730401
v 0.002070 2.281266 -0.208327
v -0.106402 1.615147 -0.890263
v -0.262931 1.670685 -0.659345
v 0.114125 1.666149 -0.717855
v -0.082696 2.500328 -0.263018
v 0.138724 2.500364 0.001975
v 0.486842 2.249687 -0.519682
v 0.042267 2.608545 -0.141533
v 0.622974 2.139803 -0.635474
v 0.364492 2.139361 -0.643389
v 0.580686 2.143615 -0.373951
v 0.072699 2.495517 -0.250377
v 0.042549 2.507564 0.096565
v 0.577127 2.113977 -0.037052
v 0.100412 2.602640 -0.074029
v 0.723100 1.964345 -0.025729
v 0.552216 2.003982 -0.213182
v 0.516462 2.021773 0.133325
v 0.113276 2.488266 -0.118481
v -0.181308 2.499562 0.069183
v 0.256676 2.168299 0.438311
v -0.015593 2.599331 0.005176
v 0.340047 2.036314 0.570940
v 0.387145 2.054700 0.317200
v 0.089361 2.071064 0.499772
v 0.057250 2.505258 0.113664
v -0.240690 2.512144 -0.060796
v -0.364981 2.155682 0.478812
v -0.112109 2.612591 0.063661
v -0.442412 2.015774 0.605935
v -0.197108 2.045663 0.531256
v -0.492076 2.057921 0.351915
v 0.024683 2.506272 0.098177
v -0.196737 2.506236 -0.166816
v -0.548040 2.303302 0.353315
v -0.098751 2.615850 -0.022574
v -0.685615 2.207598 0.468415
v -0.427247 2.191887 0.476277
v -0.643385 2.195525 0.206865
v -0.094268 2.509032 0.081467
v -0.064085 2.501576 -0.265460
v -0.603914 2.147309 -0.134359
v -0.120528 2.608826 -0.094185
v -0.751929 2.005989 -0.146660
v -0.580494 2.044802 0.041057
v -0.544629 2.042772 -0.305398
v -0.213712 2.536013 -0.054163
v 0.060255 2.509811 -0.270811
v -0.419595 2.176556 -0.581392
v -0.096383 2.626711 -0.193589
v -0.518565 2.038716 -0.700140
v -0.538824 2.083212 -0.444245
v -0.261058 2.062302 -0.656335
v -0.153667 2.504972 -0.148647
v 0.193372 2.496640 -0.152793
v 0.019927 2.114557 -0.677568
v 0.020013 2.602056 -0.192649
v 0.019900 1.965282 -0.826054
v -0.153753 2.014607 -0.636417
v 0.193286 2.012006 -0.634863
v -0.051837 2.798491 -0.251460
v 0.114259 2.800171 0.012218
v 0.486666 2.562206 -0.413171
v 0.046780 2.907248 -0.128743
v 0.621362 2.456551 -0.500265
v 0.390634 2.451420 -0.537560
v 0.551560 2.457156 -0.270538
v 0.082236 2.787056 -0.222116
v 0.014139 2.799012 0.084912
v 0.512280 2.431968 0.030587
v 0.089564 2.892761 -0.060303
v 0.642372 2.383864 0.058731
v 0.507437 2.323555 -0.130692
v 0.434370 2.340927 0.175268
v 0.174588 2.814970 -0.087169
v -0.095769 2.816113 0.074043
v 0.293760 2.493839 0.410426
v 0.055965 2.918636 0.027299
v 0.366575 2.363764 0.527742
v 0.413781 2.387677 0.298209
v 0.140628 2.393814 0.454918
v 0.088888 2.793075 0.022128
v -0.211018 2.802061 -0.063402
v -0.201880 2.464028 0.439112
v -0.071634 2.899692 0.019926
v -0.241763 2.330624 0.567469
v -0.042125 2.354851 0.443777
v -0.340499 2.368957 0.353320
v 0.000602 2.805472 0.085049
v -0.165494 2.803792 -0.178629
v -0.540931 2.610135 0.245307
v -0.096490 2.913931 -0.036937
v -0.677022 2.517111 0.331732
v -0.446451 2.499891 0.368952
v -0.607323 2.501782 0.101956
v -0.100579 2.799692 0.056359
v -0.032453 2.791877 -0.250655
v -0.535516 2.457898 -0.198689
v -0.106478 2.897572 -0.104769
v -0.666890 2.323267 -0.227448
v -0.532138 2.357434 -0.038113
v -0.458969 2.354787 -0.344023
v -0.192549 2.826325 -0.078404
v 0.077652 2.802864 -0.239691
v -0.316356 2.487156 -0.578221
v -0.072562 2.916941 -0.192219
v -0.391007 2.355554 -0.696417
v -0.437776 2.394015 -0.466675
v -0.164709 2.375605 -0.623425
v -0.129475 2.795196 -0.154559
v 0.180666 2.788823 -0.116859
v 0.088790 2.428420 -0.612824
v 0.031241 2.891562 -0.176780
v 0.106412 2.286603 -0.746343
v -0.071587 2.329331 -0.593165
v 0.237877 2.328403 -0.550340
v -0.049654 3.109508 -0.250414
v 0.116443 3.111188 0.013264
v 0.488849 2.873222 -0.412125
v 0.048963 3.218265 -0.127697
v 0.623545 2.767568 -0.499218
v 0.392818 2.762437 -0.536513
v 0.553743 2.768173 -0.269492
v 0.084419 3.098072 -0.221069
v 0.016322 3.110028 0.085958
v 0.514464 2.742984 0.031633
v 0.091747 3.203777 -0.059257
v 0.644546 2.693649 0.059773
v 0.509620 2.634571 -0.129645
v 0.436554 2.651943 0.176314
v 0.176772 3.125987 -0.086123
v -0.093586 3.127130 0.075089
v 0.295944 2.804856 0.411472
v 0.058149 3.229652 0.028345
v 0.368758 2.674780 0.528788
v 0.415964 2.698694 0.299255
v 0.142811 2.704830 0.455964
v 0.113315 3.102569 -0.010152
v -0.196796 3.113082 -0.047838
v -0.109842 2.772462 0.445769
v -0.045972 3.209787 0.012755
v -0.129400 2.638551 0.578360
v 0.049069 2.662673 0.425407
v -0.260291 2.678328 0.382631
v 0.002786 3.116489 0.086095
v -0.163311 3.114809 -0.177583
v -0.538748 2.921152 0.246354
v -0.094306 3.224947 -0.035891
v -0.674328 2.900843 0.333023
v -0.444268 2.810908 0.369999
v -0.605140 2.812799 0.103003
v -0.098396 3.110708 0.057405
v -0.030269 3.102893 -0.249609
v -0.533332 2.768914 -0.197642
v -0.104295 3.208589 -0.103723
v -0.664706 2.634284 -0.226401
v -0.529955 2.668450 -0.037067
v -0.456785 2.665803 -0.342976
v -0.190365 3.137342 -0.077358
v 0.079836 3.113880 -0.238645
v -0.314172 2.798173 -0.577174
v -0.070378 3.227957 -0.191172
v -0.388824 2.666570 -0.695371
v -0.435592 2.705031 -0.465628
v -0.162525 2.686621 -0.622378
v -0.127291 3.106212 -0.153512
v 0.182849 3.099839 -0.115812
v 0.090974 2.739436 -0.611778
v 0.033425 3.202579 -0.175734
v 0.108596 2.597619 -0.745297
v -0.069404 2.640348 -0.592119
v 0.240060 2.639419 -0.549293
v -0.024032 1.863977 -0.353484
v 0.182970 1.872898 0.049950
v 0.728008 1.460788 -0.490878
v 0.109306 1.975063 -0.167835
v 0.917459 1.303314 -0.589797
v 0.598307 1.346680 -0.678426
v 0.798036 1.361646 -0.271195
v 0.147762 1.815746 -0.271833
v 0.010116 1.834047 0.164619
v 0.713915 1.363222 0.142467
v 0.122129 1.931437 -0.040951
v 0.895123 1.189231 0.198631
v 0.743026 1.244191 -0.087337
v 0.598424 1.269171 0.346959
v 0.257017 1.843022 -0.061015
v -0.154493 1.844348 0.138037
v 0.356745 1.435591 0.660155
v 0.065525 1.952431 0.075560
v 0.445918 1.277332 0.839162
v 0.549948 1.323145 0.527016
v 0.135015 1.330547 0.719196
v 0.147748 1.823843 0.046064
v -0.296072 1.837907 -0.048304
v -0.227030 1.404789 0.654298
v -0.082525 1.939777 0.042844
v -0.271279 1.240973 0.841529
v 0.002393 1.285711 0.661112
v -0.439729 1.306064 0.559555
v -0.014954 1.790426 0.154992
v -0.221656 1.785286 -0.248606
v -0.826417 1.585162 0.323293
v -0.130264 1.898547 -0.040034
v -1.039584 1.489202 0.434547
v -0.715199 1.475200 0.520455
v -0.913718 1.473743 0.112586
v -0.176032 1.835052 0.100700
v -0.038344 1.822772 -0.335732
v -0.748444 1.395869 -0.316601
v -0.148868 1.937400 -0.129449
v -0.932039 1.230049 -0.373908
v -0.779132 1.290338 -0.087553
v -0.634396 1.284423 -0.521784
v -0.284933 1.858208 -0.109949
v 0.126349 1.824444 -0.309111
v -0.390595 1.420194 -0.833964
v -0.092036 1.949022 -0.245851
v -0.482016 1.258264 -1.014048
v -0.585247 1.326272 -0.701519
v -0.170456 1.298725 -0.893767
v -0.176018 1.826955 -0.217198
v 0.267845 1.818911 -0.122809
v 0.192501 1.354302 -0.828432
v 0.055785 1.929060 -0.213244
v 0.234364 1.178307 -1.016806
v -0.038499 1.248818 -0.836002
v 0.403757 1.247530 -0.734381
v -0.077352 2.520549 -0.285899
v 0.166334 2.523933 -0.017649
v 0.485769 2.168530 -0.554558
v 0.068790 2.626981 -0.174340
v 0.613450 2.028149 -0.670983
v 0.342078 2.059403 -0.668352
v 0.580862 2.068177 -0.395632
v 0.067290 2.465787 -0.262296
v 0.050218 2.478011 0.102655
v 0.609397 2.066426 -0.059951
v 0.102489 2.574975 -0.078614
v 0.765432 2.027128 -0.053845
v 0.577177 1.954248 -0.243523
v 0.554146 1.972450 0.121208
v 0.199764 2.491098 -0.126800
v -0.078817 2.492631 0.111785
v 0.434932 2.130811 0.417558
v 0.083206 2.597675 0.023940
v 0.542632 1.987855 0.538086
v 0.553556 2.021490 0.269131
v 0.270841 2.028511 0.503089
v 0.141725 2.469548 -0.026073
v -0.222222 2.483477 -0.007068
v -0.023579 2.100822 0.536964
v -0.037222 2.581897 0.026820
v -0.019402 1.953514 0.693174
v 0.155448 1.985645 0.487070
v -0.208659 2.005229 0.500078
v 0.037942 2.456322 0.100999
v -0.205540 2.455965 -0.167427
v -0.557660 2.271245 0.398373
v -0.093693 2.566485 -0.023423
v -0.699122 2.267414 0.527821
v -0.428752 2.159347 0.525275
v -0.666780 2.162460 0.251890
v -0.088868 2.479566 0.092753
v -0.071761 2.472162 -0.272181
v -0.636422 2.102869 -0.112202
v -0.122585 2.581504 -0.090218
v -0.793763 1.956308 -0.118934
v -0.605725 1.998117 0.070640
v -0.582578 1.996340 -0.294036
v -0.220978 2.506001 -0.042568
v 0.057420 2.478489 -0.281240
v -0.461298 2.132337 -0.589396
v -0.103028 2.597806 -0.192641
v -0.571003 1.989808 -0.710885
v -0.581354 2.037797 -0.441655
v -0.298744 2.015757 -0.675663
v -0.163303 2.475806 -0.143469
v 0.200679 2.466696 -0.162458
v -0.003446 2.068472 -0.709118
v 0.017127 2.574583 -0.195651
v -0.009746 1.913498 -0.866344
v -0.183996 1.966721 -0.659954
v 0.180227 1.963561 -0.672906
v -0.115077 3.405869 -0.156424
v 0.111658 3.400624 -0.092443
v 0.112006 3.198617 -0.518306
v 0.003952 3.510614 -0.140830
v 0.145092 3.103082 -0.633891
v -0.006389 3.092038 -0.536118
v 0.219076 3.090461 -0.467699
v -0.030298 3.376625 -0.203380
v 0.084163 3.379961 0.002443
v 0.354213 3.066557 -0.286461
v 0.062402 3.473927 -0.120542
v 0.443568 2.941818 -0.337267
v 0.263229 2.966861 -0.370274
v 0.374259 2.974986 -0.162501
v 0.091328 3.401915 -0.178379
v 0.017233 3.401482 0.047541
v 0.418202 3.117045 0.040682
v 0.088181 3.500880 -0.051208
v 0.519256 2.999513 0.068820
v 0.423288 3.015824 -0.085948
v 0.345314 3.019903 0.138891
v 0.094031 3.375252 -0.109244
v -0.102153 3.386195 0.025423
v 0.201795 3.085297 0.267802
v 0.019441 3.478074 -0.008852
v 0.257633 2.965026 0.352515
v 0.277457 2.980167 0.169036
v 0.079129 2.995726 0.300451
v 0.082640 3.404029 0.006735
v -0.144096 3.409275 -0.057247
v -0.147127 3.229033 0.367330
v -0.034874 3.515171 -0.008132
v -0.181499 3.141415 0.482299
v -0.030273 3.116209 0.384404
v -0.255689 3.124818 0.316009
v 0.016733 3.381330 0.037342
v -0.097706 3.381122 -0.168471
v -0.371938 3.098888 0.118430
v -0.074591 3.480009 -0.044836
v -0.462987 2.982187 0.168423
v -0.282361 2.997969 0.201568
v -0.393305 3.002241 -0.006164
v -0.104495 3.412715 0.012532
v -0.030519 3.396282 -0.213445
v -0.435307 3.136580 -0.208417
v -0.100006 3.504987 -0.113995
v -0.537978 3.023771 -0.237330
v -0.441767 3.042142 -0.082445
v -0.363849 3.030040 -0.307312
v -0.107597 3.382702 -0.056794
v 0.088610 3.374887 -0.191450
v -0.219519 3.080149 -0.435833
v -0.031630 3.475861 -0.156527
v -0.277052 2.958979 -0.521359
v -0.296590 2.984664 -0.337742
v -0.098174 2.981500 -0.469115
v -0.115208 3.643064 -0.119504
v 0.092471 3.636777 -0.119101
v -0.007337 3.448977 -0.478201
v -0.010356 3.747065 -0.136291
v -0.006413 3.357700 -0.582896
v -0.112171 3.343224 -0.463424
v 0.095472 3.340442 -0.459001
v -0.055663 3.606747 -0.177189
v 0.089969 3.607440 -0.030609
v 0.254680 3.318239 -0.341678
v 0.045476 3.700939 -0.131978
v 0.318739 3.201055 -0.405890
v 0.154769 3.221798 -0.388122
v 0.297942 3.226990 -0.239077
v 0.053878 3.632224 -0.185773
v 0.044037 3.630410 0.022322
v 0.386036 3.364337 -0.079086
v 0.084928 3.728715 -0.077066
v 0.478238 3.252762 -0.079704
v 0.356756 3.265704 -0.187804
v 0.343376 3.268174 0.020315
v 0.072097 3.604083 -0.129688
v -0.062930 3.613626 0.030260
v 0.255560 3.331122 0.165143
v 0.035501 3.703977 -0.024577
v 0.322943 3.216952 0.223236
v 0.293449 3.229037 0.061147
v 0.155835 3.242963 0.218865
v 0.091108 3.639162 -0.027086
v -0.116571 3.645449 -0.027490
v -0.019314 3.469936 0.330388
v -0.012233 3.750349 -0.009575
v -0.021482 3.384071 0.434487
v 0.083986 3.357101 0.314876
v -0.123610 3.366684 0.310476
v 0.043635 3.608560 0.012187
v -0.101978 3.610616 -0.134384
v -0.270567 3.347322 0.174826
v -0.056156 3.706558 -0.032378
v -0.336222 3.237321 0.238273
v -0.172037 3.247213 0.220609
v -0.315129 3.253492 0.071602
v -0.065499 3.641109 0.020966
v -0.055762 3.628100 -0.187179
v -0.401315 3.387997 -0.087474
v -0.095220 3.733922 -0.087104
v -0.494519 3.356697 -0.087337
v -0.373392 3.293151 0.020593
v -0.360058 3.284208 -0.187548
v -0.084125 3.611224 -0.035314
v 0.050921 3.604430 -0.195253
v -0.271447 3.334439 -0.331995
v -0.046180 3.703519 -0.139779
v -0.340425 3.221424 -0.390853
v -0.310716 3.239974 -0.228660
v -0.173022 3.237519 -0.386340
v -0.084340 3.954543 -0.086956
v 0.056784 3.949427 -0.119795
v -0.068725 3.803318 -0.349791
v -0.016263 4.042311 -0.117300
v -0.084789 3.730137 -0.420982
v -0.137111 3.714145 -0.320815
v 0.004630 3.711839 -0.350920
v -0.060144 3.925284 -0.126395
v 0.062029 3.924465 -0.050651
v 0.136462 3.693202 -0.306231
v 0.019218 4.005855 -0.117478
v 0.172363 3.597466 -0.364029
v 0.057789 3.610794 -0.316259
v 0.178584 3.613650 -0.238296
v 0.009979 3.945316 -0.157690
v 0.036335 3.942978 -0.015510
v 0.269903 3.729925 -0.143286
v 0.054171 4.027576 -0.089652
v 0.335962 3.638782 -0.159708
v 0.226979 3.645916 -0.211639
v 0.250799 3.647076 -0.068828
v 0.029929 3.922437 -0.130953
v -0.036413 3.928704 -0.001436
v 0.220857 3.699680 0.048541
v 0.027682 4.007288 -0.051128
v 0.280008 3.605489 0.079060
v 0.224239 3.613020 -0.030698
v 0.155627 3.622903 0.097647
v 0.069794 3.950544 -0.060471
v -0.071330 3.955659 -0.027632
v 0.052156 3.813693 0.201395
v 0.002989 4.043963 -0.029518
v 0.067212 3.743182 0.272102
v 0.119251 3.718920 0.171800
v -0.022451 3.726742 0.201923
v 0.050841 3.924234 -0.035495
v -0.071319 3.926965 -0.111233
v -0.148876 3.713293 0.142850
v -0.027360 4.009143 -0.043857
v -0.186085 3.622702 0.200021
v -0.071389 3.626646 0.152308
v -0.192120 3.632854 0.074376
v -0.018961 3.950108 -0.004046
v -0.045389 3.942125 -0.146261
v -0.281803 3.749797 -0.019849
v -0.062003 4.031560 -0.071533
v -0.348812 3.705414 -0.003883
v -0.240052 3.666688 0.047942
v -0.263896 3.662018 -0.094881
v -0.039232 3.927082 -0.030938
v 0.027123 3.922727 -0.160448
v -0.233270 3.706815 -0.211922
v -0.035823 4.007710 -0.110206
v -0.293730 3.614680 -0.243068
v -0.237839 3.624419 -0.133252
v -0.169163 3.623601 -0.261567
v -0.060629 4.224997 -0.072946
v 0.035260 4.221008 -0.115415
v -0.085118 4.116910 -0.261179
v -0.016374 4.288308 -0.103602
v -0.106168 4.064427 -0.309430
v -0.129778 4.052592 -0.231449
v -0.033080 4.050617 -0.272066
v -0.048763 4.203968 -0.104175
v 0.048377 4.202653 -0.067237
v 0.066723 4.036544 -0.258433
v 0.008843 4.261869 -0.108600
v 0.084446 3.967549 -0.304313
v 0.009456 3.977319 -0.254889
v 0.105916 3.978653 -0.216189
v -0.003157 4.218356 -0.135852
v 0.034868 4.215946 -0.038855
v 0.183688 4.061917 -0.161298
v 0.037462 4.277322 -0.093655
v 0.228464 3.995959 -0.182010
v 0.143929 4.001685 -0.203892
v 0.180235 4.001808 -0.106100
v 0.014663 4.201650 -0.119677
v -0.014943 4.205802 -0.018998
v 0.174845 4.039367 -0.018930
v 0.023860 4.262580 -0.062810
v 0.221078 3.971017 -0.005493
v 0.166535 3.977124 -0.075538
v 0.135155 3.983901 0.024625
v 0.052557 4.221508 -0.075216
v -0.043332 4.225497 -0.032747
v 0.075586 4.121551 0.112318
v 0.009220 4.289047 -0.044119
v 0.095907 4.070262 0.160219
v 0.119313 4.053027 0.082140
v 0.022643 4.058985 0.122771
v 0.042478 4.202454 -0.054990
v -0.054653 4.205149 -0.091924
v -0.075254 4.049933 0.098191
v -0.014290 4.264059 -0.050163
v -0.093921 3.984366 0.143619
v -0.018844 3.987070 0.094237
v -0.115259 3.992281 0.055559
v -0.002896 4.221217 -0.023202
v -0.040973 4.216173 -0.120224
v -0.191848 4.077443 0.001234
v -0.042684 4.280481 -0.065001
v -0.237523 4.015272 0.021516
v -0.152937 4.016985 0.043423
v -0.189260 4.014328 -0.054378
v -0.020948 4.204772 -0.039488
v 0.008667 4.202000 -0.140162
v -0.183376 4.047111 -0.141312
v -0.029306 4.263348 -0.095953
v -0.230553 3.980898 -0.155201
v -0.175923 3.987264 -0.085114
v -0.144497 3.987034 -0.185255
v -0.059898 4.399186 -0.066745
v 0.032944 4.396291 -0.069890
v -0.017506 4.301127 -0.230837
v -0.013263 4.455735 -0.077506
v -0.018805 4.253786 -0.277787
v -0.064165 4.243670 -0.220977
v 0.028727 4.242592 -0.222319
v 0.009276 4.422719 -0.029998
v -0.042937 4.419038 -0.106443
v -0.150321 4.295428 0.028255
v -0.033606 4.475921 -0.058223
v -0.186060 4.240160 0.054735
v -0.108125 4.241165 0.056989
v -0.158967 4.239606 -0.020474
v -0.009428 4.506634 -0.049263
v -0.006441 4.505670 -0.095618
v -0.089863 4.437360 -0.077317
v -0.018605 4.532834 -0.072759
v -0.111682 4.408125 -0.078713
v -0.081105 4.410599 -0.053847
v -0.077280 4.410757 -0.100149
v -0.004254 4.459881 -0.094640
v -0.033080 4.461997 -0.057944
v 0.044450 4.389152 -0.026085
v -0.009881 4.487208 -0.069653
v 0.061086 4.359127 -0.012745
v 0.050396 4.361249 -0.050816
v 0.020932 4.364517 -0.014633
vt 0.099609 0.250000
vt 0.111328 0.250000
vt 0.111328 0.287109
vt 0.099609 0.287109
vt 0.111328 0.296875
vt 0.125000 0.287109
vt 0.125000 0.250000
vt 0.099609 0.250000
vt 0.111328 0.250000
vt 0.111328 0.287109
vt 0.099609 0.287109
vt 0.111328 0.296875
vt 0.125000 0.287109
vt 0.125000 0.250000
vt 0.099609 0.250000
vt 0.111328 0.250000
vt 0.111328 0.287109
vt 0.099609 0.287109
vt 0.111328 0.296875
vt 0.125000 0.287109
vt 0.125000 0.250000
vt 0.099609 0.250000
vt 0.111328 0.250000
vt 0.111328 0.287109
vt 0.099609 0.287109
vt 0.111328 0.296875
vt 0.125000 0.287109
vt 0.125000 0.250000
vt 0.099609 0.250000
vt 0.111328 0.250000
vt 0.111328 0.287109
vt 0.099609 0.287109
vt 0.111328 0.296875
vt 0.125000 0.287109
vt 0.125000 0.250000
vt 0.099609 0.250000
vt 0.111328 0.250000
vt 0.111328 0.287109
vt 0.099609 0.287109
vt 0.111328 0.296875
vt 0.125000 0.287109
vt 0.125000 0.250000
vt 0.099609 0.250000
vt 0.111328 0.250000
vt 0.111328 0.287109
vt 0.099609 0.287109
vt 0.111328 0.296875
vt 0.125000 0.287109
vt 0.125000 0.250000
vt 0.099609 0.250000
vt 0.111328 0.250000
vt 0.111328 0.287109
vt 0.099609 0.287109
vt 0.111328 0.296875
vt 0.125000 0.287109
vt 0.125000 0.250000
vt 0.099609 0.250000
vt 0.111328 0.250000
vt 0.111328 0.287109
vt 0.099609 0.287109
vt 0.111328 0.296875
vt 0.125000 0.287109
vt 0.125000 0.250000
vt 0.099609 0.250000
vt 0.111328 0.250000
vt 0.111328 0.287109
vt 0.099609 0.287109
vt 0.111328 0.296875
vt 0.125000 0.287109
vt 0.125000 0.250000
vt 0.099609 0.250000
vt 0.111328 0.250000
vt 0.111328 0.287109
vt 0.099609 0.287109
vt 0.111328 0.296875
vt 0.125000 0.287109
vt 0.125000 0.250000
vt 0.099609 0.250000
vt 0.111328 0.250000
vt 0.111328 0.287109
vt 0.099609 0.287109
vt 0.111328 0.296875
vt 0.125000 0.287109
vt 0.125000 0.250000
vt 0.099609 0.250000
vt 0.111328 0.250000
vt 0.111328 0.287109
vt 0.099609 0.287109
vt 0.111328 0.296875
vt 0.125000 0.287109
vt 0.125000 0.250000
vt 0.099609 0.250000
vt 0.111328 0.250000
vt 0.111328 0.287109
vt 0.099609 0.287109
vt 0.111328 0.296875
vt 0.125000 0.287109
vt 0.125000 0.250000
vt 0.099609 0.250000
vt 0.111328 0.250000
vt 0.111328 0.287109
vt 0.099609 0.287109
vt 0.111328 0.296875
vt 0.125000 0.287109
vt 0.125000 0.250000
vt 0.099609 0.250000
vt 0.111328 0.250000
vt 0.111328 0.287109
vt 0.099609 0.287109
vt 0.111328 0.296875
vt 0.125000 0.287109
vt 0.125000 0.250000
vt 0.099609 0.250000
vt 0.111328 0.250000
vt 0.111328 0.287109
vt 0.099609 0.287109
vt 0.111328 0.296875
vt 0.125000 0.287109
vt 0.125000 0.250000
vt 0.099609 0.250000
vt 0.111328 0.250000
vt 0.111328 0.287109
vt 0.099609 0.287109
vt 0.111328 0.296875
vt 0.125000 0.287109
vt 0.125000 0.250000
vt 0.099609 0.250000
vt 0.111328 0.250000
vt 0.111328 0.287109
vt 0.099609 0.287109
vt 0.111328 0.296875
vt 0.125000 0.287109
vt 0.125000 0.250000
vt 0.099609 0.250000
vt 0.111328 0.250000
vt 0.111328 0.287109
vt 0.099609 0.287109
vt 0.111328 0.296875
vt 0.125000 0.287109
vt 0.125000 0.250000
vt 0.099609 0.250000
vt 0.111328 0.250000
vt 0.111328 0.287109
vt 0.099609 0.287109
vt 0.111328 0.296875
vt 0.125000 0.287109
vt 0.125000 0.250000
vt 0.099609 0.250000
vt 0.111328 0.250000
vt 0.111328 0.287109
vt 0.099609 0.287109
vt 0.111328 0.296875
vt 0.125000 0.287109
vt 0.125000 0.250000
vt 0.099609 0.250000
vt 0.111328 0.250000
vt 0.111328 0.287109
vt 0.099609 0.287109
vt 0.111328 0.296875
vt 0.125000 0.287109
vt 0.125000 0.250000
vt 0.099609 0.250000
vt 0.111328 0.250000
vt 0.111328 0.287109
vt 0.099609 0.287109
vt 0.111328 0.296875
vt 0.125000 0.287109
vt 0.125000 0.250000
vt 0.099609 0.250000
vt 0.111328 0.250000
vt 0.111328 0.287109
vt 0.099609 0.287109
vt 0.111328 0.296875
vt 0.125000 0.287109
vt 0.125000 0.250000
vt 0.099609 0.250000
vt 0.111328 0.250000
vt 0.111328 0.287109
vt 0.099609 0.287109
vt 0.111328 0.296875
vt 0.125000 0.287109
vt 0.125000 0.250000
vt 0.099609 0.250000
vt 0.111328 0.250000
vt 0.111328 0.287109
vt 0.099609 0.287109
vt 0.111328 0.296875
vt 0.125000 0.287109
vt 0.125000 0.250000
vt 0.099609 0.250000
vt 0.111328 0.250000
vt 0.111328 0.287109
vt 0.099609 0.287109
vt 0.111328 0.296875
vt 0.125000 0.287109
vt 0.125000 0.250000
vt 0.099609 0.250000
vt 0.111328 0.250000
vt 0.111328 0.287109
vt 0.099609 0.287109
vt 0.111328 0.296875
vt 0.125000 0.287109
vt 0.125000 0.250000
vt 0.099609 0.250000
vt 0.111328 0.250000
vt 0.111328 0.287109
vt 0.099609 0.287109
vt 0.111328 0.296875
vt 0.125000 0.287109
vt 0.125000 0.250000
vt 0.099609 0.250000
vt 0.111328 0.250000
vt 0.111328 0.287109
vt 0.099609 0.287109
vt 0.111328 0.296875
vt 0.125000 0.287109
vt 0.125000 0.250000
vt 0.099609 0.250000
vt 0.111328 0.250000
vt 0.111328 0.287109
vt 0.099609 0.287109
vt 0.111328 0.296875
vt 0.125000 0.287109
vt 0.125000 0.250000
vt 0.099609 0.250000
vt 0.111328 0.250000
vt 0.111328 0.287109
vt 0.099609 0.287109
vt 0.111328 0.296875
vt 0.125000 0.287109
vt 0.125000 0.250000
vt 0.099609 0.250000
vt 0.111328 0.250000
vt 0.111328 0.287109
vt 0.099609 0.287109
vt 0.111328 0.296875
vt 0.125000 0.287109
vt 0.125000 0.250000
vt 0.099609 0.250000
vt 0.111328 0.250000
vt 0.111328 0.287109
vt 0.099609 0.287109
vt 0.111328 0.296875
vt 0.125000 0.287109
vt 0.125000 0.250000
vt 0.099609 0.250000
vt 0.111328 0.250000
vt 0.111328 0.287109
vt 0.099609 0.287109
vt 0.111328 0.296875
vt 0.125000 0.287109
vt 0.125000 0.250000
vt 0.099609 0.250000
vt 0.111328 0.250000
vt 0.111328 0.287109
vt 0.099609 0.287109
vt 0.111328 0.296875
vt 0.125000 0.287109
vt 0.125000 0.250000
vt 0.099609 0.250000
vt 0.111328 0.250000
vt 0.111328 0.287109
vt 0.099609 0.287109
vt 0.111328 0.296875
vt 0.125000 0.287109
vt 0.125000 0.250000
vt 0.099609 0.250000
vt 0.111328 0.250000
vt 0.111328 0.287109
vt 0.099609 0.287109
vt 0.111328 0.296875
vt 0.125000 0.287109
vt 0.125000 0.250000
vt 0.099609 0.250000
vt 0.111328 0.250000
vt 0.111328 0.287109
vt 0.099609 0.287109
vt 0.111328 0.296875
vt 0.125000 0.287109
vt 0.125000 0.250000
vt 0.099609 0.250000
vt 0.111328 0.250000
vt 0.111328 0.287109
vt 0.099609 0.287109
vt 0.111328 0.296875
vt 0.125000 0.287109
vt 0.125000 0.250000
vt 0.099609 0.250000
vt 0.111328 0.250000
vt 0.111328 0.287109
vt 0.099609 0.287109
vt 0.111328 0.296875
vt 0.125000 0.287109
vt 0.125000 0.250000
vt 0.099609 0.250000
vt 0.111328 0.250000
vt 0.111328 0.287109
vt 0.099609 0.287109
vt 0.111328 0.296875
vt 0.125000 0.287109
vt 0.125000 0.250000
vt 0.099609 0.250000
vt 0.111328 0.250000
vt 0.111328 0.287109
vt 0.099609 0.287109
vt 0.111328 0.296875
vt 0.125000 0.287109
vt 0.125000 0.250000
vt 0.099609 0.250000
vt 0.111328 0.250000
vt 0.111328 0.287109
vt 0.099609 0.287109
vt 0.111328 0.296875
vt 0.125000 0.287109
vt 0.125000 0.250000
vt 0.099609 0.250000
vt 0.111328 0.250000
vt 0.111328 0.287109
vt 0.099609 0.287109
vt 0.111328 0.296875
vt 0.125000 0.287109
vt 0.125000 0.250000
vt 0.099609 0.250000
vt 0.111328 0.250000
vt 0.111328 0.287109
vt 0.099609 0.287109
vt 0.111328 0.296875
vt 0.125000 0.287109
vt 0.125000 0.250000
vt 0.099609 0.250000
vt 0.111328 0.250000
vt 0.111328 0.287109
vt 0.099609 0.287109
vt 0.111328 0.296875
vt 0.125000 0.287109
vt 0.125000 0.250000
vt 0.099609 0.250000
vt 0.111328 0.250000
vt 0.111328 0.287109
vt 0.099609 0.287109
vt 0.111328 0.296875
vt 0.125000 0.287109
vt 0.125000 0.250000
vt 0.099609 0.250000
vt 0.111328 0.250000
vt 0.111328 0.287109
vt 0.099609 0.287109
vt 0.111328 0.296875
vt 0.125000 0.287109
vt 0.125000 0.250000
vt 0.099609 0.250000
vt 0.111328 0.250000
vt 0.111328 0.287109
vt 0.099609 0.287109
vt 0.111328 0.296875
vt 0.125000 0.287109
vt 0.125000 0.250000
vt 0.099609 0.250000
vt 0.111328 0.250000
vt 0.111328 0.287109
vt 0.099609 0.287109
vt 0.111328 0.296875
vt 0.125000 0.287109
vt 0.125000 0.250000
vt 0.099609 0.250000
vt 0.111328 0.250000
vt 0.111328 0.287109
vt 0.099609 0.287109
vt 0.111328 0.296875
vt 0.125000 0.287109
vt 0.125000 0.250000
vt 0.099609 0.250000
vt 0.111328 0.250000
vt 0.111328 0.287109
vt 0.099609 0.287109
vt 0.111328 0.296875
vt 0.125000 0.287109
vt 0.125000 0.250000
vt 0.099609 0.250000
vt 0.111328 0.250000
vt 0.111328 0.287109
vt 0.099609 0.287109
vt 0.111328 0.296875
vt 0.125000 0.287109
vt 0.125000 0.250000
vt 0.099609 0.250000
vt 0.111328 0.250000
vt 0.111328 0.287109
vt 0.099609 0.287109
vt 0.111328 0.296875
vt 0.125000 0.287109
vt 0.125000 0.250000
vt 0.099609 0.250000
vt 0.111328 0.250000
vt 0.111328 0.287109
vt 0.099609 0.287109
vt 0.111328 0.296875
vt 0.125000 0.287109
vt 0.125000 0.250000
vt 0.099609 0.250000
vt 0.111328 0.250000
vt 0.111328 0.287109
vt 0.099609 0.287109
vt 0.111328 0.296875
vt 0.125000 0.287109
vt 0.125000 0.250000
vt 0.099609 0.250000
vt 0.111328 0.250000
vt 0.111328 0.287109
vt 0.099609 0.287109
vt 0.111328 0.296875
vt 0.125000 0.287109
vt 0.125000 0.250000
vt 0.099609 0.250000
vt 0.111328 0.250000
vt 0.111328 0.287109
vt 0.099609 0.287109
vt 0.111328 0.296875
vt 0.125000 0.287109
vt 0.125000 0.250000
vt 0.099609 0.250000
vt 0.111328 0.250000
vt 0.111328 0.287109
vt 0.099609 0.287109
vt 0.111328 0.296875
vt 0.125000 0.287109
vt 0.125000 0.250000
vt 0.099609 0.250000
vt 0.111328 0.250000
vt 0.111328 0.287109
vt 0.099609 0.287109
vt 0.111328 0.296875
vt 0.125000 0.287109
vt 0.125000 0.250000
vt 0.099609 0.250000
vt 0.111328 0.250000
vt 0.111328 0.287109
vt 0.099609 0.287109
vt 0.111328 0.296875
vt 0.125000 0.287109
vt 0.125000 0.250000
vt 0.099609 0.250000
vt 0.111328 0.250000
vt 0.111328 0.287109
vt 0.099609 0.287109
vt 0.111328 0.296875
vt 0.125000 0.287109
vt 0.125000 0.250000
vt 0.099609 0.250000
vt 0.111328 0.250000
vt 0.111328 0.287109
vt 0.099609 0.287109
vt 0.111328 0.296875
vt 0.125000 0.287109
vt 0.125000 0.250000
vt 0.099609 0.250000
vt 0.111328 0.250000
vt 0.111328 0.287109
vt 0.099609 0.287109
vt 0.111328 0.296875
vt 0.125000 0.287109
vt 0.125000 0.250000
vt 0.099609 0.250000
vt 0.111328 0.250000
vt 0.111328 0.287109
vt 0.099609 0.287109
vt 0.111328 0.296875
vt 0.125000 0.287109
vt 0.125000 0.250000
vt 0.099609 0.250000
vt 0.111328 0.250000
vt 0.111328 0.287109
vt 0.099609 0.287109
vt 0.111328 0.296875
vt 0.125000 0.287109
vt 0.125000 0.250000
vt 0.099609 0.250000
vt 0.111328 0.250000
vt 0.111328 0.287109
vt 0.099609 0.287109
vt 0.111328 0.296875
vt 0.125000 0.287109
vt 0.125000 0.250000
vt 0.099609 0.250000
vt 0.111328 0.250000
vt 0.111328 0.287109
vt 0.099609 0.287109
vt 0.111328 0.296875
vt 0.125000 0.287109
vt 0.125000 0.250000
vt 0.099609 0.250000
vt 0.111328 0.250000
vt 0.111328 0.287109
vt 0.099609 0.287109
vt 0.111328 0.296875
vt 0.125000 0.287109
vt 0.125000 0.250000
vt 0.099609 0.250000
vt 0.111328 0.250000
vt 0.111328 0.287109
vt 0.099609 0.287109
vt 0.111328 0.296875
vt 0.125000 0.287109
vt 0.125000 0.250000
vt 0.099609 0.250000
vt 0.111328 0.250000
vt 0.111328 0.287109
vt 0.099609 0.287109
vt 0.111328 0.296875
vt 0.125000 0.287109
vt 0.125000 0.250000
vt 0.099609 0.250000
vt 0.111328 0.250000
vt 0.111328 0.287109
vt 0.099609 0.287109
vt 0.111328 0.296875
vt 0.125000 0.287109
vt 0.125000 0.250000
vt 0.099609 0.250000
vt 0.111328 0.250000
vt 0.111328 0.287109
vt 0.099609 0.287109
vt 0.111328 0.296875
vt 0.125000 0.287109
vt 0.125000 0.250000
vt 0.099609 0.250000
vt 0.111328 0.250000
vt 0.111328 0.287109
vt 0.099609 0.287109
vt 0.111328 0.296875
vt 0.125000 0.287109
vt 0.125000 0.250000
vt 0.099609 0.250000
vt 0.111328 0.250000
vt 0.111328 0.287109
vt 0.099609 0.287109
vt 0.111328 0.296875
vt 0.125000 0.287109
vt 0.125000 0.250000
vt 0.099609 0.250000
vt 0.111328 0.250000
vt 0.111328 0.287109
vt 0.099609 0.287109
vt 0.111328 0.296875
vt 0.125000 0.287109
vt 0.125000 0.250000
vt 0.099609 0.250000
vt 0.111328 0.250000
vt 0.111328 0.287109
vt 0.099609 0.287109
vt 0.111328 0.296875
vt 0.125000 0.287109
vt 0.125000 0.250000
vt 0.099609 0.250000
vt 0.111328 0.250000
vt 0.111328 0.287109
vt 0.099609 0.287109
vt 0.111328 0.296875
vt 0.125000 0.287109
vt 0.125000 0.250000
vt 0.099609 0.250000
vt 0.111328 0.250000
vt 0.111328 0.287109
vt 0.099609 0.287109
vt 0.111328 0.296875
vt 0.125000 0.287109
vt 0.125000 0.250000
vt 0.099609 0.250000
vt 0.111328 0.250000
vt 0.111328 0.287109
vt 0.099609 0.287109
vt 0.111328 0.296875
vt 0.125000 0.287109
vt 0.125000 0.250000
vt 0.099609 0.250000
vt 0.111328 0.250000
vt 0.111328 0.287109
vt 0.099609 0.287109
vt 0.111328 0.296875
vt 0.125000 0.287109
vt 0.125000 0.250000
vt 0.099609 0.250000
vt 0.111328 0.250000
vt 0.111328 0.287109
vt 0.099609 0.287109
vt 0.111328 0.296875
vt 0.125000 0.287109
vt 0.125000 0.250000
vt 0.099609 0.250000
vt 0.111328 0.250000
vt 0.111328 0.287109
vt 0.099609 0.287109
vt 0.111328 0.296875
vt 0.125000 0.287109
vt 0.125000 0.250000
vt 0.099609 0.250000
vt 0.111328 0.250000
vt 0.111328 0.287109
vt 0.099609 0.287109
vt 0.111328 0.296875
vt 0.125000 0.287109
vt 0.125000 0.250000
vt 0.099609 0.250000
vt 0.111328 0.250000
vt 0.111328 0.287109
vt 0.099609 0.287109
vt 0.111328 0.296875
vt 0.125000 0.287109
vt 0.125000 0.250000
vt 0.099609 0.250000
vt 0.111328 0.250000
vt 0.111328 0.287109
vt 0.099609 0.287109
vt 0.111328 0.296875
vt 0.125000 0.287109
vt 0.125000 0.250000
vt 0.099609 0.250000
vt 0.111328 0.250000
vt 0.111328 0.287109
vt 0.099609 0.287109
vt 0.111328 0.296875
vt 0.125000 0.287109
vt 0.125000 0.250000
vt 0.099609 0.250000
vt 0.111328 0.250000
vt 0.111328 0.287109
vt 0.099609 0.287109
vt 0.111328 0.296875
vt 0.125000 0.287109
vt 0.125000 0.250000
vt 0.099609 0.250000
vt 0.111328 0.250000
vt 0.111328 0.287109
vt 0.099609 0.287109
vt 0.111328 0.296875
vt 0.125000 0.287109
vt 0.125000 0.250000
vt 0.099609 0.250000
vt 0.111328 0.250000
vt 0.111328 0.287109
vt 0.099609 0.287109
vt 0.111328 0.296875
vt 0.125000 0.287109
vt 0.125000 0.250000
vt 0.099609 0.250000
vt 0.111328 0.250000
vt 0.111328 0.287109
vt 0.099609 0.287109
vt 0.111328 0.296875
vt 0.125000 0.287109
vt 0.125000 0.250000
vt 0.099609 0.250000
vt 0.111328 0.250000
vt 0.111328 0.287109
vt 0.099609 0.287109
vt 0.111328 0.296875
vt 0.125000 0.287109
vt 0.125000 0.250000
vt 0.099609 0.250000
vt 0.111328 0.250000
vt 0.111328 0.287109
vt 0.099609 0.287109
vt 0.111328 0.296875
vt 0.125000 0.287109
vt 0.125000 0.250000
vt 0.099609 0.250000
vt 0.111328 0.250000
vt 0.111328 0.287109
vt 0.099609 0.287109
vt 0.111328 0.296875
vt 0.125000 0.287109
vt 0.125000 0.250000
vt 0.099609 0.250000
vt 0.111328 0.250000
vt 0.111328 0.287109
vt 0.099609 0.287109
vt 0.111328 0.296875
vt 0.125000 0.287109
vt 0.125000 0.250000
vt 0.099609 0.250000
vt 0.111328 0.250000
vt 0.111328 0.287109
vt 0.099609 0.287109
vt 0.111328 0.296875
vt 0.125000 0.287109
vt 0.125000 0.250000
vt 0.099609 0.250000
vt 0.111328 0.250000
vt 0.111328 0.287109
vt 0.099609 0.287109
vt 0.111328 0.296875
vt 0.125000 0.287109
vt 0.125000 0.250000
vt 0.099609 0.250000
vt 0.111328 0.250000
vt 0.111328 0.287109
vt 0.099609 0.287109
vt 0.111328 0.296875
vt 0.125000 0.287109
vt 0.125000 0.250000
vt 0.099609 0.250000
vt 0.111328 0.250000
vt 0.111328 0.287109
vt 0.099609 0.287109
vt 0.111328 0.296875
vt 0.125000 0.287109
vt 0.125000 0.250000
vt 0.099609 0.250000
vt 0.111328 0.250000
vt 0.111328 0.287109
vt 0.099609 0.287109
vt 0.111328 0.296875
vt 0.125000 0.287109
vt 0.125000 0.250000
vt 0.099609 0.250000
vt 0.111328 0.250000
vt 0.111328 0.287109
vt 0.099609 0.287109
vt 0.111328 0.296875
vt 0.125000 0.287109
vt 0.125000 0.250000
vt 0.099609 0.250000
vt 0.111328 0.250000
vt 0.111328 0.287109
vt 0.099609 0.287109
vt 0.111328 0.296875
vt 0.125000 0.287109
vt 0.125000 0.250000
vt 0.099609 0.250000
vt 0.111328 0.250000
vt 0.111328 0.287109
vt 0.099609 0.287109
vt 0.111328 0.296875
vt 0.125000 0.287109
vt 0.125000 0.250000
vt 0.099609 0.250000
vt 0.111328 0.250000
vt 0.111328 0.287109
vt 0.099609 0.287109
vt 0.111328 0.296875
vt 0.125000 0.287109
vt 0.125000 0.250000
vt 0.099609 0.250000
vt 0.111328 0.250000
vt 0.111328 0.287109
vt 0.099609 0.287109
vt 0.111328 0.296875
vt 0.125000 0.287109
vt 0.125000 0.250000
vt 0.099609 0.250000
vt 0.111328 0.250000
vt 0.111328 0.287109
vt 0.099609 0.287109
vt 0.111328 0.296875
vt 0.125000 0.287109
vt 0.125000 0.250000
vn 0.0505 0.7087 0.7036
vn -0.3638 0.8207 0.4405
vn -0.3582 0.8206 0.4453
vn -0.6859 0.7247 0.0658
vn -0.3265 0.7218 -0.6102
vn 0.1936 0.8434 -0.5011
vn 0.1981 0.8434 -0.4994
vn 0.1956 0.8434 -0.5004
vn 0.6628 0.7100 -0.2377
vn 0.3318 0.5860 -0.7392
vn 0.6566 0.6887 -0.3075
vn 0.6536 0.6887 -0.3138
vn 0.6467 0.6886 -0.3281
vn 0.7825 0.5881 0.2042
vn 0.7331 0.6287 -0.2595
vn 0.6327 0.7236 0.2756
vn 0.6362 0.7238 0.2670
vn 0.6435 0.7241 0.2478
vn 0.3511 0.6049 0.7146
vn 0.7753 0.5820 0.2454
vn 0.3750 0.7005 0.6071
vn 0.3800 0.7003 0.6042
vn 0.3968 0.6997 0.5941
vn -0.1289 0.6093 0.7823
vn 0.3748 0.7223 0.5812
vn -0.1560 0.8692 0.4692
vn -0.1571 0.8692 0.4688
vn -0.1475 0.8690 0.4723
vn -0.6392 0.7404 0.2078
vn -0.3066 0.6059 0.7341
vn -0.6294 0.7191 0.2944
vn -0.6297 0.7191 0.2938
vn -0.6279 0.7191 0.2976
vn -0.7569 0.6087 -0.2378
vn -0.7165 0.6571 0.2344
vn -0.6052 0.7421 -0.2880
vn -0.6029 0.7418 -0.2936
vn -0.6013 0.7416 -0.2975
vn -0.3092 0.6048 -0.7339
vn -0.7486 0.6016 -0.2787
vn -0.3533 0.7004 -0.6201
vn -0.3443 0.7003 -0.6252
vn -0.3399 0.7003 -0.6277
vn 0.1609 0.5937 -0.7884
vn -0.1751 0.7437 -0.6451
vn 0.2850 0.8550 -0.4332
vn 0.2864 0.8550 -0.4323
vn 0.2815 0.8550 -0.4355
vn 0.6704 0.7348 -0.1025
vn 0.4847 0.6048 -0.6319
vn 0.6951 0.7008 -0.1605
vn 0.6930 0.7008 -0.1691
vn 0.6889 0.7006 -0.1862
vn 0.7165 0.6098 0.3388
vn 0.7559 0.6493 -0.0837
vn 0.5484 0.7395 0.3904
vn 0.5527 0.7396 0.3840
vn 0.5631 0.7398 0.3681
vn 0.2011 0.6315 0.7488
vn 0.6853 0.6044 0.4062
vn 0.2349 0.7172 0.6561
vn 0.2383 0.7171 0.6550
vn 0.2541 0.7165 0.6496
vn -0.2739 0.6330 0.7240
vn 0.2815 0.7895 0.5453
vn -0.1769 0.9331 0.3130
vn -0.1776 0.9331 0.3126
vn -0.1707 0.9329 0.3170
vn -0.5860 0.8103 -0.0094
vn -0.4643 0.6294 0.6231
vn -0.6673 0.7301 0.1466
vn -0.6677 0.7301 0.1453
vn -0.6672 0.7301 0.1473
vn -0.6842 0.6266 -0.3730
vn -0.7348 0.6763 0.0517
vn -0.5204 0.7517 -0.4050
vn -0.5160 0.7514 -0.4112
vn -0.5130 0.7511 -0.4154
vn -0.1591 0.6252 -0.7640
vn -0.6509 0.6192 -0.4391
vn -0.2108 0.7102 -0.6716
vn -0.2013 0.7102 -0.6746
vn -0.1974 0.7102 -0.6758
vn 0.3018 0.6124 -0.7306
vn -0.0116 0.6764 -0.7364
vn 0.4105 0.7766 -0.4779
vn 0.4099 0.7766 -0.4783
vn 0.4035 0.7765 -0.4839
vn 0.7272 0.6793 -0.0985
vn 0.5710 0.6120 -0.5472
vn 0.7059 0.7058 -0.0593
vn 0.7050 0.7058 -0.0689
vn 0.7032 0.7055 -0.0873
vn 0.6589 0.6193 0.4270
vn 0.7525 0.6579 0.0303
vn 0.4817 0.7469 0.4584
vn 0.4860 0.7470 0.4536
vn 0.4979 0.7472 0.4402
vn 0.0941 0.6433 0.7598
vn 0.6103 0.6145 0.4999
vn 0.1361 0.7250 0.6752
vn 0.1385 0.7249 0.6748
vn 0.1532 0.7244 0.6721
vn -0.3700 0.6429 0.6706
vn 0.1415 0.7794 0.6103
vn -0.2764 0.9045 0.3246
vn -0.2710 0.9045 0.3293
vn -0.6192 0.7837 -0.0494
vn -0.5533 0.6386 0.5347
vn -0.6782 0.7335 0.0451
vn -0.6783 0.7335 0.0431
vn -0.6782 0.7335 0.0438
vn -0.6226 0.6330 -0.4601
vn -0.7276 0.6829 -0.0655
vn -0.4535 0.7546 -0.4741
vn -0.4477 0.7542 -0.4803
vn -0.4438 0.7539 -0.4844
vn -0.0534 0.6329 -0.7724
vn -0.5719 0.6254 -0.5307
vn -0.1108 0.7136 -0.6917
vn -0.1016 0.7136 -0.6932
vn -0.0985 0.7135 -0.6936
vn 0.3945 0.6195 -0.6786
vn -0.1069 0.7978 -0.5934
vn 0.2908 0.9022 -0.3186
vn 0.2907 0.9022 -0.3186
vn 0.2851 0.9022 -0.3235
vn 0.6173 0.7859 0.0341
vn 0.5714 0.6221 -0.5352
vn 0.6996 0.7120 -0.0594
vn 0.6988 0.7120 -0.0687
vn 0.6971 0.7117 -0.0865
vn 0.6572 0.6295 0.4144
vn 0.7427 0.6685 0.0384
vn 0.4766 0.7534 0.4530
vn 0.4808 0.7535 0.4483
vn 0.4922 0.7537 0.4355
vn 0.1015 0.6547 0.7490
vn 0.5633 0.5480 0.6183
vn 0.0898 0.6722 0.7349
vn 0.0933 0.6719 0.7347
vn 0.1091 0.6705 0.7338
vn -0.4000 0.6280 0.6675
vn -0.5531 0.6494 0.5219
vn -0.6714 0.7397 0.0441
vn -0.6716 0.7397 0.0421
vn -0.6715 0.7397 0.0430
vn -0.6206 0.6434 -0.4482
vn -0.7167 0.6934 -0.0742
vn -0.4473 0.7610 -0.4699
vn -0.4417 0.7606 -0.4758
vn -0.4379 0.7603 -0.4798
vn -0.0600 0.6442 -0.7625
vn -0.5593 0.6357 -0.5320
vn -0.1093 0.7197 -0.6856
vn -0.1003 0.7197 -0.6870
vn -0.0973 0.7196 -0.6875
vn 0.3828 0.6297 -0.6760
vn 0.0194 0.7365 -0.6761
vn 0.4041 0.8518 -0.3332
vn 0.4025 0.8518 -0.3352
vn 0.3953 0.8518 -0.3436
vn 0.6744 0.7318 0.0984
vn 0.6506 0.5994 -0.4663
vn 0.7129 0.6994 0.0516
vn 0.7136 0.6993 0.0411
vn 0.7148 0.6989 0.0208
vn 0.5830 0.6094 0.5373
vn 0.7370 0.6503 0.1839
vn 0.3563 0.7646 0.5369
vn 0.3602 0.7646 0.5344
vn 0.3751 0.7642 0.5247
vn -0.1167 0.6663 0.7364
vn 0.1606 0.6136 0.7731
vn -0.3355 0.7284 0.5973
vn -0.3354 0.7284 0.5974
vn -0.3272 0.7282 0.6022
vn -0.7341 0.6319 0.2484
vn 0.0258 0.7533 0.6572
vn -0.3601 0.8823 0.3031
vn -0.3598 0.8823 0.3035
vn -0.3554 0.8822 0.3087
vn -0.6409 0.7550 -0.1383
vn -0.6356 0.6265 0.4510
vn -0.6863 0.7244 -0.0642
vn -0.6860 0.7244 -0.0673
vn -0.6860 0.7244 -0.0680
vn -0.5438 0.6189 -0.5668
vn -0.7230 0.6686 -0.1735
vn -0.3819 0.7452 -0.5466
vn -0.3741 0.7447 -0.5526
vn -0.3691 0.7444 -0.5564
vn 0.0763 0.6187 -0.7819
vn -0.4977 0.6117 -0.6149
vn -0.0020 0.7052 -0.7090
vn 0.0067 0.7052 -0.7089
vn 0.0084 0.7052 -0.7089
vn 0.5093 0.6069 -0.6102
vn 0.0980 0.7044 -0.7030
vn 0.4664 0.8351 -0.2916
vn 0.4639 0.8351 -0.2955
vn 0.4561 0.8350 -0.3076
vn 0.6828 0.7010 0.2056
vn 0.7118 0.5728 -0.4064
vn 0.7141 0.6842 0.1479
vn 0.5567 0.8255 0.0929
vn 0.6178 0.6439 -0.4514
vn 0.3431 0.9391 0.0191
vn 0.4036 0.6606 0.6330
vn 0.5007 0.5852 0.6378
vn 0.7534 0.6197 0.2195
vn 0.3426 0.7277 0.5942
vn 0.3465 0.7277 0.5918
vn 0.3623 0.7279 0.5821
vn -0.1699 0.6059 0.7772
vn 0.3763 0.5815 0.7213
vn -0.1793 0.7094 0.6816
vn -0.1787 0.7094 0.6818
vn -0.1663 0.7090 0.6853
vn -0.6755 0.6060 0.4199
vn -0.0571 0.7231 0.6883
vn -0.4235 0.8661 0.2654
vn -0.4230 0.8661 0.2661
vn -0.0571 0.7231 0.6884
vn -0.4195 0.8661 0.2716
vn -0.6482 0.7210 -0.2447
vn -0.6994 0.5992 0.3896
vn -0.6897 0.7067 -0.1574
vn -0.6888 0.7067 -0.1617
vn -0.6883 0.7067 -0.1636
vn -0.4608 0.5911 -0.6620
vn -0.7249 0.6400 -0.2547
vn -0.3199 0.7270 -0.6075
vn -0.3101 0.7266 -0.6131
vn -0.3042 0.7262 -0.6164
vn 0.2002 0.5893 -0.7826
vn -0.4442 0.5842 -0.6792
vn 0.0922 0.6886 -0.7192
vn 0.1002 0.6886 -0.7182
vn 0.1001 0.6886 -0.7182
vn 0.6137 0.5803 -0.5354
vn 0.5600 0.8231 0.0938
vn 0.6191 0.6430 -0.4508
vn 0.3506 0.9363 0.0208
vn 0.4050 0.6596 0.6331
vn 0.4841 0.5789 0.6561
vn -0.0696 0.7070 0.7038
vn -0.0685 0.7070 0.7039
vn -0.0541 0.7065 0.7056
vn -0.5989 0.6059 0.5236
vn -0.2799 0.9434 0.1781
vn 0.0417 0.7613 0.6470
vn -0.0981 0.9920 0.0790
vn -0.5714 0.7600 -0.3098
vn 0.2738 0.7258 -0.6310
vn 0.5233 0.8050 -0.2793
vn 0.5210 0.8050 -0.2836
vn 0.5154 0.8049 -0.2941
vn 0.6702 0.7328 0.1170
vn 0.7098 0.6582 -0.2510
vn 0.6496 0.7369 0.1869
vn 0.6521 0.7368 0.1786
vn 0.6568 0.7364 0.1622
vn 0.4679 0.6724 0.5735
vn 0.6299 0.7103 0.3142
vn 0.2649 0.7841 0.5612
vn 0.2673 0.7841 0.5600
vn 0.2785 0.7841 0.5545
vn -0.1480 0.7032 0.6954
vn 0.3285 0.6710 0.6647
vn -0.1162 0.7609 0.6383
vn -0.1157 0.7609 0.6384
vn -0.1064 0.7606 0.6403
vn -0.5361 0.6940 0.4805
vn -0.1035 0.8426 0.5284
vn -0.3338 0.9287 0.1615
vn -0.3332 0.9287 0.1625
vn -0.3309 0.9287 0.1670
vn -0.4983 0.8346 -0.2348
vn -0.6908 0.6874 0.2241
vn -0.6196 0.7573 -0.2064
vn -0.6184 0.7573 -0.2101
vn -0.6178 0.7572 -0.2117
vn -0.4230 0.6766 -0.6026
vn -0.5904 0.7258 -0.3529
vn -0.2324 0.7789 -0.5824
vn -0.2244 0.7785 -0.5861
vn -0.2197 0.7783 -0.5882
vn 0.1844 0.6824 -0.7073
vn -0.2828 0.6687 -0.6876
vn 0.1468 0.7389 -0.6577
vn 0.1521 0.7388 -0.6565
vn 0.1516 0.7388 -0.6566
vn 0.5574 0.6648 -0.4973
vn 0.0705 0.6740 -0.7353
vn 0.4640 0.7761 -0.4270
vn 0.4623 0.7761 -0.4288
vn 0.4552 0.7760 -0.4365
vn 0.7349 0.6780 -0.0116
vn 0.6290 0.6093 -0.4827
vn 0.7076 0.7062 0.0227
vn 0.5044 0.8634 -0.0064
vn 0.5125 0.6897 -0.5114
vn 0.2455 0.9685 -0.0407
vn 0.4907 0.7032 0.5145
vn 0.6021 0.6187 0.5046
vn 0.7458 0.6566 0.1124
vn 0.4241 0.7489 0.5092
vn 0.4283 0.7489 0.5056
vn 0.4414 0.7490 0.4940
vn -0.0023 0.6436 0.7654
vn 0.5521 0.6139 0.5641
vn 0.0547 0.7272 0.6843
vn 0.0565 0.7271 0.6842
vn 0.0707 0.7266 0.6833
vn -0.4546 0.6419 0.6175
vn 0.0671 0.7812 0.6206
vn -0.3152 0.9047 0.2865
vn -0.1722 0.9718 0.1612
vn 0.1637 0.8165 0.5536
vn -0.0038 0.9997 0.0254
vn -0.5362 0.8180 -0.2080
vn -0.6111 0.7815 -0.1252
vn -0.6131 0.6367 0.4677
vn -0.6803 0.7320 -0.0364
vn -0.6802 0.7320 -0.0392
vn -0.6801 0.7320 -0.0394
vn -0.5632 0.6293 -0.5354
vn -0.7183 0.6796 -0.1487
vn -0.3967 0.7529 -0.5251
vn -0.3895 0.7525 -0.5310
vn -0.3849 0.7522 -0.5349
vn 0.0403 0.6300 -0.7755
vn -0.5119 0.6220 -0.5925
vn -0.0295 0.7125 -0.7011
vn -0.0207 0.7124 -0.7014
vn -0.0186 0.7124 -0.7015
vn 0.4759 0.6167 -0.6270
vn -0.4583 0.6162 -0.6405
vn 0.1769 0.7829 -0.5965
vn 0.1837 0.7828 -0.5944
vn 0.1811 0.7829 -0.5952
vn 0.7445 0.6034 -0.2856
vn 0.2226 0.5003 -0.8368
vn 0.6741 0.6359 -0.3757
vn 0.6705 0.6359 -0.3821
vn 0.6611 0.6358 -0.3984
vn 0.8329 0.5008 0.2353
vn 0.7397 0.5398 -0.4018
vn 0.7038 0.6650 0.2499
vn 0.7073 0.6653 0.2389
vn 0.7148 0.6658 0.2140
vn 0.3726 0.5065 0.7776
vn 0.8596 0.4931 0.1335
vn 0.4416 0.6446 0.6241
vn 0.4480 0.6444 0.6197
vn 0.4694 0.6437 0.6044
vn -0.1557 0.5195 0.8401
vn 0.4996 0.6105 0.6146
vn -0.1484 0.8074 0.5709
vn -0.1498 0.8075 0.5706
vn -0.1358 0.8071 0.5745
vn -0.7299 0.6310 0.2627
vn -0.1981 0.5125 0.8355
vn -0.6500 0.6648 0.3682
vn -0.6502 0.6648 0.3677
vn -0.6471 0.6648 0.3732
vn -0.8120 0.5203 -0.2643
vn -0.7293 0.5648 0.3860
vn -0.6824 0.6858 -0.2528
vn -0.6803 0.6856 -0.2591
vn -0.6788 0.6854 -0.2635
vn -0.3366 0.5094 -0.7920
vn -0.8424 0.5140 -0.1615
vn -0.4289 0.6479 -0.6294
vn -0.4187 0.6479 -0.6362
vn -0.4141 0.6479 -0.6393
vn 0.1820 0.5079 -0.8420
vn -0.6476 0.5715 -0.5040
vn 0.0093 0.7537 -0.6571
vn 0.0202 0.7537 -0.6569
vn 0.0215 0.7537 -0.6569
vn 0.6778 0.5571 -0.4798
vn -0.0371 0.4645 -0.8848
vn 0.5615 0.6120 -0.5568
vn 0.5598 0.6120 -0.5585
vn 0.5491 0.6120 -0.5691
vn 0.8855 0.4630 0.0384
vn 0.6040 0.5025 -0.6186
vn 0.7697 0.6358 0.0573
vn 0.7702 0.6362 0.0451
vn 0.7707 0.6368 0.0187
vn 0.5621 0.4606 0.6869
vn 0.8811 0.4557 -0.1263
vn 0.6071 0.6146 0.5036
vn 0.6143 0.6144 0.4950
vn 0.6334 0.6137 0.4713
vn 0.0512 0.4768 0.8775
vn 0.6808 0.5580 0.4744
vn 0.0113 0.7713 0.6364
vn 0.0102 0.7713 0.6364
vn 0.0294 0.7708 0.6364
vn -0.6657 0.5824 0.4665
vn 0.0666 0.4684 0.8810
vn -0.5402 0.6385 0.5481
vn -0.5403 0.6385 0.5480
vn -0.5324 0.6384 0.5558
vn -0.8726 0.4842 -0.0634
vn -0.5923 0.5235 0.6124
vn -0.7476 0.6616 -0.0580
vn -0.5800 0.8119 -0.0652
vn -0.4821 0.5929 0.6449
vn -0.3182 0.9475 -0.0307
vn -0.4361 0.5287 -0.7281
vn -0.5301 0.4698 -0.7058
vn -0.8722 0.4776 0.1051
vn -0.5961 0.6258 -0.5031
vn -0.5889 0.6258 -0.5113
vn -0.5853 0.6258 -0.5155
vn -0.0216 0.4722 -0.8812
vn -0.7969 0.5019 -0.3361
vn -0.1546 0.7061 -0.6910
vn -0.1419 0.7060 -0.6938
vn -0.1387 0.7060 -0.6944
vn 0.5981 0.4875 -0.6361
vn -0.3120 0.4025 -0.8606
vn 0.4302 0.5793 -0.6923
vn 0.4326 0.5793 -0.6908
vn 0.4212 0.5793 -0.6979
vn 0.9114 0.4001 -0.0966
vn 0.4095 0.4407 -0.7988
vn 0.7927 0.5969 -0.1240
vn 0.7905 0.5973 -0.1354
vn 0.7848 0.5981 -0.1626
vn 0.6895 0.3897 0.6105
vn 0.8302 0.3934 -0.3948
vn 0.7276 0.5771 0.3709
vn 0.7342 0.5770 0.3579
vn 0.7498 0.5762 0.3251
vn 0.1906 0.4089 0.8925
vn 0.8192 0.4837 0.3080
vn 0.1676 0.7157 0.6780
vn 0.1677 0.7157 0.6780
vn 0.1920 0.7150 0.6722
vn -0.5869 0.5074 0.6309
vn 0.3407 0.3977 0.8519
vn -0.4142 0.6013 0.6832
vn -0.3986 0.6009 0.6928
vn -0.9041 0.4202 0.0774
vn -0.3940 0.4539 0.7992
vn -0.7709 0.6244 0.1257
vn -0.6894 0.7171 0.1024
vn -0.3162 0.4992 0.8067
vn -0.5341 0.8402 0.0939
vn -0.6077 0.4407 -0.6606
vn -0.6643 0.4027 -0.6297
vn -0.8262 0.4123 0.3839
vn -0.7181 0.5939 -0.3628
vn -0.7140 0.5939 -0.3708
vn -0.7123 0.5939 -0.3740
vn -0.1626 0.4101 -0.8974
vn -0.8450 0.5038 -0.1794
vn -0.2803 0.7082 -0.6480
vn -0.2685 0.7081 -0.6530
vn -0.2643 0.7080 -0.6548
vn 0.4686 0.4887 -0.7360
vn -0.4662 0.4037 -0.7872
vn 0.2898 0.5804 -0.7609
vn 0.2964 0.5805 -0.7584
vn 0.2879 0.5804 -0.7617
vn 0.8771 0.4010 -0.2642
vn 0.2527 0.4418 -0.8607
vn 0.7546 0.5974 -0.2712
vn 0.7514 0.5978 -0.2794
vn 0.7420 0.5985 -0.3019
vn 0.7910 0.3885 0.4726
vn 0.7413 0.3947 -0.5428
vn 0.7845 0.5759 0.2299
vn 0.7888 0.5758 0.2148
vn 0.7979 0.5752 0.1803
vn 0.3559 0.4062 0.8416
vn 0.8621 0.4833 0.1517
vn 0.2924 0.7120 0.6383
vn 0.2944 0.7120 0.6374
vn 0.3193 0.7113 0.6261
vn -0.4530 0.5060 0.7339
vn 0.4948 0.3953 0.7739
vn -0.2772 0.5993 0.7510
vn -0.2770 0.5992 0.7511
vn -0.2568 0.5987 0.7586
vn -0.8722 0.4209 0.2492
vn -0.2322 0.4516 0.8614
vn -0.7320 0.6257 0.2695
vn -0.7325 0.6257 0.2683
vn -0.7307 0.6258 0.2727
vn -0.7696 0.4041 -0.4944
vn -0.7364 0.4121 0.5365
vn -0.7716 0.5962 -0.2215
vn -0.7698 0.5962 -0.2278
vn -0.7692 0.5962 -0.2297
vn -0.3265 0.4112 -0.8510
vn -0.7180 0.5000 -0.4842
vn -0.0182 0.7043 -0.7096
vn -0.0060 0.7042 -0.7099
vn -0.0052 0.7042 -0.7100
vn 0.7096 0.4863 -0.5099
vn -0.0316 0.4484 0.8932
vn -0.6524 0.6263 0.4266
vn -0.6529 0.6263 0.4259
vn -0.6483 0.6265 0.4327
vn -0.8589 0.4057 -0.3124
vn -0.5949 0.4111 0.6907
vn -0.7995 0.5989 -0.0454
vn -0.7993 0.5989 -0.0493
vn -0.7993 0.5989 -0.0488
vn -0.5043 0.4125 -0.7586
vn 0.8910 0.3923 -0.2283
vn 0.6427 0.5790 0.5016
vn 0.6505 0.5789 0.4917
vn 0.6722 0.5780 0.4626
vn 0.0124 0.4117 0.9112
usemtl frostland_tilesheet
s 1
f 82/268/58 85/269/59 84/270/59 87/271/58
f 87/271/58 84/270/59 86/272/60
f 86/272/60 84/270/59 88/273/61
f 88/273/61 84/270/59 85/269/59 83/274/61
f 89/275/62 92/276/63 91/277/64 94/278/62
f 94/278/62 91/277/64 93/279/65
f 93/279/65 91/277/64 95/280/66
f 95/280/66 91/277/64 92/276/63 90/281/66
f 96/282/67 99/283/68 98/284/69 101/285/67
f 101/285/67 98/284/69 100/286/70
f 100/286/70 98/284/69 102/287/71
f 102/287/71 98/284/69 99/283/68 97/288/71
f 103/289/72 106/290/73 105/291/74 108/292/72
f 108/292/72 105/291/74 107/293/75
f 107/293/75 105/291/74 109/294/76
f 109/294/76 105/291/74 106/290/73 104/295/76
f 110/296/77 113/297/78 112/298/79 115/299/77
f 115/299/77 112/298/79 114/300/80
f 114/300/80 112/298/79 116/301/81
f 116/301/81 112/298/79 113/297/78 111/302/81
f 117/303/82 120/304/83 119/305/84 122/306/82
f 122/306/82 119/305/84 121/307/85
f 121/307/85 119/305/84 123/308/86
f 123/308/86 119/305/84 120/304/83 118/309/86
f 124/310/87 127/311/88 126/312/89 129/313/87
f 129/313/87 126/312/89 128/314/90
f 128/314/90 126/312/89 130/315/91
f 130/315/91 126/312/89 127/311/88 125/316/91
f 131/317/92 134/318/93 133/319/94 136/320/92
f 136/320/92 133/319/94 135/321/95
f 135/321/95 133/319/94 137/322/96
f 137/322/96 133/319/94 134/318/93 132/323/96
f 138/324/97 141/325/98 140/326/99 143/327/97
f 143/327/97 140/326/99 142/328/100
f 142/328/100 140/326/99 144/329/101
f 144/329/101 140/326/99 141/325/98 139/330/101
f 145/331/102 148/332/103 147/333/104 150/334/102
f 150/334/102 147/333/104 149/335/105
f 149/335/105 147/333/104 151/336/106
f 151/336/106 147/333/104 148/332/103 146/337/106
f 152/338/107 155/339/108 154/340/109 157/341/107
f 157/341/107 154/340/109 156/342/110
f 156/342/110 154/340/109 158/343/111
f 158/343/111 154/340/109 155/339/108 153/344/111
f 159/345/112 162/346/113 161/347/114 164/348/112
f 164/348/112 161/347/114 163/349/115
f 163/349/115 161/347/114 165/350/116
f 165/350/116 161/347/114 162/346/113 160/351/116
f 166/352/117 169/353/118 168/354/119 171/355/117
f 171/355/117 168/354/119 170/356/120
f 170/356/120 168/354/119 172/357/121
f 172/357/121 168/354/119 169/353/118 167/358/121
f 173/359/122 176/360/123 175/361/124 178/362/122
f 178/362/122 175/361/124 177/363/125
f 177/363/125 175/361/124 179/364/126
f 179/364/126 175/361/124 176/360/123 174/365/126
f 180/366/127 183/367/128 182/368/129 185/369/127
f 185/369/127 182/368/129 184/370/130
f 184/370/130 182/368/129 186/371/131
f 186/371/131 182/368/129 183/367/128 181/372/131
f 187/373/132 190/374/133 189/375/134 192/376/132
f 192/376/132 189/375/134 191/377/135
f 191/377/135 189/375/134 193/378/136
f 193/378/136 189/375/134 190/374/133 188/379/136
f 194/380/137 197/381/138 196/382/139 199/383/137
f 199/383/137 196/382/139 198/384/140
f 198/384/140 196/382/139 200/385/141
f 200/385/141 196/382/139 197/381/138 195/386/141
f 201/387/142 204/388/143 203/389/144 206/390/142
f 206/390/142 203/389/144 205/391/145
f 205/391/145 203/389/144 207/392/146
f 207/392/146 203/389/144 204/388/143 202/393/146
f 208/394/147 211/395/148 210/396/149 213/397/147
f 213/397/147 210/396/149 212/398/150
f 212/398/150 210/396/149 214/399/151
f 214/399/151 210/396/149 211/395/148 209/400/151
f 215/401/152 218/402/153 217/403/154 220/404/152
f 220/404/152 217/403/154 219/405/155
f 219/405/155 217/403/154 221/406/156
f 221/406/156 217/403/154 218/402/153 216/407/156
f 222/408/157 225/409/158 224/410/159 227/411/157
f 227/411/157 224/410/159 226/412/160
f 226/412/160 224/410/159 228/413/161
f 228/413/161 224/410/159 225/409/158 223/414/161
f 229/415/162 232/416/163 231/417/163 234/418/162
f 234/418/162 231/417/163 233/419/164
f 233/419/164 231/417/163 235/420/165
f 235/420/165 231/417/163 232/416/163 230/421/165
f 236/422/166 239/423/167 238/424/168 241/425/166
f 241/425/166 238/424/168 240/426/169
f 240/426/169 238/424/168 242/427/170
f 242/427/170 238/424/168 239/423/167 237/428/170
f 243/429/171 246/430/172 245/431/173 248/432/171
f 248/432/171 245/431/173 247/433/174
f 247/433/174 245/431/173 249/434/175
f 249/434/175 245/431/173 246/430/172 244/435/175
f 250/436/176 253/437/177 252/438/178 255/439/176
f 255/439/176 252/438/178 254/440/179
f 254/440/179 252/438/178 256/441/180
f 256/441/180 252/438/178 253/437/177 251/442/180
f 257/443/181 260/444/182 259/445/183 262/446/181
f 262/446/181 259/445/183 261/447/184
f 261/447/184 259/445/183 263/448/185
f 263/448/185 259/445/183 260/444/182 258/449/185
f 264/450/186 267/451/187 266/452/188 269/453/186
f 269/453/186 266/452/188 268/454/189
f 268/454/189 266/452/188 270/455/190
f 270/455/190 266/452/188 267/451/187 265/456/190
f 271/457/191 274/458/192 273/459/193 276/460/191
f 276/460/191 273/459/193 275/461/194
f 275/461/194 273/459/193 277/462/195
f 277/462/195 273/459/193 274/458/192 272/463/195
f 278/464/196 281/465/197 280/466/198 283/467/196
f 283/467/196 280/466/198 282/468/199
f 282/468/199 280/466/198 284/469/200
f 284/469/200 280/466/198 281/465/197 279/470/200
f 285/471/201 288/472/202 287/473/203 290/474/201
f 290/474/201 287/473/203 289/475/204
f 289/475/204 287/473/203 291/476/205
f 291/476/205 287/473/203 288/472/202 286/477/205
f 292/478/206 295/479/207 294/480/208 297/481/206
f 297/481/206 294/480/208 296/482/209
f 296/482/209 294/480/208 298/483/210
f 298/483/210 294/480/208 295/479/207 293/484/210
f 299/485/211 302/486/212 301/487/213 304/488/211
f 304/488/211 301/487/213 303/489/214
f 303/489/214 301/487/213 305/490/215
f 305/490/215 301/487/213 302/486/212 300/491/215
f 306/492/216 309/493/217 308/494/218 311/495/216
f 311/495/216 308/494/218 310/496/219
f 310/496/219 308/494/218 312/497/220
f 312/497/220 308/494/218 309/493/217 307/498/220
f 313/499/221 316/500/222 315/501/223 318/502/221
f 318/502/221 315/501/223 317/503/224
f 317/503/224 315/501/223 319/504/225
f 319/504/225 315/501/223 316/500/222 314/505/225
f 320/506/226 323/507/227 322/508/228 325/509/226
f 325/509/226 322/508/228 324/510/229
f 324/510/229 322/508/228 326/511/230
f 326/511/230 322/508/228 323/507/227 321/512/230
f 327/513/231 330/514/232 329/515/233 332/516/231
f 332/516/231 329/515/233 331/517/234
f 331/517/234 329/515/233 333/518/235
f 333/518/235 329/515/233 330/514/232 328/519/235
f 334/520/236 337/521/237 336/522/238 339/523/236
f 339/523/236 336/522/238 338/524/239
f 338/524/239 336/522/238 340/525/240
f 340/525/240 336/522/238 337/521/237 335/526/240
f 341/527/241 344/528/242 343/529/243 346/530/241
f 346/530/241 343/529/243 345/531/244
f 345/531/244 343/529/243 347/532/245
f 347/532/245 343/529/243 344/528/242 342/533/245
f 348/534/246 351/535/247 350/536/248 353/537/246
f 353/537/246 350/536/248 352/538/249
f 352/538/249 350/536/248 354/539/250
f 354/539/250 350/536/248 351/535/247 349/540/250
f 355/541/251 358/542/252 357/543/253 360/544/251
f 360/544/251 357/543/253 359/545/254
f 359/545/254 357/543/253 361/546/255
f 361/546/255 357/543/253 358/542/252 356/547/255
f 362/548/256 365/549/257 364/550/258 367/551/256
f 367/551/256 364/550/258 366/552/259
f 366/552/259 364/550/258 368/553/260
f 368/553/260 364/550/258 365/549/257 363/554/260
f 369/555/261 372/556/262 371/557/263 374/558/264
f 374/558/264 371/557/263 373/559/265
f 373/559/265 371/557/263 375/560/266
f 375/560/266 371/557/263 372/556/262 370/561/267
f 376/562/268 379/563/269 378/564/270 381/565/268
f 381/565/268 378/564/270 380/566/271
f 380/566/271 378/564/270 382/567/272
f 382/567/272 378/564/270 379/563/269 377/568/272
f 383/569/273 386/570/274 385/571/275 388/572/273
f 388/572/273 385/571/275 387/573/276
f 387/573/276 385/571/275 389/574/277
f 389/574/277 385/571/275 386/570/274 384/575/277
f 390/576/278 393/577/279 392/578/280 395/579/281
f 395/579/281 392/578/280 394/580/282
f 394/580/282 392/578/280 396/581/283
f 396/581/283 392/578/280 393/577/279 391/582/283
f 397/583/284 400/584/285 399/585/286 402/586/284
f 402/586/284 399/585/286 401/587/287
f 401/587/287 399/585/286 403/588/288
f 403/588/288 399/585/286 400/584/285 398/589/288
f 404/590/289 407/591/290 406/592/291 409/593/289
f 409/593/289 406/592/291 408/594/292
f 408/594/292 406/592/291 410/595/293
f 410/595/293 406/592/291 407/591/290 405/596/293
f 411/597/294 414/598/295 413/599/296 416/600/294
f 416/600/294 413/599/296 415/601/297
f 415/601/297 413/599/296 417/602/298
f 417/602/298 413/599/296 414/598/295 412/603/298
f 418/604/256 421/605/257 420/606/258 423/607/256
f 423/607/256 420/606/258 422/608/259
f 422/608/259 420/606/258 424/609/260
f 424/609/260 420/606/258 421/605/257 419/610/260
f 425/611/261 428/612/262 427/613/299 430/614/300
f 430/614/300 427/613/299 429/615/301
f 429/615/301 427/613/299 431/616/302
f 431/616/302 427/613/299 428/612/262 426/617/267
f 432/618/268 435/619/269 434/620/270 437/621/268
f 437/621/268 434/620/270 436/622/271
f 436/622/271 434/620/270 438/623/272
f 438/623/272 434/620/270 435/619/269 433/624/272
f 439/625/303 442/626/304 441/627/305 444/628/303
f 444/628/303 441/627/305 443/629/306
f 443/629/306 441/627/305 445/630/307
f 445/630/307 441/627/305 442/626/304 440/631/307
f 446/632/281 449/633/279 448/634/308 451/635/309
f 451/635/309 448/634/308 450/636/310
f 450/636/310 448/634/308 452/637/311
f 452/637/311 448/634/308 449/633/279 447/638/283
f 453/639/284 456/640/285 455/641/286 458/642/284
f 458/642/284 455/641/286 457/643/287
f 457/643/287 455/641/286 459/644/288
f 459/644/288 455/641/286 456/640/285 454/645/288
f 460/646/289 463/647/290 462/648/291 465/649/289
f 465/649/289 462/648/291 464/650/292
f 464/650/292 462/648/291 466/651/293
f 466/651/293 462/648/291 463/647/290 461/652/293
f 467/653/294 470/654/295 469/655/296 472/656/294
f 472/656/294 469/655/296 471/657/297
f 471/657/297 469/655/296 473/658/298
f 473/658/298 469/655/296 470/654/295 468/659/298
f 474/660/312 477/661/313 476/662/314 479/663/312
f 479/663/312 476/662/314 478/664/315
f 478/664/315 476/662/314 480/665/316
f 480/665/316 476/662/314 477/661/313 475/666/316
f 481/667/317 484/668/318 483/669/319 486/670/317
f 486/670/317 483/669/319 485/671/320
f 485/671/320 483/669/319 487/672/321
f 487/672/321 483/669/319 484/668/318 482/673/321
f 488/674/322 491/675/323 490/676/324 493/677/322
f 493/677/322 490/676/324 492/678/325
f 492/678/325 490/676/324 494/679/326
f 494/679/326 490/676/324 491/675/323 489/680/326
f 495/681/327 498/682/328 497/683/329 500/684/327
f 500/684/327 497/683/329 499/685/330
f 499/685/330 497/683/329 501/686/331
f 501/686/331 497/683/329 498/682/328 496/687/331
f 502/688/332 505/689/333 504/690/334 507/691/332
f 507/691/332 504/690/334 506/692/335
f 506/692/335 504/690/334 508/693/336
f 508/693/336 504/690/334 505/689/333 503/694/336
f 509/695/337 512/696/338 511/697/339 514/698/337
f 514/698/337 511/697/339 513/699/340
f 513/699/340 511/697/339 515/700/341
f 515/700/341 511/697/339 512/696/338 510/701/341
f 516/702/342 519/703/343 518/704/344 521/705/342
f 521/705/342 518/704/344 520/706/345
f 520/706/345 518/704/344 522/707/346
f 522/707/346 518/704/344 519/703/343 517/708/346
f 523/709/347 526/710/348 525/711/349 528/712/347
f 528/712/347 525/711/349 527/713/350
f 527/713/350 525/711/349 529/714/351
f 529/714/351 525/711/349 526/710/348 524/715/351
f 530/716/352 533/717/353 532/718/354 535/719/352
f 535/719/352 532/718/354 534/720/355
f 534/720/355 532/718/354 536/721/356
f 536/721/356 532/718/354 533/717/353 531/722/356
f 537/723/357 540/724/358 539/725/359 542/726/360
f 542/726/360 539/725/359 541/727/361
f 541/727/361 539/725/359 543/728/362
f 543/728/362 539/725/359 540/724/358 538/729/363
f 544/730/364 547/731/365 546/732/366 549/733/364
f 549/733/364 546/732/366 548/734/367
f 548/734/367 546/732/366 550/735/368
f 550/735/368 546/732/366 547/731/365 545/736/368
f 551/737/369 554/738/370 553/739/371 556/740/369
f 556/740/369 553/739/371 555/741/372
f 555/741/372 553/739/371 557/742/373
f 557/742/373 553/739/371 554/738/370 552/743/373
f 558/744/374 561/745/375 560/746/376 563/747/377
f 563/747/377 560/746/376 562/748/378
f 562/748/378 560/746/376 564/749/379
f 564/749/379 560/746/376 561/745/375 559/750/380
f 565/751/381 568/752/382 567/753/383 570/754/381
f 570/754/381 567/753/383 569/755/384
f 569/755/384 567/753/383 571/756/385
f 571/756/385 567/753/383 568/752/382 566/757/385
f 572/758/386 575/759/387 574/760/388 577/761/386
f 577/761/386 574/760/388 576/762/389
f 576/762/389 574/760/388 578/763/390
f 578/763/390 574/760/388 575/759/387 573/764/390
f 579/765/391 582/766/392 581/767/393 584/768/391
f 584/768/391 581/767/393 583/769/394
f 583/769/394 581/767/393 585/770/395
f 585/770/395 581/767/393 582/766/392 580/771/395
f 586/772/396 589/773/397 588/774/398 591/775/396
f 591/775/396 588/774/398 590/776/399
f 590/776/399 588/774/398 592/777/400
f 592/777/400 588/774/398 589/773/397 587/778/400
f 593/779/401 596/780/402 595/781/403 598/782/401
f 598/782/401 595/781/403 597/783/404
f 597/783/404 595/781/403 599/784/405
f 599/784/405 595/781/403 596/780/402 594/785/405
f 600/786/406 603/787/407 602/788/408 605/789/406
f 605/789/406 602/788/408 604/790/409
f 604/790/409 602/788/408 606/791/410
f 606/791/410 602/788/408 603/787/407 601/792/410
f 607/793/411 610/794/412 609/795/413 612/796/411
f 612/796/411 609/795/413 611/797/414
f 611/797/414 609/795/413 613/798/415
f 613/798/415 609/795/413 610/794/412 608/799/415
f 614/800/416 617/801/417 616/802/418 619/803/416
f 619/803/416 616/802/418 618/804/419
f 618/804/419 616/802/418 620/805/420
f 620/805/420 616/802/418 617/801/417 615/806/420
f 621/807/421 624/808/422 623/809/423 626/810/421
f 626/810/421 623/809/423 625/811/424
f 625/811/424 623/809/423 627/812/425
f 627/812/425 623/809/423 624/808/422 622/813/425
f 628/814/426 631/815/427 630/816/428 633/817/426
f 633/817/426 630/816/428 632/818/429
f 632/818/429 630/816/428 634/819/430
f 634/819/430 630/816/428 631/815/427 629/820/430
f 635/821/431 638/822/432 637/823/433 640/824/431
f 640/824/431 637/823/433 639/825/434
f 639/825/434 637/823/433 641/826/435
f 641/826/435 637/823/433 638/822/432 636/827/435
f 642/828/436 645/829/437 644/830/438 647/831/436
f 647/831/436 644/830/438 646/832/439
f 646/832/439 644/830/438 648/833/440
f 648/833/440 644/830/438 645/829/437 643/834/440
f 649/835/441 652/836/442 651/837/443 654/838/441
f 654/838/441 651/837/443 653/839/444
f 653/839/444 651/837/443 655/840/445
f 655/840/445 651/837/443 652/836/442 650/841/445
f 656/842/446 659/843/447 658/844/448 661/845/446
f 661/845/446 658/844/448 660/846/449
f 660/846/449 658/844/448 662/847/450
f 662/847/450 658/844/448 659/843/447 657/848/450
f 663/849/451 666/850/452 665/851/453 668/852/451
f 668/852/451 665/851/453 667/853/454
f 667/853/454 665/851/453 669/854/455
f 669/854/455 665/851/453 666/850/452 664/855/455
f 670/856/456 673/857/457 672/858/458 675/859/456
f 675/859/456 672/858/458 674/860/459
f 674/860/459 672/858/458 676/861/460
f 676/861/460 672/858/458 673/857/457 671/862/460
f 677/863/461 680/864/462 679/865/463 682/866/461
f 682/866/461 679/865/463 681/867/464
f 681/867/464 679/865/463 683/868/465
f 683/868/465 679/865/463 680/864/462 678/869/465
f 684/870/466 687/871/467 686/872/468 689/873/469
f 689/873/469 686/872/468 688/874/470
f 688/874/470 686/872/468 690/875/471
f 690/875/471 686/872/468 687/871/467 685/876/472
f 691/877/473 694/878/474 693/879/475 696/880/473
f 696/880/473 693/879/475 695/881/476
f 695/881/476 693/879/475 697/882/477
f 697/882/477 693/879/475 694/878/474 692/883/477
f 698/884/478 701/885/479 700/886/480 703/887/478
f 703/887/478 700/886/480 702/888/481
f 702/888/481 700/886/480 704/889/482
f 704/889/482 700/886/480 701/885/479 699/890/482
f 705/891/483 708/892/484 707/893/485 710/894/483
f 710/894/483 707/893/485 709/895/486
f 709/895/486 707/893/485 711/896/487
f 711/896/487 707/893/485 708/892/484 706/897/487
f 712/898/488 715/899/489 714/900/490 717/901/488
f 717/901/488 714/900/490 716/902/491
f 716/902/491 714/900/490 718/903/492
f 718/903/492 714/900/490 715/899/489 713/904/492
f 719/905/493 722/906/494 721/907/495 724/908/493
f 724/908/493 721/907/495 723/909/496
f 723/909/496 721/907/495 725/910/497
f 725/910/497 721/907/495 722/906/494 720/911/497
f 726/912/498 729/913/499 728/914/500 731/915/498
f 731/915/498 728/914/500 730/916/501
f 730/916/501 728/914/500 732/917/502
f 732/917/502 728/914/500 729/913/499 727/918/502
f 733/919/503 736/920/504 735/921/504 738/922/503
f 738/922/503 735/921/504 737/923/505
f 737/923/505 735/921/504 739/924/506
f 739/924/506 735/921/504 736/920/504 734/925/506
f 740/926/507 743/927/508 742/928/509 745/929/510
f 745/929/510 742/928/509 744/930/511
f 744/930/511 742/928/509 746/931/512
f 746/931/512 742/928/509 743/927/508 741/932/513
f 747/933/514 750/934/515 749/935/516 752/936/514
f 752/936/514 749/935/516 751/937/517
f 751/937/517 749/935/516 753/938/518
f 753/938/518 749/935/516 750/934/515 748/939/518
f 754/940/519 757/941/520 756/942/521 759/943/519
f 759/943/519 756/942/521 758/944/522
f 758/944/522 756/942/521 760/945/523
f 760/945/523 756/942/521 757/941/520 755/946/523
f 761/947/524 764/948/525 763/949/526 766/950/524
f 766/950/524 763/949/526 765/951/527
f 765/951/527 763/949/526 767/952/528
f 767/952/528 763/949/526 764/948/525 762/953/528
f 768/954/529 771/955/530 770/956/531 773/957/529
f 773/957/529 770/956/531 772/958/532
f 772/958/532 770/956/531 774/959/533
f 774/959/533 770/956/531 771/955/530 769/960/533
f 775/961/534 778/962/535 777/963/536 780/964/534
f 780/964/534 777/963/536 779/965/537
f 779/965/537 777/963/536 781/966/538
f 781/966/538 777/963/536 778/962/535 776/967/538
f 782/968/539 785/969/540 784/970/541 787/971/539
f 787/971/539 784/970/541 786/972/542
f 786/972/542 784/970/541 788/973/543
f 788/973/543 784/970/541 785/969/540 783/974/543
f 789/975/544 792/976/545 791/977/546 794/978/544
f 794/978/544 791/977/546 793/979/547
f 793/979/547 791/977/546 795/980/548
f 795/980/548 791/977/546 792/976/545 790/981/548
f 796/982/549 799/983/550 798/984/551 801/985/549
f 801/985/549 798/984/551 800/986/552
f 800/986/552 798/984/551 802/987/553
f 802/987/553 798/984/551 799/983/550 797/988/553
f 803/989/554 806/990/555 805/991/556 808/992/554
f 808/992/554 805/991/556 807/993/557
f 807/993/557 805/991/556 809/994/558
f 809/994/558 805/991/556 806/990/555 804/995/558
f 810/996/559 813/997/560 812/998/561 815/999/559
f 815/999/559 812/998/561 814/1000/562
f 814/1000/562 812/998/561 816/1001/563
f 816/1001/563 812/998/561 813/997/560 811/1002/563
f 817/1003/564 820/1004/565 819/1005/566 822/1006/564
f 822/1006/564 819/1005/566 821/1007/567
f 821/1007/567 819/1005/566 823/1008/568
f 823/1008/568 819/1005/566 820/1004/565 818/1009/568
f 824/1010/569 827/1011/570 826/1012/571 829/1013/569
f 829/1013/569 826/1012/571 828/1014/572
f 828/1014/572 826/1012/571 830/1015/573
f 830/1015/573 826/1012/571 827/1011/570 825/1016/573
f 831/1017/574 834/1018/575 833/1019/576 836/1020/574
f 836/1020/574 833/1019/576 835/1021/577
f 835/1021/577 833/1019/576 837/1022/578
f 837/1022/578 833/1019/576 834/1018/575 832/1023/578
