# Blender v2.93.5 OBJ File: 'Frostlands.blend'
# www.blender.org
mtllib SM_Bush_02.mtl
o Cylinder.012_export_temp_Cylinder.009
v 0.422835 0.306578 0.065708
v 0.126627 0.342928 0.236091
v 0.264138 0.447148 0.120777
v 0.168141 0.000000 0.188927
v 0.509973 0.044442 0.254219
v 0.090961 0.490832 0.363308
v -0.003157 0.187793 0.237585
v 0.306100 0.128503 0.190395
v 0.531323 0.210482 0.028061
v 0.566267 0.496101 0.058313
v 0.427005 0.587832 0.116097
v 0.183593 0.604462 0.272643
v 0.041036 0.466507 0.209376
v -0.302144 0.477597 0.195394
v -0.131128 0.550656 0.103285
v -0.223405 0.195929 0.385161
v 0.034514 0.382263 0.532957
v -0.405757 0.646159 0.181882
v -0.405757 0.310051 0.241283
v -0.112797 0.346617 0.360527
v 0.158731 0.408980 0.281902
v 0.157464 0.663175 0.143708
v 0.003327 0.716596 0.076359
v -0.286363 0.723420 0.084476
v 0.095555 0.306578 0.218363
v -0.240005 0.342928 0.282931
v -0.072425 0.447148 0.218717
v -0.185389 0.000000 0.251868
v 0.116512 0.044442 0.424979
v -0.315176 0.490832 0.391584
v -0.363193 0.187793 0.242055
v -0.055437 0.128503 0.298209
v 0.210389 0.210482 0.218120
v 0.233569 0.496101 0.258108
v 0.083077 0.587831 0.267361
v -0.198059 0.604462 0.336050
v -0.046251 0.578223 -0.020980
v -0.389431 0.584914 -0.037524
v -0.218415 0.628996 -0.146513
v -0.310692 0.368282 0.224046
v -0.052773 0.588763 0.313222
v -0.493044 0.742804 -0.098076
v -0.493044 0.437140 0.053801
v -0.200084 0.505884 0.157870
v 0.071444 0.543513 0.064837
v 0.070177 0.748351 -0.139502
v -0.083960 0.780583 -0.219193
v -0.373650 0.789421 -0.213333
v -0.285686 0.351471 0.218730
v -0.476184 0.339058 -0.067010
v -0.347430 0.461807 0.039871
v -0.438061 0.008402 0.036723
v -0.476246 0.120129 0.367094
v -0.600459 0.483471 -0.122076
v -0.492703 0.162337 -0.164013
v -0.424817 0.160706 0.147066
v -0.243475 0.276043 0.341001
v -0.261074 0.564220 0.322066
v -0.325788 0.630493 0.171840
v -0.499269 0.608110 -0.059321
v 0.366886 0.547665 -0.017889
v 0.078434 0.606347 0.159431
v 0.157784 0.611277 -0.032266
v 0.278664 0.408909 0.365523
v 0.555061 0.594351 0.254609
v -0.030095 0.771249 0.140448
v 0.036709 0.487153 0.317434
v 0.339897 0.519674 0.225776
v 0.509833 0.504178 -0.008061
v 0.404878 0.683924 -0.209034
v 0.235630 0.731344 -0.193085
v 0.003790 0.786107 -0.027907
v 0.397512 0.306578 -0.165334
v 0.354966 0.342928 0.173723
v 0.345819 0.447148 -0.005506
v 0.342349 0.000000 0.112170
v 0.600458 0.044442 -0.121262
v 0.434992 0.490832 0.278852
v 0.277944 0.187793 0.278190
v 0.426662 0.128503 0.002965
v 0.432852 0.210482 -0.274595
v 0.478052 0.496101 -0.284249
v 0.440236 0.587831 -0.138293
v 0.418466 0.604462 0.150293
v 0.166055 0.377332 -0.327688
v 0.454885 0.413682 -0.145076
v 0.288759 0.517902 -0.212968
v 0.393805 0.070754 -0.159814
v 0.292200 0.115196 -0.492663
v 0.584057 0.561586 -0.172834
v 0.516712 0.258547 -0.030957
v 0.330786 0.199257 -0.282547
v 0.082171 0.281236 -0.406113
v 0.092643 0.566855 -0.451131
v 0.208689 0.658586 -0.354869
v 0.460663 0.675216 -0.212513
v -0.141653 0.338762 -0.271193
v 0.186006 0.394984 -0.358200
v 0.025491 0.479665 -0.257540
v 0.134680 0.052224 -0.396006
v -0.182673 0.126135 -0.526050
v 0.250215 0.564130 -0.439430
v 0.312593 0.237307 -0.363322
v 0.000828 0.184904 -0.401239
v -0.255915 0.242437 -0.280527
v -0.282887 0.529484 -0.256216
v -0.134016 0.624201 -0.259975
v 0.139075 0.660901 -0.350010
v -0.361822 0.328410 -0.004734
v -0.186490 0.384633 -0.294887
v -0.232078 0.469314 -0.110986
v -0.249676 0.041873 -0.286445
v -0.568328 0.115784 -0.159621
v -0.196703 0.553779 -0.397925
v -0.098965 0.226955 -0.386484
v -0.349618 0.174552 -0.197253
v -0.450518 0.232086 0.067903
v -0.453041 0.519133 0.104125
v -0.348536 0.613850 -0.001965
v -0.214570 0.650549 -0.256403
v -0.232635 0.633802 -0.115880
v 0.080884 0.688969 -0.245316
v -0.037738 0.726827 -0.079292
v -0.052827 0.424260 -0.428615
v -0.361512 0.590840 -0.421477
v 0.168181 0.867014 -0.248598
v 0.165565 0.543573 -0.357576
v -0.151858 0.554701 -0.335204
v -0.365870 0.570208 -0.140892
v -0.322242 0.803743 0.024251
v -0.158243 0.868801 0.028693
v 0.097931 0.915277 -0.098772
v 0.065443 0.690641 -0.212856
v 0.369336 0.572525 -0.104281
v 0.207327 0.688391 -0.046000
v 0.280245 0.371968 -0.375182
v 0.157396 0.660242 -0.532957
v 0.507361 0.687019 -0.019595
v 0.427163 0.387715 -0.162711
v 0.218460 0.547121 -0.342751
v -0.031552 0.692178 -0.326921
v -0.001876 0.903867 -0.131931
v 0.128100 0.885954 -0.013892
v 0.390723 0.786956 0.058640
vt 0.136768 0.287186
vt 0.143226 0.279996
vt 0.153887 0.287326
vt 0.144210 0.294937
vt 0.164619 0.278883
vt 0.155029 0.266856
vt 0.164212 0.259814
vt 0.171955 0.273112
vt 0.136768 0.271263
vt 0.148135 0.259814
vt 0.162268 0.295070
vt 0.171876 0.289710
vt 0.136768 0.287186
vt 0.143226 0.279996
vt 0.153887 0.287326
vt 0.144210 0.294937
vt 0.164619 0.278883
vt 0.155029 0.266856
vt 0.164212 0.259814
vt 0.171955 0.273112
vt 0.136768 0.271263
vt 0.148135 0.259814
vt 0.162268 0.295070
vt 0.171876 0.289710
vt 0.136768 0.287186
vt 0.143226 0.279996
vt 0.153887 0.287326
vt 0.144210 0.294937
vt 0.164619 0.278883
vt 0.155029 0.266856
vt 0.164212 0.259814
vt 0.171955 0.273112
vt 0.136768 0.271263
vt 0.148135 0.259814
vt 0.162268 0.295070
vt 0.171876 0.289710
vt 0.136768 0.287186
vt 0.143226 0.279996
vt 0.153887 0.287326
vt 0.144210 0.294937
vt 0.164619 0.278883
vt 0.155029 0.266856
vt 0.164212 0.259814
vt 0.171955 0.273112
vt 0.136768 0.271263
vt 0.148135 0.259814
vt 0.162268 0.295070
vt 0.171876 0.289710
vt 0.136768 0.287186
vt 0.143226 0.279996
vt 0.153887 0.287326
vt 0.144210 0.294937
vt 0.164619 0.278883
vt 0.155029 0.266856
vt 0.164212 0.259814
vt 0.171955 0.273112
vt 0.136768 0.271263
vt 0.148135 0.259814
vt 0.162268 0.295070
vt 0.171876 0.289710
vt 0.136768 0.287186
vt 0.143226 0.279996
vt 0.153887 0.287326
vt 0.144210 0.294937
vt 0.164619 0.278883
vt 0.155029 0.266856
vt 0.164212 0.259814
vt 0.171955 0.273112
vt 0.136768 0.271263
vt 0.148135 0.259814
vt 0.162268 0.295070
vt 0.171876 0.289710
vt 0.136768 0.287186
vt 0.143226 0.279996
vt 0.153887 0.287326
vt 0.144210 0.294937
vt 0.164619 0.278883
vt 0.155029 0.266856
vt 0.164212 0.259814
vt 0.171955 0.273112
vt 0.136768 0.271263
vt 0.148135 0.259814
vt 0.162268 0.295070
vt 0.171876 0.289710
vt 0.136768 0.287186
vt 0.143226 0.279996
vt 0.153887 0.287326
vt 0.144210 0.294937
vt 0.164619 0.278883
vt 0.155029 0.266856
vt 0.164212 0.259814
vt 0.171955 0.273112
vt 0.136768 0.271263
vt 0.148135 0.259814
vt 0.162268 0.295070
vt 0.171876 0.289710
vt 0.136768 0.287186
vt 0.143226 0.279996
vt 0.153887 0.287326
vt 0.144210 0.294937
vt 0.164619 0.278883
vt 0.155029 0.266856
vt 0.164212 0.259814
vt 0.171955 0.273112
vt 0.136768 0.271263
vt 0.148135 0.259814
vt 0.162268 0.295070
vt 0.171876 0.289710
vt 0.136768 0.287186
vt 0.143226 0.279996
vt 0.153887 0.287326
vt 0.144210 0.294937
vt 0.164619 0.278883
vt 0.155029 0.266856
vt 0.164212 0.259814
vt 0.171955 0.273112
vt 0.136768 0.271263
vt 0.148135 0.259814
vt 0.162268 0.295070
vt 0.171876 0.289710
vt 0.136768 0.287186
vt 0.143226 0.279996
vt 0.153887 0.287326
vt 0.144210 0.294937
vt 0.164619 0.278883
vt 0.155029 0.266856
vt 0.164212 0.259814
vt 0.171955 0.273112
vt 0.136768 0.271263
vt 0.148135 0.259814
vt 0.162268 0.295070
vt 0.171876 0.289710
vt 0.136768 0.287186
vt 0.143226 0.279996
vt 0.153887 0.287326
vt 0.144210 0.294937
vt 0.164619 0.278883
vt 0.155029 0.266856
vt 0.164212 0.259814
vt 0.171955 0.273112
vt 0.136768 0.271263
vt 0.148135 0.259814
vt 0.162268 0.295070
vt 0.171876 0.289710
vn 0.7197 -0.3061 0.6231
vn 0.5461 -0.1916 0.8155
vn 0.5166 -0.1436 0.8441
vn 0.6742 -0.3372 0.6571
vn 0.3341 0.1516 0.9302
vn 0.3226 0.2614 0.9097
vn 0.2971 0.6206 0.7256
vn 0.2914 0.3773 0.8791
vn 0.2403 -0.2100 0.9477
vn 0.1272 -0.1200 0.9846
vn 0.3063 -0.2867 0.9077
vn 0.2250 -0.1629 0.9606
vn 0.3181 0.3166 0.8936
vn 0.0646 0.4432 0.8941
vn 0.0220 0.4854 0.8740
vn 0.2634 0.2930 0.9191
vn -0.1949 0.6997 0.6873
vn -0.2004 0.7727 0.6022
vn -0.1486 0.9577 0.2463
vn -0.2181 0.8387 0.4989
vn -0.2642 0.3884 0.8828
vn -0.3852 0.4391 0.8116
vn -0.1829 0.3304 0.9259
vn -0.2866 0.4270 0.8576
vn 0.4774 -0.3061 0.8236
vn 0.2505 -0.1916 0.9489
vn 0.2133 -0.1436 0.9664
vn 0.4233 -0.3372 0.8409
vn 0.0128 0.1516 0.9883
vn 0.0086 0.2614 0.9652
vn 0.0445 0.6206 0.7828
vn -0.0109 0.3773 0.9260
vn -0.0815 -0.2100 0.9743
vn -0.2005 -0.1200 0.9723
vn -0.0061 -0.2867 0.9580
vn -0.1003 -0.1629 0.9815
vn 0.3181 0.5560 0.7679
vn 0.0646 0.6776 0.7326
vn 0.0220 0.7124 0.7014
vn 0.2634 0.5406 0.7990
vn -0.1949 0.8653 0.4618
vn -0.2004 0.9113 0.3595
vn -0.1486 0.9883 -0.0341
vn -0.2181 0.9455 0.2418
vn -0.2642 0.6218 0.7372
vn -0.3852 0.6504 0.6546
vn -0.1829 0.5784 0.7949
vn -0.2866 0.6518 0.7022
vn -0.5783 -0.1331 0.8049
vn -0.7790 -0.0446 0.6254
vn -0.8080 -0.0017 0.5892
vn -0.6167 -0.1706 0.7685
vn -0.8970 0.2573 0.3593
vn -0.8736 0.3617 0.3254
vn -0.6795 0.7002 0.2190
vn -0.8413 0.4679 0.2705
vn -0.9340 -0.1144 0.3384
vn -0.9760 -0.0458 0.2127
vn -0.8919 -0.1789 0.4152
vn -0.9464 -0.0704 0.3152
vn 0.7397 0.5772 0.3459
vn 0.5213 0.7326 0.4376
vn 0.4710 0.7702 0.4301
vn 0.7121 0.5739 0.4045
vn 0.1666 0.9290 0.3302
vn 0.1062 0.9643 0.2424
vn -0.0734 0.9902 -0.1189
vn 0.0262 0.9882 0.1509
vn 0.2524 0.7300 0.6351
vn 0.1083 0.7683 0.6308
vn 0.3490 0.6807 0.6441
vn 0.2160 0.7591 0.6140
vn 0.9310 -0.3061 -0.1989
vn 0.9799 -0.1916 0.0557
vn 0.9849 -0.1436 0.0965
vn 0.9307 -0.3372 -0.1420
vn 0.9437 0.1516 0.2939
vn 0.9204 0.2614 0.2907
vn 0.7581 0.6206 0.2002
vn 0.8771 0.3773 0.2972
vn 0.9011 -0.2100 0.3793
vn 0.8624 -0.1200 0.4918
vn 0.9090 -0.2867 0.3026
vn 0.9022 -0.1629 0.3994
vn 0.2156 -0.3061 -0.9272
vn 0.4669 -0.1916 -0.8633
vn 0.5059 -0.1436 -0.8505
vn 0.2670 -0.3372 -0.9028
vn 0.6671 0.1516 -0.7293
vn 0.6543 0.2614 -0.7095
vn 0.5034 0.6206 -0.6012
vn 0.6418 0.3773 -0.6676
vn 0.7263 -0.2100 -0.6544
vn 0.8117 -0.1200 -0.5716
vn 0.6602 -0.2867 -0.6942
vn 0.7449 -0.1629 -0.6469
vn -0.5555 -0.1339 -0.8206
vn -0.3419 0.0092 -0.9397
vn -0.3066 0.0606 -0.9499
vn -0.5033 -0.1595 -0.8492
vn -0.1092 0.3579 -0.9273
vn -0.1028 0.4603 -0.8818
vn -0.1206 0.7717 -0.6244
vn -0.0795 0.5656 -0.8208
vn -0.0139 0.0035 -0.9999
vn 0.1047 0.0935 -0.9901
vn -0.0873 -0.0764 -0.9932
vn 0.0040 0.0515 -0.9987
vn -0.9696 -0.1339 -0.2046
vn -0.8986 0.0092 -0.4386
vn -0.8803 0.0606 -0.4705
vn -0.9519 -0.1595 -0.2615
vn -0.7226 0.3579 -0.5914
vn -0.6863 0.4603 -0.5631
vn -0.5204 0.7717 -0.3655
vn -0.6272 0.5656 -0.5354
vn -0.7044 0.0035 -0.7098
vn -0.6123 0.0935 -0.7851
vn -0.7526 -0.0764 -0.6540
vn -0.6906 0.0515 -0.7213
vn -0.6957 0.3766 -0.6117
vn -0.4769 0.5351 -0.6972
vn -0.4329 0.5799 -0.6901
vn -0.6560 0.3638 -0.6613
vn -0.1718 0.7973 -0.5786
vn -0.1349 0.8596 -0.4929
vn -0.0396 0.9916 -0.1227
vn -0.0786 0.9144 -0.3971
vn -0.1729 0.5239 -0.8340
vn -0.0369 0.5814 -0.8127
vn -0.2607 0.4612 -0.8481
vn -0.1445 0.5618 -0.8145
vn 0.1193 0.5435 -0.8309
vn 0.3829 0.5665 -0.7296
vn 0.4265 0.5865 -0.6885
vn 0.1697 0.5056 -0.8459
vn 0.6195 0.6750 -0.4007
vn 0.6170 0.7270 -0.3012
vn 0.5038 0.8615 0.0629
vn 0.6170 0.7653 -0.1835
vn 0.6553 0.3937 -0.6447
vn 0.7536 0.3849 -0.5328
vn 0.5804 0.3769 -0.7218
vn 0.6781 0.4170 -0.6052
usemtl frostland_tilesheet
s 1
f 6/1/1 2/2/2 3/3/3 12/4/4
f 1/5/5 8/6/6 5/7/7 9/8/8
f 7/9/9 4/10/10 8/6/6 2/2/2
f 12/4/4 3/3/3 11/11/11
f 10/12/12 1/5/5 9/8/8
f 3/3/3 2/2/2 8/6/6 1/5/5
f 2/2/2 6/1/1 7/9/9
f 11/11/11 3/3/3 1/5/5 10/12/12
f 18/13/13 14/14/14 15/15/15 24/16/16
f 13/17/17 20/18/18 17/19/19 21/20/20
f 19/21/21 16/22/22 20/18/18 14/14/14
f 24/16/16 15/15/15 23/23/23
f 22/24/24 13/17/17 21/20/20
f 15/15/15 14/14/14 20/18/18 13/17/17
f 14/14/14 18/13/13 19/21/21
f 23/23/23 15/15/15 13/17/17 22/24/24
f 30/25/25 26/26/26 27/27/27 36/28/28
f 25/29/29 32/30/30 29/31/31 33/32/32
f 31/33/33 28/34/34 32/30/30 26/26/26
f 36/28/28 27/27/27 35/35/35
f 34/36/36 25/29/29 33/32/32
f 27/27/27 26/26/26 32/30/30 25/29/29
f 26/26/26 30/25/25 31/33/33
f 35/35/35 27/27/27 25/29/29 34/36/36
f 42/37/37 38/38/38 39/39/39 48/40/40
f 37/41/41 44/42/42 41/43/43 45/44/44
f 43/45/45 40/46/46 44/42/42 38/38/38
f 48/40/40 39/39/39 47/47/47
f 46/48/48 37/41/41 45/44/44
f 39/39/39 38/38/38 44/42/42 37/41/41
f 38/38/38 42/37/37 43/45/45
f 47/47/47 39/39/39 37/41/41 46/48/48
f 54/49/49 50/50/50 51/51/51 60/52/52
f 49/53/53 56/54/54 53/55/55 57/56/56
f 55/57/57 52/58/58 56/54/54 50/50/50
f 60/52/52 51/51/51 59/59/59
f 58/60/60 49/53/53 57/56/56
f 51/51/51 50/50/50 56/54/54 49/53/53
f 50/50/50 54/49/49 55/57/57
f 59/59/59 51/51/51 49/53/53 58/60/60
f 66/61/61 62/62/62 63/63/63 72/64/64
f 61/65/65 68/66/66 65/67/67 69/68/68
f 67/69/69 64/70/70 68/66/66 62/62/62
f 72/64/64 63/63/63 71/71/71
f 70/72/72 61/65/65 69/68/68
f 63/63/63 62/62/62 68/66/66 61/65/65
f 62/62/62 66/61/61 67/69/69
f 71/71/71 63/63/63 61/65/65 70/72/72
f 78/73/73 74/74/74 75/75/75 84/76/76
f 73/77/77 80/78/78 77/79/79 81/80/80
f 79/81/81 76/82/82 80/78/78 74/74/74
f 84/76/76 75/75/75 83/83/83
f 82/84/84 73/77/77 81/80/80
f 75/75/75 74/74/74 80/78/78 73/77/77
f 74/74/74 78/73/73 79/81/81
f 83/83/83 75/75/75 73/77/77 82/84/84
f 90/85/85 86/86/86 87/87/87 96/88/88
f 85/89/89 92/90/90 89/91/91 93/92/92
f 91/93/93 88/94/94 92/90/90 86/86/86
f 96/88/88 87/87/87 95/95/95
f 94/96/96 85/89/89 93/92/92
f 87/87/87 86/86/86 92/90/90 85/89/89
f 86/86/86 90/85/85 91/93/93
f 95/95/95 87/87/87 85/89/89 94/96/96
f 102/97/97 98/98/98 99/99/99 108/100/100
f 97/101/101 104/102/102 101/103/103 105/104/104
f 103/105/105 100/106/106 104/102/102 98/98/98
f 108/100/100 99/99/99 107/107/107
f 106/108/108 97/101/101 105/104/104
f 99/99/99 98/98/98 104/102/102 97/101/101
f 98/98/98 102/97/97 103/105/105
f 107/107/107 99/99/99 97/101/101 106/108/108
f 114/109/109 110/110/110 111/111/111 120/112/112
f 109/113/113 116/114/114 113/115/115 117/116/116
f 115/117/117 112/118/118 116/114/114 110/110/110
f 120/112/112 111/111/111 119/119/119
f 118/120/120 109/113/113 117/116/116
f 111/111/111 110/110/110 116/114/114 109/113/113
f 110/110/110 114/109/109 115/117/117
f 119/119/119 111/111/111 109/113/113 118/120/120
f 126/121/121 122/122/122 123/123/123 132/124/124
f 121/125/125 128/126/126 125/127/127 129/128/128
f 127/129/129 124/130/130 128/126/126 122/122/122
f 132/124/124 123/123/123 131/131/131
f 130/132/132 121/125/125 129/128/128
f 123/123/123 122/122/122 128/126/126 121/125/125
f 122/122/122 126/121/121 127/129/129
f 131/131/131 123/123/123 121/125/125 130/132/132
f 138/133/133 134/134/134 135/135/135 144/136/136
f 133/137/137 140/138/138 137/139/139 141/140/140
f 139/141/141 136/142/142 140/138/138 134/134/134
f 144/136/136 135/135/135 143/143/143
f 142/144/144 133/137/137 141/140/140
f 135/135/135 134/134/134 140/138/138 133/137/137
f 134/134/134 138/133/133 139/141/141
f 143/143/143 135/135/135 133/137/137 142/144/144
