# Blender v2.93.5 OBJ File: 'Frostlands.blend'
# www.blender.org
mtllib SM_Bush_03.mtl
o Cylinder.018_export_temp_Cylinder.009
v 0.017110 0.366022 0.211272
v 0.159092 0.339903 0.271046
v 0.203211 0.591819 0.276327
v 0.061231 0.617958 0.216558
v 0.028333 0.487253 0.237589
v 0.170314 0.461129 0.297361
v 0.073895 0.347474 0.272503
v 0.118015 0.599399 0.277786
v 0.085118 0.468702 0.298819
v 0.050462 0.249204 0.330948
v 0.009984 0.360123 0.228613
v -0.231982 0.347502 0.310641
v -0.191523 0.236585 0.412986
v -0.059780 0.261294 0.387658
v -0.100253 0.372213 0.285320
v 0.043701 0.328973 0.300798
v -0.198275 0.316353 0.382831
v -0.066539 0.341063 0.357507
v -0.001493 0.298652 0.302772
v 0.101604 0.408703 0.261861
v -0.153573 0.571061 0.055552
v -0.256685 0.461020 0.096454
v -0.092454 0.363289 0.247423
v 0.010648 0.473338 0.206514
v 0.043884 0.370558 0.312171
v -0.211301 0.532921 0.105858
v -0.047074 0.435193 0.256824
v 0.109453 0.402847 0.236100
v 0.008241 0.291272 0.277585
v 0.284337 0.053125 0.310691
v 0.385566 0.164688 0.269211
v 0.204349 0.327334 0.264525
v 0.103131 0.215762 0.306009
v 0.058777 0.359260 0.289485
v 0.334882 0.121107 0.322593
v 0.153670 0.283748 0.317909
v 0.063706 0.412098 0.232545
v 0.100136 0.269795 0.285808
v 0.452527 0.330633 0.207333
v 0.416119 0.472940 0.154068
v 0.184835 0.439385 0.222605
v 0.221258 0.297081 0.275868
v 0.081852 0.353146 0.291818
v 0.434253 0.413986 0.213343
v 0.202977 0.380433 0.281879
v 0.135884 0.263107 0.319673
v 0.030902 0.371436 0.278961
v -0.237307 0.124720 0.314107
v -0.132339 0.016378 0.354824
v 0.043629 0.184647 0.348799
v -0.061350 0.292980 0.308087
v 0.083323 0.329471 0.331959
v -0.184893 0.082749 0.367108
v -0.008930 0.251013 0.361085
v 0.036988 0.149998 0.247461
v 0.138093 0.074370 0.339506
v 0.192293 0.293433 0.459962
v 0.091189 0.369078 0.367929
v 0.043939 0.249726 0.321767
v 0.145043 0.174094 0.413809
v 0.061044 0.099878 0.312479
v 0.115244 0.318950 0.432940
v 0.067993 0.199604 0.386783
v -0.029578 0.579235 0.196880
v 0.030058 0.483271 0.304808
v 0.235217 0.634588 0.325990
v 0.175596 0.730566 0.218066
v 0.056323 0.664783 0.225480
v 0.115955 0.568815 0.333407
v -0.021206 0.544799 0.274738
v 0.183961 0.696123 0.295922
v 0.064693 0.630345 0.303338
v -0.121184 0.505565 0.320419
v -0.042974 0.584218 0.210369
v -0.232996 0.754976 0.197367
v -0.311219 0.676339 0.307419
v -0.200257 0.601052 0.332469
v -0.122044 0.679700 0.222418
v -0.061568 0.558784 0.289901
v -0.251595 0.729551 0.276900
v -0.140638 0.654269 0.301950
v -0.113260 0.567359 0.275067
v 0.042990 0.567360 0.275067
v 0.042990 0.796073 -0.010816
v -0.113260 0.796088 -0.010831
v -0.113260 0.658414 0.190070
v 0.042990 0.658410 0.190074
v -0.035135 0.591138 0.300540
v -0.035135 0.819860 0.014650
v -0.035135 0.682191 0.215546
v 0.050789 0.551372 0.254017
v -0.105441 0.549206 0.255245
v -0.099669 0.208001 0.387853
v 0.056561 0.210149 0.386635
v 0.052773 0.443026 0.315440
v -0.103456 0.440865 0.316665
v -0.027327 0.567475 0.284946
v -0.021554 0.226260 0.417559
v -0.025342 0.459132 0.346367
v 0.028050 0.586963 0.233839
v -0.062087 0.475935 0.296783
v 0.233825 0.268035 0.353818
v 0.323979 0.379054 0.290880
v 0.129795 0.524453 0.269277
v 0.039653 0.413427 0.332220
v -0.017018 0.548635 0.295626
v 0.278902 0.340731 0.352664
v 0.084724 0.486126 0.331064
v -0.052077 0.456581 0.341446
v -0.034388 0.591634 0.264883
v -0.394328 0.601216 0.198625
v -0.412038 0.466165 0.275187
v -0.175838 0.468848 0.334491
v -0.158142 0.603901 0.257929
v -0.043232 0.541293 0.333479
v -0.403183 0.550876 0.267221
v -0.166990 0.553560 0.326525
v -0.178089 0.422273 0.237849
v -0.188745 0.326309 0.360696
v -0.030230 0.477625 0.492650
v -0.019565 0.573604 0.369815
v -0.122717 0.507821 0.309480
v -0.133376 0.411853 0.432323
v -0.214541 0.387837 0.307155
v -0.056022 0.539161 0.439114
v -0.159171 0.473383 0.378784
v -0.244493 0.349644 0.047357
v -0.201968 0.323525 0.195423
v -0.178403 0.575441 0.233093
v -0.220929 0.601580 0.085032
v -0.257945 0.470875 0.072606
v -0.215421 0.444751 0.220671
v -0.256551 0.331096 0.129992
v -0.232986 0.583021 0.167664
v -0.270003 0.452324 0.155240
v -0.316765 0.232826 0.148408
v -0.262466 0.343745 0.052686
v -0.478143 0.331124 -0.084281
v -0.532460 0.220207 0.011432
v -0.430087 0.244916 0.098135
v -0.375784 0.355835 0.002416
v -0.297527 0.312595 0.124228
v -0.513213 0.299975 -0.012744
v -0.410848 0.324685 0.073957
v -0.327416 0.282273 0.090273
v -0.230880 0.392325 0.144893
v -0.230305 0.554683 -0.183252
v -0.326843 0.444642 -0.237889
v -0.341379 0.346911 -0.015285
v -0.244842 0.456959 0.039340
v -0.306270 0.354179 0.131507
v -0.305696 0.516542 -0.196647
v -0.320231 0.418815 0.025951
v -0.205894 0.386469 0.134844
v -0.301697 0.274894 0.082051
v -0.154268 0.036747 0.317827
v -0.058461 0.148310 0.370636
v -0.168498 0.310955 0.226576
v -0.264302 0.199384 0.173778
v -0.279259 0.342881 0.128871
v -0.131828 0.104728 0.364655
v -0.241863 0.267369 0.220601
v -0.231826 0.395719 0.096989
v -0.250450 0.253417 0.158772
v 0.031734 0.314254 0.383962
v 0.050372 0.456562 0.322193
v -0.148095 0.423007 0.185081
v -0.166723 0.280703 0.246860
v -0.266601 0.336768 0.148305
v 0.015590 0.397608 0.373501
v -0.182873 0.364055 0.236394
v -0.254395 0.246728 0.207856
v -0.288552 0.355057 0.100562
v -0.484181 0.108342 -0.086253
v -0.450038 0.000000 0.021033
v -0.334953 0.168268 0.154286
v -0.369107 0.276601 0.046994
v -0.296937 0.313093 0.174633
v -0.492573 0.066371 -0.012186
v -0.377494 0.234635 0.121064
v -0.260203 0.133620 0.085541
v -0.268455 0.057992 0.222019
v -0.328256 0.277055 0.339794
v -0.320013 0.352699 0.203324
v -0.313708 0.233348 0.137569
v -0.321957 0.157716 0.274045
v -0.295744 0.083500 0.145061
v -0.355550 0.302571 0.262841
v -0.349247 0.183226 0.197089
v 0.121387 0.566636 -0.072750
v 0.258430 0.499319 -0.105938
v 0.234440 0.570966 -0.350328
v 0.097396 0.638293 -0.317159
v 0.122095 0.622873 -0.183891
v 0.259139 0.555553 -0.217074
v 0.206646 0.560206 -0.075459
v 0.182655 0.631859 -0.319859
v 0.207355 0.616442 -0.186597
v 0.258773 0.574745 0.027949
v 0.131707 0.580097 -0.062824
v 0.051908 0.789107 0.061203
v 0.178969 0.783774 0.151983
v 0.233415 0.689148 0.070192
v 0.106350 0.694495 -0.020584
v 0.214238 0.591153 -0.043222
v 0.134438 0.800173 0.080809
v 0.188881 0.705553 -0.000981
v 0.195134 0.610877 0.003807
v 0.201867 0.558698 -0.143319
v -0.145463 0.661876 -0.195807
v -0.152215 0.714064 -0.048685
v 0.083843 0.661806 -0.019348
v 0.090582 0.609624 -0.166473
v 0.214080 0.614384 -0.079540
v -0.133260 0.717566 -0.132030
v 0.102792 0.665311 -0.102694
v 0.188056 0.534854 -0.143778
v 0.183227 0.585544 0.003943
v 0.426420 0.329226 0.099847
v 0.431265 0.278524 -0.047869
v 0.283373 0.460015 -0.114981
v 0.278540 0.510708 0.032738
v 0.208049 0.585658 -0.077921
v 0.451250 0.329335 0.017985
v 0.303364 0.510821 -0.049126
v 0.155791 0.566814 -0.132440
v 0.249497 0.520903 -0.016142
v 0.388023 0.258958 -0.231165
v 0.294327 0.304857 -0.347477
v 0.215120 0.490040 -0.210552
v 0.308824 0.444133 -0.094250
v 0.225052 0.569318 -0.082295
v 0.363583 0.307367 -0.297325
v 0.284380 0.492546 -0.160405
v 0.298491 0.515827 -0.022731
v 0.180547 0.602380 -0.077611
v 0.099652 0.708347 0.263367
v 0.217593 0.621803 0.318266
v 0.282375 0.565554 0.090331
v 0.164433 0.652105 0.035445
v 0.261927 0.584563 -0.058175
v 0.181030 0.690535 0.282813
v 0.245811 0.634289 0.054884
v 0.207986 0.492357 0.115278
v 0.355972 0.453614 0.147108
v 0.433707 0.578705 -0.062045
v 0.285728 0.617462 -0.093889
v 0.247677 0.573500 0.029511
v 0.395661 0.534753 0.061345
v 0.283304 0.497973 0.155446
v 0.361043 0.623071 -0.053714
v 0.322994 0.579113 0.069681
v 0.130301 0.385615 0.216519
v 0.279885 0.399087 0.173426
v 0.228497 0.625382 0.065790
v 0.078909 0.611930 0.108879
v 0.111171 0.505231 0.187509
v 0.260756 0.518697 0.144416
v 0.213623 0.401597 0.227470
v 0.162232 0.627902 0.119832
v 0.194493 0.521210 0.198460
v 0.262479 0.341679 0.314905
v 0.136570 0.388258 0.234958
v 0.003402 0.402373 0.452909
v 0.129300 0.355800 0.532873
v 0.206307 0.372957 0.421592
v 0.080402 0.419534 0.341639
v 0.212899 0.397060 0.272565
v 0.079726 0.411178 0.490524
v 0.156730 0.428337 0.379249
v 0.190367 0.368799 0.313299
v 0.207373 0.451904 0.182080
v -0.156414 0.482154 0.154092
v -0.173440 0.399053 0.285311
v 0.068414 0.394155 0.313553
v 0.085425 0.477259 0.182334
v 0.204865 0.438996 0.266608
v -0.158932 0.469248 0.238620
v 0.082915 0.464351 0.266862
v 0.201077 0.434981 0.161259
v 0.186343 0.350917 0.292142
v 0.496386 0.173090 0.212828
v 0.511138 0.257146 0.081942
v 0.314877 0.387518 0.143585
v 0.300138 0.303456 0.274468
v 0.207493 0.419150 0.245081
v 0.517545 0.241320 0.165765
v 0.321290 0.371688 0.227407
v 0.161289 0.438825 0.185614
v 0.267876 0.341163 0.244907
v 0.469746 0.377350 -0.058372
v 0.363173 0.475017 -0.117681
v 0.237896 0.464947 0.090932
v 0.344478 0.367285 0.150230
v 0.228365 0.416196 0.233641
v 0.430242 0.452385 -0.069646
v 0.304970 0.442318 0.138962
v 0.316000 0.353385 0.246965
v 0.176343 0.423272 0.252063
v 0.078836 0.208020 0.531703
v 0.218489 0.138124 0.526622
v 0.289669 0.293054 0.352711
v 0.150014 0.362943 0.357805
v 0.259954 0.414530 0.267895
v 0.162445 0.199274 0.547543
v 0.233624 0.354200 0.373639
v 0.240571 0.214155 0.299061
v 0.394348 0.197132 0.320898
v 0.425818 0.449793 0.296240
v 0.272043 0.466836 0.274405
v 0.252277 0.337412 0.312705
v 0.406054 0.320383 0.334542
v 0.312224 0.202344 0.344273
v 0.343696 0.455015 0.319616
v 0.323931 0.325598 0.357918
v 0.289378 0.368675 -0.048018
v 0.360564 0.318751 -0.177841
v 0.279729 0.527110 -0.302292
v 0.208540 0.577053 -0.172477
v 0.272310 0.480415 -0.100347
v 0.343497 0.430486 -0.230168
v 0.355622 0.354350 -0.100213
v 0.274786 0.562719 -0.224668
v 0.338555 0.466087 -0.152541
v 0.443549 0.295833 -0.050549
v 0.307363 0.371801 -0.040735
v 0.378147 0.469559 0.184805
v 0.514340 0.393602 0.175008
v 0.487698 0.362654 0.044852
v 0.351510 0.438619 0.054661
v 0.387259 0.357855 -0.067941
v 0.458046 0.455619 0.157608
v 0.431406 0.424674 0.027457
v 0.397713 0.346987 -0.015612
v 0.325539 0.395244 -0.145520
v 0.064827 0.552552 0.057761
v 0.136989 0.504306 0.187680
v 0.319462 0.415221 0.053210
v 0.247292 0.463475 -0.076702
v 0.383443 0.398210 -0.082623
v 0.122725 0.555523 0.120664
v 0.305194 0.466442 -0.013803
v 0.303790 0.378672 -0.148974
v 0.377113 0.328644 -0.020386
v 0.502904 0.038567 -0.204970
v 0.429590 0.088581 -0.333569
v 0.360783 0.290367 -0.215828
v 0.434103 0.240342 -0.087236
v 0.366772 0.375557 -0.091168
v 0.492566 0.085472 -0.275758
v 0.423762 0.287253 -0.158020
v 0.295270 0.400860 -0.108649
v 0.396250 0.281901 -0.100526
v 0.316770 0.190835 -0.446112
v 0.215788 0.309791 -0.454255
v 0.281683 0.380981 -0.230861
v 0.382664 0.262023 -0.222733
v 0.372079 0.363278 -0.111076
v 0.292598 0.272212 -0.456671
v 0.358493 0.343401 -0.233285
v 0.431831 0.275664 -0.134652
v 0.351477 0.391964 -0.068082
v 0.458705 0.276826 0.262500
v 0.539068 0.160522 0.195949
v 0.482442 0.247509 -0.024373
v 0.402085 0.363810 0.042191
v 0.417974 0.355712 -0.107855
v 0.525206 0.240572 0.222736
v 0.468583 0.327558 0.002421
v 0.399314 0.184648 0.001168
v 0.516192 0.115917 -0.076482
v 0.555085 0.331423 -0.208694
v 0.438212 0.400173 -0.131051
v 0.434488 0.295332 -0.043858
v 0.551365 0.226595 -0.121506
v 0.478683 0.154815 -0.010165
v 0.517578 0.370330 -0.142381
v 0.513856 0.265496 -0.055190
v -0.053820 0.528737 0.012041
v -0.203079 0.515950 -0.032369
v -0.278507 0.602537 0.196212
v -0.129254 0.615334 0.240638
v -0.089160 0.594141 0.111986
v -0.238418 0.581351 0.067571
v -0.125537 0.551863 -0.028452
v -0.200968 0.638455 0.200137
v -0.160876 0.617266 0.071490
v -0.111529 0.571323 -0.142675
v -0.052518 0.543675 -0.000664
v 0.144855 0.697871 -0.052660
v 0.085856 0.725534 -0.194674
v -0.030689 0.664830 -0.158063
v 0.028319 0.637178 -0.016051
v -0.105038 0.579680 -0.057788
v 0.092341 0.733883 -0.109785
v -0.024199 0.673185 -0.073175
v -0.059875 0.586306 -0.087489
v -0.155451 0.556548 0.032485
v 0.132475 0.541473 0.258120
v 0.228066 0.571234 0.138159
v 0.035513 0.598889 -0.008379
v -0.060068 0.569130 0.111592
v -0.114581 0.605455 -0.024573
v 0.173353 0.590382 0.201068
v -0.019196 0.618037 0.054536
v -0.152951 0.529654 0.037963
v -0.059126 0.558597 -0.083582
v -0.295978 0.390464 -0.306454
v -0.389817 0.361514 -0.184922
v -0.241149 0.488692 -0.039875
v -0.147320 0.517637 -0.161416
v -0.118987 0.576396 -0.025120
v -0.355845 0.408260 -0.247998
v -0.207183 0.535435 -0.102956
v -0.110468 0.547316 0.046574
v -0.144470 0.522894 -0.103963
v -0.451774 0.349437 -0.006412
v -0.417789 0.373852 0.144131
v -0.222890 0.504523 0.078910
v -0.256886 0.480104 -0.071629
v -0.140417 0.567375 -0.031005
v -0.447730 0.393914 0.066549
v -0.252836 0.524584 0.001330
v -0.188625 0.535465 -0.122984
v -0.091021 0.582684 -0.010478
v 0.177455 0.615599 -0.257210
v 0.079864 0.568385 -0.369730
v -0.103074 0.563631 -0.209026
v -0.005473 0.610848 -0.096515
v -0.152771 0.591345 -0.069041
v 0.115711 0.624262 -0.315781
v -0.067222 0.619510 -0.155081
v -0.056934 0.467263 -0.199105
v -0.173158 0.477485 -0.303036
v -0.294014 0.644390 -0.151470
v -0.177798 0.634184 -0.047529
v -0.102330 0.566231 -0.138606
v -0.218552 0.576448 -0.242540
v -0.095523 0.493411 -0.270834
v -0.216383 0.660324 -0.119263
v -0.140917 0.592376 -0.210337
v 0.080051 0.303307 -0.217126
v -0.055903 0.371361 -0.253170
v 0.011425 0.577626 -0.117681
v 0.147387 0.509590 -0.081630
v 0.122864 0.411883 -0.173609
v -0.013092 0.479933 -0.209656
v 0.024384 0.345164 -0.266795
v 0.091716 0.551438 -0.131302
v 0.067195 0.453738 -0.223279
v 0.007221 0.295772 -0.371139
v 0.084984 0.305801 -0.235986
v 0.303005 0.249207 -0.357229
v 0.225260 0.239178 -0.492393
v 0.115235 0.293883 -0.433147
v 0.192993 0.303912 -0.297991
v 0.045446 0.335558 -0.305765
v 0.263475 0.278964 -0.427014
v 0.153458 0.333669 -0.367772
v 0.073534 0.296910 -0.331902
v 0.024714 0.395205 -0.220688
v 0.312346 0.303653 -0.013506
v 0.361185 0.205355 -0.124710
v 0.179980 0.279339 -0.269645
v 0.131154 0.377635 -0.158433
v 0.063580 0.372696 -0.293493
v 0.351222 0.281142 -0.086306
v 0.170023 0.355125 -0.231237
v 0.013655 0.379632 -0.200820
v 0.060160 0.281247 -0.312945
v -0.288493 0.228948 -0.411663
v -0.335017 0.327332 -0.299546
v -0.102509 0.375773 -0.245615
v -0.055999 0.277388 -0.357737
v 0.044023 0.357490 -0.277667
v -0.304640 0.305191 -0.376389
v -0.072138 0.353631 -0.322460
v 0.058716 0.367005 -0.201826
v -0.031526 0.305067 -0.313335
v -0.328671 0.441575 -0.148687
v -0.238446 0.503524 -0.037170
v -0.039738 0.428065 -0.156065
v -0.129975 0.366123 -0.267576
v 0.020711 0.363086 -0.278365
v -0.276443 0.499600 -0.113713
v -0.077741 0.424144 -0.232605
v -0.064723 0.332521 -0.338109
v 0.073775 0.350016 -0.267921
v 0.213483 0.084189 -0.477342
v 0.074993 0.066681 -0.547543
v -0.012971 0.255243 -0.420966
v 0.125525 0.272742 -0.350775
v 0.011642 0.368319 -0.323799
v 0.151354 0.102486 -0.533227
v 0.063393 0.291043 -0.406655
v -0.027497 0.171028 -0.356075
v -0.145664 0.204635 -0.452622
v -0.094766 0.454120 -0.428075
v 0.023408 0.420532 -0.331530
v 0.012810 0.288587 -0.364488
v -0.105358 0.322188 -0.461035
v -0.066766 0.179084 -0.431646
v -0.015863 0.428578 -0.407100
v -0.026459 0.296640 -0.440059
v -0.182459 0.371313 -0.068683
v -0.320300 0.363487 0.004479
v -0.243918 0.544951 0.167797
v -0.106073 0.552794 0.094645
v -0.155453 0.475879 -0.006616
v -0.293295 0.468048 0.066543
v -0.265946 0.386256 -0.057530
v -0.189563 0.567728 0.105793
v -0.238941 0.490819 0.004535
v -0.332333 0.355673 -0.148521
v -0.192181 0.379487 -0.083681
v -0.104297 0.469127 -0.306564
v -0.244443 0.445324 -0.371421
v -0.297633 0.422189 -0.247955
v -0.157482 0.446000 -0.183110
v -0.274219 0.396560 -0.100889
v -0.186332 0.486206 -0.323780
v -0.239519 0.463074 -0.200320
v -0.260759 0.383997 -0.152141
v -0.249809 0.419436 -0.000357
v 0.112920 0.455162 -0.034866
v 0.101990 0.419728 -0.186653
v -0.140737 0.413470 -0.167681
v -0.129792 0.448908 -0.015897
v -0.264279 0.434639 -0.083287
v 0.098458 0.470368 -0.117798
v -0.144260 0.464111 -0.098827
v -0.239895 0.396994 0.012196
v -0.253027 0.360439 -0.139149
v -0.545067 0.152935 -0.063690
v -0.531954 0.189482 0.087659
v -0.348963 0.341359 0.035098
v -0.362089 0.304806 -0.116249
v -0.263036 0.408810 -0.069307
v -0.555085 0.201302 0.006154
v -0.372101 0.353176 -0.046406
v -0.205614 0.410261 -0.016782
v -0.323842 0.332343 -0.082850
v -0.461185 0.259652 0.248650
v -0.342965 0.337569 0.314736
v -0.261491 0.400979 0.094155
v -0.379716 0.323061 0.028082
v -0.281302 0.401395 -0.055647
v -0.418650 0.328704 0.275863
v -0.337178 0.392114 0.055288
v -0.371158 0.342423 -0.071485
v -0.233791 0.416345 -0.080445
v -0.197886 0.307480 -0.428150
v -0.335252 0.233554 -0.419210
v -0.367466 0.320703 -0.194083
v -0.230100 0.394626 -0.203037
v -0.319050 0.409478 -0.081796
v -0.283144 0.300611 -0.429511
v -0.315358 0.387758 -0.204390
v -0.310446 0.230970 -0.179564
v -0.465837 0.215096 -0.175617
v -0.486461 0.444597 -0.064533
v -0.331071 0.460491 -0.068475
v -0.321992 0.351381 -0.149843
v -0.477383 0.335501 -0.145897
v -0.389837 0.231220 -0.211420
v -0.410461 0.460732 -0.100333
v -0.401382 0.351629 -0.181700
vt 0.192383 0.250049
vt 0.197217 0.250049
vt 0.197217 0.257790
vt 0.192383 0.257790
vt 0.197217 0.265604
vt 0.192383 0.265605
vt 0.187549 0.257791
vt 0.187549 0.265605
vt 0.187549 0.250049
vt 0.192383 0.250049
vt 0.197217 0.250049
vt 0.197217 0.257790
vt 0.192383 0.257790
vt 0.197217 0.265604
vt 0.192383 0.265605
vt 0.187549 0.257791
vt 0.187549 0.265605
vt 0.187549 0.250049
vt 0.206299 0.250000
vt 0.210938 0.250000
vt 0.210938 0.257812
vt 0.206299 0.257812
vt 0.210938 0.273438
vt 0.206299 0.273438
vt 0.201172 0.257812
vt 0.201172 0.273438
vt 0.201172 0.250000
vt 0.206299 0.250000
vt 0.210938 0.250000
vt 0.210938 0.257812
vt 0.206299 0.257812
vt 0.210938 0.273438
vt 0.206299 0.273438
vt 0.201172 0.257812
vt 0.201172 0.273438
vt 0.201172 0.250000
vt 0.206299 0.250000
vt 0.210938 0.250000
vt 0.210938 0.257812
vt 0.206299 0.257812
vt 0.210938 0.273438
vt 0.206299 0.273438
vt 0.201172 0.257812
vt 0.201172 0.273438
vt 0.201172 0.250000
vt 0.206299 0.250000
vt 0.210938 0.250000
vt 0.210938 0.257812
vt 0.206299 0.257812
vt 0.210938 0.273438
vt 0.206299 0.273438
vt 0.201172 0.257812
vt 0.201172 0.273438
vt 0.201172 0.250000
vt 0.192383 0.250049
vt 0.197217 0.250049
vt 0.197217 0.257790
vt 0.192383 0.257790
vt 0.197217 0.265604
vt 0.192383 0.265605
vt 0.187549 0.257791
vt 0.187549 0.265605
vt 0.187549 0.250049
vt 0.192383 0.250049
vt 0.197217 0.250049
vt 0.197217 0.257790
vt 0.192383 0.257790
vt 0.197217 0.265604
vt 0.192383 0.265605
vt 0.187549 0.257791
vt 0.187549 0.265605
vt 0.187549 0.250049
vt 0.192383 0.250049
vt 0.197217 0.250049
vt 0.197217 0.257790
vt 0.192383 0.257790
vt 0.197217 0.265604
vt 0.192383 0.265605
vt 0.187549 0.257791
vt 0.187549 0.265605
vt 0.187549 0.250049
vt 0.206299 0.250000
vt 0.210938 0.250000
vt 0.210938 0.257812
vt 0.206299 0.257812
vt 0.210938 0.273438
vt 0.206299 0.273438
vt 0.201172 0.257812
vt 0.201172 0.273438
vt 0.201172 0.250000
vt 0.206299 0.250000
vt 0.210938 0.250000
vt 0.210938 0.257812
vt 0.206299 0.257812
vt 0.210938 0.273438
vt 0.206299 0.273438
vt 0.201172 0.257812
vt 0.201172 0.273438
vt 0.201172 0.250000
vt 0.206299 0.250000
vt 0.210938 0.250000
vt 0.210938 0.257812
vt 0.206299 0.257812
vt 0.210938 0.273438
vt 0.206299 0.273438
vt 0.201172 0.257812
vt 0.201172 0.273438
vt 0.201172 0.250000
vt 0.206299 0.250000
vt 0.210938 0.250000
vt 0.210938 0.257812
vt 0.206299 0.257812
vt 0.210938 0.273438
vt 0.206299 0.273438
vt 0.201172 0.257812
vt 0.201172 0.273438
vt 0.201172 0.250000
vt 0.192383 0.250049
vt 0.197217 0.250049
vt 0.197217 0.257790
vt 0.192383 0.257790
vt 0.197217 0.265604
vt 0.192383 0.265605
vt 0.187549 0.257791
vt 0.187549 0.265605
vt 0.187549 0.250049
vt 0.192383 0.250049
vt 0.197217 0.250049
vt 0.197217 0.257790
vt 0.192383 0.257790
vt 0.197217 0.265604
vt 0.192383 0.265605
vt 0.187549 0.257791
vt 0.187549 0.265605
vt 0.187549 0.250049
vt 0.192383 0.250049
vt 0.197217 0.250049
vt 0.197217 0.257790
vt 0.192383 0.257790
vt 0.197217 0.265604
vt 0.192383 0.265605
vt 0.187549 0.257791
vt 0.187549 0.265605
vt 0.187549 0.250049
vt 0.206299 0.250000
vt 0.210938 0.250000
vt 0.210938 0.257812
vt 0.206299 0.257812
vt 0.210938 0.273438
vt 0.206299 0.273438
vt 0.201172 0.257812
vt 0.201172 0.273438
vt 0.201172 0.250000
vt 0.206299 0.250000
vt 0.210938 0.250000
vt 0.210938 0.257812
vt 0.206299 0.257812
vt 0.210938 0.273438
vt 0.206299 0.273438
vt 0.201172 0.257812
vt 0.201172 0.273438
vt 0.201172 0.250000
vt 0.206299 0.250000
vt 0.210938 0.250000
vt 0.210938 0.257812
vt 0.206299 0.257812
vt 0.210938 0.273438
vt 0.206299 0.273438
vt 0.201172 0.257812
vt 0.201172 0.273438
vt 0.201172 0.250000
vt 0.206299 0.250000
vt 0.210938 0.250000
vt 0.210938 0.257812
vt 0.206299 0.257812
vt 0.210938 0.273438
vt 0.206299 0.273438
vt 0.201172 0.257812
vt 0.201172 0.273438
vt 0.201172 0.250000
vt 0.192383 0.250049
vt 0.197217 0.250049
vt 0.197217 0.257790
vt 0.192383 0.257790
vt 0.197217 0.265604
vt 0.192383 0.265605
vt 0.187549 0.257791
vt 0.187549 0.265605
vt 0.187549 0.250049
vt 0.192383 0.250049
vt 0.197217 0.250049
vt 0.197217 0.257790
vt 0.192383 0.257790
vt 0.197217 0.265604
vt 0.192383 0.265605
vt 0.187549 0.257791
vt 0.187549 0.265605
vt 0.187549 0.250049
vt 0.192383 0.250049
vt 0.197217 0.250049
vt 0.197217 0.257790
vt 0.192383 0.257790
vt 0.197217 0.265604
vt 0.192383 0.265605
vt 0.187549 0.257791
vt 0.187549 0.265605
vt 0.187549 0.250049
vt 0.206299 0.250000
vt 0.210938 0.250000
vt 0.210938 0.257812
vt 0.206299 0.257812
vt 0.210938 0.273438
vt 0.206299 0.273438
vt 0.201172 0.257812
vt 0.201172 0.273438
vt 0.201172 0.250000
vt 0.206299 0.250000
vt 0.210938 0.250000
vt 0.210938 0.257812
vt 0.206299 0.257812
vt 0.210938 0.273438
vt 0.206299 0.273438
vt 0.201172 0.257812
vt 0.201172 0.273438
vt 0.201172 0.250000
vt 0.206299 0.250000
vt 0.210938 0.250000
vt 0.210938 0.257812
vt 0.206299 0.257812
vt 0.210938 0.273438
vt 0.206299 0.273438
vt 0.201172 0.257812
vt 0.201172 0.273438
vt 0.201172 0.250000
vt 0.206299 0.250000
vt 0.210938 0.250000
vt 0.210938 0.257812
vt 0.206299 0.257812
vt 0.210938 0.273438
vt 0.206299 0.273438
vt 0.201172 0.257812
vt 0.201172 0.273438
vt 0.201172 0.250000
vt 0.192383 0.250049
vt 0.197217 0.250049
vt 0.197217 0.257790
vt 0.192383 0.257790
vt 0.197217 0.265604
vt 0.192383 0.265605
vt 0.187549 0.257791
vt 0.187549 0.265605
vt 0.187549 0.250049
vt 0.192383 0.250049
vt 0.197217 0.250049
vt 0.197217 0.257790
vt 0.192383 0.257790
vt 0.197217 0.265604
vt 0.192383 0.265605
vt 0.187549 0.257791
vt 0.187549 0.265605
vt 0.187549 0.250049
vt 0.192383 0.250049
vt 0.197217 0.250049
vt 0.197217 0.257790
vt 0.192383 0.257790
vt 0.197217 0.265604
vt 0.192383 0.265605
vt 0.187549 0.257791
vt 0.187549 0.265605
vt 0.187549 0.250049
vt 0.206299 0.250000
vt 0.210938 0.250000
vt 0.210938 0.257812
vt 0.206299 0.257812
vt 0.210938 0.273438
vt 0.206299 0.273438
vt 0.201172 0.257812
vt 0.201172 0.273438
vt 0.201172 0.250000
vt 0.206299 0.250000
vt 0.210938 0.250000
vt 0.210938 0.257812
vt 0.206299 0.257812
vt 0.210938 0.273438
vt 0.206299 0.273438
vt 0.201172 0.257812
vt 0.201172 0.273438
vt 0.201172 0.250000
vt 0.206299 0.250000
vt 0.210938 0.250000
vt 0.210938 0.257812
vt 0.206299 0.257812
vt 0.210938 0.273438
vt 0.206299 0.273438
vt 0.201172 0.257812
vt 0.201172 0.273438
vt 0.201172 0.250000
vt 0.206299 0.250000
vt 0.210938 0.250000
vt 0.210938 0.257812
vt 0.206299 0.257812
vt 0.210938 0.273438
vt 0.206299 0.273438
vt 0.201172 0.257812
vt 0.201172 0.273438
vt 0.201172 0.250000
vt 0.192383 0.250049
vt 0.197217 0.250049
vt 0.197217 0.257790
vt 0.192383 0.257790
vt 0.197217 0.265604
vt 0.192383 0.265605
vt 0.187549 0.257791
vt 0.187549 0.265605
vt 0.187549 0.250049
vt 0.192383 0.250049
vt 0.197217 0.250049
vt 0.197217 0.257790
vt 0.192383 0.257790
vt 0.197217 0.265604
vt 0.192383 0.265605
vt 0.187549 0.257791
vt 0.187549 0.265605
vt 0.187549 0.250049
vt 0.192383 0.250049
vt 0.197217 0.250049
vt 0.197217 0.257790
vt 0.192383 0.257790
vt 0.197217 0.265604
vt 0.192383 0.265605
vt 0.187549 0.257791
vt 0.187549 0.265605
vt 0.187549 0.250049
vt 0.206299 0.250000
vt 0.210938 0.250000
vt 0.210938 0.257812
vt 0.206299 0.257812
vt 0.210938 0.273438
vt 0.206299 0.273438
vt 0.201172 0.257812
vt 0.201172 0.273438
vt 0.201172 0.250000
vt 0.206299 0.250000
vt 0.210938 0.250000
vt 0.210938 0.257812
vt 0.206299 0.257812
vt 0.210938 0.273438
vt 0.206299 0.273438
vt 0.201172 0.257812
vt 0.201172 0.273438
vt 0.201172 0.250000
vt 0.206299 0.250000
vt 0.210938 0.250000
vt 0.210938 0.257812
vt 0.206299 0.257812
vt 0.210938 0.273438
vt 0.206299 0.273438
vt 0.201172 0.257812
vt 0.201172 0.273438
vt 0.201172 0.250000
vt 0.206299 0.250000
vt 0.210938 0.250000
vt 0.210938 0.257812
vt 0.206299 0.257812
vt 0.210938 0.273438
vt 0.206299 0.273438
vt 0.201172 0.257812
vt 0.201172 0.273438
vt 0.201172 0.250000
vt 0.192383 0.250049
vt 0.197217 0.250049
vt 0.197217 0.257790
vt 0.192383 0.257790
vt 0.197217 0.265604
vt 0.192383 0.265605
vt 0.187549 0.257791
vt 0.187549 0.265605
vt 0.187549 0.250049
vt 0.192383 0.250049
vt 0.197217 0.250049
vt 0.197217 0.257790
vt 0.192383 0.257790
vt 0.197217 0.265604
vt 0.192383 0.265605
vt 0.187549 0.257791
vt 0.187549 0.265605
vt 0.187549 0.250049
vt 0.192383 0.250049
vt 0.197217 0.250049
vt 0.197217 0.257790
vt 0.192383 0.257790
vt 0.197217 0.265604
vt 0.192383 0.265605
vt 0.187549 0.257791
vt 0.187549 0.265605
vt 0.187549 0.250049
vt 0.206299 0.250000
vt 0.210938 0.250000
vt 0.210938 0.257812
vt 0.206299 0.257812
vt 0.210938 0.273438
vt 0.206299 0.273438
vt 0.201172 0.257812
vt 0.201172 0.273438
vt 0.201172 0.250000
vt 0.206299 0.250000
vt 0.210938 0.250000
vt 0.210938 0.257812
vt 0.206299 0.257812
vt 0.210938 0.273438
vt 0.206299 0.273438
vt 0.201172 0.257812
vt 0.201172 0.273438
vt 0.201172 0.250000
vt 0.206299 0.250000
vt 0.210938 0.250000
vt 0.210938 0.257812
vt 0.206299 0.257812
vt 0.210938 0.273438
vt 0.206299 0.273438
vt 0.201172 0.257812
vt 0.201172 0.273438
vt 0.201172 0.250000
vt 0.206299 0.250000
vt 0.210938 0.250000
vt 0.210938 0.257812
vt 0.206299 0.257812
vt 0.210938 0.273438
vt 0.206299 0.273438
vt 0.201172 0.257812
vt 0.201172 0.273438
vt 0.201172 0.250000
vt 0.192383 0.250049
vt 0.197217 0.250049
vt 0.197217 0.257790
vt 0.192383 0.257790
vt 0.197217 0.265604
vt 0.192383 0.265605
vt 0.187549 0.257791
vt 0.187549 0.265605
vt 0.187549 0.250049
vt 0.192383 0.250049
vt 0.197217 0.250049
vt 0.197217 0.257790
vt 0.192383 0.257790
vt 0.197217 0.265604
vt 0.192383 0.265605
vt 0.187549 0.257791
vt 0.187549 0.265605
vt 0.187549 0.250049
vt 0.192383 0.250049
vt 0.197217 0.250049
vt 0.197217 0.257790
vt 0.192383 0.257790
vt 0.197217 0.265604
vt 0.192383 0.265605
vt 0.187549 0.257791
vt 0.187549 0.265605
vt 0.187549 0.250049
vt 0.206299 0.250000
vt 0.210938 0.250000
vt 0.210938 0.257812
vt 0.206299 0.257812
vt 0.210938 0.273438
vt 0.206299 0.273438
vt 0.201172 0.257812
vt 0.201172 0.273438
vt 0.201172 0.250000
vt 0.206299 0.250000
vt 0.210938 0.250000
vt 0.210938 0.257812
vt 0.206299 0.257812
vt 0.210938 0.273438
vt 0.206299 0.273438
vt 0.201172 0.257812
vt 0.201172 0.273438
vt 0.201172 0.250000
vt 0.206299 0.250000
vt 0.210938 0.250000
vt 0.210938 0.257812
vt 0.206299 0.257812
vt 0.210938 0.273438
vt 0.206299 0.273438
vt 0.201172 0.257812
vt 0.201172 0.273438
vt 0.201172 0.250000
vt 0.206299 0.250000
vt 0.210938 0.250000
vt 0.210938 0.257812
vt 0.206299 0.257812
vt 0.210938 0.273438
vt 0.206299 0.273438
vt 0.201172 0.257812
vt 0.201172 0.273438
vt 0.201172 0.250000
vt 0.192383 0.250049
vt 0.197217 0.250049
vt 0.197217 0.257790
vt 0.192383 0.257790
vt 0.197217 0.265604
vt 0.192383 0.265605
vt 0.187549 0.257791
vt 0.187549 0.265605
vt 0.187549 0.250049
vt 0.192383 0.250049
vt 0.197217 0.250049
vt 0.197217 0.257790
vt 0.192383 0.257790
vt 0.197217 0.265604
vt 0.192383 0.265605
vt 0.187549 0.257791
vt 0.187549 0.265605
vt 0.187549 0.250049
vt 0.192383 0.250049
vt 0.197217 0.250049
vt 0.197217 0.257790
vt 0.192383 0.257790
vt 0.197217 0.265604
vt 0.192383 0.265605
vt 0.187549 0.257791
vt 0.187549 0.265605
vt 0.187549 0.250049
vt 0.206299 0.250000
vt 0.210938 0.250000
vt 0.210938 0.257812
vt 0.206299 0.257812
vt 0.210938 0.273438
vt 0.206299 0.273438
vt 0.201172 0.257812
vt 0.201172 0.273438
vt 0.201172 0.250000
vt 0.206299 0.250000
vt 0.210938 0.250000
vt 0.210938 0.257812
vt 0.206299 0.257812
vt 0.210938 0.273438
vt 0.206299 0.273438
vt 0.201172 0.257812
vt 0.201172 0.273438
vt 0.201172 0.250000
vt 0.206299 0.250000
vt 0.210938 0.250000
vt 0.210938 0.257812
vt 0.206299 0.257812
vt 0.210938 0.273438
vt 0.206299 0.273438
vt 0.201172 0.257812
vt 0.201172 0.273438
vt 0.201172 0.250000
vt 0.206299 0.250000
vt 0.210938 0.250000
vt 0.210938 0.257812
vt 0.206299 0.257812
vt 0.210938 0.273438
vt 0.206299 0.273438
vt 0.201172 0.257812
vt 0.201172 0.273438
vt 0.201172 0.250000
vt 0.192383 0.250049
vt 0.197217 0.250049
vt 0.197217 0.257790
vt 0.192383 0.257790
vt 0.197217 0.265604
vt 0.192383 0.265605
vt 0.187549 0.257791
vt 0.187549 0.265605
vt 0.187549 0.250049
vn -0.4076 -0.1575 0.8994
vn -0.0021 -0.2119 0.9773
vn 0.0151 -0.0219 0.9996
vn -0.3833 0.0288 0.9232
vn 0.0304 0.1513 0.9880
vn -0.3408 0.2324 0.9109
vn -0.7115 0.1117 0.6937
vn -0.6607 0.2785 0.6971
vn -0.7424 -0.0757 0.6656
vn 0.3868 0.6976 0.6031
vn 0.2477 0.9263 0.2840
vn 0.0739 0.9277 0.3658
vn 0.2129 0.7034 0.6782
vn -0.0863 0.8994 0.4284
vn 0.0131 0.6806 0.7325
vn 0.2810 0.3601 0.8896
vn 0.1107 0.3596 0.9265
vn 0.4587 0.3479 0.8176
vn -0.1771 0.4844 0.8567
vn 0.1070 0.7293 0.6757
vn 0.0313 0.7788 0.6265
vn -0.2537 0.5368 0.8046
vn -0.0406 0.8180 0.5737
vn -0.3315 0.5856 0.7397
vn -0.5033 0.2080 0.8386
vn -0.5673 0.2557 0.7827
vn -0.4305 0.1555 0.8891
vn -0.0020 0.3501 0.9367
vn -0.2657 0.0288 0.9636
vn -0.1859 -0.0337 0.9820
vn 0.0790 0.2836 0.9557
vn -0.1086 -0.0925 0.9897
vn 0.1636 0.2100 0.9639
vn 0.3390 0.5450 0.7668
vn 0.4085 0.4776 0.7778
vn 0.2620 0.6106 0.7473
vn 0.0931 -0.0513 0.9943
vn 0.1927 -0.0285 0.9808
vn 0.1014 0.3714 0.9229
vn 0.2850 -0.0066 0.9585
vn 0.2093 0.3893 0.8970
vn 0.0037 0.7096 0.7046
vn 0.0988 0.7205 0.6863
vn -0.0968 0.6907 0.7166
vn -0.2755 0.6021 0.7493
vn -0.3502 0.5342 0.7694
vn -0.0807 0.2811 0.9562
vn -0.4176 0.4646 0.7809
vn -0.1628 0.2048 0.9651
vn 0.1942 -0.0276 0.9806
vn 0.1189 -0.0889 0.9889
vn 0.2719 0.0373 0.9616
vn -0.7604 -0.3531 0.5451
vn -0.4308 -0.5197 0.7378
vn -0.4122 -0.3570 0.8382
vn -0.7362 -0.1958 0.6478
vn -0.3821 -0.1978 0.9027
vn -0.6792 -0.0149 0.7338
vn -0.9297 0.0301 0.3671
vn -0.8742 0.1702 0.4547
vn -0.9580 -0.1253 0.2578
vn -0.6154 0.3887 0.6857
vn -0.4065 0.1048 0.9076
vn -0.2672 0.2342 0.9348
vn -0.4743 0.5112 0.7167
vn -0.1320 0.3442 0.9295
vn -0.2997 0.6247 0.7210
vn -0.5724 0.7253 0.3824
vn -0.4223 0.8113 0.4042
vn -0.7175 0.6052 0.3448
vn 0.5886 0.3987 0.7032
vn 0.7414 0.5691 0.3553
vn 0.6064 0.7053 0.3673
vn 0.4583 0.5361 0.7089
vn 0.4643 0.8063 0.3664
vn 0.2962 0.6648 0.6857
vn 0.2061 0.3027 0.9305
vn 0.0837 0.4235 0.9020
vn 0.3337 0.1590 0.9292
vn 0.0000 0.6824 0.7310
vn 0.4073 0.6232 0.6676
vn 0.4052 0.6951 0.5939
vn 0.0000 0.7562 0.6543
vn 0.3992 0.7563 0.5183
vn 0.0000 0.8249 0.5653
vn -0.4052 0.6951 0.5939
vn -0.3992 0.7563 0.5183
vn -0.4074 0.6232 0.6676
vn 0.0000 0.4931 0.8699
vn -0.4073 0.4447 0.7977
vn -0.4035 0.3529 0.8441
vn 0.0017 0.3979 0.9174
vn -0.3960 0.2626 0.8799
vn 0.0034 0.2924 0.9563
vn 0.4068 0.3641 0.8378
vn 0.4023 0.2736 0.8737
vn 0.4073 0.4560 0.7913
vn -0.2350 0.1609 0.9586
vn -0.1497 0.1084 0.9828
vn 0.0868 0.4370 0.8952
vn -0.0676 0.0577 0.9960
vn 0.1775 0.3724 0.9109
vn 0.3178 0.6843 0.6563
vn 0.3930 0.6250 0.6744
vn 0.2350 0.7399 0.6304
vn 0.0461 0.8025 0.5949
vn -0.0563 0.8084 0.5860
vn -0.1056 0.5008 0.8590
vn -0.1527 0.8060 0.5718
vn -0.2159 0.5028 0.8370
vn -0.1480 0.1079 0.9831
vn -0.2431 0.1159 0.9630
vn -0.0461 0.0983 0.9941
vn -0.8932 0.3887 0.2262
vn -0.8435 0.1048 0.5268
vn -0.7429 0.2342 0.6271
vn -0.7933 0.5112 0.3306
vn -0.6278 0.3442 0.6981
vn -0.6507 0.6247 0.4315
vn -0.6884 0.7253 -0.0016
vn -0.5760 0.8113 0.1002
vn -0.7879 0.6052 -0.1137
vn -0.9561 -0.1575 0.2468
vn -0.7624 -0.2119 0.6114
vn -0.7689 -0.0219 0.6389
vn -0.9594 0.0288 0.2806
vn -0.7503 0.1513 0.6435
vn -0.9232 0.2324 0.3061
vn -0.9866 0.1117 -0.1189
vn -0.9573 0.2785 -0.0772
vn -0.9841 -0.0757 -0.1606
vn -0.2270 0.6976 0.6796
vn -0.0658 0.9263 0.3710
vn -0.2385 0.9277 0.2870
vn -0.3945 0.7034 0.5912
vn -0.3878 0.8994 0.2015
vn -0.5622 0.6806 0.4698
vn -0.5164 0.3601 0.7769
vn -0.6521 0.3596 0.6674
vn -0.3489 0.3479 0.8702
vn -0.7783 0.4844 0.3995
vn -0.4591 0.7293 0.5073
vn -0.4682 0.7788 0.4174
vn -0.7858 0.5368 0.3072
vn -0.4722 0.8180 0.3283
vn -0.7840 0.5856 0.2059
vn -0.9689 0.2080 0.1342
vn -0.9655 0.2557 0.0492
vn -0.9624 0.1555 0.2225
vn -0.7307 0.3501 0.5861
vn -0.9171 0.0288 0.3976
vn -0.8813 -0.0337 0.4712
vn -0.6946 0.2836 0.6611
vn -0.8389 -0.0925 0.5363
vn -0.6480 0.2100 0.7321
vn -0.3845 0.5450 0.7450
vn -0.3494 0.4776 0.8061
vn -0.4176 0.6106 0.6729
vn -0.7159 -0.0512 0.6963
vn -0.6429 -0.0284 0.7654
vn -0.6551 0.3714 0.6579
vn -0.5676 -0.0066 0.8232
vn -0.5672 0.3893 0.7257
vn -0.5463 0.7096 0.4449
vn -0.4725 0.7205 0.5076
vn -0.6188 0.6907 0.3742
vn -0.7564 0.6021 0.2555
vn -0.8189 0.5342 0.2099
vn -0.7953 0.2811 0.5370
vn -0.8701 0.4646 0.1647
vn -0.8538 0.2048 0.4787
vn -0.6417 -0.0276 0.7664
vn -0.6955 -0.0889 0.7129
vn -0.5783 0.0373 0.8150
vn -0.9015 -0.3531 -0.2502
vn -0.8448 -0.5197 0.1273
vn -0.9113 -0.3570 0.2048
vn -0.9663 -0.1958 -0.1669
vn -0.9427 -0.1978 0.2687
vn -0.9975 -0.0149 -0.0685
vn -0.8691 0.0301 -0.4936
vn -0.9025 0.1702 -0.3955
vn -0.8018 -0.1253 -0.5843
vn 0.4803 0.7814 0.3984
vn 0.7959 0.5381 0.2774
vn 0.7823 0.6145 0.1016
vn 0.4728 0.8525 0.2230
vn 0.7450 0.6642 -0.0612
vn 0.4449 0.8953 0.0211
vn 0.0809 0.9590 0.2715
vn 0.0780 0.9919 0.1003
vn 0.0813 0.8891 0.4504
vn 0.5452 0.3941 -0.7399
vn 0.1666 0.3738 -0.9124
vn 0.1246 0.5425 -0.8307
vn 0.4970 0.5602 -0.6627
vn 0.0825 0.6785 -0.7300
vn 0.4235 0.7195 -0.5504
vn 0.7749 0.5152 -0.3661
vn 0.7009 0.6524 -0.2882
vn 0.8292 0.3459 -0.4391
vn 0.4471 0.8493 -0.2807
vn 0.4258 0.6396 -0.6400
vn 0.3317 0.6782 -0.6557
vn 0.3495 0.8879 -0.2989
vn 0.2393 0.7082 -0.6642
vn 0.2423 0.9178 -0.3144
vn 0.2968 0.9489 0.1074
vn 0.2049 0.9748 0.0876
vn 0.3907 0.9116 0.1272
vn 0.6430 0.7306 -0.2297
vn 0.5746 0.7994 0.1754
vn 0.6503 0.7333 0.1982
vn 0.7207 0.6626 -0.2038
vn 0.7156 0.6637 0.2179
vn 0.7939 0.5826 -0.1740
vn 0.6753 0.4704 -0.5679
vn 0.7402 0.4046 -0.5369
vn 0.5998 0.5351 -0.5949
vn 0.8315 0.5475 0.0934
vn 0.8761 0.4812 0.0284
vn 0.6900 0.6609 -0.2951
vn 0.9098 0.4137 -0.0333
vn 0.7311 0.5792 -0.3605
vn 0.3901 0.7194 -0.5747
vn 0.4310 0.6484 -0.6276
vn 0.3429 0.7869 -0.5130
vn 0.2797 0.8929 -0.3528
vn 0.2649 0.9292 -0.2576
vn 0.6256 0.7689 -0.1318
vn 0.2484 0.9545 -0.1649
vn 0.5995 0.7999 -0.0269
vn 0.8767 0.4803 0.0270
vn 0.8510 0.5123 0.1155
vn 0.8947 0.4416 -0.0667
vn 0.0380 0.7170 0.6960
vn 0.4205 0.5538 0.7186
vn 0.4737 0.6682 0.5737
vn 0.0974 0.8270 0.5536
vn 0.5069 0.7507 0.4237
vn 0.1586 0.9136 0.3744
vn -0.2836 0.8665 0.4107
vn -0.2134 0.9392 0.2688
vn -0.3511 0.7559 0.5526
vn 0.2448 0.2653 0.9326
vn 0.6135 0.2774 0.7393
vn 0.5728 0.4559 0.6811
vn 0.2114 0.4417 0.8719
vn 0.5176 0.6035 0.6065
vn 0.1660 0.6171 0.7692
vn -0.1927 0.3870 0.9017
vn -0.2104 0.5379 0.8163
vn -0.1664 0.2072 0.9640
vn 0.3838 0.9209 -0.0679
vn 0.0222 0.9625 -0.2705
vn -0.0644 0.9927 -0.1017
vn 0.2918 0.9517 0.0948
vn -0.1410 0.9885 0.0548
vn 0.1788 0.9462 0.2696
vn 0.5800 0.7543 0.3075
vn 0.4718 0.7618 0.4439
vn 0.6788 0.7196 0.1464
vn 0.1720 0.8220 0.5429
vn 0.2015 0.9673 0.1537
vn 0.0997 0.9832 0.1531
vn 0.0670 0.8390 0.5400
vn 0.0023 0.9885 0.1510
vn -0.0448 0.8466 0.5304
vn 0.0115 0.5521 0.8336
vn -0.0845 0.5639 0.8215
vn 0.1128 0.5340 0.8379
vn 0.3955 0.7519 0.5275
vn 0.3228 0.4675 0.8229
vn 0.4151 0.4258 0.8040
vn 0.4904 0.7071 0.5094
vn 0.4983 0.3822 0.7782
vn 0.5846 0.6511 0.4840
vn 0.4915 0.8618 0.1251
vn 0.5736 0.8118 0.1094
vn 0.3996 0.9058 0.1405
vn 0.6391 0.4321 0.6363
vn 0.6990 0.4513 0.5547
vn 0.4587 0.7699 0.4436
vn 0.7488 0.4652 0.4721
vn 0.5197 0.7795 0.3497
vn 0.1462 0.9579 0.2472
vn 0.2042 0.9642 0.1691
vn 0.0833 0.9413 0.3271
vn -0.0029 0.8689 0.4950
vn -0.0246 0.8144 0.5797
vn 0.3708 0.6961 0.6147
vn -0.0449 0.7550 0.6542
vn 0.3401 0.6287 0.6993
vn 0.6997 0.4520 0.5532
vn 0.6686 0.3979 0.6281
vn 0.7253 0.5045 0.4684
vn -0.1502 -0.0947 0.9841
vn 0.2637 -0.1308 0.9557
vn 0.2768 0.0608 0.9590
vn -0.1298 0.0936 0.9871
vn 0.2799 0.2329 0.9313
vn -0.1020 0.2966 0.9495
vn -0.5102 0.1479 0.8472
vn -0.4685 0.3157 0.8251
vn -0.5381 -0.0421 0.8418
vn 0.8796 0.3052 0.3649
vn 0.9889 0.1486 -0.0052
vn 0.9444 0.3174 -0.0854
vn 0.8379 0.4689 0.2791
vn 0.8739 0.4606 -0.1556
vn 0.7575 0.6293 0.1733
vn 0.5801 0.5729 0.5790
vn 0.5274 0.7035 0.4762
vn 0.6177 0.4089 0.6717
vn 0.3387 0.6898 -0.6399
vn -0.0457 0.8280 -0.5588
vn 0.0229 0.9153 -0.4020
vn 0.3994 0.7786 -0.4840
vn 0.0844 0.9654 -0.2468
vn 0.4496 0.8439 -0.2927
vn 0.7198 0.5265 -0.4523
vn 0.7472 0.5956 -0.2946
vn 0.6644 0.4319 -0.6100
vn 0.6261 0.7775 -0.0590
vn 0.3836 0.8359 -0.3926
vn 0.3170 0.8878 -0.3337
vn 0.5557 0.8314 0.0001
vn 0.2508 0.9283 -0.2746
vn 0.4746 0.8780 0.0624
vn 0.6913 0.6375 0.3401
vn 0.6196 0.6817 0.3891
vn 0.7599 0.5842 0.2848
vn 0.7553 0.6284 -0.1862
vn 0.8809 0.4435 0.1652
vn 0.9233 0.3682 0.1091
vn 0.7996 0.5495 -0.2422
vn 0.9544 0.2933 0.0550
vn 0.8366 0.4594 -0.2983
vn 0.5430 0.6277 -0.5578
vn 0.5798 0.5490 -0.6020
vn 0.4986 0.7043 -0.5053
vn 0.9530 0.2637 -0.1488
vn 0.9367 0.2459 -0.2490
vn 0.7394 0.6079 -0.2894
vn 0.9122 0.2267 -0.3413
vn 0.7135 0.5787 -0.3949
vn 0.4130 0.8629 -0.2911
vn 0.3962 0.8345 -0.3828
vn 0.4265 0.8840 -0.1912
vn 0.4803 0.8771 0.0035
vn 0.5195 0.8492 0.0945
vn 0.7942 0.6008 -0.0910
vn 0.5516 0.8145 0.1798
vn 0.8255 0.5643 0.0106
vn 0.9363 0.2460 -0.2507
vn 0.9622 0.2203 -0.1603
vn 0.8993 0.2707 -0.3436
vn 0.6006 0.1300 0.7889
vn 0.8532 -0.0604 0.5180
vn 0.8915 0.1106 0.4393
vn 0.6431 0.2953 0.7066
vn 0.8977 0.2624 0.3538
vn 0.6631 0.4646 0.5869
vn 0.2933 0.4624 0.8368
vn 0.3289 0.5969 0.7318
vn 0.2438 0.2980 0.9229
vn 0.0836 0.8471 -0.5248
vn -0.3128 0.7403 -0.5950
vn -0.3613 0.8270 -0.4306
vn 0.0285 0.9309 -0.3641
vn -0.3938 0.8794 -0.2676
vn -0.0330 0.9844 -0.1724
vn 0.4026 0.8925 -0.2033
vn 0.3327 0.9416 -0.0514
vn 0.4654 0.8070 -0.3635
vn -0.6604 0.6365 0.3983
vn -0.4493 0.5092 0.7340
vn -0.3169 0.6434 0.6969
vn -0.5262 0.7667 0.3679
vn -0.1865 0.7446 0.6409
vn -0.3569 0.8779 0.3192
vn -0.6189 0.7849 -0.0299
vn -0.4737 0.8792 -0.0503
vn -0.7570 0.6534 -0.0064
vn -0.1985 0.9765 0.0840
vn -0.4305 0.8142 0.3895
vn -0.3494 0.8203 0.4528
vn -0.1160 0.9817 0.1511
vn -0.2693 0.8180 0.5083
vn -0.0274 0.9751 0.2200
vn 0.1462 0.9746 -0.1694
vn 0.2190 0.9701 -0.1047
vn 0.0678 0.9694 -0.2360
vn -0.3716 0.9260 -0.0663
vn -0.0947 0.9212 -0.3774
vn -0.1670 0.8824 -0.4397
vn -0.4447 0.8858 -0.1324
vn -0.2339 0.8372 -0.4943
vn -0.5165 0.8325 -0.2005
vn -0.6537 0.7324 0.1907
vn -0.7133 0.6893 0.1267
vn -0.5839 0.7703 0.2563
vn -0.3715 0.9260 -0.0663
vn -0.4280 0.7820 -0.4530
vn -0.5185 0.7425 -0.4239
vn -0.4654 0.8842 -0.0383
vn -0.5992 0.6979 -0.3922
vn -0.5588 0.8292 -0.0083
vn -0.3422 0.8692 0.3568
vn -0.4255 0.8227 0.3769
vn -0.2507 0.9094 0.3319
vn -0.0848 0.9688 0.2327
vn -0.0138 0.9869 0.1605
vn -0.2964 0.9448 -0.1393
vn 0.0537 0.9944 0.0905
vn -0.2134 0.9530 -0.2148
vn -0.5200 0.7420 -0.4230
vn -0.4451 0.7532 -0.4844
vn -0.5938 0.7226 -0.3539
vn 0.5603 0.6037 -0.5672
vn 0.2087 0.5780 -0.7889
vn 0.1351 0.7192 -0.6815
vn 0.4815 0.7427 -0.4654
vn 0.0640 0.8245 -0.5621
vn 0.3750 0.8646 -0.3343
vn 0.7299 0.6669 -0.1496
vn 0.6297 0.7748 -0.0563
vn 0.8147 0.5247 -0.2470
vn 0.3532 0.2247 -0.9081
vn -0.0318 0.3826 -0.9233
vn 0.0345 0.5423 -0.8395
vn 0.4117 0.3851 -0.8260
vn 0.0936 0.6699 -0.7365
vn 0.4589 0.5452 -0.7015
vn 0.7302 0.1939 -0.6550
vn 0.7553 0.3387 -0.5611
vn 0.6770 0.0278 -0.7354
vn -0.0188 0.9978 -0.0632
vn 0.1855 0.9374 0.2946
vn 0.3479 0.9172 0.1940
vn 0.1450 0.9771 -0.1559
vn 0.4843 0.8695 0.0964
vn 0.3190 0.9138 -0.2514
vn -0.0501 0.8659 -0.4977
vn 0.1058 0.8208 -0.5614
vn -0.2199 0.8851 -0.4101
vn 0.4148 0.7644 -0.4935
vn 0.2516 0.9544 -0.1607
vn 0.3381 0.9348 -0.1085
vn 0.5033 0.7451 -0.4375
vn 0.4168 0.9072 -0.0580
vn 0.5906 0.7155 -0.3731
vn 0.5913 0.4250 -0.6853
vn 0.6662 0.4049 -0.6262
vn 0.5061 0.4418 -0.7407
vn 0.2042 0.7762 -0.5964
vn 0.3077 0.4524 -0.8370
vn 0.2102 0.4468 -0.8696
vn 0.1039 0.7685 -0.6313
vn 0.1158 0.4371 -0.8919
vn -0.0033 0.7510 -0.6603
vn -0.0310 0.9571 -0.2880
vn -0.1218 0.9399 -0.3189
vn 0.0652 0.9654 -0.2524
vn -0.0488 0.5474 -0.8354
vn -0.1298 0.5949 -0.7932
vn 0.1190 0.8240 -0.5540
vn -0.2052 0.6341 -0.7455
vn 0.0276 0.8642 -0.5023
vn 0.3382 0.9162 -0.2149
vn 0.2558 0.9506 -0.1757
vn 0.4217 0.8704 -0.2540
vn 0.5476 0.7545 -0.3617
vn 0.5874 0.6867 -0.4282
vn 0.2472 0.7059 -0.6638
vn 0.6194 0.6158 -0.4870
vn 0.2896 0.6229 -0.7267
vn -0.1309 0.5960 -0.7922
vn -0.0883 0.5264 -0.8456
vn -0.1746 0.6633 -0.7277
vn 0.5686 -0.2510 -0.7833
vn 0.2112 -0.1416 -0.9671
vn 0.2692 0.0414 -0.9622
vn 0.6194 -0.0685 -0.7820
vn 0.3132 0.2064 -0.9269
vn 0.6496 0.1347 -0.7482
vn 0.8740 -0.1305 -0.4681
vn 0.8884 0.0428 -0.4571
vn 0.8274 -0.3168 -0.4637
vn -0.4180 0.5411 -0.7297
vn -0.7411 0.4737 -0.4757
vn -0.6860 0.6255 -0.3716
vn -0.3696 0.6897 -0.6226
vn -0.6140 0.7434 -0.2652
vn -0.3012 0.8244 -0.4793
vn 0.0194 0.6656 -0.7461
vn 0.0568 0.7815 -0.6213
vn -0.0224 0.5145 -0.8571
vn -0.3432 0.8316 0.4365
vn 0.0519 0.8216 0.5677
vn 0.1042 0.9085 0.4046
vn -0.2846 0.9174 0.2781
vn 0.1484 0.9585 0.2435
vn -0.2083 0.9736 0.0927
vn -0.6131 0.7866 0.0727
vn -0.5337 0.8426 -0.0720
vn -0.6789 0.6974 0.2296
vn -0.2581 0.9447 -0.2019
vn -0.2072 0.9552 0.2112
vn -0.1070 0.9745 0.1973
vn -0.1542 0.9645 -0.2141
vn -0.0111 0.9832 0.1822
vn -0.0426 0.9736 -0.2243
vn -0.1638 0.7907 -0.5899
vn -0.0670 0.8021 -0.5934
vn -0.2643 0.7704 -0.5802
vn -0.4756 0.8636 -0.1673
vn -0.4686 0.6934 -0.5473
vn -0.5562 0.6437 -0.5256
vn -0.5660 0.8112 -0.1468
vn -0.6337 0.5905 -0.4998
vn -0.6545 0.7459 -0.1234
vn -0.4881 0.8333 0.2594
vn -0.5665 0.7773 0.2735
vn -0.4001 0.8840 0.2418
vn -0.7426 0.5855 -0.3250
vn -0.7848 0.5748 -0.2317
vn -0.5206 0.8507 -0.0717
vn -0.8171 0.5589 -0.1411
vn -0.5617 0.8267 0.0302
vn -0.1716 0.9789 0.1109
vn -0.2130 0.9571 0.1964
vn -0.1261 0.9918 0.0194
vn -0.0762 0.9814 -0.1762
vn -0.0728 0.9583 -0.2764
vn -0.4698 0.8401 -0.2710
vn -0.0688 0.9270 -0.3687
vn -0.4578 0.8050 -0.3771
vn -0.7852 0.5748 -0.2300
vn -0.7707 0.5493 -0.3229
vn -0.7925 0.5959 -0.1294
vn -0.0486 0.2349 -0.9708
vn -0.4495 0.1732 -0.8763
vn -0.4590 0.3548 -0.8145
vn -0.0652 0.4130 -0.9084
vn -0.4529 0.5085 -0.7323
vn -0.0808 0.5915 -0.8022
vn 0.3363 0.4361 -0.8347
vn 0.3034 0.5857 -0.7515
vn 0.3607 0.2559 -0.8969
usemtl frostland_tilesheet
s 1
f 7/1/1 2/2/2 6/3/3 9/4/4
f 9/4/4 6/3/3 3/5/5 8/6/6
f 5/7/7 9/4/4 8/6/6 4/8/8
f 1/9/9 7/1/1 9/4/4 5/7/7
f 16/10/10 11/11/11 15/12/12 18/13/13
f 18/13/13 15/12/12 12/14/14 17/15/15
f 14/16/16 18/13/13 17/15/15 13/17/17
f 10/18/18 16/10/10 18/13/13 14/16/16
f 25/19/19 20/20/20 24/21/21 27/22/22
f 27/22/22 24/21/21 21/23/23 26/24/24
f 23/25/25 27/22/22 26/24/24 22/26/26
f 19/27/27 25/19/19 27/22/22 23/25/25
f 34/28/28 29/29/29 33/30/30 36/31/31
f 36/31/31 33/30/30 30/32/32 35/33/33
f 32/34/34 36/31/31 35/33/33 31/35/35
f 28/36/36 34/28/28 36/31/31 32/34/34
f 43/37/28 38/38/37 42/39/38 45/40/39
f 45/40/39 42/39/38 39/41/40 44/42/41
f 41/43/42 45/40/39 44/42/41 40/44/43
f 37/45/44 43/37/28 45/40/39 41/43/42
f 52/46/28 47/47/45 51/48/46 54/49/47
f 54/49/47 51/48/46 48/50/48 53/51/49
f 50/52/50 54/49/47 53/51/49 49/53/51
f 46/54/52 52/46/28 54/49/47 50/52/50
f 61/55/53 56/56/54 60/57/55 63/58/56
f 63/58/56 60/57/55 57/59/57 62/60/58
f 59/61/59 63/58/56 62/60/58 58/62/60
f 55/63/61 61/55/53 63/58/56 59/61/59
f 70/64/62 65/65/63 69/66/64 72/67/65
f 72/67/65 69/66/64 66/68/66 71/69/67
f 68/70/68 72/67/65 71/69/67 67/71/69
f 64/72/70 70/64/62 72/67/65 68/70/68
f 79/73/71 74/74/72 78/75/73 81/76/74
f 81/76/74 78/75/73 75/77/75 80/78/76
f 77/79/77 81/76/74 80/78/76 76/80/78
f 73/81/79 79/73/71 81/76/74 77/79/77
f 88/82/80 83/83/81 87/84/82 90/85/83
f 90/85/83 87/84/82 84/86/84 89/87/85
f 86/88/86 90/85/83 89/87/85 85/89/87
f 82/90/88 88/82/80 90/85/83 86/88/86
f 97/91/89 92/92/90 96/93/91 99/94/92
f 99/94/92 96/93/91 93/95/93 98/96/94
f 95/97/95 99/94/92 98/96/94 94/98/96
f 91/99/97 97/91/89 99/94/92 95/97/95
f 106/100/89 101/101/98 105/102/99 108/103/100
f 108/103/100 105/102/99 102/104/101 107/105/102
f 104/106/103 108/103/100 107/105/102 103/107/104
f 100/108/105 106/100/89 108/103/100 104/106/103
f 115/109/89 110/110/106 114/111/107 117/112/108
f 117/112/108 114/111/107 111/113/109 116/114/110
f 113/115/111 117/112/108 116/114/110 112/116/112
f 109/117/113 115/109/89 117/112/108 113/115/111
f 124/118/114 119/119/115 123/120/116 126/121/117
f 126/121/117 123/120/116 120/122/118 125/123/119
f 122/124/120 126/121/117 125/123/119 121/125/121
f 118/126/122 124/118/114 126/121/117 122/124/120
f 133/127/123 128/128/124 132/129/125 135/130/126
f 135/130/126 132/129/125 129/131/127 134/132/128
f 131/133/129 135/130/126 134/132/128 130/134/130
f 127/135/131 133/127/123 135/130/126 131/133/129
f 142/136/132 137/137/133 141/138/134 144/139/135
f 144/139/135 141/138/134 138/140/136 143/141/137
f 140/142/138 144/139/135 143/141/137 139/143/139
f 136/144/140 142/136/132 144/139/135 140/142/138
f 151/145/141 146/146/142 150/147/143 153/148/144
f 153/148/144 150/147/143 147/149/145 152/150/146
f 149/151/147 153/148/144 152/150/146 148/152/148
f 145/153/149 151/145/141 153/148/144 149/151/147
f 160/154/150 155/155/151 159/156/152 162/157/153
f 162/157/153 159/156/152 156/158/154 161/159/155
f 158/160/156 162/157/153 161/159/155 157/161/157
f 154/162/158 160/154/150 162/157/153 158/160/156
f 169/163/150 164/164/159 168/165/160 171/166/161
f 171/166/161 168/165/160 165/167/162 170/168/163
f 167/169/164 171/166/161 170/168/163 166/170/165
f 163/171/166 169/163/150 171/166/161 167/169/164
f 178/172/150 173/173/167 177/174/168 180/175/169
f 180/175/169 177/174/168 174/176/170 179/177/171
f 176/178/172 180/175/169 179/177/171 175/179/173
f 172/180/174 178/172/150 180/175/169 176/178/172
f 187/181/175 182/182/176 186/183/177 189/184/178
f 189/184/178 186/183/177 183/185/179 188/186/180
f 185/187/181 189/184/178 188/186/180 184/188/182
f 181/189/183 187/181/175 189/184/178 185/187/181
f 196/190/184 191/191/185 195/192/186 198/193/187
f 198/193/187 195/192/186 192/194/188 197/195/189
f 194/196/190 198/193/187 197/195/189 193/197/191
f 190/198/192 196/190/184 198/193/187 194/196/190
f 205/199/193 200/200/194 204/201/195 207/202/196
f 207/202/196 204/201/195 201/203/197 206/204/198
f 203/205/199 207/202/196 206/204/198 202/206/200
f 199/207/201 205/199/193 207/202/196 203/205/199
f 214/208/202 209/209/203 213/210/204 216/211/205
f 216/211/205 213/210/204 210/212/206 215/213/207
f 212/214/208 216/211/205 215/213/207 211/215/209
f 208/216/210 214/208/202 216/211/205 212/214/208
f 223/217/211 218/218/212 222/219/213 225/220/214
f 225/220/214 222/219/213 219/221/215 224/222/216
f 221/223/217 225/220/214 224/222/216 220/224/218
f 217/225/219 223/217/211 225/220/214 221/223/217
f 232/226/211 227/227/220 231/228/221 234/229/222
f 234/229/222 231/228/221 228/230/223 233/231/224
f 230/232/225 234/229/222 233/231/224 229/233/226
f 226/234/227 232/226/211 234/229/222 230/232/225
f 241/235/211 236/236/228 240/237/229 243/238/230
f 243/238/230 240/237/229 237/239/231 242/240/232
f 239/241/233 243/238/230 242/240/232 238/242/234
f 235/243/235 241/235/211 243/238/230 239/241/233
f 250/244/236 245/245/237 249/246/238 252/247/239
f 252/247/239 249/246/238 246/248/240 251/249/241
f 248/250/242 252/247/239 251/249/241 247/251/243
f 244/252/244 250/244/236 252/247/239 248/250/242
f 259/253/245 254/254/246 258/255/247 261/256/248
f 261/256/248 258/255/247 255/257/249 260/258/250
f 257/259/251 261/256/248 260/258/250 256/260/252
f 253/261/253 259/253/245 261/256/248 257/259/251
f 268/262/254 263/263/255 267/264/256 270/265/257
f 270/265/257 267/264/256 264/266/258 269/267/259
f 266/268/260 270/265/257 269/267/259 265/269/261
f 262/270/262 268/262/254 270/265/257 266/268/260
f 277/271/263 272/272/264 276/273/265 279/274/266
f 279/274/266 276/273/265 273/275/267 278/276/268
f 275/277/269 279/274/266 278/276/268 274/278/270
f 271/279/271 277/271/263 279/274/266 275/277/269
f 286/280/272 281/281/273 285/282/274 288/283/275
f 288/283/275 285/282/274 282/284/276 287/285/277
f 284/286/278 288/283/275 287/285/277 283/287/279
f 280/288/280 286/280/272 288/283/275 284/286/278
f 295/289/272 290/290/281 294/291/282 297/292/283
f 297/292/283 294/291/282 291/293/284 296/294/285
f 293/295/286 297/292/283 296/294/285 292/296/287
f 289/297/288 295/289/272 297/292/283 293/295/286
f 304/298/272 299/299/289 303/300/290 306/301/291
f 306/301/291 303/300/290 300/302/292 305/303/293
f 302/304/294 306/301/291 305/303/293 301/305/295
f 298/306/296 304/298/272 306/301/291 302/304/294
f 313/307/297 308/308/298 312/309/299 315/310/300
f 315/310/300 312/309/299 309/311/301 314/312/302
f 311/313/303 315/310/300 314/312/302 310/314/304
f 307/315/305 313/307/297 315/310/300 311/313/303
f 322/316/306 317/317/307 321/318/308 324/319/309
f 324/319/309 321/318/308 318/320/310 323/321/311
f 320/322/312 324/319/309 323/321/311 319/323/313
f 316/324/314 322/316/306 324/319/309 320/322/312
f 331/325/315 326/326/316 330/327/317 333/328/318
f 333/328/318 330/327/317 327/329/319 332/330/320
f 329/331/321 333/328/318 332/330/320 328/332/322
f 325/333/323 331/325/315 333/328/318 329/331/321
f 340/334/324 335/335/325 339/336/326 342/337/327
f 342/337/327 339/336/326 336/338/328 341/339/329
f 338/340/330 342/337/327 341/339/329 337/341/331
f 334/342/332 340/334/324 342/337/327 338/340/330
f 349/343/333 344/344/334 348/345/335 351/346/336
f 351/346/336 348/345/335 345/347/337 350/348/338
f 347/349/339 351/346/336 350/348/338 346/350/340
f 343/351/341 349/343/333 351/346/336 347/349/339
f 358/352/333 353/353/342 357/354/343 360/355/344
f 360/355/344 357/354/343 354/356/345 359/357/346
f 356/358/347 360/355/344 359/357/346 355/359/348
f 352/360/349 358/352/333 360/355/344 356/358/347
f 367/361/333 362/362/350 366/363/351 369/364/352
f 369/364/352 366/363/351 363/365/353 368/366/354
f 365/367/355 369/364/352 368/366/354 364/368/356
f 361/369/357 367/361/333 369/364/352 365/367/355
f 376/370/358 371/371/359 375/372/360 378/373/361
f 378/373/361 375/372/360 372/374/362 377/375/363
f 374/376/364 378/373/361 377/375/363 373/377/365
f 370/378/366 376/370/358 378/373/361 374/376/364
f 385/379/367 380/380/368 384/381/369 387/382/370
f 387/382/370 384/381/369 381/383/371 386/384/372
f 383/385/373 387/382/370 386/384/372 382/386/374
f 379/387/375 385/379/367 387/382/370 383/385/373
f 394/388/376 389/389/377 393/390/378 396/391/379
f 396/391/379 393/390/378 390/392/380 395/393/381
f 392/394/382 396/391/379 395/393/381 391/395/383
f 388/396/384 394/388/376 396/391/379 392/394/382
f 403/397/385 398/398/386 402/399/387 405/400/388
f 405/400/388 402/399/387 399/401/389 404/402/390
f 401/403/391 405/400/388 404/402/390 400/404/392
f 397/405/393 403/397/385 405/400/388 401/403/391
f 412/406/394 407/407/395 411/408/396 414/409/397
f 414/409/397 411/408/396 408/410/398 413/411/399
f 410/412/400 414/409/397 413/411/399 409/413/401
f 406/414/402 412/406/394 414/409/397 410/412/400
f 421/415/403 416/416/404 420/417/405 423/418/406
f 423/418/406 420/417/405 417/419/407 422/420/408
f 419/421/409 423/418/406 422/420/408 418/422/410
f 415/423/411 421/415/403 423/418/406 419/421/409
f 430/424/403 425/425/412 429/426/413 432/427/414
f 432/427/414 429/426/413 426/428/415 431/429/416
f 428/430/417 432/427/414 431/429/416 427/431/418
f 424/432/419 430/424/403 432/427/414 428/430/417
f 439/433/420 434/434/421 438/435/422 441/436/423
f 441/436/423 438/435/422 435/437/424 440/438/425
f 437/439/426 441/436/423 440/438/425 436/440/427
f 433/441/428 439/433/420 441/436/423 437/439/426
f 448/442/429 443/443/430 447/444/431 450/445/432
f 450/445/432 447/444/431 444/446/433 449/447/434
f 446/448/435 450/445/432 449/447/434 445/449/436
f 442/450/437 448/442/429 450/445/432 446/448/435
f 457/451/438 452/452/439 456/453/440 459/454/441
f 459/454/441 456/453/440 453/455/442 458/456/443
f 455/457/444 459/454/441 458/456/443 454/458/445
f 451/459/446 457/451/438 459/454/441 455/457/444
f 466/460/447 461/461/448 465/462/449 468/463/450
f 468/463/450 465/462/449 462/464/451 467/465/452
f 464/466/453 468/463/450 467/465/452 463/467/454
f 460/468/455 466/460/447 468/463/450 464/466/453
f 475/469/456 470/470/457 474/471/458 477/472/459
f 477/472/459 474/471/458 471/473/460 476/474/461
f 473/475/462 477/472/459 476/474/461 472/476/463
f 469/477/464 475/469/456 477/472/459 473/475/462
f 484/478/456 479/479/465 483/480/466 486/481/467
f 486/481/467 483/480/466 480/482/468 485/483/469
f 482/484/470 486/481/467 485/483/469 481/485/471
f 478/486/472 484/478/456 486/481/467 482/484/470
f 493/487/456 488/488/473 492/489/474 495/490/475
f 495/490/475 492/489/474 489/491/476 494/492/477
f 491/493/478 495/490/475 494/492/477 490/494/479
f 487/495/480 493/487/456 495/490/475 491/493/478
f 502/496/481 497/497/482 501/498/483 504/499/484
f 504/499/484 501/498/483 498/500/485 503/501/486
f 500/502/487 504/499/484 503/501/486 499/503/488
f 496/504/489 502/496/481 504/499/484 500/502/487
f 511/505/490 506/506/491 510/507/492 513/508/493
f 513/508/493 510/507/492 507/509/494 512/510/495
f 509/511/496 513/508/493 512/510/495 508/512/497
f 505/513/498 511/505/490 513/508/493 509/511/496
f 520/514/499 515/515/500 519/516/501 522/517/502
f 522/517/502 519/516/501 516/518/503 521/519/504
f 518/520/505 522/517/502 521/519/504 517/521/506
f 514/522/507 520/514/499 522/517/502 518/520/505
f 529/523/508 524/524/509 528/525/510 531/526/511
f 531/526/511 528/525/510 525/527/512 530/528/513
f 527/529/514 531/526/511 530/528/513 526/530/515
f 523/531/516 529/523/508 531/526/511 527/529/514
f 538/532/517 533/533/518 537/534/519 540/535/520
f 540/535/520 537/534/519 534/536/521 539/537/522
f 536/538/523 540/535/520 539/537/522 535/539/524
f 532/540/525 538/532/517 540/535/520 536/538/523
f 547/541/517 542/542/526 546/543/527 549/544/528
f 549/544/528 546/543/527 543/545/529 548/546/530
f 545/547/531 549/544/528 548/546/530 544/548/532
f 541/549/533 547/541/517 549/544/528 545/547/531
f 556/550/517 551/551/534 555/552/535 558/553/536
f 558/553/536 555/552/535 552/554/537 557/555/538
f 554/556/539 558/553/536 557/555/538 553/557/540
f 550/558/541 556/550/517 558/553/536 554/556/539
f 565/559/542 560/560/543 564/561/544 567/562/545
f 567/562/545 564/561/544 561/563/546 566/564/547
f 563/565/548 567/562/545 566/564/547 562/566/549
f 559/567/550 565/559/542 567/562/545 563/565/548
