# Blender v2.93.5 OBJ File: 'Frostlands.blend'
# www.blender.org
mtllib SM_Grass_03.mtl
o Cylinder.035_export_temp_Cylinder.009
v 0.026518 0.156250 0.025124
v 0.057768 0.000000 0.025124
v 0.039783 0.218750 -0.035482
v 0.026518 0.000000 0.025124
v 0.103212 0.156250 -0.001038
v 0.057768 0.156250 0.025124
v -0.103213 0.000000 -0.006780
v 0.071033 0.000000 -0.035482
v -0.071963 0.000000 -0.006780
v -0.071963 0.156250 -0.006780
v -0.103213 0.156250 -0.006780
v 0.103212 0.000000 -0.001038
v 0.071962 0.000000 -0.001038
v 0.071962 0.156250 -0.001038
v 0.071033 0.218750 -0.035482
v 0.039783 0.000000 -0.035482
v -0.008316 0.218750 -0.025050
v -0.039566 0.000000 -0.025050
v -0.008316 0.000000 -0.025050
v -0.039566 0.218750 -0.025050
v -0.060945 0.156250 0.018424
v -0.060945 0.000000 0.049674
v -0.004250 0.218750 0.057730
v -0.060945 0.000000 0.018424
v -0.059816 0.156250 -0.022597
v -0.060945 0.156250 0.049674
v 0.012837 0.000000 -0.088980
v -0.004250 0.000000 0.088980
v 0.012837 0.000000 -0.057730
v 0.012837 0.156250 -0.057729
v 0.012837 0.156250 -0.088980
v -0.059816 0.000000 -0.022597
v -0.059816 0.000000 -0.053847
v -0.059816 0.156250 -0.053847
v -0.004250 0.218750 0.088980
v -0.004250 0.000000 0.057730
vt 0.207080 0.187549
vt 0.208936 0.187549
vt 0.208936 0.197217
vt 0.207080 0.197217
vt 0.207080 0.187549
vt 0.208936 0.187549
vt 0.208936 0.197217
vt 0.207080 0.197217
vt 0.207080 0.187549
vt 0.208936 0.187549
vt 0.208936 0.197217
vt 0.207080 0.197217
vt 0.189502 0.187549
vt 0.191357 0.187549
vt 0.191357 0.201123
vt 0.189502 0.201123
vt 0.189502 0.187549
vt 0.191357 0.187549
vt 0.191357 0.201123
vt 0.189502 0.201123
vt 0.207080 0.187549
vt 0.208936 0.187549
vt 0.208936 0.197217
vt 0.207080 0.197217
vt 0.207080 0.187549
vt 0.208936 0.187549
vt 0.208936 0.197217
vt 0.207080 0.197217
vt 0.207080 0.187549
vt 0.208936 0.187549
vt 0.208936 0.197217
vt 0.207080 0.197217
vt 0.189502 0.187549
vt 0.191357 0.187549
vt 0.191357 0.201123
vt 0.189502 0.201123
vn 0.0000 0.0000 1.0000
vn -1.0000 0.0000 0.0000
usemtl frostland_tilesheet
s 1
f 4/1/1 2/2/1 6/3/1 1/4/1
f 7/5/1 9/6/1 10/7/1 11/8/1
f 13/9/1 12/10/1 5/11/1 14/12/1
f 16/13/1 8/14/1 15/15/1 3/16/1
f 18/17/1 19/18/1 17/19/1 20/20/1
f 24/21/2 22/22/2 26/23/2 21/24/2
f 27/25/2 29/26/2 30/27/2 31/28/2
f 33/29/2 32/30/2 25/31/2 34/32/2
f 36/33/2 28/34/2 35/35/2 23/36/2
