# Blender v2.93.5 OBJ File: 'Frostlands.blend'
# www.blender.org
mtllib SM_Bush_01.mtl
o Cylinder.008_export_temp_Cylinder.009
v 0.190810 0.260651 0.062892
v -0.139789 0.353834 0.073500
v 0.046315 0.414625 0.004665
v -0.134628 0.012242 0.143043
v 0.154786 0.067476 0.333503
v -0.200918 0.534415 0.128136
v -0.280882 0.209427 0.061160
v 0.008683 0.132056 0.168617
v 0.289590 0.155392 0.102698
v 0.351748 0.435669 0.066700
v 0.216426 0.543613 0.032294
v -0.063855 0.612679 0.058848
v -0.031470 0.367058 0.122312
v -0.074020 0.378143 -0.218507
v 0.044931 0.451186 -0.064938
v -0.248339 0.096513 -0.109669
v -0.351748 0.282879 0.169008
v -0.077670 0.546701 -0.322940
v -0.136330 0.210605 -0.313173
v -0.205850 0.247197 -0.004613
v -0.083700 0.309547 0.250319
v 0.052460 0.563716 0.226370
v 0.093598 0.617121 0.063265
v 0.038032 0.623944 -0.221161
v -0.029679 0.376538 -0.149372
v 0.163361 0.308541 0.126677
v 0.043831 0.455190 0.041382
v 0.095927 0.000000 -0.020981
v 0.138439 0.153654 -0.333503
v 0.300186 0.433157 0.197957
v 0.166367 0.119168 0.197683
v 0.093925 0.166893 -0.108676
v -0.079932 0.322769 -0.279776
v -0.037804 0.603009 -0.221421
v 0.034517 0.641975 -0.065218
v 0.208942 0.573213 0.155870
vt 0.136768 0.287186
vt 0.143226 0.279996
vt 0.153887 0.287326
vt 0.144210 0.294937
vt 0.164619 0.278883
vt 0.155029 0.266856
vt 0.164212 0.259814
vt 0.171955 0.273112
vt 0.136768 0.271263
vt 0.148135 0.259814
vt 0.162268 0.295070
vt 0.171876 0.289710
vt 0.136768 0.287186
vt 0.143226 0.279996
vt 0.153887 0.287326
vt 0.144210 0.294937
vt 0.164619 0.278883
vt 0.155029 0.266856
vt 0.164212 0.259814
vt 0.171955 0.273112
vt 0.136768 0.271263
vt 0.148135 0.259814
vt 0.162268 0.295070
vt 0.171876 0.289710
vt 0.136768 0.287186
vt 0.143226 0.279996
vt 0.153887 0.287326
vt 0.144210 0.294937
vt 0.164619 0.278883
vt 0.155029 0.266856
vt 0.164212 0.259814
vt 0.171955 0.273112
vt 0.136768 0.271263
vt 0.148135 0.259814
vt 0.162268 0.295070
vt 0.171876 0.289710
vn 0.3549 -0.1144 0.9279
vn 0.1379 0.0572 0.9888
vn 0.1069 0.1123 0.9879
vn 0.2954 -0.1326 0.9461
vn -0.0483 0.4235 0.9046
vn -0.0341 0.5218 0.8524
vn 0.0704 0.8074 0.5857
vn -0.0327 0.6233 0.7813
vn -0.1942 0.0867 0.9771
vn -0.2977 0.1861 0.9363
vn -0.1299 0.0001 0.9915
vn -0.2062 0.1359 0.9690
vn -0.8292 0.3168 0.4605
vn -0.8712 0.4434 0.2105
vn -0.8584 0.4855 0.1652
vn -0.8633 0.2932 0.4107
vn -0.7098 0.6999 -0.0794
vn -0.6268 0.7729 -0.0988
vn -0.2672 0.9578 -0.1062
vn -0.5278 0.8388 -0.1332
vn -0.9141 0.3886 -0.1157
vn -0.8638 0.4393 -0.2467
vn -0.9433 0.3306 -0.0284
vn -0.8929 0.4272 -0.1419
vn 0.5529 -0.0651 -0.8307
vn 0.7630 -0.0193 -0.6461
vn 0.7960 0.0155 -0.6050
vn 0.5885 -0.1103 -0.8009
vn 0.9100 0.2314 -0.3438
vn 0.8960 0.3316 -0.2952
vn 0.7328 0.6664 -0.1375
vn 0.8737 0.4313 -0.2251
vn 0.9158 -0.1412 -0.3758
vn 0.9654 -0.0947 -0.2430
vn 0.8673 -0.1907 -0.4597
vn 0.9322 -0.1022 -0.3471
usemtl frostland_tilesheet
s 1
f 6/1/1 2/2/2 3/3/3 12/4/4
f 1/5/5 8/6/6 5/7/7 9/8/8
f 7/9/9 4/10/10 8/6/6 2/2/2
f 12/4/4 3/3/3 11/11/11
f 10/12/12 1/5/5 9/8/8
f 3/3/3 2/2/2 8/6/6 1/5/5
f 2/2/2 6/1/1 7/9/9
f 11/11/11 3/3/3 1/5/5 10/12/12
f 18/13/13 14/14/14 15/15/15 24/16/16
f 13/17/17 20/18/18 17/19/19 21/20/20
f 19/21/21 16/22/22 20/18/18 14/14/14
f 24/16/16 15/15/15 23/23/23
f 22/24/24 13/17/17 21/20/20
f 15/15/15 14/14/14 20/18/18 13/17/17
f 14/14/14 18/13/13 19/21/21
f 23/23/23 15/15/15 13/17/17 22/24/24
f 30/25/25 26/26/26 27/27/27 36/28/28
f 25/29/29 32/30/30 29/31/31 33/32/32
f 31/33/33 28/34/34 32/30/30 26/26/26
f 36/28/28 27/27/27 35/35/35
f 34/36/36 25/29/29 33/32/32
f 27/27/27 26/26/26 32/30/30 25/29/29
f 26/26/26 30/25/25 31/33/33
f 35/35/35 27/27/27 25/29/29 34/36/36
