# Blender v2.93.5 OBJ File: 'Frostlands.blend'
# www.blender.org
mtllib SM_Grass_02.mtl
o Cylinder.034_export_temp_Cylinder.009
v -0.022829 0.319140 0.043455
v -0.066051 0.006640 -0.032182
v 0.049151 0.162890 0.025657
v -0.097301 0.006640 -0.032182
v -0.066051 0.319140 -0.032182
v -0.097301 0.319140 -0.032182
v 0.008422 0.319140 0.043455
v 0.080401 0.006640 0.025657
v 0.008421 0.006640 0.043455
v 0.053610 0.225390 -0.020436
v -0.022829 0.006640 0.043455
v 0.049151 0.006640 0.025657
v 0.125846 0.162890 -0.000504
v 0.080401 0.162890 0.025657
v -0.125845 0.006640 -0.006247
v 0.084860 0.006640 -0.020436
v -0.094595 0.006640 -0.006247
v -0.094595 0.162890 -0.006247
v -0.125845 0.162890 -0.006247
v 0.125846 0.006640 -0.000504
v -0.046272 0.225390 0.027270
v 0.094596 0.006640 -0.000504
v 0.094596 0.162890 -0.000504
v -0.077522 0.006640 0.027270
v 0.084860 0.225390 -0.020436
v 0.053610 0.006640 -0.020436
v -0.046272 0.006640 0.027270
v -0.077522 0.225390 0.027270
v -0.030948 0.225390 -0.085544
v -0.062198 0.006640 -0.085544
v -0.030948 0.006640 -0.085544
v -0.062198 0.225390 -0.085544
v 0.043049 0.319140 -0.056465
v -0.018608 0.006640 0.009897
v 0.036616 0.312500 0.069549
v -0.093961 0.162890 0.037894
v -0.018608 0.006640 -0.021353
v 0.036616 0.000000 0.038299
v -0.018608 0.319140 0.009897
v -0.018608 0.319140 -0.021353
v 0.036616 0.000000 0.069549
v 0.043049 0.319140 -0.025215
v 0.036616 0.312500 0.038299
v -0.093961 0.006640 0.069144
v 0.043049 0.006640 -0.025215
v -0.026881 0.225390 0.058263
v 0.043049 0.006640 -0.056465
v -0.093961 0.006640 0.037894
v 0.004615 0.162890 0.125870
v -0.093961 0.162890 0.069144
v -0.009794 0.006640 -0.125870
v -0.026881 0.006640 0.089513
v -0.009794 0.006640 -0.094620
v -0.009794 0.162890 -0.094620
v -0.009794 0.162890 -0.125870
v 0.004615 0.006640 0.125870
v -0.035532 0.225390 -0.032565
v 0.004615 0.006640 0.094620
v 0.004615 0.162890 0.094620
v -0.035532 0.006640 -0.063815
v -0.026881 0.225390 0.089513
v -0.026881 0.006640 0.058263
v -0.035532 0.006640 -0.032565
v -0.035531 0.225390 -0.063815
v 0.029061 0.225390 -0.058572
v 0.029061 0.006640 -0.089822
v 0.029061 0.006640 -0.058572
v 0.029061 0.225390 -0.089822
vt 0.214893 0.187549
vt 0.216748 0.187549
vt 0.216748 0.206982
vt 0.214893 0.206982
vt 0.214893 0.187549
vt 0.216748 0.187549
vt 0.216748 0.206982
vt 0.214893 0.206982
vt 0.207080 0.187549
vt 0.208936 0.187549
vt 0.208936 0.197217
vt 0.207080 0.197217
vt 0.207080 0.187549
vt 0.208936 0.187549
vt 0.208936 0.197217
vt 0.207080 0.197217
vt 0.207080 0.187549
vt 0.208936 0.187549
vt 0.208936 0.197217
vt 0.207080 0.197217
vt 0.189502 0.187549
vt 0.191357 0.187549
vt 0.191357 0.201123
vt 0.189502 0.201123
vt 0.189502 0.187549
vt 0.191357 0.187549
vt 0.191357 0.201123
vt 0.189502 0.201123
vt 0.189502 0.187549
vt 0.191357 0.187549
vt 0.191357 0.201123
vt 0.189502 0.201123
vt 0.214893 0.187549
vt 0.216748 0.187549
vt 0.216748 0.206982
vt 0.214893 0.206982
vt 0.214893 0.187549
vt 0.216748 0.187549
vt 0.216748 0.206982
vt 0.214893 0.206982
vt 0.214893 0.187549
vt 0.216748 0.187549
vt 0.216748 0.206982
vt 0.214893 0.206982
vt 0.207080 0.187549
vt 0.208936 0.187549
vt 0.208936 0.197217
vt 0.207080 0.197217
vt 0.207080 0.187549
vt 0.208936 0.187549
vt 0.208936 0.197217
vt 0.207080 0.197217
vt 0.207080 0.187549
vt 0.208936 0.187549
vt 0.208936 0.197217
vt 0.207080 0.197217
vt 0.189502 0.187549
vt 0.191357 0.187549
vt 0.191357 0.201123
vt 0.189502 0.201123
vt 0.189502 0.187549
vt 0.191357 0.187549
vt 0.191357 0.201123
vt 0.189502 0.201123
vt 0.189502 0.187549
vt 0.191357 0.187549
vt 0.191357 0.201123
vt 0.189502 0.201123
vn 0.0000 0.0000 1.0000
vn -1.0000 0.0000 0.0000
usemtl frostland_tilesheet
s 1
f 4/1/1 2/2/1 5/3/1 6/4/1
f 11/5/1 9/6/1 7/7/1 1/8/1
f 12/9/1 8/10/1 14/11/1 3/12/1
f 15/13/1 17/14/1 18/15/1 19/16/1
f 22/17/1 20/18/1 13/19/1 23/20/1
f 26/21/1 16/22/1 25/23/1 10/24/1
f 24/25/1 27/26/1 21/27/1 28/28/1
f 30/29/1 31/30/1 29/31/1 32/32/1
f 37/33/2 34/34/2 39/35/2 40/36/2
f 38/37/2 41/38/2 35/39/2 43/40/2
f 47/41/2 45/42/2 42/43/2 33/44/2
f 48/45/2 44/46/2 50/47/2 36/48/2
f 51/49/2 53/50/2 54/51/2 55/52/2
f 58/53/2 56/54/2 49/55/2 59/56/2
f 62/57/2 52/58/2 61/59/2 46/60/2
f 60/61/2 63/62/2 57/63/2 64/64/2
f 66/65/2 67/66/2 65/67/2 68/68/2
