# Blender v2.93.5 OBJ File: 'Frostlands.blend'
# www.blender.org
mtllib SM_Grass_01.mtl
o Cylinder.033_export_temp_Cylinder.009
v -0.069367 0.475390 -0.033369
v -0.038117 0.475390 -0.033369
v -0.069367 0.006640 -0.033369
v -0.038117 0.006640 -0.033369
v -0.022807 0.319140 0.064019
v 0.055633 0.006640 0.036866
v 0.072330 0.312500 -0.054992
v 0.086883 0.162890 0.088368
v 0.024383 0.006640 0.036866
v 0.041080 0.000000 -0.054992
v 0.055633 0.319140 0.036866
v 0.024383 0.319140 0.036866
v 0.025785 0.006640 0.010827
v 0.072330 0.000000 -0.054992
v 0.008443 0.319140 0.064019
v 0.041080 0.312500 -0.054992
v 0.118133 0.006640 0.088368
v 0.008443 0.006640 0.064019
v 0.091341 0.225390 0.042275
v -0.022807 0.006640 0.064019
v 0.086883 0.006640 0.088368
v 0.165797 0.162890 0.002276
v 0.118133 0.162890 0.088368
v -0.165798 0.006640 -0.017172
v 0.122591 0.006640 0.042275
v -0.134548 0.006640 -0.017172
v -0.134548 0.162890 -0.017172
v -0.165798 0.162890 -0.017172
v 0.165797 0.006640 0.002276
v -0.058228 0.225390 0.030051
v 0.134547 0.006640 0.002276
v 0.134547 0.162890 0.002276
v -0.005465 0.006640 0.010827
v -0.089478 0.006640 0.030051
v 0.122591 0.225390 0.042275
v 0.091341 0.006640 0.042275
v 0.025785 0.475390 0.010827
v -0.058228 0.006640 0.030051
v -0.005465 0.475390 0.010827
v -0.089478 0.225390 0.030051
v -0.073235 0.225390 -0.076443
v -0.104485 0.006640 -0.076443
v -0.073235 0.006640 -0.076443
v -0.104485 0.225390 -0.076443
v -0.076620 0.319140 -0.022807
v -0.049467 0.006640 0.055633
v 0.042391 0.312500 0.072330
v -0.100969 0.162890 0.086883
v -0.049467 0.006640 0.024383
v 0.042391 0.000000 0.041080
v -0.049467 0.319140 0.055633
v -0.049467 0.319140 0.024383
v -0.023428 0.006640 0.025786
v 0.042391 0.000000 0.072330
v -0.076620 0.319140 0.008443
v 0.042391 0.312500 0.041080
v -0.100969 0.006640 0.118133
v -0.076620 0.006640 0.008443
v -0.054876 0.225390 0.091341
v -0.076620 0.006640 -0.022807
v -0.100969 0.006640 0.086883
v -0.014877 0.162890 0.165797
v -0.100969 0.162890 0.118133
v 0.004571 0.006640 -0.165797
v -0.054876 0.006640 0.122591
v 0.004571 0.006640 -0.134547
v 0.004571 0.162890 -0.134547
v 0.004571 0.162890 -0.165797
v -0.014877 0.006640 0.165797
v -0.042652 0.225390 -0.058227
v -0.014877 0.006640 0.134547
v -0.014877 0.162890 0.134547
v -0.023428 0.006640 -0.005464
v -0.042652 0.006640 -0.089477
v -0.054876 0.225390 0.122591
v -0.054876 0.006640 0.091341
v -0.023428 0.475390 0.025786
v -0.042652 0.006640 -0.058227
v -0.023428 0.475390 -0.005464
v -0.042652 0.225390 -0.089477
v 0.063842 0.225390 -0.073234
v 0.063842 0.006640 -0.104484
v 0.063842 0.006640 -0.073234
v 0.063842 0.225390 -0.104484
vt 0.195361 0.187549
vt 0.197217 0.187549
vt 0.197217 0.216748
vt 0.195361 0.216748
vt 0.214893 0.187549
vt 0.216748 0.187549
vt 0.216748 0.206982
vt 0.214893 0.206982
vt 0.214893 0.187549
vt 0.216748 0.187549
vt 0.216748 0.206982
vt 0.214893 0.206982
vt 0.214893 0.187549
vt 0.216748 0.187549
vt 0.216748 0.206982
vt 0.214893 0.206982
vt 0.207080 0.187549
vt 0.208936 0.187549
vt 0.208936 0.197217
vt 0.207080 0.197217
vt 0.207080 0.187549
vt 0.208936 0.187549
vt 0.208936 0.197217
vt 0.207080 0.197217
vt 0.207080 0.187549
vt 0.208936 0.187549
vt 0.208936 0.197217
vt 0.207080 0.197217
vt 0.189502 0.187549
vt 0.191357 0.187549
vt 0.191357 0.201123
vt 0.189502 0.201123
vt 0.189502 0.187549
vt 0.191357 0.187549
vt 0.191357 0.201123
vt 0.189502 0.201123
vt 0.195361 0.187549
vt 0.197217 0.187549
vt 0.197217 0.216748
vt 0.195361 0.216748
vt 0.189502 0.187549
vt 0.191357 0.187549
vt 0.191357 0.201123
vt 0.189502 0.201123
vt 0.214893 0.187549
vt 0.216748 0.187549
vt 0.216748 0.206982
vt 0.214893 0.206982
vt 0.214893 0.187549
vt 0.216748 0.187549
vt 0.216748 0.206982
vt 0.214893 0.206982
vt 0.214893 0.187549
vt 0.216748 0.187549
vt 0.216748 0.206982
vt 0.214893 0.206982
vt 0.207080 0.187549
vt 0.208936 0.187549
vt 0.208936 0.197217
vt 0.207080 0.197217
vt 0.207080 0.187549
vt 0.208936 0.187549
vt 0.208936 0.197217
vt 0.207080 0.197217
vt 0.207080 0.187549
vt 0.208936 0.187549
vt 0.208936 0.197217
vt 0.207080 0.197217
vt 0.189502 0.187549
vt 0.191357 0.187549
vt 0.191357 0.201123
vt 0.189502 0.201123
vt 0.189502 0.187549
vt 0.191357 0.187549
vt 0.191357 0.201123
vt 0.189502 0.201123
vt 0.195361 0.187549
vt 0.197217 0.187549
vt 0.197217 0.216748
vt 0.195361 0.216748
vt 0.189502 0.187549
vt 0.191357 0.187549
vt 0.191357 0.201123
vt 0.189502 0.201123
vn 0.0000 0.0000 1.0000
vn -1.0000 0.0000 0.0000
usemtl frostland_tilesheet
s 1
f 3/1/1 4/2/1 2/3/1 1/4/1
f 9/5/1 6/6/1 11/7/1 12/8/1
f 10/9/1 14/10/1 7/11/1 16/12/1
f 20/13/1 18/14/1 15/15/1 5/16/1
f 21/17/1 17/18/1 23/19/1 8/20/1
f 24/21/1 26/22/1 27/23/1 28/24/1
f 31/25/1 29/26/1 22/27/1 32/28/1
f 36/29/1 25/30/1 35/31/1 19/32/1
f 34/33/1 38/34/1 30/35/1 40/36/1
f 33/37/1 13/38/1 37/39/1 39/40/1
f 42/41/1 43/42/1 41/43/1 44/44/1
f 49/45/2 46/46/2 51/47/2 52/48/2
f 50/49/2 54/50/2 47/51/2 56/52/2
f 60/53/2 58/54/2 55/55/2 45/56/2
f 61/57/2 57/58/2 63/59/2 48/60/2
f 64/61/2 66/62/2 67/63/2 68/64/2
f 71/65/2 69/66/2 62/67/2 72/68/2
f 76/69/2 65/70/2 75/71/2 59/72/2
f 74/73/2 78/74/2 70/75/2 80/76/2
f 73/77/2 53/78/2 77/79/2 79/80/2
f 82/81/2 83/82/2 81/83/2 84/84/2
