<svg xmlns="http://www.w3.org/2000/svg" width="1620" height="2432" viewBox="0 0 810 1216">
  <defs>
    <linearGradient id="base" x1="0" y1="0" x2="1" y2="1">
      <stop offset="0" stop-color="#111329"/>
      <stop offset="0.5" stop-color="#080a16"/>
      <stop offset="1" stop-color="#17112a"/>
    </linearGradient>
    <radialGradient id="core" cx="50%" cy="50%" r="50%">
      <stop offset="0" stop-color="#8f73bb" stop-opacity="0.42"/>
      <stop offset="0.55" stop-color="#2d2149" stop-opacity="0.22"/>
      <stop offset="1" stop-color="#080a16" stop-opacity="0"/>
    </radialGradient>
  </defs>

  <!-- 無顆粒的深靛卡面 -->
  <rect x="8" y="8" width="794" height="1200" rx="34" fill="#050711" stroke="#050711" stroke-width="16"/>
  <rect x="25" y="25" width="760" height="1166" rx="24" fill="url(#base)" stroke="#e3c77d" stroke-width="4"/>
  <rect x="40" y="40" width="730" height="1136" rx="18" fill="none" stroke="#8f73bb" stroke-opacity="0.66" stroke-width="3"/>
  <rect x="51" y="51" width="708" height="1114" rx="14" fill="none" stroke="#e3c77d" stroke-opacity="0.28" stroke-width="1.5"/>

  <!-- 四角折線：只使用金與紫，不加入額外寶石色 -->
  <g fill="none" stroke-linecap="square" stroke-linejoin="miter">
    <path d="M25 174V25H174 M40 145V40H145 M51 119V51H119" stroke="#e3c77d" stroke-width="4"/>
    <path d="M785 174V25H636 M770 145V40H665 M759 119V51H691" stroke="#e3c77d" stroke-width="4"/>
    <path d="M25 1042v149h149 M40 1071v105h105 M51 1097v68h68" stroke="#e3c77d" stroke-width="4"/>
    <path d="M785 1042v149H636 M770 1071v105H665 M759 1097v68h-68" stroke="#e3c77d" stroke-width="4"/>
    <path d="M25 208l64-64 42 42 55-55" stroke="#8f73bb" stroke-width="3"/>
    <path d="M785 208l-64-64-42 42-55-55" stroke="#8f73bb" stroke-width="3"/>
    <path d="M25 1008l64 64 42-42 55 55" stroke="#8f73bb" stroke-width="3"/>
    <path d="M785 1008l-64 64-42-42-55 55" stroke="#8f73bb" stroke-width="3"/>
  </g>

  <!-- 中央奧術環：與主選單程式化法陣使用相同幾何語彙 -->
  <circle cx="405" cy="608" r="250" fill="url(#core)"/>
  <g fill="none" stroke-linecap="round">
    <circle cx="405" cy="608" r="226" stroke="#e3c77d" stroke-opacity="0.34" stroke-width="2"/>
    <circle cx="405" cy="608" r="205" stroke="#8f73bb" stroke-opacity="0.82" stroke-width="4"/>
    <circle cx="405" cy="608" r="156" stroke="#e3c77d" stroke-opacity="0.54" stroke-width="2"/>
    <circle cx="405" cy="608" r="92" stroke="#8f73bb" stroke-opacity="0.72" stroke-width="3"/>
    <path d="M405 382L631 608 405 834 179 608Z" stroke="#e3c77d" stroke-opacity="0.38" stroke-width="2"/>
    <path d="M405 452L561 608 405 764 249 608Z" stroke="#8f73bb" stroke-opacity="0.58" stroke-width="2"/>
    <path d="M405 382V834M179 608H631" stroke="#e3c77d" stroke-opacity="0.22" stroke-width="2"/>
    <path d="M245 448L565 768M565 448L245 768" stroke="#8f73bb" stroke-opacity="0.26" stroke-width="2"/>
  </g>

  <!-- 中心紫晶：平面幾何，不使用寫實材質或高光噪點 -->
  <path d="M405 523L463 608 405 693 347 608Z" fill="#24183d" stroke="#e3c77d" stroke-width="5"/>
  <path d="M405 545L445 608 405 671 365 608Z" fill="#8f73bb" fill-opacity="0.56" stroke="#c9b2ef" stroke-width="3"/>
  <path d="M405 545V671M365 608H445" fill="none" stroke="#e3c77d" stroke-opacity="0.74" stroke-width="2"/>
  <circle cx="405" cy="608" r="7" fill="#fff1c7"/>

  <!-- 十二枚刻度與上下冠飾 -->
  <g fill="#e3c77d">
    <path d="M405 365l9 17-9 17-9-17Z"/>
    <path d="M405 817l9 17-9 17-9-17Z"/>
    <path d="M162 608l17-9 17 9-17 9Z"/>
    <path d="M614 608l17-9 17 9-17 9Z"/>
  </g>
  <g fill="#8f73bb" stroke="#e3c77d" stroke-width="2">
    <path d="M405 96l18 28-18 28-18-28Z"/>
    <path d="M405 1064l18 28-18 28-18-28Z"/>
  </g>
  <g fill="none" stroke="#e3c77d" stroke-opacity="0.7" stroke-width="3">
    <path d="M315 124H387M423 124H495"/>
    <path d="M315 1092H387M423 1092H495"/>
    <path d="M405 152V257M405 959v105"/>
  </g>
  <g fill="#c9b2ef">
    <circle cx="249" cy="452" r="4"/><circle cx="561" cy="452" r="4"/>
    <circle cx="249" cy="764" r="4"/><circle cx="561" cy="764" r="4"/>
  </g>
</svg>
