# Blender v2.93.5 OBJ File: 'Caverns_Landmass_Rock_06.blend'
# www.blender.org
mtllib Caverns_Landmass_Rock_06.mtl
o Cube
v 1.000000 0.250000 0.925320
v -2.000000 0.000000 -1.000000
v -2.000000 0.250000 0.925320
v 0.000000 0.250000 0.000000
v 1.121201 0.250000 0.000000
v 1.204311 0.000000 0.000000
v 0.000000 0.250000 -0.985295
v -2.000000 0.000000 1.000000
v 1.000000 -0.982019 -0.690733
v -1.000000 -0.928640 0.675903
v 0.000000 -0.960667 -0.690733
v -2.000000 -0.982019 -0.690733
v 1.121201 -1.158912 0.000000
v 0.000000 0.000000 1.016371
v -2.000000 0.250000 -0.925320
v -2.121201 0.250000 0.000000
v 0.000000 -0.960667 0.707104
v 1.000000 -0.982019 0.690733
v 1.000000 0.000000 -1.000000
v -1.000000 0.250000 0.000000
v -1.000000 0.000000 -1.052355
v 1.000000 0.250000 -0.925320
v -2.121201 -1.158912 0.000000
v -1.000000 0.250000 0.910490
v -2.000000 -0.982019 0.690733
v -1.000000 0.000000 0.985170
v 0.000000 0.250000 0.941691
v 1.000000 0.000000 1.000000
v 0.000000 0.000000 -1.059975
v -1.000000 0.250000 -0.977674
v -2.168412 0.000000 0.000000
v 0.000000 -1.137561 0.000000
v -1.000000 -1.105534 0.000000
v -1.000000 -0.928640 -0.690733
v -2.000000 -0.658912 1.000000
v 1.259471 -0.658912 0.000000
v -1.000000 -0.605533 0.985170
v -2.195380 -0.658912 0.000000
v -1.000000 -0.605533 -1.052355
v 1.000000 -0.658912 -1.000000
v 0.000000 -0.637561 -1.059975
v 0.000000 -0.637561 1.016371
v 1.000000 -0.658912 1.000000
v -2.000000 -0.658912 -1.000000
v -2.000000 -0.329456 1.000000
v 1.259471 -0.329456 0.000000
v -1.000000 -0.276077 0.985170
v -2.195380 -0.329456 0.000000
v -1.000000 -0.276077 -1.082991
v 0.000000 -0.329456 -1.115544
v 0.000000 -0.329456 1.016371
v 1.000000 -0.329456 1.000000
v 1.000000 -0.329456 -1.000000
v -2.000000 -0.329456 -1.000000
vt 0.000071 0.843848
vt 0.090838 0.843848
vt 0.090838 0.874902
vt 0.000071 0.874902
vt 0.000071 0.843848
vt 0.090838 0.843848
vt 0.090838 0.874902
vt 0.000071 0.874902
vt 0.000071 0.843848
vt 0.090838 0.843848
vt 0.090838 0.874902
vt 0.000071 0.874902
vt 0.000071 0.843848
vt 0.090838 0.843848
vt 0.090838 0.874902
vt 0.000071 0.874902
vt 0.000071 0.718701
vt 0.090838 0.718701
vt 0.090838 0.749902
vt 0.000071 0.749902
vt 0.090980 0.718701
vt 0.181747 0.718701
vt 0.181747 0.749902
vt 0.090980 0.749902
vt 0.090980 0.718701
vt 0.181747 0.718701
vt 0.181747 0.749902
vt 0.090980 0.749902
vt 0.090980 0.718701
vt 0.181747 0.718701
vt 0.181747 0.749902
vt 0.090980 0.749902
vt 0.000071 0.875098
vt 0.090838 0.875098
vt 0.090838 0.999902
vt 0.000071 0.999902
vt 0.000071 0.875098
vt 0.090838 0.875098
vt 0.090838 0.999902
vt 0.000071 0.999902
vt 0.090980 0.875098
vt 0.181747 0.875098
vt 0.181747 0.999902
vt 0.090980 0.999902
vt 0.090980 0.875098
vt 0.181747 0.875098
vt 0.181747 0.999902
vt 0.090980 0.999902
vt 0.090980 0.875098
vt 0.181747 0.875098
vt 0.181747 0.999902
vt 0.090980 0.999902
vt 0.090980 0.875098
vt 0.181747 0.875098
vt 0.181747 0.999902
vt 0.090980 0.999902
vt 0.000071 0.625098
vt 0.090838 0.625098
vt 0.090838 0.749902
vt 0.000071 0.749902
vt 0.090980 0.625098
vt 0.181747 0.625098
vt 0.181747 0.749902
vt 0.090980 0.749902
vt 0.090980 0.625098
vt 0.181747 0.625098
vt 0.181747 0.749902
vt 0.090980 0.749902
vt 0.000071 0.625098
vt 0.090838 0.749902
vt 0.000071 0.749902
vt 0.181747 0.749902
vt 0.090980 0.749902
vt 0.090838 0.625098
vt 0.090838 0.749902
vt 0.000071 0.749902
vt 0.090980 0.718701
vt 0.181747 0.718701
vt 0.181747 0.749902
vt 0.090980 0.749902
vt 0.000071 0.718701
vt 0.090838 0.718701
vt 0.090838 0.749902
vt 0.000071 0.749902
vt 0.090980 0.718701
vt 0.181747 0.718701
vt 0.181747 0.749902
vt 0.090980 0.749902
vt 0.000071 0.718701
vt 0.090838 0.718701
vt 0.090838 0.749902
vt 0.000071 0.749902
vt 0.000071 0.718701
vt 0.090838 0.718701
vt 0.090838 0.749902
vt 0.000071 0.749902
vt 0.090980 0.718701
vt 0.181747 0.718701
vt 0.181747 0.749902
vt 0.090980 0.749902
vt 0.000071 0.843848
vt 0.090838 0.843848
vt 0.090838 0.874902
vt 0.000071 0.874902
vt 0.000071 0.843848
vt 0.090838 0.843848
vt 0.090838 0.874902
vt 0.000071 0.874902
vt 0.000071 0.843848
vt 0.090838 0.843848
vt 0.090838 0.874902
vt 0.000071 0.874902
vt 0.000071 0.843848
vt 0.090838 0.843848
vt 0.090838 0.874902
vt 0.000071 0.874902
vt 0.000071 0.843848
vt 0.090838 0.843848
vt 0.090838 0.874902
vt 0.000071 0.874902
vt 0.000071 0.843848
vt 0.090838 0.843848
vt 0.090838 0.874902
vt 0.000071 0.874902
vt 0.090980 0.625098
vt 0.181747 0.625098
vt 0.181747 0.687500
vt 0.090980 0.687500
vt 0.000071 0.625098
vt 0.090838 0.625098
vt 0.090838 0.687500
vt 0.000071 0.687500
vt 0.000071 0.625098
vt 0.090838 0.625098
vt 0.090838 0.687500
vt 0.000071 0.687500
vt 0.090980 0.625098
vt 0.181747 0.625098
vt 0.181747 0.687500
vt 0.090980 0.687500
vt 0.000071 0.625098
vt 0.090838 0.625098
vt 0.090838 0.687500
vt 0.000071 0.687500
vt 0.090980 0.625098
vt 0.181747 0.625098
vt 0.181747 0.687500
vt 0.090980 0.687500
vt 0.090980 0.625098
vt 0.181747 0.625098
vt 0.181747 0.687500
vt 0.090980 0.687500
vt 0.090980 0.625098
vt 0.181747 0.687500
vt 0.090980 0.687500
vt 0.090980 0.625098
vt 0.181747 0.625098
vt 0.181747 0.687500
vt 0.090980 0.687500
vt 0.000071 0.625098
vt 0.090838 0.625098
vt 0.090838 0.687500
vt 0.000071 0.687500
vn 0.6028 0.1746 0.7785
vn 0.9909 0.1346 0.0000
vn 0.6680 0.7441 0.0000
vn 0.5083 0.6992 0.5027
vn 0.6231 0.1977 -0.7567
vn 0.5186 0.6997 -0.4914
vn -0.9969 0.0781 0.0000
vn -0.6082 0.1452 0.7804
vn -0.5215 0.6797 0.5158
vn -0.6944 0.7196 0.0000
vn -0.6362 0.1579 -0.7552
vn -0.5374 0.6807 -0.4978
vn -0.9998 0.0204 0.0000
vn -0.6323 0.0131 0.7746
vn 0.9991 0.0413 0.0000
vn 0.6510 0.0242 -0.7587
vn 0.6227 0.0257 0.7820
vn -0.6638 0.0130 -0.7478
vn 0.0000 1.0000 0.0000
vn -0.0048 0.8061 0.5917
vn 0.0159 0.7958 -0.6053
vn -0.0181 0.7978 -0.6026
vn -0.0045 0.7976 0.6031
vn 0.0086 -0.9999 0.0005
vn -0.0265 -0.9996 -0.0007
vn -0.0259 -0.8620 0.5062
vn 0.0049 -0.8634 0.5045
vn 0.5993 -0.8005 -0.0008
vn 0.5072 -0.7286 0.4603
vn -0.6203 -0.7843 0.0008
vn -0.5239 -0.7149 0.4631
vn -0.0184 -0.8794 -0.4758
vn 0.5074 -0.7350 -0.4498
vn 0.0029 -0.8775 -0.4796
vn -0.5293 -0.7206 -0.4477
vn -0.0074 0.0000 1.0000
vn -0.0073 0.1443 0.9895
vn -0.0082 0.0000 0.9999
vn -0.0081 0.1449 0.9894
vn -0.0440 0.0059 -0.9990
vn -0.0357 0.1916 -0.9808
vn 0.0328 -0.0012 -0.9995
vn 0.0304 0.1997 -0.9794
vn 0.0110 -0.4503 -0.8928
vn 0.5635 -0.3496 -0.7485
vn -0.0269 -0.4324 -0.9013
vn -0.5759 -0.3325 -0.7468
vn -0.0038 -0.3656 0.9307
vn -0.5535 -0.3057 0.7747
vn -0.0167 -0.3716 0.9282
vn 0.5486 -0.3091 0.7768
vn -0.9966 -0.0819 0.0000
vn 0.9921 -0.1256 0.0000
usemtl Caverns_Tileset
s 1
f 28/1/1 6/2/2 5/3/3 1/4/4
f 6/5/2 19/6/5 22/7/6 5/8/3
f 31/9/7 8/10/8 3/11/9 16/12/10
f 2/13/11 31/14/7 16/15/10 15/16/12
f 48/17/13 45/18/14 8/19/8 31/20/7
f 46/21/15 53/22/16 19/23/5 6/24/2
f 52/25/17 46/26/15 6/27/2 28/28/1
f 54/29/18 48/30/13 31/31/7 2/32/11
f 20/33/19 16/34/10 3/35/9 24/36/20
f 7/37/21 30/38/22 20/39/19 4/40/19
f 22/41/6 7/42/21 4/43/19 5/44/3
f 5/45/3 4/46/19 27/47/23 1/48/4
f 4/49/19 20/50/19 24/51/20 27/52/23
f 30/53/22 15/54/12 16/55/10 20/56/19
f 33/57/24 32/58/25 17/59/26 10/60/27
f 32/61/25 13/62/28 18/63/29 17/64/26
f 23/65/30 33/66/24 10/67/27 25/68/31
f 13/69/28 32/58/25 11/70/32 9/71/33
f 32/61/25 33/66/24 34/72/34 11/73/32
f 33/57/24 23/74/30 12/75/35 34/76/34
f 51/77/36 52/78/17 28/79/1 14/80/37
f 47/81/38 51/82/36 14/83/37 26/84/39
f 45/85/14 47/86/38 26/87/39 8/88/8
f 49/89/40 54/90/18 2/91/11 21/92/41
f 50/93/42 49/94/40 21/95/41 29/96/43
f 53/97/16 50/98/42 29/99/43 19/100/5
f 19/101/5 29/102/43 7/103/21 22/104/6
f 29/105/43 21/106/41 30/107/22 7/108/21
f 21/109/41 2/110/11 15/111/12 30/112/22
f 8/113/8 26/114/39 24/115/20 3/116/9
f 26/117/39 14/118/37 27/119/23 24/120/20
f 14/121/37 28/122/1 1/123/4 27/124/23
f 9/125/33 11/126/32 41/127/44 40/128/45
f 11/129/32 34/130/34 39/131/46 41/132/44
f 34/133/34 12/134/35 44/135/47 39/136/46
f 25/137/31 10/138/27 37/139/48 35/140/49
f 10/141/27 17/142/26 42/143/50 37/144/48
f 17/145/26 18/146/29 43/147/51 42/148/50
f 12/149/35 23/150/30 38/151/52 44/152/47
f 18/153/29 13/62/28 36/154/53 43/155/51
f 13/156/28 9/157/33 40/158/45 36/159/53
f 23/160/30 25/161/31 35/162/49 38/163/52
f 40/128/45 41/127/44 50/98/42 53/97/16
f 41/132/44 39/131/46 49/94/40 50/93/42
f 39/136/46 44/135/47 54/90/18 49/89/40
f 35/140/49 37/139/48 47/86/38 45/85/14
f 37/144/48 42/143/50 51/82/36 47/81/38
f 42/148/50 43/147/51 52/78/17 51/77/36
f 44/152/47 38/151/52 48/30/13 54/29/18
f 43/155/51 36/154/53 46/26/15 52/25/17
f 36/159/53 40/158/45 53/22/16 46/21/15
f 38/163/52 35/162/49 45/18/14 48/17/13
