# Blender v2.93.5 OBJ File: 'Caverns_Landmass_Dead_Grass_03.blend'
# www.blender.org
mtllib Caverns_Landmass_Dead_Grass_03.mtl
o Cube
v 2.036690 0.000000 -0.036690
v 1.000000 0.000000 2.381172
v 1.000000 1.250000 -0.196615
v -0.302146 1.031250 1.000000
v 1.000000 1.218750 2.165365
v -0.151486 -0.250000 -0.151486
v 2.302146 1.031250 1.000000
v 2.151486 -0.250000 2.151486
v 1.950206 1.218750 1.950206
v 2.036690 -0.031250 2.036690
v -0.120236 -0.250000 2.120236
v -0.196615 1.281250 1.000000
v 0.081044 1.187500 0.081044
v 0.143544 1.187500 1.856456
v -0.499403 -0.250000 1.000000
v 2.196615 1.281250 1.000000
v 1.000000 -0.250000 -0.499403
v 1.000000 -0.031250 -0.349922
v 0.062500 0.937500 1.937500
v 1.000000 1.343750 1.000000
v -0.036690 -0.031250 -0.036690
v 1.000000 0.968750 2.270896
v 2.151486 -0.250000 -0.151486
v 1.918956 1.218750 0.081044
v 2.031250 0.968750 2.031250
v -0.005440 0.000000 2.005440
v 2.349922 0.000000 1.000000
v 1.000000 -0.250000 2.530653
v 1.000000 1.000000 -0.302146
v 2.000000 0.968750 0.000000
v 2.499403 -0.250000 1.000000
v 0.000000 0.937500 0.000000
v -0.349922 0.000000 1.000000
vt 0.000071 0.812598
vt 0.090838 0.812598
vt 0.090838 0.843652
vt 0.000071 0.843652
vt 0.090980 0.625098
vt 0.181747 0.625098
vt 0.181747 0.749902
vt 0.090980 0.749902
vt 0.090980 0.625098
vt 0.181747 0.625098
vt 0.181747 0.749902
vt 0.090980 0.749902
vt 0.000071 0.812598
vt 0.090838 0.812598
vt 0.090838 0.843652
vt 0.000071 0.843652
vt 0.272727 0.750000
vt 0.363636 0.750000
vt 0.363636 0.875000
vt 0.272727 0.875000
vt 0.090980 0.625098
vt 0.181747 0.625098
vt 0.181747 0.749902
vt 0.090980 0.749902
vt 0.090980 0.625098
vt 0.181747 0.625098
vt 0.181747 0.749902
vt 0.090980 0.749902
vt 0.272727 0.750000
vt 0.363636 0.750000
vt 0.363636 0.875000
vt 0.272727 0.875000
vt 0.000071 0.625098
vt 0.090838 0.625098
vt 0.090838 0.749902
vt 0.000071 0.749902
vt 0.000071 0.625098
vt 0.090838 0.625098
vt 0.090838 0.749902
vt 0.000071 0.749902
vt 0.272727 0.750000
vt 0.363636 0.750000
vt 0.363636 0.875000
vt 0.272727 0.875000
vt 0.000071 0.625098
vt 0.090838 0.625098
vt 0.090838 0.749902
vt 0.000071 0.749902
vt 0.272727 0.750000
vt 0.363636 0.750000
vt 0.363636 0.875000
vt 0.272727 0.875000
vt 0.090909 0.843750
vt 0.181818 0.843750
vt 0.181818 0.875000
vt 0.090909 0.875000
vt 0.000071 0.625098
vt 0.090838 0.625098
vt 0.090838 0.749902
vt 0.000071 0.749902
vt 0.090909 0.843750
vt 0.181818 0.843750
vt 0.181818 0.875000
vt 0.090909 0.875000
vt 0.090909 0.843750
vt 0.181818 0.843750
vt 0.181818 0.875000
vt 0.090909 0.875000
vt 0.090909 0.843750
vt 0.181818 0.843750
vt 0.181818 0.875000
vt 0.090909 0.875000
vt 0.090909 0.843750
vt 0.181818 0.843750
vt 0.181818 0.875000
vt 0.090909 0.875000
vt 0.090909 0.843750
vt 0.181818 0.843750
vt 0.181818 0.875000
vt 0.090909 0.875000
vt 0.090909 0.843750
vt 0.181818 0.843750
vt 0.181818 0.875000
vt 0.090909 0.875000
vt 0.090909 0.843750
vt 0.181818 0.843750
vt 0.181818 0.875000
vt 0.090909 0.875000
vt 0.000071 0.812598
vt 0.090838 0.812598
vt 0.090838 0.843652
vt 0.000071 0.843652
vt 0.000071 0.812598
vt 0.090838 0.812598
vt 0.090838 0.843652
vt 0.000071 0.843652
vt 0.000071 0.812598
vt 0.090838 0.812598
vt 0.090838 0.843652
vt 0.000071 0.843652
vt 0.000071 0.812598
vt 0.090838 0.812598
vt 0.090838 0.843652
vt 0.000071 0.843652
vt 0.000071 0.812598
vt 0.090838 0.812598
vt 0.090838 0.843652
vt 0.000071 0.843652
vt 0.000071 0.812598
vt 0.090838 0.812598
vt 0.090838 0.843652
vt 0.000071 0.843652
vn -0.6030 0.5370 0.5899
vn -0.0119 0.5332 0.8459
vn -0.0258 0.3303 0.9435
vn -0.6685 0.3450 0.6588
vn -0.6586 0.3627 -0.6593
vn -0.9485 0.3160 0.0213
vn -0.9716 0.2345 0.0320
vn -0.6886 0.2163 -0.6921
vn -0.0473 0.2335 0.9712
vn -0.6798 0.2353 0.6946
vn 0.5890 0.5660 0.5768
vn 0.6670 0.3523 0.6565
vn -0.6241 0.7807 0.0297
vn -0.0104 0.9999 0.0081
vn -0.0064 0.7713 -0.6364
vn -0.4785 0.7272 -0.4921
vn 0.6823 0.2223 0.6964
vn 0.9530 0.3028 -0.0034
vn 0.6643 0.3405 -0.6654
vn 0.6879 0.2203 -0.6915
vn 0.9761 0.2170 -0.0130
vn -0.0447 0.7627 0.6452
vn 0.4556 0.7382 0.4975
vn 0.6173 0.7866 -0.0082
vn -0.0013 0.3279 -0.9447
vn -0.0031 0.2210 -0.9752
vn 0.4699 0.7385 -0.4836
vn -0.4588 0.7317 0.5040
vn 0.8504 0.5262 0.0013
vn 0.5871 0.5578 -0.5867
vn -0.0010 0.5503 -0.8349
vn -0.5755 0.5821 -0.5744
vn -0.8485 0.5290 0.0118
usemtl Caverns_Tileset
s 1
f 11/1/1 28/2/2 2/3/3 26/4/4
f 21/5/5 33/6/6 4/7/7 32/8/8
f 26/9/4 2/10/3 22/11/9 19/12/10
f 28/13/2 8/14/11 10/15/12 2/16/3
f 12/17/13 20/18/14 3/19/15 13/20/16
f 2/21/3 10/22/12 25/23/17 22/24/9
f 27/25/18 1/26/19 30/27/20 7/28/21
f 5/29/22 9/30/23 16/31/24 20/32/14
f 18/33/25 21/34/5 32/35/8 29/36/26
f 1/37/19 18/38/25 29/39/26 30/40/20
f 20/41/14 16/42/24 24/43/27 3/44/15
f 10/45/12 27/46/18 7/47/21 25/48/17
f 14/49/28 5/50/22 20/51/14 12/52/13
f 22/53/9 25/54/17 9/55/23 5/56/22
f 33/57/6 26/58/4 19/59/10 4/60/7
f 19/61/10 22/62/9 5/63/22 14/64/28
f 4/65/7 19/66/10 14/67/28 12/68/13
f 32/69/8 4/70/7 12/71/13 13/72/16
f 29/73/26 32/74/8 13/75/16 3/76/15
f 30/77/20 29/78/26 3/79/15 24/80/27
f 7/81/21 30/82/20 24/83/27 16/84/24
f 25/85/17 7/86/21 16/87/24 9/88/23
f 8/89/11 31/90/29 27/91/18 10/92/12
f 31/93/29 23/94/30 1/95/19 27/96/18
f 23/97/30 17/98/31 18/99/25 1/100/19
f 17/101/31 6/102/32 21/103/5 18/104/25
f 6/105/32 15/106/33 33/107/6 21/108/5
f 15/109/33 11/110/1 26/111/4 33/112/6
