# Blender v2.93.5 OBJ File: 'Caverns_Landmass_Wall_02.blend'
# www.blender.org
mtllib Caverns_Landmass_Wall_02.mtl
o Cube
v -0.820862 1.000000 0.090614
v -0.903779 1.964756 0.000000
v -1.096086 1.000000 1.000000
v -1.225400 3.119662 1.000000
v -1.145083 3.752515 -2.134507
v -1.225400 3.541543 -1.000000
v 1.277273 3.119662 1.000000
v -1.225400 3.226685 0.000000
v 0.871540 0.000000 0.455911
v 1.277273 3.226685 0.000000
v 0.928760 2.000000 0.000000
v 0.000000 3.752515 -2.281259
v -1.145083 2.000000 1.000000
v 1.220119 3.517687 -0.981330
v -1.004946 2.428655 -1.000000
v 1.140056 3.752515 -2.134507
v 0.880768 2.428655 -1.000000
v -0.815364 0.000000 1.000000
v 0.840209 2.673641 -1.668304
v 0.871540 0.000000 1.000000
v 0.915660 1.000000 0.090614
v -0.815364 0.000000 0.455911
v 0.000000 2.570160 -1.668304
v 0.000000 2.344252 -1.000000
v 0.000000 1.865420 -0.146274
v 1.140056 1.000000 1.000000
v 1.194890 2.000000 1.000000
v 0.000000 1.000000 -0.007886
v 0.000000 0.000000 0.455911
v -0.934796 2.844156 -1.668304
v 1.277273 3.178646 0.500000
v 1.047992 2.000000 0.500000
v 1.000000 1.000000 0.500000
v 0.871540 0.000000 0.733882
v -1.053154 2.000000 0.500000
v -0.957116 1.000000 0.500000
v -1.225400 3.178646 0.500000
v -0.815364 0.000000 0.733882
v 0.500000 0.000000 0.421859
v 0.500000 1.000000 -0.010193
v 0.500000 2.428655 -1.000000
v 0.500000 2.680008 -1.668304
v 0.500000 3.752515 -2.134507
v 0.500000 2.000000 0.000000
v -0.500000 1.836927 0.000000
v -0.500000 2.428655 -1.000000
v -0.456706 1.000000 0.090614
v -0.500000 0.000000 0.455911
v -0.500000 2.705831 -1.668304
v -0.500000 3.752515 -2.134507
v -1.043025 2.710436 0.000000
v 1.000000 2.710436 0.000000
v 1.000000 3.041543 -1.000000
v -1.101167 3.041543 -1.000000
v 0.913809 3.252515 -1.880348
v -1.145083 2.603413 1.000000
v 0.000000 3.100873 -1.880348
v -0.981371 3.252515 -1.880348
v 1.140056 2.603413 1.000000
v 1.000000 2.662397 0.500000
v -1.043025 2.662397 0.500000
v 0.500000 3.157064 -1.880348
v -0.500000 3.252515 -1.947509
v 1.140056 0.500000 1.000000
v -1.096086 0.500000 1.000000
v 0.899992 0.500000 0.190452
v -0.820862 0.500000 0.190452
v 0.000000 0.500000 0.044178
v 1.000000 0.500000 0.599837
v -0.957116 0.500000 0.599837
v 0.500000 0.500000 0.089644
v -0.456706 0.500000 0.190452
v -1.120584 1.500000 1.000000
v 1.195140 1.500000 1.000000
v -0.862320 1.482378 0.045307
v 0.000000 1.432710 -0.077080
v 0.946424 1.500000 0.045307
v 1.048210 1.500000 0.500000
v -1.020465 1.500000 0.500000
v 0.500000 1.500000 -0.005096
v -0.478353 1.418463 0.045307
vt 0.136364 0.687500
vt 0.181747 0.687500
vt 0.181747 0.749902
vt 0.136364 0.749902
vt 0.136364 0.687500
vt 0.181747 0.687500
vt 0.181747 0.749902
vt 0.136364 0.749902
vt 0.136364 0.687500
vt 0.181747 0.687500
vt 0.181747 0.749902
vt 0.136364 0.749902
vt 0.090980 0.687500
vt 0.181747 0.687500
vt 0.181747 0.749902
vt 0.090980 0.749902
vt 0.090980 0.687500
vt 0.181747 0.687500
vt 0.181747 0.749902
vt 0.090980 0.749902
vt 0.136364 0.687500
vt 0.181747 0.687500
vt 0.181747 0.749902
vt 0.136364 0.749902
vt 0.136364 0.687500
vt 0.181747 0.687500
vt 0.181747 0.749902
vt 0.136364 0.749902
vt 0.136364 0.687500
vt 0.181747 0.687500
vt 0.181747 0.749902
vt 0.136364 0.749902
vt 0.090980 0.687500
vt 0.181747 0.687500
vt 0.181747 0.749902
vt 0.090980 0.749902
vt 0.090980 0.687500
vt 0.181747 0.687500
vt 0.181747 0.749902
vt 0.090980 0.749902
vt 0.136364 0.687500
vt 0.181747 0.687500
vt 0.181747 0.749902
vt 0.136364 0.749902
vt 0.045455 0.687500
vt 0.090838 0.687500
vt 0.090838 0.749902
vt 0.045455 0.749902
vt 0.136364 0.625098
vt 0.181747 0.625098
vt 0.181747 0.749902
vt 0.136364 0.749902
vt 0.045455 0.625098
vt 0.090838 0.625098
vt 0.090838 0.749902
vt 0.045455 0.749902
vt 0.136364 0.625098
vt 0.181747 0.625098
vt 0.181747 0.749902
vt 0.136364 0.749902
vt 0.136364 0.625098
vt 0.181747 0.625098
vt 0.181747 0.749902
vt 0.136364 0.749902
vt 0.136364 0.687500
vt 0.181747 0.687500
vt 0.181747 0.749902
vt 0.136364 0.749902
vt 0.045455 0.687500
vt 0.090838 0.687500
vt 0.090838 0.749902
vt 0.045455 0.749902
vt 0.045455 0.687500
vt 0.090838 0.687500
vt 0.090838 0.749902
vt 0.045455 0.749902
vt 0.045455 0.687500
vt 0.090838 0.687500
vt 0.090838 0.749902
vt 0.045455 0.749902
vt 0.090980 0.687500
vt 0.090980 0.749902
vt 0.090980 0.687500
vt 0.090980 0.749902
vt 0.090980 0.687500
vt 0.090980 0.749902
vt 0.090980 0.687500
vt 0.090980 0.749902
vt 0.090980 0.687500
vt 0.090980 0.749902
vt 0.090980 0.687500
vt 0.090980 0.749902
vt 0.000071 0.687500
vt 0.000071 0.749902
vt 0.000071 0.687500
vt 0.000071 0.749902
vt 0.090980 0.625098
vt 0.090980 0.749902
vt 0.000071 0.625098
vt 0.000071 0.749902
vt 0.000071 0.687500
vt 0.000071 0.749902
vt 0.000071 0.687500
vt 0.000071 0.749902
vt 0.090980 0.687500
vt 0.090980 0.749902
vt 0.090980 0.625098
vt 0.090980 0.749902
vt 0.090980 0.625098
vt 0.090980 0.749902
vt 0.090980 0.687500
vt 0.090980 0.749902
vt 0.090980 0.625098
vt 0.136364 0.625098
vt 0.000071 0.625098
vt 0.045455 0.625098
vt 0.090980 0.625098
vt 0.136364 0.625098
vt 0.090980 0.625098
vt 0.136364 0.625098
vt 0.090838 0.625098
vt 0.181747 0.625098
vt 0.090980 0.625098
vt 0.181747 0.625098
vt 0.181747 0.625098
vt 0.181747 0.625098
vt 0.090980 0.625098
vt 0.090980 0.625098
vt 0.181747 0.625098
vt 0.000071 0.625098
vt 0.045455 0.625098
vt 0.000071 0.625098
vt 0.045455 0.625098
vt 0.090980 0.625098
vt 0.136364 0.625098
vt 0.090980 0.625098
vt 0.136364 0.625098
vt 0.090838 0.625098
vt 0.090838 0.625098
vt 0.181747 0.625098
vt 0.181747 0.625098
vt 0.090980 0.625098
vt 0.136364 0.625098
vt 0.000071 0.625098
vt 0.045455 0.625098
vt 0.090980 0.625098
vt 0.136364 0.625098
vt 0.090980 0.625098
vt 0.136364 0.625098
vt 0.090838 0.625098
vt 0.181747 0.625098
vt 0.181747 0.625098
vt 0.181747 0.625098
vn -0.9525 -0.1750 -0.2492
vn -0.9454 -0.2104 -0.2486
vn -0.9630 -0.0574 -0.2634
vn -0.9537 -0.0744 -0.2914
vn -0.9618 -0.0853 -0.2600
vn -0.9752 -0.0705 -0.2099
vn -0.9816 -0.0240 -0.1892
vn -0.9770 -0.0561 -0.2055
vn -0.9779 -0.1669 -0.1260
vn -0.9805 -0.1114 -0.1618
vn -0.9613 -0.2445 -0.1270
vn -0.9533 -0.2922 -0.0766
vn -0.9652 -0.2387 -0.1061
vn -0.9741 -0.2195 -0.0534
vn -0.9500 -0.3081 -0.0505
vn -0.9461 -0.3012 -0.1188
vn -0.6106 -0.4319 -0.6638
vn -0.5317 -0.4495 -0.7178
vn 0.9622 -0.1671 -0.2149
vn 0.6748 -0.2926 -0.6775
vn 0.6888 -0.1154 -0.7157
vn 0.9663 -0.0693 -0.2478
vn 0.9676 -0.1993 -0.1547
vn 0.9590 -0.2658 -0.0985
vn 0.8834 -0.4554 -0.1102
vn 0.8993 -0.4245 -0.1050
vn 0.9676 -0.0446 -0.2486
vn 0.6784 -0.0485 -0.7331
vn 0.7917 -0.3089 -0.5271
vn 0.9741 0.0175 -0.2254
vn 0.9398 -0.3115 -0.1407
vn 0.8816 -0.4416 -0.1666
vn 0.5673 -0.4739 -0.6735
vn 0.5065 -0.5228 -0.6856
vn -0.0996 -0.4352 -0.8948
vn -0.0978 -0.4315 -0.8968
vn 0.0772 -0.4124 -0.9077
vn 0.0083 -0.4275 -0.9040
vn 0.0079 -0.4598 -0.8880
vn 0.0986 -0.4447 -0.8902
vn -0.1451 -0.8863 -0.4397
vn -0.6944 -0.6457 -0.3174
vn -0.6002 -0.5414 -0.5887
vn -0.1348 -0.7095 -0.6917
vn 0.1060 -0.9204 -0.3764
vn 0.0298 -0.9112 -0.4108
vn -0.0050 -0.7547 -0.6561
vn 0.0750 -0.7048 -0.7054
vn -0.1426 -0.4997 -0.8544
vn -0.7809 -0.3919 -0.4864
vn 0.1488 -0.5642 -0.8121
vn 0.0386 -0.5766 -0.8161
vn -0.1293 -0.1191 -0.9844
vn -0.5896 -0.1233 -0.7982
vn 0.1360 -0.0549 -0.9892
vn -0.0498 -0.1037 -0.9933
vn -0.0985 -0.3563 -0.9292
vn -0.5697 -0.2904 -0.7688
vn -0.5619 -0.1472 -0.8140
vn -0.1259 -0.1457 -0.9813
vn 0.1112 -0.3705 -0.9221
vn -0.0857 -0.3637 -0.9275
vn -0.0926 -0.1263 -0.9876
vn 0.1310 -0.1143 -0.9848
vn 0.9592 -0.0487 -0.2786
vn 0.9602 0.0389 -0.2766
vn 0.9637 -0.1360 -0.2298
vn 0.9143 -0.3670 -0.1713
vn 0.9469 -0.2011 -0.2507
vn 0.9561 -0.0646 -0.2858
vn 0.6440 -0.7016 -0.3048
vn 0.5395 -0.6131 -0.5770
vn -0.0595 -0.5759 -0.8154
vn -0.0601 -0.5104 -0.8578
vn 0.7369 -0.4085 -0.5385
vn 0.0792 -0.5555 -0.8277
vn -0.6766 -0.4076 -0.6132
vn -0.9260 -0.3267 -0.1890
vn 0.9035 -0.3841 -0.1899
vn 0.9348 -0.3118 -0.1701
vn -0.8957 -0.4035 -0.1868
usemtl Caverns_Tileset
s 1
f 70/1/1 65/2/2 3/3/3 36/4/4
f 79/5/5 73/6/6 13/7/7 35/8/8
f 61/9/9 56/10/10 4/11/11 37/12/12
f 54/13/13 51/14/14 8/15/15 6/16/16
f 58/17/17 54/18/13 6/19/16 5/20/18
f 69/21/19 66/22/20 21/23/21 33/24/22
f 60/25/23 52/26/24 10/27/25 31/28/26
f 78/29/27 77/30/28 11/31/29 32/32/30
f 52/33/24 53/34/31 14/35/32 10/36/25
f 53/37/31 55/38/33 16/39/34 14/40/32
f 63/41/35 58/42/17 5/43/18 50/44/36
f 62/45/37 57/46/38 12/47/39 43/48/40
f 46/49/41 15/50/42 30/51/43 49/52/44
f 41/53/45 24/54/46 23/55/47 42/56/48
f 45/57/49 2/58/50 15/59/42 46/60/41
f 44/61/51 25/62/52 24/63/46 41/64/45
f 81/65/53 75/66/54 2/67/50 45/68/49
f 80/69/55 76/70/56 25/71/52 44/72/51
f 72/73/57 67/74/58 1/75/59 47/76/60
f 71/77/61 68/78/62 28/79/63 40/80/64
f 74/81/65 78/29/27 32/32/30 27/82/66
f 59/83/67 60/25/23 31/28/26 7/84/68
f 64/85/69 69/21/19 33/24/22 26/86/70
f 51/87/14 61/9/9 37/12/12 8/88/15
f 75/89/54 79/5/5 35/8/8 2/90/50
f 67/91/58 70/1/1 36/4/4 1/92/59
f 66/93/20 71/77/61 40/80/64 21/94/21
f 77/95/28 80/69/55 44/72/51 11/96/29
f 11/97/29 44/61/51 41/64/45 17/98/71
f 17/99/71 41/53/45 42/56/48 19/100/72
f 55/101/33 62/45/37 43/48/40 16/102/34
f 68/103/62 72/73/57 47/76/60 28/104/63
f 76/105/56 81/65/53 45/68/49 25/106/52
f 25/107/52 45/57/49 46/60/41 24/108/46
f 24/109/46 46/49/41 49/52/44 23/110/47
f 57/111/38 63/41/35 50/44/36 12/112/39
f 23/113/47 49/114/44 63/41/35 57/111/38
f 19/115/72 42/116/48 62/45/37 55/101/33
f 2/117/50 35/118/8 61/9/9 51/87/14
f 27/119/66 32/120/30 60/25/23 59/83/67
f 42/116/48 23/121/47 57/46/38 62/45/37
f 49/114/44 30/122/43 58/42/17 63/41/35
f 17/123/71 19/124/72 55/38/33 53/37/31
f 11/97/29 17/125/71 53/34/31 52/33/24
f 32/120/30 11/126/29 52/26/24 60/25/23
f 30/127/43 15/50/42 54/18/13 58/17/17
f 15/128/42 2/58/50 51/14/14 54/13/13
f 35/118/8 13/129/7 56/10/10 61/9/9
f 29/130/73 48/131/74 72/73/57 68/103/62
f 9/132/75 39/133/76 71/77/61 66/93/20
f 22/134/77 38/135/78 70/1/1 67/91/58
f 20/136/79 34/137/80 69/21/19 64/85/69
f 39/133/76 29/138/73 68/78/62 71/77/61
f 48/131/74 22/139/77 67/74/58 72/73/57
f 34/137/80 9/140/75 66/22/20 69/21/19
f 38/135/78 18/141/81 65/2/2 70/1/1
f 28/142/63 47/143/60 81/65/53 76/105/56
f 21/144/21 40/145/64 80/69/55 77/95/28
f 1/146/59 36/147/4 79/5/5 75/89/54
f 26/148/70 33/149/22 78/29/27 74/81/65
f 40/145/64 28/150/63 76/70/56 80/69/55
f 47/143/60 1/151/59 75/66/54 81/65/53
f 33/149/22 21/152/21 77/30/28 78/29/27
f 36/147/4 3/153/3 73/6/6 79/5/5
