# Blender v2.93.5 OBJ File: 'Caverns_Landmass_Dirt_02.blend'
# www.blender.org
mtllib Caverns_Landmass_Dirt_02.mtl
o Cube
v -0.650246 1.971799 0.007622
v 0.715032 2.003049 0.007622
v -0.014482 2.315549 0.007622
v -0.014482 1.003049 0.771408
v -0.014482 0.003049 0.952083
v -0.014482 -0.246951 -1.114302
v -0.014482 2.065549 -0.690642
v -0.014482 1.003049 -0.818664
v -0.014482 2.315549 -0.618982
v 0.453878 2.346799 -0.460737
v 0.453878 2.253049 0.475982
v -0.014482 -0.246951 1.035795
v -0.482841 2.221799 -0.460737
v -0.014482 0.003049 -1.030589
v 0.683888 0.003049 -0.690747
v -0.482841 2.159299 0.475982
v -0.536404 1.971799 -0.514300
v 0.746459 -0.246951 -0.753319
v 0.618915 1.003049 -0.625774
v -0.744173 -0.246951 0.768563
v 0.683959 -0.246951 0.706063
v -0.014482 2.003049 0.705886
v 0.507440 2.096799 -0.514300
v -0.712923 -0.246951 -0.690819
v 0.556415 1.003049 0.578519
v -0.014482 2.221799 0.634226
v -0.536404 1.909299 0.529544
v 0.621388 0.003049 0.643491
v -0.681601 0.003049 0.705991
v -0.585378 0.971799 -0.563274
v 0.507440 2.003049 0.529544
v -0.585378 0.909299 0.578519
v -0.650351 0.003049 -0.628247
v 0.643373 2.253049 0.007622
v -0.578586 2.221799 0.007622
v -0.778267 1.003049 0.007622
v 0.843054 1.003049 0.007622
v 0.929979 0.003049 0.007622
v -0.865193 0.003049 0.007622
v 1.013692 -0.246951 0.007622
v -0.948905 -0.246951 0.007622
vt 0.090980 0.625098
vt 0.136364 0.625098
vt 0.136364 0.749902
vt 0.090980 0.749902
vt 0.090980 0.625098
vt 0.136364 0.625098
vt 0.136364 0.749902
vt 0.090980 0.749902
vt 0.863636 0.750000
vt 0.909091 0.750000
vt 0.909091 0.812500
vt 0.863636 0.812500
vt 0.090909 0.843750
vt 0.136364 0.843750
vt 0.136364 0.875000
vt 0.090909 0.875000
vt 0.090909 0.843750
vt 0.136364 0.843750
vt 0.136364 0.875000
vt 0.090909 0.875000
vt 0.000071 0.812598
vt 0.045455 0.812598
vt 0.045455 0.843652
vt 0.000071 0.843652
vt 0.000071 0.812598
vt 0.045455 0.812598
vt 0.045455 0.843652
vt 0.000071 0.843652
vt 0.090980 0.625098
vt 0.136364 0.625098
vt 0.136364 0.749902
vt 0.090980 0.749902
vt 0.090980 0.625098
vt 0.136364 0.625098
vt 0.136364 0.749902
vt 0.090980 0.749902
vt 0.000071 0.625098
vt 0.045455 0.625098
vt 0.045455 0.749902
vt 0.000071 0.749902
vt 0.000071 0.625098
vt 0.045455 0.625098
vt 0.045455 0.749902
vt 0.000071 0.749902
vt 0.909091 0.875000
vt 0.863636 0.875000
vt 0.181818 0.843750
vt 0.181818 0.875000
vt 0.136364 0.843750
vt 0.181818 0.843750
vt 0.181818 0.875000
vt 0.136364 0.875000
vt 0.181818 0.843750
vt 0.181818 0.875000
vt 0.136364 0.843750
vt 0.181818 0.843750
vt 0.181818 0.875000
vt 0.136364 0.875000
vt 0.045455 0.812598
vt 0.090838 0.812598
vt 0.090838 0.843652
vt 0.045455 0.843652
vt 0.090838 0.812598
vt 0.090838 0.843652
vt 0.045455 0.812598
vt 0.090838 0.812598
vt 0.090838 0.843652
vt 0.045455 0.843652
vt 0.090838 0.812598
vt 0.090838 0.843652
vt 0.181747 0.625098
vt 0.181747 0.749902
vt 0.136364 0.625098
vt 0.181747 0.625098
vt 0.181747 0.749902
vt 0.136364 0.749902
vt 0.181747 0.625098
vt 0.181747 0.749902
vt 0.090838 0.625098
vt 0.090838 0.749902
vt 0.045455 0.625098
vt 0.090838 0.625098
vt 0.090838 0.749902
vt 0.045455 0.749902
vt 0.090838 0.625098
vt 0.090838 0.749902
vt 0.181747 0.625098
vt 0.181747 0.749902
vt 0.181747 0.625098
vt 0.181747 0.749902
vt 0.000071 0.625098
vt 0.000071 0.749902
vt 0.090980 0.625098
vt 0.090980 0.749902
vt 0.000071 0.812598
vt 0.000071 0.843652
vt 0.000071 0.812598
vt 0.000071 0.843652
vt 0.090909 0.843750
vt 0.090909 0.875000
vt 0.090909 0.843750
vt 0.090909 0.875000
vt 0.818182 0.812500
vt 0.818182 0.875000
vt 0.818182 0.750000
vn -0.7520 0.1102 -0.6499
vn -0.9951 0.0989 -0.0055
vn -0.9831 0.1830 0.0094
vn -0.7386 0.1862 -0.6479
vn -0.7570 0.2249 -0.6134
vn -0.9767 0.2133 -0.0248
vn 0.7036 0.7089 0.0482
vn 0.4700 0.7615 -0.4463
vn -0.0511 0.7595 -0.6484
vn -0.0742 0.9941 0.0784
vn 0.6791 0.2151 -0.7017
vn -0.0349 0.1950 -0.9802
vn -0.7223 0.1789 0.6680
vn -0.0147 0.1828 0.9830
vn -0.0394 0.7176 0.6953
vn -0.5797 0.6388 0.5058
vn 0.7013 0.3251 -0.6344
vn -0.0451 0.3392 -0.9396
vn -0.0561 0.2538 -0.9656
vn 0.7153 0.2308 -0.6596
vn -0.6930 0.3358 0.6379
vn 0.0407 0.3261 0.9444
vn 0.0346 0.2473 0.9683
vn -0.7085 0.2532 0.6587
vn -0.7229 0.1252 0.6795
vn 0.0086 0.1092 0.9940
vn -0.0504 0.1318 -0.9900
vn 0.7023 0.1287 -0.7001
vn -0.5928 0.6627 -0.4577
vn -0.6977 0.7150 0.0436
vn 0.9811 0.1910 0.0304
vn 0.6662 0.1851 0.7223
vn 0.4708 0.7126 0.5201
vn -0.9491 0.3135 -0.0292
vn -0.7372 0.3182 -0.5960
vn 0.9445 0.3251 0.0469
vn 0.9749 0.2150 0.0567
vn 0.6700 0.3195 0.6700
vn 0.6789 0.2215 0.7000
vn 0.6747 0.0973 0.7317
vn 0.9935 0.1023 0.0489
usemtl Caverns_Tileset
s 1
f 30/1/1 36/2/2 1/3/3 17/4/4
f 33/5/5 39/6/6 36/7/2 30/8/1
f 34/9/7 10/10/8 9/11/9 3/12/10
f 23/13/11 7/14/12 9/15/9 10/16/8
f 27/17/13 22/18/14 26/19/15 16/20/16
f 18/21/17 6/22/18 14/23/19 15/24/20
f 20/25/21 12/26/22 5/27/23 29/28/24
f 32/29/25 4/30/26 22/31/14 27/32/13
f 15/33/20 14/34/19 8/35/27 19/36/28
f 19/37/28 8/38/27 7/39/12 23/40/11
f 29/41/24 5/42/23 4/43/26 32/44/25
f 3/12/10 9/11/9 13/45/29 35/46/30
f 7/14/12 17/47/4 13/48/29 9/15/9
f 2/49/31 23/50/11 10/51/8 34/52/7
f 22/18/14 31/53/32 11/54/33 26/19/15
f 1/55/3 27/56/13 16/57/16 35/58/30
f 41/59/34 20/60/21 29/61/24 39/62/6
f 6/22/18 24/63/35 33/64/5 14/23/19
f 40/65/36 18/66/17 15/67/20 38/68/37
f 12/26/22 21/69/38 28/70/39 5/27/23
f 4/30/26 25/71/40 31/72/32 22/31/14
f 38/73/37 15/74/20 19/75/28 37/76/41
f 14/34/19 33/77/5 30/78/1 8/35/27
f 8/38/27 30/79/1 17/80/4 7/39/12
f 37/81/41 19/82/28 23/83/11 2/84/31
f 5/42/23 28/85/39 25/86/40 4/43/26
f 36/2/2 32/87/25 27/88/13 1/3/3
f 39/6/6 29/89/24 32/90/25 36/7/2
f 25/91/40 37/81/41 2/84/31 31/92/32
f 28/93/39 38/73/37 37/76/41 25/94/40
f 21/95/38 40/65/36 38/68/37 28/96/39
f 24/97/35 41/59/34 39/62/6 33/98/5
f 17/99/4 1/55/3 35/58/30 13/100/29
f 31/101/32 2/49/31 34/52/7 11/102/33
f 26/103/15 3/12/10 35/46/30 16/104/16
f 11/105/33 34/9/7 3/12/10 26/103/15
