# Blender v2.93.5 OBJ File: 'Caverns_Landmass_Grass_05.blend'
# www.blender.org
mtllib Caverns_Landmass_Grass_05.mtl
o Cube
v -0.937500 1.343750 1.875000
v 1.023704 1.250000 0.894398
v 0.000000 1.343750 1.562500
v 1.000000 1.000000 2.000000
v 1.000000 1.281250 1.875000
v 1.132206 0.000000 3.000000
v 1.132206 0.000000 2.088137
v -1.132206 0.000000 -0.176275
v -1.132206 0.000000 3.000000
v 1.433551 -0.250000 0.909692
v 1.132206 0.000000 -0.176275
v -1.270924 -0.250000 -0.361232
v -1.000000 1.000000 3.000000
v -1.000000 1.000000 2.000000
v 1.270924 -0.250000 -0.361232
v -1.410813 -0.250000 0.909692
v -1.272095 0.000000 0.955931
v 1.294833 0.000000 0.955931
v 1.138718 1.000000 0.971313
v 1.000000 1.000000 3.000000
v 0.000000 0.000000 -0.520025
v 0.000000 -0.250000 -0.704982
v 0.000000 1.000000 -0.343750
v 1.270924 -0.250000 2.180616
v 1.270924 -0.250000 3.000000
v -1.270924 -0.250000 2.180616
v -1.270924 -0.250000 3.000000
v -1.132206 0.000000 2.088137
v -1.096892 0.968750 0.956328
v -1.000000 0.937500 0.000000
v 1.000000 0.937500 0.000000
v -0.981879 1.218750 0.879413
v 0.906250 2.500000 2.000000
v -1.000000 1.250000 3.000000
v 0.000000 2.500000 1.781250
v 1.000000 1.250000 3.000000
v 1.031250 1.500000 3.000000
v -1.000000 1.500000 3.000000
v -0.884986 1.187500 0.038098
v -1.000000 3.500000 3.000000
v 0.000000 1.593750 1.687500
v 1.031250 1.593750 2.000000
v 0.968750 3.343750 2.000000
v -0.957395 2.500000 3.000000
v 0.000000 3.437500 1.687500
v -0.968750 3.468750 2.000000
v -0.937500 1.593750 2.000000
v 0.968750 2.500000 3.000000
v 0.000000 1.343750 0.781250
v -0.926145 2.500000 2.000000
v 0.000000 1.250000 -0.266116
v 0.937500 3.406250 3.000000
v 0.884986 1.187500 0.038098
v 1.047065 1.000000 2.500000
v 1.047065 1.265625 2.500000
v -1.014406 1.000000 2.500000
v 1.317989 -0.250000 2.654241
v 1.179271 0.000000 2.654241
v -1.285330 -0.250000 2.654241
v -1.146612 0.000000 2.654241
v -0.968750 1.546875 2.500000
v 1.031250 1.546875 2.500000
v -0.968750 1.296875 2.500000
v 0.937500 2.500000 2.500000
v -0.941770 2.500000 2.500000
v -0.984375 3.484375 2.500000
v 0.984375 3.390625 2.500000
v -0.957395 3.000000 3.000000
v 0.953125 2.921875 2.000000
v -0.926145 2.984375 2.000000
v 0.968750 2.953125 3.000000
v 0.000000 2.968750 1.687500
v -0.941770 2.992188 2.500000
v 0.976562 2.945312 2.500000
v 0.000000 2.046875 1.765625
v 1.031250 2.000000 3.000000
v -1.034374 2.000000 3.000000
v 1.000000 1.984375 2.062500
v -0.987499 2.046875 2.000000
v -1.010936 2.023438 2.500000
v 1.015625 2.023438 2.500000
vt 0.136364 0.687598
vt 0.181747 0.687598
vt 0.181747 0.718652
vt 0.136364 0.718750
vt 0.136364 0.625098
vt 0.181747 0.625098
vt 0.181747 0.749902
vt 0.136364 0.749902
vt 0.045455 0.625098
vt 0.090838 0.625098
vt 0.090838 0.749902
vt 0.045455 0.749902
vt 0.000071 0.812598
vt 0.090838 0.812598
vt 0.090838 0.843652
vt 0.000071 0.843652
vt 0.000071 0.812598
vt 0.090838 0.812598
vt 0.090838 0.843652
vt 0.000071 0.843652
vt 0.000071 0.812598
vt 0.090838 0.812598
vt 0.090838 0.843652
vt 0.000071 0.843652
vt 0.000071 0.812598
vt 0.090838 0.812598
vt 0.090838 0.843652
vt 0.000071 0.843652
vt 0.000071 0.812598
vt 0.090838 0.812598
vt 0.090838 0.843652
vt 0.000071 0.843652
vt 0.000071 0.812598
vt 0.090838 0.812598
vt 0.090838 0.843652
vt 0.000071 0.843652
vt 0.090980 0.625098
vt 0.181747 0.625098
vt 0.181747 0.749902
vt 0.090980 0.749902
vt 0.090980 0.625098
vt 0.181747 0.625098
vt 0.181747 0.749902
vt 0.090980 0.749902
vt 0.000071 0.625098
vt 0.090838 0.625098
vt 0.090838 0.749902
vt 0.000071 0.749902
vt 0.000071 0.625098
vt 0.090838 0.625098
vt 0.090838 0.749902
vt 0.000071 0.749902
vt 0.090980 0.625098
vt 0.181747 0.625098
vt 0.181747 0.749902
vt 0.090980 0.749902
vt 0.000071 0.625098
vt 0.090838 0.625098
vt 0.090838 0.749902
vt 0.000071 0.749902
vt 0.090909 0.781250
vt 0.181818 0.781250
vt 0.181818 0.812500
vt 0.090909 0.812500
vt 0.090909 0.781250
vt 0.181818 0.781250
vt 0.181818 0.812500
vt 0.090909 0.812500
vt 0.045455 0.812598
vt 0.090838 0.812598
vt 0.090838 0.843652
vt 0.045455 0.843652
vt 0.045455 0.812598
vt 0.090838 0.812598
vt 0.090838 0.843652
vt 0.045455 0.843652
vt 0.090909 0.781250
vt 0.181818 0.781250
vt 0.181818 0.812500
vt 0.090909 0.812500
vt 0.090909 0.781250
vt 0.181818 0.781250
vt 0.181818 0.812500
vt 0.090909 0.812500
vt 0.090909 0.781250
vt 0.181818 0.781250
vt 0.181818 0.812500
vt 0.090909 0.812500
vt 0.090909 0.781250
vt 0.181818 0.781250
vt 0.181818 0.812500
vt 0.090909 0.812500
vt 0.136364 0.687598
vt 0.181747 0.687598
vt 0.181747 0.718652
vt 0.136364 0.718750
vt 0.181747 0.718848
vt 0.181747 0.749902
vt 0.136364 0.749902
vt 0.181747 0.718848
vt 0.181747 0.749902
vt 0.136364 0.749902
vt 0.090909 0.750000
vt 0.181818 0.750000
vt 0.181818 0.781250
vt 0.090909 0.781250
vt 0.090909 0.750000
vt 0.181818 0.750000
vt 0.181818 0.781250
vt 0.090909 0.781250
vt 0.090980 0.687500
vt 0.181747 0.687500
vt 0.181747 0.749902
vt 0.090980 0.749902
vt 0.000000 0.687500
vt 0.090909 0.687500
vt 0.090909 0.750000
vt 0.000000 0.750000
vt 0.000000 0.687500
vt 0.090909 0.687500
vt 0.090909 0.750000
vt 0.000000 0.750000
vt 0.090980 0.687500
vt 0.181747 0.687500
vt 0.181747 0.749902
vt 0.090980 0.749902
vt 0.136364 0.687500
vt 0.181747 0.687500
vt 0.181747 0.749902
vt 0.136364 0.749902
vt 0.136364 0.687500
vt 0.181747 0.687500
vt 0.181747 0.749902
vt 0.136364 0.749902
vt 0.136364 0.687500
vt 0.181747 0.687500
vt 0.181747 0.749902
vt 0.136364 0.749902
vt 0.136364 0.687500
vt 0.181747 0.687500
vt 0.181747 0.749902
vt 0.136364 0.749902
vt 0.090909 0.500000
vt 0.181818 0.500000
vt 0.181818 0.625000
vt 0.090909 0.625000
vt 0.090909 0.500000
vt 0.181818 0.500000
vt 0.181818 0.625000
vt 0.090909 0.625000
vt 0.000000 0.500000
vt 0.090909 0.500000
vt 0.090909 0.625000
vt 0.000000 0.625000
vt 0.090909 0.500000
vt 0.181818 0.500000
vt 0.181818 0.625000
vt 0.090909 0.625000
vt 0.090980 0.687500
vt 0.090980 0.749902
vt 0.090980 0.687500
vt 0.090980 0.749902
vt 0.090980 0.687500
vt 0.090980 0.749902
vt 0.090980 0.687500
vt 0.090980 0.749902
vt 0.090980 0.718848
vt 0.090980 0.749902
vt 0.090980 0.718848
vt 0.090980 0.749902
vt 0.090980 0.687598
vt 0.090980 0.718652
vt 0.000071 0.812598
vt 0.000071 0.843652
vt 0.000071 0.812598
vt 0.000071 0.843652
vt 0.000071 0.625098
vt 0.000071 0.749902
vt 0.090980 0.625098
vt 0.090980 0.749902
vt 0.090980 0.687598
vt 0.090980 0.718652
vt 0.090980 0.625098
vt 0.136364 0.625098
vt 0.090980 0.625098
vt 0.136364 0.625098
vt 0.181747 0.625098
vt 0.181747 0.625098
vt 0.090980 0.625098
vt 0.181747 0.625098
vt 0.000000 0.625000
vt 0.090909 0.625000
vt 0.090980 0.625098
vt 0.136364 0.625098
vt 0.090980 0.625098
vt 0.136364 0.625098
vt 0.181747 0.625098
vt 0.181747 0.625098
vt 0.000000 0.625000
vt 0.090909 0.625000
vt 0.090980 0.625098
vt 0.181747 0.625098
vn -0.9919 0.1261 -0.0113
vn -0.9940 0.1084 0.0104
vn -0.9984 0.0441 -0.0362
vn -0.9970 0.0649 -0.0413
vn -0.9494 0.3138 0.0063
vn -0.9490 0.3132 0.0357
vn 0.9491 0.3142 0.0207
vn 0.9500 0.3109 0.0288
vn 0.9944 0.1055 0.0025
vn 0.9982 0.0601 0.0034
vn -0.8615 0.5076 -0.0096
vn -0.8736 0.4859 0.0269
vn -0.9472 0.3177 0.0435
vn -0.9387 0.3446 0.0034
vn -0.5593 0.6447 -0.5211
vn -0.6945 0.4722 -0.5428
vn 0.8762 0.4818 0.0003
vn 0.8594 0.5112 -0.0110
vn 0.9395 0.3426 0.0039
vn 0.5562 0.6441 -0.5250
vn 0.6882 0.4689 -0.5536
vn 0.0000 0.6337 -0.7736
vn 0.0000 0.4476 -0.8942
vn 0.9725 0.2326 -0.0131
vn -0.9833 0.1809 0.0192
vn -0.9668 0.2550 -0.0121
vn -0.7609 0.2973 -0.5768
vn 0.7508 0.2884 -0.5941
vn 0.0000 0.2500 -0.9682
vn -0.8229 0.4928 -0.2828
vn -0.6255 0.7774 -0.0663
vn -0.5287 0.7104 -0.4645
vn 0.8774 0.4794 0.0189
vn -0.8753 0.4834 0.0060
vn -0.8738 0.4848 0.0364
vn -0.0039 0.7386 -0.6741
vn 0.5153 0.7067 -0.4848
vn 0.6251 0.7776 -0.0672
vn 0.8635 0.4228 -0.2749
vn 0.9998 -0.0164 0.0027
vn 0.8232 0.1625 -0.5439
vn 0.9999 0.0059 -0.0083
vn -0.9974 -0.0368 -0.0613
vn -0.9974 -0.0403 -0.0594
vn 0.0025 0.8768 -0.4808
vn -0.8207 0.1087 -0.5608
vn 0.0027 0.2835 -0.9590
vn 0.8137 0.1196 -0.5689
vn 0.0118 0.0632 -0.9979
vn 0.0064 -0.0520 -0.9986
vn 0.7450 -0.0276 -0.6664
vn -0.7928 0.0454 -0.6078
vn -0.7703 0.0244 -0.6371
vn 0.7927 -0.0754 -0.6048
vn -0.0020 -0.0581 -0.9983
vn -0.0154 -0.0104 -0.9998
vn 0.8025 -0.0199 -0.5963
vn -0.7887 -0.0588 -0.6119
vn -0.8191 -0.0637 -0.5700
vn 0.9946 0.0978 -0.0333
vn 0.9981 0.0421 -0.0439
vn 0.9992 -0.0354 -0.0146
vn 0.9999 0.0006 0.0103
vn -0.9984 0.0277 -0.0482
vn -0.9983 0.0316 -0.0482
vn -0.9967 0.0743 -0.0333
vn -0.9968 0.0719 -0.0333
vn -0.9986 -0.0431 -0.0302
vn -0.9986 -0.0432 -0.0302
vn -0.9959 -0.0855 -0.0291
vn -0.9958 -0.0862 -0.0291
vn -0.0035 0.9980 -0.0627
vn 0.9998 -0.0083 0.0159
vn 0.9982 0.0260 0.0540
vn 0.9966 0.0774 -0.0284
vn 0.9982 0.0499 -0.0332
vn 0.9974 -0.0142 0.0700
vn 0.9998 -0.0078 0.0171
vn 0.9924 0.0692 0.1018
vn 0.8683 0.4818 0.1182
vn 0.9434 0.3107 0.1157
usemtl Caverns_Tileset
s 1
f 56/1/1 13/2/2 34/3/3 63/4/4
f 60/5/5 9/6/6 13/7/2 56/8/1
f 58/9/7 7/10/8 4/11/9 54/12/10
f 16/13/11 26/14/12 28/15/13 17/16/14
f 12/17/15 16/18/11 17/19/14 8/20/16
f 24/21/17 10/22/18 18/23/19 7/24/8
f 10/25/18 15/26/20 11/27/21 18/28/19
f 22/29/22 12/30/15 8/31/16 21/32/23
f 15/33/20 22/34/22 21/35/23 11/36/21
f 7/37/8 18/38/19 19/39/24 4/40/9
f 17/41/14 28/42/13 14/43/25 29/44/26
f 8/45/16 17/46/14 29/47/26 30/48/27
f 18/49/19 11/50/21 31/51/28 19/52/24
f 21/53/23 8/54/16 30/55/27 23/56/29
f 11/57/21 21/58/23 23/59/29 31/60/28
f 29/61/26 14/62/25 1/63/30 32/64/31
f 30/65/27 29/66/26 32/67/31 39/68/32
f 57/69/33 24/70/17 7/71/8 58/72/7
f 59/73/34 27/74/35 9/75/6 60/76/5
f 31/77/28 23/78/29 51/79/36 53/80/37
f 23/81/29 30/82/27 39/83/32 51/84/36
f 19/85/24 31/86/28 53/87/37 2/88/38
f 4/89/9 19/90/24 2/91/38 5/92/39
f 54/93/10 4/94/9 5/95/39 55/96/40
f 55/96/40 5/97/39 42/98/41 62/99/42
f 63/4/4 34/100/3 38/101/43 61/102/44
f 3/103/45 1/104/30 47/105/46 41/106/47
f 5/107/39 3/108/45 41/109/47 42/110/41
f 78/111/48 75/112/49 35/113/50 33/114/51
f 75/115/49 79/116/52 50/117/53 35/118/50
f 69/119/54 72/120/55 45/121/56 43/122/57
f 72/123/55 70/124/58 46/125/59 45/126/56
f 81/127/60 78/128/48 33/129/51 64/130/61
f 74/131/62 69/132/54 43/133/57 67/134/63
f 80/135/64 77/136/65 44/137/66 65/138/67
f 73/139/68 68/140/69 40/141/70 66/142/71
f 53/143/37 51/144/36 49/145/72 2/146/38
f 51/147/36 39/148/32 32/149/31 49/150/72
f 49/151/72 32/152/31 1/153/30 3/154/45
f 2/155/38 49/156/72 3/157/45 5/158/39
f 70/159/58 73/139/68 66/142/71 46/160/59
f 79/161/52 80/135/64 65/138/67 50/162/53
f 71/163/73 74/131/62 67/134/63 52/164/74
f 76/165/75 81/127/60 64/130/61 48/166/76
f 1/167/30 63/4/4 61/102/44 47/168/46
f 36/169/77 55/96/40 62/99/42 37/170/78
f 20/171/79 54/93/10 55/96/40 36/172/77
f 26/173/12 59/73/34 60/76/5 28/174/13
f 25/175/80 57/69/33 58/72/7 6/176/81
f 6/177/81 58/9/7 54/12/10 20/178/79
f 28/179/13 60/5/5 56/8/1 14/180/25
f 14/181/25 56/1/1 63/4/4 1/182/30
f 48/183/76 64/184/61 74/131/62 71/163/73
f 50/185/53 65/186/67 73/139/68 70/159/58
f 65/186/67 44/187/66 68/140/69 73/139/68
f 64/184/61 33/188/51 69/132/54 74/131/62
f 35/189/50 50/190/53 70/124/58 72/123/55
f 33/191/51 35/192/50 72/120/55 69/119/54
f 37/193/78 62/194/42 81/127/60 76/165/75
f 47/195/46 61/196/44 80/135/64 79/161/52
f 61/196/44 38/197/43 77/136/65 80/135/64
f 62/194/42 42/198/41 78/128/48 81/127/60
f 41/199/47 47/200/46 79/116/52 75/115/49
f 42/201/41 41/202/47 75/112/49 78/111/48
