# Blender v2.93.5 OBJ File: 'Caverns_Landmass_Rock_04.blend'
# www.blender.org
mtllib Caverns_Landmass_Rock_04.mtl
o Cube
v -1.000000 -0.031250 1.000000
v -1.000000 1.906250 -0.337070
v -0.114341 2.250000 0.114341
v 0.337070 2.000000 1.000000
v 0.337070 1.000000 1.000000
v 0.337070 0.218750 1.000000
v 0.000000 2.000000 0.000000
v -2.337070 1.187500 1.000000
v 0.000000 1.093750 2.000000
v -1.000000 0.312500 -0.274570
v -1.000000 0.406250 2.337070
v -2.062500 1.093750 -0.062500
v -2.000000 1.218750 2.000000
v -2.000000 0.531250 2.000000
v -1.000000 1.093750 2.337070
v -1.937500 0.312500 0.062500
v -1.000000 1.000000 -0.337070
v 0.000000 1.000000 0.000000
v -2.305820 0.406250 1.000000
v 0.000000 0.406250 0.000000
v 0.000000 0.343750 2.000000
v -1.979409 2.187500 0.051841
v -1.000000 2.250000 2.184188
v -2.093750 1.937500 -0.062500
v -2.031250 2.000000 2.093750
v -2.399570 2.000000 1.000000
v -1.000000 2.156250 -0.184188
v -1.062500 2.437500 1.000000
v -1.000000 2.000000 2.337070
v 0.000000 2.000000 2.000000
v 0.184188 2.250000 1.000000
v -2.246688 2.250000 1.000000
v -0.114341 2.250000 1.885659
v -1.916909 2.250000 1.979409
v -2.184160 0.421875 1.500000
v -2.215410 2.000000 1.546875
v -2.168535 1.203125 1.500000
v -1.000000 0.156250 1.668535
v 0.168535 1.000000 1.500000
v 0.168535 0.250000 1.500000
v 0.034923 2.250000 1.442829
v 0.168535 2.000000 1.500000
v -2.081799 2.250000 1.489704
v -1.000000 2.375000 1.592094
v -1.500000 0.281250 -0.199785
v -1.531250 1.046875 -0.324785
v -1.500000 1.109375 2.168535
v -1.684160 0.140625 1.000000
v -1.500000 0.437500 2.168535
v -1.546875 1.921875 -0.324785
v -1.489704 2.171875 -0.066173
v -1.515625 2.000000 2.215410
v -1.458454 2.250000 2.081799
v -1.623344 2.375000 1.000000
v -1.540899 2.328125 1.540899
v -1.592080 0.195312 1.584267
v -0.331465 0.062500 1.000000
v -0.468750 0.312500 -0.199785
v -0.437500 1.000000 -0.293535
v -0.500000 1.218750 2.168535
v -0.500000 0.468750 2.168535
v -0.437500 1.953125 -0.293535
v -0.439156 2.375000 1.000000
v -0.494671 2.203125 -0.159923
v -0.500000 2.000000 2.168535
v -0.557171 2.250000 2.034924
v -0.482538 2.328125 1.486212
v -0.415733 0.140625 1.584267
v 0.168535 0.296875 0.437500
v 0.168535 2.000000 0.500000
v 0.168535 1.000000 0.500000
v -2.199785 1.140625 0.468750
v -2.184160 0.312500 0.500000
v 0.034923 2.250000 0.557171
v -1.000000 0.015625 0.331465
v -2.246660 1.968750 0.468750
v -2.113049 2.218750 0.525921
v -0.937500 2.328125 0.407906
v -1.556524 2.289062 0.466913
v -1.592080 0.085938 0.415733
v -0.482538 2.304688 0.482538
v -0.384483 0.062500 0.384483
vt 0.136364 0.687500
vt 0.181747 0.687500
vt 0.181747 0.749902
vt 0.136364 0.749902
vt 0.136364 0.687500
vt 0.181747 0.687500
vt 0.181747 0.749902
vt 0.136364 0.749902
vt 0.136364 0.687500
vt 0.181747 0.687500
vt 0.181747 0.749902
vt 0.136364 0.749902
vt 0.136364 0.687500
vt 0.181747 0.687500
vt 0.181747 0.749902
vt 0.136364 0.749902
vt 0.136364 0.625098
vt 0.181747 0.625098
vt 0.181747 0.749902
vt 0.136364 0.749902
vt 0.136364 0.625098
vt 0.181747 0.625098
vt 0.181747 0.749902
vt 0.136364 0.749902
vt 0.136364 0.625098
vt 0.181747 0.625098
vt 0.181747 0.749902
vt 0.136364 0.749902
vt 0.136364 0.625098
vt 0.181747 0.625098
vt 0.181747 0.749902
vt 0.136364 0.749902
vt 0.136364 0.625098
vt 0.181747 0.625098
vt 0.181747 0.749902
vt 0.136364 0.749902
vt 0.045455 0.625098
vt 0.090838 0.625098
vt 0.090838 0.749902
vt 0.045455 0.749902
vt 0.045455 0.625098
vt 0.090838 0.625098
vt 0.090838 0.749902
vt 0.045455 0.749902
vt 0.045455 0.625098
vt 0.090838 0.625098
vt 0.090838 0.749902
vt 0.045455 0.749902
vt 0.045455 0.625098
vt 0.090838 0.625098
vt 0.090838 0.749902
vt 0.045455 0.749902
vt 0.045455 0.625098
vt 0.090838 0.625098
vt 0.090838 0.749902
vt 0.045455 0.749902
vt 0.045455 0.625098
vt 0.090838 0.625098
vt 0.090838 0.749902
vt 0.045455 0.749902
vt 0.045455 0.625098
vt 0.090838 0.625098
vt 0.090838 0.749902
vt 0.045455 0.749902
vt 0.136364 0.625098
vt 0.181747 0.625098
vt 0.181747 0.749902
vt 0.136364 0.749902
vt 0.045455 0.625098
vt 0.090838 0.625098
vt 0.090838 0.749902
vt 0.045455 0.749902
vt 0.136364 0.625098
vt 0.181747 0.625098
vt 0.181747 0.749902
vt 0.136364 0.749902
vt 0.136364 0.625098
vt 0.181747 0.625098
vt 0.181747 0.749902
vt 0.136364 0.749902
vt 0.045455 0.843848
vt 0.090838 0.843848
vt 0.090838 0.874902
vt 0.045455 0.874902
vt 0.045455 0.843848
vt 0.090838 0.843848
vt 0.090838 0.874902
vt 0.045455 0.874902
vt 0.045455 0.843848
vt 0.090838 0.843848
vt 0.090838 0.874902
vt 0.045455 0.874902
vt 0.045455 0.843848
vt 0.090838 0.843848
vt 0.090838 0.874902
vt 0.045455 0.874902
vt 0.045455 0.843848
vt 0.090838 0.843848
vt 0.090838 0.874902
vt 0.045455 0.875000
vt 0.045455 0.843848
vt 0.090838 0.843848
vt 0.090838 0.874902
vt 0.045455 0.874902
vt 0.045455 0.843848
vt 0.090838 0.843848
vt 0.090838 0.874902
vt 0.045455 0.874902
vt 0.045455 0.843848
vt 0.090838 0.843848
vt 0.090838 0.874902
vt 0.045455 0.874902
vt 0.045455 0.937500
vt 0.090838 0.937500
vt 0.090838 0.999902
vt 0.045455 0.999902
vt 0.136364 0.937500
vt 0.181747 0.937500
vt 0.181747 0.999902
vt 0.136364 0.999902
vt 0.045455 0.937500
vt 0.090838 0.937500
vt 0.090838 0.999902
vt 0.045455 0.999902
vt 0.045455 0.937500
vt 0.090838 0.937500
vt 0.090838 0.999902
vt 0.045455 0.999902
vt 0.090838 0.875098
vt 0.045455 0.875098
vt 0.090838 0.875098
vt 0.000071 0.843848
vt 0.000071 0.874902
vt 0.000071 0.843848
vt 0.000071 0.874902
vt 0.000071 0.625098
vt 0.000071 0.749902
vt 0.000071 0.625098
vt 0.000071 0.749902
vt 0.000071 0.625098
vt 0.000071 0.749902
vt 0.090980 0.625098
vt 0.090980 0.749902
vt 0.136364 0.625098
vt 0.181747 0.625098
vt 0.181747 0.625098
vt 0.090980 0.625098
vt 0.090980 0.687500
vt 0.000071 0.875098
vt 0.000071 0.937500
vt 0.000071 0.937500
vt 0.000071 0.999902
vt 0.000071 0.999902
vt 0.000071 0.843848
vt 0.000071 0.874902
vt 0.000071 0.843848
vt 0.000071 0.874902
vt 0.000071 0.625098
vt 0.000071 0.749902
vt 0.000071 0.625098
vt 0.000071 0.749902
vt 0.090980 0.625098
vt 0.090980 0.749902
vt 0.090980 0.625098
vt 0.090980 0.749902
vt 0.090980 0.687500
vt 0.090980 0.749902
vt 0.090980 0.749902
vt 0.090980 0.687500
vt 0.000071 0.875098
vt 0.000071 0.937500
vt 0.090980 0.937500
vt 0.090980 0.999902
vt 0.000071 0.999902
vt 0.000071 0.843848
vt 0.000071 0.874902
vt 0.000071 0.843848
vt 0.000071 0.874902
vt 0.090980 0.625098
vt 0.090980 0.749902
vt 0.000071 0.625098
vt 0.000071 0.749902
vt 0.000071 0.625098
vt 0.000071 0.749902
vt 0.090980 0.749902
vt 0.090980 0.687500
vt 0.090980 0.749902
vt 0.090980 0.749902
vt 0.090980 0.625098
vt 0.136364 0.625098
vt 0.090980 0.875098
vt 0.136364 0.875098
vt 0.090980 0.625098
vt 0.136364 0.625098
vt 0.000071 0.875098
vt 0.045455 0.875098
vt 0.090838 0.875098
vt 0.181747 0.875098
vt 0.000071 0.843848
vt 0.000071 0.874902
vt 0.000071 0.843848
vt 0.000071 0.874902
vt 0.090980 0.749902
vt 0.090980 0.625098
vt 0.090980 0.749902
vt 0.000071 0.625098
vt 0.000071 0.749902
vt 0.090980 0.625098
vt 0.090980 0.749902
vt 0.181747 0.625098
vn 0.1185 -0.9494 0.2907
vn -0.0246 -0.9492 0.3137
vn -0.0434 -0.9949 0.0906
vn 0.1845 -0.9817 0.0476
vn 0.2220 -0.9445 -0.2418
vn -0.0189 -0.9735 -0.2278
vn 0.0049 -0.5693 -0.8221
vn 0.2759 -0.5651 -0.7775
vn -0.2594 -0.9271 0.2706
vn -0.7764 -0.5471 0.3129
vn -0.8568 -0.5128 0.0538
vn -0.2894 -0.9524 0.0958
vn -0.2451 -0.9576 -0.1513
vn -0.7769 -0.5927 -0.2122
vn -0.6207 -0.5682 -0.5403
vn -0.2647 -0.6055 -0.7505
vn -0.2615 -0.0838 -0.9615
vn -0.7547 -0.0939 -0.6493
vn -0.7236 0.2849 -0.6287
vn -0.2167 0.3222 -0.9215
vn -0.3003 -0.0262 0.9535
vn 0.0114 -0.0071 0.9999
vn 0.0318 0.2508 0.9675
vn -0.2470 0.2286 0.9416
vn 0.2672 -0.4925 0.8282
vn 0.5544 -0.5097 0.6579
vn 0.7071 0.0000 0.7071
vn 0.3194 0.0000 0.9476
vn 0.9478 0.0072 -0.3188
vn 0.7787 -0.0158 -0.6272
vn 0.7563 0.2698 -0.5959
vn 0.9151 0.2596 -0.3085
vn 0.6995 -0.6226 0.3508
vn 0.8172 -0.5760 0.0181
vn 1.0000 0.0033 0.0047
vn 0.9476 0.0000 0.3194
vn 0.9662 0.2576 0.0000
vn 0.9151 0.2596 0.3085
vn 0.6821 0.2635 0.6821
vn 0.3085 0.2596 0.9151
vn -0.3179 -0.5483 0.7735
vn -0.0056 -0.5230 0.8523
vn -0.9491 -0.0370 0.3129
vn -0.7024 -0.0472 0.7102
vn -0.6637 0.2185 0.7154
vn -0.9235 0.2235 0.3116
vn -0.6394 -0.4023 0.6552
vn 0.3147 -0.0483 -0.9479
vn 0.0181 -0.0631 -0.9978
vn -0.0017 0.2875 -0.9578
vn 0.2991 0.2594 -0.9183
vn -0.9581 -0.0636 -0.2792
vn -0.9985 -0.0473 0.0259
vn -0.9734 0.2282 0.0191
vn -0.9331 0.2327 -0.2741
vn 0.7700 -0.5461 -0.3299
vn 0.6817 -0.4055 -0.6090
vn -0.4218 0.8028 -0.4214
vn -0.1231 0.8514 -0.5099
vn -0.0348 0.8066 -0.5900
vn 0.1579 0.7915 -0.5904
vn -0.6084 0.7935 -0.0086
vn -0.5288 0.8167 -0.2308
vn -0.4113 0.7866 0.4605
vn -0.5332 0.8213 0.2026
vn 0.0321 0.7900 0.6122
vn -0.1525 0.8205 0.5509
vn 0.4345 0.7889 0.4345
vn 0.2062 0.8185 0.5361
vn 0.6149 0.7885 -0.0042
vn 0.5351 0.8200 0.2032
vn 0.4469 0.8155 -0.3677
vn 0.5228 0.8260 -0.2106
vn 0.1182 0.9865 0.1129
vn 0.1356 0.9906 -0.0178
vn 0.0734 0.9871 -0.1424
vn -0.1093 0.9872 0.1163
vn 0.0092 0.9892 0.1462
vn -0.0104 0.9994 -0.0339
vn -0.1391 0.9897 -0.0344
vn -0.0985 0.9779 -0.1842
vn -0.0114 0.9793 -0.2021
usemtl Caverns_Tileset
s 1
f 68/1/1 38/2/2 1/3/3 57/4/4
f 82/5/5 75/6/6 10/7/7 58/8/8
f 56/9/9 35/10/10 19/11/11 48/12/12
f 80/13/13 73/14/14 16/15/15 45/16/16
f 46/17/17 12/18/18 24/19/19 50/20/20
f 47/21/21 15/22/22 29/23/23 52/24/24
f 61/25/25 21/26/26 9/27/27 60/28/28
f 71/29/29 18/30/30 7/31/31 70/32/32
f 40/33/33 6/34/34 5/35/35 39/36/36
f 39/37/36 5/38/35 4/39/37 42/40/38
f 60/41/28 9/42/27 30/43/39 65/44/40
f 49/45/41 11/46/42 15/47/22 47/48/21
f 37/49/43 13/50/44 25/51/45 36/52/46
f 35/53/10 14/54/47 13/55/44 37/56/43
f 59/57/48 17/58/49 2/59/50 62/60/51
f 72/61/52 8/62/53 26/63/54 76/64/55
f 73/65/14 19/66/11 8/67/53 72/68/52
f 45/69/16 16/70/15 12/71/18 46/72/17
f 58/73/8 10/74/7 17/75/49 59/76/48
f 69/77/56 20/78/57 18/79/30 71/80/29
f 50/81/20 24/82/19 22/83/58 51/84/59
f 62/85/51 2/86/50 27/87/60 64/88/61
f 76/89/55 26/90/54 32/91/62 77/92/63
f 36/93/46 25/94/45 34/95/64 43/96/65
f 52/97/24 29/98/23 23/99/66 53/100/67
f 65/101/40 30/102/39 33/103/68 66/104/69
f 42/105/38 4/106/37 31/107/70 41/108/71
f 70/109/32 7/110/31 3/111/72 74/112/73
f 67/113/74 41/114/71 31/115/70 63/116/75
f 81/117/76 74/118/73 3/119/72 64/120/61
f 55/121/77 44/122/78 28/123/79 54/124/80
f 79/125/81 78/126/82 27/127/60 51/128/59
f 53/100/67 23/129/66 44/122/78 55/121/77
f 66/130/69 33/131/68 41/114/71 67/113/74
f 30/132/39 42/105/38 41/108/71 33/133/68
f 26/134/54 36/93/46 43/96/65 32/135/62
f 19/136/11 35/53/10 37/56/43 8/137/53
f 8/138/53 37/49/43 36/52/46 26/139/54
f 9/140/27 39/37/36 42/40/38 30/141/39
f 21/142/26 40/33/33 39/36/36 9/143/27
f 49/144/41 14/145/47 35/10/10 56/9/9
f 61/25/25 11/146/42 38/2/2 68/1/1
f 11/147/42 49/144/41 56/9/9 38/148/2
f 34/149/64 53/100/67 55/121/77 43/150/65
f 77/151/63 79/125/81 51/128/59 22/152/58
f 43/150/65 55/121/77 54/124/80 32/153/62
f 25/154/45 52/97/24 53/100/67 34/155/64
f 2/156/50 50/81/20 51/84/59 27/157/60
f 10/158/7 45/69/16 46/72/17 17/159/49
f 14/160/47 49/45/41 47/48/21 13/161/44
f 13/162/44 47/21/21 52/24/24 25/163/45
f 17/164/49 46/17/17 50/20/20 2/165/50
f 75/166/6 80/13/13 45/16/16 10/167/7
f 38/148/2 56/9/9 48/12/12 1/168/3
f 21/142/26 61/25/25 68/1/1 40/169/33
f 23/170/66 66/130/69 67/113/74 44/171/78
f 78/172/82 81/117/76 64/120/61 27/173/60
f 44/171/78 67/113/74 63/116/75 28/174/79
f 29/175/23 65/101/40 66/104/69 23/176/66
f 7/177/31 62/85/51 64/88/61 3/178/72
f 20/179/57 58/73/8 59/76/48 18/180/30
f 18/181/30 59/57/48 62/60/51 7/182/31
f 15/183/22 60/41/28 65/44/40 29/184/23
f 11/147/42 61/25/25 60/28/28 15/185/22
f 69/186/56 82/5/5 58/8/8 20/187/57
f 40/169/33 68/1/1 57/4/4 6/188/34
f 6/189/34 57/190/4 82/5/5 69/186/56
f 28/191/79 63/192/75 81/117/76 78/172/82
f 1/193/3 48/194/12 80/13/13 75/166/6
f 32/195/62 54/196/80 79/125/81 77/151/63
f 54/196/80 28/197/79 78/126/82 79/125/81
f 63/192/75 31/198/70 74/118/73 81/117/76
f 4/199/37 70/109/32 74/112/73 31/200/70
f 24/201/19 76/89/55 77/92/63 22/202/58
f 6/189/34 69/77/56 71/80/29 5/203/35
f 16/204/15 73/65/14 72/68/52 12/205/18
f 12/206/18 72/61/52 76/64/55 24/207/19
f 5/208/35 71/29/29 70/32/32 4/209/37
f 48/194/12 19/66/11 73/14/14 80/13/13
f 57/190/4 1/210/3 75/6/6 82/5/5
